G75*
G70*
%OFA0B0*%
%FSLAX24Y24*%
%IPPOS*%
%LPD*%
%AMOC8*
5,1,8,0,0,1.08239X$1,22.5*
%
%ADD10R,0.0472X0.0118*%
%ADD11R,0.0118X0.0472*%
%ADD12R,0.0146X0.0256*%
%ADD13R,0.0376X0.0146*%
%ADD14R,0.0256X0.0146*%
%ADD15R,0.0146X0.0376*%
%ADD16R,0.0146X0.0296*%
%ADD17R,0.0197X0.0197*%
%ADD18R,0.0472X0.0984*%
%ADD19R,0.0472X0.0315*%
%ADD20R,0.0760X0.0500*%
%ADD21R,0.0500X0.0760*%
%ADD22R,0.0354X0.0315*%
%ADD23R,0.0394X0.0433*%
%ADD24R,0.0787X0.0591*%
%ADD25R,0.0433X0.0394*%
%ADD26R,0.1181X0.0394*%
%ADD27R,0.0236X0.0866*%
%ADD28R,0.0315X0.0472*%
%ADD29C,0.0236*%
%ADD30R,0.0217X0.0472*%
%ADD31R,0.0315X0.0315*%
%ADD32R,0.0984X0.0472*%
%ADD33R,0.0551X0.0630*%
D10*
X004872Y011882D03*
X004872Y012079D03*
X004872Y012276D03*
X004872Y012473D03*
X004872Y012669D03*
X004872Y012866D03*
X004872Y013063D03*
X004872Y013260D03*
X004872Y013457D03*
X004872Y013654D03*
X004872Y013851D03*
X004872Y014047D03*
X004872Y014244D03*
X004872Y014441D03*
X004872Y014638D03*
X004872Y014835D03*
X009361Y014835D03*
X009361Y014638D03*
X009361Y014441D03*
X009361Y014244D03*
X009361Y014047D03*
X009361Y013851D03*
X009361Y013654D03*
X009361Y013457D03*
X009361Y013260D03*
X009361Y013063D03*
X009361Y012866D03*
X009361Y012669D03*
X009361Y012473D03*
X009361Y012276D03*
X009361Y012079D03*
X009361Y011882D03*
D11*
X008593Y011114D03*
X008396Y011114D03*
X008199Y011114D03*
X008002Y011114D03*
X007806Y011114D03*
X007609Y011114D03*
X007412Y011114D03*
X007215Y011114D03*
X007018Y011114D03*
X006821Y011114D03*
X006624Y011114D03*
X006428Y011114D03*
X006231Y011114D03*
X006034Y011114D03*
X005837Y011114D03*
X005640Y011114D03*
X005640Y015603D03*
X005837Y015603D03*
X006034Y015603D03*
X006231Y015603D03*
X006428Y015603D03*
X006624Y015603D03*
X006821Y015603D03*
X007018Y015603D03*
X007215Y015603D03*
X007412Y015603D03*
X007609Y015603D03*
X007806Y015603D03*
X008002Y015603D03*
X008199Y015603D03*
X008396Y015603D03*
X008593Y015603D03*
D12*
X011233Y011169D03*
X011489Y011169D03*
X011489Y011053D03*
X011744Y011052D03*
X011744Y011169D03*
X012000Y011169D03*
D13*
X012366Y011730D03*
X012366Y011986D03*
X010868Y011986D03*
X010868Y011475D03*
D14*
X010928Y011730D03*
X010928Y012242D03*
X012306Y012242D03*
X012306Y011475D03*
D15*
X011233Y012607D03*
D16*
X011489Y012567D03*
X011744Y012567D03*
X012000Y012567D03*
D17*
X011617Y011858D03*
D18*
X011466Y019258D03*
X010167Y019258D03*
X011767Y004458D03*
X013066Y004458D03*
D19*
X016567Y009454D03*
X016567Y010163D03*
X015917Y017454D03*
X015917Y018163D03*
X007317Y006613D03*
X007317Y005904D03*
D20*
X010969Y008258D03*
X012322Y008258D03*
X012311Y009638D03*
X010969Y009640D03*
X010969Y014258D03*
X010969Y015640D03*
X012311Y015638D03*
X012322Y014258D03*
D21*
X014216Y012506D03*
X014216Y011153D03*
X015596Y011164D03*
X015598Y012506D03*
D22*
X005010Y005484D03*
X005010Y006232D03*
X005010Y006984D03*
X005010Y007732D03*
X004183Y007358D03*
X004183Y005858D03*
X005010Y015984D03*
X005010Y016732D03*
X005010Y017484D03*
X005010Y018232D03*
X004183Y017858D03*
X004183Y016358D03*
X018223Y015984D03*
X018223Y016732D03*
X018223Y017484D03*
X018223Y018232D03*
X019050Y017858D03*
X019050Y016358D03*
X018223Y007732D03*
X018223Y006984D03*
X018223Y006232D03*
X018223Y005484D03*
X019050Y005858D03*
X019050Y007358D03*
D23*
X020517Y006693D03*
X020517Y006024D03*
X018617Y008924D03*
X018617Y009593D03*
X017817Y009593D03*
X017817Y008924D03*
X016567Y010774D03*
X016567Y011443D03*
X016317Y012574D03*
X016317Y013243D03*
X018367Y014374D03*
X018367Y015043D03*
X019167Y015043D03*
X019167Y014374D03*
X020517Y017024D03*
X020517Y017693D03*
X015917Y018924D03*
X015917Y019593D03*
X013867Y019593D03*
X013867Y018924D03*
X012967Y018924D03*
X012967Y019593D03*
X012267Y019593D03*
X012267Y018924D03*
X013667Y016043D03*
X013667Y015374D03*
X013667Y014593D03*
X013667Y013924D03*
X010367Y013243D03*
X010367Y012574D03*
X010267Y011893D03*
X010267Y011224D03*
X012367Y007693D03*
X012367Y007024D03*
X013267Y007024D03*
X013267Y007693D03*
X014467Y009274D03*
X014467Y009943D03*
X015317Y009943D03*
X015317Y009274D03*
X010617Y004743D03*
X010617Y004074D03*
X008617Y004024D03*
X008617Y004693D03*
X002717Y006024D03*
X002717Y006693D03*
X003817Y012274D03*
X003817Y012943D03*
X004067Y014624D03*
X004067Y015293D03*
X002717Y017024D03*
X002717Y017693D03*
D24*
X002517Y017858D03*
X002517Y016858D03*
X002517Y006858D03*
X002517Y005858D03*
X020717Y005858D03*
X020717Y006858D03*
X020717Y008358D03*
X020717Y009358D03*
X020717Y016858D03*
X020717Y017858D03*
D25*
X017451Y018158D03*
X016782Y018158D03*
X016782Y017258D03*
X017451Y017258D03*
X017451Y019058D03*
X016782Y019058D03*
X016782Y013908D03*
X017451Y013908D03*
X015851Y013908D03*
X015182Y013908D03*
X012451Y010558D03*
X011782Y010558D03*
X010801Y010558D03*
X010132Y010558D03*
X008451Y010308D03*
X007782Y010308D03*
X007901Y007458D03*
X007232Y007458D03*
X006451Y007158D03*
X005782Y007158D03*
X005782Y006258D03*
X006451Y006258D03*
X006451Y005358D03*
X005782Y005358D03*
X005782Y004258D03*
X006451Y004258D03*
X008582Y007458D03*
X009251Y007458D03*
X011282Y013108D03*
X011951Y013108D03*
X008701Y016408D03*
X008032Y016408D03*
X006451Y016858D03*
X005782Y016858D03*
X005782Y017658D03*
X006451Y017658D03*
X006451Y018458D03*
X005782Y018458D03*
X016782Y007258D03*
X017451Y007258D03*
X017451Y006358D03*
X016782Y006358D03*
X016782Y005458D03*
X017451Y005458D03*
X019832Y013758D03*
X020501Y013758D03*
D26*
X002648Y013558D03*
X002648Y014558D03*
X002648Y015558D03*
X002648Y012558D03*
D27*
X017317Y012732D03*
X017817Y012732D03*
X018317Y012732D03*
X018817Y012732D03*
X019317Y012732D03*
X019817Y012732D03*
X020317Y012732D03*
X020317Y010685D03*
X019817Y010685D03*
X019317Y010685D03*
X018817Y010685D03*
X018317Y010685D03*
X017817Y010685D03*
X017317Y010685D03*
D28*
X019812Y014558D03*
X020521Y014558D03*
X017471Y014708D03*
X016762Y014708D03*
D29*
X007371Y020609D02*
X007371Y021907D01*
X007371Y020609D02*
X006663Y020609D01*
X006663Y021907D01*
X007371Y021907D01*
X007371Y020844D02*
X006663Y020844D01*
X006663Y021079D02*
X007371Y021079D01*
X007371Y021314D02*
X006663Y021314D01*
X006663Y021549D02*
X007371Y021549D01*
X007371Y021784D02*
X006663Y021784D01*
X015863Y003107D02*
X015863Y001809D01*
X015863Y003107D02*
X016571Y003107D01*
X016571Y001809D01*
X015863Y001809D01*
X015863Y002044D02*
X016571Y002044D01*
X016571Y002279D02*
X015863Y002279D01*
X015863Y002514D02*
X016571Y002514D01*
X016571Y002749D02*
X015863Y002749D01*
X015863Y002984D02*
X016571Y002984D01*
D30*
X007891Y004247D03*
X007517Y004247D03*
X007143Y004247D03*
X007143Y005270D03*
X007891Y005270D03*
X014443Y018547D03*
X015191Y018547D03*
X015191Y019570D03*
X014817Y019570D03*
X014443Y019570D03*
D31*
X010967Y017404D03*
X010967Y016813D03*
X009817Y016813D03*
X009817Y017404D03*
X009817Y004704D03*
X009817Y004113D03*
D32*
X015367Y004859D03*
X015367Y006158D03*
D33*
X007068Y019258D03*
X005965Y019258D03*
M02*
