%
M48
M72
T01C0.0236
T02C0.0240
T03C0.0276
T04C0.0315
T05C0.0354
T06C0.0472
T07C0.1300
%
T01
X2617Y4608
X3567Y6408
X4717Y6258
X4717Y7758
X4217Y8008
X4217Y9208
X5317Y9108
X5667Y10258
X5167Y10508
X5217Y11058
X5567Y12258
X6467Y12908
X6167Y13758
X6367Y14308
X5817Y14708
X6817Y14958
X7217Y14458
X7917Y14908
X8717Y14258
X8717Y13708
X9917Y14358
X10717Y14758
X10967Y16308
X11767Y17508
X12767Y17508
X13467Y17508
X14517Y17658
X14617Y16558
X14567Y15608
X14567Y15058
X14567Y13908
X13717Y13208
X12567Y12958
X13567Y11208
X13767Y10358
X12467Y10908
X11267Y10108
X12367Y8958
X13717Y8408
X14117Y7908
X14917Y8708
X16217Y8808
X17367Y8408
X16167Y7058
X15617Y7058
X13967Y5908
X12967Y5908
X11917Y5908
X10267Y7558
X10217Y8258
X9417Y6608
X8817Y6608
X6667Y7758
X7117Y10108
X6217Y10258
X7517Y11908
X8317Y11958
X9817Y11208
X10717Y13258
X9817Y16308
X8967Y17158
X10817Y18408
X10867Y19758
X9467Y20358
X8517Y19558
X4717Y18258
X4717Y16758
X3567Y17258
X2667Y19108
X4517Y20758
X4917Y15408
X4217Y14108
X3117Y13208
X4167Y10358
X5267Y4858
X4467Y2958
X14717Y4158
X17317Y4608
X18517Y5458
X19617Y6408
X18517Y6958
X19517Y7958
X20067Y8508
X20067Y9558
X19317Y9758
X19467Y11458
X20017Y11858
X18417Y13858
X16917Y13008
X17917Y11658
X15567Y11958
X14717Y11808
X16117Y14658
X15967Y15608
X15817Y16558
X16467Y16558
X17067Y16558
X17267Y15658
X18517Y15958
X19367Y15758
X20117Y15458
X19667Y17258
X18517Y17458
X18067Y18758
X17117Y19708
X18767Y20758
X20517Y19058
X13267Y19758
X12267Y18458
X20617Y4558
X18717Y2958
T02
X8217Y8958
X6217Y8958
T03
X8267Y17158
T04
X3504Y11458
X3504Y10671
X3504Y9884
X3504Y9096
X3504Y8309
X2717Y8309
X2717Y9096
X2717Y9884
X2717Y10671
X2717Y11458
X18617Y11708
T05
X10967Y5908
T06
X14739Y3358
X16117Y3358
X8494Y20358
X7117Y20358
T07
X3617Y3858
X3617Y19858
X19617Y19858
X19617Y3858
M30
