G75*
G70*
%OFA0B0*%
%FSLAX24Y24*%
%IPPOS*%
%LPD*%
%AMOC8*
5,1,8,0,0,1.08239X$1,22.5*
%
%ADD10R,0.0800X0.0800*%
%ADD11C,0.0800*%
%ADD12R,0.0555X0.0555*%
%ADD13C,0.0555*%
%ADD14C,0.0236*%
%ADD15C,0.0560*%
%ADD16R,0.0433X0.0394*%
%ADD17R,0.0394X0.0433*%
%ADD18C,0.0100*%
%ADD19C,0.0436*%
%ADD20C,0.0160*%
%ADD21R,0.0515X0.0515*%
%ADD22R,0.0554X0.0554*%
%ADD23C,0.0120*%
%ADD24R,0.0476X0.0476*%
%ADD25R,0.0436X0.0436*%
%ADD26C,0.0500*%
%ADD27C,0.0560*%
%ADD28C,0.0240*%
%ADD29C,0.0320*%
D10*
X016117Y003358D03*
X007117Y020358D03*
D11*
X008494Y020358D03*
X014739Y003358D03*
D12*
X002717Y011458D03*
D13*
X002717Y010671D03*
X003504Y010671D03*
X003504Y011458D03*
X003504Y009884D03*
X003504Y009096D03*
X003504Y008309D03*
X002717Y008309D03*
X002717Y009096D03*
X002717Y009884D03*
D14*
X008971Y020609D02*
X008971Y021907D01*
X008971Y020609D02*
X008263Y020609D01*
X008263Y021907D01*
X008971Y021907D01*
X008971Y020844D02*
X008263Y020844D01*
X008263Y021079D02*
X008971Y021079D01*
X008971Y021314D02*
X008263Y021314D01*
X008263Y021549D02*
X008971Y021549D01*
X008971Y021784D02*
X008263Y021784D01*
X014263Y003107D02*
X014263Y001809D01*
X014263Y003107D02*
X014971Y003107D01*
X014971Y001809D01*
X014263Y001809D01*
X014263Y002044D02*
X014971Y002044D01*
X014971Y002279D02*
X014263Y002279D01*
X014263Y002514D02*
X014971Y002514D01*
X014971Y002749D02*
X014263Y002749D01*
X014263Y002984D02*
X014971Y002984D01*
D15*
X008217Y008958D03*
X006217Y008958D03*
D16*
X006382Y012008D03*
X007051Y012008D03*
X007982Y013008D03*
X008651Y013008D03*
X006201Y016458D03*
X005532Y016458D03*
X004201Y013258D03*
X003532Y013258D03*
D17*
X007967Y013624D03*
X007967Y014293D03*
X009817Y016774D03*
X009817Y017443D03*
X010967Y017443D03*
X010967Y016774D03*
X013417Y018624D03*
X013417Y019293D03*
D18*
X002390Y002844D02*
X002479Y002721D01*
X002602Y002631D01*
X002747Y002584D01*
X002824Y002578D01*
X013994Y002578D01*
X013994Y003134D01*
X014004Y003186D01*
X014025Y003235D01*
X014054Y003279D01*
X014091Y003316D01*
X014135Y003346D01*
X014184Y003366D01*
X014236Y003376D01*
X014567Y003376D01*
X014567Y003308D01*
X014666Y003308D01*
X014666Y003376D01*
X014688Y003376D01*
X014688Y003408D01*
X014190Y003408D01*
X014202Y003487D01*
X014229Y003570D01*
X014268Y003647D01*
X014319Y003717D01*
X014380Y003778D01*
X014450Y003829D01*
X014527Y003868D01*
X014610Y003895D01*
X014689Y003907D01*
X014689Y003409D01*
X014789Y003409D01*
X014789Y003907D01*
X014867Y003895D01*
X014950Y003868D01*
X015027Y003829D01*
X015097Y003778D01*
X015158Y003717D01*
X015209Y003647D01*
X015248Y003570D01*
X015275Y003487D01*
X015287Y003408D01*
X014789Y003408D01*
X014789Y003376D01*
X014997Y003376D01*
X015049Y003366D01*
X015098Y003346D01*
X015142Y003316D01*
X015150Y003308D01*
X015287Y003308D01*
X015275Y003230D01*
X015248Y003147D01*
X015239Y003129D01*
X015239Y002578D01*
X020318Y002578D01*
X020336Y002578D01*
X020409Y002578D01*
X020486Y002584D01*
X020631Y002631D01*
X020754Y002721D01*
X020843Y002844D01*
X020891Y002989D01*
X020897Y003065D01*
X020897Y020651D01*
X020891Y020728D01*
X020843Y020872D01*
X020754Y020996D01*
X020631Y021085D01*
X020486Y021132D01*
X020409Y021138D01*
X009239Y021138D01*
X009239Y020582D01*
X009229Y020531D01*
X009208Y020482D01*
X009179Y020438D01*
X009142Y020401D01*
X009098Y020371D01*
X009049Y020351D01*
X008997Y020341D01*
X008666Y020341D01*
X008666Y020408D01*
X008567Y020408D01*
X008567Y020341D01*
X008545Y020341D01*
X008545Y020308D01*
X009043Y020308D01*
X009031Y020230D01*
X009004Y020147D01*
X008965Y020070D01*
X008914Y020000D01*
X008853Y019939D01*
X008783Y019888D01*
X008706Y019849D01*
X008623Y019822D01*
X008544Y019809D01*
X008544Y020308D01*
X008444Y020308D01*
X008444Y019809D01*
X008366Y019822D01*
X008283Y019849D01*
X008206Y019888D01*
X008136Y019939D01*
X008075Y020000D01*
X008024Y020070D01*
X007985Y020147D01*
X007958Y020230D01*
X007946Y020308D01*
X008444Y020308D01*
X008444Y020341D01*
X008236Y020341D01*
X008184Y020351D01*
X008135Y020371D01*
X008091Y020401D01*
X008084Y020408D01*
X007946Y020408D01*
X007958Y020487D01*
X007985Y020570D01*
X007994Y020588D01*
X007994Y021138D01*
X002915Y021138D01*
X002862Y021138D01*
X002824Y021138D01*
X002747Y021132D01*
X002602Y021085D01*
X002479Y020996D01*
X002390Y020872D01*
X002342Y020728D01*
X002336Y020651D01*
X002336Y011874D01*
X002369Y011906D01*
X002467Y011906D01*
X002467Y012709D01*
X002467Y012808D01*
X002467Y015309D01*
X002467Y015408D01*
X002505Y015500D01*
X004505Y017500D01*
X004505Y017500D01*
X004575Y017570D01*
X004575Y017570D01*
X005305Y018300D01*
X005375Y018370D01*
X005467Y018408D01*
X008217Y018408D01*
X008316Y018408D01*
X009713Y018408D01*
X010705Y019400D01*
X010705Y019400D01*
X010775Y019470D01*
X010867Y019508D01*
X012367Y019508D01*
X012466Y019508D01*
X012558Y019470D01*
X012858Y019170D01*
X012928Y019100D01*
X012966Y019008D01*
X012966Y018562D01*
X013070Y018459D01*
X013070Y018575D01*
X013368Y018575D01*
X013368Y018672D01*
X013070Y018672D01*
X013070Y018860D01*
X013080Y018898D01*
X013100Y018932D01*
X013112Y018944D01*
X013050Y019006D01*
X013050Y019428D01*
X013047Y019429D01*
X012938Y019539D01*
X012878Y019681D01*
X012878Y019836D01*
X012938Y019978D01*
X013047Y020087D01*
X013189Y020146D01*
X013344Y020146D01*
X013486Y020087D01*
X013596Y019978D01*
X013655Y019836D01*
X013655Y019681D01*
X013654Y019680D01*
X013684Y019680D01*
X013783Y019580D01*
X013783Y019006D01*
X013721Y018944D01*
X013733Y018932D01*
X013753Y018898D01*
X013763Y018860D01*
X013763Y018672D01*
X013465Y018672D01*
X013465Y018575D01*
X013763Y018575D01*
X013763Y018387D01*
X013753Y018349D01*
X013733Y018315D01*
X013727Y018308D01*
X014067Y018308D01*
X014166Y018308D01*
X014258Y018270D01*
X014482Y018046D01*
X014594Y018046D01*
X014736Y017987D01*
X014846Y017878D01*
X014905Y017736D01*
X014905Y017581D01*
X014875Y017511D01*
X015308Y017078D01*
X015308Y017078D01*
X015436Y016950D01*
X015436Y014467D01*
X015308Y014338D01*
X014955Y013985D01*
X014955Y013831D01*
X014896Y013689D01*
X014786Y013579D01*
X014644Y013520D01*
X014489Y013520D01*
X014347Y013579D01*
X014238Y013689D01*
X014178Y013831D01*
X014178Y013986D01*
X014238Y014128D01*
X014347Y014237D01*
X014489Y014296D01*
X014644Y014296D01*
X014997Y014650D01*
X014997Y016767D01*
X014494Y017270D01*
X014454Y017270D01*
X013796Y016613D01*
X013662Y016478D01*
X012762Y016478D01*
X011105Y014821D01*
X011105Y014681D01*
X011046Y014539D01*
X010936Y014429D01*
X010794Y014370D01*
X010639Y014370D01*
X010497Y014429D01*
X010388Y014539D01*
X010328Y014681D01*
X010328Y014836D01*
X010388Y014978D01*
X010497Y015087D01*
X010639Y015146D01*
X010779Y015146D01*
X011221Y015588D01*
X008808Y015588D01*
X008275Y015056D01*
X008305Y014986D01*
X008305Y014831D01*
X008246Y014689D01*
X008235Y014678D01*
X008333Y014580D01*
X008333Y014513D01*
X008422Y014513D01*
X008497Y014587D01*
X008639Y014646D01*
X008794Y014646D01*
X008936Y014587D01*
X009046Y014478D01*
X009105Y014336D01*
X009105Y014181D01*
X009046Y014039D01*
X008990Y013983D01*
X009046Y013928D01*
X009105Y013786D01*
X009105Y013631D01*
X009046Y013489D01*
X008936Y013379D01*
X008878Y013355D01*
X008887Y013355D01*
X008926Y013345D01*
X008960Y013325D01*
X008988Y013297D01*
X009007Y013263D01*
X009018Y013225D01*
X009018Y013057D01*
X008700Y013057D01*
X008700Y012960D01*
X009018Y012960D01*
X009018Y012792D01*
X009014Y012778D01*
X015625Y012778D01*
X016075Y013228D01*
X016258Y013228D01*
X016588Y013228D01*
X016697Y013337D01*
X016839Y013396D01*
X016994Y013396D01*
X017136Y013337D01*
X017246Y013228D01*
X017305Y013086D01*
X017305Y012931D01*
X017246Y012789D01*
X017136Y012679D01*
X016994Y012620D01*
X016839Y012620D01*
X016697Y012679D01*
X016588Y012788D01*
X016258Y012788D01*
X015998Y012528D01*
X019158Y012528D01*
X019286Y012400D01*
X019608Y012078D01*
X019688Y012078D01*
X019797Y012187D01*
X019939Y012246D01*
X020094Y012246D01*
X020236Y012187D01*
X020346Y012078D01*
X020405Y011936D01*
X020405Y011781D01*
X020346Y011639D01*
X020236Y011529D01*
X020234Y011528D01*
X020258Y011528D01*
X020386Y011400D01*
X020472Y011314D01*
X020535Y011251D01*
X020535Y011251D01*
X020579Y011207D01*
X020600Y011186D01*
X020600Y011164D01*
X020621Y011114D01*
X020636Y011098D01*
X020636Y010956D01*
X020636Y010916D01*
X020636Y010517D01*
X020508Y010388D01*
X020222Y010103D01*
X020159Y010039D01*
X020159Y010039D01*
X020113Y009994D01*
X020094Y009975D01*
X020072Y009975D01*
X020022Y009954D01*
X020014Y009946D01*
X020144Y009946D01*
X020286Y009887D01*
X020396Y009778D01*
X020455Y009636D01*
X020455Y009481D01*
X020396Y009339D01*
X020286Y009229D01*
X020144Y009170D01*
X019989Y009170D01*
X019919Y009200D01*
X019548Y008828D01*
X019838Y008828D01*
X019847Y008837D01*
X019989Y008896D01*
X020144Y008896D01*
X020286Y008837D01*
X020396Y008728D01*
X020455Y008586D01*
X020455Y008431D01*
X020396Y008289D01*
X020286Y008179D01*
X020144Y008120D01*
X019989Y008120D01*
X019847Y008179D01*
X019738Y008289D01*
X019696Y008388D01*
X019408Y008388D01*
X018411Y007392D01*
X018386Y007367D01*
X018386Y007326D01*
X018386Y005567D01*
X018258Y005438D01*
X018015Y005196D01*
X017951Y005132D01*
X017951Y005132D01*
X017911Y005092D01*
X017887Y005068D01*
X017859Y005068D01*
X017836Y005058D01*
X017816Y005038D01*
X009258Y005038D01*
X009075Y005038D01*
X006744Y007370D01*
X006589Y007370D01*
X006447Y007429D01*
X006338Y007539D01*
X006278Y007681D01*
X006278Y007836D01*
X006338Y007978D01*
X006447Y008087D01*
X006589Y008146D01*
X006744Y008146D01*
X006886Y008087D01*
X006996Y007978D01*
X007055Y007836D01*
X007055Y007681D01*
X008147Y006589D01*
X008147Y006850D01*
X008275Y006978D01*
X009247Y007950D01*
X009247Y009167D01*
X008525Y009888D01*
X007445Y009888D01*
X007336Y009779D01*
X007194Y009720D01*
X007039Y009720D01*
X006897Y009779D01*
X006788Y009889D01*
X006728Y010031D01*
X006728Y010186D01*
X006788Y010328D01*
X006897Y010437D01*
X007039Y010496D01*
X007194Y010496D01*
X007336Y010437D01*
X007445Y010328D01*
X008525Y010328D01*
X008708Y010328D01*
X009487Y009549D01*
X009487Y010463D01*
X008536Y011413D01*
X008536Y011317D01*
X008408Y011188D01*
X008108Y010888D01*
X007925Y010888D01*
X006775Y010888D01*
X006647Y011017D01*
X006162Y011502D01*
X006162Y011642D01*
X006095Y011642D01*
X005995Y011741D01*
X005995Y012126D01*
X005950Y012171D01*
X005896Y012039D01*
X005786Y011929D01*
X005644Y011870D01*
X005489Y011870D01*
X005347Y011929D01*
X005238Y012039D01*
X005230Y012056D01*
X004964Y012056D01*
X004186Y011278D01*
X004888Y011278D01*
X004997Y011387D01*
X004997Y012056D01*
X004866Y011958D02*
X005318Y011958D01*
X005317Y011960D02*
X005317Y011437D01*
X005294Y011446D02*
X005139Y011446D01*
X004997Y011387D01*
X004928Y011318D02*
X004226Y011318D01*
X004357Y011278D02*
X004357Y011449D01*
X004546Y011638D02*
X006162Y011638D01*
X006382Y011593D02*
X006867Y011108D01*
X008017Y011108D01*
X008317Y011408D01*
X008317Y011958D01*
X008705Y011958D02*
X018189Y011958D01*
X018189Y012036D02*
X018241Y012088D01*
X008683Y012088D01*
X008705Y012036D01*
X008705Y011896D01*
X009812Y010788D01*
X009946Y010654D01*
X009946Y007154D01*
X010745Y006356D01*
X011060Y006356D01*
X012205Y007500D01*
X012275Y007570D01*
X012367Y007608D01*
X015165Y007608D01*
X016817Y009214D01*
X016817Y009959D01*
X016817Y010058D01*
X016855Y010150D01*
X017605Y010900D01*
X017675Y010970D01*
X017767Y011008D01*
X018113Y011008D01*
X018367Y011262D01*
X018367Y011281D01*
X018289Y011281D01*
X018189Y011381D01*
X018189Y012036D01*
X018117Y012088D02*
X018117Y011012D01*
X017797Y011008D02*
X017797Y012088D01*
X017477Y012088D02*
X017477Y010772D01*
X017383Y010678D02*
X009922Y010678D01*
X009797Y010804D02*
X009797Y012088D01*
X009477Y012088D02*
X009477Y011124D01*
X009602Y010998D02*
X017743Y010998D01*
X017157Y010452D02*
X017157Y012088D01*
X016837Y012088D02*
X016837Y010106D01*
X016817Y010038D02*
X009946Y010038D01*
X009946Y010358D02*
X017063Y010358D01*
X017367Y009908D02*
X017617Y010158D01*
X019915Y010158D01*
X020003Y010195D02*
X020417Y010608D01*
X020417Y011007D01*
X020380Y011095D02*
X020167Y011308D01*
X019668Y011308D01*
X019580Y011345D02*
X019467Y011458D01*
X019580Y011345D02*
X019595Y011332D01*
X019611Y011322D01*
X019629Y011314D01*
X019648Y011310D01*
X019668Y011308D01*
X019517Y011858D02*
X019067Y012308D01*
X008567Y012308D01*
X008517Y012358D01*
X007517Y012358D01*
X006817Y013058D01*
X006817Y014958D01*
X006446Y014838D02*
X006205Y014838D01*
X006205Y014997D02*
X006105Y015096D01*
X005846Y015096D01*
X005846Y016119D01*
X005881Y016153D01*
X005893Y016142D01*
X005927Y016122D01*
X005965Y016112D01*
X006153Y016112D01*
X006153Y016410D01*
X006250Y016410D01*
X006250Y016507D01*
X006568Y016507D01*
X006568Y016675D01*
X006557Y016713D01*
X006538Y016747D01*
X006510Y016775D01*
X006476Y016795D01*
X006437Y016805D01*
X006250Y016805D01*
X006250Y016507D01*
X006153Y016507D01*
X006153Y016805D01*
X005965Y016805D01*
X005927Y016795D01*
X005893Y016775D01*
X005881Y016763D01*
X005819Y016825D01*
X005603Y016825D01*
X005070Y017358D01*
X005620Y017908D01*
X008017Y017908D01*
X008017Y017566D01*
X007958Y017566D01*
X007859Y017467D01*
X007859Y017154D01*
X007255Y016550D01*
X007217Y016458D01*
X007217Y016359D01*
X007217Y014846D01*
X007190Y014846D01*
X007205Y014881D01*
X007205Y015036D01*
X007146Y015178D01*
X007036Y015287D01*
X006894Y015346D01*
X006739Y015346D01*
X006597Y015287D01*
X006597Y017908D01*
X006277Y017908D02*
X006277Y016805D01*
X006250Y016758D02*
X006153Y016758D01*
X005957Y016803D02*
X005957Y017908D01*
X005637Y017908D02*
X005637Y016825D01*
X005350Y017078D02*
X007783Y017078D01*
X007557Y016852D02*
X007557Y017908D01*
X007877Y017908D02*
X007877Y017484D01*
X007859Y017398D02*
X005110Y017398D01*
X005317Y017605D02*
X005317Y017112D01*
X004963Y016758D02*
X004470Y016758D01*
X004357Y016645D02*
X004357Y014470D01*
X004294Y014496D02*
X004139Y014496D01*
X003997Y014437D01*
X003888Y014328D01*
X003828Y014186D01*
X003828Y014031D01*
X003888Y013889D01*
X003997Y013779D01*
X004139Y013720D01*
X004294Y013720D01*
X004315Y013699D01*
X004374Y013639D01*
X004389Y013625D01*
X003914Y013625D01*
X003852Y013563D01*
X003841Y013575D01*
X003806Y013595D01*
X003768Y013605D01*
X003580Y013605D01*
X003580Y013307D01*
X003483Y013307D01*
X003483Y013210D01*
X003165Y013210D01*
X003165Y013042D01*
X003176Y013004D01*
X003195Y012969D01*
X003206Y012958D01*
X002966Y012958D01*
X002966Y015255D01*
X004716Y017005D01*
X005145Y016576D01*
X005145Y016191D01*
X005245Y016092D01*
X005387Y016092D01*
X005387Y014813D01*
X005428Y014771D01*
X005428Y014420D01*
X005528Y014320D01*
X006105Y014320D01*
X006205Y014420D01*
X006205Y014997D01*
X006428Y015036D02*
X006428Y014881D01*
X006488Y014739D01*
X006597Y014630D01*
X006597Y013150D01*
X006597Y012967D01*
X006597Y012678D01*
X006458Y012678D02*
X005836Y013300D01*
X005708Y013428D01*
X004588Y013428D01*
X004588Y013526D01*
X004575Y013538D01*
X004637Y013538D01*
X004709Y013538D01*
X005838Y013538D01*
X005947Y013429D01*
X006089Y013370D01*
X006244Y013370D01*
X006386Y013429D01*
X006496Y013539D01*
X006555Y013681D01*
X006555Y013836D01*
X006496Y013978D01*
X006386Y014087D01*
X006244Y014146D01*
X006089Y014146D01*
X005947Y014087D01*
X005838Y013978D01*
X004709Y013978D01*
X004658Y013978D01*
X004626Y014010D01*
X004605Y014031D01*
X004605Y014186D01*
X004546Y014328D01*
X004436Y014437D01*
X004294Y014496D01*
X004037Y014454D02*
X004037Y016325D01*
X004150Y016438D02*
X005145Y016438D01*
X004997Y016725D02*
X004997Y013978D01*
X005317Y013978D02*
X005317Y016092D01*
X005218Y016118D02*
X003830Y016118D01*
X003717Y016005D02*
X003717Y013605D01*
X003580Y013558D02*
X003483Y013558D01*
X003483Y013605D02*
X003296Y013605D01*
X003257Y013595D01*
X003223Y013575D01*
X003195Y013547D01*
X003176Y013513D01*
X003165Y013475D01*
X003165Y013307D01*
X003483Y013307D01*
X003483Y013605D01*
X003397Y013605D02*
X003397Y015685D01*
X003510Y015798D02*
X005387Y015798D01*
X005387Y015478D02*
X003190Y015478D01*
X003077Y015365D02*
X003077Y012958D01*
X002966Y013238D02*
X003483Y013238D01*
X003397Y013210D02*
X003397Y013307D01*
X003206Y013558D02*
X002966Y013558D01*
X002966Y013878D02*
X003898Y013878D01*
X004037Y013763D02*
X004037Y013625D01*
X004357Y013625D02*
X004357Y013657D01*
X004530Y013795D02*
X004217Y014108D01*
X004267Y014058D01*
X004599Y014198D02*
X006597Y014198D01*
X006567Y014108D02*
X006367Y014308D01*
X006277Y014133D02*
X006277Y016112D01*
X006250Y016112D02*
X006437Y016112D01*
X006476Y016122D01*
X006510Y016142D01*
X006538Y016169D01*
X006557Y016204D01*
X006568Y016242D01*
X006568Y016410D01*
X006250Y016410D01*
X006250Y016112D01*
X006250Y016118D02*
X006153Y016118D01*
X005957Y016114D02*
X005957Y015096D01*
X005846Y015158D02*
X006479Y015158D01*
X006488Y015178D02*
X006428Y015036D01*
X006488Y015178D02*
X006597Y015287D01*
X006917Y015337D02*
X006917Y017908D01*
X007237Y017908D02*
X007237Y016506D01*
X007217Y016438D02*
X006250Y016438D01*
X006277Y016410D02*
X006277Y016507D01*
X006527Y016758D02*
X007463Y016758D01*
X007850Y016438D02*
X009450Y016438D01*
X009464Y016472D02*
X009428Y016386D01*
X009428Y016231D01*
X009488Y016089D01*
X009548Y016028D01*
X008808Y016028D01*
X008625Y016028D01*
X007894Y015296D01*
X007839Y015296D01*
X007716Y015246D01*
X007716Y016305D01*
X008162Y016751D01*
X008575Y016751D01*
X008674Y016850D01*
X008674Y017467D01*
X008575Y017566D01*
X008516Y017566D01*
X008516Y017908D01*
X008517Y017908D02*
X008517Y017566D01*
X008516Y017718D02*
X009450Y017718D01*
X009450Y017730D02*
X009450Y017156D01*
X009497Y017108D01*
X009450Y017061D01*
X009450Y016487D01*
X009464Y016472D01*
X009450Y016758D02*
X008583Y016758D01*
X008517Y016751D02*
X008517Y015920D01*
X008395Y015798D02*
X007716Y015798D01*
X007716Y015478D02*
X008075Y015478D01*
X008197Y015600D02*
X008197Y016751D01*
X007877Y016465D02*
X007877Y015296D01*
X007917Y015008D02*
X007917Y014908D01*
X007917Y015008D02*
X008717Y015808D01*
X011367Y015808D01*
X012267Y016708D01*
X012267Y018458D01*
X012037Y018140D02*
X012037Y016790D01*
X012047Y016800D02*
X011275Y016028D01*
X011235Y016028D01*
X011296Y016089D01*
X011355Y016231D01*
X011355Y016386D01*
X011319Y016472D01*
X011333Y016487D01*
X011333Y017061D01*
X011286Y017108D01*
X011333Y017156D01*
X011333Y017730D01*
X011234Y017830D01*
X010699Y017830D01*
X010600Y017730D01*
X010600Y017663D01*
X010183Y017663D01*
X010183Y017730D01*
X010084Y017830D01*
X010036Y017830D01*
X010036Y018025D01*
X011020Y019008D01*
X012313Y019008D01*
X012467Y018855D01*
X012467Y018796D01*
X012344Y018846D01*
X012189Y018846D01*
X012047Y018787D01*
X011938Y018678D01*
X010690Y018678D01*
X010757Y018745D02*
X010757Y017830D01*
X010600Y017718D02*
X010183Y017718D01*
X010117Y017797D02*
X010117Y018105D01*
X010050Y018038D02*
X012047Y018038D01*
X012047Y018130D02*
X012047Y016800D01*
X012005Y016758D02*
X011333Y016758D01*
X011333Y016438D02*
X011685Y016438D01*
X011717Y016470D02*
X011717Y019008D01*
X011397Y019008D02*
X011397Y016150D01*
X011365Y016118D02*
X011308Y016118D01*
X010967Y016308D02*
X010982Y016758D01*
X010967Y016774D01*
X011316Y017078D02*
X012047Y017078D01*
X012047Y017398D02*
X011333Y017398D01*
X011333Y017718D02*
X012047Y017718D01*
X012047Y018130D02*
X011938Y018239D01*
X011878Y018381D01*
X011878Y018536D01*
X011938Y018678D01*
X012037Y018777D02*
X012037Y019008D01*
X012323Y018998D02*
X011010Y018998D01*
X011077Y019008D02*
X011077Y017830D01*
X010967Y017443D02*
X009817Y017443D01*
X009817Y018158D01*
X009597Y017908D02*
X009597Y017830D01*
X009549Y017830D01*
X009450Y017730D01*
X009477Y017757D02*
X009477Y017908D01*
X009597Y017908D02*
X008516Y017908D01*
X008837Y017908D02*
X008837Y016028D01*
X009157Y016028D02*
X009157Y017908D01*
X009157Y018408D02*
X009157Y020415D01*
X009039Y020278D02*
X018774Y020278D01*
X018757Y020249D02*
X018757Y021138D01*
X018437Y021138D02*
X018437Y012528D01*
X018757Y012528D02*
X018757Y019468D01*
X018720Y019532D02*
X018885Y019245D01*
X019139Y019032D01*
X019139Y019032D01*
X019451Y018918D01*
X019530Y018918D01*
X019616Y018918D01*
X019782Y018918D01*
X019782Y018918D01*
X020094Y019032D01*
X020348Y019245D01*
X020513Y019532D01*
X020571Y019858D01*
X020571Y019858D01*
X020513Y020185D01*
X020348Y020472D01*
X020094Y020685D01*
X020094Y020685D01*
X019782Y020798D01*
X019704Y020798D01*
X019616Y020798D01*
X019611Y020798D01*
X019530Y020798D01*
X019451Y020798D01*
X019139Y020685D01*
X018885Y020472D01*
X018720Y020185D01*
X018662Y019858D01*
X018720Y019532D01*
X018720Y019532D01*
X018701Y019638D02*
X013725Y019638D01*
X013637Y019879D02*
X013637Y021138D01*
X013317Y021138D02*
X013317Y020146D01*
X013604Y019958D02*
X018680Y019958D01*
X018662Y019858D02*
X018662Y019858D01*
X018720Y020185D02*
X018720Y020185D01*
X018885Y020472D02*
X018885Y020472D01*
X018885Y020472D01*
X019036Y020598D02*
X009239Y020598D01*
X009239Y020918D02*
X020810Y020918D01*
X020677Y021052D02*
X020677Y002665D01*
X020695Y002678D02*
X015239Y002678D01*
X015239Y002998D02*
X015547Y002998D01*
X015547Y002888D02*
X015646Y002788D01*
X016587Y002788D01*
X016686Y002888D01*
X016686Y003829D01*
X016587Y003928D01*
X015646Y003928D01*
X015547Y003829D01*
X015547Y002888D01*
X015557Y002878D02*
X015557Y002578D01*
X015877Y002578D02*
X015877Y002788D01*
X016197Y002788D02*
X016197Y002578D01*
X016517Y002578D02*
X016517Y002788D01*
X016686Y002998D02*
X019231Y002998D01*
X019139Y003032D02*
X019451Y002918D01*
X019530Y002918D01*
X019617Y002918D01*
X019782Y002918D01*
X019782Y002918D01*
X020094Y003032D01*
X020348Y003245D01*
X020513Y003532D01*
X020571Y003858D01*
X020571Y003858D01*
X020513Y004185D01*
X020348Y004472D01*
X020094Y004685D01*
X020094Y004685D01*
X019782Y004798D01*
X019616Y004798D01*
X019451Y004798D01*
X019139Y004685D01*
X018885Y004472D01*
X018720Y004185D01*
X018662Y003858D01*
X018720Y003532D01*
X018885Y003245D01*
X019139Y003032D01*
X019139Y003032D01*
X019077Y003084D02*
X019077Y002578D01*
X019397Y002578D02*
X019397Y002938D01*
X019451Y002918D02*
X019451Y002918D01*
X019717Y002918D02*
X019717Y002578D01*
X020037Y002578D02*
X020037Y003011D01*
X020002Y002998D02*
X020891Y002998D01*
X020897Y003318D02*
X020390Y003318D01*
X020357Y003260D02*
X020357Y002578D01*
X020094Y003032D02*
X020094Y003032D01*
X020348Y003245D02*
X020348Y003245D01*
X020348Y003245D01*
X020513Y003532D02*
X020513Y003532D01*
X020532Y003638D02*
X020897Y003638D01*
X020897Y003958D02*
X020553Y003958D01*
X020513Y004185D02*
X020513Y004185D01*
X020459Y004278D02*
X020897Y004278D01*
X020897Y004598D02*
X020197Y004598D01*
X020037Y004706D02*
X020037Y008120D01*
X019717Y008339D02*
X019717Y004798D01*
X019782Y004798D02*
X019782Y004798D01*
X019451Y004798D02*
X019451Y004798D01*
X019397Y004779D02*
X019397Y008377D01*
X019317Y008608D02*
X019967Y008608D01*
X020067Y008508D01*
X020357Y008250D02*
X020357Y004457D01*
X020348Y004472D02*
X020348Y004472D01*
X020897Y004918D02*
X002336Y004918D01*
X002336Y004598D02*
X003036Y004598D01*
X003077Y004632D02*
X003077Y008077D01*
X003082Y008085D02*
X003099Y008118D01*
X003125Y008055D01*
X003250Y007929D01*
X003415Y007861D01*
X003593Y007861D01*
X003757Y007929D01*
X003883Y008055D01*
X003897Y008089D01*
X004058Y008089D01*
X005608Y009638D01*
X005725Y009638D01*
X005908Y009638D01*
X006140Y009870D01*
X006294Y009870D01*
X006436Y009929D01*
X006546Y010039D01*
X006605Y010181D01*
X006605Y010336D01*
X006546Y010478D01*
X006436Y010587D01*
X006294Y010646D01*
X006139Y010646D01*
X005997Y010587D01*
X005941Y010532D01*
X005886Y010587D01*
X005744Y010646D01*
X005589Y010646D01*
X005538Y010625D01*
X005496Y010728D01*
X005465Y010758D01*
X005546Y010839D01*
X005605Y010981D01*
X005605Y011136D01*
X005546Y011278D01*
X005436Y011387D01*
X005294Y011446D01*
X005505Y011318D02*
X006345Y011318D01*
X006277Y011387D02*
X006277Y010646D01*
X006217Y010258D02*
X005817Y009858D01*
X005517Y009858D01*
X003967Y008309D01*
X003504Y008309D01*
X003723Y008703D02*
X003757Y008717D01*
X003883Y008843D01*
X003951Y009007D01*
X003951Y009185D01*
X003883Y009350D01*
X003757Y009476D01*
X003723Y009490D01*
X003757Y009504D01*
X003883Y009630D01*
X003897Y009664D01*
X005011Y009664D01*
X003891Y008544D01*
X003883Y008562D01*
X003757Y008688D01*
X003723Y008703D01*
X003799Y008758D02*
X004105Y008758D01*
X004037Y008689D02*
X004037Y009664D01*
X003835Y009398D02*
X004745Y009398D01*
X004677Y009329D02*
X004677Y009664D01*
X004357Y009664D02*
X004357Y009009D01*
X004425Y009078D02*
X003951Y009078D01*
X004408Y008438D02*
X009247Y008438D01*
X009247Y008118D02*
X006811Y008118D01*
X006917Y008057D02*
X006917Y009771D01*
X007237Y009738D02*
X007237Y007499D01*
X007258Y007478D02*
X008775Y007478D01*
X008837Y007540D02*
X008837Y009577D01*
X008695Y009718D02*
X005988Y009718D01*
X005957Y009687D02*
X005957Y009335D01*
X005962Y009340D02*
X005835Y009213D01*
X005767Y009048D01*
X005767Y008869D01*
X005835Y008704D01*
X005962Y008577D01*
X006127Y008508D01*
X006306Y008508D01*
X006471Y008577D01*
X006598Y008704D01*
X006666Y008869D01*
X006666Y009048D01*
X006598Y009213D01*
X006471Y009340D01*
X006306Y009408D01*
X006127Y009408D01*
X005962Y009340D01*
X006103Y009398D02*
X005368Y009398D01*
X005317Y009347D02*
X005317Y002578D01*
X004997Y002578D02*
X004997Y009027D01*
X005048Y009078D02*
X005779Y009078D01*
X005812Y008758D02*
X004728Y008758D01*
X004677Y008707D02*
X004677Y002578D01*
X004357Y002578D02*
X004357Y003260D01*
X004348Y003245D02*
X004513Y003532D01*
X004571Y003858D01*
X004571Y003858D01*
X004513Y004185D01*
X004348Y004472D01*
X004094Y004685D01*
X004094Y004685D01*
X003782Y004798D01*
X003704Y004798D01*
X003617Y004798D01*
X003585Y004798D01*
X003530Y004798D01*
X003451Y004798D01*
X003139Y004685D01*
X002885Y004472D01*
X002720Y004185D01*
X002662Y003858D01*
X002720Y003532D01*
X002885Y003245D01*
X003139Y003032D01*
X003139Y003032D01*
X003451Y002918D01*
X003616Y002918D01*
X003704Y002918D01*
X003782Y002918D01*
X004094Y003032D01*
X004348Y003245D01*
X004348Y003245D01*
X004348Y003245D01*
X004390Y003318D02*
X014095Y003318D01*
X014277Y003376D02*
X014277Y003408D01*
X014264Y003638D02*
X004532Y003638D01*
X004513Y003532D02*
X004513Y003532D01*
X004553Y003958D02*
X018680Y003958D01*
X018662Y003858D02*
X018662Y003858D01*
X018701Y003638D02*
X016686Y003638D01*
X016517Y003928D02*
X016517Y005038D01*
X016837Y005038D02*
X016837Y002578D01*
X017157Y002578D02*
X017157Y005038D01*
X017477Y005038D02*
X017477Y002578D01*
X017797Y002578D02*
X017797Y005038D01*
X017725Y005258D02*
X009167Y005258D01*
X006667Y007758D01*
X007055Y007798D02*
X009095Y007798D01*
X009157Y007860D02*
X009157Y009257D01*
X009247Y009078D02*
X008654Y009078D01*
X008666Y009048D02*
X008598Y009213D01*
X008471Y009340D01*
X008306Y009408D01*
X008127Y009408D01*
X007962Y009340D01*
X007835Y009213D01*
X007767Y009048D01*
X007767Y008869D01*
X007835Y008704D01*
X007962Y008577D01*
X008127Y008508D01*
X008306Y008508D01*
X008471Y008577D01*
X008598Y008704D01*
X008666Y008869D01*
X008666Y009048D01*
X008517Y009295D02*
X008517Y009888D01*
X008617Y010108D02*
X009467Y009258D01*
X009467Y007858D01*
X008367Y006758D01*
X008367Y006358D01*
X009267Y005458D01*
X017625Y005458D01*
X017696Y005488D02*
X017967Y005758D01*
X017967Y007558D01*
X019967Y009558D01*
X020067Y009558D01*
X019713Y009718D02*
X017586Y009718D01*
X017586Y009817D02*
X017708Y009938D01*
X019824Y009938D01*
X019915Y009938D01*
X019970Y009938D01*
X019847Y009887D01*
X019738Y009778D01*
X019678Y009636D01*
X019678Y009581D01*
X017747Y007650D01*
X017747Y007467D01*
X017747Y005850D01*
X017604Y005707D01*
X017575Y005678D01*
X017534Y005678D01*
X011414Y005678D01*
X011414Y006002D01*
X012520Y007108D01*
X015265Y007108D01*
X015313Y007108D01*
X015314Y007108D01*
X015316Y007108D01*
X015360Y007127D01*
X015405Y007144D01*
X015406Y007146D01*
X015408Y007146D01*
X015441Y007179D01*
X017147Y008838D01*
X017147Y008737D01*
X017038Y008628D01*
X016978Y008486D01*
X016978Y008331D01*
X017038Y008189D01*
X017147Y008079D01*
X017289Y008020D01*
X017444Y008020D01*
X017586Y008079D01*
X017696Y008189D01*
X017755Y008331D01*
X017755Y008486D01*
X017696Y008628D01*
X017586Y008737D01*
X017586Y009817D01*
X017367Y009908D02*
X017367Y008408D01*
X017625Y008118D02*
X018215Y008118D01*
X018117Y008020D02*
X018117Y009938D01*
X017797Y009938D02*
X017797Y007700D01*
X017895Y007798D02*
X016078Y007798D01*
X016197Y007914D02*
X016197Y005678D01*
X015877Y005678D02*
X015877Y007603D01*
X015749Y007478D02*
X017747Y007478D01*
X017747Y007158D02*
X015420Y007158D01*
X015237Y007108D02*
X015237Y005678D01*
X015557Y005678D02*
X015557Y007292D01*
X015237Y007678D02*
X015237Y012088D01*
X015557Y012088D02*
X015557Y007989D01*
X015690Y008118D02*
X009946Y008118D01*
X009946Y008438D02*
X016019Y008438D01*
X015877Y008300D02*
X015877Y012088D01*
X016197Y012088D02*
X016197Y008611D01*
X016348Y008758D02*
X009946Y008758D01*
X009946Y009078D02*
X016677Y009078D01*
X016517Y008922D02*
X016517Y012088D01*
X016517Y012528D02*
X016517Y012788D01*
X016837Y012621D02*
X016837Y012528D01*
X017157Y012528D02*
X017157Y012700D01*
X017299Y012918D02*
X020897Y012918D01*
X020897Y012598D02*
X016068Y012598D01*
X016197Y012528D02*
X016197Y012727D01*
X016167Y013008D02*
X015717Y012558D01*
X007617Y012558D01*
X007217Y012958D01*
X007217Y014458D01*
X006597Y014518D02*
X006205Y014518D01*
X005957Y014320D02*
X005957Y014091D01*
X005637Y013978D02*
X005637Y014320D01*
X005428Y014518D02*
X002966Y014518D01*
X002966Y014838D02*
X005387Y014838D01*
X005387Y015158D02*
X002966Y015158D01*
X002467Y015158D02*
X002336Y015158D01*
X002336Y014838D02*
X002467Y014838D01*
X002467Y014518D02*
X002336Y014518D01*
X002336Y014198D02*
X002467Y014198D01*
X002467Y013878D02*
X002336Y013878D01*
X002336Y013558D02*
X002467Y013558D01*
X002467Y013238D02*
X002336Y013238D01*
X002336Y012918D02*
X002467Y012918D01*
X002467Y012598D02*
X002336Y012598D01*
X002336Y012278D02*
X002467Y012278D01*
X002467Y011958D02*
X002336Y011958D01*
X002437Y011906D02*
X002437Y020937D01*
X002423Y020918D02*
X006636Y020918D01*
X006646Y020928D02*
X006547Y020829D01*
X006547Y019888D01*
X006646Y019788D01*
X007587Y019788D01*
X007686Y019888D01*
X007686Y020829D01*
X007587Y020928D01*
X006646Y020928D01*
X006597Y020879D02*
X006597Y021138D01*
X006277Y021138D02*
X006277Y018408D01*
X006597Y018408D02*
X006597Y019838D01*
X006547Y019958D02*
X004553Y019958D01*
X004571Y019858D02*
X004513Y020185D01*
X004348Y020472D01*
X004094Y020685D01*
X004094Y020685D01*
X003782Y020798D01*
X003704Y020798D01*
X003616Y020798D01*
X003595Y020798D01*
X003530Y020798D01*
X003451Y020798D01*
X003139Y020685D01*
X002885Y020472D01*
X002720Y020185D01*
X002662Y019858D01*
X002720Y019532D01*
X002885Y019245D01*
X003139Y019032D01*
X003139Y019032D01*
X003451Y018918D01*
X003616Y018918D01*
X003704Y018918D01*
X003782Y018918D01*
X003782Y018918D01*
X004094Y019032D01*
X004348Y019245D01*
X004513Y019532D01*
X004571Y019858D01*
X004571Y019858D01*
X004532Y019638D02*
X012896Y019638D01*
X012997Y019480D02*
X012997Y018532D01*
X012966Y018678D02*
X013070Y018678D01*
X013317Y018672D02*
X013317Y018575D01*
X013637Y018575D02*
X013637Y018672D01*
X013763Y018678D02*
X020897Y018678D01*
X020897Y018358D02*
X013756Y018358D01*
X013957Y018308D02*
X013957Y021138D01*
X014277Y021138D02*
X014277Y018252D01*
X014013Y017808D02*
X014128Y017693D01*
X014128Y017596D01*
X013471Y016938D01*
X012571Y016938D01*
X012486Y016854D01*
X012486Y018130D01*
X012589Y018232D01*
X012905Y017917D01*
X012975Y017846D01*
X013067Y017808D01*
X014013Y017808D01*
X013957Y017808D02*
X013957Y017424D01*
X013931Y017398D02*
X012486Y017398D01*
X012486Y017078D02*
X013611Y017078D01*
X013637Y017104D02*
X013637Y017808D01*
X013317Y017808D02*
X013317Y016938D01*
X012997Y016938D02*
X012997Y017838D01*
X012783Y018038D02*
X012486Y018038D01*
X012677Y018145D02*
X012677Y016938D01*
X012722Y016438D02*
X014997Y016438D01*
X014997Y016758D02*
X013942Y016758D01*
X013957Y016773D02*
X013957Y012778D01*
X014277Y012778D02*
X014277Y013650D01*
X014397Y013558D02*
X009074Y013558D01*
X009066Y013878D02*
X014178Y013878D01*
X014277Y014167D02*
X014277Y017093D01*
X014262Y017078D02*
X014685Y017078D01*
X014597Y017167D02*
X014597Y014296D01*
X014865Y014518D02*
X011025Y014518D01*
X011077Y014613D02*
X011077Y012778D01*
X010757Y012778D02*
X010757Y014370D01*
X010437Y014490D02*
X010437Y012778D01*
X010117Y012778D02*
X010117Y015588D01*
X010437Y015588D02*
X010437Y015027D01*
X010330Y014838D02*
X008305Y014838D01*
X008333Y014518D02*
X008428Y014518D01*
X008517Y014596D02*
X008517Y015297D01*
X008378Y015158D02*
X010791Y015158D01*
X010757Y015146D02*
X010757Y015588D01*
X011077Y015588D02*
X011077Y015444D01*
X011111Y015478D02*
X008698Y015478D01*
X008837Y015588D02*
X008837Y014629D01*
X009005Y014518D02*
X010408Y014518D01*
X011122Y014838D02*
X014997Y014838D01*
X014917Y014570D02*
X014917Y016847D01*
X015217Y016858D02*
X014517Y017558D01*
X014517Y017658D01*
X014905Y017718D02*
X020897Y017718D01*
X020897Y017398D02*
X014988Y017398D01*
X014917Y017469D02*
X014917Y021138D01*
X014597Y021138D02*
X014597Y018045D01*
X014613Y018038D02*
X020897Y018038D01*
X020897Y017078D02*
X015308Y017078D01*
X015237Y017149D02*
X015237Y021138D01*
X015557Y021138D02*
X015557Y012778D01*
X015765Y012918D02*
X009018Y012918D01*
X008837Y012960D02*
X008837Y013057D01*
X009014Y013238D02*
X016598Y013238D01*
X016517Y013228D02*
X016517Y021138D01*
X016837Y021138D02*
X016837Y013395D01*
X017157Y013317D02*
X017157Y021138D01*
X017477Y021138D02*
X017477Y012528D01*
X017797Y012528D02*
X017797Y021138D01*
X018117Y021138D02*
X018117Y012528D01*
X018189Y011638D02*
X008962Y011638D01*
X008837Y011764D02*
X008837Y012088D01*
X009157Y012088D02*
X009157Y011444D01*
X009282Y011318D02*
X018251Y011318D01*
X019077Y012528D02*
X019077Y019084D01*
X019231Y018998D02*
X013776Y018998D01*
X013783Y019318D02*
X018843Y019318D01*
X018885Y019245D02*
X018885Y019245D01*
X019397Y018938D02*
X019397Y012289D01*
X019408Y012278D02*
X020897Y012278D01*
X020897Y011958D02*
X020395Y011958D01*
X020357Y012052D02*
X020357Y019260D01*
X020348Y019245D02*
X020348Y019245D01*
X020348Y019245D01*
X020390Y019318D02*
X020897Y019318D01*
X020897Y018998D02*
X020002Y018998D01*
X020037Y019011D02*
X020037Y012246D01*
X019717Y012107D02*
X019717Y018918D01*
X020094Y019032D02*
X020094Y019032D01*
X020513Y019532D02*
X020513Y019532D01*
X020532Y019638D02*
X020897Y019638D01*
X020897Y019958D02*
X020553Y019958D01*
X020513Y020185D02*
X020513Y020185D01*
X020459Y020278D02*
X020897Y020278D01*
X020897Y020598D02*
X020197Y020598D01*
X020037Y020706D02*
X020037Y021138D01*
X019717Y021138D02*
X019717Y020798D01*
X019782Y020798D02*
X019782Y020798D01*
X019451Y020798D02*
X019451Y020798D01*
X019397Y020779D02*
X019397Y021138D01*
X019077Y021138D02*
X019077Y020632D01*
X019139Y020685D02*
X019139Y020685D01*
X020348Y020472D02*
X020348Y020472D01*
X020357Y020457D02*
X020357Y021138D01*
X020897Y016758D02*
X015436Y016758D01*
X015217Y016858D02*
X015217Y014558D01*
X014567Y013908D01*
X014736Y013558D02*
X020897Y013558D01*
X020897Y013878D02*
X014955Y013878D01*
X014917Y013739D02*
X014917Y012778D01*
X014597Y012778D02*
X014597Y013520D01*
X014308Y014198D02*
X009105Y014198D01*
X008717Y014258D02*
X008682Y014293D01*
X007967Y014293D01*
X008051Y013708D02*
X007967Y013624D01*
X006885Y012678D02*
X006458Y012678D01*
X006467Y012908D02*
X006467Y013208D01*
X006567Y013308D01*
X006567Y014108D01*
X006537Y013878D02*
X006597Y013878D01*
X006597Y013558D02*
X006504Y013558D01*
X006277Y013384D02*
X006277Y012859D01*
X006218Y012918D02*
X006645Y012918D01*
X006597Y012967D02*
X006885Y012678D01*
X006867Y012458D02*
X006367Y012458D01*
X005617Y013208D01*
X004251Y013208D01*
X004201Y013258D01*
X004677Y013428D02*
X004677Y013538D01*
X004618Y013758D02*
X006167Y013758D01*
X005957Y013425D02*
X005957Y013179D01*
X005898Y013238D02*
X006597Y013238D01*
X006867Y012458D02*
X007051Y012274D01*
X007051Y012008D01*
X007201Y011908D01*
X007517Y011908D01*
X008218Y010998D02*
X008951Y010998D01*
X008837Y011113D02*
X008837Y010199D01*
X008998Y010038D02*
X009487Y010038D01*
X009487Y010358D02*
X007415Y010358D01*
X007557Y010328D02*
X007557Y010888D01*
X007877Y010888D02*
X007877Y010328D01*
X008197Y010328D02*
X008197Y010977D01*
X008517Y011297D02*
X008517Y010328D01*
X008617Y010108D02*
X007117Y010108D01*
X007237Y010479D02*
X007237Y010888D01*
X006917Y010888D02*
X006917Y010446D01*
X006818Y010358D02*
X006595Y010358D01*
X006597Y010355D02*
X006597Y011067D01*
X006665Y010998D02*
X005605Y010998D01*
X005516Y010678D02*
X009271Y010678D01*
X009157Y010793D02*
X009157Y009879D01*
X009318Y009718D02*
X009487Y009718D01*
X009477Y009559D02*
X009477Y010473D01*
X009946Y009718D02*
X016817Y009718D01*
X016817Y009398D02*
X009946Y009398D01*
X009247Y008758D02*
X008621Y008758D01*
X008517Y008622D02*
X008517Y007220D01*
X008455Y007158D02*
X007578Y007158D01*
X007557Y007179D02*
X007557Y009888D01*
X007877Y009888D02*
X007877Y009255D01*
X007779Y009078D02*
X006654Y009078D01*
X006597Y009215D02*
X006597Y010162D01*
X006545Y010038D02*
X006728Y010038D01*
X006277Y009870D02*
X006277Y009408D01*
X006330Y009398D02*
X008103Y009398D01*
X008197Y009408D02*
X008197Y009888D01*
X008330Y009398D02*
X009015Y009398D01*
X008197Y008508D02*
X008197Y006900D01*
X008147Y006838D02*
X007898Y006838D01*
X007877Y006859D02*
X007877Y008662D01*
X007812Y008758D02*
X006621Y008758D01*
X006597Y008702D02*
X006597Y008146D01*
X006522Y008118D02*
X004088Y008118D01*
X004037Y008089D02*
X004037Y004706D01*
X004197Y004598D02*
X019036Y004598D01*
X019077Y004632D02*
X019077Y008057D01*
X019138Y008118D02*
X020897Y008118D01*
X020897Y008438D02*
X020455Y008438D01*
X020365Y008758D02*
X020897Y008758D01*
X020897Y009078D02*
X019798Y009078D01*
X019717Y008997D02*
X019717Y008828D01*
X020037Y008896D02*
X020037Y009170D01*
X020357Y009300D02*
X020357Y008767D01*
X020420Y009398D02*
X020897Y009398D01*
X020897Y009718D02*
X020420Y009718D01*
X020357Y009817D02*
X020357Y010237D01*
X020478Y010358D02*
X020897Y010358D01*
X020897Y010038D02*
X020158Y010038D01*
X020037Y009960D02*
X020037Y009946D01*
X019915Y009938D02*
X019915Y009938D01*
X019717Y009938D02*
X019717Y009728D01*
X019397Y009938D02*
X019397Y009300D01*
X019495Y009398D02*
X017586Y009398D01*
X017586Y009078D02*
X019175Y009078D01*
X019077Y008980D02*
X019077Y009938D01*
X018757Y009938D02*
X018757Y008660D01*
X018855Y008758D02*
X017586Y008758D01*
X017755Y008438D02*
X018535Y008438D01*
X018437Y008340D02*
X018437Y009938D01*
X019317Y008608D02*
X018196Y007488D01*
X018167Y007417D02*
X018167Y005658D01*
X017796Y005288D01*
X017796Y005287D02*
X017784Y005277D01*
X017770Y005269D01*
X017756Y005263D01*
X017741Y005259D01*
X017725Y005258D01*
X017625Y005458D02*
X017641Y005459D01*
X017656Y005463D01*
X017670Y005469D01*
X017684Y005477D01*
X017696Y005487D01*
X017477Y005678D02*
X017477Y008034D01*
X017157Y008075D02*
X017157Y005678D01*
X016837Y005678D02*
X016837Y008536D01*
X016736Y008438D02*
X016978Y008438D01*
X017065Y008758D02*
X017147Y008758D01*
X017108Y008118D02*
X016407Y008118D01*
X016517Y008225D02*
X016517Y005678D01*
X016197Y005038D02*
X016197Y003928D01*
X015877Y003928D02*
X015877Y005038D01*
X015557Y005038D02*
X015557Y003839D01*
X015547Y003638D02*
X015213Y003638D01*
X015237Y003593D02*
X015237Y005038D01*
X014917Y005038D02*
X014917Y003879D01*
X014789Y003638D02*
X014689Y003638D01*
X014597Y003408D02*
X014597Y003308D01*
X014567Y003318D02*
X014666Y003318D01*
X014917Y003376D02*
X014917Y003408D01*
X015139Y003318D02*
X015547Y003318D01*
X015237Y003308D02*
X015237Y003408D01*
X014597Y003891D02*
X014597Y005038D01*
X014277Y005038D02*
X014277Y003658D01*
X013994Y002998D02*
X004002Y002998D01*
X004037Y003011D02*
X004037Y002578D01*
X003717Y002578D02*
X003717Y002918D01*
X003451Y002918D02*
X003451Y002918D01*
X003397Y002938D02*
X003397Y002578D01*
X003077Y002578D02*
X003077Y003084D01*
X003231Y002998D02*
X002342Y002998D01*
X002342Y002989D02*
X002336Y003065D01*
X002336Y003130D01*
X002336Y003157D01*
X002336Y008113D01*
X002351Y008085D01*
X002390Y008030D01*
X002438Y007983D01*
X002492Y007943D01*
X002552Y007913D01*
X002616Y007892D01*
X002683Y007881D01*
X002688Y007881D01*
X002688Y008280D01*
X002745Y008280D01*
X002745Y007881D01*
X002750Y007881D01*
X002817Y007892D01*
X002881Y007913D01*
X002941Y007943D01*
X002995Y007983D01*
X003043Y008030D01*
X003082Y008085D01*
X003397Y007869D02*
X003397Y004779D01*
X003451Y004798D02*
X003451Y004798D01*
X003717Y004798D02*
X003717Y007913D01*
X004217Y008008D02*
X005317Y009108D01*
X005637Y009638D02*
X005637Y002578D01*
X005957Y002578D02*
X005957Y008582D01*
X006277Y008508D02*
X006277Y002578D01*
X006597Y002578D02*
X006597Y007370D01*
X006398Y007478D02*
X002336Y007478D01*
X002336Y007158D02*
X006955Y007158D01*
X006917Y007197D02*
X006917Y002578D01*
X007237Y002578D02*
X007237Y006877D01*
X007275Y006838D02*
X002336Y006838D01*
X002336Y006518D02*
X007595Y006518D01*
X007557Y006557D02*
X007557Y002578D01*
X007877Y002578D02*
X007877Y006237D01*
X007915Y006198D02*
X002336Y006198D01*
X002336Y005878D02*
X008235Y005878D01*
X008197Y005917D02*
X008197Y002578D01*
X008517Y002578D02*
X008517Y005597D01*
X008555Y005558D02*
X002336Y005558D01*
X002336Y005238D02*
X008875Y005238D01*
X008837Y005277D02*
X008837Y002578D01*
X009157Y002578D02*
X009157Y005038D01*
X009477Y005038D02*
X009477Y002578D01*
X009797Y002578D02*
X009797Y005038D01*
X010117Y005038D02*
X010117Y002578D01*
X010437Y002578D02*
X010437Y005038D01*
X010757Y005038D02*
X010757Y002578D01*
X011077Y002578D02*
X011077Y005038D01*
X011397Y005038D02*
X011397Y002578D01*
X011717Y002578D02*
X011717Y005038D01*
X012037Y005038D02*
X012037Y002578D01*
X012357Y002578D02*
X012357Y005038D01*
X012677Y005038D02*
X012677Y002578D01*
X012997Y002578D02*
X012997Y005038D01*
X013317Y005038D02*
X013317Y002578D01*
X013637Y002578D02*
X013637Y005038D01*
X013957Y005038D02*
X013957Y002578D01*
X013994Y002678D02*
X002538Y002678D01*
X002437Y002780D02*
X002437Y007984D01*
X002336Y007798D02*
X006278Y007798D01*
X004997Y009649D02*
X004997Y009664D01*
X005242Y009884D02*
X005617Y010258D01*
X005667Y010258D01*
X005637Y010646D02*
X005637Y011870D01*
X005815Y011958D02*
X005995Y011958D01*
X005957Y012165D02*
X005957Y010547D01*
X005167Y010508D02*
X004367Y010508D01*
X004167Y010358D01*
X003504Y010671D02*
X003891Y011058D01*
X005217Y011058D01*
X004677Y011278D02*
X004677Y011769D01*
X004872Y012276D02*
X005549Y012276D01*
X005567Y012258D01*
X006382Y012008D02*
X006382Y011593D01*
X004872Y012276D02*
X004055Y011458D01*
X003504Y011458D01*
X002745Y010642D02*
X002745Y010311D01*
X002745Y009913D01*
X002688Y009913D01*
X002688Y010244D01*
X002688Y010642D01*
X002745Y010642D01*
X002745Y010358D02*
X002688Y010358D01*
X002688Y010038D02*
X002745Y010038D01*
X002745Y009855D02*
X002745Y009524D01*
X002745Y009125D01*
X002688Y009125D01*
X002688Y009524D01*
X002688Y009855D01*
X002745Y009855D01*
X002745Y009718D02*
X002688Y009718D01*
X002688Y009398D02*
X002745Y009398D01*
X002745Y009067D02*
X002745Y008736D01*
X002745Y008338D01*
X002688Y008338D01*
X002688Y008736D01*
X002688Y009067D01*
X002745Y009067D01*
X002745Y008758D02*
X002688Y008758D01*
X002688Y008438D02*
X002745Y008438D01*
X002745Y008118D02*
X002688Y008118D01*
X002757Y007882D02*
X002757Y004249D01*
X002774Y004278D02*
X002336Y004278D01*
X002336Y003958D02*
X002680Y003958D01*
X002662Y003858D02*
X002662Y003858D01*
X002701Y003638D02*
X002336Y003638D01*
X002336Y003318D02*
X002843Y003318D01*
X002885Y003245D02*
X002885Y003245D01*
X002757Y003468D02*
X002757Y002584D01*
X002390Y002844D02*
X002342Y002989D01*
X002720Y003532D02*
X002720Y003532D01*
X002720Y004185D02*
X002720Y004185D01*
X002885Y004472D02*
X002885Y004472D01*
X002885Y004472D01*
X003139Y004685D02*
X003139Y004685D01*
X003782Y004798D02*
X003782Y004798D01*
X004348Y004472D02*
X004348Y004472D01*
X004357Y004457D02*
X004357Y008387D01*
X003504Y009884D02*
X005242Y009884D01*
X005317Y013428D02*
X005317Y013538D01*
X004997Y013538D02*
X004997Y013428D01*
X004618Y013758D02*
X004598Y013760D01*
X004579Y013764D01*
X004561Y013772D01*
X004545Y013782D01*
X004530Y013795D01*
X004677Y013978D02*
X004677Y016965D01*
X004357Y017352D02*
X004357Y019260D01*
X004348Y019245D02*
X004348Y019245D01*
X004348Y019245D01*
X004390Y019318D02*
X010623Y019318D01*
X010757Y019452D02*
X010757Y021138D01*
X011077Y021138D02*
X011077Y019508D01*
X011397Y019508D02*
X011397Y021138D01*
X011717Y021138D02*
X011717Y019508D01*
X012037Y019508D02*
X012037Y021138D01*
X012357Y021138D02*
X012357Y019508D01*
X012677Y019352D02*
X012677Y021138D01*
X012997Y021138D02*
X012997Y020037D01*
X012929Y019958D02*
X008872Y019958D01*
X008837Y019927D02*
X008837Y018408D01*
X008517Y018408D02*
X008517Y020308D01*
X008544Y020278D02*
X008444Y020278D01*
X008197Y020308D02*
X008197Y020349D01*
X007950Y020278D02*
X007686Y020278D01*
X007686Y019958D02*
X008117Y019958D01*
X008197Y019895D02*
X008197Y018408D01*
X007877Y018408D02*
X007877Y021138D01*
X007994Y020918D02*
X007597Y020918D01*
X007557Y020928D02*
X007557Y021138D01*
X007237Y021138D02*
X007237Y020928D01*
X006917Y020928D02*
X006917Y021138D01*
X006547Y020598D02*
X004197Y020598D01*
X004037Y020706D02*
X004037Y021138D01*
X003717Y021138D02*
X003717Y020798D01*
X003782Y020798D02*
X003782Y020798D01*
X003451Y020798D02*
X003451Y020798D01*
X003397Y020779D02*
X003397Y021138D01*
X003077Y021138D02*
X003077Y020632D01*
X003036Y020598D02*
X002336Y020598D01*
X002336Y020278D02*
X002774Y020278D01*
X002757Y020249D02*
X002757Y021133D01*
X003139Y020685D02*
X003139Y020685D01*
X002885Y020472D02*
X002885Y020472D01*
X002885Y020472D01*
X002720Y020185D02*
X002720Y020185D01*
X002680Y019958D02*
X002336Y019958D01*
X002336Y019638D02*
X002701Y019638D01*
X002720Y019532D02*
X002720Y019532D01*
X002757Y019468D02*
X002757Y015752D01*
X002803Y015798D02*
X002336Y015798D01*
X002336Y015478D02*
X002496Y015478D01*
X002336Y016118D02*
X003123Y016118D01*
X003077Y016072D02*
X003077Y019084D01*
X003231Y018998D02*
X002336Y018998D01*
X002336Y019318D02*
X002843Y019318D01*
X002885Y019245D02*
X002885Y019245D01*
X003397Y018938D02*
X003397Y016392D01*
X003443Y016438D02*
X002336Y016438D01*
X002336Y016758D02*
X003763Y016758D01*
X003717Y016712D02*
X003717Y018918D01*
X003451Y018918D02*
X003451Y018918D01*
X004002Y018998D02*
X010303Y018998D01*
X010437Y019132D02*
X010437Y021138D01*
X010117Y021138D02*
X010117Y018812D01*
X009983Y018678D02*
X002336Y018678D01*
X002336Y018358D02*
X005363Y018358D01*
X005317Y018312D02*
X005317Y021138D01*
X004997Y021138D02*
X004997Y017992D01*
X005043Y018038D02*
X002336Y018038D01*
X002336Y017718D02*
X004723Y017718D01*
X004677Y017672D02*
X004677Y021138D01*
X004357Y021138D02*
X004357Y020457D01*
X004348Y020472D02*
X004348Y020472D01*
X004459Y020278D02*
X006547Y020278D01*
X006917Y019788D02*
X006917Y018408D01*
X007237Y018408D02*
X007237Y019788D01*
X007557Y019788D02*
X007557Y018408D01*
X008017Y017718D02*
X005430Y017718D01*
X005637Y018408D02*
X005637Y021138D01*
X005957Y021138D02*
X005957Y018408D01*
X004513Y019532D02*
X004513Y019532D01*
X004094Y019032D02*
X004094Y019032D01*
X004037Y019011D02*
X004037Y017032D01*
X004083Y017078D02*
X002336Y017078D01*
X002336Y017398D02*
X004403Y017398D01*
X005846Y016118D02*
X005939Y016118D01*
X005846Y015798D02*
X007217Y015798D01*
X007217Y015478D02*
X005846Y015478D01*
X006463Y016118D02*
X007217Y016118D01*
X007716Y016118D02*
X009475Y016118D01*
X009477Y016115D02*
X009477Y016028D01*
X009817Y016308D02*
X009817Y016774D01*
X009477Y017088D02*
X009477Y017129D01*
X009467Y017078D02*
X008674Y017078D01*
X008674Y017398D02*
X009450Y017398D01*
X009477Y018408D02*
X009477Y021138D01*
X009797Y021138D02*
X009797Y018492D01*
X010370Y018358D02*
X011888Y018358D01*
X012357Y018841D02*
X012357Y018965D01*
X012710Y019318D02*
X013050Y019318D01*
X013057Y018998D02*
X012966Y018998D01*
X013417Y019293D02*
X013417Y019608D01*
X013267Y019758D01*
X012486Y017718D02*
X014103Y017718D01*
X013637Y016478D02*
X013637Y012778D01*
X013317Y012778D02*
X013317Y016478D01*
X012997Y016478D02*
X012997Y012778D01*
X012677Y012778D02*
X012677Y016393D01*
X012402Y016118D02*
X014997Y016118D01*
X014997Y015798D02*
X012082Y015798D01*
X012037Y015753D02*
X012037Y012778D01*
X012357Y012778D02*
X012357Y016073D01*
X011762Y015478D02*
X014997Y015478D01*
X014997Y015158D02*
X011442Y015158D01*
X011397Y015113D02*
X011397Y012778D01*
X011717Y012778D02*
X011717Y015433D01*
X009797Y015588D02*
X009797Y012778D01*
X009477Y012778D02*
X009477Y015588D01*
X009157Y015588D02*
X009157Y012778D01*
X010117Y012088D02*
X010117Y006984D01*
X010262Y006838D02*
X011543Y006838D01*
X011397Y006692D02*
X011397Y012088D01*
X011717Y012088D02*
X011717Y007012D01*
X011863Y007158D02*
X009946Y007158D01*
X009946Y007478D02*
X012183Y007478D01*
X012037Y007332D02*
X012037Y012088D01*
X012357Y012088D02*
X012357Y007604D01*
X012677Y007608D02*
X012677Y012088D01*
X012997Y012088D02*
X012997Y007608D01*
X013317Y007608D02*
X013317Y012088D01*
X013637Y012088D02*
X013637Y007608D01*
X013957Y007608D02*
X013957Y012088D01*
X014277Y012088D02*
X014277Y007608D01*
X014597Y007608D02*
X014597Y012088D01*
X014917Y012088D02*
X014917Y007608D01*
X015361Y007798D02*
X009946Y007798D01*
X009487Y007567D02*
X009487Y007154D01*
X009487Y006963D01*
X010519Y005930D01*
X010519Y005678D01*
X009358Y005678D01*
X008586Y006450D01*
X008586Y006667D01*
X009487Y007567D01*
X009477Y007557D02*
X009477Y005678D01*
X009797Y005678D02*
X009797Y006653D01*
X009931Y006518D02*
X008586Y006518D01*
X008758Y006838D02*
X009611Y006838D01*
X009487Y007158D02*
X009078Y007158D01*
X009157Y007237D02*
X009157Y005879D01*
X009158Y005878D02*
X010519Y005878D01*
X010437Y006013D02*
X010437Y005678D01*
X010117Y005678D02*
X010117Y006333D01*
X010251Y006198D02*
X008838Y006198D01*
X008837Y006199D02*
X008837Y006917D01*
X009398Y007478D02*
X009487Y007478D01*
X010437Y006664D02*
X010437Y012088D01*
X010757Y012088D02*
X010757Y006356D01*
X010582Y006518D02*
X011223Y006518D01*
X011077Y006372D02*
X011077Y012088D01*
X008631Y011318D02*
X008536Y011318D01*
X005637Y013428D02*
X005637Y013538D01*
X007154Y015158D02*
X007217Y015158D01*
X010437Y017663D02*
X010437Y018425D01*
X008837Y020308D02*
X008837Y020341D01*
X008544Y019958D02*
X008444Y019958D01*
X007994Y020598D02*
X007686Y020598D01*
X004513Y020185D02*
X004513Y020185D01*
X002662Y019858D02*
X002662Y019858D01*
X002966Y014198D02*
X003834Y014198D01*
X011414Y005878D02*
X017747Y005878D01*
X017747Y006198D02*
X011610Y006198D01*
X011717Y006305D02*
X011717Y005678D01*
X012037Y005678D02*
X012037Y006625D01*
X011930Y006518D02*
X017747Y006518D01*
X017747Y006838D02*
X012250Y006838D01*
X012357Y006945D02*
X012357Y005678D01*
X012677Y005678D02*
X012677Y007108D01*
X012997Y007108D02*
X012997Y005678D01*
X013317Y005678D02*
X013317Y007108D01*
X013637Y007108D02*
X013637Y005678D01*
X013957Y005678D02*
X013957Y007108D01*
X014277Y007108D02*
X014277Y005678D01*
X014597Y005678D02*
X014597Y007108D01*
X014917Y007108D02*
X014917Y005678D01*
X016686Y003318D02*
X018843Y003318D01*
X018885Y003245D02*
X018885Y003245D01*
X018757Y003468D02*
X018757Y002578D01*
X018437Y002578D02*
X018437Y007417D01*
X018498Y007478D02*
X020897Y007478D01*
X020897Y007158D02*
X018386Y007158D01*
X018167Y007417D02*
X018168Y007433D01*
X018172Y007448D01*
X018178Y007462D01*
X018186Y007476D01*
X018196Y007488D01*
X018757Y007737D02*
X018757Y004249D01*
X018774Y004278D02*
X004459Y004278D01*
X004513Y004185D02*
X004513Y004185D01*
X004094Y003032D02*
X004094Y003032D01*
X015168Y014198D02*
X020897Y014198D01*
X020897Y014518D02*
X015436Y014518D01*
X015237Y014267D02*
X015237Y012778D01*
X015877Y013030D02*
X015877Y021138D01*
X016197Y021138D02*
X016197Y013228D01*
X016167Y013008D02*
X016917Y013008D01*
X017235Y013238D02*
X020897Y013238D01*
X020017Y011858D02*
X019517Y011858D01*
X020345Y011638D02*
X020897Y011638D01*
X020897Y011318D02*
X020468Y011318D01*
X020357Y011429D02*
X020357Y011665D01*
X020380Y011095D02*
X020393Y011080D01*
X020403Y011064D01*
X020411Y011046D01*
X020415Y011027D01*
X020417Y011007D01*
X020636Y010998D02*
X020897Y010998D01*
X020897Y010678D02*
X020636Y010678D01*
X020003Y010195D02*
X019988Y010182D01*
X019972Y010172D01*
X019954Y010164D01*
X019935Y010160D01*
X019915Y010158D01*
X020897Y007798D02*
X018818Y007798D01*
X018386Y006838D02*
X020897Y006838D01*
X020897Y006518D02*
X018386Y006518D01*
X018386Y006198D02*
X020897Y006198D01*
X020897Y005878D02*
X018386Y005878D01*
X018378Y005558D02*
X020897Y005558D01*
X020897Y005238D02*
X018058Y005238D01*
X018117Y005297D02*
X018117Y002578D01*
X018720Y003532D02*
X018720Y003532D01*
X018720Y004185D02*
X018720Y004185D01*
X018885Y004472D02*
X018885Y004472D01*
X018885Y004472D01*
X019139Y004685D02*
X019139Y004685D01*
X020897Y014838D02*
X015436Y014838D01*
X015436Y015158D02*
X020897Y015158D01*
X020897Y015478D02*
X015436Y015478D01*
X015436Y015798D02*
X020897Y015798D01*
X020897Y016118D02*
X015436Y016118D01*
X015436Y016438D02*
X020897Y016438D01*
D19*
X020117Y015458D03*
X019367Y015758D03*
X018517Y015958D03*
X019667Y017258D03*
X018517Y017458D03*
X018067Y018758D03*
X017117Y019708D03*
X018767Y020758D03*
X020517Y019058D03*
X017267Y015658D03*
X017067Y016558D03*
X016467Y016558D03*
X015817Y016558D03*
X015967Y015608D03*
X016117Y014658D03*
X014567Y015058D03*
X014567Y015608D03*
X014617Y016558D03*
X014517Y017658D03*
X013467Y017508D03*
X012767Y017508D03*
X011767Y017508D03*
X012267Y018458D03*
X013267Y019758D03*
X010867Y019758D03*
X010817Y018408D03*
X009467Y020358D03*
X008517Y019558D03*
X008967Y017158D03*
X009817Y016308D03*
X010967Y016308D03*
X010717Y014758D03*
X009917Y014358D03*
X010717Y013258D03*
X012567Y012958D03*
X013717Y013208D03*
X014567Y013908D03*
X015567Y011958D03*
X014717Y011808D03*
X013567Y011208D03*
X013767Y010358D03*
X012467Y010908D03*
X011267Y010108D03*
X012367Y008958D03*
X013717Y008408D03*
X014117Y007908D03*
X014917Y008708D03*
X016217Y008808D03*
X017367Y008408D03*
X016167Y007058D03*
X015617Y007058D03*
X013967Y005908D03*
X012967Y005908D03*
X011917Y005908D03*
X010267Y007558D03*
X010217Y008258D03*
X009417Y006608D03*
X008817Y006608D03*
X006667Y007758D03*
X005317Y009108D03*
X004217Y009208D03*
X004167Y010358D03*
X005167Y010508D03*
X005217Y011058D03*
X005667Y010258D03*
X006217Y010258D03*
X007117Y010108D03*
X007517Y011908D03*
X008317Y011958D03*
X009817Y011208D03*
X008717Y013708D03*
X008717Y014258D03*
X007917Y014908D03*
X007217Y014458D03*
X006817Y014958D03*
X006367Y014308D03*
X006167Y013758D03*
X006467Y012908D03*
X005567Y012258D03*
X004217Y014108D03*
X003117Y013208D03*
X004917Y015408D03*
X004717Y016758D03*
X003567Y017258D03*
X004717Y018258D03*
X002667Y019108D03*
X004517Y020758D03*
X004217Y008008D03*
X004717Y007758D03*
X004717Y006258D03*
X003567Y006408D03*
X002617Y004608D03*
X004467Y002958D03*
X005267Y004858D03*
X014717Y004158D03*
X017317Y004608D03*
X018517Y005458D03*
X019617Y006408D03*
X018517Y006958D03*
X019517Y007958D03*
X020067Y008508D03*
X020067Y009558D03*
X019317Y009758D03*
X019467Y011458D03*
X020017Y011858D03*
X018417Y013858D03*
X016917Y013008D03*
X017917Y011658D03*
X020617Y004558D03*
X018717Y002958D03*
D20*
X018517Y005484D02*
X018517Y006958D01*
X017067Y009108D02*
X017067Y010008D01*
X017817Y010758D01*
X018217Y010758D01*
X018617Y011158D01*
X018617Y011708D01*
X017067Y009108D02*
X015267Y007358D01*
X012417Y007358D01*
X010967Y005908D01*
X014739Y003358D02*
X014739Y002458D01*
X014617Y002458D01*
X006382Y012008D02*
X006382Y012093D01*
X005767Y012708D01*
X002767Y012708D01*
X002717Y012758D01*
X002717Y015358D01*
X004717Y017358D01*
X005532Y016543D01*
X005532Y016458D01*
X004717Y016758D02*
X004717Y015608D01*
X004917Y015408D01*
X003717Y017258D02*
X003567Y017258D01*
X003717Y017258D02*
X004717Y018258D01*
X005517Y018158D02*
X004717Y017358D01*
X005517Y018158D02*
X008267Y018158D01*
X008267Y017158D01*
X008217Y017158D01*
X007467Y016408D01*
X007467Y014793D01*
X007967Y014293D01*
X008051Y013708D02*
X008717Y013708D01*
X007982Y013608D02*
X007967Y013624D01*
X008267Y018158D02*
X009817Y018158D01*
X010917Y019258D01*
X012417Y019258D01*
X012717Y018958D01*
X012717Y018458D01*
X013117Y018058D01*
X014117Y018058D01*
X014517Y017658D01*
X018517Y017458D02*
X018517Y015958D01*
X008617Y020358D02*
X008617Y021258D01*
X008617Y020358D02*
X008494Y020358D01*
X002717Y012758D02*
X002717Y011458D01*
X004717Y007758D02*
X004717Y006258D01*
D21*
X018617Y011708D03*
D22*
X010967Y005908D03*
D23*
X010867Y005908D01*
X009717Y007058D01*
X009717Y010558D01*
X008317Y011958D01*
X009817Y011208D02*
X012917Y011208D01*
X013767Y010358D01*
X010717Y014758D02*
X012667Y016708D01*
X013567Y016708D01*
X014517Y017658D01*
X014567Y017608D01*
X005817Y014708D02*
X005617Y014908D01*
X005617Y016258D01*
X005532Y016343D01*
X005532Y016458D01*
D24*
X008267Y017158D03*
D25*
X005817Y014708D03*
D26*
X005617Y018858D02*
X008494Y018858D01*
X008494Y020358D01*
X018117Y020358D01*
X018119Y020263D01*
X018126Y020168D01*
X018137Y020073D01*
X018153Y019979D01*
X018173Y019886D01*
X018198Y019795D01*
X018227Y019704D01*
X018260Y019615D01*
X018298Y019527D01*
X018339Y019442D01*
X018385Y019358D01*
X018434Y019277D01*
X018488Y019198D01*
X018545Y019122D01*
X018606Y019048D01*
X018670Y018978D01*
X018737Y018911D01*
X018807Y018847D01*
X018881Y018786D01*
X018957Y018729D01*
X019036Y018675D01*
X019117Y018626D01*
X019201Y018580D01*
X019286Y018539D01*
X019374Y018501D01*
X019463Y018468D01*
X019554Y018439D01*
X019645Y018414D01*
X019738Y018394D01*
X019832Y018378D01*
X019927Y018367D01*
X020022Y018360D01*
X020117Y018358D01*
X017617Y004858D02*
X014717Y004858D01*
X014717Y003358D01*
X005117Y003358D01*
X005115Y003453D01*
X005108Y003548D01*
X005097Y003643D01*
X005081Y003737D01*
X005061Y003830D01*
X005036Y003921D01*
X005007Y004012D01*
X004974Y004101D01*
X004936Y004189D01*
X004895Y004274D01*
X004849Y004358D01*
X004800Y004439D01*
X004746Y004518D01*
X004689Y004594D01*
X004628Y004668D01*
X004564Y004738D01*
X004497Y004805D01*
X004427Y004869D01*
X004353Y004930D01*
X004277Y004987D01*
X004198Y005041D01*
X004117Y005090D01*
X004033Y005136D01*
X003948Y005177D01*
X003860Y005215D01*
X003771Y005248D01*
X003680Y005277D01*
X003589Y005302D01*
X003496Y005322D01*
X003402Y005338D01*
X003307Y005349D01*
X003212Y005356D01*
X003117Y005358D01*
X005617Y018858D02*
X005617Y020358D01*
X005117Y020358D01*
X005115Y020263D01*
X005108Y020168D01*
X005097Y020073D01*
X005081Y019979D01*
X005061Y019886D01*
X005036Y019795D01*
X005007Y019704D01*
X004974Y019615D01*
X004936Y019527D01*
X004895Y019442D01*
X004849Y019358D01*
X004800Y019277D01*
X004746Y019198D01*
X004689Y019122D01*
X004628Y019048D01*
X004564Y018978D01*
X004497Y018911D01*
X004427Y018847D01*
X004353Y018786D01*
X004277Y018729D01*
X004198Y018675D01*
X004117Y018626D01*
X004033Y018580D01*
X003948Y018539D01*
X003860Y018501D01*
X003771Y018468D01*
X003680Y018439D01*
X003589Y018414D01*
X003496Y018394D01*
X003402Y018378D01*
X003307Y018367D01*
X003212Y018360D01*
X003117Y018358D01*
X017617Y004858D02*
X017617Y003358D01*
X018117Y003358D01*
X018119Y003453D01*
X018126Y003548D01*
X018137Y003643D01*
X018153Y003737D01*
X018173Y003830D01*
X018198Y003921D01*
X018227Y004012D01*
X018260Y004101D01*
X018298Y004189D01*
X018339Y004274D01*
X018385Y004358D01*
X018434Y004439D01*
X018488Y004518D01*
X018545Y004594D01*
X018606Y004668D01*
X018670Y004738D01*
X018737Y004805D01*
X018807Y004869D01*
X018881Y004930D01*
X018957Y004987D01*
X019036Y005041D01*
X019117Y005090D01*
X019201Y005136D01*
X019286Y005177D01*
X019374Y005215D01*
X019463Y005248D01*
X019554Y005277D01*
X019645Y005302D01*
X019738Y005322D01*
X019832Y005338D01*
X019927Y005349D01*
X020022Y005356D01*
X020117Y005358D01*
D27*
X014739Y003358D02*
X014717Y003358D01*
D28*
X018517Y005458D02*
X018617Y005358D01*
X020117Y005358D01*
X018517Y005458D02*
X018517Y005484D01*
X005617Y018858D02*
X005317Y018858D01*
X004717Y018258D01*
X004717Y006258D02*
X004217Y005758D01*
X004217Y005008D01*
X005117Y004108D01*
X005117Y003358D01*
D29*
X007982Y013008D02*
X007982Y013608D01*
M02*
