G75*
G70*
%OFA0B0*%
%FSLAX24Y24*%
%IPPOS*%
%LPD*%
%AMOC8*
5,1,8,0,0,1.08239X$1,22.5*
%
%ADD10C,0.0060*%
%ADD11C,0.0030*%
%ADD12C,0.0100*%
%ADD13C,0.0080*%
%ADD14R,0.0472X0.0079*%
%ADD15R,0.0079X0.0472*%
%ADD16C,0.0050*%
%ADD17C,0.0040*%
%ADD18C,0.0220*%
%ADD19R,0.0180X0.0300*%
%ADD20R,0.0300X0.0180*%
%ADD21C,0.0070*%
%ADD22C,0.0020*%
D10*
X005210Y002788D02*
X004997Y003215D01*
X005424Y003215D02*
X005210Y002788D01*
X005641Y002895D02*
X005748Y002788D01*
X005961Y002788D01*
X006068Y002895D01*
X006068Y003322D01*
X005641Y002895D01*
X005641Y003322D01*
X005748Y003429D01*
X005961Y003429D01*
X006068Y003322D01*
X006286Y002682D02*
X006713Y002682D01*
X006930Y002788D02*
X007357Y002788D01*
X007144Y002788D02*
X007144Y003429D01*
X006930Y003215D01*
X008219Y003215D02*
X008539Y003215D01*
X008646Y003109D01*
X008646Y002895D01*
X008539Y002788D01*
X008219Y002788D01*
X008219Y003429D01*
X008864Y003215D02*
X008864Y002895D01*
X008970Y002788D01*
X009291Y002788D01*
X009291Y002682D02*
X009184Y002575D01*
X009077Y002575D01*
X009291Y002682D02*
X009291Y003215D01*
X010153Y003429D02*
X010153Y002788D01*
X010580Y002788D01*
X010797Y002788D02*
X011011Y002788D01*
X010904Y002788D02*
X010904Y003215D01*
X010797Y003215D01*
X010904Y003429D02*
X010904Y003536D01*
X011227Y003429D02*
X011227Y002788D01*
X011547Y002788D01*
X011654Y002895D01*
X011654Y003109D01*
X011547Y003215D01*
X011227Y003215D01*
X011871Y003215D02*
X011871Y002788D01*
X011871Y003002D02*
X012085Y003215D01*
X012192Y003215D01*
X012515Y003215D02*
X012729Y003215D01*
X012836Y003109D01*
X012836Y002788D01*
X012515Y002788D01*
X012409Y002895D01*
X012515Y003002D01*
X012836Y003002D01*
X013053Y003002D02*
X013480Y003002D01*
X013480Y003109D01*
X013373Y003215D01*
X013160Y003215D01*
X013053Y003109D01*
X013053Y002895D01*
X013160Y002788D01*
X013373Y002788D01*
X011874Y007288D02*
X011447Y007288D01*
X011447Y007395D01*
X011874Y007822D01*
X011874Y007929D01*
X011447Y007929D01*
X008567Y008058D02*
X005867Y008058D01*
X005808Y008060D01*
X005750Y008066D01*
X005691Y008075D01*
X005634Y008089D01*
X005578Y008106D01*
X005523Y008127D01*
X005469Y008151D01*
X005417Y008179D01*
X005367Y008210D01*
X005319Y008244D01*
X005274Y008281D01*
X005231Y008322D01*
X005190Y008365D01*
X005153Y008410D01*
X005119Y008458D01*
X005088Y008508D01*
X005060Y008560D01*
X005036Y008614D01*
X005015Y008669D01*
X004998Y008725D01*
X004984Y008782D01*
X004975Y008841D01*
X004969Y008899D01*
X004967Y008958D01*
X004969Y009017D01*
X004975Y009075D01*
X004984Y009134D01*
X004998Y009191D01*
X005015Y009247D01*
X005036Y009302D01*
X005060Y009356D01*
X005088Y009408D01*
X005119Y009458D01*
X005153Y009506D01*
X005190Y009551D01*
X005231Y009594D01*
X005274Y009635D01*
X005319Y009672D01*
X005367Y009706D01*
X005417Y009737D01*
X005469Y009765D01*
X005523Y009789D01*
X005578Y009810D01*
X005634Y009827D01*
X005691Y009841D01*
X005750Y009850D01*
X005808Y009856D01*
X005867Y009858D01*
X008567Y009858D01*
X008626Y009856D01*
X008684Y009850D01*
X008743Y009841D01*
X008800Y009827D01*
X008856Y009810D01*
X008911Y009789D01*
X008965Y009765D01*
X009017Y009737D01*
X009067Y009706D01*
X009115Y009672D01*
X009160Y009635D01*
X009203Y009594D01*
X009244Y009551D01*
X009281Y009506D01*
X009315Y009458D01*
X009346Y009408D01*
X009374Y009356D01*
X009398Y009302D01*
X009419Y009247D01*
X009436Y009191D01*
X009450Y009134D01*
X009459Y009075D01*
X009465Y009017D01*
X009467Y008958D01*
X009465Y008899D01*
X009459Y008841D01*
X009450Y008782D01*
X009436Y008725D01*
X009419Y008669D01*
X009398Y008614D01*
X009374Y008560D01*
X009346Y008508D01*
X009315Y008458D01*
X009281Y008410D01*
X009244Y008365D01*
X009203Y008322D01*
X009160Y008281D01*
X009115Y008244D01*
X009067Y008210D01*
X009017Y008179D01*
X008965Y008151D01*
X008911Y008127D01*
X008856Y008106D01*
X008800Y008089D01*
X008743Y008075D01*
X008684Y008066D01*
X008626Y008060D01*
X008567Y008058D01*
X007553Y006377D02*
X007553Y006140D01*
X007080Y006140D02*
X007080Y006377D01*
X013447Y012022D02*
X013660Y011809D01*
X013660Y011488D01*
X013660Y011809D02*
X013874Y012022D01*
X013874Y012129D01*
X013447Y012129D02*
X013447Y012022D01*
X016330Y009927D02*
X016330Y009690D01*
X016803Y009690D02*
X016803Y009927D01*
X020048Y014322D02*
X020285Y014322D01*
X020285Y014795D02*
X020048Y014795D01*
X017235Y014945D02*
X016998Y014945D01*
X016998Y014472D02*
X017235Y014472D01*
X016153Y017690D02*
X016153Y017927D01*
X015680Y017927D02*
X015680Y017690D01*
X015945Y020275D02*
X015945Y020915D01*
X016266Y020915D01*
X016372Y020809D01*
X016372Y020595D01*
X016266Y020488D01*
X015945Y020488D01*
X015728Y020595D02*
X015728Y020809D01*
X015621Y020915D01*
X015408Y020915D01*
X015301Y020809D01*
X015301Y020595D01*
X015408Y020488D01*
X015621Y020488D01*
X015728Y020595D01*
X015083Y020595D02*
X014976Y020488D01*
X014763Y020488D01*
X014656Y020595D01*
X014656Y021022D01*
X014763Y021129D01*
X014976Y021129D01*
X015083Y021022D01*
X014439Y020809D02*
X014439Y020595D01*
X014332Y020488D01*
X014118Y020488D01*
X014012Y020595D01*
X014012Y020809D01*
X014118Y020915D01*
X014332Y020915D01*
X014439Y020809D01*
X013795Y020915D02*
X013688Y020915D01*
X013475Y020702D01*
X013475Y020915D02*
X013475Y020488D01*
X013257Y020488D02*
X012937Y020488D01*
X012830Y020595D01*
X012830Y020809D01*
X012937Y020915D01*
X013257Y020915D01*
X013257Y021129D02*
X013257Y020488D01*
X012613Y020488D02*
X012292Y020488D01*
X012186Y020595D01*
X012292Y020702D01*
X012613Y020702D01*
X012613Y020809D02*
X012613Y020488D01*
X012613Y020809D02*
X012506Y020915D01*
X012292Y020915D01*
X011968Y020915D02*
X011968Y020488D01*
X011648Y020488D01*
X011541Y020595D01*
X011541Y020915D01*
X011324Y021022D02*
X011217Y021129D01*
X011003Y021129D01*
X010897Y021022D01*
X010897Y020595D01*
X011003Y020488D01*
X011217Y020488D01*
X011324Y020595D01*
X011324Y021022D01*
X011110Y020702D02*
X011324Y020488D01*
X011447Y016629D02*
X011874Y015988D01*
X011447Y015988D02*
X011874Y016629D01*
X016590Y020915D02*
X016803Y020915D01*
X016697Y021022D02*
X016697Y020595D01*
X016803Y020488D01*
X017020Y020595D02*
X017020Y020809D01*
X017126Y020915D01*
X017340Y020915D01*
X017447Y020809D01*
X017447Y020702D01*
X017020Y020702D01*
X017020Y020595D02*
X017126Y020488D01*
X017340Y020488D01*
X017664Y020488D02*
X017664Y020915D01*
X017664Y020702D02*
X017878Y020915D01*
X017984Y020915D01*
D11*
X002432Y005294D02*
X002432Y004923D01*
X002678Y004923D02*
X002678Y005294D01*
X002555Y005170D01*
X002432Y005294D01*
X002800Y005170D02*
X002923Y005294D01*
X002923Y004923D01*
X002800Y004923D02*
X003047Y004923D01*
X009081Y004875D02*
X009081Y004628D01*
X009452Y004628D01*
X009452Y004875D01*
X009452Y004997D02*
X009081Y004997D01*
X009081Y005182D01*
X009143Y005244D01*
X009266Y005244D01*
X009328Y005182D01*
X009328Y004997D01*
X009328Y005120D02*
X009452Y005244D01*
X009266Y004752D02*
X009266Y004628D01*
X009452Y004507D02*
X009081Y004507D01*
X009328Y004383D02*
X009452Y004507D01*
X009328Y004383D02*
X009452Y004260D01*
X009081Y004260D01*
X009143Y004139D02*
X009081Y004077D01*
X009081Y003953D01*
X009143Y003892D01*
X009390Y003892D01*
X009452Y003953D01*
X009452Y004077D01*
X009390Y004139D01*
X009143Y004139D01*
X009143Y003770D02*
X009266Y003770D01*
X009328Y003709D01*
X009328Y003523D01*
X009452Y003523D02*
X009081Y003523D01*
X009081Y003709D01*
X009143Y003770D01*
X011355Y010273D02*
X011355Y010459D01*
X011478Y010582D01*
X011478Y010644D01*
X011355Y010459D02*
X011232Y010582D01*
X011232Y010644D01*
X012732Y012323D02*
X012978Y012694D01*
X012732Y012694D02*
X012978Y012323D01*
X008002Y013173D02*
X007755Y013173D01*
X008002Y013420D01*
X008002Y013482D01*
X007940Y013544D01*
X007816Y013544D01*
X007755Y013482D01*
X007633Y013482D02*
X007572Y013544D01*
X007448Y013544D01*
X007386Y013482D01*
X007265Y013544D02*
X007265Y013173D01*
X007386Y013235D02*
X007448Y013173D01*
X007572Y013173D01*
X007633Y013235D01*
X007633Y013297D01*
X007572Y013359D01*
X007510Y013359D01*
X007572Y013359D02*
X007633Y013420D01*
X007633Y013482D01*
X007265Y013544D02*
X007142Y013420D01*
X007018Y013544D01*
X007018Y013173D01*
X006773Y013173D02*
X006773Y013544D01*
X006650Y013544D02*
X006897Y013544D01*
X006528Y013482D02*
X006467Y013544D01*
X006343Y013544D01*
X006282Y013482D01*
X006282Y013420D01*
X006343Y013359D01*
X006467Y013359D01*
X006528Y013297D01*
X006528Y013235D01*
X006467Y013173D01*
X006343Y013173D01*
X006282Y013235D01*
X008432Y017723D02*
X008678Y017723D01*
X008800Y017723D02*
X009047Y017723D01*
X009168Y017723D02*
X009353Y017723D01*
X009415Y017785D01*
X009415Y018032D01*
X009353Y018094D01*
X009168Y018094D01*
X009168Y017723D01*
X008923Y017909D02*
X008800Y017909D01*
X008800Y018094D02*
X008800Y017723D01*
X008432Y017723D02*
X008432Y018094D01*
X008800Y018094D02*
X009047Y018094D01*
X009536Y017970D02*
X009660Y018094D01*
X009660Y017723D01*
X009783Y017723D02*
X009536Y017723D01*
X010132Y017723D02*
X010378Y017723D01*
X010500Y017723D02*
X010747Y017723D01*
X010868Y017723D02*
X011053Y017723D01*
X011115Y017785D01*
X011115Y018032D01*
X011053Y018094D01*
X010868Y018094D01*
X010868Y017723D01*
X010623Y017909D02*
X010500Y017909D01*
X010500Y018094D02*
X010500Y017723D01*
X010132Y017723D02*
X010132Y018094D01*
X010500Y018094D02*
X010747Y018094D01*
X011236Y018032D02*
X011298Y018094D01*
X011422Y018094D01*
X011483Y018032D01*
X011483Y017970D01*
X011236Y017723D01*
X011483Y017723D01*
X003160Y018659D02*
X002913Y018659D01*
X003098Y018844D01*
X003098Y018473D01*
X002792Y018473D02*
X002792Y018844D01*
X002668Y018720D01*
X002545Y018844D01*
X002545Y018473D01*
X019882Y007832D02*
X019882Y007770D01*
X019943Y007709D01*
X020067Y007709D01*
X020128Y007647D01*
X020128Y007585D01*
X020067Y007523D01*
X019943Y007523D01*
X019882Y007585D01*
X019882Y007832D02*
X019943Y007894D01*
X020067Y007894D01*
X020128Y007832D01*
X020250Y007832D02*
X020250Y007585D01*
X020312Y007523D01*
X020435Y007523D01*
X020497Y007585D01*
X020618Y007523D02*
X020865Y007523D01*
X020618Y007523D02*
X020618Y007894D01*
X020497Y007832D02*
X020435Y007894D01*
X020312Y007894D01*
X020250Y007832D01*
X020593Y009873D02*
X020531Y009935D01*
X020531Y010059D01*
X020593Y010120D01*
X020531Y010242D02*
X020531Y010427D01*
X020593Y010489D01*
X020840Y010489D01*
X020902Y010427D01*
X020902Y010242D01*
X020531Y010242D01*
X020716Y010059D02*
X020778Y010120D01*
X020840Y010120D01*
X020902Y010059D01*
X020902Y009935D01*
X020840Y009873D01*
X020716Y009935D02*
X020716Y010059D01*
X020716Y009935D02*
X020655Y009873D01*
X020593Y009873D01*
X020655Y010610D02*
X020531Y010733D01*
X020655Y010857D01*
X020902Y010857D01*
X020716Y010857D02*
X020716Y010610D01*
X020655Y010610D02*
X020902Y010610D01*
X020598Y005294D02*
X020475Y005294D01*
X020413Y005232D01*
X020292Y005294D02*
X020168Y005170D01*
X020045Y005294D01*
X020045Y004923D01*
X020292Y004923D02*
X020292Y005294D01*
X020598Y005294D02*
X020660Y005232D01*
X020660Y005170D01*
X020413Y004923D01*
X020660Y004923D01*
X020648Y018423D02*
X020525Y018423D01*
X020463Y018485D01*
X020342Y018423D02*
X020342Y018794D01*
X020218Y018670D01*
X020095Y018794D01*
X020095Y018423D01*
X020463Y018732D02*
X020525Y018794D01*
X020648Y018794D01*
X020710Y018732D01*
X020710Y018670D01*
X020648Y018609D01*
X020710Y018547D01*
X020710Y018485D01*
X020648Y018423D01*
X020648Y018609D02*
X020587Y018609D01*
D12*
X012617Y012308D02*
X012767Y012108D01*
X012617Y012308D02*
X012467Y012108D01*
X012617Y012308D02*
X012617Y011358D01*
X012117Y010858D02*
X011067Y010858D01*
X011367Y010708D01*
X011367Y011008D02*
X011067Y010858D01*
X008580Y011784D02*
X008582Y011804D01*
X008587Y011824D01*
X008597Y011842D01*
X008609Y011859D01*
X008624Y011873D01*
X008642Y011883D01*
X008661Y011891D01*
X008681Y011895D01*
X008701Y011895D01*
X008721Y011891D01*
X008740Y011883D01*
X008758Y011873D01*
X008773Y011859D01*
X008785Y011842D01*
X008795Y011824D01*
X008800Y011804D01*
X008802Y011784D01*
X008800Y011764D01*
X008795Y011744D01*
X008785Y011726D01*
X008773Y011709D01*
X008758Y011695D01*
X008740Y011685D01*
X008721Y011677D01*
X008701Y011673D01*
X008681Y011673D01*
X008661Y011677D01*
X008642Y011685D01*
X008624Y011695D01*
X008609Y011709D01*
X008597Y011726D01*
X008587Y011744D01*
X008582Y011764D01*
X008580Y011784D01*
D13*
X008849Y011469D02*
X005384Y011469D01*
X005227Y011626D01*
X005227Y015091D01*
X005384Y015248D01*
X008849Y015248D01*
X009006Y015091D01*
X009006Y011626D01*
X008849Y011469D01*
X010829Y011268D02*
X010829Y011071D01*
X011026Y011071D01*
X012207Y011071D02*
X012404Y011268D01*
X012404Y012449D02*
X012404Y012646D01*
X012207Y012646D01*
X011026Y012646D02*
X010829Y012646D01*
X010829Y012449D01*
X010881Y017053D02*
X010957Y017169D01*
X010967Y017175D02*
X011059Y017053D01*
X011148Y017175D02*
X010967Y017175D01*
X010785Y017175D01*
X009998Y017175D02*
X009817Y017175D01*
X009909Y017053D01*
X009817Y017175D02*
X009635Y017175D01*
X009731Y017053D02*
X009807Y017169D01*
X009950Y018648D02*
X010423Y018648D01*
X009950Y018648D01*
X009793Y018766D01*
X009793Y019731D01*
X009950Y019869D01*
X010423Y019869D01*
X010577Y019765D02*
X010577Y018742D01*
X011171Y018648D02*
X011840Y018648D01*
X011840Y019888D01*
X011171Y019888D01*
X009183Y019256D02*
X009183Y018941D01*
X006428Y018941D01*
X006428Y019256D01*
X009183Y019256D01*
X009183Y021697D01*
X006428Y021697D01*
X006428Y019256D01*
X006123Y018786D02*
X005532Y018786D01*
X005532Y019731D01*
X006123Y019731D01*
X006910Y019731D02*
X007343Y019731D01*
X007501Y019573D01*
X007501Y018943D01*
X007343Y018786D01*
X006910Y018786D01*
X004656Y018410D02*
X004341Y018410D01*
X004341Y018173D01*
X004341Y017543D02*
X004341Y017307D01*
X004656Y017307D01*
X004656Y016910D02*
X004341Y016910D01*
X004341Y016673D01*
X004341Y016043D02*
X004341Y015807D01*
X004656Y015807D01*
X003996Y011951D02*
X002224Y011951D01*
X002224Y007817D01*
X003996Y007817D01*
X003996Y011951D01*
X004341Y007910D02*
X004656Y007910D01*
X004341Y007910D02*
X004341Y007673D01*
X004341Y007043D02*
X004341Y006807D01*
X004656Y006807D01*
X004656Y006410D02*
X004341Y006410D01*
X004341Y006173D01*
X004341Y005543D02*
X004341Y005307D01*
X004656Y005307D01*
X009635Y004475D02*
X009817Y004475D01*
X009909Y004353D01*
X009998Y004475D02*
X009817Y004475D01*
X009807Y004469D02*
X009731Y004353D01*
X011393Y003829D02*
X011393Y005069D01*
X012062Y005069D01*
X012656Y004975D02*
X012656Y003952D01*
X012810Y003848D02*
X013283Y003848D01*
X013440Y003986D01*
X013440Y004951D01*
X013283Y005069D01*
X012810Y005069D01*
X013283Y005069D01*
X014050Y004776D02*
X014050Y004461D01*
X016806Y004461D01*
X016806Y002020D01*
X014050Y002020D01*
X014050Y004461D01*
X014050Y004776D02*
X016806Y004776D01*
X016806Y004461D01*
X015977Y004642D02*
X015859Y004485D01*
X014894Y004485D01*
X014756Y004642D01*
X014756Y005115D01*
X014860Y005269D02*
X015883Y005269D01*
X015977Y005115D02*
X015977Y004642D01*
X015977Y005115D01*
X015977Y005863D02*
X015977Y006532D01*
X014737Y006532D01*
X014737Y005863D01*
X012062Y003829D02*
X011393Y003829D01*
X018577Y005307D02*
X018892Y005307D01*
X018892Y005543D01*
X018892Y006173D02*
X018892Y006410D01*
X018577Y006410D01*
X018577Y006807D02*
X018892Y006807D01*
X018892Y007043D01*
X018892Y007673D02*
X018892Y007910D01*
X018577Y007910D01*
X018577Y015807D02*
X018892Y015807D01*
X018892Y016043D01*
X018892Y016673D02*
X018892Y016910D01*
X018577Y016910D01*
X018577Y017307D02*
X018892Y017307D01*
X018892Y017543D01*
X018892Y018173D02*
X018892Y018410D01*
X018577Y018410D01*
D14*
X009243Y014835D03*
X009243Y014638D03*
X009243Y014441D03*
X009243Y014244D03*
X009243Y014047D03*
X009243Y013851D03*
X009243Y013654D03*
X009243Y013457D03*
X009243Y013260D03*
X009243Y013063D03*
X009243Y012866D03*
X009243Y012669D03*
X009243Y012473D03*
X009243Y012276D03*
X009243Y012079D03*
X009243Y011882D03*
X004991Y011882D03*
X004991Y012079D03*
X004991Y012276D03*
X004991Y012473D03*
X004991Y012669D03*
X004991Y012866D03*
X004991Y013063D03*
X004991Y013260D03*
X004991Y013457D03*
X004991Y013654D03*
X004991Y013851D03*
X004991Y014047D03*
X004991Y014244D03*
X004991Y014441D03*
X004991Y014638D03*
X004991Y014835D03*
D15*
X005640Y015484D03*
X005837Y015484D03*
X006034Y015484D03*
X006231Y015484D03*
X006428Y015484D03*
X006624Y015484D03*
X006821Y015484D03*
X007018Y015484D03*
X007215Y015484D03*
X007412Y015484D03*
X007609Y015484D03*
X007806Y015484D03*
X008002Y015484D03*
X008199Y015484D03*
X008396Y015484D03*
X008593Y015484D03*
X008593Y011232D03*
X008396Y011232D03*
X008199Y011232D03*
X008002Y011232D03*
X007806Y011232D03*
X007609Y011232D03*
X007412Y011232D03*
X007215Y011232D03*
X007018Y011232D03*
X006821Y011232D03*
X006624Y011232D03*
X006428Y011232D03*
X006231Y011232D03*
X006034Y011232D03*
X005837Y011232D03*
X005640Y011232D03*
D16*
X012799Y008479D02*
X012801Y008499D01*
X012807Y008517D01*
X012816Y008535D01*
X012828Y008550D01*
X012843Y008562D01*
X012861Y008571D01*
X012879Y008577D01*
X012899Y008579D01*
X012919Y008577D01*
X012937Y008571D01*
X012955Y008562D01*
X012970Y008550D01*
X012982Y008535D01*
X012991Y008517D01*
X012997Y008499D01*
X012999Y008479D01*
X012997Y008459D01*
X012991Y008441D01*
X012982Y008423D01*
X012970Y008408D01*
X012955Y008396D01*
X012937Y008387D01*
X012919Y008381D01*
X012899Y008379D01*
X012879Y008381D01*
X012861Y008387D01*
X012843Y008396D01*
X012828Y008408D01*
X012816Y008423D01*
X012807Y008441D01*
X012801Y008459D01*
X012799Y008479D01*
X014337Y010576D02*
X014339Y010596D01*
X014345Y010614D01*
X014354Y010632D01*
X014366Y010647D01*
X014381Y010659D01*
X014399Y010668D01*
X014417Y010674D01*
X014437Y010676D01*
X014457Y010674D01*
X014475Y010668D01*
X014493Y010659D01*
X014508Y010647D01*
X014520Y010632D01*
X014529Y010614D01*
X014535Y010596D01*
X014537Y010576D01*
X014535Y010556D01*
X014529Y010538D01*
X014520Y010520D01*
X014508Y010505D01*
X014493Y010493D01*
X014475Y010484D01*
X014457Y010478D01*
X014437Y010476D01*
X014417Y010478D01*
X014399Y010484D01*
X014381Y010493D01*
X014366Y010505D01*
X014354Y010520D01*
X014345Y010538D01*
X014339Y010556D01*
X014337Y010576D01*
X012799Y014479D02*
X012801Y014499D01*
X012807Y014517D01*
X012816Y014535D01*
X012828Y014550D01*
X012843Y014562D01*
X012861Y014571D01*
X012879Y014577D01*
X012899Y014579D01*
X012919Y014577D01*
X012937Y014571D01*
X012955Y014562D01*
X012970Y014550D01*
X012982Y014535D01*
X012991Y014517D01*
X012997Y014499D01*
X012999Y014479D01*
X012997Y014459D01*
X012991Y014441D01*
X012982Y014423D01*
X012970Y014408D01*
X012955Y014396D01*
X012937Y014387D01*
X012919Y014381D01*
X012899Y014379D01*
X012879Y014381D01*
X012861Y014387D01*
X012843Y014396D01*
X012828Y014408D01*
X012816Y014423D01*
X012807Y014441D01*
X012801Y014459D01*
X012799Y014479D01*
D17*
X012741Y014665D02*
X012741Y015125D01*
X012971Y015125D01*
X013048Y015049D01*
X013048Y014895D01*
X012971Y014818D01*
X012741Y014818D01*
X012588Y014818D02*
X012588Y014742D01*
X012511Y014665D01*
X012358Y014665D01*
X012281Y014742D01*
X012127Y014742D02*
X012051Y014665D01*
X011897Y014665D01*
X011821Y014742D01*
X012127Y015049D01*
X012127Y014742D01*
X011821Y014742D02*
X011821Y015049D01*
X011897Y015125D01*
X012051Y015125D01*
X012127Y015049D01*
X012281Y015049D02*
X012358Y015125D01*
X012511Y015125D01*
X012588Y015049D01*
X012588Y014972D01*
X012511Y014895D01*
X012588Y014818D01*
X012511Y014895D02*
X012434Y014895D01*
X012895Y014818D02*
X013048Y014665D01*
X011667Y014895D02*
X011360Y014895D01*
X011207Y014742D02*
X011130Y014665D01*
X010977Y014665D01*
X010900Y014742D01*
X010900Y015049D01*
X010977Y015125D01*
X011130Y015125D01*
X011207Y015049D01*
X010746Y015125D02*
X010746Y014665D01*
X010440Y015125D01*
X010440Y014665D01*
X010286Y014665D02*
X009979Y014665D01*
X009979Y015125D01*
X010286Y015125D01*
X010133Y014895D02*
X009979Y014895D01*
X014623Y013305D02*
X014623Y013075D01*
X015083Y013075D01*
X014930Y013075D02*
X014930Y013305D01*
X014853Y013382D01*
X014700Y013382D01*
X014623Y013305D01*
X014930Y013229D02*
X015083Y013382D01*
X015006Y012922D02*
X014930Y012922D01*
X014853Y012845D01*
X014853Y012768D01*
X014853Y012845D02*
X014776Y012922D01*
X014700Y012922D01*
X014623Y012845D01*
X014623Y012692D01*
X014700Y012615D01*
X014700Y012461D02*
X015006Y012154D01*
X015083Y012231D01*
X015083Y012385D01*
X015006Y012461D01*
X014700Y012461D01*
X014623Y012385D01*
X014623Y012231D01*
X014700Y012154D01*
X015006Y012154D01*
X014853Y012001D02*
X014853Y011694D01*
X014700Y011541D02*
X014623Y011464D01*
X014623Y011310D01*
X014700Y011234D01*
X015006Y011234D01*
X015083Y011310D01*
X015083Y011464D01*
X015006Y011541D01*
X015083Y011080D02*
X014623Y011080D01*
X014623Y010773D02*
X015083Y011080D01*
X015083Y010773D02*
X014623Y010773D01*
X014623Y010620D02*
X014623Y010313D01*
X015083Y010313D01*
X015083Y010620D01*
X014853Y010466D02*
X014853Y010313D01*
X013048Y009049D02*
X013048Y008895D01*
X012971Y008818D01*
X012741Y008818D01*
X012741Y008665D02*
X012741Y009125D01*
X012971Y009125D01*
X013048Y009049D01*
X012895Y008818D02*
X013048Y008665D01*
X012588Y008742D02*
X012511Y008665D01*
X012358Y008665D01*
X012281Y008742D01*
X012127Y008742D02*
X012051Y008665D01*
X011897Y008665D01*
X011821Y008742D01*
X012127Y009049D01*
X012127Y008742D01*
X011821Y008742D02*
X011821Y009049D01*
X011897Y009125D01*
X012051Y009125D01*
X012127Y009049D01*
X012281Y009049D02*
X012358Y009125D01*
X012511Y009125D01*
X012588Y009049D01*
X012588Y008972D01*
X012511Y008895D01*
X012588Y008818D01*
X012588Y008742D01*
X012511Y008895D02*
X012434Y008895D01*
X011667Y008895D02*
X011360Y008895D01*
X011207Y008742D02*
X011130Y008665D01*
X010977Y008665D01*
X010900Y008742D01*
X010900Y009049D01*
X010977Y009125D01*
X011130Y009125D01*
X011207Y009049D01*
X010746Y009125D02*
X010746Y008665D01*
X010440Y009125D01*
X010440Y008665D01*
X010286Y008665D02*
X009979Y008665D01*
X009979Y009125D01*
X010286Y009125D01*
X010133Y008895D02*
X009979Y008895D01*
X015006Y012615D02*
X015083Y012692D01*
X015083Y012845D01*
X015006Y012922D01*
D18*
X015517Y013896D02*
X015517Y013920D01*
X013679Y014258D02*
X013655Y014258D01*
X011617Y013120D02*
X011617Y013096D01*
X010379Y012908D02*
X010355Y012908D01*
X010279Y011558D02*
X010255Y011558D01*
X010467Y010570D02*
X010467Y010546D01*
X012117Y010546D02*
X012117Y010570D01*
X014455Y009608D02*
X014479Y009608D01*
X012379Y007358D02*
X012355Y007358D01*
X008917Y007470D02*
X008917Y007446D01*
X007567Y007470D02*
X007567Y007446D01*
X008117Y010296D02*
X008117Y010320D01*
X003829Y012608D02*
X003805Y012608D01*
X004055Y014958D02*
X004079Y014958D01*
X002729Y017358D02*
X002705Y017358D01*
X008367Y016420D02*
X008367Y016396D01*
X013855Y019258D02*
X013879Y019258D01*
X015905Y019258D02*
X015929Y019258D01*
X018355Y014708D02*
X018379Y014708D01*
X020505Y017358D02*
X020529Y017358D01*
X018629Y009258D02*
X018605Y009258D01*
X020505Y006358D02*
X020529Y006358D01*
X008629Y004358D02*
X008605Y004358D01*
X006117Y004270D02*
X006117Y004246D01*
X002729Y006358D02*
X002705Y006358D01*
D19*
X006117Y006258D03*
X006117Y005358D03*
X006117Y007158D03*
X006117Y016858D03*
X006117Y017658D03*
X006117Y018458D03*
X017117Y018158D03*
X017117Y017258D03*
X017117Y019058D03*
X017117Y013908D03*
X020167Y013758D03*
X017117Y007258D03*
X017117Y006358D03*
X017117Y005458D03*
D20*
X017817Y009258D03*
X016567Y011108D03*
X015317Y009608D03*
X013267Y007358D03*
X010617Y004408D03*
X016317Y012908D03*
X019167Y014708D03*
X013667Y015708D03*
X012967Y019258D03*
X012267Y019258D03*
D21*
X014257Y019377D02*
X014257Y018739D01*
X014294Y018739D01*
X014611Y018739D02*
X015022Y018739D01*
X015339Y018739D02*
X015377Y018739D01*
X015377Y019377D01*
X015339Y019377D01*
X015022Y019377D02*
X014985Y019377D01*
X014648Y019377D02*
X014611Y019377D01*
X014294Y019377D02*
X014257Y019377D01*
X008077Y005077D02*
X008039Y005077D01*
X008077Y005077D02*
X008077Y004439D01*
X008039Y004439D01*
X007722Y004439D02*
X007685Y004439D01*
X007348Y004439D02*
X007311Y004439D01*
X006994Y004439D02*
X006957Y004439D01*
X006957Y005077D01*
X006994Y005077D01*
X007311Y005077D02*
X007722Y005077D01*
D22*
X008567Y008258D02*
X005867Y008258D01*
X005816Y008260D01*
X005765Y008265D01*
X005715Y008275D01*
X005665Y008288D01*
X005617Y008304D01*
X005570Y008324D01*
X005524Y008348D01*
X005481Y008374D01*
X005439Y008404D01*
X005400Y008437D01*
X005363Y008472D01*
X005329Y008510D01*
X005298Y008551D01*
X005269Y008593D01*
X005244Y008638D01*
X005223Y008684D01*
X005204Y008732D01*
X005190Y008781D01*
X005179Y008831D01*
X005171Y008881D01*
X005167Y008932D01*
X005167Y008984D01*
X005171Y009035D01*
X005179Y009085D01*
X005190Y009135D01*
X005204Y009184D01*
X005223Y009232D01*
X005244Y009278D01*
X005269Y009323D01*
X005298Y009365D01*
X005329Y009406D01*
X005363Y009444D01*
X005400Y009479D01*
X005439Y009512D01*
X005481Y009542D01*
X005524Y009568D01*
X005570Y009592D01*
X005617Y009612D01*
X005665Y009628D01*
X005715Y009641D01*
X005765Y009651D01*
X005816Y009656D01*
X005867Y009658D01*
X008567Y009658D01*
X008618Y009656D01*
X008669Y009651D01*
X008719Y009641D01*
X008769Y009628D01*
X008817Y009612D01*
X008864Y009592D01*
X008910Y009568D01*
X008953Y009542D01*
X008995Y009512D01*
X009034Y009479D01*
X009071Y009444D01*
X009105Y009406D01*
X009136Y009365D01*
X009165Y009323D01*
X009190Y009278D01*
X009211Y009232D01*
X009230Y009184D01*
X009244Y009135D01*
X009255Y009085D01*
X009263Y009035D01*
X009267Y008984D01*
X009267Y008932D01*
X009263Y008881D01*
X009255Y008831D01*
X009244Y008781D01*
X009230Y008732D01*
X009211Y008684D01*
X009190Y008638D01*
X009165Y008593D01*
X009136Y008551D01*
X009105Y008510D01*
X009071Y008472D01*
X009034Y008437D01*
X008995Y008404D01*
X008953Y008374D01*
X008910Y008348D01*
X008864Y008324D01*
X008817Y008304D01*
X008769Y008288D01*
X008719Y008275D01*
X008669Y008265D01*
X008618Y008260D01*
X008567Y008258D01*
M02*
