G75*
G70*
%OFA0B0*%
%FSLAX24Y24*%
%IPPOS*%
%LPD*%
%AMOC8*
5,1,8,0,0,1.08239X$1,22.5*
%
%ADD10C,0.0080*%
%ADD11C,0.0220*%
%ADD12R,0.0180X0.0300*%
%ADD13R,0.0300X0.0180*%
D10*
X005907Y003652D02*
X006061Y003805D01*
X006368Y003805D01*
X006521Y003959D01*
X006368Y004112D01*
X005907Y004112D01*
X005907Y003652D02*
X006061Y003498D01*
X006521Y003498D01*
X006828Y003652D02*
X006981Y003805D01*
X007288Y003805D01*
X007442Y003959D01*
X007288Y004112D01*
X006828Y004112D01*
X006828Y003652D02*
X006981Y003498D01*
X007442Y003498D01*
X007749Y003498D02*
X007749Y003959D01*
X007902Y004112D01*
X008209Y004112D01*
X008209Y003805D02*
X007749Y003805D01*
X007749Y003498D02*
X008209Y003498D01*
X008362Y003652D01*
X008209Y003805D01*
X008669Y004112D02*
X008823Y004112D01*
X009130Y003805D01*
X009130Y003498D02*
X009130Y004112D01*
X009437Y003959D02*
X009437Y003652D01*
X009590Y003498D01*
X009897Y003498D01*
X010050Y003652D01*
X010050Y004266D01*
X009897Y004419D01*
X009590Y004419D01*
X009437Y004266D01*
X009437Y003959D02*
X009744Y003959D01*
X010357Y003959D02*
X010664Y003959D01*
X010511Y004266D02*
X010357Y004419D01*
X010511Y004266D02*
X010511Y003498D01*
X010971Y003498D02*
X010971Y003959D01*
X011125Y004112D01*
X011432Y004112D01*
X011432Y003805D02*
X010971Y003805D01*
X010971Y003498D02*
X011432Y003498D01*
X011585Y003652D01*
X011432Y003805D01*
X011892Y003805D02*
X012506Y003805D01*
X012506Y003652D02*
X012506Y003959D01*
X012352Y004112D01*
X012045Y004112D01*
X011892Y003959D01*
X011892Y003805D01*
X012045Y003498D02*
X012352Y003498D01*
X012506Y003652D01*
X012813Y003498D02*
X013427Y003498D01*
X013427Y004419D01*
D11*
X007979Y013958D02*
X007955Y013958D01*
X005867Y016446D02*
X005867Y016470D01*
X013405Y018958D02*
X013429Y018958D01*
D12*
X008317Y013008D03*
X006717Y012008D03*
X003867Y013258D03*
D13*
X009817Y017108D03*
X010967Y017108D03*
M02*
