G75*
G70*
%OFA0B0*%
%FSLAX24Y24*%
%IPPOS*%
%LPD*%
%AMOC8*
5,1,8,0,0,1.08239X$1,22.5*
%
%ADD10R,0.0552X0.0198*%
%ADD11R,0.0198X0.0552*%
%ADD12R,0.0769X0.0769*%
%ADD13R,0.0226X0.0336*%
%ADD14R,0.0456X0.0226*%
%ADD15R,0.0336X0.0226*%
%ADD16R,0.0226X0.0456*%
%ADD17R,0.0226X0.0376*%
%ADD18R,0.0552X0.1064*%
%ADD19R,0.0552X0.0395*%
%ADD20R,0.0840X0.0580*%
%ADD21R,0.0580X0.0840*%
%ADD22R,0.0434X0.0395*%
%ADD23R,0.0474X0.0513*%
%ADD24R,0.0867X0.0671*%
%ADD25R,0.0513X0.0474*%
%ADD26C,0.1380*%
%ADD27R,0.0880X0.0880*%
%ADD28C,0.0880*%
%ADD29R,0.0635X0.0635*%
%ADD30C,0.0635*%
%ADD31R,0.1261X0.0474*%
%ADD32R,0.0316X0.0946*%
%ADD33R,0.0395X0.0552*%
%ADD34C,0.0256*%
%ADD35R,0.0297X0.0552*%
%ADD36C,0.0640*%
%ADD37R,0.0395X0.0395*%
%ADD38R,0.1064X0.0552*%
%ADD39R,0.0631X0.0710*%
%ADD40R,0.0595X0.0595*%
%ADD41R,0.0634X0.0634*%
%ADD42R,0.0556X0.0556*%
D10*
X004872Y011882D03*
X004872Y012079D03*
X004872Y012276D03*
X004872Y012473D03*
X004872Y012669D03*
X004872Y012866D03*
X004872Y013063D03*
X004872Y013260D03*
X004872Y013457D03*
X004872Y013654D03*
X004872Y013851D03*
X004872Y014047D03*
X004872Y014244D03*
X004872Y014441D03*
X004872Y014638D03*
X004872Y014835D03*
X009361Y014835D03*
X009361Y014638D03*
X009361Y014441D03*
X009361Y014244D03*
X009361Y014047D03*
X009361Y013851D03*
X009361Y013654D03*
X009361Y013457D03*
X009361Y013260D03*
X009361Y013063D03*
X009361Y012866D03*
X009361Y012669D03*
X009361Y012473D03*
X009361Y012276D03*
X009361Y012079D03*
X009361Y011882D03*
D11*
X008593Y011114D03*
X008396Y011114D03*
X008199Y011114D03*
X008002Y011114D03*
X007806Y011114D03*
X007609Y011114D03*
X007412Y011114D03*
X007215Y011114D03*
X007018Y011114D03*
X006821Y011114D03*
X006624Y011114D03*
X006428Y011114D03*
X006231Y011114D03*
X006034Y011114D03*
X005837Y011114D03*
X005640Y011114D03*
X005640Y015603D03*
X005837Y015603D03*
X006034Y015603D03*
X006231Y015603D03*
X006428Y015603D03*
X006624Y015603D03*
X006821Y015603D03*
X007018Y015603D03*
X007215Y015603D03*
X007412Y015603D03*
X007609Y015603D03*
X007806Y015603D03*
X008002Y015603D03*
X008199Y015603D03*
X008396Y015603D03*
X008593Y015603D03*
D12*
X011617Y011858D03*
D13*
X011744Y011169D03*
X011744Y011052D03*
X011489Y011053D03*
X011489Y011169D03*
X011233Y011169D03*
X012000Y011169D03*
D14*
X012366Y011730D03*
X012366Y011986D03*
X010868Y011986D03*
X010868Y011475D03*
D15*
X010928Y011730D03*
X010928Y012242D03*
X012306Y012242D03*
X012306Y011475D03*
D16*
X011233Y012607D03*
D17*
X011489Y012567D03*
X011744Y012567D03*
X012000Y012567D03*
D18*
X011466Y019258D03*
X010167Y019258D03*
X011767Y004458D03*
X013066Y004458D03*
D19*
X016567Y009454D03*
X016567Y010163D03*
X015917Y017454D03*
X015917Y018163D03*
X007317Y006613D03*
X007317Y005904D03*
D20*
X010969Y008258D03*
X012322Y008258D03*
X012311Y009638D03*
X010969Y009640D03*
X010969Y014258D03*
X010969Y015640D03*
X012311Y015638D03*
X012322Y014258D03*
D21*
X014216Y012506D03*
X014216Y011153D03*
X015596Y011164D03*
X015598Y012506D03*
D22*
X018223Y015984D03*
X018223Y016732D03*
X018223Y017484D03*
X018223Y018232D03*
X019050Y017858D03*
X019050Y016358D03*
X018223Y007732D03*
X018223Y006984D03*
X018223Y006232D03*
X018223Y005484D03*
X019050Y005858D03*
X019050Y007358D03*
X005010Y006984D03*
X005010Y007732D03*
X004183Y007358D03*
X005010Y006232D03*
X005010Y005484D03*
X004183Y005858D03*
X005010Y015984D03*
X005010Y016732D03*
X005010Y017484D03*
X005010Y018232D03*
X004183Y017858D03*
X004183Y016358D03*
D23*
X004067Y015293D03*
X004067Y014624D03*
X003817Y012943D03*
X003817Y012274D03*
X002717Y017024D03*
X002717Y017693D03*
X010267Y011893D03*
X010267Y011224D03*
X010367Y012574D03*
X010367Y013243D03*
X013667Y013924D03*
X013667Y014593D03*
X013667Y015374D03*
X013667Y016043D03*
X013867Y018924D03*
X013867Y019593D03*
X012967Y019593D03*
X012967Y018924D03*
X012267Y018924D03*
X012267Y019593D03*
X015917Y019593D03*
X015917Y018924D03*
X018367Y015043D03*
X018367Y014374D03*
X019167Y014374D03*
X019167Y015043D03*
X020517Y017024D03*
X020517Y017693D03*
X016317Y013243D03*
X016317Y012574D03*
X016567Y011443D03*
X016567Y010774D03*
X015317Y009943D03*
X015317Y009274D03*
X014467Y009274D03*
X014467Y009943D03*
X013267Y007693D03*
X013267Y007024D03*
X012367Y007024D03*
X012367Y007693D03*
X010617Y004743D03*
X010617Y004074D03*
X008617Y004024D03*
X008617Y004693D03*
X002717Y006024D03*
X002717Y006693D03*
X017817Y008924D03*
X017817Y009593D03*
X018617Y009593D03*
X018617Y008924D03*
X020517Y006693D03*
X020517Y006024D03*
D24*
X020717Y005858D03*
X020717Y006858D03*
X020717Y008358D03*
X020717Y009358D03*
X020717Y016858D03*
X020717Y017858D03*
X002517Y017858D03*
X002517Y016858D03*
X002517Y006858D03*
X002517Y005858D03*
D25*
X005782Y006258D03*
X006451Y006258D03*
X006451Y005358D03*
X005782Y005358D03*
X005782Y004258D03*
X006451Y004258D03*
X006451Y007158D03*
X005782Y007158D03*
X007232Y007458D03*
X007901Y007458D03*
X008582Y007458D03*
X009251Y007458D03*
X008451Y010308D03*
X007782Y010308D03*
X010132Y010558D03*
X010801Y010558D03*
X011782Y010558D03*
X012451Y010558D03*
X011951Y013108D03*
X011282Y013108D03*
X008701Y016408D03*
X008032Y016408D03*
X006451Y016858D03*
X005782Y016858D03*
X005782Y017658D03*
X006451Y017658D03*
X006451Y018458D03*
X005782Y018458D03*
X015182Y013908D03*
X015851Y013908D03*
X016782Y013908D03*
X017451Y013908D03*
X019832Y013758D03*
X020501Y013758D03*
X017451Y017258D03*
X016782Y017258D03*
X016782Y018158D03*
X017451Y018158D03*
X017451Y019058D03*
X016782Y019058D03*
X016782Y007258D03*
X017451Y007258D03*
X017451Y006358D03*
X016782Y006358D03*
X016782Y005458D03*
X017451Y005458D03*
D26*
X003617Y003858D03*
X003617Y019858D03*
X019617Y019858D03*
X019617Y003858D03*
D27*
X016117Y003358D03*
X007117Y020358D03*
D28*
X008494Y020358D03*
X014739Y003358D03*
D29*
X002717Y011458D03*
D30*
X002717Y010671D03*
X003504Y010671D03*
X003504Y011458D03*
X003504Y009884D03*
X003504Y009096D03*
X003504Y008309D03*
X002717Y008309D03*
X002717Y009096D03*
X002717Y009884D03*
D31*
X002648Y012558D03*
X002648Y013558D03*
X002648Y014558D03*
X002648Y015558D03*
D32*
X017317Y012732D03*
X017817Y012732D03*
X018317Y012732D03*
X018817Y012732D03*
X019317Y012732D03*
X019817Y012732D03*
X020317Y012732D03*
X020317Y010685D03*
X019817Y010685D03*
X019317Y010685D03*
X018817Y010685D03*
X018317Y010685D03*
X017817Y010685D03*
X017317Y010685D03*
D33*
X019812Y014558D03*
X020521Y014558D03*
X017471Y014708D03*
X016762Y014708D03*
D34*
X007401Y020579D02*
X007401Y021937D01*
X007401Y020579D02*
X006633Y020579D01*
X006633Y021937D01*
X007401Y021937D01*
X007401Y020834D02*
X006633Y020834D01*
X006633Y021089D02*
X007401Y021089D01*
X007401Y021344D02*
X006633Y021344D01*
X006633Y021599D02*
X007401Y021599D01*
X007401Y021854D02*
X006633Y021854D01*
X015833Y003137D02*
X015833Y001779D01*
X015833Y003137D02*
X016601Y003137D01*
X016601Y001779D01*
X015833Y001779D01*
X015833Y002034D02*
X016601Y002034D01*
X016601Y002289D02*
X015833Y002289D01*
X015833Y002544D02*
X016601Y002544D01*
X016601Y002799D02*
X015833Y002799D01*
X015833Y003054D02*
X016601Y003054D01*
D35*
X007891Y004247D03*
X007517Y004247D03*
X007143Y004247D03*
X007143Y005270D03*
X007891Y005270D03*
X014443Y018547D03*
X015191Y018547D03*
X015191Y019570D03*
X014817Y019570D03*
X014443Y019570D03*
D36*
X008217Y008958D03*
X006217Y008958D03*
D37*
X009817Y004704D03*
X009817Y004113D03*
X009817Y016813D03*
X009817Y017404D03*
X010967Y017404D03*
X010967Y016813D03*
D38*
X015367Y006158D03*
X015367Y004859D03*
D39*
X007068Y019258D03*
X005965Y019258D03*
D40*
X018617Y011708D03*
D41*
X010967Y005908D03*
D42*
X008267Y017158D03*
M02*
