G75*
G70*
%OFA0B0*%
%FSLAX24Y24*%
%IPPOS*%
%LPD*%
%AMOC8*
5,1,8,0,0,1.08239X$1,22.5*
%
%ADD10C,0.0100*%
%ADD11R,0.0472X0.0118*%
%ADD12R,0.0118X0.0472*%
%ADD13R,0.0689X0.0689*%
%ADD14R,0.0146X0.0256*%
%ADD15R,0.0376X0.0146*%
%ADD16R,0.0256X0.0146*%
%ADD17R,0.0146X0.0376*%
%ADD18R,0.0146X0.0296*%
%ADD19R,0.0472X0.0984*%
%ADD20R,0.0472X0.0315*%
%ADD21R,0.0760X0.0500*%
%ADD22R,0.0500X0.0760*%
%ADD23R,0.0354X0.0315*%
%ADD24R,0.0394X0.0433*%
%ADD25R,0.0787X0.0591*%
%ADD26R,0.0433X0.0394*%
%ADD27C,0.0000*%
%ADD28R,0.0800X0.0800*%
%ADD29C,0.0800*%
%ADD30R,0.0555X0.0555*%
%ADD31C,0.0555*%
%ADD32R,0.1181X0.0394*%
%ADD33R,0.0236X0.0866*%
%ADD34R,0.0315X0.0472*%
%ADD35C,0.0236*%
%ADD36R,0.0217X0.0472*%
%ADD37C,0.0560*%
%ADD38R,0.0315X0.0315*%
%ADD39R,0.0984X0.0472*%
%ADD40R,0.0551X0.0630*%
%ADD41C,0.0500*%
%ADD42C,0.0160*%
%ADD43C,0.0320*%
%ADD44C,0.0240*%
%ADD45C,0.0120*%
%ADD46C,0.0436*%
%ADD47R,0.0515X0.0515*%
%ADD48R,0.0554X0.0554*%
%ADD49R,0.0476X0.0476*%
%ADD50R,0.0436X0.0436*%
D10*
X002479Y002721D02*
X002390Y002844D01*
X002342Y002989D01*
X002336Y003065D01*
X002336Y003130D01*
X002336Y003157D01*
X002336Y005393D01*
X002697Y005393D01*
X002697Y005275D01*
X002760Y005121D01*
X002879Y005002D01*
X003033Y004938D01*
X003117Y004938D01*
X003293Y004929D01*
X003638Y004850D01*
X003745Y004798D01*
X003704Y004798D01*
X003616Y004798D01*
X003610Y004798D01*
X003530Y004798D01*
X003451Y004798D01*
X003139Y004685D01*
X002885Y004472D01*
X002720Y004185D01*
X002662Y003858D01*
X002720Y003532D01*
X002885Y003245D01*
X003139Y003032D01*
X003139Y003032D01*
X003451Y002918D01*
X003617Y002918D01*
X003782Y002918D01*
X003782Y002918D01*
X004094Y003032D01*
X004348Y003245D01*
X004513Y003532D01*
X004571Y003858D01*
X004571Y003858D01*
X004544Y004014D01*
X004608Y003880D01*
X004687Y003535D01*
X004697Y003359D01*
X004697Y003275D01*
X004760Y003121D01*
X004879Y003002D01*
X005033Y002938D01*
X006433Y002938D01*
X013033Y002938D01*
X013200Y002938D01*
X013354Y003002D01*
X013473Y003121D01*
X013536Y003275D01*
X013536Y004438D01*
X015683Y004438D01*
X015697Y004438D01*
X015697Y003928D01*
X015646Y003928D01*
X015547Y003829D01*
X015547Y002888D01*
X015574Y002860D01*
X015574Y002578D01*
X002824Y002578D01*
X002747Y002584D01*
X002602Y002631D01*
X002479Y002721D01*
X002437Y002780D02*
X002437Y005393D01*
X002336Y005238D02*
X002712Y005238D01*
X002757Y005130D02*
X002757Y004249D01*
X002774Y004278D02*
X002336Y004278D01*
X002336Y004598D02*
X003036Y004598D01*
X003077Y004632D02*
X003077Y004938D01*
X003139Y004685D02*
X003139Y004685D01*
X003397Y004779D02*
X003397Y004905D01*
X003338Y004918D02*
X002336Y004918D01*
X002885Y004472D02*
X002885Y004472D01*
X002885Y004472D01*
X002720Y004185D02*
X002720Y004185D01*
X002680Y003958D02*
X002336Y003958D01*
X002336Y003638D02*
X002701Y003638D01*
X002720Y003532D02*
X002720Y003532D01*
X002757Y003468D02*
X002757Y002584D01*
X002824Y002358D02*
X020409Y002358D01*
X020409Y002578D02*
X020336Y002578D01*
X020318Y002578D01*
X016859Y002578D01*
X016859Y002938D01*
X018033Y002938D01*
X018200Y002938D01*
X018354Y003002D01*
X018473Y003121D01*
X018536Y003275D01*
X018536Y003358D01*
X018546Y003535D01*
X018625Y003880D01*
X018689Y004014D01*
X018662Y003858D01*
X018720Y003532D01*
X018885Y003245D01*
X019139Y003032D01*
X019139Y003032D01*
X019451Y002918D01*
X019616Y002918D01*
X019704Y002918D01*
X019782Y002918D01*
X019782Y002918D01*
X020094Y003032D01*
X020348Y003245D01*
X020513Y003532D01*
X020571Y003858D01*
X020571Y003858D01*
X020513Y004185D01*
X020348Y004472D01*
X020094Y004685D01*
X020094Y004685D01*
X019782Y004798D01*
X019704Y004798D01*
X019617Y004798D01*
X019592Y004798D01*
X019530Y004798D01*
X019488Y004798D01*
X019595Y004850D01*
X019940Y004929D01*
X020116Y004938D01*
X020200Y004938D01*
X020354Y005002D01*
X020473Y005121D01*
X020536Y005275D01*
X020536Y005393D01*
X020897Y005393D01*
X020897Y003065D01*
X020891Y002989D01*
X020843Y002844D01*
X020754Y002721D01*
X020631Y002631D01*
X020486Y002584D01*
X020409Y002578D01*
X020357Y002578D02*
X020357Y003260D01*
X020348Y003245D02*
X020348Y003245D01*
X020348Y003245D01*
X020390Y003318D02*
X020897Y003318D01*
X020891Y002998D02*
X020002Y002998D01*
X020037Y003011D02*
X020037Y002578D01*
X019717Y002578D02*
X019717Y002918D01*
X020094Y003032D02*
X020094Y003032D01*
X020409Y002359D02*
X020459Y002361D01*
X020510Y002366D01*
X020559Y002375D01*
X020608Y002388D01*
X020656Y002404D01*
X020703Y002423D01*
X020748Y002445D01*
X020791Y002471D01*
X020833Y002500D01*
X020872Y002532D01*
X020909Y002566D01*
X020943Y002603D01*
X020975Y002642D01*
X021004Y002684D01*
X021030Y002727D01*
X021052Y002772D01*
X021071Y002819D01*
X021087Y002867D01*
X021100Y002916D01*
X021109Y002965D01*
X021114Y003016D01*
X021116Y003066D01*
X021117Y003066D02*
X021117Y020651D01*
X020897Y020651D02*
X020897Y018324D01*
X020536Y018324D01*
X020536Y018442D01*
X020473Y018596D01*
X020354Y018714D01*
X020200Y018778D01*
X020116Y018778D01*
X019940Y018788D01*
X019595Y018867D01*
X019488Y018918D01*
X019530Y018918D01*
X019617Y018918D01*
X019782Y018918D01*
X019782Y018918D01*
X020094Y019032D01*
X020348Y019245D01*
X020513Y019532D01*
X020571Y019858D01*
X020571Y019858D01*
X020513Y020185D01*
X020348Y020472D01*
X020094Y020685D01*
X019782Y020798D01*
X019704Y020798D01*
X019617Y020798D01*
X019451Y020798D01*
X019139Y020685D01*
X018885Y020472D01*
X018720Y020185D01*
X018662Y019858D01*
X018689Y019703D01*
X018625Y019837D01*
X018546Y020182D01*
X018536Y020358D01*
X018536Y020442D01*
X018473Y020596D01*
X018354Y020714D01*
X018200Y020778D01*
X018033Y020778D01*
X015733Y020778D01*
X014333Y020778D01*
X012883Y020778D01*
X010033Y020778D01*
X009879Y020714D01*
X009760Y020596D01*
X009697Y020442D01*
X009697Y020275D01*
X009697Y019278D01*
X007536Y019278D01*
X007536Y019292D01*
X007536Y019788D01*
X007587Y019788D01*
X007686Y019888D01*
X007686Y020829D01*
X007659Y020856D01*
X007659Y021138D01*
X020409Y021138D01*
X020486Y021132D01*
X020631Y021085D01*
X020754Y020996D01*
X020843Y020872D01*
X020891Y020728D01*
X020897Y020651D01*
X020897Y020598D02*
X020197Y020598D01*
X020037Y020706D02*
X020037Y021138D01*
X019717Y021138D02*
X019717Y020798D01*
X019451Y020798D02*
X019451Y020798D01*
X019397Y020779D02*
X019397Y021138D01*
X019077Y021138D02*
X019077Y020632D01*
X019036Y020598D02*
X018470Y020598D01*
X018437Y020632D02*
X018437Y021138D01*
X018757Y021138D02*
X018757Y020249D01*
X018774Y020278D02*
X018541Y020278D01*
X018720Y020185D02*
X018720Y020185D01*
X018680Y019958D02*
X018597Y019958D01*
X018662Y019858D02*
X018662Y019858D01*
X018885Y020472D02*
X018885Y020472D01*
X018885Y020472D01*
X019139Y020685D02*
X019139Y020685D01*
X018117Y020778D02*
X018117Y021138D01*
X017797Y021138D02*
X017797Y020778D01*
X017477Y020778D02*
X017477Y021138D01*
X017157Y021138D02*
X017157Y020778D01*
X016837Y020778D02*
X016837Y021138D01*
X016517Y021138D02*
X016517Y020778D01*
X016197Y020778D02*
X016197Y021138D01*
X015877Y021138D02*
X015877Y020778D01*
X015557Y020778D02*
X015557Y021138D01*
X015237Y021138D02*
X015237Y020778D01*
X014917Y020778D02*
X014917Y021138D01*
X014597Y021138D02*
X014597Y020778D01*
X014277Y020778D02*
X014277Y021138D01*
X013957Y021138D02*
X013957Y020778D01*
X013637Y020778D02*
X013637Y021138D01*
X013317Y021138D02*
X013317Y020778D01*
X012997Y020778D02*
X012997Y021138D01*
X012677Y021138D02*
X012677Y020778D01*
X012357Y020778D02*
X012357Y021138D01*
X012037Y021138D02*
X012037Y020778D01*
X011717Y020778D02*
X011717Y021138D01*
X011397Y021138D02*
X011397Y020778D01*
X011077Y020778D02*
X011077Y021138D01*
X010757Y021138D02*
X010757Y020778D01*
X010437Y020778D02*
X010437Y021138D01*
X010117Y021138D02*
X010117Y020778D01*
X009797Y020632D02*
X009797Y021138D01*
X009477Y021138D02*
X009477Y019278D01*
X009697Y019318D02*
X007536Y019318D01*
X007557Y019278D02*
X007557Y019788D01*
X007536Y019638D02*
X009697Y019638D01*
X009697Y019958D02*
X008872Y019958D01*
X008853Y019939D02*
X008914Y020000D01*
X008965Y020070D01*
X009004Y020147D01*
X009031Y020230D01*
X009043Y020308D01*
X008545Y020308D01*
X008545Y020408D01*
X009043Y020408D01*
X009031Y020487D01*
X009004Y020570D01*
X008965Y020647D01*
X008914Y020717D01*
X008853Y020778D01*
X008783Y020829D01*
X008706Y020868D01*
X008623Y020895D01*
X008544Y020907D01*
X008544Y020409D01*
X008444Y020409D01*
X008444Y020907D01*
X008366Y020895D01*
X008283Y020868D01*
X008206Y020829D01*
X008136Y020778D01*
X008075Y020717D01*
X008024Y020647D01*
X007985Y020570D01*
X007958Y020487D01*
X007946Y020408D01*
X008444Y020408D01*
X008444Y020308D01*
X008544Y020308D01*
X008544Y019809D01*
X008623Y019822D01*
X008706Y019849D01*
X008783Y019888D01*
X008853Y019939D01*
X008837Y019927D02*
X008837Y019278D01*
X009157Y019278D02*
X009157Y021138D01*
X008837Y021138D02*
X008837Y020790D01*
X008989Y020598D02*
X009763Y020598D01*
X009697Y020278D02*
X009039Y020278D01*
X008837Y020308D02*
X008837Y020408D01*
X008544Y020278D02*
X008444Y020278D01*
X008444Y020308D02*
X008444Y019809D01*
X008366Y019822D01*
X008283Y019849D01*
X008206Y019888D01*
X008136Y019939D01*
X008075Y020000D01*
X008024Y020070D01*
X007985Y020147D01*
X007958Y020230D01*
X007946Y020308D01*
X008444Y020308D01*
X008517Y020308D02*
X008517Y019278D01*
X008197Y019278D02*
X008197Y019895D01*
X008117Y019958D02*
X007686Y019958D01*
X007686Y020278D02*
X007950Y020278D01*
X008197Y020308D02*
X008197Y020408D01*
X008000Y020598D02*
X007686Y020598D01*
X007659Y020918D02*
X020810Y020918D01*
X020677Y021052D02*
X020677Y018324D01*
X020536Y018358D02*
X020897Y018358D01*
X020897Y018678D02*
X020390Y018678D01*
X020357Y018712D02*
X020357Y019260D01*
X020348Y019245D02*
X020348Y019245D01*
X020348Y019245D01*
X020390Y019318D02*
X020897Y019318D01*
X020897Y018998D02*
X020002Y018998D01*
X020037Y019011D02*
X020037Y018783D01*
X020094Y019032D02*
X020094Y019032D01*
X019717Y018918D02*
X019717Y018839D01*
X019406Y018038D02*
X019397Y018038D01*
X019397Y018041D02*
X019697Y017972D01*
X019697Y017942D01*
X019697Y017775D01*
X019760Y017621D01*
X019879Y017502D01*
X020033Y017438D01*
X020150Y017438D01*
X020150Y017406D01*
X020197Y017358D01*
X020150Y017311D01*
X020150Y016758D01*
X020080Y016688D01*
X019380Y016688D01*
X019380Y017613D01*
X019397Y017631D01*
X019397Y018041D01*
X019045Y018188D02*
X018984Y018188D01*
X018978Y018186D01*
X018802Y018186D01*
X018702Y018086D01*
X018702Y017631D01*
X018720Y017613D01*
X018720Y016603D01*
X018702Y016586D01*
X018702Y016131D01*
X018802Y016031D01*
X018978Y016031D01*
X018984Y016028D01*
X019115Y016028D01*
X020151Y016028D01*
X020282Y016028D01*
X020403Y016079D01*
X020718Y016393D01*
X020897Y016393D01*
X020897Y009824D01*
X020350Y009824D01*
X020286Y009887D01*
X020144Y009946D01*
X019989Y009946D01*
X019847Y009887D01*
X019738Y009778D01*
X019678Y009636D01*
X019678Y009481D01*
X019738Y009339D01*
X019847Y009229D01*
X019989Y009170D01*
X020144Y009170D01*
X020153Y009174D01*
X020153Y008993D01*
X020252Y008893D01*
X020897Y008893D01*
X020897Y008824D01*
X020300Y008824D01*
X020286Y008837D01*
X020144Y008896D01*
X019989Y008896D01*
X019847Y008837D01*
X019738Y008728D01*
X019678Y008586D01*
X019678Y008431D01*
X019738Y008289D01*
X019847Y008179D01*
X019989Y008120D01*
X020144Y008120D01*
X020153Y008124D01*
X020153Y007993D01*
X020252Y007893D01*
X020897Y007893D01*
X020897Y007324D01*
X020414Y007324D01*
X020236Y007533D01*
X020231Y007545D01*
X020194Y007582D01*
X020160Y007622D01*
X020148Y007628D01*
X020138Y007638D01*
X020090Y007658D01*
X020043Y007682D01*
X020030Y007683D01*
X020017Y007688D01*
X019964Y007688D01*
X019912Y007693D01*
X019899Y007688D01*
X019115Y007688D01*
X018984Y007688D01*
X018978Y007686D01*
X018802Y007686D01*
X018702Y007586D01*
X018702Y007131D01*
X018720Y007113D01*
X018720Y006103D01*
X018702Y006086D01*
X018702Y005631D01*
X018802Y005531D01*
X018978Y005531D01*
X018984Y005528D01*
X019045Y005528D01*
X018821Y005420D01*
X018395Y005080D01*
X018395Y005080D01*
X018055Y004654D01*
X017818Y004163D01*
X017818Y004163D01*
X017730Y003778D01*
X016686Y003778D01*
X016686Y003829D01*
X016587Y003928D01*
X016536Y003928D01*
X016536Y004942D01*
X016473Y005096D01*
X016354Y005214D01*
X016200Y005278D01*
X016033Y005278D01*
X015683Y005278D01*
X013033Y005278D01*
X012879Y005214D01*
X012785Y005121D01*
X012759Y005121D01*
X012660Y005021D01*
X012660Y003896D01*
X012697Y003859D01*
X012697Y003778D01*
X010975Y003778D01*
X010983Y003787D01*
X010983Y004361D01*
X010936Y004408D01*
X010983Y004456D01*
X010983Y005030D01*
X010884Y005130D01*
X010836Y005130D01*
X010836Y005461D01*
X011314Y005461D01*
X011414Y005561D01*
X011414Y006256D01*
X011314Y006356D01*
X011256Y006356D01*
X011256Y007838D01*
X011297Y007838D01*
X011297Y006900D01*
X011297Y006717D01*
X011747Y006267D01*
X011875Y006138D01*
X013834Y006138D01*
X013905Y006138D01*
X013925Y006138D01*
X013940Y006138D01*
X013989Y006138D01*
X014016Y006138D01*
X014036Y006158D01*
X014059Y006168D01*
X014087Y006168D01*
X014110Y006190D01*
X014151Y006232D01*
X014151Y006232D01*
X014215Y006296D01*
X015308Y007388D01*
X016299Y007388D01*
X016341Y007388D01*
X016365Y007364D01*
X016395Y007334D01*
X016395Y006991D01*
X016495Y006892D01*
X016532Y006892D01*
X016532Y006725D01*
X016495Y006725D01*
X016395Y006626D01*
X016395Y006091D01*
X016495Y005992D01*
X017069Y005992D01*
X017117Y006039D01*
X017164Y005992D01*
X017231Y005992D01*
X017231Y005825D01*
X017164Y005825D01*
X017102Y005763D01*
X017091Y005775D01*
X017056Y005795D01*
X017018Y005805D01*
X016830Y005805D01*
X016830Y005507D01*
X016733Y005507D01*
X016733Y005410D01*
X016415Y005410D01*
X016415Y005242D01*
X016426Y005204D01*
X016445Y005169D01*
X016473Y005142D01*
X016507Y005122D01*
X016546Y005112D01*
X016733Y005112D01*
X016733Y005410D01*
X016830Y005410D01*
X016830Y005112D01*
X017018Y005112D01*
X017056Y005122D01*
X017091Y005142D01*
X017102Y005153D01*
X017164Y005092D01*
X017738Y005092D01*
X017838Y005191D01*
X017838Y005726D01*
X017738Y005825D01*
X017671Y005825D01*
X017671Y005982D01*
X017898Y005982D01*
X017975Y005905D01*
X018470Y005905D01*
X018570Y006005D01*
X018570Y006460D01*
X018470Y006560D01*
X017975Y006560D01*
X017898Y006482D01*
X017838Y006482D01*
X017838Y006626D01*
X017738Y006725D01*
X017681Y006725D01*
X017681Y006892D01*
X017738Y006892D01*
X017838Y006991D01*
X017838Y007426D01*
X017896Y007484D01*
X017975Y007405D01*
X018470Y007405D01*
X018570Y007505D01*
X018570Y007960D01*
X018470Y008060D01*
X017975Y008060D01*
X017907Y007992D01*
X017874Y008005D01*
X017908Y008038D01*
X018036Y008167D01*
X018036Y008537D01*
X018084Y008537D01*
X018183Y008637D01*
X018183Y008704D01*
X018250Y008704D01*
X018250Y008637D01*
X018349Y008537D01*
X018884Y008537D01*
X018983Y008637D01*
X018983Y009211D01*
X018921Y009273D01*
X018933Y009284D01*
X018953Y009319D01*
X018963Y009357D01*
X018963Y009545D01*
X018665Y009545D01*
X018665Y009641D01*
X018963Y009641D01*
X018963Y009829D01*
X018953Y009867D01*
X018933Y009902D01*
X018905Y009930D01*
X018871Y009949D01*
X018833Y009960D01*
X018665Y009960D01*
X018665Y009642D01*
X018568Y009642D01*
X018568Y009960D01*
X018400Y009960D01*
X018362Y009949D01*
X018328Y009930D01*
X018300Y009902D01*
X018280Y009867D01*
X018270Y009829D01*
X018270Y009641D01*
X018568Y009641D01*
X018568Y009545D01*
X018270Y009545D01*
X018270Y009357D01*
X018280Y009319D01*
X018300Y009284D01*
X018312Y009273D01*
X018250Y009211D01*
X018250Y009144D01*
X018183Y009144D01*
X018183Y009211D01*
X018136Y009258D01*
X018183Y009306D01*
X018183Y009880D01*
X018084Y009980D01*
X018036Y009980D01*
X018036Y010113D01*
X018066Y010143D01*
X018128Y010082D01*
X018505Y010082D01*
X018581Y010157D01*
X018606Y010132D01*
X018641Y010112D01*
X018679Y010102D01*
X018807Y010102D01*
X018807Y010675D01*
X018826Y010675D01*
X018826Y010102D01*
X018954Y010102D01*
X018993Y010112D01*
X019027Y010132D01*
X019052Y010157D01*
X019128Y010082D01*
X019505Y010082D01*
X019566Y010143D01*
X019628Y010082D01*
X020005Y010082D01*
X020067Y010143D01*
X020128Y010082D01*
X020505Y010082D01*
X020605Y010181D01*
X020605Y011188D01*
X020505Y011288D01*
X020128Y011288D01*
X020067Y011226D01*
X020005Y011288D01*
X019816Y011288D01*
X019855Y011381D01*
X019855Y011505D01*
X019939Y011470D01*
X020094Y011470D01*
X020236Y011529D01*
X020346Y011639D01*
X020405Y011781D01*
X020405Y011935D01*
X020486Y012017D01*
X020486Y012129D01*
X020505Y012129D01*
X020605Y012229D01*
X020605Y013185D01*
X020786Y013367D01*
X020786Y013392D01*
X020788Y013392D01*
X020888Y013491D01*
X020888Y014026D01*
X020788Y014125D01*
X020730Y014125D01*
X020731Y014152D01*
X020749Y014152D01*
X020848Y014252D01*
X020848Y014865D01*
X020749Y014965D01*
X020293Y014965D01*
X020193Y014865D01*
X020193Y014252D01*
X020291Y014154D01*
X020290Y014125D01*
X020214Y014125D01*
X020166Y014078D01*
X020119Y014125D01*
X020043Y014125D01*
X020042Y014154D01*
X020140Y014252D01*
X020140Y014865D01*
X020040Y014965D01*
X019584Y014965D01*
X019533Y014914D01*
X019533Y015330D01*
X019434Y015430D01*
X018899Y015430D01*
X018800Y015330D01*
X018800Y015263D01*
X018733Y015263D01*
X018733Y015330D01*
X018634Y015430D01*
X018291Y015430D01*
X018186Y015534D01*
X018186Y015567D01*
X018186Y015677D01*
X018194Y015677D01*
X018194Y015955D01*
X018252Y015955D01*
X018252Y015677D01*
X018420Y015677D01*
X018458Y015687D01*
X018492Y015707D01*
X018520Y015735D01*
X018540Y015769D01*
X018550Y015807D01*
X018550Y015956D01*
X018252Y015956D01*
X018252Y016013D01*
X018550Y016013D01*
X018550Y016162D01*
X018540Y016200D01*
X018520Y016234D01*
X018492Y016262D01*
X018458Y016282D01*
X018420Y016292D01*
X018252Y016292D01*
X018252Y016013D01*
X018194Y016013D01*
X018194Y016292D01*
X018026Y016292D01*
X017988Y016282D01*
X017954Y016262D01*
X017926Y016234D01*
X017906Y016200D01*
X017896Y016162D01*
X017896Y016040D01*
X017673Y016263D01*
X017491Y016263D01*
X014033Y016263D01*
X014033Y016330D01*
X013934Y016430D01*
X013399Y016430D01*
X013300Y016330D01*
X013300Y016278D01*
X012975Y016278D01*
X012847Y016150D01*
X012755Y016058D01*
X011861Y016058D01*
X011761Y015958D01*
X011761Y015318D01*
X011861Y015218D01*
X012762Y015218D01*
X012861Y015318D01*
X012861Y015542D01*
X013158Y015838D01*
X013300Y015838D01*
X013300Y015756D01*
X013347Y015708D01*
X013300Y015661D01*
X013300Y015087D01*
X013399Y014987D01*
X013447Y014987D01*
X013447Y014980D01*
X013399Y014980D01*
X013300Y014880D01*
X013300Y014306D01*
X013347Y014258D01*
X013300Y014211D01*
X013300Y014128D01*
X012908Y014128D01*
X012872Y014164D01*
X012872Y014578D01*
X012772Y014678D01*
X011871Y014678D01*
X011836Y014643D01*
X011836Y014750D01*
X011346Y015240D01*
X011369Y015240D01*
X011407Y015250D01*
X011441Y015269D01*
X011469Y015297D01*
X011489Y015332D01*
X011499Y015370D01*
X011499Y015590D01*
X011019Y015590D01*
X011019Y015689D01*
X011499Y015689D01*
X011499Y015909D01*
X011489Y015947D01*
X011469Y015982D01*
X011441Y016010D01*
X011407Y016029D01*
X011369Y016039D01*
X011246Y016039D01*
X011296Y016089D01*
X011355Y016231D01*
X011355Y016386D01*
X011296Y016528D01*
X011266Y016558D01*
X011294Y016585D01*
X011294Y017041D01*
X011227Y017108D01*
X011294Y017176D01*
X011294Y017632D01*
X011194Y017731D01*
X010950Y017731D01*
X010893Y017788D01*
X012225Y017788D01*
X012408Y017788D01*
X012858Y018238D01*
X013075Y018238D01*
X014247Y017067D01*
X014375Y016938D01*
X015075Y016938D01*
X015147Y016867D01*
X015275Y016738D01*
X016573Y016738D01*
X016702Y016867D01*
X016726Y016892D01*
X017069Y016892D01*
X017116Y016939D01*
X017164Y016892D01*
X017430Y016892D01*
X017705Y016617D01*
X017775Y016546D01*
X017867Y016508D01*
X017876Y016508D01*
X017876Y016505D01*
X017975Y016405D01*
X018470Y016405D01*
X018570Y016505D01*
X018570Y016960D01*
X018470Y017060D01*
X017975Y017060D01*
X017972Y017056D01*
X017838Y017191D01*
X017838Y017526D01*
X017738Y017625D01*
X017701Y017625D01*
X017701Y017792D01*
X017738Y017792D01*
X017838Y017891D01*
X017838Y017982D01*
X017898Y017982D01*
X017975Y017905D01*
X018470Y017905D01*
X018570Y018005D01*
X018570Y018460D01*
X018470Y018560D01*
X017975Y018560D01*
X017898Y018482D01*
X017781Y018482D01*
X017738Y018525D01*
X017701Y018525D01*
X017701Y018692D01*
X017738Y018692D01*
X017838Y018791D01*
X017838Y019326D01*
X017738Y019425D01*
X017164Y019425D01*
X017102Y019363D01*
X017091Y019375D01*
X017056Y019395D01*
X017018Y019405D01*
X016830Y019405D01*
X016830Y019107D01*
X016733Y019107D01*
X016733Y019010D01*
X016415Y019010D01*
X016415Y018842D01*
X016426Y018804D01*
X016445Y018769D01*
X016473Y018742D01*
X016507Y018722D01*
X016546Y018712D01*
X016733Y018712D01*
X016733Y019010D01*
X016830Y019010D01*
X016830Y018712D01*
X017018Y018712D01*
X017056Y018722D01*
X017091Y018742D01*
X017102Y018753D01*
X017164Y018692D01*
X017201Y018692D01*
X017201Y018525D01*
X017164Y018525D01*
X017117Y018478D01*
X017069Y018525D01*
X016495Y018525D01*
X016395Y018426D01*
X016395Y017891D01*
X016495Y017792D01*
X016532Y017792D01*
X016532Y017625D01*
X016495Y017625D01*
X016395Y017526D01*
X016395Y017183D01*
X016391Y017178D01*
X016275Y017178D01*
X016323Y017226D01*
X016323Y017682D01*
X016223Y017782D01*
X015610Y017782D01*
X015577Y017748D01*
X015537Y017748D01*
X015512Y017773D01*
X015481Y017805D01*
X015481Y018604D01*
X015469Y018633D01*
X015469Y018853D01*
X015369Y018953D01*
X015012Y018953D01*
X014912Y018853D01*
X014912Y018633D01*
X014901Y018604D01*
X014901Y017908D01*
X014815Y017908D01*
X014736Y017987D01*
X014594Y018046D01*
X014439Y018046D01*
X014297Y017987D01*
X014188Y017878D01*
X014150Y017786D01*
X013386Y018549D01*
X013386Y018550D01*
X013316Y018620D01*
X013333Y018637D01*
X013333Y019211D01*
X013286Y019258D01*
X013333Y019306D01*
X013333Y019370D01*
X013344Y019370D01*
X013486Y019429D01*
X013500Y019443D01*
X013500Y019306D01*
X013562Y019244D01*
X013550Y019232D01*
X013530Y019198D01*
X013520Y019160D01*
X013520Y018972D01*
X013818Y018972D01*
X013818Y018875D01*
X013915Y018875D01*
X013915Y018557D01*
X014083Y018557D01*
X014121Y018567D01*
X014155Y018587D01*
X014164Y018596D01*
X014164Y018240D01*
X014264Y018140D01*
X014621Y018140D01*
X014721Y018240D01*
X014721Y018853D01*
X014662Y018911D01*
X014662Y018926D01*
X014662Y019108D01*
X014607Y019164D01*
X014621Y019164D01*
X014651Y019194D01*
X014689Y019184D01*
X014812Y019184D01*
X014812Y019566D01*
X014821Y019566D01*
X014821Y019184D01*
X014945Y019184D01*
X014982Y019194D01*
X015012Y019164D01*
X015369Y019164D01*
X015469Y019264D01*
X015469Y019303D01*
X015553Y019303D01*
X015612Y019244D01*
X015600Y019232D01*
X015580Y019198D01*
X015570Y019160D01*
X015570Y018972D01*
X015868Y018972D01*
X015868Y018875D01*
X015965Y018875D01*
X015965Y018557D01*
X016133Y018557D01*
X016171Y018567D01*
X016205Y018587D01*
X016233Y018615D01*
X016253Y018649D01*
X016263Y018687D01*
X016263Y018875D01*
X015965Y018875D01*
X015965Y018972D01*
X016263Y018972D01*
X016263Y019160D01*
X016253Y019198D01*
X016233Y019232D01*
X016221Y019244D01*
X016283Y019306D01*
X016283Y019880D01*
X016225Y019938D01*
X017730Y019938D01*
X017818Y019554D01*
X018055Y019063D01*
X018395Y018636D01*
X018821Y018296D01*
X019045Y018188D01*
X018757Y018140D02*
X018757Y018348D01*
X018743Y018358D02*
X018570Y018358D01*
X018437Y018560D02*
X018437Y018603D01*
X018395Y018636D02*
X018395Y018636D01*
X018361Y018678D02*
X017701Y018678D01*
X017797Y018750D02*
X017797Y018482D01*
X018117Y018560D02*
X018117Y018985D01*
X018106Y018998D02*
X017838Y018998D01*
X017838Y019318D02*
X017931Y019318D01*
X017797Y019367D02*
X017797Y019648D01*
X017799Y019638D02*
X016283Y019638D01*
X016283Y019318D02*
X016429Y019318D01*
X016426Y019313D02*
X016415Y019275D01*
X016415Y019107D01*
X016733Y019107D01*
X016733Y019405D01*
X016546Y019405D01*
X016507Y019395D01*
X016473Y019375D01*
X016445Y019347D01*
X016426Y019313D01*
X016517Y019397D02*
X016517Y019938D01*
X016837Y019938D02*
X016837Y019405D01*
X016830Y019318D02*
X016733Y019318D01*
X016517Y019107D02*
X016517Y019010D01*
X016415Y018998D02*
X016263Y018998D01*
X016197Y018972D02*
X016197Y018875D01*
X016261Y018678D02*
X017201Y018678D01*
X017157Y018699D02*
X017157Y018518D01*
X016837Y018525D02*
X016837Y018712D01*
X016517Y018719D02*
X016517Y018525D01*
X016395Y018358D02*
X016298Y018358D01*
X016303Y018340D02*
X016292Y018378D01*
X016273Y018412D01*
X016245Y018440D01*
X016211Y018460D01*
X016172Y018470D01*
X015945Y018470D01*
X015945Y018192D01*
X015888Y018192D01*
X015888Y018470D01*
X015661Y018470D01*
X015622Y018460D01*
X015588Y018440D01*
X015560Y018412D01*
X015541Y018378D01*
X015530Y018340D01*
X015530Y018191D01*
X015888Y018191D01*
X015888Y018134D01*
X015945Y018134D01*
X015945Y017855D01*
X016172Y017855D01*
X016211Y017866D01*
X016245Y017885D01*
X016273Y017913D01*
X016292Y017947D01*
X016303Y017986D01*
X016303Y018134D01*
X015946Y018134D01*
X015946Y018191D01*
X016303Y018191D01*
X016303Y018340D01*
X016197Y018464D02*
X016197Y018582D01*
X015965Y018678D02*
X015868Y018678D01*
X015868Y018557D02*
X015868Y018875D01*
X015570Y018875D01*
X015570Y018687D01*
X015580Y018649D01*
X015600Y018615D01*
X015628Y018587D01*
X015662Y018567D01*
X015700Y018557D01*
X015868Y018557D01*
X015877Y018470D02*
X015877Y018875D01*
X015570Y018998D02*
X014662Y018998D01*
X014443Y019017D02*
X013867Y019593D01*
X013500Y019318D02*
X013333Y019318D01*
X013317Y019289D02*
X013317Y019228D01*
X013333Y018998D02*
X013520Y018998D01*
X013637Y018972D02*
X013637Y018875D01*
X013520Y018875D02*
X013520Y018687D01*
X013530Y018649D01*
X013550Y018615D01*
X013578Y018587D01*
X013612Y018567D01*
X013650Y018557D01*
X013818Y018557D01*
X013818Y018875D01*
X013520Y018875D01*
X013522Y018678D02*
X013333Y018678D01*
X013317Y018620D02*
X013317Y018619D01*
X013167Y018458D02*
X012767Y018458D01*
X012317Y018008D01*
X007717Y018008D01*
X007217Y017508D01*
X007217Y016808D01*
X006617Y016208D01*
X006617Y015610D01*
X006624Y015603D01*
X006506Y015196D02*
X006360Y015196D01*
X006163Y015196D01*
X005904Y015196D01*
X005884Y015216D01*
X005870Y015216D01*
X005870Y015096D01*
X006105Y015096D01*
X006205Y014997D01*
X006205Y014420D01*
X006105Y014320D01*
X005636Y014320D01*
X005636Y014050D01*
X005800Y013886D01*
X005838Y013978D01*
X005947Y014087D01*
X006089Y014146D01*
X006244Y014146D01*
X006386Y014087D01*
X006495Y013978D01*
X007425Y013978D01*
X007608Y013978D01*
X008097Y013489D01*
X008097Y013600D01*
X008097Y014563D01*
X007994Y014520D01*
X007839Y014520D01*
X007697Y014579D01*
X007588Y014689D01*
X007528Y014831D01*
X007528Y014986D01*
X007588Y015128D01*
X007656Y015196D01*
X007541Y015196D01*
X007436Y015196D01*
X007436Y014787D01*
X007546Y014678D01*
X007605Y014536D01*
X007605Y014381D01*
X007546Y014239D01*
X007436Y014129D01*
X007294Y014070D01*
X007139Y014070D01*
X006997Y014129D01*
X006888Y014239D01*
X006828Y014381D01*
X006828Y014536D01*
X006843Y014570D01*
X006739Y014570D01*
X006597Y014629D01*
X006488Y014739D01*
X006428Y014881D01*
X006428Y015036D01*
X006488Y015178D01*
X006506Y015196D01*
X006479Y015158D02*
X005870Y015158D01*
X005837Y015238D02*
X005967Y015108D01*
X006167Y015108D01*
X006367Y014908D01*
X006367Y014308D01*
X006277Y014133D02*
X006277Y015196D01*
X005957Y015196D02*
X005957Y015096D01*
X005837Y015238D02*
X005837Y015603D01*
X005197Y015657D02*
X005197Y015046D01*
X005179Y015064D01*
X004566Y015064D01*
X004466Y014964D01*
X004466Y014767D01*
X004466Y014571D01*
X004466Y014408D01*
X004436Y014437D01*
X004436Y014565D01*
X004433Y014568D01*
X004433Y014911D01*
X004371Y014973D01*
X004383Y014984D01*
X004403Y015019D01*
X004413Y015057D01*
X004413Y015245D01*
X004115Y015245D01*
X004115Y015341D01*
X004413Y015341D01*
X004413Y015529D01*
X004403Y015567D01*
X004383Y015602D01*
X004355Y015630D01*
X004321Y015649D01*
X004283Y015660D01*
X004115Y015660D01*
X004115Y015342D01*
X004018Y015342D01*
X004018Y015660D01*
X003850Y015660D01*
X003812Y015649D01*
X003778Y015630D01*
X003750Y015602D01*
X003730Y015567D01*
X003720Y015529D01*
X003720Y015341D01*
X004018Y015341D01*
X004018Y015245D01*
X003720Y015245D01*
X003720Y015057D01*
X003730Y015019D01*
X003750Y014984D01*
X003762Y014973D01*
X003700Y014911D01*
X003700Y014386D01*
X003636Y014450D01*
X003636Y015150D01*
X003508Y015278D01*
X003409Y015377D01*
X003409Y015826D01*
X003309Y015925D01*
X002336Y015925D01*
X002336Y016393D01*
X002819Y016393D01*
X002997Y016184D01*
X003002Y016171D01*
X003039Y016135D01*
X003073Y016095D01*
X003085Y016088D01*
X003095Y016079D01*
X003143Y016059D01*
X003190Y016035D01*
X003203Y016034D01*
X003216Y016028D01*
X003269Y016028D01*
X003321Y016024D01*
X003334Y016028D01*
X004118Y016028D01*
X004249Y016028D01*
X004255Y016031D01*
X004431Y016031D01*
X004531Y016131D01*
X004531Y016586D01*
X004513Y016603D01*
X004513Y017613D01*
X004531Y017631D01*
X004531Y018086D01*
X004431Y018186D01*
X004255Y018186D01*
X004249Y018188D01*
X004188Y018188D01*
X004412Y018296D01*
X004838Y018636D01*
X004839Y018636D01*
X005179Y019063D01*
X005415Y019554D01*
X005415Y019554D01*
X005503Y019938D01*
X006547Y019938D01*
X006547Y019888D01*
X006646Y019788D01*
X006697Y019788D01*
X006697Y019718D01*
X006622Y019644D01*
X006622Y018873D01*
X006691Y018804D01*
X006687Y018805D01*
X006500Y018805D01*
X006500Y018507D01*
X006818Y018507D01*
X006818Y018563D01*
X006879Y018502D01*
X007033Y018438D01*
X010033Y018438D01*
X010200Y018438D01*
X010354Y018502D01*
X010448Y018596D01*
X010474Y018596D01*
X010573Y018696D01*
X010573Y019821D01*
X010536Y019858D01*
X010536Y019938D01*
X011993Y019938D01*
X011978Y019930D01*
X011950Y019902D01*
X011930Y019867D01*
X011920Y019829D01*
X011920Y019641D01*
X012218Y019641D01*
X012218Y019545D01*
X011920Y019545D01*
X011920Y019357D01*
X011930Y019319D01*
X011950Y019284D01*
X011962Y019273D01*
X011900Y019211D01*
X011900Y018637D01*
X011914Y018622D01*
X011878Y018536D01*
X011878Y018381D01*
X011938Y018239D01*
X011948Y018228D01*
X007625Y018228D01*
X007497Y018100D01*
X006997Y017600D01*
X006997Y017417D01*
X006997Y016900D01*
X006838Y016741D01*
X006838Y017126D01*
X006738Y017225D01*
X006701Y017225D01*
X006701Y017292D01*
X006738Y017292D01*
X006838Y017391D01*
X006838Y017926D01*
X006738Y018025D01*
X006164Y018025D01*
X006116Y017978D01*
X006069Y018025D01*
X006032Y018025D01*
X006032Y018092D01*
X006069Y018092D01*
X006131Y018153D01*
X006143Y018142D01*
X006177Y018122D01*
X006215Y018112D01*
X006403Y018112D01*
X006403Y018410D01*
X006500Y018410D01*
X006500Y018507D01*
X006403Y018507D01*
X006403Y018805D01*
X006301Y018805D01*
X006333Y018823D01*
X006361Y018851D01*
X006381Y018886D01*
X006391Y018924D01*
X006391Y019208D01*
X006015Y019208D01*
X006015Y019308D01*
X006391Y019308D01*
X006391Y019593D01*
X006381Y019631D01*
X006361Y019665D01*
X006333Y019693D01*
X006299Y019713D01*
X006261Y019723D01*
X006015Y019723D01*
X006015Y019309D01*
X005915Y019309D01*
X005915Y019723D01*
X005670Y019723D01*
X005632Y019713D01*
X005598Y019693D01*
X005570Y019665D01*
X005550Y019631D01*
X005540Y019593D01*
X005540Y019308D01*
X005915Y019308D01*
X005915Y019208D01*
X005540Y019208D01*
X005540Y018924D01*
X005550Y018886D01*
X005570Y018851D01*
X005596Y018825D01*
X005495Y018825D01*
X005395Y018726D01*
X005395Y018191D01*
X005495Y018092D01*
X005532Y018092D01*
X005532Y018025D01*
X005495Y018025D01*
X005395Y017926D01*
X005395Y017734D01*
X005335Y017734D01*
X005258Y017812D01*
X004763Y017812D01*
X004663Y017712D01*
X004663Y017256D01*
X004763Y017157D01*
X005258Y017157D01*
X005335Y017234D01*
X005532Y017234D01*
X005532Y017225D01*
X005495Y017225D01*
X005395Y017126D01*
X005395Y016797D01*
X005302Y016704D01*
X005039Y016704D01*
X005039Y016761D01*
X005337Y016761D01*
X005337Y016910D01*
X005327Y016948D01*
X005307Y016982D01*
X005279Y017010D01*
X005245Y017030D01*
X005207Y017040D01*
X005039Y017040D01*
X005039Y016761D01*
X004981Y016761D01*
X004981Y016704D01*
X004683Y016704D01*
X004683Y016555D01*
X004693Y016517D01*
X004713Y016483D01*
X004741Y016455D01*
X004775Y016435D01*
X004813Y016425D01*
X004981Y016425D01*
X004981Y016703D01*
X005039Y016703D01*
X005039Y016441D01*
X004910Y016312D01*
X004763Y016312D01*
X004663Y016212D01*
X004663Y015756D01*
X004763Y015657D01*
X005197Y015657D01*
X005197Y015478D02*
X004413Y015478D01*
X004357Y015341D02*
X004357Y015245D01*
X004413Y015158D02*
X005197Y015158D01*
X004997Y015064D02*
X004997Y015657D01*
X004677Y015743D02*
X004677Y015064D01*
X004466Y014838D02*
X004433Y014838D01*
X004436Y014518D02*
X004466Y014518D01*
X004217Y014474D02*
X004067Y014624D01*
X004217Y014474D02*
X004217Y014108D01*
X003700Y014518D02*
X003636Y014518D01*
X003417Y014358D02*
X004467Y013308D01*
X004467Y013108D01*
X004517Y013058D01*
X004868Y013058D01*
X004872Y013063D01*
X004872Y012866D02*
X004865Y012858D01*
X004417Y012858D01*
X004267Y013008D01*
X004267Y013208D01*
X002917Y014558D01*
X002648Y014558D01*
X002757Y014192D02*
X002757Y013905D01*
X002696Y013905D02*
X002696Y013607D01*
X002600Y013607D01*
X002600Y013905D01*
X002336Y013905D01*
X002336Y014192D01*
X002972Y014192D01*
X003259Y013905D01*
X003258Y013905D01*
X002696Y013905D01*
X002696Y013878D02*
X002600Y013878D01*
X002437Y013905D02*
X002437Y014192D01*
X002697Y013607D02*
X003389Y013607D01*
X003389Y013775D01*
X003388Y013775D01*
X003865Y013299D01*
X003865Y012992D01*
X003768Y012992D01*
X003768Y013310D01*
X003600Y013310D01*
X003562Y013299D01*
X003528Y013280D01*
X003500Y013252D01*
X003480Y013217D01*
X003470Y013179D01*
X003470Y012991D01*
X003768Y012991D01*
X003768Y012895D01*
X003470Y012895D01*
X003470Y012707D01*
X003480Y012669D01*
X003500Y012634D01*
X003512Y012623D01*
X003459Y012570D01*
X003409Y012620D01*
X003409Y012826D01*
X003309Y012925D01*
X002336Y012925D01*
X002336Y013212D01*
X002600Y013212D01*
X002600Y013510D01*
X002696Y013510D01*
X002696Y013212D01*
X003258Y013212D01*
X003296Y013222D01*
X003331Y013242D01*
X003359Y013269D01*
X003378Y013304D01*
X003389Y013342D01*
X003389Y013510D01*
X002697Y013510D01*
X002697Y013607D01*
X002697Y013558D02*
X003605Y013558D01*
X003717Y013447D02*
X003717Y013310D01*
X003768Y013238D02*
X003865Y013238D01*
X003717Y012991D02*
X003717Y012895D01*
X003768Y012918D02*
X003316Y012918D01*
X003397Y012838D02*
X003397Y013767D01*
X003077Y013905D02*
X003077Y014087D01*
X003417Y014358D02*
X003417Y015058D01*
X002917Y015558D01*
X002648Y015558D01*
X002757Y015925D02*
X002757Y016393D01*
X002437Y016393D02*
X002437Y015925D01*
X002336Y016118D02*
X003053Y016118D01*
X003077Y016093D02*
X003077Y015925D01*
X003397Y015838D02*
X003397Y016028D01*
X003409Y015798D02*
X004663Y015798D01*
X004663Y016118D02*
X004519Y016118D01*
X004357Y016031D02*
X004357Y015629D01*
X004115Y015478D02*
X004018Y015478D01*
X004037Y015342D02*
X004037Y016028D01*
X003717Y016028D02*
X003717Y014928D01*
X003700Y014838D02*
X003636Y014838D01*
X003628Y015158D02*
X003720Y015158D01*
X003720Y015478D02*
X003409Y015478D01*
X003434Y016688D02*
X003853Y016688D01*
X003853Y017613D01*
X003836Y017631D01*
X003836Y018041D01*
X003536Y017972D01*
X003536Y017775D01*
X003473Y017621D01*
X003354Y017502D01*
X003200Y017438D01*
X003083Y017438D01*
X003083Y017406D01*
X003036Y017358D01*
X003083Y017311D01*
X003083Y017102D01*
X003434Y016688D01*
X003397Y016733D02*
X003397Y017544D01*
X003513Y017718D02*
X003836Y017718D01*
X003717Y018013D02*
X003717Y016688D01*
X003853Y016758D02*
X003375Y016758D01*
X003103Y017078D02*
X003853Y017078D01*
X003853Y017398D02*
X003076Y017398D01*
X003077Y017399D02*
X003077Y017317D01*
X003827Y018038D02*
X003836Y018038D01*
X004357Y018186D02*
X004357Y018270D01*
X004412Y018296D02*
X004412Y018296D01*
X004490Y018358D02*
X004683Y018358D01*
X004683Y018410D02*
X004683Y018261D01*
X004981Y018261D01*
X004981Y018204D01*
X004683Y018204D01*
X004683Y018055D01*
X004693Y018017D01*
X004713Y017983D01*
X004741Y017955D01*
X004775Y017935D01*
X004813Y017925D01*
X004981Y017925D01*
X004981Y018203D01*
X005039Y018203D01*
X005039Y017925D01*
X005207Y017925D01*
X005245Y017935D01*
X005279Y017955D01*
X005307Y017983D01*
X005327Y018017D01*
X005337Y018055D01*
X005337Y018204D01*
X005039Y018204D01*
X005039Y018261D01*
X005337Y018261D01*
X005337Y018410D01*
X005327Y018448D01*
X005307Y018482D01*
X005279Y018510D01*
X005245Y018530D01*
X005207Y018540D01*
X005039Y018540D01*
X005039Y018261D01*
X004981Y018261D01*
X004981Y018540D01*
X004813Y018540D01*
X004775Y018530D01*
X004741Y018510D01*
X004713Y018482D01*
X004693Y018448D01*
X004683Y018410D01*
X004677Y018507D02*
X004677Y017726D01*
X004669Y017718D02*
X004531Y017718D01*
X004513Y017398D02*
X004663Y017398D01*
X004677Y017243D02*
X004677Y016226D01*
X004770Y016438D02*
X004531Y016438D01*
X004513Y016758D02*
X004981Y016758D01*
X004981Y016761D02*
X004683Y016761D01*
X004683Y016910D01*
X004693Y016948D01*
X004713Y016982D01*
X004741Y017010D01*
X004775Y017030D01*
X004813Y017040D01*
X004981Y017040D01*
X004981Y016761D01*
X004997Y016761D02*
X004997Y017157D01*
X005317Y017216D02*
X005317Y016966D01*
X005395Y017078D02*
X004513Y017078D01*
X004997Y016703D02*
X004997Y016398D01*
X004981Y016438D02*
X005037Y016438D01*
X005039Y016758D02*
X005357Y016758D01*
X005317Y016761D02*
X005317Y016718D01*
X005617Y016358D02*
X005417Y016158D01*
X005417Y013958D01*
X006080Y013295D01*
X007230Y013295D01*
X007917Y012608D01*
X007917Y011808D01*
X008199Y011526D01*
X008199Y011114D01*
X008396Y011114D02*
X008396Y010788D01*
X008317Y010708D01*
X007967Y010708D01*
X007782Y010524D01*
X007782Y010308D01*
X007830Y010260D02*
X007830Y009962D01*
X008018Y009962D01*
X008056Y009972D01*
X008091Y009992D01*
X008102Y010003D01*
X008164Y009942D01*
X008589Y009942D01*
X008325Y009678D01*
X006625Y009678D01*
X006497Y009550D01*
X006341Y009394D01*
X006306Y009408D01*
X006127Y009408D01*
X005962Y009340D01*
X005835Y009213D01*
X005767Y009048D01*
X005767Y008869D01*
X005835Y008704D01*
X005962Y008577D01*
X006127Y008508D01*
X006306Y008508D01*
X006471Y008577D01*
X006598Y008704D01*
X006612Y008738D01*
X006675Y008738D01*
X006897Y008517D01*
X006897Y008077D01*
X006886Y008087D01*
X006744Y008146D01*
X006589Y008146D01*
X006546Y008128D01*
X006425Y008128D01*
X005908Y008128D01*
X005508Y008528D01*
X005325Y008528D01*
X005158Y008528D01*
X005036Y008649D01*
X005036Y009467D01*
X005036Y009650D01*
X004986Y009700D01*
X004986Y010163D01*
X005089Y010120D01*
X005244Y010120D01*
X005295Y010142D01*
X005338Y010039D01*
X005447Y009929D01*
X005589Y009870D01*
X005744Y009870D01*
X005886Y009929D01*
X005941Y009985D01*
X005997Y009929D01*
X006139Y009870D01*
X006294Y009870D01*
X006436Y009929D01*
X006545Y010038D01*
X006575Y010038D01*
X006728Y010038D01*
X006728Y010031D01*
X006788Y009889D01*
X006897Y009779D01*
X007039Y009720D01*
X007194Y009720D01*
X007336Y009779D01*
X007446Y009889D01*
X007485Y009985D01*
X007507Y009972D01*
X007546Y009962D01*
X007733Y009962D01*
X007733Y010260D01*
X007830Y010260D01*
X007830Y010357D02*
X007733Y010357D01*
X007733Y010614D01*
X007736Y010617D01*
X007827Y010708D01*
X007873Y010708D01*
X008132Y010708D01*
X008329Y010708D01*
X008349Y010728D01*
X008373Y010728D01*
X008373Y010675D01*
X008164Y010675D01*
X008102Y010613D01*
X008091Y010625D01*
X008056Y010645D01*
X008018Y010655D01*
X007830Y010655D01*
X007830Y010357D01*
X007830Y010358D02*
X007733Y010358D01*
X007733Y010038D02*
X007830Y010038D01*
X007877Y009962D02*
X007877Y009678D01*
X007557Y009678D02*
X007557Y009962D01*
X007237Y009738D02*
X007237Y009678D01*
X006917Y009678D02*
X006917Y009771D01*
X007117Y010108D02*
X007167Y010158D01*
X007167Y010458D01*
X007417Y010708D01*
X007517Y010708D01*
X007609Y010801D01*
X007609Y011114D01*
X007806Y011114D02*
X007806Y011619D01*
X007517Y011908D01*
X007637Y012278D02*
X007697Y012278D01*
X007697Y012254D02*
X007594Y012296D01*
X007439Y012296D01*
X007297Y012237D01*
X007188Y012128D01*
X007128Y011986D01*
X007128Y011831D01*
X007130Y011828D01*
X005998Y011828D01*
X006008Y011838D01*
X006136Y011967D01*
X006136Y012867D01*
X006136Y013050D01*
X006111Y013075D01*
X007139Y013075D01*
X007697Y012517D01*
X007697Y012254D01*
X007557Y012296D02*
X007557Y012657D01*
X007615Y012598D02*
X006136Y012598D01*
X006136Y012918D02*
X007295Y012918D01*
X007237Y012977D02*
X007237Y012177D01*
X007396Y012278D02*
X006136Y012278D01*
X005917Y012058D02*
X005917Y012958D01*
X005617Y013258D01*
X005317Y013258D01*
X005637Y014049D02*
X005637Y014320D01*
X005636Y014198D02*
X006928Y014198D01*
X006917Y014210D02*
X006917Y013978D01*
X007237Y013978D02*
X007237Y014070D01*
X007217Y014458D02*
X007217Y015601D01*
X007215Y015603D01*
X007412Y015603D02*
X007412Y015654D01*
X007417Y015858D01*
X007417Y017408D01*
X007817Y017808D01*
X010562Y017808D01*
X010967Y017404D01*
X011294Y017398D02*
X013915Y017398D01*
X013957Y017357D02*
X013957Y016407D01*
X014277Y016263D02*
X014277Y017037D01*
X014235Y017078D02*
X011257Y017078D01*
X011294Y016758D02*
X015255Y016758D01*
X015237Y016777D02*
X015237Y016263D01*
X015557Y016263D02*
X015557Y016738D01*
X015367Y016958D02*
X016482Y016958D01*
X016782Y017258D01*
X016837Y016892D02*
X016837Y016263D01*
X016517Y016263D02*
X016517Y016738D01*
X016593Y016758D02*
X017563Y016758D01*
X017477Y016845D02*
X017477Y016263D01*
X017582Y016043D02*
X017967Y015658D01*
X017967Y015443D01*
X018367Y015043D01*
X019167Y015043D01*
X018847Y014708D02*
X018800Y014661D01*
X018800Y014087D01*
X018899Y013987D01*
X018947Y013987D01*
X018947Y013967D01*
X019247Y013667D01*
X019375Y013538D01*
X019445Y013538D01*
X019445Y013491D01*
X019545Y013392D01*
X019612Y013392D01*
X019612Y013319D01*
X019567Y013274D01*
X019505Y013335D01*
X019451Y013335D01*
X019408Y013378D01*
X019108Y013678D01*
X018925Y013678D01*
X018358Y013678D01*
X018086Y013950D01*
X018086Y014032D01*
X018112Y014017D01*
X018150Y014007D01*
X018318Y014007D01*
X018318Y014325D01*
X018415Y014325D01*
X018415Y014007D01*
X018583Y014007D01*
X018621Y014017D01*
X018655Y014037D01*
X018683Y014065D01*
X018703Y014099D01*
X018713Y014137D01*
X018713Y014325D01*
X018415Y014325D01*
X018415Y014422D01*
X018713Y014422D01*
X018713Y014610D01*
X018703Y014648D01*
X018683Y014682D01*
X018671Y014694D01*
X018733Y014756D01*
X018733Y014823D01*
X018800Y014823D01*
X018800Y014756D01*
X018847Y014708D01*
X018757Y014823D02*
X018757Y013678D01*
X018437Y013678D02*
X018437Y014007D01*
X018415Y014198D02*
X018318Y014198D01*
X018437Y014325D02*
X018437Y014422D01*
X018713Y014518D02*
X018800Y014518D01*
X018800Y014198D02*
X018713Y014198D01*
X019035Y013878D02*
X018158Y013878D01*
X018117Y013919D02*
X018117Y014016D01*
X017867Y013858D02*
X018267Y013458D01*
X019017Y013458D01*
X019317Y013158D01*
X019317Y012732D01*
X019767Y012782D02*
X019817Y012732D01*
X019817Y013208D01*
X019832Y013224D01*
X019832Y013758D01*
X019467Y013758D01*
X019167Y014058D01*
X019167Y014374D01*
X019077Y013837D02*
X019077Y013678D01*
X019228Y013558D02*
X019355Y013558D01*
X019397Y013538D02*
X019397Y013389D01*
X019832Y013758D02*
X019812Y014558D01*
X020140Y014518D02*
X020193Y014518D01*
X020193Y014838D02*
X020140Y014838D01*
X020037Y014965D02*
X020037Y016028D01*
X019717Y016028D02*
X019717Y014965D01*
X019533Y015158D02*
X020897Y015158D01*
X020677Y014965D02*
X020677Y016352D01*
X020897Y016118D02*
X020443Y016118D01*
X020357Y016059D02*
X020357Y014965D01*
X020521Y014558D02*
X020501Y013758D01*
X020567Y013693D01*
X020567Y013458D01*
X020317Y013208D01*
X020317Y012732D01*
X020367Y012782D01*
X020267Y012682D02*
X020267Y012108D01*
X020017Y011858D01*
X020037Y011470D02*
X020037Y011256D01*
X019829Y011318D02*
X020897Y011318D01*
X020897Y010998D02*
X020605Y010998D01*
X020605Y010678D02*
X020897Y010678D01*
X020897Y010358D02*
X020605Y010358D01*
X020357Y010082D02*
X020357Y009824D01*
X020417Y009558D02*
X020717Y009358D01*
X020417Y009558D02*
X020067Y009558D01*
X019713Y009398D02*
X018963Y009398D01*
X018757Y009545D02*
X018757Y009641D01*
X018665Y009718D02*
X018568Y009718D01*
X018617Y009593D02*
X018817Y009793D01*
X018817Y010685D01*
X018807Y010358D02*
X018826Y010358D01*
X018757Y010102D02*
X018757Y009960D01*
X018437Y009960D02*
X018437Y010082D01*
X018117Y010093D02*
X018117Y009947D01*
X018036Y010038D02*
X020897Y010038D01*
X020677Y009824D02*
X020677Y013257D01*
X020658Y013238D02*
X020897Y013238D01*
X020897Y012918D02*
X020605Y012918D01*
X020605Y012598D02*
X020897Y012598D01*
X020897Y012278D02*
X020605Y012278D01*
X020428Y011958D02*
X020897Y011958D01*
X020897Y011638D02*
X020345Y011638D01*
X020357Y011665D02*
X020357Y011288D01*
X019467Y011458D02*
X019117Y011458D01*
X018967Y011308D01*
X018567Y011308D01*
X018317Y011058D01*
X018317Y010685D01*
X018317Y010858D01*
X018267Y010908D01*
X018066Y011226D02*
X018036Y011256D01*
X018036Y011300D01*
X017936Y011400D01*
X017808Y011528D01*
X016933Y011528D01*
X016933Y011688D01*
X017708Y011688D01*
X017836Y011817D01*
X017836Y011817D01*
X017908Y011888D01*
X018125Y011888D01*
X018189Y011888D01*
X018189Y011381D01*
X018258Y011311D01*
X018235Y011288D01*
X018128Y011288D01*
X018066Y011226D01*
X018117Y011276D02*
X018117Y011888D01*
X018217Y012108D02*
X017817Y012108D01*
X017617Y011908D01*
X016317Y011908D01*
X016017Y011608D01*
X016017Y010608D01*
X015817Y010408D01*
X015817Y009408D01*
X015682Y009274D01*
X015317Y009274D01*
X014467Y009274D01*
X014147Y009608D02*
X014100Y009561D01*
X014100Y009036D01*
X014036Y009100D01*
X014036Y009567D01*
X014036Y009750D01*
X013386Y010400D01*
X013386Y013117D01*
X013386Y013300D01*
X012998Y013688D01*
X013300Y013688D01*
X013300Y013637D01*
X013399Y013537D01*
X013934Y013537D01*
X013986Y013590D01*
X013986Y013463D01*
X013986Y013056D01*
X013896Y013056D01*
X013796Y012956D01*
X013796Y012056D01*
X013896Y011956D01*
X014537Y011956D01*
X014636Y012056D01*
X014636Y012956D01*
X014537Y013056D01*
X014446Y013056D01*
X014446Y013463D01*
X014504Y013520D01*
X014644Y013520D01*
X014786Y013579D01*
X014838Y013631D01*
X014845Y013619D01*
X014873Y013592D01*
X014907Y013572D01*
X014946Y013562D01*
X015133Y013562D01*
X015133Y013860D01*
X015230Y013860D01*
X015230Y013562D01*
X015418Y013562D01*
X015456Y013572D01*
X015491Y013592D01*
X015502Y013603D01*
X015564Y013542D01*
X015907Y013542D01*
X015950Y013499D01*
X015950Y013473D01*
X015306Y013473D01*
X015171Y013338D01*
X014887Y013054D01*
X014887Y012863D01*
X014887Y011548D01*
X015021Y011413D01*
X015176Y011258D01*
X015176Y010713D01*
X015276Y010614D01*
X015376Y010614D01*
X015376Y010330D01*
X015049Y010330D01*
X014950Y010230D01*
X014950Y009656D01*
X014997Y009608D01*
X014950Y009561D01*
X014950Y009494D01*
X014833Y009494D01*
X014833Y009561D01*
X014786Y009608D01*
X014833Y009656D01*
X014833Y010230D01*
X014734Y010330D01*
X014436Y010330D01*
X014436Y010603D01*
X014537Y010603D01*
X014636Y010703D01*
X014636Y011604D01*
X014537Y011703D01*
X013896Y011703D01*
X013796Y011604D01*
X013796Y010703D01*
X013896Y010603D01*
X013996Y010603D01*
X013996Y010102D01*
X014100Y009999D01*
X014100Y009656D01*
X014147Y009608D01*
X014100Y009718D02*
X014036Y009718D01*
X013957Y009829D02*
X013957Y010603D01*
X013821Y010678D02*
X013386Y010678D01*
X013386Y010998D02*
X013796Y010998D01*
X013796Y011318D02*
X013386Y011318D01*
X013386Y011638D02*
X013831Y011638D01*
X013957Y011703D02*
X013957Y011956D01*
X013893Y011958D02*
X013386Y011958D01*
X013386Y012278D02*
X013796Y012278D01*
X013796Y012598D02*
X013386Y012598D01*
X013386Y012918D02*
X013796Y012918D01*
X013957Y013056D02*
X013957Y013560D01*
X013955Y013558D02*
X013986Y013558D01*
X014033Y013700D02*
X014033Y014211D01*
X013986Y014258D01*
X014033Y014306D01*
X014033Y014373D01*
X015310Y014373D01*
X015492Y014373D01*
X016158Y015038D01*
X016458Y015038D01*
X016435Y015015D01*
X016435Y014402D01*
X016534Y014302D01*
X016552Y014302D01*
X016553Y014275D01*
X016495Y014275D01*
X016395Y014176D01*
X016395Y013675D01*
X016238Y013833D01*
X016238Y014176D01*
X016138Y014275D01*
X015564Y014275D01*
X015502Y014213D01*
X015491Y014225D01*
X015456Y014245D01*
X015418Y014255D01*
X015230Y014255D01*
X015230Y013957D01*
X015133Y013957D01*
X015133Y014255D01*
X014946Y014255D01*
X014907Y014245D01*
X014873Y014225D01*
X014845Y014197D01*
X014838Y014185D01*
X014786Y014237D01*
X014644Y014296D01*
X014489Y014296D01*
X014347Y014237D01*
X014238Y014128D01*
X014178Y013986D01*
X014178Y013846D01*
X014033Y013700D01*
X014033Y013878D02*
X014178Y013878D01*
X014277Y014167D02*
X014277Y014373D01*
X014308Y014198D02*
X014033Y014198D01*
X013667Y013924D02*
X013651Y013908D01*
X012817Y013908D01*
X012467Y014258D01*
X012322Y014258D01*
X012357Y014678D02*
X012357Y015218D01*
X012037Y015218D02*
X012037Y014678D01*
X011748Y014838D02*
X013300Y014838D01*
X013317Y014897D02*
X013317Y015070D01*
X013300Y015158D02*
X011428Y015158D01*
X011397Y015189D02*
X011397Y015247D01*
X011499Y015478D02*
X011761Y015478D01*
X011761Y015798D02*
X011499Y015798D01*
X011397Y015689D02*
X011397Y015590D01*
X011077Y015590D02*
X011077Y015689D01*
X010919Y015689D02*
X010919Y015590D01*
X010439Y015590D01*
X010439Y015378D01*
X010158Y015378D01*
X010058Y015478D01*
X008908Y015478D01*
X008822Y015478D01*
X008822Y015909D01*
X008722Y016009D01*
X008463Y016009D01*
X008443Y015989D01*
X008419Y015989D01*
X008419Y016076D01*
X008427Y016072D01*
X008465Y016062D01*
X008653Y016062D01*
X008653Y016360D01*
X008750Y016360D01*
X008750Y016457D01*
X009068Y016457D01*
X009068Y016625D01*
X009057Y016663D01*
X009038Y016697D01*
X009010Y016725D01*
X008976Y016745D01*
X008937Y016755D01*
X008750Y016755D01*
X008750Y016457D01*
X008653Y016457D01*
X008653Y016755D01*
X008579Y016755D01*
X008674Y016850D01*
X008674Y017388D01*
X009489Y017388D01*
X009489Y017176D01*
X009556Y017108D01*
X009489Y017041D01*
X009489Y016585D01*
X009517Y016558D01*
X009488Y016528D01*
X009428Y016386D01*
X009428Y016231D01*
X009488Y016089D01*
X009597Y015979D01*
X009739Y015920D01*
X009894Y015920D01*
X010036Y015979D01*
X010146Y016089D01*
X010205Y016231D01*
X010205Y016386D01*
X010146Y016528D01*
X010116Y016558D01*
X010144Y016585D01*
X010144Y017041D01*
X010077Y017108D01*
X010144Y017176D01*
X010144Y017588D01*
X010471Y017588D01*
X010639Y017420D01*
X010639Y017176D01*
X010706Y017108D01*
X010639Y017041D01*
X010639Y016585D01*
X010667Y016558D01*
X010638Y016528D01*
X010578Y016386D01*
X010578Y016231D01*
X010638Y016089D01*
X010687Y016039D01*
X010569Y016039D01*
X010531Y016029D01*
X010497Y016010D01*
X010469Y015982D01*
X010449Y015947D01*
X010439Y015909D01*
X010439Y015689D01*
X010919Y015689D01*
X010757Y015689D02*
X010757Y015590D01*
X010439Y015478D02*
X008822Y015478D01*
X008837Y015478D02*
X008837Y016062D01*
X008750Y016062D02*
X008937Y016062D01*
X008976Y016072D01*
X009010Y016092D01*
X009038Y016119D01*
X009057Y016154D01*
X009068Y016192D01*
X009068Y016360D01*
X008750Y016360D01*
X008750Y016062D01*
X008750Y016118D02*
X008653Y016118D01*
X008517Y016062D02*
X008517Y016009D01*
X008396Y015988D02*
X008701Y016293D01*
X008701Y016408D01*
X008717Y016408D01*
X008701Y016408D02*
X008667Y016374D01*
X008750Y016438D02*
X009450Y016438D01*
X009477Y016502D02*
X009477Y017388D01*
X009612Y017608D02*
X009817Y017404D01*
X009612Y017608D02*
X007917Y017608D01*
X007617Y017308D01*
X007617Y015808D01*
X007609Y015801D01*
X007609Y015603D01*
X007557Y015196D02*
X007557Y015054D01*
X007618Y015158D02*
X007436Y015158D01*
X007436Y014838D02*
X007528Y014838D01*
X007557Y014763D02*
X007557Y014652D01*
X007605Y014518D02*
X008097Y014518D01*
X007877Y014520D02*
X007877Y013709D01*
X008028Y013558D02*
X008097Y013558D01*
X008317Y013508D02*
X008565Y013260D01*
X009361Y013260D01*
X009361Y013063D02*
X009356Y013058D01*
X008217Y013058D01*
X007517Y013758D01*
X006167Y013758D01*
X005957Y014091D02*
X005957Y014320D01*
X006205Y014518D02*
X006828Y014518D01*
X006597Y014630D02*
X006597Y013978D01*
X006597Y013075D02*
X006597Y011828D01*
X006277Y011828D02*
X006277Y013075D01*
X006917Y013075D02*
X006917Y011828D01*
X007128Y011958D02*
X006128Y011958D01*
X005917Y012058D02*
X005717Y011858D01*
X005367Y011858D01*
X005167Y011658D01*
X004917Y011658D01*
X004567Y011308D01*
X004567Y009508D01*
X004617Y009458D01*
X004617Y008458D01*
X004967Y008108D01*
X005317Y008108D01*
X005767Y007658D01*
X006201Y007658D01*
X006451Y007408D01*
X006451Y007158D01*
X006838Y007158D02*
X006878Y007158D01*
X006845Y007191D02*
X006845Y007412D01*
X006838Y007409D01*
X006838Y006891D01*
X006738Y006792D01*
X006701Y006792D01*
X006701Y006625D01*
X006738Y006625D01*
X006838Y006526D01*
X006838Y005991D01*
X006738Y005892D01*
X006164Y005892D01*
X006116Y005939D01*
X006069Y005892D01*
X006032Y005892D01*
X006032Y005725D01*
X006069Y005725D01*
X006131Y005663D01*
X006143Y005675D01*
X006177Y005695D01*
X006215Y005705D01*
X006403Y005705D01*
X006403Y005407D01*
X006500Y005407D01*
X006818Y005407D01*
X006818Y005575D01*
X006807Y005613D01*
X006788Y005647D01*
X006760Y005675D01*
X006726Y005695D01*
X006687Y005705D01*
X006500Y005705D01*
X006500Y005407D01*
X006500Y005310D01*
X006818Y005310D01*
X006818Y005142D01*
X006807Y005104D01*
X006788Y005069D01*
X006760Y005042D01*
X006726Y005022D01*
X006687Y005012D01*
X006500Y005012D01*
X006500Y005310D01*
X006403Y005310D01*
X006403Y005012D01*
X006215Y005012D01*
X006177Y005022D01*
X006143Y005042D01*
X006131Y005053D01*
X006069Y004992D01*
X005495Y004992D01*
X005395Y005091D01*
X005395Y005234D01*
X005335Y005234D01*
X005258Y005157D01*
X004763Y005157D01*
X004663Y005256D01*
X004663Y005712D01*
X004763Y005812D01*
X005258Y005812D01*
X005335Y005734D01*
X005532Y005734D01*
X005532Y005892D01*
X005495Y005892D01*
X005395Y005991D01*
X005395Y006526D01*
X005495Y006625D01*
X005532Y006625D01*
X005532Y006792D01*
X005495Y006792D01*
X005395Y006891D01*
X005395Y007008D01*
X005388Y007008D01*
X005357Y006978D01*
X005357Y006756D01*
X005258Y006657D01*
X004763Y006657D01*
X004663Y006756D01*
X004663Y007212D01*
X004763Y007312D01*
X004984Y007312D01*
X005072Y007400D01*
X005097Y007425D01*
X005039Y007425D01*
X005039Y007703D01*
X004981Y007703D01*
X004981Y007425D01*
X004813Y007425D01*
X004775Y007435D01*
X004741Y007455D01*
X004713Y007483D01*
X004693Y007517D01*
X004683Y007555D01*
X004683Y007704D01*
X004981Y007704D01*
X004981Y007761D01*
X004683Y007761D01*
X004683Y007910D01*
X004693Y007948D01*
X004713Y007982D01*
X004741Y008010D01*
X004749Y008015D01*
X004747Y008017D01*
X004397Y008367D01*
X004397Y008550D01*
X004397Y009367D01*
X004347Y009417D01*
X004347Y009600D01*
X004347Y009628D01*
X004258Y009539D01*
X003938Y009219D01*
X003951Y009185D01*
X003951Y009007D01*
X003883Y008843D01*
X003757Y008717D01*
X003723Y008703D01*
X003757Y008688D01*
X003883Y008562D01*
X003951Y008398D01*
X003951Y008220D01*
X003883Y008055D01*
X003757Y007929D01*
X003593Y007861D01*
X003415Y007861D01*
X003250Y007929D01*
X003125Y008055D01*
X003099Y008118D01*
X003082Y008085D01*
X003043Y008030D01*
X002995Y007983D01*
X002941Y007943D01*
X002881Y007913D01*
X002817Y007892D01*
X002750Y007881D01*
X002745Y007881D01*
X002745Y008280D01*
X002688Y008280D01*
X002688Y007881D01*
X002683Y007881D01*
X002616Y007892D01*
X002552Y007913D01*
X002492Y007943D01*
X002438Y007983D01*
X002390Y008030D01*
X002351Y008085D01*
X002336Y008113D01*
X002336Y007324D01*
X002515Y007324D01*
X002737Y007545D01*
X002830Y007638D01*
X002951Y007688D01*
X004249Y007688D01*
X004255Y007686D01*
X004431Y007686D01*
X004531Y007586D01*
X004531Y007131D01*
X004513Y007113D01*
X004513Y006103D01*
X004531Y006086D01*
X004531Y005631D01*
X004431Y005531D01*
X004255Y005531D01*
X004249Y005528D01*
X004188Y005528D01*
X004412Y005420D01*
X004412Y005420D01*
X004839Y005080D01*
X004839Y005080D01*
X005179Y004654D01*
X005179Y004654D01*
X005415Y004163D01*
X005415Y004163D01*
X005415Y004162D01*
X005415Y004210D01*
X005733Y004210D01*
X005733Y004307D01*
X005415Y004307D01*
X005415Y004475D01*
X005426Y004513D01*
X005445Y004547D01*
X005473Y004575D01*
X005507Y004595D01*
X005546Y004605D01*
X005733Y004605D01*
X005733Y004307D01*
X005830Y004307D01*
X005830Y004605D01*
X006018Y004605D01*
X006056Y004595D01*
X006091Y004575D01*
X006102Y004563D01*
X006164Y004625D01*
X006738Y004625D01*
X006815Y004548D01*
X006864Y004548D01*
X006864Y004553D01*
X006964Y004653D01*
X007321Y004653D01*
X007351Y004623D01*
X007389Y004633D01*
X007512Y004633D01*
X007512Y004251D01*
X007521Y004251D01*
X007521Y004633D01*
X007645Y004633D01*
X007682Y004623D01*
X007712Y004653D01*
X008069Y004653D01*
X008169Y004553D01*
X008169Y003940D01*
X008146Y003918D01*
X008146Y003778D01*
X008272Y003778D01*
X008270Y003787D01*
X008270Y003975D01*
X008568Y003975D01*
X008568Y004072D01*
X008270Y004072D01*
X008270Y004260D01*
X008280Y004298D01*
X008300Y004332D01*
X008312Y004344D01*
X008250Y004406D01*
X008250Y004980D01*
X008310Y005040D01*
X008309Y005040D01*
X008169Y005040D01*
X008169Y004964D01*
X008069Y004864D01*
X007712Y004864D01*
X007612Y004964D01*
X007612Y005577D01*
X007432Y005577D01*
X007432Y005213D01*
X007421Y005184D01*
X007421Y004964D01*
X007321Y004864D01*
X006964Y004864D01*
X006864Y004964D01*
X006864Y005184D01*
X006853Y005213D01*
X006853Y005685D01*
X006849Y005731D01*
X006853Y005743D01*
X006853Y005755D01*
X006870Y005797D01*
X006884Y005841D01*
X006892Y005850D01*
X006897Y005862D01*
X006910Y005876D01*
X006910Y006132D01*
X007010Y006232D01*
X007623Y006232D01*
X007681Y006174D01*
X010519Y006174D01*
X010519Y006256D01*
X010619Y006356D01*
X010677Y006356D01*
X010677Y007838D01*
X010518Y007838D01*
X010419Y007938D01*
X010419Y008454D01*
X010025Y008848D01*
X009955Y008919D01*
X009917Y009011D01*
X009917Y009609D01*
X009825Y009646D01*
X009755Y009717D01*
X009755Y009717D01*
X009286Y010185D01*
X009286Y009717D01*
X009158Y009588D01*
X008652Y009083D01*
X008666Y009048D01*
X008666Y008870D01*
X008736Y008800D01*
X008736Y008617D01*
X008736Y007825D01*
X008869Y007825D01*
X008931Y007763D01*
X008943Y007775D01*
X008977Y007795D01*
X009015Y007805D01*
X009203Y007805D01*
X009203Y007507D01*
X009300Y007507D01*
X009618Y007507D01*
X009618Y007675D01*
X009607Y007713D01*
X009588Y007747D01*
X009560Y007775D01*
X009526Y007795D01*
X009487Y007805D01*
X009300Y007805D01*
X009300Y007507D01*
X009300Y007410D01*
X009618Y007410D01*
X009618Y007242D01*
X009607Y007204D01*
X009588Y007169D01*
X009560Y007142D01*
X009526Y007122D01*
X009487Y007112D01*
X009300Y007112D01*
X009300Y007410D01*
X009203Y007410D01*
X009203Y007112D01*
X009015Y007112D01*
X008977Y007122D01*
X008943Y007142D01*
X008931Y007153D01*
X008869Y007092D01*
X008295Y007092D01*
X008227Y007159D01*
X008210Y007142D01*
X008176Y007122D01*
X008137Y007112D01*
X007950Y007112D01*
X007950Y007410D01*
X007853Y007410D01*
X007853Y007112D01*
X007665Y007112D01*
X007627Y007122D01*
X007593Y007142D01*
X007581Y007153D01*
X007519Y007092D01*
X006945Y007092D01*
X006845Y007191D01*
X006917Y007120D02*
X006917Y006138D01*
X006977Y006198D02*
X006838Y006198D01*
X006988Y006335D02*
X007022Y006316D01*
X007061Y006305D01*
X007288Y006305D01*
X007288Y006584D01*
X007345Y006584D01*
X007345Y006305D01*
X007572Y006305D01*
X007611Y006316D01*
X007645Y006335D01*
X007673Y006363D01*
X007692Y006397D01*
X007703Y006436D01*
X007703Y006584D01*
X007346Y006584D01*
X007346Y006641D01*
X007703Y006641D01*
X007703Y006790D01*
X007692Y006828D01*
X007673Y006862D01*
X007645Y006890D01*
X007611Y006910D01*
X007572Y006920D01*
X007345Y006920D01*
X007345Y006642D01*
X007288Y006642D01*
X007288Y006920D01*
X007061Y006920D01*
X007022Y006910D01*
X006988Y006890D01*
X006960Y006862D01*
X006941Y006828D01*
X006930Y006790D01*
X006930Y006641D01*
X007288Y006641D01*
X007288Y006584D01*
X006930Y006584D01*
X006930Y006436D01*
X006941Y006397D01*
X006960Y006363D01*
X006988Y006335D01*
X006930Y006518D02*
X006838Y006518D01*
X006785Y006838D02*
X006947Y006838D01*
X007237Y006920D02*
X007237Y007092D01*
X007288Y006838D02*
X007345Y006838D01*
X007237Y006641D02*
X007237Y006584D01*
X007288Y006518D02*
X007345Y006518D01*
X007557Y006584D02*
X007557Y006641D01*
X007703Y006518D02*
X010677Y006518D01*
X010677Y006838D02*
X007687Y006838D01*
X007557Y006920D02*
X007557Y007129D01*
X007853Y007158D02*
X007950Y007158D01*
X008197Y007134D02*
X008197Y006174D01*
X008517Y006174D02*
X008517Y007092D01*
X008228Y007158D02*
X008227Y007158D01*
X007950Y007507D02*
X007853Y007507D01*
X007853Y007805D01*
X007665Y007805D01*
X007627Y007795D01*
X007593Y007775D01*
X007581Y007763D01*
X007519Y007825D01*
X007336Y007825D01*
X007336Y008517D01*
X007336Y008700D01*
X006986Y009050D01*
X006858Y009178D01*
X006748Y009178D01*
X006808Y009238D01*
X007860Y009238D01*
X007835Y009213D01*
X007767Y009048D01*
X007767Y008869D01*
X007835Y008704D01*
X007962Y008577D01*
X008127Y008508D01*
X008297Y008508D01*
X008297Y007825D01*
X008295Y007825D01*
X008227Y007758D01*
X008210Y007775D01*
X008176Y007795D01*
X008137Y007805D01*
X007950Y007805D01*
X007950Y007507D01*
X007877Y007507D02*
X007877Y008662D01*
X007812Y008758D02*
X007278Y008758D01*
X007237Y008799D02*
X007237Y009238D01*
X006917Y009238D02*
X006917Y009119D01*
X006958Y009078D02*
X007779Y009078D01*
X007557Y009238D02*
X007557Y007787D01*
X007546Y007798D02*
X007640Y007798D01*
X007853Y007798D02*
X007950Y007798D01*
X008163Y007798D02*
X008268Y007798D01*
X008197Y007783D02*
X008197Y008508D01*
X008297Y008438D02*
X007336Y008438D01*
X007117Y008608D02*
X006767Y008958D01*
X006217Y008958D01*
X006717Y009458D01*
X008417Y009458D01*
X008867Y009908D01*
X008867Y011508D01*
X008717Y011658D01*
X008717Y012608D01*
X008974Y012866D01*
X009361Y012866D01*
X009361Y012669D02*
X009078Y012669D01*
X008917Y012508D01*
X008917Y011758D01*
X009067Y011608D01*
X009067Y009808D01*
X008217Y008958D01*
X008267Y008958D01*
X008517Y008708D01*
X008517Y007524D01*
X008582Y007458D01*
X008896Y007798D02*
X008990Y007798D01*
X008837Y007825D02*
X008837Y009267D01*
X008968Y009398D02*
X009917Y009398D01*
X009797Y009675D02*
X009797Y006174D01*
X009477Y006174D02*
X009477Y007112D01*
X009577Y007158D02*
X010677Y007158D01*
X010677Y007478D02*
X009300Y007478D01*
X009251Y007458D02*
X009417Y007458D01*
X009417Y006608D01*
X009157Y006174D02*
X009157Y007112D01*
X009203Y007158D02*
X009300Y007158D01*
X009477Y007410D02*
X009477Y007507D01*
X009513Y007798D02*
X010677Y007798D01*
X010437Y007920D02*
X010437Y006174D01*
X010519Y006198D02*
X007656Y006198D01*
X007557Y006232D02*
X007557Y006305D01*
X007877Y006174D02*
X007877Y007410D01*
X007232Y007458D02*
X007117Y007524D01*
X007117Y008608D01*
X006897Y008438D02*
X005598Y008438D01*
X005637Y008399D02*
X005637Y009870D01*
X005957Y009970D02*
X005957Y009335D01*
X006103Y009398D02*
X005036Y009398D01*
X004817Y009558D02*
X004767Y009608D01*
X004767Y011208D01*
X005017Y011458D01*
X005267Y011458D01*
X005417Y011608D01*
X007267Y011608D01*
X007412Y011463D01*
X007412Y011114D01*
X007018Y011114D02*
X007017Y011113D01*
X007017Y010608D01*
X006667Y010258D01*
X006217Y010258D01*
X006067Y010658D02*
X006717Y010658D01*
X006817Y010758D01*
X006817Y011110D01*
X006821Y011114D01*
X006067Y010658D02*
X005667Y010258D01*
X005367Y010508D02*
X005167Y010508D01*
X005367Y010508D02*
X005517Y010658D01*
X005717Y010658D01*
X005837Y010779D01*
X005837Y011114D01*
X005640Y011114D02*
X005322Y011114D01*
X005217Y011058D01*
X004872Y011882D02*
X004690Y011882D01*
X004667Y011858D01*
X004232Y011858D01*
X003817Y012274D01*
X004183Y012278D02*
X004466Y012278D01*
X004466Y012405D02*
X004466Y012146D01*
X004486Y012126D01*
X004486Y012079D01*
X004533Y012079D01*
X004534Y012079D01*
X004533Y012079D01*
X004486Y012079D01*
X004486Y012078D01*
X004323Y012078D01*
X004183Y012218D01*
X004183Y012561D01*
X004121Y012623D01*
X004133Y012634D01*
X004153Y012669D01*
X004163Y012707D01*
X004163Y012801D01*
X004325Y012638D01*
X004466Y012638D01*
X004466Y012602D01*
X004466Y012405D01*
X004466Y012598D02*
X004146Y012598D01*
X004317Y012658D02*
X004117Y012858D01*
X003901Y012858D01*
X003817Y012943D01*
X003492Y013238D02*
X003325Y013238D01*
X003077Y013212D02*
X003077Y012925D01*
X002757Y012925D02*
X002757Y013212D01*
X002696Y013238D02*
X002600Y013238D01*
X002437Y013212D02*
X002437Y012925D01*
X002757Y013510D02*
X002757Y013607D01*
X003077Y013607D02*
X003077Y013510D01*
X003430Y012598D02*
X003487Y012598D01*
X004317Y012658D02*
X004317Y012258D01*
X004496Y012079D01*
X004872Y012079D01*
X004872Y012276D02*
X005549Y012276D01*
X005567Y012258D01*
X004357Y012078D02*
X004357Y012638D01*
X002745Y010642D02*
X002745Y010311D01*
X002745Y009913D01*
X002688Y009913D01*
X002688Y010311D01*
X002688Y010642D01*
X002745Y010642D01*
X002745Y010358D02*
X002688Y010358D01*
X002688Y010038D02*
X002745Y010038D01*
X002745Y009855D02*
X002745Y009524D01*
X002745Y009125D01*
X002688Y009125D01*
X002688Y009524D01*
X002688Y009855D01*
X002745Y009855D01*
X002745Y009718D02*
X002688Y009718D01*
X002688Y009398D02*
X002745Y009398D01*
X002745Y009067D02*
X002745Y008736D01*
X002745Y008338D01*
X002688Y008338D01*
X002688Y008736D01*
X002688Y009067D01*
X002745Y009067D01*
X002745Y008758D02*
X002688Y008758D01*
X002688Y008438D02*
X002745Y008438D01*
X002745Y008118D02*
X002688Y008118D01*
X002757Y007882D02*
X002757Y007565D01*
X002670Y007478D02*
X002336Y007478D01*
X002437Y007324D02*
X002437Y007984D01*
X002336Y007798D02*
X004683Y007798D01*
X004717Y007478D02*
X004531Y007478D01*
X004357Y007686D02*
X004357Y009407D01*
X004365Y009398D02*
X004117Y009398D01*
X004037Y009318D02*
X004037Y007688D01*
X003717Y007688D02*
X003717Y007913D01*
X003909Y008118D02*
X004645Y008118D01*
X004677Y008087D02*
X004677Y007226D01*
X004663Y007158D02*
X004531Y007158D01*
X004513Y006838D02*
X004663Y006838D01*
X004677Y006743D02*
X004677Y005726D01*
X004663Y005558D02*
X004459Y005558D01*
X004357Y005531D02*
X004357Y005447D01*
X004640Y005238D02*
X004681Y005238D01*
X004677Y005243D02*
X004677Y005210D01*
X004997Y005157D02*
X004997Y004882D01*
X004968Y004918D02*
X006909Y004918D01*
X006917Y004911D02*
X006917Y004605D01*
X006909Y004598D02*
X006765Y004598D01*
X006597Y004625D02*
X006597Y005012D01*
X006500Y005238D02*
X006403Y005238D01*
X006597Y005310D02*
X006597Y005407D01*
X006500Y005558D02*
X006403Y005558D01*
X006277Y005705D02*
X006277Y005892D01*
X006032Y005878D02*
X006910Y005878D01*
X006853Y005558D02*
X006818Y005558D01*
X006597Y005705D02*
X006597Y005892D01*
X006818Y005238D02*
X006853Y005238D01*
X007237Y004864D02*
X007237Y004653D01*
X007376Y004918D02*
X007657Y004918D01*
X007877Y004864D02*
X007877Y004653D01*
X008124Y004598D02*
X008250Y004598D01*
X008250Y004918D02*
X008124Y004918D01*
X008197Y005040D02*
X008197Y003778D01*
X008169Y003958D02*
X008270Y003958D01*
X008517Y003975D02*
X008517Y004072D01*
X008665Y004072D02*
X008665Y003975D01*
X008963Y003975D01*
X008963Y003787D01*
X008961Y003778D01*
X010258Y003778D01*
X010250Y003787D01*
X010250Y003854D01*
X010113Y003854D01*
X010044Y003786D01*
X009589Y003786D01*
X009489Y003885D01*
X009489Y004341D01*
X009572Y004424D01*
X009567Y004426D01*
X009539Y004454D01*
X009519Y004488D01*
X009509Y004526D01*
X009509Y004675D01*
X009788Y004675D01*
X009788Y004732D01*
X009509Y004732D01*
X009509Y004881D01*
X009519Y004919D01*
X009539Y004953D01*
X009567Y004981D01*
X009601Y005001D01*
X009639Y005011D01*
X009788Y005011D01*
X009788Y004733D01*
X009845Y004733D01*
X009845Y005011D01*
X009994Y005011D01*
X010032Y005001D01*
X010066Y004981D01*
X010094Y004953D01*
X010114Y004919D01*
X010124Y004881D01*
X010124Y004732D01*
X009846Y004732D01*
X009846Y004675D01*
X010124Y004675D01*
X010124Y004526D01*
X010114Y004488D01*
X010094Y004454D01*
X010066Y004426D01*
X010061Y004424D01*
X010144Y004341D01*
X010144Y004294D01*
X010250Y004294D01*
X010250Y004361D01*
X010297Y004408D01*
X010250Y004456D01*
X010250Y005030D01*
X010349Y005130D01*
X010397Y005130D01*
X010397Y005467D01*
X010397Y005650D01*
X010421Y005674D01*
X008072Y005674D01*
X008169Y005577D01*
X008169Y005500D01*
X008309Y005500D01*
X008500Y005500D01*
X008712Y005288D01*
X008846Y005154D01*
X008846Y005080D01*
X008884Y005080D01*
X008983Y004980D01*
X008983Y004406D01*
X008921Y004344D01*
X008933Y004332D01*
X008953Y004298D01*
X008963Y004260D01*
X008963Y004072D01*
X008665Y004072D01*
X008837Y004072D02*
X008837Y003975D01*
X008963Y003958D02*
X009489Y003958D01*
X009477Y003778D02*
X009477Y005674D01*
X009797Y005674D02*
X009797Y004733D01*
X009788Y004918D02*
X009845Y004918D01*
X010114Y004918D02*
X010250Y004918D01*
X010117Y004909D02*
X010117Y005674D01*
X010397Y005558D02*
X008169Y005558D01*
X008197Y005500D02*
X008197Y005674D01*
X008517Y005674D02*
X008517Y005484D01*
X008762Y005238D02*
X010397Y005238D01*
X010617Y005558D02*
X010967Y005908D01*
X011077Y005461D02*
X011077Y003778D01*
X010983Y003958D02*
X011381Y003958D01*
X011381Y003947D02*
X011391Y003908D01*
X011411Y003874D01*
X011439Y003846D01*
X011473Y003827D01*
X011511Y003816D01*
X011717Y003816D01*
X011717Y004408D01*
X011817Y004408D01*
X011817Y003816D01*
X012023Y003816D01*
X012061Y003827D01*
X012095Y003846D01*
X012123Y003874D01*
X012143Y003908D01*
X012153Y003947D01*
X012153Y004408D01*
X011817Y004408D01*
X011817Y004508D01*
X012153Y004508D01*
X012153Y004970D01*
X012143Y005008D01*
X012123Y005043D01*
X012095Y005071D01*
X012061Y005090D01*
X012023Y005101D01*
X011817Y005101D01*
X011817Y004509D01*
X011717Y004509D01*
X011717Y005101D01*
X011511Y005101D01*
X011473Y005090D01*
X011439Y005071D01*
X011411Y005043D01*
X011391Y005008D01*
X011381Y004970D01*
X011381Y004508D01*
X011717Y004508D01*
X011717Y004408D01*
X011381Y004408D01*
X011381Y003947D01*
X011397Y003899D02*
X011397Y003778D01*
X011717Y003778D02*
X011717Y003816D01*
X011717Y003958D02*
X011817Y003958D01*
X012037Y003820D02*
X012037Y003778D01*
X012153Y003958D02*
X012660Y003958D01*
X012677Y003879D02*
X012677Y003778D01*
X012357Y003778D02*
X012357Y006138D01*
X012037Y006138D02*
X012037Y005097D01*
X012153Y004918D02*
X012660Y004918D01*
X012677Y005038D02*
X012677Y006138D01*
X012997Y006138D02*
X012997Y005263D01*
X012936Y005238D02*
X010836Y005238D01*
X010617Y005558D02*
X010617Y004743D01*
X010983Y004598D02*
X011381Y004598D01*
X011397Y004508D02*
X011397Y004408D01*
X011381Y004278D02*
X010983Y004278D01*
X010617Y004074D02*
X009856Y004074D01*
X009817Y004113D01*
X009489Y004278D02*
X008958Y004278D01*
X008983Y004598D02*
X009509Y004598D01*
X009519Y004918D02*
X008983Y004918D01*
X008837Y005164D02*
X008837Y005674D01*
X009157Y005674D02*
X009157Y003778D01*
X009797Y003778D02*
X009797Y003786D01*
X010117Y003778D02*
X010117Y003854D01*
X010117Y004368D02*
X010117Y004499D01*
X010124Y004598D02*
X010250Y004598D01*
X010117Y004675D02*
X010117Y004732D01*
X010983Y004918D02*
X011381Y004918D01*
X011397Y005018D02*
X011397Y005544D01*
X011411Y005558D02*
X016415Y005558D01*
X016415Y005507D02*
X016733Y005507D01*
X016733Y005805D01*
X016546Y005805D01*
X016507Y005795D01*
X016473Y005775D01*
X016445Y005747D01*
X016426Y005713D01*
X016415Y005675D01*
X016415Y005507D01*
X016517Y005507D02*
X016517Y005410D01*
X016416Y005238D02*
X016297Y005238D01*
X016197Y005278D02*
X016197Y007388D01*
X016390Y007608D02*
X016406Y007607D01*
X016421Y007603D01*
X016435Y007597D01*
X016449Y007589D01*
X016461Y007579D01*
X016782Y007258D01*
X016517Y006892D02*
X016517Y006725D01*
X016532Y006838D02*
X014758Y006838D01*
X014917Y006997D02*
X014917Y006544D01*
X014855Y006544D02*
X014816Y006534D01*
X014782Y006514D01*
X014754Y006486D01*
X014735Y006452D01*
X014724Y006414D01*
X014724Y006208D01*
X015316Y006208D01*
X015316Y006108D01*
X014724Y006108D01*
X014724Y005902D01*
X014735Y005864D01*
X014754Y005830D01*
X014782Y005802D01*
X014816Y005782D01*
X014855Y005772D01*
X015317Y005772D01*
X015317Y006108D01*
X015416Y006108D01*
X015416Y005772D01*
X015878Y005772D01*
X015917Y005782D01*
X015951Y005802D01*
X015979Y005830D01*
X015998Y005864D01*
X016009Y005902D01*
X016009Y006108D01*
X015417Y006108D01*
X015417Y006208D01*
X016009Y006208D01*
X016009Y006414D01*
X015998Y006452D01*
X015979Y006486D01*
X015951Y006514D01*
X015917Y006534D01*
X015878Y006544D01*
X015416Y006544D01*
X015416Y006208D01*
X015317Y006208D01*
X015317Y006544D01*
X014855Y006544D01*
X014790Y006518D02*
X014438Y006518D01*
X014597Y006677D02*
X014597Y005278D01*
X014917Y005278D02*
X014917Y005772D01*
X014731Y005878D02*
X011414Y005878D01*
X011414Y006198D02*
X011815Y006198D01*
X011717Y006297D02*
X011717Y005101D01*
X011717Y004918D02*
X011817Y004918D01*
X011817Y004598D02*
X011717Y004598D01*
X011717Y004508D02*
X011717Y004408D01*
X011717Y004278D02*
X011817Y004278D01*
X012037Y004408D02*
X012037Y004508D01*
X012153Y004598D02*
X012660Y004598D01*
X012660Y004278D02*
X012153Y004278D01*
X012037Y002938D02*
X012037Y002578D01*
X012357Y002578D02*
X012357Y002938D01*
X012677Y002938D02*
X012677Y002578D01*
X012997Y002578D02*
X012997Y002938D01*
X013317Y002987D02*
X013317Y002578D01*
X013637Y002578D02*
X013637Y004438D01*
X013536Y004278D02*
X015697Y004278D01*
X015557Y004438D02*
X015557Y003839D01*
X015697Y003958D02*
X013536Y003958D01*
X013536Y003638D02*
X014264Y003638D01*
X014268Y003647D02*
X014229Y003570D01*
X014202Y003487D01*
X014190Y003408D01*
X014688Y003408D01*
X014688Y003308D01*
X014190Y003308D01*
X014202Y003230D01*
X014229Y003147D01*
X014268Y003070D01*
X014319Y003000D01*
X014380Y002939D01*
X014450Y002888D01*
X014527Y002849D01*
X014610Y002822D01*
X014689Y002809D01*
X014689Y003308D01*
X014789Y003308D01*
X014789Y003408D01*
X015287Y003408D01*
X015275Y003487D01*
X015248Y003570D01*
X015209Y003647D01*
X015158Y003717D01*
X015097Y003778D01*
X015027Y003829D01*
X014950Y003868D01*
X014867Y003895D01*
X014789Y003907D01*
X014789Y003409D01*
X014689Y003409D01*
X014689Y003907D01*
X014610Y003895D01*
X014527Y003868D01*
X014450Y003829D01*
X014380Y003778D01*
X014319Y003717D01*
X014268Y003647D01*
X014277Y003658D02*
X014277Y004438D01*
X013957Y004438D02*
X013957Y002578D01*
X014277Y002578D02*
X014277Y003059D01*
X014321Y002998D02*
X013345Y002998D01*
X013536Y003318D02*
X014688Y003318D01*
X014597Y003308D02*
X014597Y003408D01*
X014789Y003318D02*
X015547Y003318D01*
X015287Y003308D02*
X014789Y003308D01*
X014789Y002809D01*
X014867Y002822D01*
X014950Y002849D01*
X015027Y002888D01*
X015097Y002939D01*
X015158Y003000D01*
X015209Y003070D01*
X015248Y003147D01*
X015275Y003230D01*
X015287Y003308D01*
X015237Y003308D02*
X015237Y003408D01*
X015237Y003593D02*
X015237Y004438D01*
X014917Y004438D02*
X014917Y003879D01*
X014789Y003638D02*
X014689Y003638D01*
X014597Y003891D02*
X014597Y004438D01*
X015367Y004859D02*
X015766Y004859D01*
X015767Y004858D01*
X015877Y005278D02*
X015877Y005772D01*
X016002Y005878D02*
X017231Y005878D01*
X017157Y005818D02*
X017157Y005999D01*
X017451Y006358D02*
X017451Y005458D01*
X017671Y005878D02*
X018702Y005878D01*
X018520Y005734D02*
X018492Y005762D01*
X018458Y005782D01*
X018420Y005792D01*
X018252Y005792D01*
X018252Y005513D01*
X018550Y005513D01*
X018550Y005662D01*
X018540Y005700D01*
X018520Y005734D01*
X018437Y005787D02*
X018437Y005905D01*
X018194Y005792D02*
X018194Y005513D01*
X018194Y005456D01*
X017896Y005456D01*
X017896Y005307D01*
X017906Y005269D01*
X017926Y005235D01*
X017954Y005207D01*
X017988Y005187D01*
X018026Y005177D01*
X018194Y005177D01*
X018194Y005455D01*
X018252Y005455D01*
X018252Y005177D01*
X018420Y005177D01*
X018458Y005187D01*
X018492Y005207D01*
X018520Y005235D01*
X018540Y005269D01*
X018550Y005307D01*
X018550Y005456D01*
X018252Y005456D01*
X018252Y005513D01*
X018194Y005513D01*
X017896Y005513D01*
X017896Y005662D01*
X017906Y005700D01*
X017926Y005734D01*
X017954Y005762D01*
X017988Y005782D01*
X018026Y005792D01*
X018194Y005792D01*
X018117Y005792D02*
X018117Y005905D01*
X017797Y005982D02*
X017797Y005767D01*
X017838Y005558D02*
X017896Y005558D01*
X018117Y005513D02*
X018117Y005456D01*
X018194Y005558D02*
X018252Y005558D01*
X018437Y005513D02*
X018437Y005456D01*
X018550Y005558D02*
X018775Y005558D01*
X018757Y005576D02*
X018757Y005369D01*
X018821Y005420D02*
X018821Y005420D01*
X018593Y005238D02*
X018522Y005238D01*
X018437Y005181D02*
X018437Y005114D01*
X018395Y005080D02*
X018395Y005080D01*
X018265Y004918D02*
X016536Y004918D01*
X016517Y004990D02*
X016517Y005119D01*
X016733Y005238D02*
X016830Y005238D01*
X016837Y005112D02*
X016837Y003778D01*
X016536Y003958D02*
X017771Y003958D01*
X017797Y004069D02*
X017797Y005150D01*
X017838Y005238D02*
X017924Y005238D01*
X018117Y005177D02*
X018117Y004732D01*
X018055Y004654D02*
X018055Y004654D01*
X018028Y004598D02*
X016536Y004598D01*
X016536Y004278D02*
X017874Y004278D01*
X017477Y003778D02*
X017477Y005092D01*
X017157Y005099D02*
X017157Y003778D01*
X017157Y002938D02*
X017157Y002578D01*
X017477Y002578D02*
X017477Y002938D01*
X017797Y002938D02*
X017797Y002578D01*
X018117Y002578D02*
X018117Y002938D01*
X018345Y002998D02*
X019231Y002998D01*
X019397Y002938D02*
X019397Y002578D01*
X019077Y002578D02*
X019077Y003084D01*
X018885Y003245D02*
X018885Y003245D01*
X018843Y003318D02*
X018536Y003318D01*
X018437Y003084D02*
X018437Y002578D01*
X018757Y002578D02*
X018757Y003468D01*
X018720Y003532D02*
X018720Y003532D01*
X018701Y003638D02*
X018570Y003638D01*
X018662Y003858D02*
X018662Y003858D01*
X018663Y003958D02*
X018680Y003958D01*
X019451Y002918D02*
X019451Y002918D01*
X020513Y003532D02*
X020513Y003532D01*
X020532Y003638D02*
X020897Y003638D01*
X020897Y003958D02*
X020553Y003958D01*
X020513Y004185D02*
X020513Y004185D01*
X020459Y004278D02*
X020897Y004278D01*
X020897Y004598D02*
X020197Y004598D01*
X020037Y004706D02*
X020037Y004934D01*
X019895Y004918D02*
X020897Y004918D01*
X020897Y005238D02*
X020521Y005238D01*
X020677Y005393D02*
X020677Y002665D01*
X020695Y002678D02*
X016859Y002678D01*
X015574Y002678D02*
X002538Y002678D01*
X002342Y002998D02*
X003231Y002998D01*
X003397Y002938D02*
X003397Y002578D01*
X003077Y002578D02*
X003077Y003084D01*
X002885Y003245D02*
X002885Y003245D01*
X002843Y003318D02*
X002336Y003318D01*
X002117Y003066D02*
X002117Y020651D01*
X002336Y020651D02*
X002342Y020728D01*
X002390Y020872D01*
X002479Y020996D01*
X002602Y021085D01*
X002747Y021132D01*
X002824Y021138D01*
X002862Y021138D01*
X002915Y021138D01*
X006374Y021138D01*
X006374Y020778D01*
X005200Y020778D01*
X005033Y020778D01*
X004879Y020714D01*
X004760Y020596D01*
X004697Y020442D01*
X004697Y020358D01*
X004687Y020182D01*
X004608Y019837D01*
X004544Y019703D01*
X004571Y019858D01*
X004571Y019858D01*
X004513Y020185D01*
X004348Y020472D01*
X004094Y020685D01*
X004094Y020685D01*
X003782Y020798D01*
X003704Y020798D01*
X003616Y020798D01*
X003612Y020798D01*
X003530Y020798D01*
X003451Y020798D01*
X003139Y020685D01*
X002885Y020472D01*
X002720Y020185D01*
X002662Y019858D01*
X002720Y019532D01*
X002885Y019245D01*
X002885Y019245D01*
X003139Y019032D01*
X003451Y018918D01*
X003530Y018918D01*
X003617Y018918D01*
X003745Y018918D01*
X003638Y018867D01*
X003293Y018788D01*
X003117Y018778D01*
X003048Y018778D01*
X003033Y018778D01*
X002879Y018714D01*
X002760Y018596D01*
X002697Y018442D01*
X002697Y018324D01*
X002336Y018324D01*
X002336Y020651D01*
X002336Y020598D02*
X003036Y020598D01*
X003077Y020632D02*
X003077Y021138D01*
X003397Y021138D02*
X003397Y020779D01*
X003451Y020798D02*
X003451Y020798D01*
X003717Y020798D02*
X003717Y021138D01*
X004037Y021138D02*
X004037Y020706D01*
X004197Y020598D02*
X004763Y020598D01*
X004997Y020763D02*
X004997Y021138D01*
X005317Y021138D02*
X005317Y020778D01*
X005637Y020778D02*
X005637Y021138D01*
X005957Y021138D02*
X005957Y020778D01*
X006277Y020778D02*
X006277Y021138D01*
X006374Y020918D02*
X002423Y020918D01*
X002437Y020937D02*
X002437Y018324D01*
X002336Y018358D02*
X002697Y018358D01*
X002757Y018587D02*
X002757Y019468D01*
X002720Y019532D02*
X002720Y019532D01*
X002701Y019638D02*
X002336Y019638D01*
X002336Y019318D02*
X002843Y019318D01*
X003077Y019085D02*
X003077Y018778D01*
X002843Y018678D02*
X002336Y018678D01*
X002336Y018998D02*
X003231Y018998D01*
X003139Y019032D02*
X003139Y019032D01*
X003397Y018938D02*
X003397Y018812D01*
X003717Y018905D02*
X003717Y018918D01*
X004531Y018038D02*
X004688Y018038D01*
X004981Y018038D02*
X005039Y018038D01*
X004997Y018203D02*
X004997Y017812D01*
X005317Y017753D02*
X005317Y017999D01*
X005333Y018038D02*
X005532Y018038D01*
X005317Y018204D02*
X005317Y018261D01*
X005337Y018358D02*
X005395Y018358D01*
X005317Y018466D02*
X005317Y019349D01*
X005302Y019318D02*
X005540Y019318D01*
X005637Y019308D02*
X005637Y019208D01*
X005540Y018998D02*
X005127Y018998D01*
X005179Y019063D02*
X005179Y019063D01*
X004997Y018835D02*
X004997Y018261D01*
X004981Y018358D02*
X005039Y018358D01*
X004839Y018636D02*
X004839Y018636D01*
X004872Y018678D02*
X005395Y018678D01*
X005915Y019318D02*
X006015Y019318D01*
X005957Y019309D02*
X005957Y019938D01*
X005637Y019938D02*
X005637Y019714D01*
X005554Y019638D02*
X005434Y019638D01*
X005915Y019638D02*
X006015Y019638D01*
X006277Y019719D02*
X006277Y019938D01*
X006597Y019838D02*
X006597Y018805D01*
X006500Y018678D02*
X006403Y018678D01*
X006597Y018507D02*
X006597Y018410D01*
X006500Y018410D02*
X006818Y018410D01*
X006818Y018242D01*
X006807Y018204D01*
X006788Y018169D01*
X006760Y018142D01*
X006726Y018122D01*
X006687Y018112D01*
X006500Y018112D01*
X006500Y018410D01*
X006500Y018358D02*
X006403Y018358D01*
X006277Y018112D02*
X006277Y018025D01*
X006032Y018038D02*
X007435Y018038D01*
X007557Y018160D02*
X007557Y018438D01*
X007877Y018438D02*
X007877Y018228D01*
X008197Y018228D02*
X008197Y018438D01*
X008517Y018438D02*
X008517Y018228D01*
X008837Y018228D02*
X008837Y018438D01*
X009157Y018438D02*
X009157Y018228D01*
X009477Y018228D02*
X009477Y018438D01*
X009797Y018438D02*
X009797Y018228D01*
X010117Y018228D02*
X010117Y018438D01*
X010437Y018584D02*
X010437Y018228D01*
X010757Y018228D02*
X010757Y019938D01*
X011077Y019938D02*
X011077Y018228D01*
X011077Y017788D02*
X011077Y017731D01*
X011207Y017718D02*
X013595Y017718D01*
X013637Y017677D02*
X013637Y016430D01*
X013317Y016347D02*
X013317Y017997D01*
X013275Y018038D02*
X012658Y018038D01*
X012677Y018057D02*
X012677Y016058D01*
X012815Y016118D02*
X011308Y016118D01*
X011397Y016032D02*
X011397Y017788D01*
X011717Y017788D02*
X011717Y014869D01*
X011617Y014658D02*
X011117Y015158D01*
X010067Y015158D01*
X009967Y015258D01*
X008817Y015258D01*
X008317Y014758D01*
X008317Y013508D01*
X008097Y013878D02*
X007708Y013878D01*
X007557Y013978D02*
X007557Y014265D01*
X007505Y014198D02*
X008097Y014198D01*
X008717Y014258D02*
X009346Y014258D01*
X009361Y014244D01*
X009361Y014638D02*
X009037Y014638D01*
X008917Y014758D01*
X008917Y014958D01*
X009017Y015058D01*
X009817Y015058D01*
X010317Y014558D01*
X010317Y014008D01*
X010467Y013858D01*
X011417Y013858D01*
X011717Y013558D01*
X012517Y013558D01*
X012967Y013108D01*
X012967Y010308D01*
X012767Y010108D01*
X011867Y010108D01*
X011517Y009758D01*
X011517Y006808D01*
X011967Y006358D01*
X013925Y006358D01*
X013996Y006388D02*
X015217Y007608D01*
X016390Y007608D01*
X016395Y007158D02*
X015078Y007158D01*
X015237Y007317D02*
X015237Y006544D01*
X015317Y006518D02*
X015416Y006518D01*
X015557Y006544D02*
X015557Y007388D01*
X015877Y007388D02*
X015877Y006544D01*
X015944Y006518D02*
X016395Y006518D01*
X016395Y006198D02*
X015417Y006198D01*
X015316Y006198D02*
X014118Y006198D01*
X013989Y006138D02*
X013989Y006138D01*
X013957Y006138D02*
X013957Y005278D01*
X014277Y005278D02*
X014277Y006357D01*
X013996Y006387D02*
X013984Y006377D01*
X013970Y006369D01*
X013956Y006363D01*
X013941Y006359D01*
X013925Y006358D01*
X013867Y006558D02*
X012117Y006558D01*
X011717Y006958D01*
X011717Y009058D01*
X012296Y009638D01*
X012311Y009638D01*
X012887Y009638D01*
X013217Y009308D01*
X013217Y007743D01*
X013267Y007693D01*
X013633Y007798D02*
X014395Y007798D01*
X014277Y007679D02*
X014277Y008237D01*
X014297Y008217D02*
X014425Y008088D01*
X014685Y008088D01*
X013825Y007228D01*
X013633Y007228D01*
X013633Y007311D01*
X013586Y007358D01*
X013633Y007406D01*
X013633Y007980D01*
X013534Y008080D01*
X013436Y008080D01*
X013436Y009400D01*
X013308Y009528D01*
X012978Y009858D01*
X012861Y009858D01*
X012861Y009892D01*
X012986Y010017D01*
X012986Y010017D01*
X013058Y010088D01*
X013066Y010097D01*
X013597Y009567D01*
X013597Y009100D01*
X013597Y008917D01*
X014297Y008217D01*
X014297Y008217D01*
X014395Y008118D02*
X013436Y008118D01*
X013436Y008438D02*
X014075Y008438D01*
X013957Y008557D02*
X013957Y007359D01*
X014075Y007478D02*
X013633Y007478D01*
X013637Y007228D02*
X013637Y008877D01*
X013755Y008758D02*
X013436Y008758D01*
X013436Y009078D02*
X013597Y009078D01*
X013817Y009008D02*
X014517Y008308D01*
X016517Y008308D01*
X017317Y009108D01*
X017317Y010685D01*
X016656Y010685D01*
X016567Y010774D01*
X016567Y010163D01*
X016517Y009835D02*
X016517Y009782D01*
X016404Y009782D02*
X016351Y009835D01*
X016873Y009835D01*
X016973Y009935D01*
X016973Y010391D01*
X016905Y010458D01*
X016911Y010465D01*
X017028Y010465D01*
X017028Y010181D01*
X017097Y010113D01*
X017097Y009200D01*
X016425Y008528D01*
X014608Y008528D01*
X014249Y008887D01*
X014734Y008887D01*
X014833Y008987D01*
X014833Y009054D01*
X014950Y009054D01*
X014950Y008987D01*
X015049Y008887D01*
X015584Y008887D01*
X015683Y008987D01*
X015683Y009054D01*
X015773Y009054D01*
X015908Y009188D01*
X016036Y009317D01*
X016036Y009527D01*
X016160Y009404D01*
X016160Y009226D01*
X016260Y009127D01*
X016873Y009127D01*
X016973Y009226D01*
X016973Y009682D01*
X016873Y009782D01*
X016404Y009782D01*
X016401Y009474D02*
X016067Y009808D01*
X016067Y010358D01*
X016217Y010508D01*
X016217Y011358D01*
X016317Y011458D01*
X016551Y011458D01*
X016567Y011443D01*
X016701Y011308D01*
X017717Y011308D01*
X017817Y011208D01*
X017817Y009593D01*
X017817Y010685D01*
X018018Y011318D02*
X018251Y011318D01*
X018189Y011638D02*
X016933Y011638D01*
X017157Y011688D02*
X017157Y011528D01*
X017477Y011528D02*
X017477Y011688D01*
X017797Y011777D02*
X017797Y011528D01*
X017517Y012108D02*
X017817Y012408D01*
X017817Y012732D01*
X017817Y013543D01*
X017451Y013908D01*
X017517Y013843D01*
X017451Y013908D02*
X017471Y014708D01*
X017867Y015058D02*
X017667Y015258D01*
X016067Y015258D01*
X015401Y014593D01*
X013667Y014593D01*
X013667Y015374D01*
X013300Y015478D02*
X012861Y015478D01*
X012997Y015677D02*
X012997Y014128D01*
X012872Y014198D02*
X013300Y014198D01*
X013317Y014228D02*
X013317Y014289D01*
X013300Y014518D02*
X012872Y014518D01*
X012677Y014678D02*
X012677Y015218D01*
X012646Y015638D02*
X013067Y016058D01*
X013651Y016058D01*
X013667Y016043D01*
X017582Y016043D01*
X017797Y016139D02*
X017797Y016538D01*
X017942Y016438D02*
X011333Y016438D01*
X010967Y016308D02*
X010971Y016758D01*
X010967Y016813D01*
X010639Y016758D02*
X010144Y016758D01*
X010117Y016558D02*
X010117Y016557D01*
X010183Y016438D02*
X010600Y016438D01*
X010625Y016118D02*
X010158Y016118D01*
X010117Y016060D02*
X010117Y015419D01*
X010437Y015378D02*
X010437Y017588D01*
X010639Y017398D02*
X010144Y017398D01*
X010117Y017148D02*
X010117Y017068D01*
X010107Y017078D02*
X010676Y017078D01*
X009817Y016813D02*
X009817Y016308D01*
X009797Y015920D02*
X009797Y015478D01*
X009477Y015478D02*
X009477Y016115D01*
X009475Y016118D02*
X009037Y016118D01*
X008837Y016360D02*
X008837Y016457D01*
X008837Y016755D02*
X008837Y017388D01*
X009157Y017388D02*
X009157Y015478D01*
X008822Y015798D02*
X010439Y015798D01*
X009767Y014797D02*
X010097Y014467D01*
X010097Y014100D01*
X010097Y013989D01*
X010008Y014078D01*
X009767Y014078D01*
X009767Y014115D01*
X009767Y014312D01*
X009767Y014508D01*
X009767Y014705D01*
X009767Y014797D01*
X009797Y014767D02*
X009797Y014078D01*
X009767Y014198D02*
X010097Y014198D01*
X009917Y013858D02*
X009369Y013858D01*
X009361Y013851D01*
X009361Y013654D02*
X009562Y013654D01*
X009567Y013658D01*
X009817Y013658D01*
X010017Y013458D01*
X010017Y012924D01*
X010367Y012574D01*
X010401Y012574D01*
X010617Y012358D01*
X010617Y012158D01*
X010789Y011986D01*
X010868Y011986D01*
X010801Y012485D02*
X010733Y012553D01*
X010733Y012861D01*
X010671Y012923D01*
X010683Y012934D01*
X010703Y012969D01*
X010713Y013007D01*
X010713Y013195D01*
X010415Y013195D01*
X010415Y013291D01*
X010713Y013291D01*
X010713Y013438D01*
X010958Y013438D01*
X010895Y013376D01*
X010895Y012841D01*
X010990Y012747D01*
X010990Y012485D01*
X010801Y012485D01*
X010757Y012529D02*
X010757Y013438D01*
X010895Y013238D02*
X010415Y013238D01*
X010437Y013195D02*
X010437Y013291D01*
X010117Y013658D02*
X011267Y013658D01*
X011417Y013508D01*
X011417Y013293D01*
X011282Y013108D01*
X011232Y013058D01*
X011232Y012548D01*
X010990Y012598D02*
X010733Y012598D01*
X010676Y012918D02*
X010895Y012918D01*
X011217Y013108D02*
X011282Y013108D01*
X011489Y012568D02*
X011522Y012568D01*
X011744Y012568D01*
X011744Y012567D01*
X011522Y012567D01*
X011489Y012567D01*
X011489Y012568D01*
X011717Y012567D02*
X011717Y012568D01*
X011744Y012567D02*
X012000Y012567D01*
X012001Y012567D02*
X012001Y012568D01*
X012223Y012568D01*
X012223Y012735D01*
X012214Y012769D01*
X012226Y012772D01*
X012260Y012792D01*
X012288Y012819D01*
X012307Y012854D01*
X012318Y012892D01*
X012318Y013060D01*
X012000Y013060D01*
X012000Y013157D01*
X012318Y013157D01*
X012318Y013325D01*
X012314Y013338D01*
X012425Y013338D01*
X012747Y013017D01*
X012747Y010883D01*
X012726Y010895D01*
X012687Y010905D01*
X012500Y010905D01*
X012500Y010607D01*
X012403Y010607D01*
X012403Y010905D01*
X012215Y010905D01*
X012177Y010895D01*
X012154Y010882D01*
X012243Y010971D01*
X012243Y011232D01*
X012504Y011232D01*
X012603Y011331D01*
X012603Y011516D01*
X012611Y011518D01*
X012646Y011538D01*
X012673Y011566D01*
X012693Y011600D01*
X012703Y011638D01*
X012703Y011730D01*
X012366Y011730D01*
X012366Y011731D01*
X012365Y011731D01*
X012365Y011764D01*
X012365Y011986D01*
X012366Y011986D01*
X012366Y011987D01*
X012703Y011987D01*
X012703Y012079D01*
X012693Y012117D01*
X012673Y012151D01*
X012646Y012179D01*
X012611Y012199D01*
X012603Y012201D01*
X012603Y012386D01*
X012504Y012485D01*
X012223Y012485D01*
X012223Y012567D01*
X012001Y012567D01*
X012037Y012567D02*
X012037Y012568D01*
X012223Y012598D02*
X012747Y012598D01*
X012747Y012918D02*
X012318Y012918D01*
X012037Y013060D02*
X012037Y013157D01*
X012318Y013238D02*
X012525Y013238D01*
X012357Y013338D02*
X012357Y012485D01*
X012603Y012278D02*
X012747Y012278D01*
X012677Y012146D02*
X012677Y013087D01*
X013167Y013208D02*
X012617Y013758D01*
X011817Y013758D01*
X011617Y013958D01*
X011617Y014658D01*
X012311Y015638D02*
X012646Y015638D01*
X013118Y015798D02*
X013300Y015798D01*
X013317Y015739D02*
X013317Y015678D01*
X012997Y016278D02*
X012997Y018238D01*
X013167Y018458D02*
X014467Y017158D01*
X015167Y017158D01*
X015367Y016958D01*
X014917Y016938D02*
X014917Y016263D01*
X014597Y016263D02*
X014597Y016938D01*
X014277Y017967D02*
X014277Y018140D01*
X014420Y018038D02*
X013898Y018038D01*
X013957Y017979D02*
X013957Y018557D01*
X013915Y018678D02*
X013818Y018678D01*
X013637Y018561D02*
X013637Y018299D01*
X013578Y018358D02*
X014164Y018358D01*
X014443Y018547D02*
X014443Y019017D01*
X014721Y018678D02*
X014912Y018678D01*
X014917Y018857D02*
X014917Y019184D01*
X014821Y019318D02*
X014812Y019318D01*
X015237Y019164D02*
X015237Y018953D01*
X015469Y018678D02*
X015572Y018678D01*
X015557Y018406D02*
X015557Y019299D01*
X015535Y018358D02*
X015481Y018358D01*
X015557Y018191D02*
X015557Y018134D01*
X015530Y018134D02*
X015530Y017986D01*
X015541Y017947D01*
X015560Y017913D01*
X015588Y017885D01*
X015622Y017866D01*
X015661Y017855D01*
X015888Y017855D01*
X015888Y018134D01*
X015530Y018134D01*
X015530Y018038D02*
X015481Y018038D01*
X015557Y017920D02*
X015557Y017748D01*
X015877Y017782D02*
X015877Y017855D01*
X015888Y018038D02*
X015945Y018038D01*
X015877Y018134D02*
X015877Y018191D01*
X015888Y018358D02*
X015945Y018358D01*
X016197Y018191D02*
X016197Y018134D01*
X016303Y018038D02*
X016395Y018038D01*
X016197Y017862D02*
X016197Y017782D01*
X016286Y017718D02*
X016532Y017718D01*
X016517Y017792D02*
X016517Y017625D01*
X016395Y017398D02*
X016323Y017398D01*
X016702Y016867D02*
X016702Y016867D01*
X017157Y016899D02*
X017157Y016263D01*
X017157Y015823D02*
X017157Y015478D01*
X017477Y015478D02*
X017477Y015823D01*
X017491Y015823D02*
X017747Y015567D01*
X017747Y015534D01*
X017747Y015478D01*
X017575Y015478D01*
X015975Y015478D01*
X015847Y015350D01*
X015310Y014813D01*
X014033Y014813D01*
X014033Y014880D01*
X013934Y014980D01*
X013886Y014980D01*
X013886Y014987D01*
X013934Y014987D01*
X014033Y015087D01*
X014033Y015661D01*
X013986Y015708D01*
X014033Y015756D01*
X014033Y015823D01*
X017491Y015823D01*
X017515Y015798D02*
X014033Y015798D01*
X014277Y015823D02*
X014277Y014813D01*
X014033Y014838D02*
X015335Y014838D01*
X015237Y014813D02*
X015237Y015823D01*
X015557Y015823D02*
X015557Y015060D01*
X015655Y015158D02*
X014033Y015158D01*
X013957Y015010D02*
X013957Y014957D01*
X014033Y015478D02*
X017747Y015478D01*
X017867Y015058D02*
X017867Y013858D01*
X017317Y013158D02*
X017117Y013358D01*
X016917Y013358D01*
X016782Y013493D01*
X016782Y013908D01*
X016762Y014708D01*
X016435Y014838D02*
X015958Y014838D01*
X015877Y014757D02*
X015877Y014275D01*
X016197Y014217D02*
X016197Y015038D01*
X015877Y015380D02*
X015877Y015823D01*
X016197Y015823D02*
X016197Y015478D01*
X016517Y015478D02*
X016517Y015823D01*
X016837Y015823D02*
X016837Y015478D01*
X016197Y016263D02*
X016197Y016738D01*
X015877Y016738D02*
X015877Y016263D01*
X014917Y015823D02*
X014917Y014813D01*
X014597Y014813D02*
X014597Y015823D01*
X015638Y014518D02*
X016435Y014518D01*
X016517Y014320D02*
X016517Y014275D01*
X016418Y014198D02*
X016215Y014198D01*
X016238Y013878D02*
X016395Y013878D01*
X016317Y013443D02*
X015851Y013908D01*
X015877Y013542D02*
X015877Y013473D01*
X015557Y013473D02*
X015557Y013549D01*
X015547Y013558D02*
X014736Y013558D01*
X014597Y013520D02*
X014597Y012996D01*
X014636Y012918D02*
X014887Y012918D01*
X014917Y013084D02*
X014917Y013569D01*
X015237Y013562D02*
X015237Y013404D01*
X015071Y013238D02*
X014446Y013238D01*
X013986Y013238D02*
X013386Y013238D01*
X013317Y013369D02*
X013317Y013620D01*
X013378Y013558D02*
X013128Y013558D01*
X013167Y013208D02*
X013167Y010308D01*
X013817Y009658D01*
X013817Y009008D01*
X014058Y009078D02*
X014100Y009078D01*
X014277Y008887D02*
X014277Y008859D01*
X014378Y008758D02*
X016655Y008758D01*
X016517Y008620D02*
X016517Y009127D01*
X016837Y009127D02*
X016837Y008940D01*
X016975Y009078D02*
X015798Y009078D01*
X015877Y009157D02*
X015877Y008528D01*
X016197Y008528D02*
X016197Y009190D01*
X016160Y009398D02*
X016036Y009398D01*
X016401Y009474D02*
X016567Y009454D01*
X016973Y009398D02*
X017097Y009398D01*
X017097Y009718D02*
X016936Y009718D01*
X016837Y009782D02*
X016837Y009835D01*
X016973Y010038D02*
X017097Y010038D01*
X017028Y010358D02*
X016973Y010358D01*
X018183Y009718D02*
X018270Y009718D01*
X018437Y009641D02*
X018437Y009545D01*
X018270Y009398D02*
X018183Y009398D01*
X017817Y008924D02*
X017817Y008258D01*
X017417Y007858D01*
X015167Y007858D01*
X013867Y006558D01*
X013917Y007008D02*
X013282Y007008D01*
X013267Y007024D01*
X012367Y007024D01*
X012733Y007244D02*
X012733Y007311D01*
X012686Y007358D01*
X012733Y007406D01*
X012733Y007838D01*
X012772Y007838D01*
X012872Y007938D01*
X012872Y008578D01*
X012772Y008678D01*
X011936Y008678D01*
X011936Y008967D01*
X012187Y009218D01*
X012762Y009218D01*
X012861Y009318D01*
X012861Y009352D01*
X012997Y009217D01*
X012997Y008077D01*
X012900Y007980D01*
X012900Y007406D01*
X012947Y007358D01*
X012900Y007311D01*
X012900Y007244D01*
X012733Y007244D01*
X012733Y007478D02*
X012900Y007478D01*
X012900Y007798D02*
X012733Y007798D01*
X012872Y008118D02*
X012997Y008118D01*
X012997Y008438D02*
X012872Y008438D01*
X012677Y008678D02*
X012677Y009218D01*
X012997Y009078D02*
X012048Y009078D01*
X012037Y009067D02*
X012037Y008678D01*
X011936Y008758D02*
X012997Y008758D01*
X012357Y008678D02*
X012357Y009218D01*
X012997Y009839D02*
X012997Y010027D01*
X013008Y010038D02*
X013125Y010038D01*
X013058Y010088D02*
X013058Y010088D01*
X013317Y009847D02*
X013317Y009519D01*
X013436Y009398D02*
X013597Y009398D01*
X013445Y009718D02*
X013118Y009718D01*
X013637Y010149D02*
X013637Y013537D01*
X014597Y014296D02*
X014597Y014373D01*
X014825Y014198D02*
X014846Y014198D01*
X014917Y014247D02*
X014917Y014373D01*
X015133Y014198D02*
X015230Y014198D01*
X015237Y014255D02*
X015237Y014373D01*
X015557Y014437D02*
X015557Y014268D01*
X016317Y013443D02*
X016317Y013243D01*
X016317Y012574D02*
X016782Y012108D01*
X017517Y012108D01*
X017317Y012732D02*
X017317Y013158D01*
X017247Y013008D02*
X016917Y013008D01*
X017247Y013008D02*
X017247Y012802D01*
X017317Y012732D01*
X016451Y012128D02*
X016408Y012128D01*
X016225Y012128D01*
X015925Y011828D01*
X015811Y011714D01*
X015371Y011714D01*
X015346Y011738D01*
X015346Y011976D01*
X015548Y011976D01*
X015548Y012456D01*
X015648Y012456D01*
X015648Y011976D01*
X015867Y011976D01*
X015906Y011986D01*
X015940Y012006D01*
X015968Y012034D01*
X015987Y012068D01*
X015998Y012106D01*
X015998Y012239D01*
X016049Y012187D01*
X016392Y012187D01*
X016451Y012128D01*
X016197Y012100D02*
X016197Y012187D01*
X016055Y011958D02*
X015346Y011958D01*
X015557Y011714D02*
X015557Y012456D01*
X015548Y012278D02*
X015648Y012278D01*
X015877Y011979D02*
X015877Y011780D01*
X015596Y011164D02*
X015596Y010223D01*
X015317Y009943D01*
X014950Y010038D02*
X014833Y010038D01*
X014597Y010330D02*
X014597Y010663D01*
X014612Y010678D02*
X015211Y010678D01*
X015237Y010653D02*
X015237Y010330D01*
X015376Y010358D02*
X014436Y010358D01*
X014216Y010193D02*
X014216Y011153D01*
X014636Y010998D02*
X015176Y010998D01*
X015116Y011318D02*
X014636Y011318D01*
X014917Y011518D02*
X014917Y009494D01*
X014950Y009718D02*
X014833Y009718D01*
X014467Y009943D02*
X014216Y010193D01*
X014060Y010038D02*
X013748Y010038D01*
X013996Y010358D02*
X013428Y010358D01*
X012677Y010905D02*
X012677Y011571D01*
X012717Y011608D02*
X012717Y011158D01*
X012467Y010908D01*
X012357Y010905D02*
X012357Y011232D01*
X012591Y011318D02*
X012747Y011318D01*
X012717Y011608D02*
X012594Y011730D01*
X012366Y011730D01*
X012366Y011986D01*
X012703Y011986D01*
X012703Y011894D01*
X012694Y011858D01*
X012703Y011823D01*
X012703Y011731D01*
X012366Y011731D01*
X012366Y011764D01*
X012366Y011986D01*
X012365Y011958D02*
X012366Y011958D01*
X012677Y011986D02*
X012677Y011987D01*
X012703Y011958D02*
X012747Y011958D01*
X012677Y011731D02*
X012677Y011730D01*
X012703Y011638D02*
X012747Y011638D01*
X012747Y010998D02*
X012243Y010998D01*
X012403Y010678D02*
X012500Y010678D01*
X011782Y010558D02*
X010801Y010558D01*
X010757Y010925D02*
X010757Y011232D01*
X010609Y011232D02*
X010990Y011232D01*
X010990Y010971D01*
X011036Y010925D01*
X010589Y010925D01*
X010603Y010949D01*
X010613Y010987D01*
X010613Y011175D01*
X010315Y011175D01*
X010315Y011272D01*
X010569Y011272D01*
X010609Y011232D01*
X010437Y011272D02*
X010437Y011175D01*
X010218Y011175D02*
X009920Y011175D01*
X009920Y010987D01*
X009930Y010949D01*
X009950Y010915D01*
X009960Y010905D01*
X009896Y010905D01*
X009857Y010895D01*
X009823Y010875D01*
X009795Y010847D01*
X009776Y010813D01*
X009765Y010775D01*
X009765Y010607D01*
X010083Y010607D01*
X010083Y010510D01*
X009765Y010510D01*
X009765Y010413D01*
X009566Y010612D01*
X009566Y011653D01*
X009667Y011653D01*
X009767Y011753D01*
X009767Y011947D01*
X009900Y011814D01*
X009900Y011606D01*
X009962Y011544D01*
X009950Y011532D01*
X009930Y011498D01*
X009920Y011460D01*
X009920Y011272D01*
X010218Y011272D01*
X010218Y011175D01*
X010117Y011175D02*
X010117Y011272D01*
X009920Y011318D02*
X009566Y011318D01*
X009566Y010998D02*
X009920Y010998D01*
X009797Y010849D02*
X009797Y011917D01*
X009817Y012208D02*
X009817Y013358D01*
X009718Y013457D01*
X009361Y013457D01*
X009917Y013858D02*
X010117Y013658D01*
X010045Y014518D02*
X009767Y014518D01*
X008396Y015603D02*
X008396Y015988D01*
X008199Y016026D02*
X007967Y016258D01*
X008032Y016408D02*
X007967Y016424D01*
X008199Y016026D02*
X008199Y015603D01*
X008002Y015603D02*
X008002Y015208D01*
X008002Y015094D01*
X008002Y014994D01*
X007917Y014908D01*
X007017Y015158D02*
X006817Y014958D01*
X007017Y015158D02*
X007017Y015601D01*
X007018Y015603D01*
X006446Y014838D02*
X006205Y014838D01*
X006017Y016358D02*
X005617Y016358D01*
X006017Y016358D02*
X006451Y016793D01*
X006838Y016758D02*
X006855Y016758D01*
X006917Y016820D02*
X006917Y018487D01*
X006818Y018358D02*
X011888Y018358D01*
X011717Y018228D02*
X011717Y018616D01*
X011722Y018616D02*
X011760Y018627D01*
X011794Y018646D01*
X011822Y018674D01*
X011842Y018708D01*
X011852Y018747D01*
X011852Y019208D01*
X011516Y019208D01*
X011516Y018616D01*
X011722Y018616D01*
X011825Y018678D02*
X011900Y018678D01*
X011900Y018998D02*
X011852Y018998D01*
X011717Y019208D02*
X011717Y019308D01*
X011852Y019308D02*
X011516Y019308D01*
X011516Y019208D01*
X011416Y019208D01*
X011416Y018616D01*
X011210Y018616D01*
X011172Y018627D01*
X011138Y018646D01*
X011110Y018674D01*
X011090Y018708D01*
X011080Y018747D01*
X011080Y019208D01*
X011416Y019208D01*
X011416Y019308D01*
X011080Y019308D01*
X011080Y019770D01*
X011090Y019808D01*
X011110Y019843D01*
X011138Y019871D01*
X011172Y019890D01*
X011210Y019901D01*
X011416Y019901D01*
X011416Y019309D01*
X011516Y019309D01*
X011516Y019901D01*
X011722Y019901D01*
X011760Y019890D01*
X011794Y019871D01*
X011822Y019843D01*
X011842Y019808D01*
X011852Y019770D01*
X011852Y019308D01*
X011852Y019318D02*
X011930Y019318D01*
X012037Y019545D02*
X012037Y019641D01*
X012218Y019638D02*
X011852Y019638D01*
X011717Y019901D02*
X011717Y019938D01*
X011397Y019938D02*
X011397Y019901D01*
X011416Y019638D02*
X011516Y019638D01*
X011516Y019318D02*
X011416Y019318D01*
X011397Y019308D02*
X011397Y019208D01*
X011416Y018998D02*
X011516Y018998D01*
X011516Y018678D02*
X011416Y018678D01*
X011397Y018616D02*
X011397Y018228D01*
X011107Y018678D02*
X010556Y018678D01*
X010573Y018998D02*
X011080Y018998D01*
X011080Y019318D02*
X010573Y019318D01*
X010573Y019638D02*
X011080Y019638D01*
X012267Y018924D02*
X012267Y018458D01*
X012357Y017788D02*
X012357Y016058D01*
X012037Y016058D02*
X012037Y017788D01*
X013017Y019758D02*
X012967Y019808D01*
X013017Y019758D02*
X013267Y019758D01*
X014721Y018358D02*
X014901Y018358D01*
X014901Y018038D02*
X014613Y018038D01*
X014597Y018045D02*
X014597Y018140D01*
X016733Y018998D02*
X016830Y018998D01*
X017157Y019418D02*
X017157Y019938D01*
X017477Y019938D02*
X017477Y019425D01*
X017818Y019554D02*
X017818Y019554D01*
X018570Y018038D02*
X018702Y018038D01*
X018437Y017905D02*
X018437Y017787D01*
X018420Y017792D02*
X018252Y017792D01*
X018252Y017513D01*
X018550Y017513D01*
X018550Y017662D01*
X018540Y017700D01*
X018520Y017734D01*
X018492Y017762D01*
X018458Y017782D01*
X018420Y017792D01*
X018529Y017718D02*
X018702Y017718D01*
X018550Y017456D02*
X018550Y017307D01*
X018540Y017269D01*
X018520Y017235D01*
X018492Y017207D01*
X018458Y017187D01*
X018420Y017177D01*
X018252Y017177D01*
X018252Y017455D01*
X018194Y017455D01*
X018194Y017177D01*
X018026Y017177D01*
X017988Y017187D01*
X017954Y017207D01*
X017926Y017235D01*
X017906Y017269D01*
X017896Y017307D01*
X017896Y017456D01*
X018194Y017456D01*
X018194Y017513D01*
X017896Y017513D01*
X017896Y017662D01*
X017906Y017700D01*
X017926Y017734D01*
X017954Y017762D01*
X017988Y017782D01*
X018026Y017792D01*
X018194Y017792D01*
X018194Y017513D01*
X018252Y017513D01*
X018252Y017456D01*
X018550Y017456D01*
X018550Y017398D02*
X018720Y017398D01*
X018437Y017456D02*
X018437Y017513D01*
X018252Y017398D02*
X018194Y017398D01*
X018117Y017456D02*
X018117Y017513D01*
X018194Y017718D02*
X018252Y017718D01*
X018117Y017792D02*
X018117Y017905D01*
X017917Y017718D02*
X017701Y017718D01*
X017797Y017850D02*
X017797Y017567D01*
X017838Y017398D02*
X017896Y017398D01*
X018117Y017177D02*
X018117Y017060D01*
X017950Y017078D02*
X018720Y017078D01*
X018437Y017060D02*
X018437Y017181D01*
X018570Y016758D02*
X018720Y016758D01*
X018702Y016438D02*
X018504Y016438D01*
X018437Y016405D02*
X018437Y016287D01*
X018550Y016118D02*
X018715Y016118D01*
X018757Y016076D02*
X018757Y015263D01*
X018437Y015430D02*
X018437Y015681D01*
X018548Y015798D02*
X020897Y015798D01*
X020897Y015478D02*
X018242Y015478D01*
X018252Y015798D02*
X018194Y015798D01*
X018437Y015956D02*
X018437Y016013D01*
X018252Y016118D02*
X018194Y016118D01*
X018117Y016292D02*
X018117Y016405D01*
X017896Y016118D02*
X017818Y016118D01*
X019077Y016028D02*
X019077Y015430D01*
X019397Y015430D02*
X019397Y016028D01*
X019397Y016688D02*
X019397Y017630D01*
X019397Y017718D02*
X019720Y017718D01*
X019717Y017727D02*
X019717Y016688D01*
X020037Y016688D02*
X020037Y017438D01*
X020157Y017398D02*
X019380Y017398D01*
X019380Y017078D02*
X020150Y017078D01*
X020150Y016758D02*
X019380Y016758D01*
X020848Y014838D02*
X020897Y014838D01*
X020897Y014518D02*
X020848Y014518D01*
X020897Y014198D02*
X020795Y014198D01*
X020888Y013878D02*
X020897Y013878D01*
X020888Y013558D02*
X020897Y013558D01*
X020247Y014198D02*
X020086Y014198D01*
X018317Y012732D02*
X018317Y012208D01*
X018217Y012108D01*
X019077Y010133D02*
X019077Y007688D01*
X019397Y007688D02*
X019397Y010082D01*
X019717Y010082D02*
X019717Y009728D01*
X019713Y009718D02*
X018963Y009718D01*
X018983Y009078D02*
X020153Y009078D01*
X020037Y009170D02*
X020037Y008896D01*
X019768Y008758D02*
X018983Y008758D01*
X018757Y008537D02*
X018757Y007640D01*
X018702Y007478D02*
X018544Y007478D01*
X018437Y007405D02*
X018437Y007287D01*
X018420Y007292D02*
X018252Y007292D01*
X018252Y007013D01*
X018550Y007013D01*
X018550Y007162D01*
X018540Y007200D01*
X018520Y007234D01*
X018492Y007262D01*
X018458Y007282D01*
X018420Y007292D01*
X018550Y007158D02*
X018702Y007158D01*
X018550Y006956D02*
X018550Y006807D01*
X018540Y006769D01*
X018520Y006735D01*
X018492Y006707D01*
X018458Y006687D01*
X018420Y006677D01*
X018252Y006677D01*
X018252Y006955D01*
X018194Y006955D01*
X018194Y006677D01*
X018026Y006677D01*
X017988Y006687D01*
X017954Y006707D01*
X017926Y006735D01*
X017906Y006769D01*
X017896Y006807D01*
X017896Y006956D01*
X018194Y006956D01*
X018194Y007013D01*
X017896Y007013D01*
X017896Y007162D01*
X017906Y007200D01*
X017926Y007234D01*
X017954Y007262D01*
X017988Y007282D01*
X018026Y007292D01*
X018194Y007292D01*
X018194Y007013D01*
X018252Y007013D01*
X018252Y006956D01*
X018550Y006956D01*
X018437Y006956D02*
X018437Y007013D01*
X018550Y006838D02*
X018720Y006838D01*
X018720Y006518D02*
X018512Y006518D01*
X018437Y006560D02*
X018437Y006681D01*
X018252Y006838D02*
X018194Y006838D01*
X018117Y006956D02*
X018117Y007013D01*
X018194Y007158D02*
X018252Y007158D01*
X018117Y007292D02*
X018117Y007405D01*
X017902Y007478D02*
X017890Y007478D01*
X017896Y007158D02*
X017838Y007158D01*
X017797Y006950D02*
X017797Y006667D01*
X017838Y006518D02*
X017934Y006518D01*
X018117Y006560D02*
X018117Y006677D01*
X017896Y006838D02*
X017681Y006838D01*
X018570Y006198D02*
X018720Y006198D01*
X019380Y006198D02*
X019863Y006198D01*
X019879Y006214D02*
X019760Y006096D01*
X019697Y005942D01*
X019697Y005745D01*
X019397Y005676D01*
X019397Y006086D01*
X019380Y006103D01*
X019380Y007028D01*
X019799Y007028D01*
X020150Y006615D01*
X020150Y006406D01*
X020197Y006358D01*
X020150Y006311D01*
X020150Y006278D01*
X020033Y006278D01*
X019879Y006214D01*
X020037Y006278D02*
X020037Y006748D01*
X019960Y006838D02*
X019380Y006838D01*
X019397Y007028D02*
X019397Y006086D01*
X019397Y005878D02*
X019697Y005878D01*
X019717Y005990D02*
X019717Y007028D01*
X019380Y006518D02*
X020150Y006518D01*
X020677Y007324D02*
X020677Y007893D01*
X020897Y007798D02*
X018570Y007798D01*
X018437Y008060D02*
X018437Y008537D01*
X018617Y008924D02*
X017817Y008924D01*
X018117Y008570D02*
X018117Y008060D01*
X017988Y008118D02*
X020153Y008118D01*
X020037Y008120D02*
X020037Y007682D01*
X020282Y007478D02*
X020897Y007478D01*
X020357Y007391D02*
X020357Y007893D01*
X020717Y008358D02*
X020367Y008508D01*
X020067Y008508D01*
X019717Y008339D02*
X019717Y007688D01*
X019678Y008438D02*
X018036Y008438D01*
X017367Y008408D02*
X017067Y008108D01*
X015017Y008108D01*
X013917Y007008D01*
X013637Y006138D02*
X013637Y005278D01*
X013317Y005278D02*
X013317Y006138D01*
X014917Y006108D02*
X014917Y006208D01*
X015237Y006208D02*
X015237Y006108D01*
X015317Y005878D02*
X015416Y005878D01*
X015557Y005772D02*
X015557Y005278D01*
X015237Y005278D02*
X015237Y005772D01*
X015557Y006108D02*
X015557Y006208D01*
X015877Y006208D02*
X015877Y006108D01*
X016517Y005992D02*
X016517Y005797D01*
X016837Y005805D02*
X016837Y005992D01*
X016830Y005558D02*
X016733Y005558D01*
X018194Y005238D02*
X018252Y005238D01*
X019717Y004878D02*
X019717Y004798D01*
X019782Y004798D02*
X019782Y004798D01*
X020357Y005004D02*
X020357Y004457D01*
X020348Y004472D02*
X020348Y004472D01*
X019717Y008678D02*
X019717Y009389D01*
X020037Y009946D02*
X020037Y010113D01*
X020357Y008893D02*
X020357Y008824D01*
X020677Y008824D02*
X020677Y008893D01*
X015557Y008887D02*
X015557Y008528D01*
X015237Y008528D02*
X015237Y008887D01*
X014917Y009054D02*
X014917Y008528D01*
X014597Y008539D02*
X014597Y008887D01*
X014100Y009398D02*
X014036Y009398D01*
X014597Y008088D02*
X014597Y007999D01*
X012367Y008213D02*
X012367Y007693D01*
X012367Y008213D02*
X012322Y008258D01*
X011297Y008678D02*
X010902Y008678D01*
X010416Y009164D01*
X010416Y009755D01*
X010439Y009777D01*
X010439Y009689D01*
X010919Y009689D01*
X010919Y009590D01*
X010439Y009590D01*
X010439Y009370D01*
X010449Y009332D01*
X010469Y009297D01*
X010497Y009269D01*
X010531Y009250D01*
X010569Y009240D01*
X010919Y009240D01*
X010919Y009589D01*
X011019Y009589D01*
X011019Y009240D01*
X011297Y009240D01*
X011297Y008678D01*
X011297Y008758D02*
X010822Y008758D01*
X010757Y008824D02*
X010757Y009240D01*
X010919Y009398D02*
X011019Y009398D01*
X011077Y009240D02*
X011077Y008678D01*
X011297Y009078D02*
X010502Y009078D01*
X010437Y009144D02*
X010437Y009775D01*
X010439Y009718D02*
X010416Y009718D01*
X010416Y009398D02*
X010439Y009398D01*
X010757Y009590D02*
X010757Y009689D01*
X010919Y009690D02*
X010919Y010007D01*
X010943Y010031D01*
X011013Y010101D01*
X011050Y010192D01*
X011088Y010192D01*
X011188Y010291D01*
X011188Y010338D01*
X011395Y010338D01*
X011395Y010291D01*
X011495Y010192D01*
X011639Y010192D01*
X011449Y010002D01*
X011441Y010010D01*
X011407Y010029D01*
X011369Y010039D01*
X011019Y010039D01*
X011019Y009690D01*
X010919Y009690D01*
X010919Y009718D02*
X011019Y009718D01*
X011019Y010038D02*
X010950Y010038D01*
X011077Y010039D02*
X011077Y010192D01*
X011373Y010038D02*
X011485Y010038D01*
X011397Y010032D02*
X011397Y010290D01*
X010990Y010998D02*
X010613Y010998D01*
X010685Y011475D02*
X010267Y011893D01*
X010132Y011893D01*
X009817Y012208D01*
X009900Y011638D02*
X009566Y011638D01*
X009566Y010678D02*
X009765Y010678D01*
X009797Y010607D02*
X009797Y010510D01*
X009967Y010212D02*
X010083Y010212D01*
X010083Y010510D01*
X010180Y010510D01*
X010180Y010226D01*
X010066Y010112D01*
X009967Y010212D01*
X010117Y010162D02*
X010117Y010510D01*
X010083Y010358D02*
X010180Y010358D01*
X009753Y009718D02*
X009286Y009718D01*
X009157Y009587D02*
X009157Y007805D01*
X009203Y007798D02*
X009300Y007798D01*
X009477Y007805D02*
X009477Y009995D01*
X009433Y010038D02*
X009286Y010038D01*
X008593Y010308D02*
X008593Y011114D01*
X008593Y011482D01*
X008373Y010678D02*
X007798Y010678D01*
X007877Y010655D02*
X007877Y010708D01*
X008197Y010708D02*
X008197Y010675D01*
X008451Y010308D02*
X008593Y010308D01*
X008517Y009942D02*
X008517Y009870D01*
X008365Y009718D02*
X004986Y009718D01*
X004997Y009689D02*
X004997Y010159D01*
X004986Y010038D02*
X005338Y010038D01*
X005317Y010089D02*
X005317Y008528D01*
X005417Y008308D02*
X005067Y008308D01*
X004817Y008558D01*
X004817Y009558D01*
X005036Y009078D02*
X005779Y009078D01*
X005812Y008758D02*
X005036Y008758D01*
X005417Y008308D02*
X005817Y007908D01*
X006517Y007908D01*
X006667Y007758D01*
X006811Y008118D02*
X006897Y008118D01*
X006597Y008146D02*
X006597Y008702D01*
X006277Y008508D02*
X006277Y008128D01*
X005957Y008128D02*
X005957Y008582D01*
X006277Y009408D02*
X006277Y009870D01*
X006597Y010038D02*
X006597Y009650D01*
X006345Y009398D02*
X006330Y009398D01*
X007336Y008118D02*
X008297Y008118D01*
X008736Y008118D02*
X010419Y008118D01*
X010419Y008438D02*
X008736Y008438D01*
X008736Y008758D02*
X010115Y008758D01*
X010117Y008757D02*
X010117Y006174D01*
X011256Y006518D02*
X011495Y006518D01*
X011397Y006617D02*
X011397Y006273D01*
X011297Y006838D02*
X011256Y006838D01*
X011256Y007158D02*
X011297Y007158D01*
X011297Y007478D02*
X011256Y007478D01*
X011256Y007798D02*
X011297Y007798D01*
X009917Y009078D02*
X008654Y009078D01*
X008197Y009678D02*
X008197Y009942D01*
X010685Y011475D02*
X010868Y011475D01*
X014277Y011703D02*
X014277Y011956D01*
X014539Y011958D02*
X014887Y011958D01*
X014597Y012016D02*
X014597Y011643D01*
X014601Y011638D02*
X014887Y011638D01*
X014887Y012278D02*
X014636Y012278D01*
X014636Y012598D02*
X014887Y012598D01*
X009489Y016758D02*
X008582Y016758D01*
X008674Y017078D02*
X009526Y017078D01*
X007877Y019278D02*
X007877Y021138D01*
X008197Y021138D02*
X008197Y020822D01*
X008444Y020598D02*
X008544Y020598D01*
X008517Y020409D02*
X008517Y021138D01*
X008544Y019958D02*
X008444Y019958D01*
X007117Y019208D02*
X007068Y019257D01*
X007068Y019258D01*
X006622Y019318D02*
X006391Y019318D01*
X006277Y019308D02*
X006277Y019208D01*
X006391Y018998D02*
X006622Y018998D01*
X006622Y019638D02*
X006377Y019638D01*
X007237Y018438D02*
X007237Y017840D01*
X007115Y017718D02*
X006838Y017718D01*
X006838Y017398D02*
X006997Y017398D01*
X006997Y017078D02*
X006838Y017078D01*
X006597Y018025D02*
X006597Y018112D01*
X004636Y019958D02*
X004553Y019958D01*
X004677Y020137D02*
X004677Y021138D01*
X004357Y021138D02*
X004357Y020457D01*
X004348Y020472D02*
X004348Y020472D01*
X004459Y020278D02*
X004692Y020278D01*
X004513Y020185D02*
X004513Y020185D01*
X003782Y020798D02*
X003782Y020798D01*
X003139Y020685D02*
X003139Y020685D01*
X002824Y021358D02*
X002774Y021356D01*
X002723Y021351D01*
X002674Y021342D01*
X002625Y021329D01*
X002577Y021313D01*
X002530Y021294D01*
X002485Y021272D01*
X002442Y021246D01*
X002400Y021217D01*
X002361Y021185D01*
X002324Y021151D01*
X002290Y021114D01*
X002258Y021075D01*
X002229Y021033D01*
X002203Y020990D01*
X002181Y020945D01*
X002162Y020898D01*
X002146Y020850D01*
X002133Y020801D01*
X002124Y020752D01*
X002119Y020701D01*
X002117Y020651D01*
X002336Y020278D02*
X002774Y020278D01*
X002757Y020249D02*
X002757Y021133D01*
X002824Y021358D02*
X020409Y021358D01*
X020357Y021138D02*
X020357Y020457D01*
X020348Y020472D02*
X020348Y020472D01*
X021116Y020651D02*
X021114Y020701D01*
X021109Y020752D01*
X021100Y020801D01*
X021087Y020850D01*
X021071Y020898D01*
X021052Y020945D01*
X021030Y020990D01*
X021004Y021033D01*
X020975Y021075D01*
X020943Y021114D01*
X020909Y021151D01*
X020872Y021185D01*
X020833Y021217D01*
X020791Y021246D01*
X020748Y021272D01*
X020703Y021294D01*
X020656Y021313D01*
X020608Y021329D01*
X020559Y021342D01*
X020510Y021351D01*
X020459Y021356D01*
X020409Y021358D01*
X020459Y020278D02*
X020897Y020278D01*
X020897Y019958D02*
X020553Y019958D01*
X020513Y020185D02*
X020513Y020185D01*
X020532Y019638D02*
X020897Y019638D01*
X020513Y019532D02*
X020513Y019532D01*
X008837Y007092D02*
X008837Y006174D01*
X007612Y005558D02*
X007432Y005558D01*
X007557Y005577D02*
X007557Y004633D01*
X007521Y004598D02*
X007512Y004598D01*
X007512Y004278D02*
X007521Y004278D01*
X008169Y004278D02*
X008275Y004278D01*
X007612Y005238D02*
X007432Y005238D01*
X007237Y006232D02*
X007237Y006305D01*
X006277Y005012D02*
X006277Y004625D01*
X006137Y004598D02*
X006044Y004598D01*
X005957Y004605D02*
X005957Y004992D01*
X005637Y004992D02*
X005637Y004605D01*
X005733Y004598D02*
X005830Y004598D01*
X005733Y004278D02*
X005359Y004278D01*
X005317Y004367D02*
X005317Y005216D01*
X005205Y004598D02*
X005520Y004598D01*
X005637Y004307D02*
X005637Y004210D01*
X005733Y004210D02*
X005830Y004210D01*
X005830Y003912D01*
X006018Y003912D01*
X006056Y003922D01*
X006091Y003942D01*
X006102Y003953D01*
X006161Y003895D01*
X006161Y003778D01*
X005503Y003778D01*
X005463Y003951D01*
X005473Y003942D01*
X005507Y003922D01*
X005546Y003912D01*
X005733Y003912D01*
X005733Y004210D01*
X005733Y003958D02*
X005830Y003958D01*
X005957Y003912D02*
X005957Y003778D01*
X005637Y003778D02*
X005637Y003912D01*
X005637Y002938D02*
X005637Y002578D01*
X005957Y002578D02*
X005957Y002938D01*
X006277Y002938D02*
X006277Y002578D01*
X006597Y002578D02*
X006597Y002938D01*
X006917Y002938D02*
X006917Y002578D01*
X007237Y002578D02*
X007237Y002938D01*
X007557Y002938D02*
X007557Y002578D01*
X007877Y002578D02*
X007877Y002938D01*
X008197Y002938D02*
X008197Y002578D01*
X008517Y002578D02*
X008517Y002938D01*
X008837Y002938D02*
X008837Y002578D01*
X009157Y002578D02*
X009157Y002938D01*
X009477Y002938D02*
X009477Y002578D01*
X009797Y002578D02*
X009797Y002938D01*
X010117Y002938D02*
X010117Y002578D01*
X010437Y002578D02*
X010437Y002938D01*
X010757Y002938D02*
X010757Y002578D01*
X011077Y002578D02*
X011077Y002938D01*
X011397Y002938D02*
X011397Y002578D01*
X011717Y002578D02*
X011717Y002938D01*
X014277Y003308D02*
X014277Y003408D01*
X014689Y002998D02*
X014789Y002998D01*
X014917Y002838D02*
X014917Y002578D01*
X014597Y002578D02*
X014597Y002826D01*
X014917Y003308D02*
X014917Y003408D01*
X015213Y003638D02*
X015547Y003638D01*
X015237Y003124D02*
X015237Y002578D01*
X015557Y002578D02*
X015557Y002878D01*
X015547Y002998D02*
X015156Y002998D01*
X005589Y007525D02*
X005495Y007525D01*
X005478Y007508D01*
X005322Y007508D01*
X005327Y007517D01*
X005337Y007555D01*
X005337Y007704D01*
X005039Y007704D01*
X005039Y007761D01*
X005337Y007761D01*
X005337Y007776D01*
X005589Y007525D01*
X005317Y007704D02*
X005317Y007761D01*
X004997Y007703D02*
X004997Y007324D01*
X004981Y007478D02*
X005039Y007478D01*
X005357Y006838D02*
X005448Y006838D01*
X005317Y006716D02*
X005317Y006466D01*
X005307Y006482D02*
X005279Y006510D01*
X005245Y006530D01*
X005207Y006540D01*
X005039Y006540D01*
X005039Y006261D01*
X005337Y006261D01*
X005337Y006410D01*
X005327Y006448D01*
X005307Y006482D01*
X005265Y006518D02*
X005395Y006518D01*
X005317Y006261D02*
X005317Y006204D01*
X005337Y006204D02*
X005039Y006204D01*
X005039Y006261D01*
X004981Y006261D01*
X004981Y006204D01*
X004683Y006204D01*
X004683Y006055D01*
X004693Y006017D01*
X004713Y005983D01*
X004741Y005955D01*
X004775Y005935D01*
X004813Y005925D01*
X004981Y005925D01*
X004981Y006203D01*
X005039Y006203D01*
X005039Y005925D01*
X005207Y005925D01*
X005245Y005935D01*
X005279Y005955D01*
X005307Y005983D01*
X005327Y006017D01*
X005337Y006055D01*
X005337Y006204D01*
X005337Y006198D02*
X005395Y006198D01*
X005317Y005999D02*
X005317Y005753D01*
X005532Y005878D02*
X004531Y005878D01*
X004513Y006198D02*
X004683Y006198D01*
X004683Y006261D02*
X004683Y006410D01*
X004693Y006448D01*
X004713Y006482D01*
X004741Y006510D01*
X004775Y006530D01*
X004813Y006540D01*
X004981Y006540D01*
X004981Y006261D01*
X004683Y006261D01*
X004756Y006518D02*
X004513Y006518D01*
X004981Y006518D02*
X005039Y006518D01*
X004997Y006657D02*
X004997Y006261D01*
X004997Y006203D02*
X004997Y005812D01*
X004981Y006198D02*
X005039Y006198D01*
X003853Y006198D02*
X003370Y006198D01*
X003354Y006214D02*
X003200Y006278D01*
X003083Y006278D01*
X003083Y006311D01*
X003036Y006358D01*
X003083Y006406D01*
X003083Y006959D01*
X003153Y007028D01*
X003853Y007028D01*
X003853Y006103D01*
X003836Y006086D01*
X003836Y005676D01*
X003536Y005745D01*
X003536Y005942D01*
X003473Y006096D01*
X003354Y006214D01*
X003397Y006172D02*
X003397Y007028D01*
X003083Y006838D02*
X003853Y006838D01*
X003717Y007028D02*
X003717Y005704D01*
X003836Y005878D02*
X003536Y005878D01*
X003077Y006318D02*
X003077Y006399D01*
X003083Y006518D02*
X003853Y006518D01*
X003397Y007688D02*
X003397Y007869D01*
X003077Y007688D02*
X003077Y008077D01*
X003799Y008758D02*
X004397Y008758D01*
X004397Y008438D02*
X003935Y008438D01*
X004217Y008008D02*
X004217Y009208D01*
X004397Y009078D02*
X003951Y009078D01*
X003504Y009096D02*
X004167Y009759D01*
X004167Y010358D01*
X003717Y004812D02*
X003717Y004798D01*
X003451Y004798D02*
X003451Y004798D01*
X002662Y003858D02*
X002662Y003858D01*
X002117Y003066D02*
X002119Y003016D01*
X002124Y002965D01*
X002133Y002916D01*
X002146Y002867D01*
X002162Y002819D01*
X002181Y002772D01*
X002203Y002727D01*
X002229Y002684D01*
X002258Y002642D01*
X002290Y002603D01*
X002324Y002566D01*
X002361Y002532D01*
X002400Y002500D01*
X002442Y002471D01*
X002485Y002445D01*
X002530Y002423D01*
X002577Y002404D01*
X002625Y002388D01*
X002674Y002375D01*
X002723Y002366D01*
X002774Y002361D01*
X002824Y002359D01*
X003451Y002918D02*
X003451Y002918D01*
X003717Y002918D02*
X003717Y002578D01*
X004037Y002578D02*
X004037Y003011D01*
X004002Y002998D02*
X004888Y002998D01*
X004997Y002954D02*
X004997Y002578D01*
X005317Y002578D02*
X005317Y002938D01*
X004697Y003318D02*
X004390Y003318D01*
X004357Y003260D02*
X004357Y002578D01*
X004677Y002578D02*
X004677Y003579D01*
X004663Y003638D02*
X004532Y003638D01*
X004513Y003532D02*
X004513Y003532D01*
X004348Y003245D02*
X004348Y003245D01*
X004348Y003245D01*
X004094Y003032D02*
X004094Y003032D01*
X004553Y003958D02*
X004570Y003958D01*
X002662Y019858D02*
X002662Y019858D01*
X002680Y019958D02*
X002336Y019958D01*
X002720Y020185D02*
X002720Y020185D01*
X002885Y020472D02*
X002885Y020472D01*
X002885Y020472D01*
D11*
X004872Y014835D03*
X004872Y014638D03*
X004872Y014441D03*
X004872Y014244D03*
X004872Y014047D03*
X004872Y013851D03*
X004872Y013654D03*
X004872Y013457D03*
X004872Y013260D03*
X004872Y013063D03*
X004872Y012866D03*
X004872Y012669D03*
X004872Y012473D03*
X004872Y012276D03*
X004872Y012079D03*
X004872Y011882D03*
X009361Y011882D03*
X009361Y012079D03*
X009361Y012276D03*
X009361Y012473D03*
X009361Y012669D03*
X009361Y012866D03*
X009361Y013063D03*
X009361Y013260D03*
X009361Y013457D03*
X009361Y013654D03*
X009361Y013851D03*
X009361Y014047D03*
X009361Y014244D03*
X009361Y014441D03*
X009361Y014638D03*
X009361Y014835D03*
D12*
X008593Y015603D03*
X008396Y015603D03*
X008199Y015603D03*
X008002Y015603D03*
X007806Y015603D03*
X007609Y015603D03*
X007412Y015603D03*
X007215Y015603D03*
X007018Y015603D03*
X006821Y015603D03*
X006624Y015603D03*
X006428Y015603D03*
X006231Y015603D03*
X006034Y015603D03*
X005837Y015603D03*
X005640Y015603D03*
X005640Y011114D03*
X005837Y011114D03*
X006034Y011114D03*
X006231Y011114D03*
X006428Y011114D03*
X006624Y011114D03*
X006821Y011114D03*
X007018Y011114D03*
X007215Y011114D03*
X007412Y011114D03*
X007609Y011114D03*
X007806Y011114D03*
X008002Y011114D03*
X008199Y011114D03*
X008396Y011114D03*
X008593Y011114D03*
D13*
X011617Y011858D03*
D14*
X011744Y011169D03*
X011744Y011052D03*
X011489Y011053D03*
X011489Y011169D03*
X011233Y011169D03*
X012000Y011169D03*
D15*
X012366Y011730D03*
X012366Y011986D03*
X010868Y011986D03*
X010868Y011475D03*
D16*
X010928Y011730D03*
X010928Y012242D03*
X012306Y012242D03*
X012306Y011475D03*
D17*
X011233Y012607D03*
D18*
X011489Y012567D03*
X011744Y012567D03*
X012000Y012567D03*
D19*
X011466Y019258D03*
X010167Y019258D03*
X011767Y004458D03*
X013066Y004458D03*
D20*
X016567Y009454D03*
X016567Y010163D03*
X015917Y017454D03*
X015917Y018163D03*
X007317Y006613D03*
X007317Y005904D03*
D21*
X010969Y008258D03*
X012322Y008258D03*
X012311Y009638D03*
X010969Y009640D03*
X010969Y014258D03*
X010969Y015640D03*
X012311Y015638D03*
X012322Y014258D03*
D22*
X014216Y012506D03*
X014216Y011153D03*
X015596Y011164D03*
X015598Y012506D03*
D23*
X018223Y015984D03*
X018223Y016732D03*
X018223Y017484D03*
X018223Y018232D03*
X019050Y017858D03*
X019050Y016358D03*
X018223Y007732D03*
X018223Y006984D03*
X018223Y006232D03*
X018223Y005484D03*
X019050Y005858D03*
X019050Y007358D03*
X005010Y006984D03*
X005010Y007732D03*
X004183Y007358D03*
X005010Y006232D03*
X005010Y005484D03*
X004183Y005858D03*
X005010Y015984D03*
X005010Y016732D03*
X005010Y017484D03*
X005010Y018232D03*
X004183Y017858D03*
X004183Y016358D03*
D24*
X004067Y015293D03*
X004067Y014624D03*
X003817Y012943D03*
X003817Y012274D03*
X002717Y017024D03*
X002717Y017693D03*
X010267Y011893D03*
X010267Y011224D03*
X010367Y012574D03*
X010367Y013243D03*
X013667Y013924D03*
X013667Y014593D03*
X013667Y015374D03*
X013667Y016043D03*
X013867Y018924D03*
X013867Y019593D03*
X012967Y019593D03*
X012967Y018924D03*
X012267Y018924D03*
X012267Y019593D03*
X015917Y019593D03*
X015917Y018924D03*
X018367Y015043D03*
X018367Y014374D03*
X019167Y014374D03*
X019167Y015043D03*
X020517Y017024D03*
X020517Y017693D03*
X016317Y013243D03*
X016317Y012574D03*
X016567Y011443D03*
X016567Y010774D03*
X015317Y009943D03*
X015317Y009274D03*
X014467Y009274D03*
X014467Y009943D03*
X013267Y007693D03*
X013267Y007024D03*
X012367Y007024D03*
X012367Y007693D03*
X010617Y004743D03*
X010617Y004074D03*
X008617Y004024D03*
X008617Y004693D03*
X002717Y006024D03*
X002717Y006693D03*
X017817Y008924D03*
X017817Y009593D03*
X018617Y009593D03*
X018617Y008924D03*
X020517Y006693D03*
X020517Y006024D03*
D25*
X020717Y005858D03*
X020717Y006858D03*
X020717Y008358D03*
X020717Y009358D03*
X020717Y016858D03*
X020717Y017858D03*
X002517Y017858D03*
X002517Y016858D03*
X002517Y006858D03*
X002517Y005858D03*
D26*
X005782Y006258D03*
X006451Y006258D03*
X006451Y005358D03*
X005782Y005358D03*
X005782Y004258D03*
X006451Y004258D03*
X006451Y007158D03*
X005782Y007158D03*
X007232Y007458D03*
X007901Y007458D03*
X008582Y007458D03*
X009251Y007458D03*
X008451Y010308D03*
X007782Y010308D03*
X010132Y010558D03*
X010801Y010558D03*
X011782Y010558D03*
X012451Y010558D03*
X011951Y013108D03*
X011282Y013108D03*
X008701Y016408D03*
X008032Y016408D03*
X006451Y016858D03*
X005782Y016858D03*
X005782Y017658D03*
X006451Y017658D03*
X006451Y018458D03*
X005782Y018458D03*
X015182Y013908D03*
X015851Y013908D03*
X016782Y013908D03*
X017451Y013908D03*
X019832Y013758D03*
X020501Y013758D03*
X017451Y017258D03*
X016782Y017258D03*
X016782Y018158D03*
X017451Y018158D03*
X017451Y019058D03*
X016782Y019058D03*
X016782Y007258D03*
X017451Y007258D03*
X017451Y006358D03*
X016782Y006358D03*
X016782Y005458D03*
X017451Y005458D03*
D27*
X018967Y003858D02*
X018969Y003908D01*
X018975Y003958D01*
X018985Y004008D01*
X018998Y004056D01*
X019015Y004104D01*
X019036Y004150D01*
X019060Y004194D01*
X019088Y004236D01*
X019119Y004276D01*
X019153Y004313D01*
X019190Y004348D01*
X019229Y004379D01*
X019270Y004408D01*
X019314Y004433D01*
X019360Y004455D01*
X019407Y004473D01*
X019455Y004487D01*
X019504Y004498D01*
X019554Y004505D01*
X019604Y004508D01*
X019655Y004507D01*
X019705Y004502D01*
X019755Y004493D01*
X019803Y004481D01*
X019851Y004464D01*
X019897Y004444D01*
X019942Y004421D01*
X019985Y004394D01*
X020025Y004364D01*
X020063Y004331D01*
X020098Y004295D01*
X020131Y004256D01*
X020160Y004215D01*
X020186Y004172D01*
X020209Y004127D01*
X020228Y004080D01*
X020243Y004032D01*
X020255Y003983D01*
X020263Y003933D01*
X020267Y003883D01*
X020267Y003833D01*
X020263Y003783D01*
X020255Y003733D01*
X020243Y003684D01*
X020228Y003636D01*
X020209Y003589D01*
X020186Y003544D01*
X020160Y003501D01*
X020131Y003460D01*
X020098Y003421D01*
X020063Y003385D01*
X020025Y003352D01*
X019985Y003322D01*
X019942Y003295D01*
X019897Y003272D01*
X019851Y003252D01*
X019803Y003235D01*
X019755Y003223D01*
X019705Y003214D01*
X019655Y003209D01*
X019604Y003208D01*
X019554Y003211D01*
X019504Y003218D01*
X019455Y003229D01*
X019407Y003243D01*
X019360Y003261D01*
X019314Y003283D01*
X019270Y003308D01*
X019229Y003337D01*
X019190Y003368D01*
X019153Y003403D01*
X019119Y003440D01*
X019088Y003480D01*
X019060Y003522D01*
X019036Y003566D01*
X019015Y003612D01*
X018998Y003660D01*
X018985Y003708D01*
X018975Y003758D01*
X018969Y003808D01*
X018967Y003858D01*
X020517Y005858D02*
X020467Y005908D01*
X020467Y006108D01*
X020717Y005908D01*
X020517Y006024D02*
X020517Y006058D01*
X020467Y006108D01*
X018967Y019858D02*
X018969Y019908D01*
X018975Y019958D01*
X018985Y020008D01*
X018998Y020056D01*
X019015Y020104D01*
X019036Y020150D01*
X019060Y020194D01*
X019088Y020236D01*
X019119Y020276D01*
X019153Y020313D01*
X019190Y020348D01*
X019229Y020379D01*
X019270Y020408D01*
X019314Y020433D01*
X019360Y020455D01*
X019407Y020473D01*
X019455Y020487D01*
X019504Y020498D01*
X019554Y020505D01*
X019604Y020508D01*
X019655Y020507D01*
X019705Y020502D01*
X019755Y020493D01*
X019803Y020481D01*
X019851Y020464D01*
X019897Y020444D01*
X019942Y020421D01*
X019985Y020394D01*
X020025Y020364D01*
X020063Y020331D01*
X020098Y020295D01*
X020131Y020256D01*
X020160Y020215D01*
X020186Y020172D01*
X020209Y020127D01*
X020228Y020080D01*
X020243Y020032D01*
X020255Y019983D01*
X020263Y019933D01*
X020267Y019883D01*
X020267Y019833D01*
X020263Y019783D01*
X020255Y019733D01*
X020243Y019684D01*
X020228Y019636D01*
X020209Y019589D01*
X020186Y019544D01*
X020160Y019501D01*
X020131Y019460D01*
X020098Y019421D01*
X020063Y019385D01*
X020025Y019352D01*
X019985Y019322D01*
X019942Y019295D01*
X019897Y019272D01*
X019851Y019252D01*
X019803Y019235D01*
X019755Y019223D01*
X019705Y019214D01*
X019655Y019209D01*
X019604Y019208D01*
X019554Y019211D01*
X019504Y019218D01*
X019455Y019229D01*
X019407Y019243D01*
X019360Y019261D01*
X019314Y019283D01*
X019270Y019308D01*
X019229Y019337D01*
X019190Y019368D01*
X019153Y019403D01*
X019119Y019440D01*
X019088Y019480D01*
X019060Y019522D01*
X019036Y019566D01*
X019015Y019612D01*
X018998Y019660D01*
X018985Y019708D01*
X018975Y019758D01*
X018969Y019808D01*
X018967Y019858D01*
X002967Y019858D02*
X002969Y019908D01*
X002975Y019958D01*
X002985Y020008D01*
X002998Y020056D01*
X003015Y020104D01*
X003036Y020150D01*
X003060Y020194D01*
X003088Y020236D01*
X003119Y020276D01*
X003153Y020313D01*
X003190Y020348D01*
X003229Y020379D01*
X003270Y020408D01*
X003314Y020433D01*
X003360Y020455D01*
X003407Y020473D01*
X003455Y020487D01*
X003504Y020498D01*
X003554Y020505D01*
X003604Y020508D01*
X003655Y020507D01*
X003705Y020502D01*
X003755Y020493D01*
X003803Y020481D01*
X003851Y020464D01*
X003897Y020444D01*
X003942Y020421D01*
X003985Y020394D01*
X004025Y020364D01*
X004063Y020331D01*
X004098Y020295D01*
X004131Y020256D01*
X004160Y020215D01*
X004186Y020172D01*
X004209Y020127D01*
X004228Y020080D01*
X004243Y020032D01*
X004255Y019983D01*
X004263Y019933D01*
X004267Y019883D01*
X004267Y019833D01*
X004263Y019783D01*
X004255Y019733D01*
X004243Y019684D01*
X004228Y019636D01*
X004209Y019589D01*
X004186Y019544D01*
X004160Y019501D01*
X004131Y019460D01*
X004098Y019421D01*
X004063Y019385D01*
X004025Y019352D01*
X003985Y019322D01*
X003942Y019295D01*
X003897Y019272D01*
X003851Y019252D01*
X003803Y019235D01*
X003755Y019223D01*
X003705Y019214D01*
X003655Y019209D01*
X003604Y019208D01*
X003554Y019211D01*
X003504Y019218D01*
X003455Y019229D01*
X003407Y019243D01*
X003360Y019261D01*
X003314Y019283D01*
X003270Y019308D01*
X003229Y019337D01*
X003190Y019368D01*
X003153Y019403D01*
X003119Y019440D01*
X003088Y019480D01*
X003060Y019522D01*
X003036Y019566D01*
X003015Y019612D01*
X002998Y019660D01*
X002985Y019708D01*
X002975Y019758D01*
X002969Y019808D01*
X002967Y019858D01*
X002967Y003858D02*
X002969Y003908D01*
X002975Y003958D01*
X002985Y004008D01*
X002998Y004056D01*
X003015Y004104D01*
X003036Y004150D01*
X003060Y004194D01*
X003088Y004236D01*
X003119Y004276D01*
X003153Y004313D01*
X003190Y004348D01*
X003229Y004379D01*
X003270Y004408D01*
X003314Y004433D01*
X003360Y004455D01*
X003407Y004473D01*
X003455Y004487D01*
X003504Y004498D01*
X003554Y004505D01*
X003604Y004508D01*
X003655Y004507D01*
X003705Y004502D01*
X003755Y004493D01*
X003803Y004481D01*
X003851Y004464D01*
X003897Y004444D01*
X003942Y004421D01*
X003985Y004394D01*
X004025Y004364D01*
X004063Y004331D01*
X004098Y004295D01*
X004131Y004256D01*
X004160Y004215D01*
X004186Y004172D01*
X004209Y004127D01*
X004228Y004080D01*
X004243Y004032D01*
X004255Y003983D01*
X004263Y003933D01*
X004267Y003883D01*
X004267Y003833D01*
X004263Y003783D01*
X004255Y003733D01*
X004243Y003684D01*
X004228Y003636D01*
X004209Y003589D01*
X004186Y003544D01*
X004160Y003501D01*
X004131Y003460D01*
X004098Y003421D01*
X004063Y003385D01*
X004025Y003352D01*
X003985Y003322D01*
X003942Y003295D01*
X003897Y003272D01*
X003851Y003252D01*
X003803Y003235D01*
X003755Y003223D01*
X003705Y003214D01*
X003655Y003209D01*
X003604Y003208D01*
X003554Y003211D01*
X003504Y003218D01*
X003455Y003229D01*
X003407Y003243D01*
X003360Y003261D01*
X003314Y003283D01*
X003270Y003308D01*
X003229Y003337D01*
X003190Y003368D01*
X003153Y003403D01*
X003119Y003440D01*
X003088Y003480D01*
X003060Y003522D01*
X003036Y003566D01*
X003015Y003612D01*
X002998Y003660D01*
X002985Y003708D01*
X002975Y003758D01*
X002969Y003808D01*
X002967Y003858D01*
D28*
X016117Y003358D03*
X007117Y020358D03*
D29*
X008494Y020358D03*
X014739Y003358D03*
D30*
X002717Y011458D03*
D31*
X002717Y010671D03*
X003504Y010671D03*
X003504Y011458D03*
X003504Y009884D03*
X003504Y009096D03*
X003504Y008309D03*
X002717Y008309D03*
X002717Y009096D03*
X002717Y009884D03*
D32*
X002648Y012558D03*
X002648Y013558D03*
X002648Y014558D03*
X002648Y015558D03*
D33*
X017317Y012732D03*
X017817Y012732D03*
X018317Y012732D03*
X018817Y012732D03*
X019317Y012732D03*
X019817Y012732D03*
X020317Y012732D03*
X020317Y010685D03*
X019817Y010685D03*
X019317Y010685D03*
X018817Y010685D03*
X018317Y010685D03*
X017817Y010685D03*
X017317Y010685D03*
D34*
X019812Y014558D03*
X020521Y014558D03*
X017471Y014708D03*
X016762Y014708D03*
D35*
X007371Y020609D02*
X007371Y021907D01*
X007371Y020609D02*
X006663Y020609D01*
X006663Y021907D01*
X007371Y021907D01*
X007371Y020844D02*
X006663Y020844D01*
X006663Y021079D02*
X007371Y021079D01*
X007371Y021314D02*
X006663Y021314D01*
X006663Y021549D02*
X007371Y021549D01*
X007371Y021784D02*
X006663Y021784D01*
X015863Y003107D02*
X015863Y001809D01*
X015863Y003107D02*
X016571Y003107D01*
X016571Y001809D01*
X015863Y001809D01*
X015863Y002044D02*
X016571Y002044D01*
X016571Y002279D02*
X015863Y002279D01*
X015863Y002514D02*
X016571Y002514D01*
X016571Y002749D02*
X015863Y002749D01*
X015863Y002984D02*
X016571Y002984D01*
D36*
X007891Y004247D03*
X007517Y004247D03*
X007143Y004247D03*
X007143Y005270D03*
X007891Y005270D03*
X014443Y018547D03*
X015191Y018547D03*
X015191Y019570D03*
X014817Y019570D03*
X014443Y019570D03*
D37*
X008217Y008958D03*
X006217Y008958D03*
D38*
X009817Y004704D03*
X009817Y004113D03*
X009817Y016813D03*
X009817Y017404D03*
X010967Y017404D03*
X010967Y016813D03*
D39*
X015367Y006158D03*
X015367Y004859D03*
D40*
X007068Y019258D03*
X005965Y019258D03*
D41*
X005117Y020358D02*
X007117Y020358D01*
X007117Y019208D01*
X007117Y018858D01*
X010117Y018858D01*
X010117Y019058D01*
X010117Y020358D01*
X012967Y020358D01*
X014417Y020358D01*
X015817Y020358D01*
X018117Y020358D01*
X018119Y020263D01*
X018126Y020168D01*
X018137Y020073D01*
X018153Y019979D01*
X018173Y019886D01*
X018198Y019795D01*
X018227Y019704D01*
X018260Y019615D01*
X018298Y019527D01*
X018339Y019442D01*
X018385Y019358D01*
X018434Y019277D01*
X018488Y019198D01*
X018545Y019122D01*
X018606Y019048D01*
X018670Y018978D01*
X018737Y018911D01*
X018807Y018847D01*
X018881Y018786D01*
X018957Y018729D01*
X019036Y018675D01*
X019117Y018626D01*
X019201Y018580D01*
X019286Y018539D01*
X019374Y018501D01*
X019463Y018468D01*
X019554Y018439D01*
X019645Y018414D01*
X019738Y018394D01*
X019832Y018378D01*
X019927Y018367D01*
X020022Y018360D01*
X020117Y018358D01*
X020117Y017858D01*
X020717Y017858D01*
X020717Y005858D02*
X020517Y005858D01*
X020117Y005858D01*
X020117Y005358D01*
X020022Y005356D01*
X019927Y005349D01*
X019832Y005338D01*
X019738Y005322D01*
X019645Y005302D01*
X019554Y005277D01*
X019463Y005248D01*
X019374Y005215D01*
X019286Y005177D01*
X019201Y005136D01*
X019117Y005090D01*
X019036Y005041D01*
X018957Y004987D01*
X018881Y004930D01*
X018807Y004869D01*
X018737Y004805D01*
X018670Y004738D01*
X018606Y004668D01*
X018545Y004594D01*
X018488Y004518D01*
X018434Y004439D01*
X018385Y004358D01*
X018339Y004274D01*
X018298Y004189D01*
X018260Y004101D01*
X018227Y004012D01*
X018198Y003921D01*
X018173Y003830D01*
X018153Y003737D01*
X018137Y003643D01*
X018126Y003548D01*
X018119Y003453D01*
X018117Y003358D01*
X016117Y003358D01*
X016117Y004858D01*
X015767Y004858D01*
X013117Y004858D01*
X013117Y004758D01*
X013117Y003358D01*
X006517Y003358D01*
X005117Y003358D01*
X005115Y003453D01*
X005108Y003548D01*
X005097Y003643D01*
X005081Y003737D01*
X005061Y003830D01*
X005036Y003921D01*
X005007Y004012D01*
X004974Y004101D01*
X004936Y004189D01*
X004895Y004274D01*
X004849Y004358D01*
X004800Y004439D01*
X004746Y004518D01*
X004689Y004594D01*
X004628Y004668D01*
X004564Y004738D01*
X004497Y004805D01*
X004427Y004869D01*
X004353Y004930D01*
X004277Y004987D01*
X004198Y005041D01*
X004117Y005090D01*
X004033Y005136D01*
X003948Y005177D01*
X003860Y005215D01*
X003771Y005248D01*
X003680Y005277D01*
X003589Y005302D01*
X003496Y005322D01*
X003402Y005338D01*
X003307Y005349D01*
X003212Y005356D01*
X003117Y005358D01*
X003117Y005858D01*
X002517Y005858D01*
X002517Y017858D02*
X003117Y017858D01*
X003117Y018358D01*
X003212Y018360D01*
X003307Y018367D01*
X003402Y018378D01*
X003496Y018394D01*
X003589Y018414D01*
X003680Y018439D01*
X003771Y018468D01*
X003860Y018501D01*
X003948Y018539D01*
X004033Y018580D01*
X004117Y018626D01*
X004198Y018675D01*
X004277Y018729D01*
X004353Y018786D01*
X004427Y018847D01*
X004497Y018911D01*
X004564Y018978D01*
X004628Y019048D01*
X004689Y019122D01*
X004746Y019198D01*
X004800Y019277D01*
X004849Y019358D01*
X004895Y019442D01*
X004936Y019527D01*
X004974Y019615D01*
X005007Y019704D01*
X005036Y019795D01*
X005061Y019886D01*
X005081Y019979D01*
X005097Y020073D01*
X005108Y020168D01*
X005115Y020263D01*
X005117Y020358D01*
D42*
X005782Y018458D02*
X005782Y017658D01*
X005782Y016858D01*
X005608Y017484D02*
X005010Y017484D01*
X005608Y017484D02*
X005782Y017658D01*
X006451Y017658D02*
X006451Y016858D01*
X005010Y016732D02*
X004717Y016732D01*
X004717Y016758D01*
X004717Y018232D02*
X004717Y018258D01*
X004717Y018232D02*
X005010Y018232D01*
X007017Y020358D02*
X007017Y021258D01*
X007017Y020358D02*
X007117Y020358D01*
X008217Y017158D02*
X008267Y017158D01*
X008217Y017158D02*
X008092Y017033D01*
X008092Y016518D01*
X008032Y016408D01*
X010117Y019058D02*
X010117Y019258D01*
X010167Y019258D01*
X012267Y018924D02*
X012967Y018924D01*
X012967Y019593D02*
X012967Y019808D01*
X012967Y020358D01*
X014517Y017658D02*
X015217Y017658D01*
X015267Y017608D01*
X016782Y017258D02*
X016782Y018158D01*
X017451Y018158D02*
X017451Y017258D01*
X017451Y017224D01*
X017917Y016758D01*
X018197Y016758D01*
X018223Y016732D01*
X018223Y017484D02*
X018517Y017484D01*
X018517Y017458D01*
X018223Y018232D02*
X017525Y018232D01*
X017451Y018306D01*
X017451Y019058D01*
X017525Y018232D02*
X017451Y018158D01*
X018817Y012732D02*
X018817Y011908D01*
X018617Y011708D01*
X017817Y007758D02*
X017451Y007393D01*
X017451Y007258D01*
X016782Y007258D02*
X016782Y006358D01*
X017451Y006358D02*
X017577Y006232D01*
X018223Y006232D01*
X018223Y005484D02*
X018517Y005484D01*
X018517Y005458D01*
X018517Y006958D02*
X018517Y006984D01*
X018223Y006984D01*
X020517Y006693D02*
X020717Y006693D01*
X020717Y006858D01*
X016117Y003358D02*
X016117Y002458D01*
X016217Y002458D01*
X013117Y004458D02*
X013117Y004758D01*
X013117Y004458D02*
X013066Y004458D01*
X010951Y005924D02*
X007317Y005924D01*
X007317Y005904D01*
X006451Y006258D02*
X006451Y007158D01*
X005782Y007158D02*
X005782Y006258D01*
X005782Y005358D01*
X005656Y005484D01*
X005010Y005484D01*
X005010Y006232D02*
X004743Y006232D01*
X004717Y006258D01*
X005010Y006258D02*
X005010Y006232D01*
X005010Y006984D02*
X005284Y007258D01*
X005782Y007258D01*
X005782Y007158D01*
X005010Y007732D02*
X004743Y007732D01*
X004717Y007758D01*
X002717Y008309D02*
X002717Y009884D01*
X002717Y011458D02*
X002717Y012490D01*
X002648Y012558D01*
X003117Y012558D01*
X003401Y012274D01*
X003817Y012274D01*
X002617Y006858D02*
X002517Y006858D01*
X002617Y006858D02*
X002717Y006693D01*
X002717Y006024D02*
X002517Y006024D01*
X002517Y005858D01*
X009317Y010508D02*
X009317Y011838D01*
X009317Y010508D02*
X009967Y009858D01*
X010167Y009858D01*
X010417Y010108D01*
X010667Y010108D01*
X010801Y010243D01*
X010801Y010558D01*
X010167Y009858D02*
X010167Y009060D01*
X010969Y008258D01*
X010969Y014258D02*
X010969Y014606D01*
D43*
X004183Y016358D02*
X004183Y017858D01*
X002717Y017693D02*
X002617Y017758D01*
X002517Y017858D01*
X002717Y017024D02*
X003282Y016358D01*
X004183Y016358D01*
X002717Y017024D02*
X002617Y016958D01*
X002517Y016858D01*
X003017Y007358D02*
X004183Y007358D01*
X004183Y005858D01*
X003017Y007358D02*
X002517Y006858D01*
X006451Y003424D02*
X006517Y003358D01*
X019050Y005858D02*
X019050Y007358D01*
X019951Y007358D01*
X020517Y006693D01*
X020217Y016358D02*
X019050Y016358D01*
X019050Y017858D01*
X020517Y017693D02*
X020717Y017793D01*
X020717Y017858D01*
X020517Y017024D02*
X020617Y016958D01*
X020717Y016858D01*
X020217Y016358D01*
D44*
X015917Y017454D02*
X015882Y017458D01*
X015417Y017458D01*
X015267Y017608D01*
X015191Y017684D01*
X015191Y018547D01*
X015191Y019570D02*
X015213Y019593D01*
X015917Y019593D01*
X015917Y020258D01*
X015817Y020358D01*
X014443Y020332D02*
X014443Y019570D01*
X014443Y020332D02*
X014417Y020358D01*
X010967Y008256D02*
X010967Y005908D01*
X007317Y005904D02*
X007143Y005698D01*
X007143Y005270D01*
X007143Y004258D02*
X007143Y004247D01*
X007131Y004258D01*
X006451Y004258D01*
X006451Y003424D01*
D45*
X007143Y003832D02*
X007143Y004247D01*
X007143Y003832D02*
X007217Y003758D01*
X007817Y003758D01*
X007917Y003858D01*
X007917Y004221D01*
X007891Y004247D01*
X008617Y004693D02*
X008617Y005058D01*
X008405Y005270D01*
X007891Y005270D01*
X010951Y005924D02*
X010967Y005908D01*
X010967Y008256D02*
X010969Y008258D01*
X011782Y010558D02*
X011744Y010596D01*
X011744Y011169D01*
X011489Y011169D01*
X011232Y012548D02*
X011233Y012607D01*
X010267Y011224D02*
X009882Y011224D01*
X009817Y011208D01*
X009317Y011838D02*
X009361Y011882D01*
X008593Y011482D02*
X008317Y011758D01*
X008317Y011958D01*
X008717Y013708D02*
X009056Y014047D01*
X009361Y014047D01*
X010717Y014758D02*
X010817Y014758D01*
X010969Y014606D01*
X008667Y016308D02*
X008667Y016374D01*
X007967Y016424D02*
X007967Y016258D01*
X006451Y016793D02*
X006451Y016858D01*
X005782Y016858D02*
X005010Y016087D01*
X005010Y015984D01*
X005640Y015603D02*
X005640Y014885D01*
X005817Y014708D01*
X005317Y013258D02*
X004874Y013258D01*
X004872Y013260D01*
X014216Y013558D02*
X014216Y012506D01*
X015117Y012958D02*
X015117Y011643D01*
X015596Y011164D01*
X015117Y012958D02*
X015401Y013243D01*
X016317Y013243D01*
X014567Y013908D02*
X014216Y013558D01*
X017817Y007758D02*
X018197Y007758D01*
X018223Y007732D01*
X017451Y007258D02*
X017451Y006358D01*
X020267Y012682D02*
X020317Y012732D01*
D46*
X020017Y011858D03*
X019467Y011458D03*
X017917Y011658D03*
X016917Y013008D03*
X015567Y011958D03*
X014717Y011808D03*
X013567Y011208D03*
X013767Y010358D03*
X012467Y010908D03*
X011267Y010108D03*
X012367Y008958D03*
X013717Y008408D03*
X014117Y007908D03*
X014917Y008708D03*
X016217Y008808D03*
X017367Y008408D03*
X016167Y007058D03*
X015617Y007058D03*
X013967Y005908D03*
X012967Y005908D03*
X011917Y005908D03*
X010267Y007558D03*
X010217Y008258D03*
X009417Y006608D03*
X008817Y006608D03*
X006667Y007758D03*
X005317Y009108D03*
X004217Y009208D03*
X004167Y010358D03*
X005167Y010508D03*
X005217Y011058D03*
X005667Y010258D03*
X006217Y010258D03*
X007117Y010108D03*
X007517Y011908D03*
X008317Y011958D03*
X009817Y011208D03*
X010717Y013258D03*
X009917Y014358D03*
X010717Y014758D03*
X010967Y016308D03*
X011767Y017508D03*
X012767Y017508D03*
X013467Y017508D03*
X014517Y017658D03*
X014617Y016558D03*
X014567Y015608D03*
X014567Y015058D03*
X014567Y013908D03*
X013717Y013208D03*
X012567Y012958D03*
X009817Y016308D03*
X008967Y017158D03*
X010817Y018408D03*
X010867Y019758D03*
X009467Y020358D03*
X008517Y019558D03*
X004717Y018258D03*
X004717Y016758D03*
X003567Y017258D03*
X002667Y019108D03*
X004517Y020758D03*
X004917Y015408D03*
X004217Y014108D03*
X003117Y013208D03*
X005567Y012258D03*
X006467Y012908D03*
X006167Y013758D03*
X006367Y014308D03*
X006817Y014958D03*
X007217Y014458D03*
X007917Y014908D03*
X008717Y014258D03*
X008717Y013708D03*
X012267Y018458D03*
X013267Y019758D03*
X015817Y016558D03*
X016467Y016558D03*
X017067Y016558D03*
X017267Y015658D03*
X016117Y014658D03*
X015967Y015608D03*
X018517Y015958D03*
X019367Y015758D03*
X020117Y015458D03*
X019667Y017258D03*
X018517Y017458D03*
X018067Y018758D03*
X017117Y019708D03*
X018767Y020758D03*
X020517Y019058D03*
X018417Y013858D03*
X019317Y009758D03*
X020067Y009558D03*
X020067Y008508D03*
X019517Y007958D03*
X018517Y006958D03*
X019617Y006408D03*
X018517Y005458D03*
X017317Y004608D03*
X018717Y002958D03*
X020617Y004558D03*
X014717Y004158D03*
X005267Y004858D03*
X004717Y006258D03*
X003567Y006408D03*
X004217Y008008D03*
X004717Y007758D03*
X002617Y004608D03*
X004467Y002958D03*
D47*
X018617Y011708D03*
D48*
X010967Y005908D03*
D49*
X008267Y017158D03*
D50*
X005817Y014708D03*
M02*
