G75*
G70*
%OFA0B0*%
%FSLAX24Y24*%
%IPPOS*%
%LPD*%
%AMOC8*
5,1,8,0,0,1.08239X$1,22.5*
%
%ADD10C,0.1380*%
%ADD11R,0.0880X0.0880*%
%ADD12C,0.0880*%
%ADD13R,0.0635X0.0635*%
%ADD14C,0.0635*%
%ADD15C,0.0256*%
%ADD16C,0.0640*%
%ADD17R,0.0513X0.0474*%
%ADD18R,0.0474X0.0513*%
%ADD19R,0.0595X0.0595*%
%ADD20R,0.0634X0.0634*%
%ADD21R,0.0556X0.0556*%
D10*
X003617Y003858D03*
X003617Y019858D03*
X019617Y019858D03*
X019617Y003858D03*
D11*
X016117Y003358D03*
X007117Y020358D03*
D12*
X008494Y020358D03*
X014739Y003358D03*
D13*
X002717Y011458D03*
D14*
X002717Y010671D03*
X003504Y010671D03*
X003504Y011458D03*
X003504Y009884D03*
X003504Y009096D03*
X003504Y008309D03*
X002717Y008309D03*
X002717Y009096D03*
X002717Y009884D03*
D15*
X009001Y020579D02*
X009001Y021937D01*
X009001Y020579D02*
X008233Y020579D01*
X008233Y021937D01*
X009001Y021937D01*
X009001Y020834D02*
X008233Y020834D01*
X008233Y021089D02*
X009001Y021089D01*
X009001Y021344D02*
X008233Y021344D01*
X008233Y021599D02*
X009001Y021599D01*
X009001Y021854D02*
X008233Y021854D01*
X014233Y003137D02*
X014233Y001779D01*
X014233Y003137D02*
X015001Y003137D01*
X015001Y001779D01*
X014233Y001779D01*
X014233Y002034D02*
X015001Y002034D01*
X015001Y002289D02*
X014233Y002289D01*
X014233Y002544D02*
X015001Y002544D01*
X015001Y002799D02*
X014233Y002799D01*
X014233Y003054D02*
X015001Y003054D01*
D16*
X008217Y008958D03*
X006217Y008958D03*
D17*
X006382Y012008D03*
X007051Y012008D03*
X007982Y013008D03*
X008651Y013008D03*
X006201Y016458D03*
X005532Y016458D03*
X004201Y013258D03*
X003532Y013258D03*
D18*
X007967Y013624D03*
X007967Y014293D03*
X009817Y016774D03*
X009817Y017443D03*
X010967Y017443D03*
X010967Y016774D03*
X013417Y018624D03*
X013417Y019293D03*
D19*
X018617Y011708D03*
D20*
X010967Y005908D03*
D21*
X008267Y017158D03*
M02*
