G75*
G70*
%OFA0B0*%
%FSLAX24Y24*%
%IPPOS*%
%LPD*%
%AMOC8*
5,1,8,0,0,1.08239X$1,22.5*
%
%ADD10R,0.0394X0.0433*%
%ADD11C,0.0740*%
%ADD12R,0.0433X0.0394*%
%ADD13R,0.0436X0.0436*%
%ADD14C,0.0160*%
%ADD15C,0.0240*%
%ADD16C,0.0100*%
%ADD17C,0.0200*%
%ADD18C,0.0436*%
%ADD19C,0.0060*%
D10*
X000651Y002557D03*
X000651Y003226D03*
X001501Y003207D03*
X001501Y003876D03*
X000901Y004907D03*
X000901Y005576D03*
X000901Y006057D03*
X000901Y006726D03*
X001701Y006176D03*
X001701Y005507D03*
X004001Y005307D03*
X004001Y005976D03*
X003951Y007657D03*
X003951Y008326D03*
X004951Y008326D03*
X004951Y007657D03*
X005951Y007657D03*
X005951Y008326D03*
D11*
X005951Y008992D03*
X004951Y008992D03*
X003951Y008992D03*
X002951Y008992D03*
X001951Y008992D03*
X001951Y001492D03*
X002951Y001492D03*
X003951Y001492D03*
X004951Y001492D03*
X005951Y001492D03*
D12*
X005867Y002442D03*
X005386Y002442D03*
X004717Y002442D03*
X003686Y003642D03*
X003536Y004292D03*
X003317Y004842D03*
X002867Y004292D03*
X003017Y003642D03*
X002917Y002442D03*
X002436Y002442D03*
X001767Y002442D03*
X003586Y002442D03*
X005217Y004792D03*
X005886Y004792D03*
X006517Y005592D03*
X007186Y005592D03*
X006536Y002442D03*
X003986Y004842D03*
D13*
X005251Y006742D03*
D14*
X003801Y006742D01*
X001951Y008592D01*
D15*
X001951Y008992D01*
D16*
X001421Y006940D02*
X001501Y006792D01*
X001353Y006712D01*
X001501Y006437D01*
X001649Y006712D01*
X001501Y006792D01*
X001421Y006644D01*
X001147Y006792D01*
X001421Y006940D01*
X001501Y006792D02*
X001501Y006437D01*
X001501Y006376D01*
X001701Y006176D01*
X001501Y006792D02*
X001147Y006792D01*
X000967Y006792D01*
X000901Y006726D01*
X000901Y006057D02*
X000901Y005576D01*
X000901Y004907D02*
X001101Y004907D01*
X001701Y005507D01*
X000901Y004907D02*
X000670Y004676D01*
X000717Y004367D01*
X000551Y004342D01*
X000438Y004466D01*
X000670Y004676D01*
X000551Y004557D01*
X000551Y004342D01*
X000651Y003226D02*
X000782Y003207D01*
X001501Y003207D01*
X001767Y002942D01*
X001767Y002442D01*
X001151Y002542D02*
X001071Y002690D01*
X000797Y002542D01*
X001071Y002394D01*
X001151Y002542D01*
X000797Y002542D01*
X000667Y002542D01*
X000651Y002557D01*
X001701Y003692D02*
X001501Y003876D01*
X001701Y003692D02*
X001997Y003692D01*
X002271Y003840D01*
X002351Y003692D01*
X002271Y003544D01*
X001997Y003692D01*
X002351Y003692D01*
X002867Y003792D02*
X002867Y004292D01*
X002867Y003792D02*
X003017Y003642D01*
X003017Y003476D01*
X003401Y003092D01*
X003497Y003092D01*
X003771Y003240D01*
X003851Y003092D01*
X003771Y002944D01*
X003497Y003092D01*
X003851Y003092D01*
X004001Y003642D02*
X003686Y003642D01*
X004001Y003642D02*
X004401Y003992D01*
X004401Y004642D01*
X004201Y004842D01*
X003986Y004842D01*
X003986Y005307D01*
X004001Y005307D01*
X003851Y004992D02*
X003886Y004957D01*
X003986Y004957D01*
X003986Y004842D01*
X003971Y004440D02*
X004051Y004292D01*
X003971Y004144D01*
X003697Y004292D01*
X003971Y004440D01*
X004051Y004292D02*
X003697Y004292D01*
X003536Y004292D01*
X003317Y004842D02*
X003155Y005003D01*
X002933Y005222D01*
X003051Y005342D01*
X003216Y005309D01*
X003155Y005003D01*
X003051Y005107D01*
X003051Y005342D01*
X003117Y005342D01*
X004001Y005976D02*
X006001Y005992D01*
X006001Y006352D01*
X005937Y006657D01*
X006101Y006692D01*
X006221Y006573D01*
X006001Y006352D01*
X006001Y006592D01*
X006101Y006692D01*
X006001Y005992D02*
X006001Y005392D01*
X006301Y005092D01*
X006301Y003892D01*
X006181Y003771D01*
X005980Y003533D01*
X005851Y003642D01*
X005871Y003809D01*
X006181Y003771D01*
X006051Y003642D01*
X005851Y003642D01*
X005412Y003643D02*
X005502Y003942D01*
X005203Y003853D01*
X005251Y003692D01*
X005104Y003610D01*
X005256Y003337D01*
X005400Y003614D01*
X005251Y003692D01*
X005412Y003643D01*
X005251Y003692D02*
X005251Y003342D01*
X005256Y003337D01*
X005586Y003007D01*
X006236Y003007D01*
X006551Y002742D01*
X006551Y002457D01*
X006536Y002442D01*
X006953Y002053D02*
X007001Y001892D01*
X007162Y001843D01*
X007252Y002142D01*
X006953Y002053D01*
X007001Y001892D02*
X007252Y002142D01*
X007401Y002292D01*
X007401Y003692D01*
X007252Y003841D01*
X006953Y003931D01*
X007001Y004092D01*
X007162Y004140D01*
X007252Y003841D01*
X007001Y004092D01*
X006501Y003742D02*
X006751Y003492D01*
X007049Y003403D01*
X007001Y003242D01*
X006840Y003193D01*
X006751Y003492D01*
X007001Y003242D01*
X006501Y003742D02*
X006501Y005576D01*
X006517Y005592D01*
X007201Y005787D02*
X007053Y006062D01*
X007201Y006142D01*
X007349Y006062D01*
X007201Y005787D01*
X007201Y005607D01*
X007186Y005592D01*
X007151Y005626D01*
X007251Y005726D01*
X007201Y005787D02*
X007201Y006142D01*
X005886Y004792D02*
X005886Y004542D01*
X005701Y004357D01*
X005701Y004142D01*
X005502Y003942D01*
X005251Y003692D01*
X005001Y003991D02*
X005090Y004290D01*
X005251Y004242D01*
X005399Y004321D01*
X005251Y004596D01*
X005103Y004321D01*
X005251Y004242D01*
X005299Y004081D01*
X005001Y003991D01*
X005251Y004242D01*
X005251Y004596D01*
X005251Y004757D01*
X005217Y004792D01*
X005836Y004676D02*
X005851Y004661D01*
X005836Y004676D02*
X005886Y004792D01*
X005001Y003991D02*
X004851Y003842D01*
X004851Y002526D01*
X004717Y002442D01*
X005386Y002442D02*
X005867Y002442D01*
X003158Y002712D02*
X003051Y002842D01*
X002884Y002824D01*
X002917Y002514D01*
X003158Y002712D01*
X003051Y002842D02*
X002917Y002707D01*
X002917Y002514D01*
X002917Y002442D01*
X002436Y002442D01*
X003951Y008326D02*
X003951Y008492D01*
X003951Y008992D01*
X004951Y008992D02*
X004951Y008492D01*
X004951Y008326D01*
X005951Y008326D02*
X005951Y008492D01*
X005951Y008992D01*
D17*
X005724Y008846D01*
X005951Y008492D01*
X006178Y008846D01*
X005951Y008992D01*
X005178Y008846D02*
X004951Y008992D01*
X004724Y008846D01*
X004951Y008492D01*
X005178Y008846D01*
X004178Y008846D02*
X003951Y008992D01*
X003724Y008846D01*
X003951Y008492D01*
X004178Y008846D01*
D18*
X003101Y008192D03*
X001651Y007842D03*
X001501Y006792D03*
X003051Y005342D03*
X003351Y005892D03*
X004051Y004292D03*
X004651Y005242D03*
X005251Y004242D03*
X005251Y003692D03*
X005851Y003642D03*
X007001Y003242D03*
X007001Y004092D03*
X007201Y006142D03*
X007151Y007292D03*
X006551Y007292D03*
X006101Y006692D03*
X003851Y003092D03*
X004151Y002592D03*
X003051Y002842D03*
X002351Y003692D03*
X002101Y004192D03*
X001151Y002542D03*
X001151Y001942D03*
X000551Y003792D03*
X000551Y004342D03*
X007001Y001892D03*
D19*
X000593Y001697D02*
X000484Y001742D01*
X000402Y001825D01*
X000357Y001933D01*
X000351Y001992D01*
X000351Y002056D01*
X000351Y002074D01*
X000351Y002232D01*
X000392Y002190D01*
X000910Y002190D01*
X000947Y002228D01*
X000993Y002209D01*
X001049Y002178D01*
X001049Y002178D01*
X001059Y002181D01*
X001078Y002174D01*
X001224Y002174D01*
X001360Y002230D01*
X001400Y002270D01*
X001400Y002183D01*
X001488Y002095D01*
X002045Y002095D01*
X002101Y002151D01*
X002157Y002095D01*
X002714Y002095D01*
X003195Y002095D01*
X003265Y002165D01*
X003289Y002141D01*
X003319Y002124D01*
X003352Y002115D01*
X003556Y002115D01*
X003556Y002411D01*
X003616Y002411D01*
X003616Y002115D01*
X003819Y002115D01*
X003853Y002124D01*
X003882Y002141D01*
X003906Y002165D01*
X003923Y002195D01*
X003932Y002228D01*
X003932Y002412D01*
X003616Y002412D01*
X003616Y002472D01*
X003556Y002472D01*
X003556Y002768D01*
X003419Y002768D01*
X003419Y002892D01*
X003446Y002892D01*
X003629Y002793D01*
X003643Y002780D01*
X003670Y002768D01*
X003616Y002768D01*
X003616Y002472D01*
X003932Y002472D01*
X003932Y002656D01*
X003923Y002689D01*
X003906Y002718D01*
X003901Y002724D01*
X003924Y002724D01*
X004060Y002780D01*
X004163Y002883D01*
X004219Y003018D01*
X004219Y003165D01*
X004163Y003300D01*
X004060Y003404D01*
X004052Y003407D01*
X004052Y003438D01*
X004071Y003437D01*
X004076Y003442D01*
X004084Y003442D01*
X004138Y003496D01*
X004476Y003792D01*
X004484Y003792D01*
X004538Y003846D01*
X004595Y003896D01*
X004596Y003903D01*
X004601Y003909D01*
X004601Y003985D01*
X004606Y004061D01*
X004601Y004067D01*
X004601Y004559D01*
X004601Y004724D01*
X004401Y004924D01*
X004352Y004973D01*
X004352Y005101D01*
X004348Y005105D01*
X004348Y005586D01*
X004292Y005642D01*
X004348Y005698D01*
X004348Y005779D01*
X005801Y005790D01*
X005801Y005309D01*
X005918Y005192D01*
X005972Y005138D01*
X005607Y005138D01*
X005551Y005082D01*
X005495Y005138D01*
X004938Y005138D01*
X004850Y005051D01*
X004850Y004533D01*
X004937Y004446D01*
X004931Y004431D01*
X004922Y004427D01*
X004909Y004383D01*
X004888Y004343D01*
X004891Y004334D01*
X004883Y004315D01*
X004883Y004296D01*
X004824Y004097D01*
X004801Y004074D01*
X004651Y003924D01*
X004651Y003759D01*
X004651Y002788D01*
X004438Y002788D01*
X004350Y002701D01*
X004350Y002183D01*
X004438Y002095D01*
X004995Y002095D01*
X005051Y002151D01*
X005107Y002095D01*
X005588Y002095D01*
X006145Y002095D01*
X006201Y002151D01*
X006257Y002095D01*
X006814Y002095D01*
X006902Y002183D01*
X006902Y002701D01*
X006814Y002788D01*
X006751Y002788D01*
X006751Y002824D01*
X006744Y002831D01*
X006743Y002841D01*
X006686Y002889D01*
X006634Y002942D01*
X006624Y002942D01*
X006371Y003154D01*
X006319Y003207D01*
X006309Y003207D01*
X006301Y003213D01*
X006227Y003207D01*
X005669Y003207D01*
X005501Y003375D01*
X005536Y003441D01*
X005539Y003433D01*
X005643Y003330D01*
X005778Y003274D01*
X005924Y003274D01*
X006060Y003330D01*
X006070Y003340D01*
X006079Y003341D01*
X006081Y003344D01*
X006122Y003392D01*
X006163Y003433D01*
X006169Y003448D01*
X006320Y003627D01*
X006328Y003632D01*
X006418Y003542D01*
X006574Y003386D01*
X006625Y003215D01*
X006625Y003215D01*
X006633Y003188D01*
X006633Y003168D01*
X006654Y003118D01*
X006672Y003057D01*
X006672Y003057D01*
X006681Y003052D01*
X006689Y003033D01*
X006793Y002930D01*
X006928Y002874D01*
X007074Y002874D01*
X007210Y002930D01*
X007313Y003033D01*
X007369Y003168D01*
X007369Y003315D01*
X007313Y003450D01*
X007210Y003554D01*
X007191Y003561D01*
X007186Y003570D01*
X007125Y003589D01*
X007074Y003610D01*
X007055Y003610D01*
X007028Y003618D01*
X006856Y003669D01*
X006701Y003824D01*
X006701Y005245D01*
X006795Y005245D01*
X006851Y005301D01*
X006907Y005245D01*
X007451Y005245D01*
X007451Y001992D01*
X007445Y001933D01*
X007401Y001825D01*
X007318Y001742D01*
X007210Y001697D01*
X007151Y001692D01*
X006431Y001692D01*
X006392Y001786D01*
X006246Y001932D01*
X006055Y002012D01*
X005848Y002012D01*
X005657Y001932D01*
X005510Y001786D01*
X005471Y001692D01*
X005431Y001692D01*
X005392Y001786D01*
X005246Y001932D01*
X005055Y002012D01*
X004848Y002012D01*
X004657Y001932D01*
X004510Y001786D01*
X004471Y001692D01*
X004471Y002095D01*
X004351Y002181D02*
X004351Y001827D01*
X004326Y001852D02*
X004576Y001852D01*
X004591Y001867D02*
X004591Y002095D01*
X004711Y002095D02*
X004711Y001955D01*
X004751Y001972D02*
X004151Y001972D01*
X004111Y001988D02*
X004111Y002831D01*
X004092Y002812D02*
X004651Y002812D01*
X004591Y002788D02*
X004591Y003892D01*
X004651Y003892D01*
X004711Y003984D02*
X004711Y005782D01*
X004591Y005781D02*
X004591Y004734D01*
X004594Y004732D02*
X004850Y004732D01*
X004850Y004852D02*
X004474Y004852D01*
X004471Y004854D02*
X004471Y005780D01*
X004351Y005779D02*
X004351Y005102D01*
X004352Y005092D02*
X004891Y005092D01*
X004951Y005138D02*
X004951Y005784D01*
X004831Y005783D02*
X004831Y004122D01*
X004834Y004132D02*
X004601Y004132D01*
X004601Y004252D02*
X004870Y004252D01*
X004903Y004372D02*
X004601Y004372D01*
X004601Y004492D02*
X004891Y004492D01*
X004850Y004612D02*
X004601Y004612D01*
X004354Y004972D02*
X004850Y004972D01*
X005071Y005138D02*
X005071Y005784D01*
X005191Y005785D02*
X005191Y005138D01*
X005311Y005138D02*
X005311Y005786D01*
X005431Y005787D02*
X005431Y005138D01*
X005542Y005092D02*
X005560Y005092D01*
X005551Y005083D02*
X005551Y005788D01*
X005671Y005789D02*
X005671Y005138D01*
X005791Y005138D02*
X005791Y005790D01*
X005801Y005692D02*
X004342Y005692D01*
X004348Y005572D02*
X005801Y005572D01*
X005801Y005452D02*
X004348Y005452D01*
X004348Y005332D02*
X005801Y005332D01*
X005898Y005212D02*
X004348Y005212D01*
X004201Y004495D02*
X003882Y004495D01*
X003882Y004322D01*
X003566Y004322D01*
X003566Y004262D01*
X003882Y004262D01*
X003882Y004078D01*
X003873Y004045D01*
X003856Y004015D01*
X003832Y003991D01*
X003828Y003988D01*
X003964Y003988D01*
X004025Y003928D01*
X004201Y004082D01*
X004201Y004495D01*
X004201Y004492D02*
X003882Y004492D01*
X003991Y004495D02*
X003991Y003962D01*
X003871Y003988D02*
X003871Y004041D01*
X003853Y004012D02*
X004120Y004012D01*
X004111Y004004D02*
X004111Y004495D01*
X004201Y004372D02*
X003882Y004372D01*
X003871Y004322D02*
X003871Y004262D01*
X003882Y004252D02*
X004201Y004252D01*
X004201Y004132D02*
X003882Y004132D01*
X003751Y004262D02*
X003751Y004322D01*
X003631Y004322D02*
X003631Y004262D01*
X004231Y003577D02*
X004231Y001938D01*
X004246Y001932D02*
X004055Y002012D01*
X003848Y002012D01*
X003657Y001932D01*
X003510Y001786D01*
X003471Y001692D01*
X003431Y001692D01*
X003392Y001786D01*
X003246Y001932D01*
X003055Y002012D01*
X002848Y002012D01*
X002657Y001932D01*
X002510Y001786D01*
X002471Y001692D01*
X002431Y001692D01*
X002392Y001786D01*
X002246Y001932D01*
X002055Y002012D01*
X001848Y002012D01*
X001657Y001932D01*
X001510Y001786D01*
X001471Y001692D01*
X001471Y002111D01*
X001591Y002095D02*
X001591Y001867D01*
X001576Y001852D02*
X000391Y001852D01*
X000391Y001850D02*
X000391Y002191D01*
X000371Y002212D02*
X000351Y002212D01*
X000351Y002092D02*
X007451Y002092D01*
X007449Y001972D02*
X006151Y001972D01*
X006151Y002101D01*
X006031Y002095D02*
X006031Y002012D01*
X005911Y002012D02*
X005911Y002095D01*
X005791Y002095D02*
X005791Y001988D01*
X005751Y001972D02*
X005151Y001972D01*
X005191Y001955D02*
X005191Y002095D01*
X005071Y002131D02*
X005071Y002005D01*
X004951Y002012D02*
X004951Y002095D01*
X004831Y002095D02*
X004831Y002005D01*
X004488Y001732D02*
X004415Y001732D01*
X004431Y001692D02*
X004392Y001786D01*
X004246Y001932D01*
X003991Y002012D02*
X003991Y002751D01*
X003922Y002692D02*
X004350Y002692D01*
X004351Y002702D02*
X004351Y003682D01*
X004316Y003652D02*
X004651Y003652D01*
X004651Y003772D02*
X004453Y003772D01*
X004471Y003787D02*
X004471Y002788D01*
X004350Y002572D02*
X003932Y002572D01*
X003871Y002472D02*
X003871Y002412D01*
X003932Y002332D02*
X004350Y002332D01*
X004350Y002452D02*
X003616Y002452D01*
X003631Y002472D02*
X003631Y002412D01*
X003616Y002332D02*
X003556Y002332D01*
X003556Y002212D02*
X003616Y002212D01*
X003631Y002115D02*
X003631Y001907D01*
X003576Y001852D02*
X003326Y001852D01*
X003271Y001907D02*
X003271Y002159D01*
X003151Y002095D02*
X003151Y001972D01*
X003751Y001972D01*
X003751Y002115D01*
X003871Y002134D02*
X003871Y002012D01*
X003928Y002212D02*
X004350Y002212D01*
X004431Y001692D02*
X004471Y001692D01*
X003751Y002412D02*
X003751Y002472D01*
X003616Y002572D02*
X003556Y002572D01*
X003556Y002692D02*
X003616Y002692D01*
X003631Y002768D02*
X003631Y002791D01*
X003595Y002812D02*
X003419Y002812D01*
X003511Y002768D02*
X003511Y002857D01*
X003511Y002115D02*
X003511Y001787D01*
X003488Y001732D02*
X003415Y001732D01*
X003391Y001787D02*
X003391Y002115D01*
X003031Y002095D02*
X003031Y002012D01*
X002911Y002012D02*
X002911Y002095D01*
X002791Y002095D02*
X002791Y001988D01*
X002751Y001972D02*
X002151Y001972D01*
X002191Y001955D02*
X002191Y002095D01*
X002311Y002095D02*
X002311Y001867D01*
X002326Y001852D02*
X002576Y001852D01*
X002551Y001827D02*
X002551Y002095D01*
X002431Y002095D02*
X002431Y001692D01*
X002415Y001732D02*
X002488Y001732D01*
X002671Y001939D02*
X002671Y002095D01*
X002071Y002121D02*
X002071Y002005D01*
X001951Y002012D02*
X001951Y002095D01*
X001831Y002095D02*
X001831Y002005D01*
X001751Y001972D02*
X000353Y001972D01*
X000511Y002190D02*
X000511Y001731D01*
X000510Y001732D02*
X001488Y001732D01*
X001471Y001692D02*
X000651Y001692D01*
X000593Y001697D01*
X000631Y001694D02*
X000631Y002190D01*
X000751Y002190D02*
X000751Y001692D01*
X000871Y001692D02*
X000871Y002190D01*
X000931Y002212D02*
X000986Y002212D01*
X000991Y002209D02*
X000991Y001692D01*
X001111Y001692D02*
X001111Y002174D01*
X001049Y002178D02*
X001049Y002178D01*
X001231Y002176D02*
X001231Y001692D01*
X001351Y001692D02*
X001351Y002226D01*
X001316Y002212D02*
X001400Y002212D01*
X001711Y002095D02*
X001711Y001955D01*
X001154Y003407D02*
X000998Y003407D01*
X000998Y003505D01*
X000910Y003593D01*
X000392Y003593D01*
X000351Y003552D01*
X000351Y004026D01*
X000478Y003974D01*
X000624Y003974D01*
X000760Y004030D01*
X000863Y004133D01*
X000919Y004268D01*
X000919Y004305D01*
X000928Y004316D01*
X000919Y004370D01*
X000919Y004415D01*
X000908Y004442D01*
X000893Y004540D01*
X001160Y004540D01*
X001248Y004628D01*
X001248Y004771D01*
X001301Y004824D01*
X001617Y005140D01*
X001960Y005140D01*
X002048Y005228D01*
X002048Y005786D01*
X001992Y005842D01*
X002048Y005898D01*
X002048Y006455D01*
X001960Y006543D01*
X001785Y006543D01*
X001800Y006569D01*
X001813Y006583D01*
X001834Y006634D01*
X001864Y006690D01*
X001864Y006690D01*
X001864Y006690D01*
X001861Y006700D01*
X001869Y006718D01*
X001869Y006865D01*
X001813Y007000D01*
X001710Y007104D01*
X001574Y007160D01*
X001428Y007160D01*
X001409Y007152D01*
X001399Y007155D01*
X001343Y007125D01*
X001293Y007104D01*
X001279Y007090D01*
X001204Y007049D01*
X001160Y007093D01*
X000642Y007093D01*
X000554Y007005D01*
X000554Y006448D01*
X000610Y006392D01*
X000554Y006336D01*
X000554Y005855D01*
X000554Y005298D01*
X000610Y005242D01*
X000554Y005186D01*
X000554Y004856D01*
X000520Y004810D01*
X000352Y004657D01*
X000351Y004657D01*
X000351Y008492D01*
X000357Y008550D01*
X000402Y008658D01*
X000484Y008741D01*
X000593Y008786D01*
X000651Y008792D01*
X000707Y008792D01*
X000734Y008792D01*
X001471Y008792D01*
X001471Y007160D01*
X001399Y007155D02*
X001399Y007155D01*
X001399Y007155D01*
X001356Y007132D02*
X000351Y007132D01*
X000351Y007252D02*
X002966Y007252D01*
X002911Y007306D02*
X002911Y005682D01*
X002934Y005692D02*
X002048Y005692D01*
X002048Y005572D02*
X002761Y005572D01*
X002739Y005550D02*
X002683Y005415D01*
X002683Y005268D01*
X002734Y005146D01*
X002734Y005138D01*
X002796Y005077D01*
X002843Y005030D01*
X002844Y005029D01*
X002950Y004924D01*
X002950Y004638D01*
X002588Y004638D01*
X002500Y004551D01*
X002500Y004033D01*
X002507Y004025D01*
X002424Y004060D01*
X002278Y004060D01*
X002259Y004052D01*
X002249Y004055D01*
X002193Y004025D01*
X002143Y004004D01*
X002129Y003990D01*
X001946Y003892D01*
X001914Y003892D01*
X001848Y003892D01*
X001946Y003892D01*
X001951Y003894D02*
X001951Y005140D01*
X002031Y005212D02*
X002707Y005212D01*
X002683Y005332D02*
X002048Y005332D01*
X002048Y005452D02*
X002698Y005452D01*
X002739Y005550D02*
X002843Y005654D01*
X002978Y005710D01*
X003124Y005710D01*
X003260Y005654D01*
X003363Y005550D01*
X003419Y005415D01*
X003419Y005365D01*
X003428Y005351D01*
X003428Y005351D01*
X003428Y005351D01*
X003419Y005305D01*
X003419Y005268D01*
X003405Y005234D01*
X003396Y005188D01*
X003595Y005188D01*
X003651Y005132D01*
X003654Y005136D01*
X003654Y005586D01*
X003710Y005642D01*
X003654Y005698D01*
X003654Y006255D01*
X003742Y006343D01*
X004260Y006343D01*
X004348Y006255D01*
X004348Y006179D01*
X005801Y006190D01*
X005801Y006269D01*
X005801Y006331D01*
X005758Y006534D01*
X005758Y006534D01*
X005748Y006582D01*
X005733Y006618D01*
X005733Y006653D01*
X005724Y006696D01*
X005724Y006697D01*
X005733Y006711D01*
X005733Y006765D01*
X005789Y006900D01*
X005893Y007004D01*
X006028Y007060D01*
X006174Y007060D01*
X006310Y007004D01*
X006413Y006900D01*
X006469Y006765D01*
X006469Y006618D01*
X006421Y006502D01*
X006421Y006491D01*
X006414Y006484D01*
X006413Y006483D01*
X006366Y006436D01*
X006201Y006269D01*
X006201Y006269D01*
X006201Y005994D01*
X006202Y005910D01*
X006201Y005910D01*
X006201Y005909D01*
X006201Y005902D01*
X006238Y005938D01*
X006795Y005938D01*
X006851Y005882D01*
X006895Y005927D01*
X006889Y005933D01*
X006868Y005983D01*
X006838Y006040D01*
X006838Y006040D01*
X006838Y006040D01*
X006841Y006050D01*
X006833Y006068D01*
X006833Y006215D01*
X006889Y006350D01*
X006993Y006454D01*
X007128Y006510D01*
X007274Y006510D01*
X007410Y006454D01*
X007451Y006412D01*
X007451Y008409D01*
X007451Y008463D01*
X007451Y008492D01*
X007445Y008550D01*
X007401Y008658D01*
X007318Y008741D01*
X007210Y008786D01*
X007151Y008792D01*
X006431Y008792D01*
X006416Y008756D01*
X006416Y008753D01*
X006414Y008750D01*
X006392Y008697D01*
X006359Y008664D01*
X006298Y008569D01*
X006298Y008048D01*
X006228Y007977D01*
X006252Y007953D01*
X006269Y007924D01*
X006278Y007891D01*
X006278Y007687D01*
X005981Y007687D01*
X005981Y007627D01*
X005981Y007310D01*
X006165Y007310D01*
X006198Y007319D01*
X006228Y007336D01*
X006252Y007361D01*
X006269Y007390D01*
X006278Y007423D01*
X006278Y007627D01*
X005981Y007627D01*
X005921Y007627D01*
X005624Y007627D01*
X005624Y007423D01*
X005633Y007390D01*
X005650Y007361D01*
X005674Y007336D01*
X005704Y007319D01*
X005737Y007310D01*
X005921Y007310D01*
X005921Y007627D01*
X005921Y007687D01*
X005624Y007687D01*
X005624Y007891D01*
X005633Y007924D01*
X005650Y007953D01*
X005674Y007977D01*
X005604Y008048D01*
X005604Y008569D01*
X005544Y008664D01*
X005510Y008697D01*
X005489Y008750D01*
X005487Y008753D01*
X005486Y008756D01*
X005471Y008792D01*
X005431Y008792D01*
X005416Y008756D01*
X005416Y008753D01*
X005414Y008750D01*
X005392Y008697D01*
X005359Y008664D01*
X005298Y008569D01*
X005298Y008048D01*
X005228Y007977D01*
X005252Y007953D01*
X005269Y007924D01*
X005278Y007891D01*
X005278Y007687D01*
X004981Y007687D01*
X004981Y007627D01*
X004981Y007310D01*
X005165Y007310D01*
X005198Y007319D01*
X005228Y007336D01*
X005252Y007361D01*
X005269Y007390D01*
X005278Y007423D01*
X005278Y007627D01*
X004981Y007627D01*
X004921Y007627D01*
X004624Y007627D01*
X004624Y007423D01*
X004633Y007390D01*
X004650Y007361D01*
X004674Y007336D01*
X004704Y007319D01*
X004737Y007310D01*
X004921Y007310D01*
X004921Y007627D01*
X004921Y007687D01*
X004624Y007687D01*
X004624Y007891D01*
X004633Y007924D01*
X004650Y007953D01*
X004674Y007977D01*
X004604Y008048D01*
X004604Y008569D01*
X004544Y008664D01*
X004510Y008697D01*
X004489Y008750D01*
X004487Y008753D01*
X004486Y008756D01*
X004471Y008792D01*
X004471Y006972D01*
X004351Y006972D02*
X004351Y008652D01*
X004359Y008664D02*
X004392Y008697D01*
X004414Y008749D01*
X004416Y008753D01*
X004416Y008756D01*
X004431Y008792D01*
X004471Y008792D01*
X004516Y008692D02*
X004387Y008692D01*
X004359Y008664D02*
X004298Y008569D01*
X004298Y008048D01*
X004228Y007977D01*
X004252Y007953D01*
X004269Y007924D01*
X004278Y007891D01*
X004278Y007687D01*
X003981Y007687D01*
X003981Y007627D01*
X003981Y007310D01*
X004165Y007310D01*
X004198Y007319D01*
X004228Y007336D01*
X004252Y007361D01*
X004269Y007390D01*
X004278Y007423D01*
X004278Y007627D01*
X003981Y007627D01*
X003921Y007627D01*
X003624Y007627D01*
X003624Y007423D01*
X003633Y007390D01*
X003650Y007361D01*
X003674Y007336D01*
X003704Y007319D01*
X003737Y007310D01*
X003921Y007310D01*
X003921Y007627D01*
X003921Y007687D01*
X003624Y007687D01*
X003624Y007891D01*
X003633Y007924D01*
X003650Y007953D01*
X003674Y007977D01*
X003604Y008048D01*
X003604Y008569D01*
X003544Y008664D01*
X003510Y008697D01*
X003489Y008750D01*
X003487Y008753D01*
X003486Y008756D01*
X003471Y008792D01*
X003410Y008792D01*
X003379Y008730D01*
X003333Y008666D01*
X003277Y008610D01*
X003213Y008564D01*
X003143Y008528D01*
X003068Y008504D01*
X002991Y008492D01*
X002981Y008492D01*
X002981Y008792D01*
X002921Y008792D01*
X002921Y008492D01*
X002912Y008492D01*
X002834Y008504D01*
X002759Y008528D01*
X002689Y008564D01*
X002625Y008610D01*
X002570Y008666D01*
X002524Y008730D01*
X002492Y008792D01*
X002431Y008792D01*
X002392Y008697D01*
X002281Y008587D01*
X003896Y006972D01*
X004883Y006972D01*
X004883Y007022D01*
X004971Y007110D01*
X005531Y007110D01*
X005619Y007022D01*
X005619Y006461D01*
X005531Y006374D01*
X004971Y006374D01*
X004883Y006461D01*
X004883Y006512D01*
X003896Y006512D01*
X003706Y006512D01*
X001895Y008323D01*
X001798Y008363D01*
X001722Y008439D01*
X001681Y008538D01*
X001681Y008541D01*
X001657Y008551D01*
X001510Y008697D01*
X001471Y008792D01*
X001516Y008692D02*
X000435Y008692D01*
X000391Y008633D02*
X000391Y004693D01*
X000351Y004732D02*
X000434Y004732D01*
X000511Y004802D02*
X000511Y008752D01*
X000631Y008790D02*
X000631Y007082D01*
X000561Y007012D02*
X000351Y007012D01*
X000351Y006892D02*
X000554Y006892D01*
X000554Y006772D02*
X000351Y006772D01*
X000351Y006652D02*
X000554Y006652D01*
X000554Y006532D02*
X000351Y006532D01*
X000351Y006412D02*
X000590Y006412D01*
X000554Y006292D02*
X000351Y006292D01*
X000351Y006172D02*
X000554Y006172D01*
X000554Y006052D02*
X000351Y006052D01*
X000351Y005932D02*
X000554Y005932D01*
X000554Y005812D02*
X000351Y005812D01*
X000351Y005692D02*
X000554Y005692D01*
X000554Y005572D02*
X000351Y005572D01*
X000351Y005452D02*
X000554Y005452D01*
X000554Y005332D02*
X000351Y005332D01*
X000351Y005212D02*
X000580Y005212D01*
X000554Y005092D02*
X000351Y005092D01*
X000351Y004972D02*
X000554Y004972D01*
X000551Y004852D02*
X000351Y004852D01*
X000900Y004492D02*
X002500Y004492D01*
X002500Y004372D02*
X000919Y004372D01*
X000912Y004252D02*
X002500Y004252D01*
X002500Y004132D02*
X001848Y004132D01*
X001848Y004155D02*
X001760Y004243D01*
X001242Y004243D01*
X001154Y004155D01*
X001154Y003598D01*
X001210Y003542D01*
X001154Y003486D01*
X001154Y003407D01*
X001154Y003412D02*
X000998Y003412D01*
X000991Y003512D02*
X000991Y004540D01*
X001111Y004540D02*
X001111Y003407D01*
X001200Y003532D02*
X000971Y003532D01*
X000871Y003593D02*
X000871Y004152D01*
X000862Y004132D02*
X001154Y004132D01*
X001154Y004012D02*
X000716Y004012D01*
X000751Y004026D02*
X000751Y003593D01*
X000631Y003593D02*
X000631Y003976D01*
X000511Y003974D02*
X000511Y003593D01*
X000391Y003592D02*
X000391Y004009D01*
X000386Y004012D02*
X000351Y004012D01*
X000351Y003892D02*
X001154Y003892D01*
X001154Y003772D02*
X000351Y003772D01*
X000351Y003652D02*
X001154Y003652D01*
X001231Y004232D02*
X001231Y004611D01*
X001231Y004612D02*
X002561Y004612D01*
X002551Y004602D02*
X002551Y007666D01*
X002606Y007612D02*
X000351Y007612D01*
X000351Y007732D02*
X002486Y007732D01*
X002431Y007786D02*
X002431Y004057D01*
X002311Y004060D02*
X002311Y007906D01*
X002366Y007852D02*
X000351Y007852D01*
X000351Y007972D02*
X002246Y007972D01*
X002191Y008026D02*
X002191Y004024D01*
X002162Y004012D02*
X001848Y004012D01*
X001848Y003892D02*
X001848Y004155D01*
X001831Y004172D02*
X001831Y005140D01*
X001711Y005140D02*
X001711Y004243D01*
X001591Y004243D02*
X001591Y005114D01*
X001569Y005092D02*
X002780Y005092D01*
X002791Y005081D02*
X002791Y004638D01*
X002671Y004638D02*
X002671Y007546D01*
X002726Y007492D02*
X000351Y007492D01*
X000351Y007372D02*
X002846Y007372D01*
X002791Y007426D02*
X002791Y005602D01*
X003031Y005710D02*
X003031Y007186D01*
X003086Y007132D02*
X001642Y007132D01*
X001591Y007153D02*
X001591Y008616D01*
X001636Y008572D02*
X000366Y008572D01*
X000351Y008452D02*
X001717Y008452D01*
X001711Y008466D02*
X001711Y007102D01*
X001802Y007012D02*
X003206Y007012D01*
X003151Y007066D02*
X003151Y005699D01*
X003168Y005692D02*
X003660Y005692D01*
X003654Y005812D02*
X002022Y005812D01*
X002048Y005932D02*
X003654Y005932D01*
X003654Y006052D02*
X002048Y006052D01*
X002048Y006172D02*
X003654Y006172D01*
X003691Y006292D02*
X002048Y006292D01*
X002048Y006412D02*
X004933Y006412D01*
X004951Y006393D02*
X004951Y006184D01*
X004831Y006183D02*
X004831Y006512D01*
X004711Y006512D02*
X004711Y006182D01*
X004591Y006181D02*
X004591Y006512D01*
X004471Y006512D02*
X004471Y006180D01*
X004351Y006179D02*
X004351Y006512D01*
X004231Y006512D02*
X004231Y006343D01*
X004311Y006292D02*
X005801Y006292D01*
X005791Y006378D02*
X005791Y006190D01*
X005671Y006189D02*
X005671Y007340D01*
X005644Y007372D02*
X005258Y007372D01*
X005191Y007317D02*
X005191Y007110D01*
X005071Y007110D02*
X005071Y007310D01*
X004981Y007372D02*
X004921Y007372D01*
X004831Y007310D02*
X004831Y006972D01*
X004883Y007012D02*
X003856Y007012D01*
X003871Y006997D02*
X003871Y007310D01*
X003921Y007372D02*
X003981Y007372D01*
X003991Y007310D02*
X003991Y006972D01*
X004111Y006972D02*
X004111Y007310D01*
X004231Y007340D02*
X004231Y006972D01*
X004258Y007372D02*
X004644Y007372D01*
X004711Y007317D02*
X004711Y006972D01*
X004591Y006972D02*
X004591Y008590D01*
X004603Y008572D02*
X004300Y008572D01*
X004298Y008452D02*
X004604Y008452D01*
X004604Y008332D02*
X004298Y008332D01*
X004298Y008212D02*
X004604Y008212D01*
X004604Y008092D02*
X004298Y008092D01*
X004231Y007981D02*
X004231Y007974D01*
X004234Y007972D02*
X004669Y007972D01*
X004624Y007852D02*
X004278Y007852D01*
X004278Y007732D02*
X004624Y007732D01*
X004711Y007687D02*
X004711Y007627D01*
X004624Y007612D02*
X004278Y007612D01*
X004231Y007627D02*
X004231Y007687D01*
X004111Y007687D02*
X004111Y007627D01*
X003991Y007627D02*
X003991Y007687D01*
X003981Y007612D02*
X003921Y007612D01*
X003871Y007627D02*
X003871Y007687D01*
X003751Y007687D02*
X003751Y007627D01*
X003631Y007627D02*
X003631Y007687D01*
X003624Y007732D02*
X003136Y007732D01*
X003151Y007717D02*
X003151Y008532D01*
X003224Y008572D02*
X003603Y008572D01*
X003604Y008452D02*
X002416Y008452D01*
X002431Y008437D02*
X002431Y008792D01*
X002386Y008692D02*
X002551Y008692D01*
X002551Y008317D01*
X002536Y008332D02*
X003604Y008332D01*
X003604Y008212D02*
X002656Y008212D01*
X002671Y008197D02*
X002671Y008577D01*
X002679Y008572D02*
X002296Y008572D01*
X002311Y008557D02*
X002311Y008616D01*
X001951Y008266D02*
X001951Y006543D01*
X001971Y006532D02*
X003686Y006532D01*
X003751Y006512D02*
X003751Y006343D01*
X003871Y006343D02*
X003871Y006512D01*
X003991Y006512D02*
X003991Y006343D01*
X004111Y006343D02*
X004111Y006512D01*
X003751Y007117D02*
X003751Y007310D01*
X003644Y007372D02*
X003496Y007372D01*
X003511Y007357D02*
X003511Y008696D01*
X003516Y008692D02*
X003351Y008692D01*
X003391Y008754D02*
X003391Y007477D01*
X003376Y007492D02*
X003624Y007492D01*
X003631Y007398D02*
X003631Y007237D01*
X003616Y007252D02*
X007451Y007252D01*
X007451Y007372D02*
X006258Y007372D01*
X006271Y007398D02*
X006271Y007020D01*
X006291Y007012D02*
X007451Y007012D01*
X007451Y007132D02*
X003736Y007132D01*
X003921Y007492D02*
X003981Y007492D01*
X004278Y007492D02*
X004624Y007492D01*
X004831Y007627D02*
X004831Y007687D01*
X004921Y007612D02*
X004981Y007612D01*
X004951Y007627D02*
X004951Y007090D01*
X004921Y007492D02*
X004981Y007492D01*
X005071Y007627D02*
X005071Y007687D01*
X005191Y007687D02*
X005191Y007627D01*
X005278Y007612D02*
X005624Y007612D01*
X005671Y007627D02*
X005671Y007687D01*
X005624Y007732D02*
X005278Y007732D01*
X005278Y007852D02*
X005624Y007852D01*
X005669Y007972D02*
X005234Y007972D01*
X005298Y008092D02*
X005604Y008092D01*
X005604Y008212D02*
X005298Y008212D01*
X005298Y008332D02*
X005604Y008332D01*
X005604Y008452D02*
X005298Y008452D01*
X005300Y008572D02*
X005603Y008572D01*
X005551Y008652D02*
X005551Y007090D01*
X005619Y007012D02*
X005912Y007012D01*
X005911Y007011D02*
X005911Y007310D01*
X005921Y007372D02*
X005981Y007372D01*
X006031Y007310D02*
X006031Y007060D01*
X006151Y007060D02*
X006151Y007310D01*
X006278Y007492D02*
X007451Y007492D01*
X007451Y007612D02*
X006278Y007612D01*
X006271Y007627D02*
X006271Y007687D01*
X006278Y007732D02*
X007451Y007732D01*
X007451Y007852D02*
X006278Y007852D01*
X006271Y007916D02*
X006271Y008021D01*
X006234Y007972D02*
X007451Y007972D01*
X007451Y008092D02*
X006298Y008092D01*
X006298Y008212D02*
X007451Y008212D01*
X007451Y008332D02*
X006298Y008332D01*
X006298Y008452D02*
X007451Y008452D01*
X007436Y008572D02*
X006300Y008572D01*
X006387Y008692D02*
X007367Y008692D01*
X007351Y008708D02*
X007351Y006478D01*
X007231Y006510D02*
X007231Y008777D01*
X007111Y008792D02*
X007111Y006503D01*
X006991Y006452D02*
X006991Y008792D01*
X006871Y008792D02*
X006871Y006307D01*
X006865Y006292D02*
X006223Y006292D01*
X006271Y006340D02*
X006271Y005938D01*
X006231Y005932D02*
X006202Y005932D01*
X006201Y006052D02*
X006840Y006052D01*
X006871Y005976D02*
X006871Y005902D01*
X006891Y005932D02*
X006802Y005932D01*
X006751Y005938D02*
X006751Y008792D01*
X006631Y008792D02*
X006631Y005938D01*
X006511Y005938D02*
X006511Y008792D01*
X006391Y008696D02*
X006391Y006922D01*
X006417Y006892D02*
X007451Y006892D01*
X007451Y006772D02*
X006466Y006772D01*
X006469Y006652D02*
X007451Y006652D01*
X007451Y006532D02*
X006433Y006532D01*
X006391Y006461D02*
X006391Y005938D01*
X006201Y006172D02*
X006833Y006172D01*
X006951Y006412D02*
X006342Y006412D01*
X005784Y006412D02*
X005570Y006412D01*
X005551Y006393D02*
X005551Y006188D01*
X005431Y006187D02*
X005431Y006374D01*
X005311Y006374D02*
X005311Y006186D01*
X005191Y006185D02*
X005191Y006374D01*
X005071Y006374D02*
X005071Y006184D01*
X005619Y006532D02*
X005759Y006532D01*
X005733Y006652D02*
X005619Y006652D01*
X005619Y006772D02*
X005736Y006772D01*
X005786Y006892D02*
X005619Y006892D01*
X005791Y006902D02*
X005791Y007310D01*
X005921Y007492D02*
X005981Y007492D01*
X005981Y007612D02*
X005921Y007612D01*
X005911Y007627D02*
X005911Y007687D01*
X005791Y007687D02*
X005791Y007627D01*
X005624Y007492D02*
X005278Y007492D01*
X005311Y007110D02*
X005311Y008590D01*
X005386Y008692D02*
X005516Y008692D01*
X005431Y008792D02*
X005431Y007110D01*
X006031Y007627D02*
X006031Y007687D01*
X006151Y007687D02*
X006151Y007627D01*
X005671Y007974D02*
X005671Y007981D01*
X003669Y007972D02*
X002896Y007972D01*
X002911Y007957D02*
X002911Y008492D01*
X002921Y008572D02*
X002981Y008572D01*
X003031Y008498D02*
X003031Y007837D01*
X003016Y007852D02*
X003624Y007852D01*
X003631Y007916D02*
X003631Y008021D01*
X003604Y008092D02*
X002776Y008092D01*
X002791Y008077D02*
X002791Y008518D01*
X002921Y008692D02*
X002981Y008692D01*
X003271Y008606D02*
X003271Y007597D01*
X003256Y007612D02*
X003624Y007612D01*
X003271Y006946D02*
X003271Y005642D01*
X003342Y005572D02*
X003654Y005572D01*
X003654Y005452D02*
X003404Y005452D01*
X003391Y005483D02*
X003391Y006826D01*
X003446Y006772D02*
X001869Y006772D01*
X001858Y006892D02*
X003326Y006892D01*
X003511Y006706D02*
X003511Y005188D01*
X003401Y005212D02*
X003654Y005212D01*
X003631Y005152D02*
X003631Y006586D01*
X003566Y006652D02*
X001844Y006652D01*
X001831Y006626D02*
X001831Y006543D01*
X001831Y006957D02*
X001831Y008349D01*
X001873Y008332D02*
X000351Y008332D01*
X000351Y008212D02*
X002006Y008212D01*
X002071Y008146D02*
X002071Y003959D01*
X002249Y004055D02*
X002249Y004055D01*
X002249Y004055D01*
X002911Y004638D02*
X002911Y004963D01*
X002902Y004972D02*
X001449Y004972D01*
X001471Y004994D02*
X001471Y004243D01*
X001351Y004243D02*
X001351Y004874D01*
X001329Y004852D02*
X002950Y004852D01*
X002950Y004732D02*
X001248Y004732D01*
X001231Y007064D02*
X001231Y008792D01*
X001351Y008792D02*
X001351Y007129D01*
X001111Y007093D02*
X001111Y008792D01*
X000991Y008792D02*
X000991Y007093D01*
X000871Y007093D02*
X000871Y008792D01*
X000751Y008792D02*
X000751Y007093D01*
X000351Y008092D02*
X002126Y008092D01*
X003424Y005332D02*
X003654Y005332D01*
X004603Y004012D02*
X004738Y004012D01*
X004651Y003532D02*
X004179Y003532D01*
X004111Y003469D02*
X004111Y003352D01*
X004167Y003292D02*
X004651Y003292D01*
X004651Y003412D02*
X004052Y003412D01*
X004216Y003172D02*
X004651Y003172D01*
X004651Y003052D02*
X004219Y003052D01*
X004183Y002932D02*
X004651Y002932D01*
X005311Y002095D02*
X005311Y001867D01*
X005326Y001852D02*
X005576Y001852D01*
X005551Y001827D02*
X005551Y002095D01*
X005671Y002095D02*
X005671Y001939D01*
X005488Y001732D02*
X005415Y001732D01*
X005431Y001692D02*
X005431Y002095D01*
X006271Y002095D02*
X006271Y001907D01*
X006326Y001852D02*
X007412Y001852D01*
X007351Y001776D02*
X007351Y003125D01*
X007369Y003172D02*
X007451Y003172D01*
X007451Y003292D02*
X007369Y003292D01*
X007351Y003359D02*
X007351Y005245D01*
X007231Y005245D02*
X007231Y003532D01*
X007232Y003532D02*
X007451Y003532D01*
X007451Y003652D02*
X006915Y003652D01*
X006871Y003665D02*
X006871Y005281D01*
X006751Y005245D02*
X006751Y003774D01*
X006754Y003772D02*
X007451Y003772D01*
X007451Y003892D02*
X006701Y003892D01*
X006701Y004012D02*
X007451Y004012D01*
X007451Y004132D02*
X006701Y004132D01*
X006701Y004252D02*
X007451Y004252D01*
X007451Y004372D02*
X006701Y004372D01*
X006701Y004492D02*
X007451Y004492D01*
X007451Y004612D02*
X006701Y004612D01*
X006701Y004732D02*
X007451Y004732D01*
X007451Y004852D02*
X006701Y004852D01*
X006701Y004972D02*
X007451Y004972D01*
X007451Y005092D02*
X006701Y005092D01*
X006701Y005212D02*
X007451Y005212D01*
X007111Y005245D02*
X007111Y003594D01*
X006991Y003629D02*
X006991Y005245D01*
X005911Y005199D02*
X005911Y005138D01*
X006271Y003568D02*
X006271Y003211D01*
X006354Y003172D02*
X006633Y003172D01*
X006631Y003194D02*
X006631Y002942D01*
X006644Y002932D02*
X006791Y002932D01*
X006751Y002971D02*
X006751Y002788D01*
X006751Y002812D02*
X007451Y002812D01*
X007451Y002932D02*
X007212Y002932D01*
X007231Y002951D02*
X007231Y001706D01*
X007292Y001732D02*
X006415Y001732D01*
X006391Y001787D02*
X006391Y002095D01*
X006511Y002095D02*
X006511Y001692D01*
X006631Y001692D02*
X006631Y002095D01*
X006751Y002095D02*
X006751Y001692D01*
X006871Y001692D02*
X006871Y002151D01*
X006902Y002212D02*
X007451Y002212D01*
X007451Y002332D02*
X006902Y002332D01*
X006902Y002452D02*
X007451Y002452D01*
X007451Y002572D02*
X006902Y002572D01*
X006902Y002692D02*
X007451Y002692D01*
X007451Y003052D02*
X007321Y003052D01*
X007111Y002889D02*
X007111Y001692D01*
X006991Y001692D02*
X006991Y002874D01*
X006871Y002897D02*
X006871Y002732D01*
X006681Y003052D02*
X006493Y003052D01*
X006511Y003037D02*
X006511Y003449D01*
X006548Y003412D02*
X006142Y003412D01*
X006151Y003421D02*
X006151Y003207D01*
X006031Y003207D02*
X006031Y003318D01*
X005968Y003292D02*
X006602Y003292D01*
X006672Y003057D02*
X006672Y003057D01*
X006391Y003138D02*
X006391Y003569D01*
X006428Y003532D02*
X006240Y003532D01*
X005911Y003274D02*
X005911Y003207D01*
X005791Y003207D02*
X005791Y003274D01*
X005734Y003292D02*
X005584Y003292D01*
X005551Y003324D02*
X005551Y003421D01*
X005561Y003412D02*
X005520Y003412D01*
X005671Y003318D02*
X005671Y003207D01*
X007329Y003412D02*
X007451Y003412D01*
M02*
