%
M48
M72
T01C0.0236
T02C0.0400
%
T01
X1151Y1942
X1151Y2542
X551Y3792
X551Y4342
X2101Y4192
X2351Y3692
X3051Y2842
X3851Y3092
X4151Y2592
X5251Y3692
X5251Y4242
X5851Y3642
X7001Y3242
X7001Y4092
X7201Y6142
X7151Y7292
X6551Y7292
X6101Y6692
X5251Y6742
X4651Y5242
X4051Y4292
X3051Y5342
X3351Y5892
X1651Y7842
X1501Y6792
X3101Y8192
X7001Y1892
T02
X5951Y1492
X4951Y1492
X3951Y1492
X2951Y1492
X1951Y1492
X1951Y8992
X2951Y8992
X3951Y8992
X4951Y8992
X5951Y8992
M30
