G75*
G70*
%OFA0B0*%
%FSLAX24Y24*%
%IPPOS*%
%LPD*%
%AMOC8*
5,1,8,0,0,1.08239X$1,22.5*
%
%ADD10C,0.0020*%
%ADD11C,0.0030*%
%ADD12C,0.0220*%
%ADD13R,0.0180X0.0300*%
%ADD14R,0.0300X0.0180*%
D10*
X000411Y005302D02*
X000411Y005395D01*
X000411Y005348D02*
X000691Y005348D01*
X000691Y005302D01*
X000551Y005486D02*
X000598Y005532D01*
X000598Y005626D01*
X000551Y005673D01*
X000505Y005673D01*
X000505Y005486D01*
X000551Y005486D02*
X000458Y005486D01*
X000411Y005532D01*
X000411Y005626D01*
X000458Y005762D02*
X000505Y005809D01*
X000505Y005949D01*
X000551Y005949D02*
X000411Y005949D01*
X000411Y005809D01*
X000458Y005762D01*
X000598Y005809D02*
X000598Y005902D01*
X000551Y005949D01*
X000551Y006038D02*
X000551Y006132D01*
X000551Y006222D02*
X000458Y006222D01*
X000411Y006269D01*
X000411Y006409D01*
X000364Y006409D02*
X000598Y006409D01*
X000598Y006269D01*
X000551Y006222D01*
X000645Y006085D02*
X000411Y006085D01*
X000318Y006316D02*
X000318Y006362D01*
X000364Y006409D01*
X000411Y006499D02*
X000598Y006499D01*
X000598Y006592D02*
X000598Y006639D01*
X000598Y006592D02*
X000505Y006499D01*
X000458Y006729D02*
X000505Y006775D01*
X000505Y006916D01*
X000551Y006916D02*
X000411Y006916D01*
X000411Y006775D01*
X000458Y006729D01*
X000598Y006869D02*
X000551Y006916D01*
X000598Y006869D02*
X000598Y006775D01*
X000551Y007005D02*
X000598Y007052D01*
X000598Y007192D01*
X000551Y007281D02*
X000598Y007328D01*
X000598Y007468D01*
X000505Y007421D02*
X000505Y007328D01*
X000551Y007281D01*
X000458Y007192D02*
X000505Y007145D01*
X000505Y007052D01*
X000551Y007005D01*
X000411Y007005D02*
X000411Y007145D01*
X000458Y007192D01*
X000411Y007281D02*
X000411Y007421D01*
X000458Y007468D01*
X000505Y007421D01*
X000458Y007557D02*
X000458Y007604D01*
X000411Y007604D01*
X000411Y007557D01*
X000458Y007557D01*
X000458Y007742D02*
X000411Y007789D01*
X000458Y007742D02*
X000645Y007742D01*
X000598Y007696D02*
X000598Y007789D01*
X000505Y007880D02*
X000598Y008020D01*
X000505Y007880D02*
X000411Y008020D01*
X000411Y007880D02*
X000691Y007880D01*
X000691Y006132D02*
X000645Y006085D01*
D11*
X002066Y006143D02*
X002066Y006267D01*
X002066Y006205D02*
X002313Y006205D01*
X002313Y006143D01*
X002436Y006205D02*
X002498Y006205D01*
X002436Y006389D02*
X002066Y006389D01*
X002066Y006574D01*
X002128Y006636D01*
X002251Y006636D01*
X002313Y006574D01*
X002313Y006389D01*
X002066Y006022D02*
X002066Y005775D01*
X002436Y005775D01*
X002666Y005768D02*
X003036Y005768D01*
X003036Y005707D02*
X003036Y005830D01*
X003036Y005952D02*
X002913Y006076D01*
X003036Y006199D01*
X002666Y006199D01*
X002728Y006320D02*
X002666Y006382D01*
X002666Y006506D01*
X002728Y006567D01*
X003036Y006567D01*
X002975Y006689D02*
X003036Y006750D01*
X003036Y006874D01*
X002975Y006936D01*
X002728Y006689D01*
X002666Y006750D01*
X002666Y006874D01*
X002728Y006936D01*
X002975Y006936D01*
X002975Y006689D02*
X002728Y006689D01*
X002728Y006320D02*
X003036Y006320D01*
X003036Y005952D02*
X002666Y005952D01*
X002666Y005830D02*
X002666Y005707D01*
X002727Y004930D02*
X002582Y004930D01*
X002534Y004882D01*
X002534Y004785D01*
X002582Y004737D01*
X002727Y004737D01*
X002727Y004640D02*
X002727Y004930D01*
X002828Y004882D02*
X002877Y004930D01*
X002974Y004930D01*
X003022Y004882D01*
X003022Y004785D01*
X002974Y004737D01*
X002877Y004737D01*
X002828Y004785D01*
X002828Y004882D01*
X002433Y004930D02*
X002336Y004930D01*
X002384Y004979D02*
X002384Y004785D01*
X002336Y004737D01*
X002004Y005407D02*
X002004Y005654D01*
X002066Y006757D02*
X002313Y006757D01*
X002190Y006757D02*
X002313Y006881D01*
X002313Y006942D01*
X002313Y007126D02*
X002313Y007249D01*
X002251Y007311D01*
X002066Y007311D01*
X002066Y007126D01*
X002128Y007064D01*
X002190Y007126D01*
X002190Y007311D01*
X002190Y007432D02*
X002190Y007679D01*
X002251Y007679D01*
X002313Y007617D01*
X002313Y007494D01*
X002251Y007432D01*
X002128Y007432D01*
X002066Y007494D01*
X002066Y007617D01*
X002102Y008107D02*
X002053Y008155D01*
X002053Y008349D01*
X002102Y008397D01*
X002247Y008397D01*
X002247Y008107D01*
X002102Y008107D01*
X002348Y008107D02*
X002348Y008397D01*
X002542Y008397D02*
X002348Y008107D01*
X002542Y008107D02*
X002542Y008397D01*
X002643Y008349D02*
X002691Y008397D01*
X002788Y008397D01*
X002836Y008349D01*
X002836Y008155D01*
X002788Y008107D01*
X002691Y008107D01*
X002643Y008155D01*
X002643Y008252D01*
X002739Y008252D01*
X002666Y007672D02*
X002666Y007425D01*
X002913Y007672D01*
X002975Y007672D01*
X003036Y007611D01*
X003036Y007487D01*
X002975Y007425D01*
X002604Y007304D02*
X002604Y007057D01*
X001788Y008107D02*
X001836Y008155D01*
X001788Y008107D02*
X001691Y008107D01*
X001643Y008155D01*
X001643Y008203D01*
X001691Y008252D01*
X001739Y008252D01*
X001691Y008252D02*
X001643Y008300D01*
X001643Y008349D01*
X001691Y008397D01*
X001788Y008397D01*
X001836Y008349D01*
X001542Y008155D02*
X001493Y008155D01*
X001493Y008107D01*
X001542Y008107D01*
X001542Y008155D01*
X001394Y008155D02*
X001346Y008107D01*
X001249Y008107D01*
X001201Y008155D01*
X001201Y008203D01*
X001249Y008252D01*
X001297Y008252D01*
X001249Y008252D02*
X001201Y008300D01*
X001201Y008349D01*
X001249Y008397D01*
X001346Y008397D01*
X001394Y008349D01*
X001100Y008397D02*
X001100Y008203D01*
X001003Y008107D01*
X000906Y008203D01*
X000906Y008397D01*
X004196Y008405D02*
X004486Y008212D01*
X004390Y008111D02*
X004196Y008111D01*
X004196Y008212D02*
X004486Y008405D01*
X004390Y008111D02*
X004486Y008014D01*
X004390Y007917D01*
X004196Y007917D01*
X004341Y007917D02*
X004341Y008111D01*
X005196Y008111D02*
X005390Y008111D01*
X005486Y008014D01*
X005390Y007917D01*
X005196Y007917D01*
X005341Y007917D02*
X005341Y008111D01*
X005438Y008212D02*
X005341Y008309D01*
X005196Y008309D01*
X005341Y008309D02*
X005438Y008405D01*
X005486Y008405D01*
X005486Y008212D02*
X005438Y008212D01*
X006196Y008212D02*
X006196Y008405D01*
X006196Y008212D02*
X006245Y008212D01*
X006438Y008405D01*
X006486Y008405D01*
X006486Y008212D01*
X006390Y008111D02*
X006196Y008111D01*
X006341Y008111D02*
X006341Y007917D01*
X006390Y007917D02*
X006486Y008014D01*
X006390Y008111D01*
X006390Y007917D02*
X006196Y007917D01*
X001188Y003909D02*
X000995Y003909D01*
X000946Y003957D01*
X000995Y003759D02*
X000946Y003711D01*
X000946Y003566D01*
X000849Y003566D02*
X001140Y003566D01*
X001140Y003711D01*
X001091Y003759D01*
X000995Y003759D01*
X001140Y003860D02*
X001140Y003957D01*
X001091Y003464D02*
X000995Y003464D01*
X000946Y003416D01*
X000946Y003319D01*
X000995Y003271D01*
X001091Y003271D01*
X001140Y003319D01*
X001140Y003416D01*
X001091Y003464D01*
D12*
X001489Y003542D02*
X001513Y003542D01*
X003201Y004280D02*
X003201Y004304D01*
X003651Y004830D02*
X003651Y004854D01*
X003251Y002454D02*
X003251Y002430D01*
X005051Y002430D02*
X005051Y002454D01*
X005551Y004780D02*
X005551Y004804D01*
X005939Y007992D02*
X005963Y007992D01*
X004963Y007992D02*
X004939Y007992D01*
X003963Y007992D02*
X003939Y007992D01*
X001713Y005842D02*
X001689Y005842D01*
X000913Y006392D02*
X000889Y006392D01*
D13*
X002101Y002442D03*
X003351Y003642D03*
X006201Y002442D03*
X006851Y005592D03*
D14*
X004001Y005642D03*
X000901Y005242D03*
X000651Y002892D03*
M02*
