G75*
G70*
%OFA0B0*%
%FSLAX24Y24*%
%IPPOS*%
%LPD*%
%AMOC8*
5,1,8,0,0,1.08239X$1,22.5*
%
%ADD10C,0.0060*%
%ADD11C,0.0030*%
%ADD12C,0.0220*%
%ADD13R,0.0180X0.0300*%
%ADD14R,0.0300X0.0180*%
D10*
X006526Y003102D02*
X006953Y003102D01*
X006953Y003209D02*
X006846Y003315D01*
X006632Y003315D01*
X006526Y003209D01*
X006526Y003102D01*
X006632Y002888D02*
X006846Y002888D01*
X006953Y002995D01*
X006953Y003209D01*
X007170Y003209D02*
X007170Y002888D01*
X007490Y002888D01*
X007597Y002995D01*
X007490Y003102D01*
X007170Y003102D01*
X007170Y003209D02*
X007277Y003315D01*
X007490Y003315D01*
X007814Y003315D02*
X007921Y003315D01*
X008134Y003102D01*
X008134Y003315D02*
X008134Y002888D01*
X008352Y002995D02*
X008352Y003209D01*
X008459Y003315D01*
X008779Y003315D01*
X008779Y003529D02*
X008779Y002888D01*
X008459Y002888D01*
X008352Y002995D01*
X008995Y002888D02*
X009208Y002888D01*
X009102Y002888D02*
X009102Y003315D01*
X009208Y003315D01*
X009102Y003529D02*
X009102Y003636D01*
X009853Y003529D02*
X009853Y002888D01*
X009426Y002888D01*
X010715Y002888D02*
X011035Y002888D01*
X011142Y002995D01*
X011142Y003315D01*
X011360Y003209D02*
X011360Y002995D01*
X011466Y002888D01*
X011787Y002888D01*
X011787Y003529D01*
X011787Y003315D02*
X011466Y003315D01*
X011360Y003209D01*
X010929Y002675D02*
X010822Y002675D01*
X010715Y002782D01*
X010715Y003315D01*
X014261Y011957D02*
X013815Y012403D01*
X013815Y012402D02*
X013802Y012416D01*
X013791Y012431D01*
X013783Y012448D01*
X013778Y012467D01*
X013776Y012486D01*
X013778Y012505D01*
X013782Y012523D01*
X013790Y012540D01*
X013801Y012556D01*
X013802Y012556D02*
X014219Y012973D01*
X014219Y012974D02*
X014235Y012985D01*
X014252Y012993D01*
X014270Y012997D01*
X014289Y012999D01*
X014308Y012997D01*
X014327Y012992D01*
X014344Y012984D01*
X014359Y012973D01*
X014373Y012960D01*
X014372Y012959D02*
X014818Y012514D01*
X014818Y012515D02*
X014831Y012501D01*
X014842Y012486D01*
X014850Y012469D01*
X014855Y012450D01*
X014857Y012431D01*
X014855Y012412D01*
X014851Y012394D01*
X014843Y012377D01*
X014832Y012361D01*
X014414Y011943D01*
X014398Y011932D01*
X014381Y011924D01*
X014363Y011920D01*
X014344Y011918D01*
X014325Y011920D01*
X014306Y011925D01*
X014289Y011933D01*
X014274Y011944D01*
X014260Y011957D01*
X015466Y013075D02*
X015633Y012908D01*
X015967Y013242D02*
X015800Y013409D01*
D11*
X015274Y012479D02*
X015309Y012445D01*
X015309Y012377D01*
X015240Y012308D01*
X015240Y012240D01*
X015274Y012206D01*
X015343Y012206D01*
X015411Y012274D01*
X015411Y012343D01*
X015274Y012479D02*
X015206Y012479D01*
X015138Y012411D01*
X015138Y012343D01*
X015032Y012305D02*
X014895Y012168D01*
X014963Y012237D02*
X015169Y012032D01*
X015029Y011892D02*
X014824Y012097D01*
X014824Y011960D01*
X014687Y011960D01*
X014892Y011755D01*
X014786Y011718D02*
X014752Y011752D01*
X014684Y011752D01*
X014615Y011683D01*
X014615Y011615D01*
X014649Y011581D01*
X014718Y011581D01*
X014786Y011649D01*
X014786Y011718D01*
X014684Y011752D02*
X014684Y011820D01*
X014649Y011854D01*
X014581Y011854D01*
X014513Y011786D01*
X014513Y011718D01*
X014547Y011683D01*
X014615Y011683D01*
X014646Y011441D02*
X014510Y011304D01*
X014404Y011267D02*
X014199Y011472D01*
X014096Y011369D01*
X014096Y011301D01*
X014164Y011232D01*
X014233Y011232D01*
X014335Y011335D01*
X014196Y011058D02*
X014059Y011058D01*
X014059Y010921D01*
X013854Y011127D01*
X013782Y011055D02*
X013679Y010953D01*
X013679Y010884D01*
X013748Y010816D01*
X013816Y010816D01*
X013919Y010918D01*
X013987Y010850D02*
X013782Y011055D01*
X013850Y010850D02*
X013850Y010713D01*
X014196Y011058D02*
X013990Y011264D01*
X016229Y010414D02*
X016423Y010414D01*
X016326Y010414D02*
X016326Y010123D01*
X016524Y010172D02*
X016524Y010220D01*
X016572Y010269D01*
X016669Y010269D01*
X016718Y010317D01*
X016718Y010365D01*
X016669Y010414D01*
X016572Y010414D01*
X016524Y010365D01*
X016524Y010172D02*
X016572Y010123D01*
X016669Y010123D01*
X016718Y010172D01*
X016819Y010123D02*
X016916Y010220D01*
X016867Y010220D02*
X017012Y010220D01*
X017012Y010123D02*
X017012Y010414D01*
X016867Y010414D01*
X016819Y010365D01*
X016819Y010269D01*
X016867Y010220D01*
X017113Y010075D02*
X017307Y010075D01*
X017408Y010172D02*
X017408Y010220D01*
X017456Y010269D01*
X017553Y010269D01*
X017602Y010317D01*
X017602Y010365D01*
X017553Y010414D01*
X017456Y010414D01*
X017408Y010365D01*
X017408Y010317D01*
X017456Y010269D01*
X017553Y010269D02*
X017602Y010220D01*
X017602Y010172D01*
X017553Y010123D01*
X017456Y010123D01*
X017408Y010172D01*
X020113Y010472D02*
X020162Y010423D01*
X020259Y010423D01*
X020307Y010472D01*
X020408Y010472D02*
X020456Y010423D01*
X020602Y010423D01*
X020602Y010714D01*
X020456Y010714D01*
X020408Y010665D01*
X020408Y010472D01*
X020307Y010665D02*
X020259Y010714D01*
X020162Y010714D01*
X020113Y010665D01*
X020113Y010617D01*
X020162Y010569D01*
X020113Y010520D01*
X020113Y010472D01*
X020162Y010569D02*
X020210Y010569D01*
X020113Y011223D02*
X020307Y011223D01*
X020113Y011417D01*
X020113Y011465D01*
X020162Y011514D01*
X020259Y011514D01*
X020307Y011465D01*
X020408Y011465D02*
X020408Y011272D01*
X020456Y011223D01*
X020602Y011223D01*
X020602Y011514D01*
X020456Y011514D01*
X020408Y011465D01*
X020456Y012023D02*
X020408Y012072D01*
X020408Y012265D01*
X020456Y012314D01*
X020602Y012314D01*
X020602Y012023D01*
X020456Y012023D01*
X020307Y012023D02*
X020113Y012023D01*
X020210Y012023D02*
X020210Y012314D01*
X020307Y012217D01*
X020307Y012823D02*
X020307Y012872D01*
X020113Y013065D01*
X020113Y013114D01*
X020307Y013114D01*
X020408Y013065D02*
X020456Y013114D01*
X020553Y013114D01*
X020602Y013065D01*
X020602Y012872D01*
X020553Y012823D01*
X020456Y012823D01*
X020408Y012872D01*
X020456Y013573D02*
X020408Y013622D01*
X020456Y013573D02*
X020553Y013573D01*
X020602Y013622D01*
X020602Y013815D01*
X020553Y013864D01*
X020456Y013864D01*
X020408Y013815D01*
X020307Y013719D02*
X020162Y013719D01*
X020113Y013670D01*
X020113Y013622D01*
X020162Y013573D01*
X020259Y013573D01*
X020307Y013622D01*
X020307Y013719D01*
X020210Y013815D01*
X020113Y013864D01*
X020162Y014373D02*
X020113Y014422D01*
X020113Y014519D01*
X020162Y014567D01*
X020210Y014567D01*
X020307Y014519D01*
X020307Y014664D01*
X020113Y014664D01*
X020162Y014373D02*
X020259Y014373D01*
X020307Y014422D01*
X020408Y014422D02*
X020456Y014373D01*
X020553Y014373D01*
X020602Y014422D01*
X020602Y014615D01*
X020553Y014664D01*
X020456Y014664D01*
X020408Y014615D01*
X020456Y015173D02*
X020408Y015222D01*
X020456Y015173D02*
X020553Y015173D01*
X020602Y015222D01*
X020602Y015415D01*
X020553Y015464D01*
X020456Y015464D01*
X020408Y015415D01*
X020307Y015319D02*
X020113Y015319D01*
X020162Y015464D02*
X020162Y015173D01*
X020307Y015319D02*
X020162Y015464D01*
X020209Y015923D02*
X020112Y015923D01*
X020063Y015972D01*
X020209Y015923D02*
X020257Y015972D01*
X020257Y016165D01*
X020209Y016214D01*
X020112Y016214D01*
X020063Y016165D01*
X020358Y016214D02*
X020358Y015923D01*
X020552Y016214D01*
X020552Y015923D01*
X006152Y012819D02*
X006103Y012770D01*
X006006Y012770D01*
X005958Y012722D01*
X006006Y012673D01*
X006152Y012673D01*
X006152Y012819D02*
X006103Y012867D01*
X005958Y012867D01*
X005857Y012819D02*
X005809Y012867D01*
X005712Y012867D01*
X005663Y012819D01*
X005663Y012673D01*
X005562Y012722D02*
X005562Y012819D01*
X005514Y012867D01*
X005417Y012867D01*
X005369Y012819D01*
X005369Y012722D01*
X005417Y012673D01*
X005514Y012673D01*
X005562Y012722D01*
X005268Y012770D02*
X005171Y012867D01*
X005122Y012867D01*
X005022Y012867D02*
X004925Y012867D01*
X004974Y012915D02*
X004974Y012722D01*
X004925Y012673D01*
X004826Y012673D02*
X004826Y012722D01*
X004777Y012722D01*
X004777Y012673D01*
X004826Y012673D01*
X004826Y012819D02*
X004826Y012867D01*
X004777Y012867D01*
X004777Y012819D01*
X004826Y012819D01*
X004678Y012819D02*
X004533Y012819D01*
X004485Y012770D01*
X004485Y012722D01*
X004533Y012673D01*
X004678Y012673D01*
X004678Y012964D01*
X004533Y012964D01*
X004485Y012915D01*
X004485Y012867D01*
X004533Y012819D01*
X004384Y012915D02*
X004384Y012722D01*
X004335Y012673D01*
X004239Y012673D01*
X004190Y012722D01*
X004190Y012915D01*
X004239Y012964D01*
X004335Y012964D01*
X004384Y012915D01*
X004089Y012915D02*
X004089Y012722D01*
X004041Y012673D01*
X003944Y012673D01*
X003896Y012722D01*
X003896Y012915D01*
X003944Y012964D01*
X004041Y012964D01*
X004089Y012915D01*
X003794Y012964D02*
X003601Y012964D01*
X003698Y012964D02*
X003698Y012673D01*
X003500Y012722D02*
X003500Y012915D01*
X003451Y012964D01*
X003355Y012964D01*
X003306Y012915D01*
X003500Y012722D01*
X003451Y012673D01*
X003355Y012673D01*
X003306Y012722D01*
X003306Y012915D01*
X003205Y012867D02*
X003012Y012867D01*
X003012Y012770D02*
X003205Y012770D01*
X002910Y012722D02*
X002910Y012915D01*
X002862Y012964D01*
X002765Y012964D01*
X002717Y012915D01*
X002910Y012722D01*
X002862Y012673D01*
X002765Y012673D01*
X002717Y012722D01*
X002717Y012915D01*
X005268Y012867D02*
X005268Y012673D01*
X005857Y012673D02*
X005857Y012964D01*
D12*
X005017Y014696D02*
X005017Y014720D01*
X007955Y013958D02*
X007979Y013958D01*
X009305Y015608D02*
X009329Y015608D01*
X015358Y012750D02*
X015375Y012767D01*
D13*
X016967Y009658D03*
X010267Y013708D03*
X006717Y012008D03*
X003867Y013258D03*
D14*
X010117Y006058D03*
X010117Y004658D03*
X013067Y006658D03*
X013867Y006658D03*
X018017Y009708D03*
M02*
