G75*
G70*
%OFA0B0*%
%FSLAX24Y24*%
%IPPOS*%
%LPD*%
%AMOC8*
5,1,8,0,0,1.08239X$1,22.5*
%
%ADD10R,0.0800X0.0800*%
%ADD11C,0.0800*%
%ADD12R,0.0555X0.0555*%
%ADD13C,0.0555*%
%ADD14C,0.0236*%
%ADD15C,0.0560*%
%ADD16R,0.0433X0.0394*%
%ADD17R,0.0394X0.0433*%
%ADD18C,0.0740*%
%ADD19R,0.0827X0.0335*%
%ADD20R,0.0315X0.0472*%
%ADD21R,0.0250X0.0500*%
%ADD22C,0.0160*%
%ADD23R,0.0554X0.0554*%
%ADD24C,0.0436*%
%ADD25C,0.0120*%
%ADD26R,0.0476X0.0476*%
%ADD27R,0.0436X0.0436*%
%ADD28C,0.0100*%
%ADD29C,0.0240*%
%ADD30R,0.0515X0.0515*%
%ADD31C,0.0200*%
%ADD32C,0.0500*%
%ADD33C,0.0560*%
%ADD34C,0.0080*%
%ADD35C,0.0515*%
%ADD36C,0.0320*%
%ADD37C,0.0476*%
D10*
X016117Y003358D03*
X007117Y020358D03*
D11*
X008494Y020358D03*
X014739Y003358D03*
D12*
X002717Y011458D03*
D13*
X002717Y010671D03*
X003504Y010671D03*
X003504Y011458D03*
X003504Y009884D03*
X003504Y009096D03*
X003504Y008309D03*
X002717Y008309D03*
X002717Y009096D03*
X002717Y009884D03*
D14*
X008971Y020609D02*
X008971Y021907D01*
X008971Y020609D02*
X008263Y020609D01*
X008263Y021907D01*
X008971Y021907D01*
X008971Y020844D02*
X008263Y020844D01*
X008263Y021079D02*
X008971Y021079D01*
X008971Y021314D02*
X008263Y021314D01*
X008263Y021549D02*
X008971Y021549D01*
X008971Y021784D02*
X008263Y021784D01*
X014263Y003107D02*
X014263Y001809D01*
X014263Y003107D02*
X014971Y003107D01*
X014971Y001809D01*
X014263Y001809D01*
X014263Y002044D02*
X014971Y002044D01*
X014971Y002279D02*
X014263Y002279D01*
X014263Y002514D02*
X014971Y002514D01*
X014971Y002749D02*
X014263Y002749D01*
X014263Y002984D02*
X014971Y002984D01*
D15*
X008217Y008958D03*
X006217Y008958D03*
D16*
X006382Y012008D03*
X007051Y012008D03*
X005351Y014708D03*
X004682Y014708D03*
X004201Y013258D03*
X003532Y013258D03*
X009932Y013708D03*
X010601Y013708D03*
X012532Y016358D03*
X013201Y016358D03*
G36*
X015117Y013287D02*
X015422Y012982D01*
X015143Y012703D01*
X014838Y013008D01*
X015117Y013287D01*
G37*
G36*
X015590Y012814D02*
X015895Y012509D01*
X015616Y012230D01*
X015311Y012535D01*
X015590Y012814D01*
G37*
X016632Y009658D03*
X017301Y009658D03*
D17*
X018017Y009374D03*
X018017Y010043D03*
X013867Y006993D03*
X013867Y006324D03*
X013067Y006324D03*
X013067Y006993D03*
X010117Y006393D03*
X010117Y005724D03*
X010117Y004993D03*
X010117Y004324D03*
X007967Y013624D03*
X007967Y014293D03*
X009317Y015274D03*
X009317Y015943D03*
D18*
X011417Y015608D03*
X012417Y015608D03*
X013417Y015608D03*
X014417Y015608D03*
X015417Y015608D03*
X015417Y008108D03*
X014417Y008108D03*
X013417Y008108D03*
X012417Y008108D03*
X011417Y008108D03*
D19*
X020717Y010208D03*
X020717Y010996D03*
X020717Y011783D03*
X020717Y012571D03*
X020717Y013358D03*
X020717Y014145D03*
X020717Y014933D03*
X020717Y015720D03*
D20*
G36*
X016022Y013185D02*
X016244Y012963D01*
X015912Y012631D01*
X015690Y012853D01*
X016022Y013185D01*
G37*
G36*
X015521Y013686D02*
X015743Y013464D01*
X015411Y013132D01*
X015189Y013354D01*
X015521Y013686D01*
G37*
D21*
G36*
X014354Y012068D02*
X014177Y012245D01*
X014530Y012598D01*
X014707Y012421D01*
X014354Y012068D01*
G37*
G36*
X014103Y012319D02*
X013926Y012496D01*
X014279Y012849D01*
X014456Y012672D01*
X014103Y012319D01*
G37*
D22*
X014442Y012333D02*
X015110Y013014D01*
X015457Y013368D01*
X017017Y014958D01*
X018303Y014958D01*
X018656Y015104D01*
X018717Y014958D01*
X018656Y014813D01*
X018303Y014958D01*
X018717Y014958D01*
X018517Y015958D02*
X018389Y016012D01*
X018517Y016313D01*
X018644Y016012D01*
X018517Y015958D01*
X018517Y016313D01*
X018517Y017104D01*
X018389Y017405D01*
X018517Y017458D01*
X018654Y017474D01*
X018617Y017798D01*
X018410Y017546D01*
X018517Y017458D01*
X018644Y017405D01*
X018517Y017104D01*
X018517Y017458D01*
X018617Y017558D01*
X018617Y017798D01*
X018617Y019008D01*
X015217Y017858D02*
X015218Y017661D01*
X014724Y017658D01*
X015080Y018001D01*
X015217Y017858D01*
X015017Y017658D01*
X014724Y017658D01*
X013117Y017658D01*
X012817Y017958D01*
X012817Y018558D01*
X012117Y019258D01*
X010917Y019258D01*
X009817Y018158D01*
X008067Y018158D01*
X008067Y017372D01*
X008212Y017019D01*
X008067Y016958D01*
X007921Y017019D01*
X008067Y017372D01*
X008067Y016958D01*
X008067Y018158D02*
X005517Y018158D01*
X004717Y017358D01*
X005617Y016458D01*
X005617Y015001D01*
X005891Y014825D01*
X005817Y014708D01*
X005763Y014836D01*
X005462Y014708D01*
X005763Y014581D01*
X005817Y014708D01*
X005681Y014681D01*
X005617Y015001D01*
X005617Y014908D01*
X005817Y014708D01*
X005462Y014708D01*
X005351Y014708D01*
X004917Y015408D02*
X004991Y015525D01*
X004717Y015701D01*
X004781Y015381D01*
X004917Y015408D01*
X004717Y015608D01*
X004717Y015701D01*
X004717Y016404D01*
X004589Y016705D01*
X004717Y016758D01*
X004844Y016705D01*
X004717Y016404D01*
X004717Y016758D01*
X004717Y017358D02*
X002717Y015358D01*
X002717Y012758D01*
X002767Y012708D01*
X005767Y012708D01*
X006382Y012093D01*
X006382Y012008D01*
X007967Y013624D02*
X008051Y013708D01*
X008162Y013708D01*
X008463Y013836D01*
X008517Y013708D01*
X008570Y013581D01*
X008871Y013708D01*
X008570Y013836D01*
X008517Y013708D01*
X008463Y013581D01*
X008162Y013708D01*
X008517Y013708D01*
X008871Y013708D01*
X009932Y013708D01*
X009932Y014674D01*
X010267Y015008D01*
X011817Y015008D01*
X012063Y015255D01*
X012417Y015608D01*
X014567Y013158D02*
X014167Y012709D01*
X014191Y012584D01*
X016167Y015508D02*
X016117Y015558D01*
X008617Y020358D02*
X008617Y020936D01*
X008617Y021258D01*
X008617Y020358D02*
X008494Y020358D01*
X004768Y018386D02*
X004717Y018258D01*
X004589Y018207D01*
X004466Y018509D01*
X004768Y018386D01*
X004717Y018258D02*
X004589Y018310D01*
X004466Y018008D01*
X004768Y018130D01*
X004717Y018258D01*
X004466Y018509D01*
X004267Y018708D01*
X004267Y018758D01*
X003867Y018358D01*
X003117Y018358D01*
X003570Y017836D02*
X003517Y017708D01*
X003570Y017581D01*
X003871Y017708D01*
X003570Y017836D01*
X003517Y017708D02*
X003871Y017708D01*
X004167Y017708D01*
X004466Y018008D01*
X004717Y018258D01*
X002717Y012758D02*
X002717Y011458D01*
X004589Y007705D02*
X004717Y007758D01*
X004844Y007705D01*
X004717Y007404D01*
X004589Y007705D01*
X004717Y007758D02*
X004717Y007404D01*
X004717Y006613D01*
X004844Y006312D01*
X004717Y006258D01*
X004589Y006312D01*
X004717Y006613D01*
X004717Y006258D01*
X014617Y002458D02*
X014739Y002458D01*
X014739Y002768D01*
X014739Y003358D01*
X018389Y005512D02*
X018517Y005458D01*
X018644Y005512D01*
X018517Y005813D01*
X018389Y005512D01*
X018517Y005484D02*
X018517Y005813D01*
X018517Y006604D01*
X018389Y006905D01*
X018517Y006958D01*
X018644Y006905D01*
X018517Y006604D01*
X018517Y006958D01*
D23*
X012017Y010608D03*
X010967Y005908D03*
X015217Y017858D03*
D24*
X014517Y017208D03*
X012967Y017008D03*
X012367Y017008D03*
X012267Y018258D03*
X010817Y018258D03*
X010517Y016808D03*
X009467Y016808D03*
X010217Y015558D03*
X011217Y014358D03*
X012067Y013058D03*
X013317Y013208D03*
X014167Y013808D03*
X013917Y011558D03*
X013017Y010258D03*
X013467Y009558D03*
X012567Y009558D03*
X011617Y009558D03*
X010167Y008558D03*
X010317Y007508D03*
X010867Y006958D03*
X012167Y005858D03*
X013067Y005858D03*
X013867Y005858D03*
X014717Y004158D03*
X017317Y004608D03*
X018517Y005458D03*
X019717Y006008D03*
X019717Y007208D03*
X019867Y008108D03*
X018717Y008508D03*
X018617Y009358D03*
X019417Y009858D03*
X019967Y009558D03*
X018517Y006958D03*
X017317Y007958D03*
X017267Y008758D03*
X016267Y007858D03*
X016117Y006958D03*
X014917Y009008D03*
X016017Y009908D03*
X016367Y010958D03*
X017117Y011008D03*
X017167Y011608D03*
X017217Y012158D03*
X017467Y012908D03*
X016717Y013208D03*
X017117Y013708D03*
X017167Y015508D03*
X017117Y016708D03*
X016367Y016808D03*
X018067Y018758D03*
X017117Y019708D03*
X018717Y020858D03*
X020617Y018958D03*
X019667Y017708D03*
X018517Y017458D03*
X019667Y016508D03*
X018517Y015958D03*
X019717Y014958D03*
X019717Y013908D03*
X020617Y004758D03*
X018767Y002808D03*
X011067Y004758D03*
X009467Y006608D03*
X008167Y006608D03*
X006667Y007758D03*
X005217Y008908D03*
X004217Y009208D03*
X004217Y008158D03*
X004717Y007758D03*
X003517Y007358D03*
X004717Y006258D03*
X003517Y006008D03*
X002567Y004708D03*
X004517Y002858D03*
X005267Y004858D03*
X007117Y010108D03*
X006517Y010258D03*
X005817Y010258D03*
X005217Y010508D03*
X005217Y011058D03*
X005567Y012258D03*
X005817Y013758D03*
X006417Y014158D03*
X006967Y013908D03*
X007567Y013108D03*
X008217Y013058D03*
X008517Y013708D03*
X008517Y014308D03*
X008367Y014908D03*
X006567Y014858D03*
X004917Y015408D03*
X004217Y014108D03*
X003117Y013208D03*
X004167Y010358D03*
X007517Y011908D03*
X008317Y011958D03*
X010117Y011908D03*
X004717Y016758D03*
X003517Y017708D03*
X004717Y018258D03*
X002617Y018958D03*
X004517Y020858D03*
X008117Y019608D03*
X009467Y020008D03*
X010817Y019758D03*
D25*
X008446Y014450D02*
X008162Y014308D01*
X008446Y014167D01*
X008517Y014308D01*
X008446Y014450D01*
X008517Y014308D02*
X008162Y014308D01*
X007982Y014308D01*
X007967Y014293D01*
X008466Y012009D02*
X008317Y011958D01*
X008266Y011808D01*
X008567Y011708D01*
X008466Y012009D01*
X008317Y011958D02*
X008567Y011708D01*
X009332Y010943D01*
X009735Y010794D01*
X009667Y010608D01*
X009481Y010540D01*
X009332Y010943D01*
X009667Y010608D01*
X009497Y010507D01*
X009717Y010139D01*
X009854Y010545D01*
X009667Y010608D01*
X009717Y010558D01*
X009717Y010139D01*
X009717Y007058D01*
X010217Y006558D01*
X010544Y006231D01*
X011016Y006120D01*
X010967Y005908D01*
X011169Y005831D01*
X011342Y006284D01*
X010889Y006111D01*
X010967Y005908D01*
X010776Y005805D01*
X010544Y006231D01*
X010867Y005908D01*
X010967Y005908D01*
X011342Y006284D01*
X012051Y006993D01*
X013067Y006993D01*
X013867Y006993D01*
X016017Y008858D02*
X016917Y007958D01*
X016962Y007958D01*
X017246Y008100D01*
X017317Y007958D01*
X017246Y007817D01*
X016962Y007958D01*
X017317Y007958D01*
X017967Y007758D02*
X017967Y008358D01*
X018517Y008908D01*
X019167Y008908D01*
X019640Y009421D01*
X019847Y009662D01*
X019967Y009558D01*
X019956Y009401D01*
X019640Y009421D01*
X019767Y009558D01*
X020167Y011008D02*
X020704Y011008D01*
X020717Y010996D01*
X020167Y011008D02*
X017471Y011008D01*
X017187Y010867D01*
X017117Y011008D01*
X017187Y011150D01*
X017471Y011008D01*
X017117Y011008D01*
X016067Y010058D02*
X016017Y009908D01*
X015867Y009858D01*
X015766Y010159D01*
X016067Y010058D01*
X016017Y009908D02*
X015875Y009838D01*
X016017Y009554D01*
X016158Y009838D01*
X016017Y009908D01*
X015766Y010159D01*
X015603Y010322D01*
X015603Y012522D01*
X015603Y012544D01*
X015967Y012908D01*
X015457Y013368D02*
X015466Y013377D01*
X015466Y013409D01*
X015110Y013014D02*
X015129Y012995D01*
X015130Y012995D01*
X016017Y009908D02*
X016017Y009708D01*
X016017Y009554D01*
X016017Y008858D01*
X020692Y011758D02*
X020717Y011783D01*
D26*
X008067Y016958D03*
D27*
X005817Y014708D03*
D28*
X006269Y014079D02*
X006417Y014158D01*
X006564Y014079D01*
X006417Y013804D01*
X006269Y014079D01*
X006417Y014158D02*
X006417Y013804D01*
X006417Y013358D01*
X007467Y012308D01*
X010317Y012308D01*
X010517Y012108D01*
X010517Y009008D01*
X011063Y008462D01*
X011417Y008108D01*
X011117Y008708D02*
X011817Y008708D01*
X012063Y008462D01*
X012417Y008108D01*
X013063Y008462D02*
X012617Y008908D01*
X011217Y008908D01*
X010917Y009208D01*
X010917Y012308D01*
X010517Y012708D01*
X007767Y012708D01*
X007696Y012779D01*
X007458Y012980D01*
X007567Y013108D01*
X007733Y013088D01*
X007696Y012779D01*
X007567Y012908D01*
X007567Y013108D01*
X007567Y012508D02*
X006967Y013108D01*
X006967Y013554D01*
X006819Y013829D01*
X006967Y013908D01*
X007114Y013829D01*
X006967Y013554D01*
X006967Y013908D01*
X008296Y013206D02*
X008217Y013058D01*
X008296Y012910D01*
X008571Y013058D01*
X008296Y013206D01*
X008217Y013058D02*
X008571Y013058D01*
X010467Y013058D01*
X011117Y012408D01*
X011117Y009308D01*
X011317Y009108D01*
X013417Y009108D01*
X014063Y008462D01*
X014417Y008108D01*
X014996Y008860D02*
X014917Y009008D01*
X014996Y009156D01*
X015271Y009008D01*
X014996Y008860D01*
X014917Y009008D02*
X015271Y009008D01*
X015417Y009008D01*
X016216Y008209D01*
X016402Y007959D01*
X016267Y007858D01*
X016109Y007916D01*
X016216Y008209D01*
X016267Y008158D01*
X016267Y007858D01*
X017967Y007758D02*
X017967Y005758D01*
X017696Y005488D01*
X017625Y005458D02*
X010117Y005458D01*
X010117Y005724D01*
X010117Y005458D02*
X009817Y005458D01*
X009017Y006258D01*
X009017Y007408D01*
X009467Y007858D01*
X009467Y009258D01*
X008617Y010108D01*
X007471Y010108D01*
X007196Y009960D01*
X007117Y010108D01*
X007196Y010256D01*
X007471Y010108D01*
X007117Y010108D01*
X006565Y010097D02*
X006517Y010258D01*
X006355Y010307D01*
X006266Y010008D01*
X006565Y010097D01*
X006517Y010258D02*
X006266Y010008D01*
X006117Y009858D01*
X005517Y009858D01*
X004317Y008658D01*
X003867Y008658D01*
X003789Y008581D01*
X003517Y008309D01*
X003504Y008309D01*
X003504Y009884D02*
X003898Y009884D01*
X005242Y009884D01*
X005487Y010129D01*
X005688Y010367D01*
X005817Y010258D01*
X005796Y010091D01*
X005487Y010129D01*
X005617Y010258D01*
X005817Y010258D01*
X005217Y010508D02*
X005137Y010656D01*
X004862Y010508D01*
X005137Y010360D01*
X005217Y010508D01*
X004862Y010508D01*
X004488Y010508D01*
X004301Y010258D01*
X004167Y010358D01*
X004176Y010526D01*
X004488Y010508D01*
X004367Y010508D01*
X004167Y010358D01*
X003782Y010949D02*
X003891Y011058D01*
X004862Y011058D01*
X005137Y011206D01*
X005217Y011058D01*
X005137Y010910D01*
X004862Y011058D01*
X005217Y011058D01*
X005480Y012114D02*
X005213Y012276D01*
X005494Y012410D01*
X005567Y012258D01*
X005480Y012114D01*
X005567Y012258D02*
X005549Y012276D01*
X005213Y012276D01*
X004872Y012276D01*
X004055Y011458D01*
X003898Y011458D01*
X003504Y011458D01*
X003782Y010949D02*
X003504Y010671D01*
X004251Y013208D02*
X004201Y013258D01*
X004251Y013208D02*
X005617Y013208D01*
X006367Y012458D01*
X006717Y012458D01*
X006917Y012258D01*
X006917Y012143D01*
X007051Y012008D01*
X007201Y011908D01*
X007517Y011908D01*
X007448Y012062D01*
X007163Y011934D01*
X007426Y011766D01*
X007517Y011908D01*
X007567Y012508D02*
X010417Y012508D01*
X010717Y012208D01*
X010717Y009108D01*
X011117Y008708D01*
X010314Y008638D02*
X010167Y008558D01*
X010019Y008638D01*
X010167Y008913D01*
X010314Y008638D01*
X010167Y008558D02*
X010167Y008913D01*
X010167Y011558D01*
X009981Y011809D01*
X010117Y011908D01*
X010274Y011850D01*
X010167Y011558D01*
X010167Y011858D01*
X010117Y011908D01*
X008464Y011879D02*
X008317Y011958D01*
X008169Y011879D01*
X008317Y011604D01*
X008464Y011879D01*
X008317Y011958D02*
X008317Y011604D01*
X008317Y011408D01*
X008017Y011108D01*
X006867Y011108D01*
X006382Y011593D01*
X006382Y012008D01*
X005737Y013610D02*
X005817Y013758D01*
X005737Y013906D01*
X005462Y013758D01*
X005737Y013610D01*
X005817Y013758D02*
X005462Y013758D01*
X004567Y013758D01*
X004467Y013858D01*
X004168Y013947D01*
X004217Y014108D01*
X004378Y014157D01*
X004467Y013858D01*
X004217Y014108D01*
X008367Y014908D02*
X008482Y014786D01*
X008709Y015001D01*
X008405Y015072D01*
X008367Y014908D01*
X008617Y014908D01*
X008709Y015001D01*
X008817Y015108D01*
X008817Y015708D01*
X009017Y015908D01*
X009317Y015908D01*
X009317Y015943D01*
X009317Y016058D01*
X010767Y016058D01*
X012267Y017558D01*
X012267Y017904D01*
X012119Y018179D01*
X012267Y018258D01*
X012414Y018179D01*
X012267Y017904D01*
X012267Y018258D01*
X013046Y017156D02*
X012967Y017008D01*
X013046Y016860D01*
X013321Y017008D01*
X013046Y017156D01*
X012967Y017008D02*
X013321Y017008D01*
X014224Y017008D01*
X014367Y017286D01*
X014517Y017208D01*
X014534Y017041D01*
X014224Y017008D01*
X014317Y017008D01*
X014517Y017208D01*
X016167Y015508D02*
X016812Y015508D01*
X017087Y015656D01*
X017167Y015508D01*
X017087Y015360D01*
X016812Y015508D01*
X017167Y015508D01*
X017267Y014558D02*
X020217Y014558D01*
X020267Y014608D01*
X020567Y014808D01*
X020442Y014784D02*
X020442Y014933D01*
X020717Y014933D01*
X020691Y014958D01*
X020467Y014958D01*
X020367Y014858D02*
X020267Y014608D01*
X020442Y014784D01*
X020217Y014358D02*
X020367Y014108D01*
X020430Y014145D02*
X020217Y014358D01*
X020467Y014258D01*
X020430Y014145D02*
X020717Y014145D01*
X020217Y014358D02*
X017767Y014358D01*
X017367Y013959D01*
X017278Y013660D01*
X017117Y013708D01*
X017068Y013869D01*
X017367Y013959D01*
X017117Y013708D01*
X016717Y013563D02*
X016864Y013288D01*
X016717Y013208D01*
X016569Y013288D01*
X016717Y013563D01*
X016717Y014008D01*
X017267Y014558D01*
X016717Y013563D02*
X016717Y013208D01*
X017467Y012908D02*
X017546Y012760D01*
X017821Y012908D01*
X017546Y013056D01*
X017467Y012908D01*
X017821Y012908D01*
X019967Y012908D01*
X020217Y013158D01*
X020367Y013458D01*
X020417Y013358D02*
X020217Y013158D01*
X020517Y013258D01*
X020417Y013358D02*
X020716Y013358D01*
X020717Y013358D01*
X020417Y012658D02*
X020167Y012558D01*
X020117Y012558D02*
X020367Y012508D01*
X020317Y012658D02*
X020067Y012558D01*
X020117Y012558D02*
X020317Y012658D01*
X020717Y012571D02*
X017879Y012571D01*
X017559Y012251D01*
X017332Y012036D01*
X017217Y012158D01*
X017255Y012322D01*
X017559Y012251D01*
X017467Y012158D01*
X017217Y012158D01*
X017246Y011756D02*
X017167Y011608D01*
X017246Y011460D01*
X017521Y011608D01*
X017246Y011756D01*
X017167Y011608D02*
X017521Y011608D01*
X020117Y011608D01*
X020167Y011658D01*
X020317Y011908D01*
X020317Y011808D02*
X020691Y011808D01*
X020717Y011783D01*
X020467Y011758D02*
X020167Y011658D01*
X020317Y011808D01*
X020367Y011108D02*
X020167Y011008D01*
X020367Y010908D01*
X019917Y010608D02*
X020167Y010358D01*
X020367Y010108D01*
X020317Y010208D02*
X020167Y010358D01*
X020367Y010308D01*
X020317Y010208D02*
X020717Y010208D01*
X019967Y009558D02*
X019767Y009558D01*
X019917Y010608D02*
X016717Y010608D01*
X016617Y010708D01*
X016318Y010797D01*
X016367Y010958D01*
X016528Y011007D01*
X016617Y010708D01*
X016367Y010958D01*
X016177Y009957D02*
X016017Y009908D01*
X015969Y009747D01*
X016268Y009658D01*
X016177Y009957D01*
X016017Y009708D02*
X016067Y009658D01*
X016268Y009658D01*
X016632Y009658D01*
X017301Y009658D02*
X017686Y010043D01*
X018017Y010043D01*
X018263Y009374D02*
X018543Y009510D01*
X018617Y009358D01*
X018530Y009214D01*
X018263Y009374D01*
X018017Y009374D01*
X018263Y009374D02*
X018601Y009374D01*
X018617Y009358D01*
X018617Y008108D02*
X019512Y008108D01*
X019787Y008256D01*
X019867Y008108D01*
X019787Y007960D01*
X019512Y008108D01*
X019867Y008108D01*
X018617Y008108D02*
X018196Y007688D01*
X018167Y007617D02*
X018167Y005658D01*
X017796Y005288D01*
X017725Y005258D02*
X010167Y005258D01*
X009717Y005258D01*
X008817Y006158D01*
X008817Y007358D01*
X008417Y007758D01*
X007021Y007758D01*
X006746Y007610D01*
X006667Y007758D01*
X006746Y007906D01*
X007021Y007758D01*
X006667Y007758D01*
X010117Y006393D02*
X010217Y006393D01*
X010217Y006558D01*
X010167Y005258D02*
X010167Y004993D01*
X010117Y004993D01*
X010117Y004324D02*
X010632Y004324D01*
X010816Y004508D01*
X010905Y004807D01*
X011067Y004758D01*
X011115Y004597D01*
X010816Y004508D01*
X011067Y004758D01*
X012919Y005938D02*
X013067Y005858D01*
X013214Y005938D01*
X013067Y006213D01*
X012919Y005938D01*
X013067Y005858D02*
X013067Y006213D01*
X013067Y006324D01*
X013721Y005943D02*
X013867Y005858D01*
X014017Y005933D01*
X013879Y006213D01*
X013721Y005943D01*
X013867Y005858D02*
X013882Y006308D01*
X013867Y006324D01*
X013417Y008108D02*
X013063Y008462D01*
X013749Y011543D02*
X013917Y011558D01*
X013996Y011707D01*
X013721Y011854D01*
X013749Y011543D01*
X013917Y011558D02*
X013917Y011658D01*
X013721Y011854D01*
X013517Y012058D01*
X014817Y013408D02*
X014509Y013716D01*
X014205Y013645D01*
X014167Y013808D01*
X014282Y013931D01*
X014509Y013716D01*
X014417Y013808D01*
X014167Y013808D01*
X018196Y007688D02*
X018186Y007676D01*
X018178Y007662D01*
X018172Y007648D01*
X018168Y007633D01*
X018167Y007617D01*
X017696Y005487D02*
X017684Y005477D01*
X017670Y005469D01*
X017656Y005463D01*
X017641Y005459D01*
X017625Y005458D01*
X017725Y005258D02*
X017741Y005259D01*
X017756Y005263D01*
X017770Y005269D01*
X017784Y005277D01*
X017796Y005287D01*
D29*
X018517Y005458D02*
X018617Y005358D01*
X020117Y005358D01*
X018517Y005458D02*
X018517Y005484D01*
X013517Y012058D02*
X014567Y013158D01*
X014817Y013408D01*
X016117Y014708D01*
X016117Y015558D01*
X016117Y015958D01*
X015717Y016358D01*
X015217Y016358D01*
X013201Y016358D01*
X012532Y016358D02*
X011617Y016358D01*
X011417Y016158D01*
X011417Y015608D01*
X013517Y012058D02*
X012017Y010608D01*
X015217Y016358D02*
X015217Y017858D01*
X013817Y019158D02*
X013217Y019758D01*
X013217Y020358D01*
X004717Y006258D02*
X004217Y005758D01*
X004217Y005008D01*
X005117Y004108D01*
X005117Y003358D01*
X009217Y003358D02*
X009217Y004408D01*
D30*
X009667Y010608D03*
D31*
X011063Y008462D02*
X011474Y008372D01*
X011417Y008108D01*
X011153Y008051D01*
X011063Y008462D01*
X012063Y008462D02*
X012474Y008372D01*
X012417Y008108D01*
X012153Y008051D01*
X012063Y008462D01*
X013063Y008462D02*
X013153Y008051D01*
X013417Y008108D01*
X013474Y008372D01*
X013063Y008462D01*
X014063Y008462D02*
X014474Y008372D01*
X014417Y008108D01*
X014153Y008051D01*
X014063Y008462D01*
X003898Y009884D02*
X003584Y009725D01*
X003504Y009884D01*
X003584Y010042D01*
X003898Y009884D01*
X003673Y010616D02*
X003504Y010671D01*
X003449Y010840D01*
X003782Y010949D01*
X003673Y010616D01*
X003584Y011300D02*
X003504Y011458D01*
X003584Y011617D01*
X003898Y011458D01*
X003584Y011300D01*
X003789Y008581D02*
X003671Y008249D01*
X003504Y008309D01*
X003452Y008479D01*
X003789Y008581D01*
D32*
X003117Y005358D02*
X003212Y005356D01*
X003307Y005349D01*
X003402Y005338D01*
X003496Y005322D01*
X003589Y005302D01*
X003680Y005277D01*
X003771Y005248D01*
X003860Y005215D01*
X003948Y005177D01*
X004033Y005136D01*
X004117Y005090D01*
X004198Y005041D01*
X004277Y004987D01*
X004353Y004930D01*
X004427Y004869D01*
X004497Y004805D01*
X004564Y004738D01*
X004628Y004668D01*
X004689Y004594D01*
X004746Y004518D01*
X004800Y004439D01*
X004849Y004358D01*
X004895Y004274D01*
X004936Y004189D01*
X004974Y004101D01*
X005007Y004012D01*
X005036Y003921D01*
X005061Y003830D01*
X005081Y003737D01*
X005097Y003643D01*
X005108Y003548D01*
X005115Y003453D01*
X005117Y003358D01*
X009217Y003358D01*
X014717Y003358D01*
X014717Y004858D01*
X017617Y004858D01*
X017617Y003358D01*
X018117Y003358D01*
X018119Y003453D01*
X018126Y003548D01*
X018137Y003643D01*
X018153Y003737D01*
X018173Y003830D01*
X018198Y003921D01*
X018227Y004012D01*
X018260Y004101D01*
X018298Y004189D01*
X018339Y004274D01*
X018385Y004358D01*
X018434Y004439D01*
X018488Y004518D01*
X018545Y004594D01*
X018606Y004668D01*
X018670Y004738D01*
X018737Y004805D01*
X018807Y004869D01*
X018881Y004930D01*
X018957Y004987D01*
X019036Y005041D01*
X019117Y005090D01*
X019201Y005136D01*
X019286Y005177D01*
X019374Y005215D01*
X019463Y005248D01*
X019554Y005277D01*
X019645Y005302D01*
X019738Y005322D01*
X019832Y005338D01*
X019927Y005349D01*
X020022Y005356D01*
X020117Y005358D01*
X008494Y018858D02*
X008494Y020358D01*
X013217Y020358D01*
X018117Y020358D01*
X018119Y020263D01*
X018126Y020168D01*
X018137Y020073D01*
X018153Y019979D01*
X018173Y019886D01*
X018198Y019795D01*
X018227Y019704D01*
X018260Y019615D01*
X018298Y019527D01*
X018339Y019442D01*
X018385Y019358D01*
X018434Y019277D01*
X018488Y019198D01*
X018545Y019122D01*
X018606Y019048D01*
X018670Y018978D01*
X018737Y018911D01*
X018807Y018847D01*
X018881Y018786D01*
X018957Y018729D01*
X019036Y018675D01*
X019117Y018626D01*
X019201Y018580D01*
X019286Y018539D01*
X019374Y018501D01*
X019463Y018468D01*
X019554Y018439D01*
X019645Y018414D01*
X019738Y018394D01*
X019832Y018378D01*
X019927Y018367D01*
X020022Y018360D01*
X020117Y018358D01*
X008494Y018858D02*
X005617Y018858D01*
X005617Y020358D01*
X005117Y020358D01*
X005115Y020263D01*
X005108Y020168D01*
X005097Y020073D01*
X005081Y019979D01*
X005061Y019886D01*
X005036Y019795D01*
X005007Y019704D01*
X004974Y019615D01*
X004936Y019527D01*
X004895Y019442D01*
X004849Y019358D01*
X004800Y019277D01*
X004746Y019198D01*
X004689Y019122D01*
X004628Y019048D01*
X004564Y018978D01*
X004497Y018911D01*
X004427Y018847D01*
X004353Y018786D01*
X004277Y018729D01*
X004198Y018675D01*
X004117Y018626D01*
X004033Y018580D01*
X003948Y018539D01*
X003860Y018501D01*
X003771Y018468D01*
X003680Y018439D01*
X003589Y018414D01*
X003496Y018394D01*
X003402Y018378D01*
X003307Y018367D01*
X003212Y018360D01*
X003117Y018358D01*
D33*
X014717Y003358D02*
X014739Y003358D01*
D34*
X002592Y002834D02*
X002425Y003064D01*
X002338Y003334D01*
X002326Y003476D01*
X002326Y008158D01*
X002330Y008149D01*
X002359Y008090D01*
X002398Y008037D01*
X002445Y007990D01*
X002498Y007952D01*
X002556Y007922D01*
X002619Y007902D01*
X002678Y007892D01*
X002678Y008270D01*
X002755Y008270D01*
X002755Y007892D01*
X002814Y007902D01*
X002877Y007922D01*
X002935Y007952D01*
X002988Y007990D01*
X003035Y008037D01*
X003074Y008090D01*
X003100Y008141D01*
X003133Y008061D01*
X003256Y007938D01*
X003417Y007871D01*
X003591Y007871D01*
X003752Y007938D01*
X003875Y008061D01*
X003895Y008109D01*
X003899Y008114D01*
X003913Y008152D01*
X003941Y008222D01*
X003941Y008233D01*
X004018Y008448D01*
X004230Y008448D01*
X004404Y008448D01*
X005604Y009648D01*
X006030Y009648D01*
X006204Y009648D01*
X006353Y009798D01*
X006377Y009822D01*
X006542Y009871D01*
X006572Y009880D01*
X006592Y009880D01*
X006643Y009902D01*
X006708Y009921D01*
X006713Y009931D01*
X006731Y009938D01*
X006764Y009971D01*
X006796Y009894D01*
X006902Y009788D01*
X007041Y009730D01*
X007192Y009730D01*
X007209Y009737D01*
X007219Y009734D01*
X007219Y009734D01*
X007279Y009767D01*
X007331Y009788D01*
X007345Y009802D01*
X007524Y009898D01*
X007558Y009898D01*
X008530Y009898D01*
X009257Y009171D01*
X009257Y007945D01*
X008930Y007618D01*
X008930Y007618D01*
X008892Y007580D01*
X008504Y007968D01*
X008330Y007968D01*
X007074Y007968D01*
X006895Y008065D01*
X006881Y008079D01*
X006829Y008100D01*
X006828Y008101D01*
X006769Y008132D01*
X006759Y008129D01*
X006742Y008136D01*
X006591Y008136D01*
X006452Y008079D01*
X006346Y007973D01*
X006288Y007834D01*
X006288Y007683D01*
X006346Y007544D01*
X006452Y007438D01*
X006591Y007380D01*
X006742Y007380D01*
X006759Y007387D01*
X006769Y007384D01*
X006769Y007384D01*
X006829Y007416D01*
X006881Y007438D01*
X006895Y007452D01*
X007074Y007548D01*
X008330Y007548D01*
X008607Y007271D01*
X008607Y006245D01*
X008607Y006071D01*
X009630Y005048D01*
X009760Y005048D01*
X009760Y004710D01*
X009812Y004658D01*
X009760Y004607D01*
X009760Y004041D01*
X009853Y003947D01*
X010380Y003947D01*
X010473Y004041D01*
X010473Y004114D01*
X010719Y004114D01*
X010842Y004237D01*
X010927Y004322D01*
X011092Y004371D01*
X011122Y004380D01*
X011142Y004380D01*
X011193Y004402D01*
X011258Y004421D01*
X011263Y004431D01*
X011281Y004438D01*
X011387Y004544D01*
X011445Y004683D01*
X011445Y004834D01*
X011387Y004973D01*
X011311Y005048D01*
X017812Y005048D01*
X017830Y005066D01*
X017857Y005078D01*
X017883Y005078D01*
X018254Y005448D01*
X018376Y005571D01*
X018376Y007530D01*
X018376Y007571D01*
X018704Y007898D01*
X019425Y007898D01*
X019459Y007898D01*
X019610Y007817D01*
X019618Y007813D01*
X019638Y007802D01*
X019652Y007788D01*
X019704Y007767D01*
X019764Y007734D01*
X019774Y007737D01*
X019791Y007730D01*
X019942Y007730D01*
X020081Y007788D01*
X020187Y007894D01*
X020245Y008033D01*
X020245Y008184D01*
X020187Y008323D01*
X020081Y008429D01*
X019942Y008486D01*
X019791Y008486D01*
X019774Y008479D01*
X019764Y008482D01*
X019764Y008482D01*
X019764Y008482D01*
X019710Y008453D01*
X019704Y008450D01*
X019652Y008429D01*
X019638Y008415D01*
X019459Y008318D01*
X019425Y008318D01*
X018530Y008318D01*
X018407Y008195D01*
X018186Y007975D01*
X018186Y008267D01*
X018608Y008688D01*
X019081Y008688D01*
X019084Y008685D01*
X019171Y008688D01*
X019258Y008688D01*
X019261Y008692D01*
X019266Y008692D01*
X019325Y008756D01*
X019386Y008817D01*
X019386Y008822D01*
X019730Y009195D01*
X019880Y009185D01*
X019891Y009180D01*
X019954Y009180D01*
X020033Y009175D01*
X020039Y009180D01*
X020042Y009180D01*
X020181Y009238D01*
X020287Y009344D01*
X020345Y009483D01*
X020345Y009634D01*
X020287Y009773D01*
X020181Y009879D01*
X020042Y009936D01*
X019891Y009936D01*
X019752Y009879D01*
X019748Y009875D01*
X019739Y009874D01*
X019689Y009816D01*
X019646Y009773D01*
X019640Y009759D01*
X019633Y009751D01*
X019483Y009576D01*
X019426Y009526D01*
X019425Y009513D01*
X019070Y009128D01*
X018921Y009128D01*
X018937Y009144D01*
X018995Y009283D01*
X018995Y009434D01*
X018937Y009573D01*
X018831Y009679D01*
X018692Y009736D01*
X018541Y009736D01*
X018536Y009734D01*
X018530Y009737D01*
X018477Y009711D01*
X018461Y009703D01*
X018402Y009679D01*
X018394Y009671D01*
X018371Y009659D01*
X018321Y009708D01*
X018373Y009760D01*
X018373Y010326D01*
X018301Y010398D01*
X019830Y010398D01*
X019957Y010271D01*
X020000Y010228D01*
X020031Y010176D01*
X020047Y010172D01*
X020143Y010052D01*
X020143Y009975D01*
X020237Y009881D01*
X020907Y009881D01*
X020907Y003476D01*
X020895Y003334D01*
X020808Y003064D01*
X020641Y002834D01*
X020411Y002667D01*
X020141Y002580D01*
X019999Y002568D01*
X019962Y002568D01*
X019911Y002568D01*
X015229Y002568D01*
X015229Y003131D01*
X015239Y003151D01*
X015265Y003232D01*
X015279Y003316D01*
X015279Y003318D01*
X015121Y003318D01*
X015557Y003318D01*
X015557Y003158D02*
X015241Y003158D01*
X015237Y003146D02*
X015237Y002568D01*
X015229Y002678D02*
X020426Y002678D01*
X020357Y002650D02*
X020357Y003280D01*
X020340Y003251D02*
X020504Y003535D01*
X020504Y003535D01*
X020561Y003858D01*
X020561Y003858D01*
X020504Y004181D01*
X020504Y004181D01*
X020340Y004465D01*
X020340Y004465D01*
X020089Y004676D01*
X020089Y004676D01*
X019781Y004788D01*
X019780Y004788D01*
X019616Y004788D01*
X019453Y004788D01*
X019453Y004788D01*
X019144Y004676D01*
X018893Y004465D01*
X018729Y004181D01*
X018672Y003858D01*
X018729Y003535D01*
X018893Y003251D01*
X019144Y003041D01*
X019144Y003041D01*
X019453Y002928D01*
X019534Y002928D01*
X019617Y002928D01*
X019780Y002928D01*
X019781Y002928D01*
X020089Y003041D01*
X020340Y003251D01*
X020340Y003251D01*
X020340Y003251D01*
X020379Y003318D02*
X020890Y003318D01*
X020907Y003478D02*
X020471Y003478D01*
X020517Y003607D02*
X020517Y002744D01*
X020644Y002838D02*
X016623Y002838D01*
X016583Y002798D02*
X016676Y002892D01*
X016676Y003825D01*
X016583Y003918D01*
X015650Y003918D01*
X015557Y003825D01*
X015557Y005048D01*
X015717Y005048D02*
X015717Y003918D01*
X015877Y003918D02*
X015877Y005048D01*
X016037Y005048D02*
X016037Y003918D01*
X016197Y003918D02*
X016197Y005048D01*
X016357Y005048D02*
X016357Y003918D01*
X016517Y003918D02*
X016517Y005048D01*
X016677Y005048D02*
X016677Y002568D01*
X016837Y002568D02*
X016837Y005048D01*
X016997Y005048D02*
X016997Y002568D01*
X017157Y002568D02*
X017157Y005048D01*
X017317Y005048D02*
X017317Y002568D01*
X017477Y002568D02*
X017477Y005048D01*
X017637Y005048D02*
X017637Y002568D01*
X017797Y002568D02*
X017797Y005048D01*
X017884Y005078D02*
X020907Y005078D01*
X020907Y004918D02*
X011409Y004918D01*
X011397Y004950D02*
X011397Y005048D01*
X011557Y005048D02*
X011557Y002568D01*
X011717Y002568D02*
X011717Y005048D01*
X011877Y005048D02*
X011877Y002568D01*
X012037Y002568D02*
X012037Y005048D01*
X012197Y005048D02*
X012197Y002568D01*
X012357Y002568D02*
X012357Y005048D01*
X012517Y005048D02*
X012517Y002568D01*
X012677Y002568D02*
X012677Y005048D01*
X012837Y005048D02*
X012837Y002568D01*
X012997Y002568D02*
X012997Y005048D01*
X013157Y005048D02*
X013157Y002568D01*
X013317Y002568D02*
X013317Y005048D01*
X013477Y005048D02*
X013477Y002568D01*
X013637Y002568D02*
X013637Y005048D01*
X013797Y005048D02*
X013797Y002568D01*
X013957Y002568D02*
X013957Y005048D01*
X014117Y005048D02*
X014117Y003321D01*
X014113Y003318D02*
X004379Y003318D01*
X004357Y003280D02*
X004357Y002568D01*
X004517Y002568D02*
X004517Y003607D01*
X004522Y003638D02*
X014275Y003638D01*
X014277Y003641D02*
X014277Y005048D01*
X014437Y005048D02*
X014437Y003806D01*
X014426Y003798D02*
X004550Y003798D01*
X004561Y003858D02*
X004561Y003858D01*
X004504Y003535D01*
X004504Y003535D01*
X004340Y003251D01*
X004340Y003251D01*
X004340Y003251D01*
X004089Y003041D01*
X004089Y003041D01*
X003780Y002928D01*
X003699Y002928D01*
X003616Y002928D01*
X003453Y002928D01*
X003453Y002928D01*
X003144Y003041D01*
X003144Y003041D01*
X002893Y003251D01*
X002893Y003251D01*
X002729Y003535D01*
X002729Y003535D01*
X002672Y003858D01*
X002672Y003858D01*
X002729Y004181D01*
X002729Y004181D01*
X002893Y004465D01*
X002893Y004465D01*
X002893Y004465D01*
X003144Y004676D01*
X003144Y004676D01*
X003453Y004788D01*
X003453Y004788D01*
X003534Y004788D01*
X003587Y004788D01*
X003617Y004788D01*
X003699Y004788D01*
X003780Y004788D01*
X003781Y004788D01*
X004089Y004676D01*
X004089Y004676D01*
X004340Y004465D01*
X004340Y004465D01*
X004504Y004181D01*
X004504Y004181D01*
X004561Y003858D01*
X004543Y003958D02*
X009842Y003958D01*
X009797Y004004D02*
X009797Y002568D01*
X009957Y002568D02*
X009957Y003947D01*
X010117Y003947D02*
X010117Y002568D01*
X010277Y002568D02*
X010277Y003947D01*
X010391Y003958D02*
X018690Y003958D01*
X018672Y003858D02*
X018672Y003858D01*
X018683Y003798D02*
X016676Y003798D01*
X016676Y003638D02*
X018711Y003638D01*
X018729Y003535D02*
X018729Y003535D01*
X018757Y003488D02*
X018757Y002568D01*
X018917Y002568D02*
X018917Y003232D01*
X018893Y003251D02*
X018893Y003251D01*
X018854Y003318D02*
X016676Y003318D01*
X016676Y003158D02*
X019004Y003158D01*
X019077Y003098D02*
X019077Y002568D01*
X019237Y002568D02*
X019237Y003007D01*
X019260Y002998D02*
X016676Y002998D01*
X016583Y002798D02*
X015650Y002798D01*
X015557Y002892D01*
X015557Y002568D01*
X015717Y002568D02*
X015717Y002798D01*
X015610Y002838D02*
X015229Y002838D01*
X015229Y002998D02*
X015557Y002998D01*
X015557Y002892D02*
X015557Y003825D01*
X015557Y003798D02*
X015052Y003798D01*
X015077Y003780D02*
X015077Y005048D01*
X015237Y005048D02*
X015237Y003570D01*
X015239Y003566D02*
X015200Y003641D01*
X015150Y003710D01*
X015090Y003770D01*
X015022Y003820D01*
X014946Y003859D01*
X014865Y003885D01*
X014781Y003898D01*
X014779Y003898D01*
X014779Y003399D01*
X014699Y003399D01*
X014699Y003898D01*
X014696Y003898D01*
X014612Y003885D01*
X014531Y003859D01*
X014456Y003820D01*
X014387Y003770D01*
X014327Y003710D01*
X014277Y003641D01*
X014238Y003566D01*
X014212Y003485D01*
X014199Y003401D01*
X014199Y003398D01*
X014698Y003398D01*
X014698Y003366D01*
X014656Y003366D01*
X014656Y003318D01*
X014577Y003318D01*
X014577Y003366D01*
X014237Y003366D01*
X014187Y003356D01*
X014140Y003337D01*
X014098Y003309D01*
X014062Y003273D01*
X014033Y003230D01*
X014014Y003183D01*
X014004Y003133D01*
X014004Y002568D01*
X003235Y002568D01*
X003092Y002580D01*
X002822Y002667D01*
X002592Y002834D01*
X002590Y002838D02*
X014004Y002838D01*
X014004Y002678D02*
X002807Y002678D01*
X002757Y002715D02*
X002757Y003488D01*
X002762Y003478D02*
X002326Y003478D01*
X002343Y003318D02*
X002854Y003318D01*
X002917Y003232D02*
X002917Y002637D01*
X003077Y002585D02*
X003077Y003098D01*
X003004Y003158D02*
X002395Y003158D01*
X002437Y003049D02*
X002437Y007998D01*
X002489Y007958D02*
X002326Y007958D01*
X002326Y007798D02*
X006288Y007798D01*
X006307Y007638D02*
X002326Y007638D01*
X002326Y007478D02*
X006412Y007478D01*
X006437Y007454D02*
X006437Y002568D01*
X006597Y002568D02*
X006597Y007380D01*
X006757Y007386D02*
X006757Y002568D01*
X006917Y002568D02*
X006917Y007464D01*
X006944Y007478D02*
X008400Y007478D01*
X008357Y007521D02*
X008357Y002568D01*
X008517Y002568D02*
X008517Y007361D01*
X008560Y007318D02*
X002326Y007318D01*
X002326Y007158D02*
X008607Y007158D01*
X008607Y006998D02*
X002326Y006998D01*
X002326Y006838D02*
X008607Y006838D01*
X008607Y006678D02*
X002326Y006678D01*
X002326Y006518D02*
X008607Y006518D01*
X008607Y006358D02*
X002326Y006358D01*
X002326Y006198D02*
X008607Y006198D01*
X008640Y006038D02*
X002326Y006038D01*
X002326Y005878D02*
X008800Y005878D01*
X008837Y005841D02*
X008837Y002568D01*
X008997Y002568D02*
X008997Y005681D01*
X008960Y005718D02*
X002326Y005718D01*
X002326Y005558D02*
X009120Y005558D01*
X009157Y005521D02*
X009157Y002568D01*
X009317Y002568D02*
X009317Y005361D01*
X009280Y005398D02*
X002326Y005398D01*
X002326Y005238D02*
X009440Y005238D01*
X009477Y005201D02*
X009477Y002568D01*
X009637Y002568D02*
X009637Y005048D01*
X009600Y005078D02*
X002326Y005078D01*
X002326Y004918D02*
X009760Y004918D01*
X009760Y004758D02*
X003863Y004758D01*
X003877Y004753D02*
X003877Y008065D01*
X003901Y008118D02*
X006548Y008118D01*
X006597Y008136D02*
X006597Y008726D01*
X006590Y008709D02*
X006656Y008871D01*
X006656Y009046D01*
X006590Y009208D01*
X006466Y009331D01*
X006304Y009398D01*
X006129Y009398D01*
X005967Y009331D01*
X005844Y009208D01*
X005777Y009046D01*
X005777Y008871D01*
X005844Y008709D01*
X005967Y008585D01*
X006129Y008518D01*
X006304Y008518D01*
X006466Y008585D01*
X006590Y008709D01*
X006610Y008758D02*
X007823Y008758D01*
X007844Y008709D02*
X007967Y008585D01*
X008129Y008518D01*
X008304Y008518D01*
X008466Y008585D01*
X008590Y008709D01*
X008656Y008871D01*
X008656Y009046D01*
X008590Y009208D01*
X008466Y009331D01*
X008304Y009398D01*
X008129Y009398D01*
X007967Y009331D01*
X007844Y009208D01*
X007777Y009046D01*
X007777Y008871D01*
X007844Y008709D01*
X007877Y008676D02*
X007877Y007968D01*
X008037Y007968D02*
X008037Y008557D01*
X007954Y008598D02*
X006479Y008598D01*
X006437Y008573D02*
X006437Y008063D01*
X006340Y007958D02*
X003772Y007958D01*
X003717Y007923D02*
X003717Y004788D01*
X003557Y004788D02*
X003557Y007871D01*
X003397Y007880D02*
X003397Y004768D01*
X003370Y004758D02*
X002326Y004758D01*
X002326Y004598D02*
X003052Y004598D01*
X003077Y004619D02*
X003077Y008096D01*
X003088Y008118D02*
X003109Y008118D01*
X003236Y007958D02*
X002944Y007958D01*
X002917Y007942D02*
X002917Y004485D01*
X002878Y004438D02*
X002326Y004438D01*
X002326Y004278D02*
X002785Y004278D01*
X002757Y004229D02*
X002757Y007892D01*
X002755Y007958D02*
X002678Y007958D01*
X002597Y007909D02*
X002597Y002831D01*
X002473Y002998D02*
X003260Y002998D01*
X003237Y003007D02*
X003237Y002568D01*
X003397Y002568D02*
X003397Y002949D01*
X003557Y002928D02*
X003557Y002568D01*
X003717Y002568D02*
X003717Y002928D01*
X003877Y002963D02*
X003877Y002568D01*
X004037Y002568D02*
X004037Y003022D01*
X003973Y002998D02*
X014004Y002998D01*
X014009Y003158D02*
X004229Y003158D01*
X004197Y003131D02*
X004197Y002568D01*
X004677Y002568D02*
X004677Y008721D01*
X004714Y008758D02*
X005823Y008758D01*
X005797Y008823D02*
X005797Y002568D01*
X005957Y002568D02*
X005957Y008596D01*
X005954Y008598D02*
X004554Y008598D01*
X004517Y008561D02*
X004517Y004110D01*
X004515Y004118D02*
X009760Y004118D01*
X009760Y004278D02*
X004448Y004278D01*
X004357Y004437D02*
X004357Y008448D01*
X004197Y008448D02*
X004197Y004586D01*
X004181Y004598D02*
X009760Y004598D01*
X009797Y004643D02*
X009797Y004673D01*
X009760Y004438D02*
X004355Y004438D01*
X004037Y004695D02*
X004037Y008448D01*
X004014Y008438D02*
X009257Y008438D01*
X009257Y008278D02*
X003957Y008278D01*
X003883Y008868D02*
X004230Y008868D01*
X005035Y009674D01*
X004059Y009674D01*
X004043Y009666D01*
X004028Y009653D01*
X003997Y009643D01*
X003764Y009525D01*
X003752Y009513D01*
X003697Y009490D01*
X003752Y009467D01*
X003875Y009344D01*
X003941Y009183D01*
X003941Y009009D01*
X003883Y008868D01*
X003904Y008918D02*
X004280Y008918D01*
X004197Y008868D02*
X004197Y009674D01*
X004357Y009674D02*
X004357Y008995D01*
X004440Y009078D02*
X003941Y009078D01*
X003919Y009238D02*
X004600Y009238D01*
X004677Y009315D02*
X004677Y009674D01*
X004837Y009674D02*
X004837Y009475D01*
X004760Y009398D02*
X003820Y009398D01*
X003877Y009340D02*
X003877Y009582D01*
X003830Y009558D02*
X004920Y009558D01*
X004997Y009635D02*
X004997Y009674D01*
X005317Y009361D02*
X005317Y002568D01*
X005477Y002568D02*
X005477Y009521D01*
X005514Y009558D02*
X008870Y009558D01*
X008837Y009591D02*
X008837Y007635D01*
X008833Y007638D02*
X008950Y007638D01*
X008997Y007685D02*
X008997Y009431D01*
X009030Y009398D02*
X005354Y009398D01*
X005194Y009238D02*
X005874Y009238D01*
X005957Y009321D02*
X005957Y009648D01*
X006117Y009648D02*
X006117Y009393D01*
X006277Y009398D02*
X006277Y009721D01*
X006274Y009718D02*
X008710Y009718D01*
X008677Y009751D02*
X008677Y007795D01*
X008673Y007798D02*
X009110Y007798D01*
X009157Y007845D02*
X009157Y009271D01*
X009190Y009238D02*
X008559Y009238D01*
X008517Y009281D02*
X008517Y009898D01*
X008550Y009878D02*
X007487Y009878D01*
X007557Y009898D02*
X007557Y007968D01*
X007717Y007968D02*
X007717Y009898D01*
X007877Y009898D02*
X007877Y009241D01*
X007874Y009238D02*
X006559Y009238D01*
X006597Y009191D02*
X006597Y009882D01*
X006566Y009878D02*
X006812Y009878D01*
X006757Y009964D02*
X006757Y008130D01*
X006769Y008132D02*
X006769Y008132D01*
X006795Y008118D02*
X009257Y008118D01*
X009257Y007958D02*
X008513Y007958D01*
X008517Y007955D02*
X008517Y008636D01*
X008479Y008598D02*
X009257Y008598D01*
X009257Y008758D02*
X008610Y008758D01*
X008656Y008918D02*
X009257Y008918D01*
X009257Y009078D02*
X008643Y009078D01*
X008357Y009377D02*
X008357Y009898D01*
X008197Y009898D02*
X008197Y009398D01*
X008037Y009360D02*
X008037Y009898D01*
X007397Y009830D02*
X007397Y007968D01*
X007237Y007968D02*
X007237Y009744D01*
X007077Y009730D02*
X007077Y007968D01*
X006917Y008053D02*
X006917Y009782D01*
X006542Y009871D02*
X006542Y009871D01*
X006437Y009840D02*
X006437Y009344D01*
X006643Y009078D02*
X007790Y009078D01*
X007777Y008918D02*
X006656Y008918D01*
X006277Y008518D02*
X006277Y002568D01*
X006117Y002568D02*
X006117Y008524D01*
X005777Y008918D02*
X004874Y008918D01*
X004837Y008881D02*
X004837Y002568D01*
X004997Y002568D02*
X004997Y009041D01*
X005034Y009078D02*
X005790Y009078D01*
X005797Y009094D02*
X005797Y009648D01*
X005637Y009648D02*
X005637Y002568D01*
X005157Y002568D02*
X005157Y009201D01*
X004517Y009155D02*
X004517Y009674D01*
X004037Y009660D02*
X004037Y008868D01*
X003717Y009482D02*
X003717Y009498D01*
X002755Y009513D02*
X002755Y009135D01*
X002678Y009135D01*
X002678Y009513D01*
X002678Y009845D01*
X002755Y009845D01*
X002755Y009513D01*
X002755Y009558D02*
X002678Y009558D01*
X002678Y009398D02*
X002755Y009398D01*
X002755Y009238D02*
X002678Y009238D01*
X002678Y009057D02*
X002755Y009057D01*
X002755Y008725D01*
X002755Y008348D01*
X002678Y008348D01*
X002678Y008725D01*
X002678Y009057D01*
X002678Y008918D02*
X002755Y008918D01*
X002755Y008758D02*
X002678Y008758D01*
X002678Y008598D02*
X002755Y008598D01*
X002755Y008438D02*
X002678Y008438D01*
X002678Y008118D02*
X002755Y008118D01*
X002345Y008118D02*
X002326Y008118D01*
X003237Y007958D02*
X003237Y004710D01*
X002718Y004118D02*
X002326Y004118D01*
X002326Y003958D02*
X002690Y003958D01*
X002683Y003798D02*
X002326Y003798D01*
X002326Y003638D02*
X002711Y003638D01*
X004471Y003478D02*
X014211Y003478D01*
X014277Y003398D02*
X014277Y003366D01*
X014437Y003366D02*
X014437Y003398D01*
X014597Y003398D02*
X014597Y003318D01*
X014577Y003318D02*
X014656Y003318D01*
X014757Y003399D02*
X014757Y005048D01*
X014917Y005048D02*
X014917Y003868D01*
X014779Y003798D02*
X014699Y003798D01*
X014597Y003880D02*
X014597Y005048D01*
X014597Y005668D02*
X014597Y007609D01*
X014667Y007638D02*
X015166Y007638D01*
X015116Y007659D02*
X015311Y007578D01*
X015522Y007578D01*
X015717Y007659D01*
X015866Y007808D01*
X015888Y007863D01*
X015888Y007783D01*
X015946Y007644D01*
X016052Y007538D01*
X016191Y007480D01*
X016342Y007480D01*
X016481Y007538D01*
X016587Y007644D01*
X016645Y007783D01*
X016645Y007934D01*
X016619Y007995D01*
X016622Y008014D01*
X016598Y008046D01*
X016587Y008073D01*
X016554Y008106D01*
X016476Y008210D01*
X016476Y008245D01*
X016391Y008331D01*
X016370Y008376D01*
X016347Y008385D01*
X016333Y008404D01*
X016315Y008407D01*
X015504Y009218D01*
X015330Y009218D01*
X015324Y009218D01*
X015145Y009315D01*
X015131Y009329D01*
X015079Y009350D01*
X015078Y009351D01*
X015019Y009382D01*
X015009Y009379D01*
X014992Y009386D01*
X014841Y009386D01*
X014702Y009329D01*
X014596Y009223D01*
X014538Y009084D01*
X014538Y008933D01*
X014596Y008794D01*
X014702Y008688D01*
X014841Y008630D01*
X014992Y008630D01*
X015009Y008637D01*
X015019Y008634D01*
X015019Y008634D01*
X015079Y008667D01*
X015131Y008688D01*
X015145Y008702D01*
X015324Y008798D01*
X015330Y008798D01*
X015490Y008638D01*
X015311Y008638D01*
X015116Y008558D01*
X014967Y008409D01*
X014916Y008286D01*
X014866Y008409D01*
X014717Y008558D01*
X014583Y008613D01*
X014580Y008615D01*
X014576Y008616D01*
X014522Y008638D01*
X014474Y008638D01*
X014164Y008706D01*
X014160Y008709D01*
X014114Y008717D01*
X014102Y008719D01*
X013626Y009195D01*
X013504Y009318D01*
X011404Y009318D01*
X011326Y009395D01*
X011326Y012321D01*
X011326Y012495D01*
X010676Y013145D01*
X010554Y013268D01*
X008624Y013268D01*
X008509Y013330D01*
X008592Y013330D01*
X008619Y013342D01*
X008620Y013342D01*
X008664Y013360D01*
X008731Y013388D01*
X008732Y013389D01*
X008920Y013468D01*
X009555Y013468D01*
X009555Y013445D01*
X009649Y013352D01*
X010215Y013352D01*
X010281Y013418D01*
X010299Y013400D01*
X010331Y013381D01*
X010366Y013372D01*
X010561Y013372D01*
X010561Y013668D01*
X010641Y013668D01*
X010641Y013372D01*
X010836Y013372D01*
X010872Y013381D01*
X010904Y013400D01*
X010930Y013426D01*
X010948Y013458D01*
X010958Y013493D01*
X010958Y013668D01*
X010641Y013668D01*
X010641Y013748D01*
X010958Y013748D01*
X010958Y013924D01*
X010948Y013959D01*
X010930Y013991D01*
X010904Y014017D01*
X010872Y014036D01*
X010836Y014045D01*
X010641Y014045D01*
X010641Y013749D01*
X010561Y013749D01*
X010561Y014045D01*
X010366Y014045D01*
X010331Y014036D01*
X010299Y014017D01*
X010281Y013999D01*
X010215Y014065D01*
X010172Y014065D01*
X010172Y014574D01*
X010366Y014768D01*
X011864Y014768D01*
X011952Y014805D01*
X012020Y014872D01*
X012081Y014934D01*
X012114Y014933D01*
X012126Y014937D01*
X012140Y014938D01*
X012185Y014959D01*
X012511Y015078D01*
X012522Y015078D01*
X012609Y015114D01*
X012659Y015133D01*
X012664Y015137D01*
X012717Y015159D01*
X012866Y015308D01*
X012916Y015431D01*
X012967Y015308D01*
X013116Y015159D01*
X013311Y015078D01*
X013522Y015078D01*
X013717Y015159D01*
X013866Y015308D01*
X013916Y015431D01*
X013967Y015308D01*
X014116Y015159D01*
X014311Y015078D01*
X014522Y015078D01*
X014717Y015159D01*
X014866Y015308D01*
X014916Y015431D01*
X014967Y015308D01*
X015116Y015159D01*
X015311Y015078D01*
X015522Y015078D01*
X015717Y015159D01*
X015837Y015279D01*
X015837Y014824D01*
X014767Y013755D01*
X014719Y013803D01*
X014716Y013806D01*
X014716Y013809D01*
X014699Y013826D01*
X014693Y013849D01*
X014640Y013882D01*
X014504Y014018D01*
X014495Y014018D01*
X014430Y014080D01*
X014381Y014129D01*
X014376Y014131D01*
X014363Y014143D01*
X014348Y014142D01*
X014242Y014186D01*
X014091Y014186D01*
X013952Y014129D01*
X013846Y014023D01*
X013788Y013884D01*
X013788Y013733D01*
X013846Y013594D01*
X013952Y013488D01*
X014091Y013430D01*
X014153Y013430D01*
X014169Y013420D01*
X014211Y013430D01*
X014242Y013430D01*
X014283Y013447D01*
X014338Y013460D01*
X014338Y013460D01*
X014443Y013485D01*
X014470Y013458D01*
X014406Y013393D01*
X014402Y013392D01*
X014366Y013354D01*
X014329Y013317D01*
X014328Y013314D01*
X013318Y012256D01*
X012066Y011046D01*
X011673Y011046D01*
X011579Y010952D01*
X011579Y010265D01*
X011673Y010171D01*
X012360Y010171D01*
X012454Y010265D01*
X012454Y010642D01*
X013526Y011678D01*
X013538Y011541D01*
X013538Y011483D01*
X013545Y011467D01*
X013548Y011438D01*
X013548Y011438D01*
X013548Y011438D01*
X013562Y011426D01*
X013596Y011344D01*
X013702Y011238D01*
X013841Y011180D01*
X013992Y011180D01*
X014131Y011238D01*
X014237Y011344D01*
X014295Y011483D01*
X014295Y011634D01*
X014237Y011773D01*
X014177Y011832D01*
X014172Y011851D01*
X014144Y011865D01*
X014131Y011879D01*
X014078Y011901D01*
X014071Y011905D01*
X013863Y012016D01*
X014017Y012178D01*
X014287Y011908D01*
X014420Y011908D01*
X014867Y012355D01*
X014867Y012424D01*
X015030Y012590D01*
X015078Y012543D01*
X015171Y012543D01*
X015171Y012517D01*
X015180Y012482D01*
X015199Y012450D01*
X015337Y012312D01*
X015547Y012522D01*
X015603Y012465D01*
X015393Y012255D01*
X015531Y012117D01*
X015563Y012099D01*
X015599Y012089D01*
X015636Y012089D01*
X015671Y012099D01*
X015703Y012117D01*
X015827Y012241D01*
X015603Y012465D01*
X015660Y012522D01*
X015603Y012578D01*
X015813Y012788D01*
X015803Y012798D01*
X015912Y012908D01*
X015729Y013091D01*
X015593Y012954D01*
X015582Y012954D01*
X015582Y013047D01*
X015568Y013062D01*
X015904Y013398D01*
X015904Y013481D01*
X016507Y014095D01*
X016507Y013921D01*
X016507Y013616D01*
X016410Y013437D01*
X016396Y013423D01*
X016375Y013371D01*
X016342Y013311D01*
X016346Y013301D01*
X016338Y013284D01*
X016338Y013133D01*
X016396Y012994D01*
X016502Y012888D01*
X016641Y012830D01*
X016792Y012830D01*
X016931Y012888D01*
X017037Y012994D01*
X017095Y013133D01*
X017095Y013284D01*
X017087Y013301D01*
X017091Y013311D01*
X017091Y013311D01*
X017080Y013330D01*
X017192Y013330D01*
X017331Y013388D01*
X017437Y013494D01*
X017444Y013511D01*
X017454Y013517D01*
X017473Y013582D01*
X017495Y013633D01*
X017495Y013653D01*
X017501Y013674D01*
X017504Y013683D01*
X017553Y013848D01*
X017854Y014148D01*
X020098Y014148D01*
X020143Y014073D01*
X020143Y013912D01*
X020237Y013818D01*
X020907Y013818D01*
X020907Y013685D01*
X020237Y013685D01*
X020143Y013592D01*
X020143Y013481D01*
X020044Y013283D01*
X020007Y013245D01*
X019880Y013118D01*
X017874Y013118D01*
X017695Y013215D01*
X017681Y013229D01*
X017629Y013250D01*
X017628Y013251D01*
X017569Y013282D01*
X017559Y013279D01*
X017542Y013286D01*
X017391Y013286D01*
X017252Y013229D01*
X017146Y013123D01*
X017088Y012984D01*
X017088Y012833D01*
X017146Y012694D01*
X017252Y012588D01*
X017391Y012530D01*
X017541Y012530D01*
X017493Y012482D01*
X017333Y012519D01*
X017292Y012536D01*
X017260Y012536D01*
X017219Y012546D01*
X017218Y012546D01*
X017203Y012536D01*
X017141Y012536D01*
X017002Y012479D01*
X016896Y012373D01*
X016838Y012234D01*
X016838Y012083D01*
X016896Y011944D01*
X016932Y011908D01*
X016846Y011823D01*
X016788Y011684D01*
X016788Y011533D01*
X016846Y011394D01*
X016909Y011332D01*
X016902Y011329D01*
X016796Y011223D01*
X016738Y011084D01*
X016738Y011048D01*
X016723Y011085D01*
X016704Y011150D01*
X016694Y011155D01*
X016687Y011173D01*
X016581Y011279D01*
X016442Y011336D01*
X016291Y011336D01*
X016152Y011279D01*
X016046Y011173D01*
X015988Y011034D01*
X015988Y010883D01*
X016046Y010744D01*
X016152Y010638D01*
X016169Y010631D01*
X016175Y010621D01*
X016240Y010602D01*
X016291Y010580D01*
X016311Y010580D01*
X016341Y010571D01*
X016506Y010522D01*
X016507Y010521D01*
X016630Y010398D01*
X017732Y010398D01*
X017660Y010326D01*
X017660Y010253D01*
X017599Y010253D01*
X017361Y010015D01*
X017018Y010015D01*
X016952Y009949D01*
X016934Y009967D01*
X016902Y009986D01*
X016867Y009995D01*
X016672Y009995D01*
X016672Y009699D01*
X016592Y009699D01*
X016592Y009995D01*
X016397Y009995D01*
X016361Y009986D01*
X016329Y009967D01*
X016303Y009941D01*
X016285Y009909D01*
X016275Y009874D01*
X016275Y009698D01*
X016592Y009698D01*
X016592Y009618D01*
X016672Y009618D01*
X016672Y009322D01*
X016867Y009322D01*
X016902Y009331D01*
X016934Y009350D01*
X016952Y009368D01*
X017018Y009302D01*
X017584Y009302D01*
X017660Y009377D01*
X017660Y009091D01*
X017753Y008997D01*
X018280Y008997D01*
X018356Y009074D01*
X018365Y009068D01*
X018297Y009000D01*
X017747Y008450D01*
X017747Y008267D01*
X017747Y007667D01*
X017757Y007657D01*
X017757Y005845D01*
X017580Y005668D01*
X014197Y005668D01*
X014245Y005783D01*
X014245Y005934D01*
X014241Y005941D01*
X014244Y005948D01*
X014211Y006014D01*
X014207Y006025D01*
X014223Y006041D01*
X014223Y006607D01*
X014171Y006658D01*
X014223Y006710D01*
X014223Y007276D01*
X014130Y007370D01*
X013603Y007370D01*
X013510Y007276D01*
X013510Y007213D01*
X013423Y007213D01*
X013423Y007276D01*
X013330Y007370D01*
X012803Y007370D01*
X012710Y007276D01*
X012710Y007213D01*
X012142Y007213D01*
X011960Y007213D01*
X011220Y006473D01*
X010936Y006365D01*
X010655Y006431D01*
X010473Y006613D01*
X010473Y006676D01*
X010380Y006770D01*
X010316Y006770D01*
X009936Y007150D01*
X009936Y008254D01*
X009952Y008238D01*
X010091Y008180D01*
X010242Y008180D01*
X010381Y008238D01*
X010487Y008344D01*
X010545Y008483D01*
X010545Y008634D01*
X010537Y008651D01*
X010541Y008661D01*
X010541Y008661D01*
X010510Y008718D01*
X010805Y008423D01*
X010808Y008411D01*
X010816Y008365D01*
X010819Y008361D01*
X010887Y008051D01*
X010887Y008003D01*
X010909Y007949D01*
X010909Y007948D01*
X010910Y007945D01*
X010912Y007942D01*
X010967Y007808D01*
X011116Y007659D01*
X011311Y007578D01*
X011522Y007578D01*
X011717Y007659D01*
X011866Y007808D01*
X011916Y007931D01*
X011967Y007808D01*
X012116Y007659D01*
X012311Y007578D01*
X012522Y007578D01*
X012717Y007659D01*
X012866Y007808D01*
X012916Y007931D01*
X012967Y007808D01*
X013116Y007659D01*
X013311Y007578D01*
X013522Y007578D01*
X013717Y007659D01*
X013866Y007808D01*
X013916Y007931D01*
X013967Y007808D01*
X014116Y007659D01*
X014311Y007578D01*
X014522Y007578D01*
X014717Y007659D01*
X014866Y007808D01*
X014916Y007931D01*
X014967Y007808D01*
X015116Y007659D01*
X015077Y007699D02*
X015077Y005668D01*
X015237Y005668D02*
X015237Y007609D01*
X015397Y007578D02*
X015397Y005668D01*
X015557Y005668D02*
X015557Y007593D01*
X015667Y007638D02*
X015952Y007638D01*
X016037Y007554D02*
X016037Y005668D01*
X016197Y005668D02*
X016197Y007480D01*
X016357Y007486D02*
X016357Y005668D01*
X016517Y005668D02*
X016517Y007574D01*
X016581Y007638D02*
X017757Y007638D01*
X017757Y007478D02*
X009936Y007478D01*
X009936Y007318D02*
X012752Y007318D01*
X012837Y007370D02*
X012837Y007779D01*
X012856Y007798D02*
X012977Y007798D01*
X012997Y007779D02*
X012997Y007370D01*
X013157Y007370D02*
X013157Y007642D01*
X013166Y007638D02*
X012667Y007638D01*
X012677Y007642D02*
X012677Y007213D01*
X012517Y007213D02*
X012517Y007578D01*
X012357Y007578D02*
X012357Y007213D01*
X012197Y007213D02*
X012197Y007626D01*
X012166Y007638D02*
X011667Y007638D01*
X011717Y007659D02*
X011717Y006970D01*
X011745Y006998D02*
X010088Y006998D01*
X010117Y006969D02*
X010117Y008180D01*
X010277Y008195D02*
X010277Y006809D01*
X010248Y006838D02*
X011585Y006838D01*
X011557Y006810D02*
X011557Y007593D01*
X011397Y007578D02*
X011397Y006650D01*
X011425Y006678D02*
X010471Y006678D01*
X010437Y006713D02*
X010437Y008294D01*
X010421Y008278D02*
X010837Y008278D01*
X010872Y008118D02*
X009936Y008118D01*
X009957Y008236D02*
X009957Y007129D01*
X009936Y007158D02*
X011905Y007158D01*
X011877Y007130D02*
X011877Y007834D01*
X011856Y007798D02*
X011977Y007798D01*
X012037Y007739D02*
X012037Y007213D01*
X012142Y006773D02*
X012710Y006773D01*
X012710Y006710D01*
X012762Y006658D01*
X012710Y006607D01*
X012710Y006041D01*
X012726Y006025D01*
X012725Y006021D01*
X012692Y005961D01*
X012696Y005951D01*
X012688Y005934D01*
X012688Y005783D01*
X012736Y005668D01*
X011404Y005668D01*
X011404Y005828D01*
X011407Y005838D01*
X011531Y006162D01*
X012142Y006773D01*
X012197Y006773D02*
X012197Y005668D01*
X012357Y005668D02*
X012357Y006773D01*
X012517Y006773D02*
X012517Y005668D01*
X012677Y005668D02*
X012677Y006773D01*
X012741Y006678D02*
X012048Y006678D01*
X012037Y006667D02*
X012037Y005668D01*
X011877Y005668D02*
X011877Y006507D01*
X011888Y006518D02*
X012710Y006518D01*
X012710Y006358D02*
X011728Y006358D01*
X011717Y006347D02*
X011717Y005668D01*
X011557Y005668D02*
X011557Y006187D01*
X011568Y006198D02*
X012710Y006198D01*
X012712Y006038D02*
X011484Y006038D01*
X011423Y005878D02*
X012688Y005878D01*
X012692Y005961D02*
X012692Y005961D01*
X012692Y005961D01*
X012715Y005718D02*
X011404Y005718D01*
X010917Y006369D02*
X010917Y007931D01*
X010905Y007958D02*
X009936Y007958D01*
X009936Y007798D02*
X010977Y007798D01*
X011077Y007699D02*
X011077Y006418D01*
X011237Y006490D02*
X011237Y007609D01*
X011166Y007638D02*
X009936Y007638D01*
X009497Y007591D02*
X009497Y007150D01*
X009497Y006967D01*
X009774Y006690D01*
X009760Y006676D01*
X009760Y006110D01*
X009812Y006058D01*
X009760Y006007D01*
X009760Y005812D01*
X009226Y006345D01*
X009226Y007321D01*
X009497Y007591D01*
X009477Y007571D02*
X009477Y006095D01*
X009533Y006038D02*
X009792Y006038D01*
X009797Y006043D02*
X009797Y006073D01*
X009760Y006198D02*
X009373Y006198D01*
X009317Y006255D02*
X009317Y007411D01*
X009383Y007478D02*
X009497Y007478D01*
X009497Y007318D02*
X009226Y007318D01*
X009226Y007158D02*
X009497Y007158D01*
X009497Y006998D02*
X009226Y006998D01*
X009226Y006838D02*
X009625Y006838D01*
X009637Y006827D02*
X009637Y005935D01*
X009693Y005878D02*
X009760Y005878D01*
X009760Y006358D02*
X009226Y006358D01*
X009226Y006518D02*
X009760Y006518D01*
X009762Y006678D02*
X009226Y006678D01*
X008677Y006001D02*
X008677Y002568D01*
X008197Y002568D02*
X008197Y007548D01*
X008037Y007548D02*
X008037Y002568D01*
X007877Y002568D02*
X007877Y007548D01*
X007717Y007548D02*
X007717Y002568D01*
X007557Y002568D02*
X007557Y007548D01*
X007397Y007548D02*
X007397Y002568D01*
X007237Y002568D02*
X007237Y007548D01*
X007077Y007548D02*
X007077Y002568D01*
X010437Y002568D02*
X010437Y004004D01*
X010597Y004114D02*
X010597Y002568D01*
X010757Y002568D02*
X010757Y004151D01*
X010724Y004118D02*
X018718Y004118D01*
X018729Y004181D02*
X018729Y004181D01*
X018757Y004229D02*
X018757Y007898D01*
X018917Y007898D02*
X018917Y004485D01*
X018893Y004465D02*
X018893Y004465D01*
X018893Y004465D01*
X018878Y004438D02*
X011281Y004438D01*
X011237Y004415D02*
X011237Y002568D01*
X011397Y002568D02*
X011397Y004567D01*
X011409Y004598D02*
X019052Y004598D01*
X019077Y004619D02*
X019077Y007898D01*
X019237Y007898D02*
X019237Y004710D01*
X019144Y004676D02*
X019144Y004676D01*
X019370Y004758D02*
X011445Y004758D01*
X011077Y004367D02*
X011077Y002568D01*
X010917Y002568D02*
X010917Y004311D01*
X010883Y004278D02*
X018785Y004278D01*
X019397Y004768D02*
X019397Y007898D01*
X019557Y007846D02*
X019557Y004788D01*
X019717Y004788D02*
X019717Y007760D01*
X019642Y007798D02*
X018604Y007798D01*
X018597Y007791D02*
X018597Y002568D01*
X018437Y002568D02*
X018437Y007631D01*
X018444Y007638D02*
X020907Y007638D01*
X020907Y007478D02*
X018376Y007478D01*
X018376Y007318D02*
X020907Y007318D01*
X020907Y007158D02*
X018376Y007158D01*
X018376Y006998D02*
X020907Y006998D01*
X020907Y006838D02*
X018376Y006838D01*
X018376Y006678D02*
X020907Y006678D01*
X020907Y006518D02*
X018376Y006518D01*
X018376Y006358D02*
X020907Y006358D01*
X020907Y006198D02*
X018376Y006198D01*
X018376Y006038D02*
X020907Y006038D01*
X020907Y005878D02*
X018376Y005878D01*
X018376Y005718D02*
X020907Y005718D01*
X020907Y005558D02*
X018364Y005558D01*
X018277Y005471D02*
X018277Y002568D01*
X018117Y002568D02*
X018117Y005311D01*
X018044Y005238D02*
X020907Y005238D01*
X020907Y005398D02*
X018204Y005398D01*
X017957Y005151D02*
X017957Y002568D01*
X018762Y003478D02*
X016676Y003478D01*
X016517Y002798D02*
X016517Y002568D01*
X016357Y002568D02*
X016357Y002798D01*
X016197Y002798D02*
X016197Y002568D01*
X016037Y002568D02*
X016037Y002798D01*
X015877Y002798D02*
X015877Y002568D01*
X015397Y002568D02*
X015397Y005048D01*
X015717Y005668D02*
X015717Y007659D01*
X015856Y007798D02*
X015888Y007798D01*
X015877Y007834D02*
X015877Y005668D01*
X016677Y005668D02*
X016677Y009322D01*
X016672Y009398D02*
X016592Y009398D01*
X016592Y009322D02*
X016592Y009618D01*
X016275Y009618D01*
X016275Y009443D01*
X016285Y009408D01*
X016303Y009376D01*
X016329Y009350D01*
X016361Y009331D01*
X016397Y009322D01*
X016592Y009322D01*
X016517Y009322D02*
X016517Y008156D01*
X016544Y008118D02*
X017747Y008118D01*
X017747Y007958D02*
X016634Y007958D01*
X016622Y008014D02*
X016622Y008014D01*
X016645Y007798D02*
X017747Y007798D01*
X017757Y007318D02*
X014181Y007318D01*
X014117Y007370D02*
X014117Y007659D01*
X014166Y007638D02*
X013667Y007638D01*
X013637Y007626D02*
X013637Y007370D01*
X013552Y007318D02*
X013381Y007318D01*
X013317Y007370D02*
X013317Y007578D01*
X013477Y007578D02*
X013477Y007213D01*
X013797Y007370D02*
X013797Y007739D01*
X013856Y007798D02*
X013977Y007798D01*
X013957Y007834D02*
X013957Y007370D01*
X014223Y007158D02*
X017757Y007158D01*
X017757Y006998D02*
X014223Y006998D01*
X014223Y006838D02*
X017757Y006838D01*
X017757Y006678D02*
X014191Y006678D01*
X014223Y006518D02*
X017757Y006518D01*
X017757Y006358D02*
X014223Y006358D01*
X014223Y006198D02*
X017757Y006198D01*
X017757Y006038D02*
X014221Y006038D01*
X014245Y005878D02*
X017757Y005878D01*
X017637Y005725D02*
X017637Y009354D01*
X017660Y009238D02*
X015287Y009238D01*
X015237Y009265D02*
X015237Y012412D01*
X015210Y012438D02*
X014881Y012438D01*
X014917Y012474D02*
X014917Y009386D01*
X015019Y009382D02*
X015019Y009382D01*
X015077Y009352D02*
X015077Y012544D01*
X014790Y012278D02*
X015416Y012278D01*
X015397Y012259D02*
X015397Y012372D01*
X015463Y012438D02*
X015576Y012438D01*
X015557Y012419D02*
X015557Y012512D01*
X015660Y012522D02*
X015883Y012298D01*
X016007Y012422D01*
X016026Y012454D01*
X016035Y012489D01*
X016035Y012526D01*
X016029Y012549D01*
X016150Y012670D01*
X015967Y012853D01*
X015728Y012614D01*
X015740Y012603D01*
X015660Y012522D01*
X015717Y012579D02*
X015717Y012692D01*
X015783Y012758D02*
X015873Y012758D01*
X015877Y012762D02*
X015877Y012872D01*
X015912Y012908D02*
X015967Y012853D01*
X016022Y012908D01*
X015967Y012963D01*
X015912Y012908D01*
X015902Y012918D02*
X015923Y012918D01*
X015877Y012943D02*
X015877Y013053D01*
X015851Y013078D02*
X015742Y013078D01*
X015717Y013078D02*
X015584Y013078D01*
X015717Y013078D02*
X015717Y013210D01*
X015744Y013238D02*
X015877Y013238D01*
X015877Y013370D01*
X015904Y013398D02*
X016386Y013398D01*
X016357Y013337D02*
X016357Y013942D01*
X016294Y013878D02*
X016507Y013878D01*
X016507Y013718D02*
X016137Y013718D01*
X016197Y013779D02*
X016197Y013210D01*
X016206Y013201D02*
X016109Y013298D01*
X016077Y013317D01*
X016041Y013326D01*
X016004Y013326D01*
X015969Y013317D01*
X015937Y013298D01*
X015784Y013146D01*
X015967Y012963D01*
X016206Y013201D01*
X016197Y013192D02*
X016197Y013082D01*
X016192Y013078D02*
X016083Y013078D01*
X016037Y013032D02*
X016037Y012922D01*
X016032Y012918D02*
X016012Y012918D01*
X016022Y012908D02*
X016260Y013146D01*
X016357Y013049D01*
X016376Y013018D01*
X016385Y012982D01*
X016385Y012945D01*
X016376Y012909D01*
X016357Y012878D01*
X016205Y012725D01*
X016022Y012908D01*
X016037Y012893D02*
X016037Y012783D01*
X016062Y012758D02*
X016171Y012758D01*
X016197Y012733D02*
X016197Y011297D01*
X016248Y011318D02*
X014211Y011318D01*
X014117Y011232D02*
X014117Y008716D01*
X014063Y008758D02*
X014632Y008758D01*
X014597Y008794D02*
X014597Y008607D01*
X014618Y008598D02*
X015215Y008598D01*
X015237Y008608D02*
X015237Y008751D01*
X015250Y008758D02*
X015370Y008758D01*
X015397Y008731D02*
X015397Y008638D01*
X015717Y009005D02*
X015717Y012131D01*
X015704Y012118D02*
X016838Y012118D01*
X016857Y012278D02*
X015790Y012278D01*
X015877Y012305D02*
X015877Y008845D01*
X015803Y008918D02*
X018215Y008918D01*
X018277Y008980D02*
X018277Y008997D01*
X018117Y008997D02*
X018117Y008820D01*
X018055Y008758D02*
X015963Y008758D01*
X016037Y008685D02*
X016037Y010767D01*
X016007Y010838D02*
X012657Y010838D01*
X012677Y010857D02*
X012677Y009318D01*
X012837Y009318D02*
X012837Y011012D01*
X012823Y010998D02*
X015988Y010998D01*
X016037Y011150D02*
X016037Y012557D01*
X016078Y012598D02*
X017242Y012598D01*
X017317Y012561D02*
X017317Y012526D01*
X017477Y012530D02*
X017477Y012486D01*
X017157Y012536D02*
X017157Y012684D01*
X017119Y012758D02*
X016238Y012758D01*
X016357Y012877D02*
X016357Y011336D01*
X016485Y011318D02*
X016892Y011318D01*
X016837Y011263D02*
X016837Y011417D01*
X016811Y011478D02*
X014293Y011478D01*
X014277Y011440D02*
X014277Y008681D01*
X014437Y008646D02*
X014437Y011925D01*
X014470Y011958D02*
X016890Y011958D01*
X016837Y011800D02*
X016837Y012849D01*
X016961Y012918D02*
X017088Y012918D01*
X016997Y012954D02*
X016997Y012473D01*
X016962Y012438D02*
X016017Y012438D01*
X015743Y012438D02*
X015630Y012438D01*
X015717Y012465D02*
X015717Y012352D01*
X015736Y012598D02*
X015623Y012598D01*
X015397Y012252D02*
X015397Y009218D01*
X015557Y009165D02*
X015557Y012103D01*
X015530Y012118D02*
X014630Y012118D01*
X014597Y012085D02*
X014597Y009223D01*
X014612Y009238D02*
X013583Y009238D01*
X013637Y009185D02*
X013637Y011304D01*
X013622Y011318D02*
X013154Y011318D01*
X013157Y011321D02*
X013157Y009318D01*
X013317Y009318D02*
X013317Y011476D01*
X013319Y011478D02*
X013540Y011478D01*
X013530Y011638D02*
X013485Y011638D01*
X013477Y011630D02*
X013477Y009318D01*
X013743Y009078D02*
X014538Y009078D01*
X014545Y008918D02*
X013903Y008918D01*
X013957Y008865D02*
X013957Y011180D01*
X013797Y011199D02*
X013797Y009025D01*
X012997Y009318D02*
X012997Y011166D01*
X012988Y011158D02*
X016040Y011158D01*
X016112Y010678D02*
X012492Y010678D01*
X012517Y010702D02*
X012517Y009318D01*
X012357Y009318D02*
X012357Y010171D01*
X012387Y010198D02*
X017544Y010198D01*
X017477Y010131D02*
X017477Y010398D01*
X017637Y010398D02*
X017637Y010253D01*
X017692Y010358D02*
X012454Y010358D01*
X012454Y010518D02*
X016510Y010518D01*
X016517Y010511D02*
X016517Y009995D01*
X016592Y009878D02*
X016672Y009878D01*
X016677Y009995D02*
X016677Y010398D01*
X016837Y010398D02*
X016837Y009995D01*
X016997Y009993D02*
X016997Y010398D01*
X017157Y010398D02*
X017157Y010015D01*
X017317Y010015D02*
X017317Y010398D01*
X017384Y010038D02*
X011326Y010038D01*
X011326Y009878D02*
X016277Y009878D01*
X016357Y009983D02*
X016357Y010567D01*
X016341Y010571D02*
X016341Y010571D01*
X016197Y010615D02*
X016197Y008525D01*
X016123Y008598D02*
X017895Y008598D01*
X017957Y008660D02*
X017957Y008997D01*
X017797Y008997D02*
X017797Y008500D01*
X017747Y008438D02*
X016283Y008438D01*
X016357Y008381D02*
X016357Y009334D01*
X016290Y009398D02*
X011326Y009398D01*
X011397Y009325D02*
X011397Y014768D01*
X011557Y014768D02*
X011557Y009318D01*
X011717Y009318D02*
X011717Y010171D01*
X011646Y010198D02*
X011326Y010198D01*
X011326Y010358D02*
X011579Y010358D01*
X011579Y010518D02*
X011326Y010518D01*
X011326Y010678D02*
X011579Y010678D01*
X011579Y010838D02*
X011326Y010838D01*
X011326Y010998D02*
X011626Y010998D01*
X011717Y011046D02*
X011717Y014768D01*
X011877Y014774D02*
X011877Y011046D01*
X012037Y011046D02*
X012037Y014889D01*
X011986Y014838D02*
X015837Y014838D01*
X015837Y014998D02*
X012293Y014998D01*
X012357Y015022D02*
X012357Y011326D01*
X012348Y011318D02*
X011326Y011318D01*
X011326Y011158D02*
X012183Y011158D01*
X012197Y011172D02*
X012197Y014963D01*
X012517Y015078D02*
X012517Y011481D01*
X012514Y011478D02*
X011326Y011478D01*
X011326Y011638D02*
X012679Y011638D01*
X012677Y011636D02*
X012677Y015142D01*
X012715Y015158D02*
X013118Y015158D01*
X013157Y015142D02*
X013157Y012100D01*
X013176Y012118D02*
X011326Y012118D01*
X011326Y011958D02*
X013010Y011958D01*
X012997Y011945D02*
X012997Y015279D01*
X012963Y015318D02*
X012870Y015318D01*
X012837Y015279D02*
X012837Y011791D01*
X012845Y011798D02*
X011326Y011798D01*
X011326Y012278D02*
X013339Y012278D01*
X013317Y012255D02*
X013317Y015078D01*
X013477Y015078D02*
X013477Y012422D01*
X013492Y012438D02*
X011326Y012438D01*
X011237Y012585D02*
X011237Y014768D01*
X011077Y014768D02*
X011077Y012745D01*
X011063Y012758D02*
X013798Y012758D01*
X013797Y012757D02*
X013797Y013714D01*
X013795Y013718D02*
X010641Y013718D01*
X010597Y013749D02*
X010597Y014768D01*
X010757Y014768D02*
X010757Y014045D01*
X010862Y014038D02*
X013862Y014038D01*
X013957Y014131D02*
X013957Y015334D01*
X013963Y015318D02*
X013870Y015318D01*
X013797Y015239D02*
X013797Y013903D01*
X013788Y013878D02*
X010958Y013878D01*
X010917Y014004D02*
X010917Y014768D01*
X010917Y015248D02*
X010917Y015431D01*
X010897Y015478D02*
X009653Y015478D01*
X009653Y015509D02*
X009644Y015544D01*
X009625Y015576D01*
X009607Y015594D01*
X009673Y015660D01*
X009673Y015848D01*
X010680Y015848D01*
X010854Y015848D01*
X011137Y016131D01*
X011137Y016066D01*
X011116Y016058D01*
X010967Y015909D01*
X010887Y015714D01*
X010887Y015503D01*
X010967Y015308D01*
X011027Y015248D01*
X010314Y015248D01*
X010219Y015248D01*
X010131Y015212D01*
X009796Y014877D01*
X009728Y014810D01*
X009692Y014721D01*
X009692Y014065D01*
X009649Y014065D01*
X009555Y013972D01*
X009555Y013948D01*
X008920Y013948D01*
X008759Y014016D01*
X008837Y014094D01*
X008895Y014233D01*
X008895Y014384D01*
X008837Y014523D01*
X008731Y014629D01*
X008655Y014660D01*
X008695Y014698D01*
X008704Y014698D01*
X008796Y014791D01*
X008840Y014835D01*
X008893Y014868D01*
X008899Y014891D01*
X008916Y014908D01*
X008916Y014911D01*
X008996Y014991D01*
X009008Y014971D01*
X009034Y014945D01*
X009066Y014927D01*
X009101Y014917D01*
X009277Y014917D01*
X009277Y015234D01*
X009356Y015234D01*
X009356Y014917D01*
X009532Y014917D01*
X009567Y014927D01*
X009599Y014945D01*
X009625Y014971D01*
X009644Y015003D01*
X009653Y015039D01*
X009653Y015234D01*
X009357Y015234D01*
X009357Y015314D01*
X009653Y015314D01*
X009653Y015509D01*
X009637Y015557D02*
X009637Y015623D01*
X009652Y015638D02*
X010887Y015638D01*
X010917Y015786D02*
X010917Y015911D01*
X010963Y015958D02*
X011017Y015958D01*
X011077Y016018D02*
X011077Y016071D01*
X011123Y016118D02*
X011137Y016118D01*
X010922Y015798D02*
X009673Y015798D01*
X009797Y015848D02*
X009797Y014878D01*
X009757Y014838D02*
X008846Y014838D01*
X008837Y014831D02*
X008837Y014523D01*
X008839Y014518D02*
X009692Y014518D01*
X009692Y014358D02*
X008895Y014358D01*
X008880Y014198D02*
X009692Y014198D01*
X009637Y014053D02*
X009637Y014991D01*
X009641Y014998D02*
X009917Y014998D01*
X009957Y015038D02*
X009957Y015848D01*
X010117Y015848D02*
X010117Y015198D01*
X010077Y015158D02*
X009653Y015158D01*
X009637Y015234D02*
X009637Y015314D01*
X009653Y015318D02*
X010963Y015318D01*
X010757Y015248D02*
X010757Y015848D01*
X010597Y015848D02*
X010597Y015248D01*
X010437Y015248D02*
X010437Y015848D01*
X010277Y015848D02*
X010277Y015248D01*
X010437Y014768D02*
X010437Y014045D01*
X010341Y014038D02*
X010241Y014038D01*
X010277Y014003D02*
X010277Y014679D01*
X010276Y014678D02*
X015691Y014678D01*
X015717Y014704D02*
X015717Y015159D01*
X015715Y015158D02*
X015837Y015158D01*
X015557Y015093D02*
X015557Y014544D01*
X015531Y014518D02*
X010172Y014518D01*
X010172Y014358D02*
X015371Y014358D01*
X015397Y014384D02*
X015397Y015078D01*
X015237Y015109D02*
X015237Y014224D01*
X015211Y014198D02*
X010172Y014198D01*
X010561Y014038D02*
X010641Y014038D01*
X010641Y013878D02*
X010561Y013878D01*
X010597Y013668D02*
X010597Y013225D01*
X010583Y013238D02*
X014256Y013238D01*
X014277Y013260D02*
X014277Y013445D01*
X014411Y013398D02*
X010902Y013398D01*
X010917Y013412D02*
X010917Y012905D01*
X010903Y012918D02*
X013950Y012918D01*
X013957Y012925D02*
X013957Y013486D01*
X013882Y013558D02*
X010958Y013558D01*
X010917Y013668D02*
X010917Y013748D01*
X010757Y013748D02*
X010757Y013668D01*
X010641Y013558D02*
X010561Y013558D01*
X010561Y013398D02*
X010641Y013398D01*
X010757Y013372D02*
X010757Y013065D01*
X010743Y013078D02*
X014103Y013078D01*
X014117Y013092D02*
X014117Y013430D01*
X014437Y013424D02*
X014437Y013484D01*
X014757Y013765D02*
X014757Y015199D01*
X014715Y015158D02*
X015118Y015158D01*
X015077Y015199D02*
X015077Y014064D01*
X015051Y014038D02*
X014474Y014038D01*
X014437Y014073D02*
X014437Y015078D01*
X014277Y015093D02*
X014277Y014172D01*
X014117Y014186D02*
X014117Y015159D01*
X014118Y015158D02*
X013715Y015158D01*
X013637Y015126D02*
X013637Y012590D01*
X013645Y012598D02*
X011223Y012598D01*
X010437Y013268D02*
X010437Y013372D01*
X010301Y013398D02*
X010261Y013398D01*
X010277Y013413D02*
X010277Y013268D01*
X010117Y013268D02*
X010117Y013352D01*
X009957Y013352D02*
X009957Y013268D01*
X009797Y013268D02*
X009797Y013352D01*
X009637Y013364D02*
X009637Y013268D01*
X009602Y013398D02*
X008754Y013398D01*
X008677Y013365D02*
X008677Y013268D01*
X008837Y013268D02*
X008837Y013433D01*
X008997Y013468D02*
X008997Y013268D01*
X009157Y013268D02*
X009157Y013468D01*
X009317Y013468D02*
X009317Y013268D01*
X009477Y013268D02*
X009477Y013468D01*
X009477Y013948D02*
X009477Y014917D01*
X009356Y014998D02*
X009277Y014998D01*
X009157Y014917D02*
X009157Y013948D01*
X009317Y013948D02*
X009317Y015234D01*
X009277Y015158D02*
X009356Y015158D01*
X009477Y015234D02*
X009477Y015314D01*
X008997Y014991D02*
X008997Y013948D01*
X008837Y013984D02*
X008837Y014094D01*
X008781Y014038D02*
X009622Y014038D01*
X009692Y014678D02*
X008674Y014678D01*
X008677Y014681D02*
X008677Y014651D01*
X008607Y015240D02*
X008483Y015269D01*
X008442Y015286D01*
X008410Y015286D01*
X008369Y015296D01*
X008368Y015296D01*
X008353Y015286D01*
X008291Y015286D01*
X008152Y015229D01*
X008046Y015123D01*
X007988Y014984D01*
X007988Y014833D01*
X008046Y014694D01*
X008071Y014670D01*
X007703Y014670D01*
X007610Y014576D01*
X007610Y014010D01*
X007662Y013958D01*
X007610Y013907D01*
X007610Y013486D01*
X007491Y013486D01*
X007352Y013429D01*
X007246Y013323D01*
X007188Y013184D01*
X007188Y013183D01*
X007176Y013195D01*
X007176Y013467D01*
X007176Y013501D01*
X007273Y013680D01*
X007287Y013694D01*
X007308Y013746D01*
X007311Y013751D01*
X007341Y013805D01*
X007341Y013805D01*
X007341Y013806D01*
X007337Y013816D01*
X007345Y013833D01*
X007345Y013984D01*
X007287Y014123D01*
X007181Y014229D01*
X007042Y014286D01*
X006891Y014286D01*
X006790Y014245D01*
X006737Y014373D01*
X006631Y014479D01*
X006492Y014536D01*
X006341Y014536D01*
X006202Y014479D01*
X006195Y014471D01*
X006195Y014993D01*
X006101Y015086D01*
X005927Y015086D01*
X005856Y015132D01*
X005856Y016506D01*
X005820Y016594D01*
X005752Y016662D01*
X005056Y017358D01*
X005616Y017918D01*
X007827Y017918D01*
X007827Y017420D01*
X007827Y017419D01*
X007800Y017356D01*
X007762Y017356D01*
X007669Y017262D01*
X007669Y016654D01*
X007762Y016561D01*
X008371Y016561D01*
X008464Y016654D01*
X008464Y017262D01*
X008371Y017356D01*
X008333Y017356D01*
X008306Y017419D01*
X008306Y017420D01*
X008306Y017918D01*
X009864Y017918D01*
X009952Y017955D01*
X010020Y018022D01*
X010020Y018022D01*
X011016Y019018D01*
X012017Y019018D01*
X012440Y018596D01*
X012342Y018636D01*
X012191Y018636D01*
X012052Y018579D01*
X011946Y018473D01*
X011888Y018334D01*
X011888Y018183D01*
X011896Y018166D01*
X011892Y018156D01*
X011925Y018096D01*
X011946Y018044D01*
X011960Y018030D01*
X011971Y018010D01*
X011975Y018002D01*
X012057Y017851D01*
X012057Y017817D01*
X012057Y017645D01*
X010680Y016268D01*
X009631Y016268D01*
X009580Y016320D01*
X009053Y016320D01*
X008960Y016226D01*
X008960Y016118D01*
X008930Y016118D01*
X008807Y015995D01*
X008607Y015795D01*
X008607Y015621D01*
X008607Y015240D01*
X008607Y015318D02*
X005856Y015318D01*
X005856Y015158D02*
X008082Y015158D01*
X008037Y015100D02*
X008037Y016561D01*
X008197Y016561D02*
X008197Y015247D01*
X008357Y015289D02*
X008357Y016561D01*
X008408Y016598D02*
X011010Y016598D01*
X011077Y016665D02*
X011077Y019018D01*
X010996Y018998D02*
X012037Y018998D01*
X012037Y018999D02*
X012037Y018563D01*
X011992Y018518D02*
X010516Y018518D01*
X010437Y018439D02*
X010437Y016268D01*
X010597Y016268D02*
X010597Y018599D01*
X010676Y018678D02*
X012357Y018678D01*
X012357Y018679D02*
X012357Y018630D01*
X012197Y018636D02*
X012197Y018839D01*
X012197Y018838D02*
X010836Y018838D01*
X010757Y018759D02*
X010757Y016345D01*
X010690Y016278D02*
X009621Y016278D01*
X009637Y016268D02*
X009637Y017918D01*
X009797Y017918D02*
X009797Y016268D01*
X009957Y016268D02*
X009957Y017959D01*
X010036Y018038D02*
X011952Y018038D01*
X012037Y017888D02*
X012037Y017625D01*
X011970Y017558D02*
X008306Y017558D01*
X008315Y017398D02*
X011810Y017398D01*
X011877Y017465D02*
X011877Y019018D01*
X011717Y019018D02*
X011717Y017305D01*
X011650Y017238D02*
X008464Y017238D01*
X008464Y017078D02*
X011490Y017078D01*
X011557Y017145D02*
X011557Y019018D01*
X011397Y019018D02*
X011397Y016985D01*
X011330Y016918D02*
X008464Y016918D01*
X008464Y016758D02*
X011170Y016758D01*
X011237Y016825D02*
X011237Y019018D01*
X010917Y018919D02*
X010917Y016505D01*
X010850Y016438D02*
X005856Y016438D01*
X005856Y016278D02*
X009012Y016278D01*
X008997Y016263D02*
X008997Y017918D01*
X009157Y017918D02*
X009157Y016320D01*
X009317Y016320D02*
X009317Y017918D01*
X009477Y017918D02*
X009477Y016320D01*
X008960Y016118D02*
X005856Y016118D01*
X005856Y015958D02*
X008770Y015958D01*
X008837Y016025D02*
X008837Y017918D01*
X008677Y017918D02*
X008677Y015865D01*
X008610Y015798D02*
X005856Y015798D01*
X005856Y015638D02*
X008607Y015638D01*
X008607Y015478D02*
X005856Y015478D01*
X005957Y015086D02*
X005957Y017918D01*
X006117Y017918D02*
X006117Y015071D01*
X006189Y014998D02*
X007995Y014998D01*
X007988Y014838D02*
X006195Y014838D01*
X006195Y014678D02*
X008062Y014678D01*
X008037Y014670D02*
X008037Y014717D01*
X007877Y014670D02*
X007877Y016561D01*
X007725Y016598D02*
X005816Y016598D01*
X005797Y016618D02*
X005797Y017918D01*
X005637Y017918D02*
X005637Y016778D01*
X005656Y016758D02*
X007669Y016758D01*
X007717Y016607D02*
X007717Y014670D01*
X007610Y014518D02*
X006535Y014518D01*
X006597Y014493D02*
X006597Y017918D01*
X006757Y017918D02*
X006757Y014326D01*
X006743Y014358D02*
X007610Y014358D01*
X007610Y014198D02*
X007211Y014198D01*
X007237Y014173D02*
X007237Y017918D01*
X007397Y017918D02*
X007397Y013447D01*
X007322Y013398D02*
X007176Y013398D01*
X007237Y013300D02*
X007237Y013612D01*
X007207Y013558D02*
X007610Y013558D01*
X007557Y013486D02*
X007557Y017918D01*
X007717Y017918D02*
X007717Y017310D01*
X007669Y017238D02*
X005176Y017238D01*
X005157Y017258D02*
X005157Y017459D01*
X005096Y017398D02*
X007818Y017398D01*
X007827Y017558D02*
X005256Y017558D01*
X005317Y017619D02*
X005317Y017098D01*
X005336Y017078D02*
X007669Y017078D01*
X007669Y016918D02*
X005496Y016918D01*
X005477Y016938D02*
X005477Y017779D01*
X005416Y017718D02*
X007827Y017718D01*
X007827Y017878D02*
X005576Y017878D01*
X005217Y018198D02*
X002326Y018198D01*
X002326Y018038D02*
X005057Y018038D01*
X004997Y017978D02*
X004997Y021148D01*
X005157Y021148D02*
X005157Y018138D01*
X005313Y018294D02*
X004581Y017562D01*
X004581Y017562D01*
X004513Y017494D01*
X002513Y015494D01*
X002477Y015406D01*
X002477Y015311D01*
X002477Y012711D01*
X002477Y011896D01*
X002373Y011896D01*
X002326Y011850D01*
X002326Y020240D01*
X002338Y020382D01*
X002425Y020653D01*
X002592Y020882D01*
X002822Y021049D01*
X003093Y021137D01*
X003235Y021148D01*
X003305Y021148D01*
X003322Y021148D01*
X008004Y021148D01*
X008004Y020585D01*
X007994Y020566D01*
X007968Y020485D01*
X007954Y020401D01*
X007954Y020398D01*
X008113Y020398D01*
X008140Y020380D01*
X008187Y020361D01*
X008237Y020351D01*
X008454Y020351D01*
X008454Y020318D01*
X008534Y020318D01*
X008534Y019818D01*
X008537Y019818D01*
X008621Y019832D01*
X008702Y019858D01*
X008777Y019897D01*
X008846Y019947D01*
X008906Y020007D01*
X008956Y020075D01*
X008995Y020151D01*
X009021Y020232D01*
X009034Y020316D01*
X009034Y020318D01*
X008535Y020318D01*
X008535Y020351D01*
X008577Y020351D01*
X008577Y020398D01*
X008656Y020398D01*
X008656Y020351D01*
X008996Y020351D01*
X009046Y020361D01*
X009093Y020380D01*
X009135Y020408D01*
X009171Y020444D01*
X009200Y020487D01*
X009219Y020534D01*
X009229Y020583D01*
X009229Y021148D01*
X019999Y021148D01*
X020141Y021137D01*
X020411Y021049D01*
X020641Y020882D01*
X020808Y020653D01*
X020895Y020382D01*
X020907Y020240D01*
X020907Y020179D01*
X020907Y020153D01*
X020907Y016048D01*
X020237Y016048D01*
X020143Y015954D01*
X020143Y015487D01*
X020237Y015393D01*
X020907Y015393D01*
X020907Y015260D01*
X020237Y015260D01*
X020143Y015166D01*
X020143Y014865D01*
X020104Y014768D01*
X019068Y014768D01*
X019114Y014879D01*
X019114Y015038D01*
X019054Y015184D01*
X018942Y015296D01*
X018796Y015356D01*
X018637Y015356D01*
X018574Y015330D01*
X018520Y015308D01*
X018255Y015198D01*
X017391Y015198D01*
X017487Y015294D01*
X017545Y015433D01*
X017545Y015584D01*
X017487Y015723D01*
X017381Y015829D01*
X017242Y015886D01*
X017091Y015886D01*
X017074Y015879D01*
X017064Y015882D01*
X017064Y015882D01*
X017064Y015882D01*
X017010Y015853D01*
X017004Y015850D01*
X016952Y015829D01*
X016938Y015815D01*
X016759Y015718D01*
X016725Y015718D01*
X016396Y015718D01*
X016396Y016014D01*
X016354Y016117D01*
X016275Y016196D01*
X015875Y016596D01*
X015772Y016638D01*
X015661Y016638D01*
X015496Y016638D01*
X015496Y017421D01*
X015560Y017421D01*
X015654Y017515D01*
X015654Y018202D01*
X015560Y018296D01*
X014873Y018296D01*
X014779Y018202D01*
X014779Y018045D01*
X014627Y017898D01*
X013216Y017898D01*
X013056Y018058D01*
X013056Y018606D01*
X013020Y018694D01*
X012952Y018762D01*
X012252Y019462D01*
X012164Y019498D01*
X012069Y019498D01*
X010869Y019498D01*
X010781Y019462D01*
X010713Y019394D01*
X009717Y018398D01*
X008019Y018398D01*
X005469Y018398D01*
X005381Y018362D01*
X005313Y018294D01*
X005317Y018298D02*
X005317Y021148D01*
X005477Y021148D02*
X005477Y018398D01*
X005377Y018358D02*
X002326Y018358D01*
X002326Y018518D02*
X009837Y018518D01*
X009797Y018478D02*
X009797Y021148D01*
X009957Y021148D02*
X009957Y018638D01*
X009997Y018678D02*
X002326Y018678D01*
X002326Y018838D02*
X010157Y018838D01*
X010117Y018798D02*
X010117Y021148D01*
X010277Y021148D02*
X010277Y018958D01*
X010317Y018998D02*
X003973Y018998D01*
X004037Y019022D02*
X004037Y017018D01*
X004097Y017078D02*
X002326Y017078D01*
X002326Y016918D02*
X003937Y016918D01*
X003877Y016858D02*
X003877Y018963D01*
X003781Y018928D02*
X004089Y019041D01*
X004340Y019251D01*
X004340Y019251D01*
X004340Y019251D01*
X004504Y019535D01*
X004504Y019535D01*
X004561Y019858D01*
X004561Y019858D01*
X004504Y020181D01*
X004504Y020181D01*
X004340Y020465D01*
X004340Y020465D01*
X004089Y020676D01*
X004089Y020676D01*
X003781Y020788D01*
X003780Y020788D01*
X003699Y020788D01*
X003616Y020788D01*
X003596Y020788D01*
X003534Y020788D01*
X003453Y020788D01*
X003453Y020788D01*
X003144Y020676D01*
X002893Y020465D01*
X002729Y020181D01*
X002672Y019858D01*
X002729Y019535D01*
X002893Y019251D01*
X003144Y019041D01*
X003144Y019041D01*
X003453Y018928D01*
X003616Y018928D01*
X003699Y018928D01*
X003780Y018928D01*
X003781Y018928D01*
X003717Y018928D02*
X003717Y016698D01*
X003777Y016758D02*
X002326Y016758D01*
X002326Y016598D02*
X003617Y016598D01*
X003557Y016538D02*
X003557Y018928D01*
X003453Y018928D02*
X003453Y018928D01*
X003397Y018949D02*
X003397Y016378D01*
X003457Y016438D02*
X002326Y016438D01*
X002326Y016278D02*
X003297Y016278D01*
X003237Y016218D02*
X003237Y019007D01*
X003260Y018998D02*
X002326Y018998D01*
X002326Y019158D02*
X003004Y019158D01*
X003077Y019098D02*
X003077Y016058D01*
X003137Y016118D02*
X002326Y016118D01*
X002326Y015958D02*
X002977Y015958D01*
X002917Y015898D02*
X002917Y019232D01*
X002893Y019251D02*
X002893Y019251D01*
X002854Y019318D02*
X002326Y019318D01*
X002326Y019478D02*
X002762Y019478D01*
X002757Y019488D02*
X002757Y015738D01*
X002817Y015798D02*
X002326Y015798D01*
X002326Y015638D02*
X002657Y015638D01*
X002597Y015578D02*
X002597Y020885D01*
X002642Y020918D02*
X008004Y020918D01*
X008004Y020758D02*
X007676Y020758D01*
X007676Y020825D02*
X007583Y020918D01*
X006650Y020918D01*
X006557Y020825D01*
X006557Y019892D01*
X006650Y019798D01*
X004550Y019798D01*
X004543Y019958D02*
X006557Y019958D01*
X006597Y019852D02*
X006597Y018398D01*
X006757Y018398D02*
X006757Y019798D01*
X006650Y019798D02*
X007583Y019798D01*
X018683Y019798D01*
X018672Y019858D02*
X018729Y019535D01*
X018893Y019251D01*
X019144Y019041D01*
X019144Y019041D01*
X019453Y018928D01*
X019534Y018928D01*
X019616Y018928D01*
X019780Y018928D01*
X019781Y018928D01*
X020089Y019041D01*
X020340Y019251D01*
X020340Y019251D01*
X020340Y019251D01*
X020504Y019535D01*
X020504Y019535D01*
X020561Y019858D01*
X020561Y019858D01*
X020504Y020181D01*
X020504Y020181D01*
X020340Y020465D01*
X020340Y020465D01*
X020089Y020676D01*
X020089Y020676D01*
X019781Y020788D01*
X019780Y020788D01*
X019699Y020788D01*
X019616Y020788D01*
X019611Y020788D01*
X019534Y020788D01*
X019453Y020788D01*
X019453Y020788D01*
X019144Y020676D01*
X018893Y020465D01*
X018729Y020181D01*
X018672Y019858D01*
X018672Y019858D01*
X018690Y019958D02*
X008858Y019958D01*
X008837Y019939D02*
X008837Y018398D01*
X008997Y018398D02*
X008997Y020156D01*
X008978Y020118D02*
X018718Y020118D01*
X018729Y020181D02*
X018729Y020181D01*
X018757Y020229D02*
X018757Y021148D01*
X018917Y021148D02*
X018917Y020485D01*
X018893Y020465D02*
X018893Y020465D01*
X018893Y020465D01*
X018878Y020438D02*
X009166Y020438D01*
X009157Y020429D02*
X009157Y018398D01*
X009317Y018398D02*
X009317Y021148D01*
X009229Y021078D02*
X020321Y021078D01*
X020357Y021067D02*
X020357Y020437D01*
X020355Y020438D02*
X020877Y020438D01*
X020837Y020563D02*
X020837Y016048D01*
X020907Y016118D02*
X016352Y016118D01*
X016357Y016111D02*
X016357Y021148D01*
X016517Y021148D02*
X016517Y015718D01*
X016396Y015798D02*
X016908Y015798D01*
X016837Y015760D02*
X016837Y021148D01*
X016997Y021148D02*
X016997Y015847D01*
X017157Y015886D02*
X017157Y021148D01*
X017317Y021148D02*
X017317Y015856D01*
X017411Y015798D02*
X020143Y015798D01*
X020143Y015638D02*
X017522Y015638D01*
X017477Y015733D02*
X017477Y021148D01*
X017637Y021148D02*
X017637Y015198D01*
X017797Y015198D02*
X017797Y021148D01*
X017957Y021148D02*
X017957Y015198D01*
X018117Y015198D02*
X018117Y021148D01*
X018277Y021148D02*
X018277Y015207D01*
X018255Y015198D02*
X018255Y015198D01*
X018437Y015273D02*
X018437Y021148D01*
X018597Y021148D02*
X018597Y015339D01*
X018546Y015318D02*
X017497Y015318D01*
X017477Y015284D02*
X017477Y015198D01*
X017545Y015478D02*
X020151Y015478D01*
X020197Y015433D02*
X020197Y015220D01*
X020143Y015158D02*
X019064Y015158D01*
X019077Y015129D02*
X019077Y019098D01*
X019004Y019158D02*
X012556Y019158D01*
X012517Y019198D02*
X012517Y021148D01*
X012677Y021148D02*
X012677Y019038D01*
X012716Y018998D02*
X019260Y018998D01*
X019237Y019007D02*
X019237Y014768D01*
X019097Y014838D02*
X020132Y014838D01*
X020037Y014768D02*
X020037Y019022D01*
X020089Y019041D02*
X020089Y019041D01*
X019973Y018998D02*
X020907Y018998D01*
X020907Y018838D02*
X012876Y018838D01*
X012837Y018878D02*
X012837Y021148D01*
X012997Y021148D02*
X012997Y018718D01*
X013027Y018678D02*
X020907Y018678D01*
X020907Y018518D02*
X013056Y018518D01*
X013056Y018358D02*
X020907Y018358D01*
X020907Y018198D02*
X015654Y018198D01*
X015557Y018296D02*
X015557Y021148D01*
X015717Y021148D02*
X015717Y016638D01*
X015869Y016598D02*
X020907Y016598D01*
X020907Y016438D02*
X016032Y016438D01*
X016037Y016434D02*
X016037Y021148D01*
X016197Y021148D02*
X016197Y016274D01*
X016192Y016278D02*
X020907Y016278D01*
X020677Y016048D02*
X020677Y020833D01*
X020731Y020758D02*
X019863Y020758D01*
X019877Y020753D02*
X019877Y021148D01*
X020037Y021145D02*
X020037Y020695D01*
X020181Y020598D02*
X020825Y020598D01*
X020904Y020278D02*
X020448Y020278D01*
X020515Y020118D02*
X020907Y020118D01*
X020907Y019958D02*
X020543Y019958D01*
X020517Y020110D02*
X020517Y020973D01*
X020591Y020918D02*
X009229Y020918D01*
X009229Y020758D02*
X019370Y020758D01*
X019397Y020768D02*
X019397Y021148D01*
X019557Y021148D02*
X019557Y020788D01*
X019717Y020788D02*
X019717Y021148D01*
X019237Y021148D02*
X019237Y020710D01*
X019144Y020676D02*
X019144Y020676D01*
X019077Y020619D02*
X019077Y021148D01*
X019052Y020598D02*
X009229Y020598D01*
X008997Y020351D02*
X008997Y020318D01*
X009029Y020278D02*
X018785Y020278D01*
X018711Y019638D02*
X004522Y019638D01*
X004517Y019607D02*
X004517Y017498D01*
X004513Y017494D02*
X004513Y017494D01*
X004577Y017558D02*
X002326Y017558D01*
X002326Y017398D02*
X004417Y017398D01*
X004357Y017338D02*
X004357Y019280D01*
X004379Y019318D02*
X010637Y019318D01*
X010597Y019278D02*
X010597Y021148D01*
X010757Y021148D02*
X010757Y019438D01*
X010713Y019394D02*
X010713Y019394D01*
X010821Y019478D02*
X004471Y019478D01*
X004229Y019158D02*
X010477Y019158D01*
X010437Y019118D02*
X010437Y021148D01*
X010917Y021148D02*
X010917Y019498D01*
X011077Y019498D02*
X011077Y021148D01*
X011237Y021148D02*
X011237Y019498D01*
X011397Y019498D02*
X011397Y021148D01*
X011557Y021148D02*
X011557Y019498D01*
X011717Y019498D02*
X011717Y021148D01*
X011877Y021148D02*
X011877Y019498D01*
X012037Y019498D02*
X012037Y021148D01*
X012197Y021148D02*
X012197Y019485D01*
X012212Y019478D02*
X018762Y019478D01*
X018757Y019488D02*
X018757Y015356D01*
X018887Y015318D02*
X020907Y015318D01*
X020837Y015260D02*
X020837Y015393D01*
X020677Y015393D02*
X020677Y015260D01*
X020517Y015260D02*
X020517Y015393D01*
X020357Y015393D02*
X020357Y015260D01*
X020143Y014998D02*
X019114Y014998D01*
X019077Y014788D02*
X019077Y014768D01*
X019397Y014768D02*
X019397Y018949D01*
X019557Y018928D02*
X019557Y014768D01*
X019717Y014768D02*
X019717Y018928D01*
X019877Y018963D02*
X019877Y014768D01*
X019877Y014148D02*
X019877Y013118D01*
X019717Y013118D02*
X019717Y014148D01*
X019557Y014148D02*
X019557Y013118D01*
X019397Y013118D02*
X019397Y014148D01*
X019237Y014148D02*
X019237Y013118D01*
X019077Y013118D02*
X019077Y014148D01*
X018917Y014148D02*
X018917Y013118D01*
X018757Y013118D02*
X018757Y014148D01*
X018597Y014148D02*
X018597Y013118D01*
X018437Y013118D02*
X018437Y014148D01*
X018277Y014148D02*
X018277Y013118D01*
X018117Y013118D02*
X018117Y014148D01*
X017957Y014148D02*
X017957Y013118D01*
X017797Y013160D02*
X017797Y014091D01*
X017743Y014038D02*
X020143Y014038D01*
X020037Y014148D02*
X020037Y013275D01*
X020000Y013238D02*
X017658Y013238D01*
X017637Y013247D02*
X017637Y013931D01*
X017583Y013878D02*
X020177Y013878D01*
X020197Y013858D02*
X020197Y013645D01*
X020143Y013558D02*
X017466Y013558D01*
X017477Y013590D02*
X017477Y013286D01*
X017569Y013282D02*
X017569Y013282D01*
X017341Y013398D02*
X020102Y013398D01*
X020357Y013685D02*
X020357Y013818D01*
X020517Y013818D02*
X020517Y013685D01*
X020677Y013685D02*
X020677Y013818D01*
X020837Y013818D02*
X020837Y013685D01*
X020907Y013718D02*
X017514Y013718D01*
X017317Y013382D02*
X017317Y013256D01*
X017275Y013238D02*
X017095Y013238D01*
X017157Y013330D02*
X017157Y013133D01*
X017128Y013078D02*
X017072Y013078D01*
X016677Y012830D02*
X016677Y011183D01*
X016693Y011158D02*
X016769Y011158D01*
X016517Y011306D02*
X016517Y012882D01*
X016472Y012918D02*
X016378Y012918D01*
X016357Y013050D02*
X016357Y013089D01*
X016361Y013078D02*
X016329Y013078D01*
X016338Y013238D02*
X016169Y013238D01*
X016037Y013326D02*
X016037Y013616D01*
X015980Y013558D02*
X016476Y013558D01*
X016342Y013311D02*
X016342Y013311D01*
X016451Y014038D02*
X016507Y014038D01*
X016677Y015718D02*
X016677Y021148D01*
X015877Y021148D02*
X015877Y016594D01*
X015557Y016638D02*
X015557Y017421D01*
X015496Y017398D02*
X020907Y017398D01*
X020907Y017238D02*
X015496Y017238D01*
X015496Y017078D02*
X020907Y017078D01*
X020907Y016918D02*
X015496Y016918D01*
X015496Y016758D02*
X020907Y016758D01*
X020517Y016048D02*
X020517Y019607D01*
X020522Y019638D02*
X020907Y019638D01*
X020907Y019478D02*
X020471Y019478D01*
X020379Y019318D02*
X020907Y019318D01*
X020907Y019158D02*
X020229Y019158D01*
X020197Y019131D02*
X020197Y016007D01*
X020148Y015958D02*
X016396Y015958D01*
X014963Y015318D02*
X014870Y015318D01*
X014917Y015431D02*
X014917Y013904D01*
X014891Y013878D02*
X014646Y013878D01*
X014597Y013925D02*
X014597Y015109D01*
X014096Y017218D02*
X013374Y017218D01*
X013195Y017315D01*
X013181Y017329D01*
X013129Y017350D01*
X013128Y017351D01*
X013069Y017382D01*
X013069Y017382D01*
X013069Y017382D01*
X013059Y017379D01*
X013042Y017386D01*
X012891Y017386D01*
X012752Y017329D01*
X012646Y017223D01*
X012588Y017084D01*
X012588Y016933D01*
X012646Y016794D01*
X012725Y016715D01*
X012249Y016715D01*
X012172Y016638D01*
X011643Y016638D01*
X012354Y017348D01*
X012476Y017471D01*
X012476Y017817D01*
X012476Y017851D01*
X012573Y018030D01*
X012577Y018034D01*
X012577Y018006D01*
X012577Y017911D01*
X012613Y017822D01*
X012913Y017522D01*
X012981Y017455D01*
X013069Y017418D01*
X014194Y017418D01*
X014173Y017368D01*
X014096Y017218D01*
X014106Y017238D02*
X013337Y017238D01*
X013317Y017249D02*
X013317Y017418D01*
X013477Y017418D02*
X013477Y017218D01*
X013637Y017218D02*
X013637Y017418D01*
X013797Y017418D02*
X013797Y017218D01*
X013957Y017218D02*
X013957Y017418D01*
X014117Y017418D02*
X014117Y017258D01*
X014186Y017398D02*
X012404Y017398D01*
X012357Y017351D02*
X012357Y016715D01*
X012517Y016715D02*
X012517Y017925D01*
X012491Y017878D02*
X012590Y017878D01*
X012677Y017759D02*
X012677Y017253D01*
X012662Y017238D02*
X012243Y017238D01*
X012197Y017191D02*
X012197Y016663D01*
X012037Y016638D02*
X012037Y017031D01*
X012083Y017078D02*
X012588Y017078D01*
X012595Y016918D02*
X011923Y016918D01*
X011877Y016871D02*
X011877Y016638D01*
X011717Y016638D02*
X011717Y016711D01*
X011763Y016758D02*
X012682Y016758D01*
X012677Y016764D02*
X012677Y016715D01*
X012837Y017364D02*
X012837Y017599D01*
X012877Y017558D02*
X012476Y017558D01*
X012476Y017718D02*
X012717Y017718D01*
X012997Y017448D02*
X012997Y017386D01*
X013157Y017418D02*
X013157Y017339D01*
X013317Y017898D02*
X013317Y021148D01*
X013477Y021148D02*
X013477Y017898D01*
X013637Y017898D02*
X013637Y021148D01*
X013797Y021148D02*
X013797Y017898D01*
X013957Y017898D02*
X013957Y021148D01*
X014117Y021148D02*
X014117Y017898D01*
X014277Y017898D02*
X014277Y021148D01*
X014437Y021148D02*
X014437Y017898D01*
X014597Y017898D02*
X014597Y021148D01*
X014757Y021148D02*
X014757Y018023D01*
X014773Y018038D02*
X013076Y018038D01*
X013157Y017958D02*
X013157Y021148D01*
X012357Y021148D02*
X012357Y019358D01*
X012396Y019318D02*
X018854Y019318D01*
X018893Y019251D02*
X018893Y019251D01*
X018917Y019232D02*
X018917Y015306D01*
X018520Y015308D02*
X018520Y015308D01*
X020357Y016048D02*
X020357Y019280D01*
X020550Y019798D02*
X020907Y019798D01*
X020197Y020586D02*
X020197Y021119D01*
X018729Y019535D02*
X018729Y019535D01*
X020907Y018038D02*
X015654Y018038D01*
X015654Y017878D02*
X020907Y017878D01*
X020907Y017718D02*
X015654Y017718D01*
X015654Y017558D02*
X020907Y017558D01*
X015397Y018296D02*
X015397Y021148D01*
X015237Y021148D02*
X015237Y018296D01*
X015077Y018296D02*
X015077Y021148D01*
X014917Y021148D02*
X014917Y018296D01*
X014779Y018198D02*
X013056Y018198D01*
X012042Y017878D02*
X008306Y017878D01*
X008357Y017918D02*
X008357Y017356D01*
X008306Y017718D02*
X012057Y017718D01*
X011888Y018198D02*
X010196Y018198D01*
X010117Y018119D02*
X010117Y016268D01*
X010277Y016268D02*
X010277Y018279D01*
X010356Y018358D02*
X011899Y018358D01*
X009637Y018398D02*
X009637Y021148D01*
X009477Y021148D02*
X009477Y018398D01*
X008677Y018398D02*
X008677Y019850D01*
X008534Y019958D02*
X008454Y019958D01*
X008452Y019818D02*
X008368Y019832D01*
X008287Y019858D01*
X008211Y019897D01*
X008143Y019947D01*
X008083Y020007D01*
X008033Y020075D01*
X007994Y020151D01*
X007968Y020232D01*
X007954Y020316D01*
X007954Y020318D01*
X008454Y020318D01*
X008454Y019818D01*
X008452Y019818D01*
X008357Y019835D02*
X008357Y018398D01*
X008517Y018398D02*
X008517Y020318D01*
X008534Y020278D02*
X008454Y020278D01*
X008357Y020318D02*
X008357Y020351D01*
X008197Y020359D02*
X008197Y020318D01*
X008037Y020318D02*
X008037Y020398D01*
X007960Y020438D02*
X007676Y020438D01*
X007676Y020278D02*
X007960Y020278D01*
X008011Y020118D02*
X007676Y020118D01*
X007676Y019958D02*
X008131Y019958D01*
X008197Y019907D02*
X008197Y018398D01*
X008037Y018398D02*
X008037Y020070D01*
X007676Y019892D02*
X007583Y019798D01*
X007557Y019798D02*
X007557Y018398D01*
X007717Y018398D02*
X007717Y021148D01*
X007877Y021148D02*
X007877Y018398D01*
X007397Y018398D02*
X007397Y019798D01*
X007237Y019798D02*
X007237Y018398D01*
X007077Y018398D02*
X007077Y019798D01*
X006917Y019798D02*
X006917Y018398D01*
X006917Y017918D02*
X006917Y014286D01*
X007077Y014272D02*
X007077Y017918D01*
X006437Y017918D02*
X006437Y014536D01*
X006298Y014518D02*
X006195Y014518D01*
X006277Y014510D02*
X006277Y017918D01*
X006277Y018398D02*
X006277Y021148D01*
X006437Y021148D02*
X006437Y018398D01*
X006117Y018398D02*
X006117Y021148D01*
X005957Y021148D02*
X005957Y018398D01*
X005797Y018398D02*
X005797Y021148D01*
X005637Y021148D02*
X005637Y018398D01*
X004897Y017878D02*
X002326Y017878D01*
X002326Y017718D02*
X004737Y017718D01*
X004677Y017658D02*
X004677Y021148D01*
X004837Y021148D02*
X004837Y017818D01*
X004257Y017238D02*
X002326Y017238D01*
X003656Y015958D02*
X005377Y015958D01*
X005377Y015798D02*
X003496Y015798D01*
X003557Y015859D02*
X003557Y013299D01*
X003572Y013299D02*
X003492Y013299D01*
X003492Y013595D01*
X003297Y013595D01*
X003261Y013586D01*
X003229Y013567D01*
X003203Y013541D01*
X003185Y013509D01*
X003175Y013474D01*
X003175Y013298D01*
X003492Y013298D01*
X003492Y013218D01*
X003175Y013218D01*
X003175Y013043D01*
X003185Y013008D01*
X003203Y012976D01*
X003229Y012950D01*
X003231Y012948D01*
X002956Y012948D01*
X002956Y015259D01*
X004716Y017019D01*
X005377Y016359D01*
X005377Y015065D01*
X005068Y015065D01*
X005002Y014999D01*
X004984Y015017D01*
X004952Y015036D01*
X004917Y015045D01*
X004722Y015045D01*
X004722Y014749D01*
X004642Y014749D01*
X004642Y015045D01*
X004447Y015045D01*
X004411Y015036D01*
X004379Y015017D01*
X004353Y014991D01*
X004335Y014959D01*
X004325Y014924D01*
X004325Y014748D01*
X004642Y014748D01*
X004642Y014668D01*
X004722Y014668D01*
X004722Y014372D01*
X004917Y014372D01*
X004952Y014381D01*
X004984Y014400D01*
X005002Y014418D01*
X005068Y014352D01*
X005511Y014352D01*
X005532Y014330D01*
X006079Y014330D01*
X006038Y014234D01*
X006038Y014083D01*
X006046Y014066D01*
X006045Y014065D01*
X006031Y014079D01*
X005892Y014136D01*
X005741Y014136D01*
X005724Y014129D01*
X005714Y014132D01*
X005714Y014132D01*
X005714Y014132D01*
X005660Y014103D01*
X005654Y014100D01*
X005602Y014079D01*
X005588Y014065D01*
X005409Y013968D01*
X005375Y013968D01*
X004654Y013968D01*
X004653Y013969D01*
X004595Y014164D01*
X004595Y014184D01*
X004573Y014235D01*
X004554Y014300D01*
X004544Y014305D01*
X004537Y014323D01*
X004488Y014372D01*
X004642Y014372D01*
X004642Y014668D01*
X004325Y014668D01*
X004325Y014493D01*
X004332Y014470D01*
X004292Y014486D01*
X004141Y014486D01*
X004002Y014429D01*
X003896Y014323D01*
X003838Y014184D01*
X003838Y014033D01*
X003896Y013894D01*
X004002Y013788D01*
X004019Y013781D01*
X004020Y013779D01*
X004025Y013771D01*
X004090Y013752D01*
X004141Y013730D01*
X004161Y013730D01*
X004191Y013721D01*
X004356Y013672D01*
X004357Y013671D01*
X004357Y013615D01*
X004413Y013615D02*
X003918Y013615D01*
X003852Y013549D01*
X003834Y013567D01*
X003802Y013586D01*
X003767Y013595D01*
X003572Y013595D01*
X003572Y013299D01*
X003572Y013398D02*
X003492Y013398D01*
X003397Y013298D02*
X003397Y013218D01*
X003492Y013238D02*
X002956Y013238D01*
X002956Y013078D02*
X003175Y013078D01*
X003237Y013218D02*
X003237Y013298D01*
X003175Y013398D02*
X002956Y013398D01*
X002956Y013558D02*
X003221Y013558D01*
X003237Y013571D02*
X003237Y015539D01*
X003176Y015478D02*
X005377Y015478D01*
X005377Y015318D02*
X003016Y015318D01*
X003077Y015379D02*
X003077Y012948D01*
X002477Y012918D02*
X002326Y012918D01*
X002326Y012758D02*
X002477Y012758D01*
X002477Y012598D02*
X002326Y012598D01*
X002326Y012438D02*
X002477Y012438D01*
X002477Y012278D02*
X002326Y012278D01*
X002326Y012118D02*
X002477Y012118D01*
X002477Y011958D02*
X002326Y011958D01*
X002437Y011896D02*
X002437Y020668D01*
X002408Y020598D02*
X003052Y020598D01*
X003077Y020619D02*
X003077Y021132D01*
X003237Y021148D02*
X003237Y020710D01*
X003144Y020676D02*
X003144Y020676D01*
X003370Y020758D02*
X002502Y020758D01*
X002356Y020438D02*
X002878Y020438D01*
X002893Y020465D02*
X002893Y020465D01*
X002893Y020465D01*
X002917Y020485D02*
X002917Y021080D01*
X002911Y021078D02*
X008004Y021078D01*
X007676Y020825D02*
X007676Y019892D01*
X007676Y020598D02*
X008004Y020598D01*
X007557Y020918D02*
X007557Y021148D01*
X007397Y021148D02*
X007397Y020918D01*
X007237Y020918D02*
X007237Y021148D01*
X007077Y021148D02*
X007077Y020918D01*
X006917Y020918D02*
X006917Y021148D01*
X006757Y021148D02*
X006757Y020918D01*
X006597Y020865D02*
X006597Y021148D01*
X006557Y020758D02*
X003863Y020758D01*
X003877Y020753D02*
X003877Y021148D01*
X004037Y021148D02*
X004037Y020695D01*
X004181Y020598D02*
X006557Y020598D01*
X006557Y020438D02*
X004355Y020438D01*
X004357Y020437D02*
X004357Y021148D01*
X004517Y021148D02*
X004517Y020110D01*
X004515Y020118D02*
X006557Y020118D01*
X006557Y020278D02*
X004448Y020278D01*
X004197Y020586D02*
X004197Y021148D01*
X003717Y021148D02*
X003717Y020788D01*
X003557Y020788D02*
X003557Y021148D01*
X003397Y021148D02*
X003397Y020768D01*
X002757Y021002D02*
X002757Y020229D01*
X002729Y020181D02*
X002729Y020181D01*
X002718Y020118D02*
X002326Y020118D01*
X002326Y019958D02*
X002690Y019958D01*
X002672Y019858D02*
X002672Y019858D01*
X002683Y019798D02*
X002326Y019798D01*
X002326Y019638D02*
X002711Y019638D01*
X002729Y019535D02*
X002729Y019535D01*
X002785Y020278D02*
X002329Y020278D01*
X004089Y019041D02*
X004089Y019041D01*
X004197Y019131D02*
X004197Y017178D01*
X004517Y016819D02*
X004517Y015045D01*
X004642Y014998D02*
X004722Y014998D01*
X004837Y015045D02*
X004837Y016899D01*
X004817Y016918D02*
X004616Y016918D01*
X004677Y016979D02*
X004677Y014749D01*
X004642Y014678D02*
X002956Y014678D01*
X002956Y014518D02*
X004325Y014518D01*
X004197Y014486D02*
X004197Y016499D01*
X004136Y016438D02*
X005297Y016438D01*
X005317Y016419D02*
X005317Y015065D01*
X005377Y015158D02*
X002956Y015158D01*
X002956Y014998D02*
X004361Y014998D01*
X004357Y014994D02*
X004357Y016659D01*
X004296Y016598D02*
X005137Y016598D01*
X005157Y016579D02*
X005157Y015065D01*
X004997Y015005D02*
X004997Y016739D01*
X004977Y016758D02*
X004456Y016758D01*
X004037Y016339D02*
X004037Y014443D01*
X003932Y014358D02*
X002956Y014358D01*
X002956Y014198D02*
X003845Y014198D01*
X003877Y014276D02*
X003877Y016179D01*
X003816Y016118D02*
X005377Y016118D01*
X005377Y016278D02*
X003976Y016278D01*
X003717Y016019D02*
X003717Y013595D01*
X003843Y013558D02*
X003862Y013558D01*
X003877Y013573D02*
X003877Y013941D01*
X003912Y013878D02*
X002956Y013878D01*
X002956Y013718D02*
X004201Y013718D01*
X004197Y013720D02*
X004197Y013615D01*
X004191Y013721D02*
X004191Y013721D01*
X004037Y013768D02*
X004037Y013615D01*
X004025Y013771D02*
X004025Y013771D01*
X004025Y013771D01*
X003838Y014038D02*
X002956Y014038D01*
X002477Y014038D02*
X002326Y014038D01*
X002326Y013878D02*
X002477Y013878D01*
X002477Y013718D02*
X002326Y013718D01*
X002326Y013558D02*
X002477Y013558D01*
X002477Y013398D02*
X002326Y013398D01*
X002326Y013238D02*
X002477Y013238D01*
X002477Y013078D02*
X002326Y013078D01*
X002326Y014198D02*
X002477Y014198D01*
X002477Y014358D02*
X002326Y014358D01*
X002326Y014518D02*
X002477Y014518D01*
X002477Y014678D02*
X002326Y014678D01*
X002326Y014838D02*
X002477Y014838D01*
X002477Y014998D02*
X002326Y014998D01*
X002326Y015158D02*
X002477Y015158D01*
X002477Y015318D02*
X002326Y015318D01*
X002326Y015478D02*
X002506Y015478D01*
X002956Y014838D02*
X004325Y014838D01*
X004357Y014748D02*
X004357Y014668D01*
X004517Y014668D02*
X004517Y014748D01*
X004642Y014838D02*
X004722Y014838D01*
X004677Y014668D02*
X004677Y013968D01*
X004632Y014038D02*
X005539Y014038D01*
X005477Y014005D02*
X005477Y014352D01*
X005317Y014352D02*
X005317Y013968D01*
X005157Y013968D02*
X005157Y014352D01*
X005061Y014358D02*
X004501Y014358D01*
X004517Y014343D02*
X004517Y014372D01*
X004589Y014198D02*
X006038Y014198D01*
X005957Y014110D02*
X005957Y014330D01*
X005797Y014330D02*
X005797Y014136D01*
X005637Y014093D02*
X005637Y014330D01*
X004997Y014412D02*
X004997Y013968D01*
X004837Y013968D02*
X004837Y014372D01*
X004722Y014518D02*
X004642Y014518D01*
X004357Y013671D02*
X004413Y013615D01*
X003572Y013558D02*
X003492Y013558D01*
X003397Y013595D02*
X003397Y015699D01*
X003336Y015638D02*
X005377Y015638D01*
X007322Y014038D02*
X007610Y014038D01*
X007610Y013878D02*
X007345Y013878D01*
X007297Y013718D02*
X007610Y013718D01*
X007211Y013238D02*
X007176Y013238D01*
X008517Y013326D02*
X008517Y013330D01*
X008517Y015261D02*
X008517Y017918D01*
X008454Y020118D02*
X008534Y020118D01*
X008677Y020318D02*
X008677Y020351D01*
X008837Y020351D02*
X008837Y020318D01*
X008656Y020874D02*
X008621Y020885D01*
X008577Y020892D01*
X008577Y021148D01*
X008656Y021148D01*
X008656Y020874D01*
X008656Y020918D02*
X008577Y020918D01*
X008577Y021078D02*
X008656Y021078D01*
X008369Y015296D02*
X008369Y015296D01*
X011877Y010171D02*
X011877Y009318D01*
X012037Y009318D02*
X012037Y010171D01*
X012197Y010171D02*
X012197Y009318D01*
X011326Y009558D02*
X016275Y009558D01*
X016357Y009618D02*
X016357Y009698D01*
X016275Y009718D02*
X011326Y009718D01*
X010597Y008631D02*
X010597Y006489D01*
X010568Y006518D02*
X011265Y006518D01*
X010757Y006407D02*
X010757Y008471D01*
X010790Y008438D02*
X010526Y008438D01*
X010545Y008598D02*
X010630Y008598D01*
X010541Y008661D02*
X010541Y008661D01*
X008357Y008540D02*
X008357Y007968D01*
X008197Y007968D02*
X008197Y008518D01*
X006769Y007384D02*
X006769Y007384D01*
X002755Y009718D02*
X002678Y009718D01*
X002678Y009923D02*
X002678Y010254D01*
X002678Y010632D01*
X002755Y010632D01*
X002755Y010300D01*
X002755Y009923D01*
X002678Y009923D01*
X002678Y010038D02*
X002755Y010038D01*
X002755Y010198D02*
X002678Y010198D01*
X002678Y010358D02*
X002755Y010358D01*
X002755Y010518D02*
X002678Y010518D01*
X013957Y011966D02*
X013957Y012114D01*
X013961Y012118D02*
X014077Y012118D01*
X014117Y012079D02*
X014117Y011885D01*
X014172Y011851D02*
X014172Y011851D01*
X014172Y011851D01*
X014211Y011798D02*
X016836Y011798D01*
X016788Y011638D02*
X014293Y011638D01*
X014277Y011677D02*
X014277Y011919D01*
X014237Y011958D02*
X013970Y011958D01*
X014757Y012245D02*
X014757Y009351D01*
X014757Y008665D02*
X014757Y008518D01*
X014836Y008438D02*
X014997Y008438D01*
X015077Y008518D02*
X015077Y008665D01*
X014917Y008630D02*
X014917Y008286D01*
X014917Y007931D02*
X014917Y005668D01*
X014757Y005668D02*
X014757Y007699D01*
X014856Y007798D02*
X014977Y007798D01*
X014437Y007578D02*
X014437Y005668D01*
X014277Y005668D02*
X014277Y007593D01*
X015643Y009078D02*
X017672Y009078D01*
X017477Y009302D02*
X017477Y005668D01*
X017317Y005668D02*
X017317Y009302D01*
X017157Y009302D02*
X017157Y005668D01*
X016997Y005668D02*
X016997Y009323D01*
X016837Y009322D02*
X016837Y005668D01*
X017630Y005718D02*
X014218Y005718D01*
X014699Y003638D02*
X014779Y003638D01*
X014779Y003478D02*
X014699Y003478D01*
X014779Y003398D02*
X015279Y003398D01*
X015279Y003401D01*
X015265Y003485D01*
X015239Y003566D01*
X015202Y003638D02*
X015557Y003638D01*
X015557Y003478D02*
X015266Y003478D01*
X015237Y003398D02*
X015237Y003318D01*
X015121Y003318D02*
X015093Y003337D01*
X015046Y003356D01*
X014996Y003366D01*
X014779Y003366D01*
X014779Y003398D01*
X014917Y003398D02*
X014917Y003366D01*
X015077Y003344D02*
X015077Y003398D01*
X019397Y002949D02*
X019397Y002568D01*
X019557Y002568D02*
X019557Y002928D01*
X019453Y002928D02*
X019453Y002928D01*
X019717Y002928D02*
X019717Y002568D01*
X019877Y002568D02*
X019877Y002963D01*
X019973Y002998D02*
X020760Y002998D01*
X020677Y002884D02*
X020677Y009881D01*
X020837Y009881D02*
X020837Y003153D01*
X020838Y003158D02*
X020229Y003158D01*
X020197Y003131D02*
X020197Y002598D01*
X020037Y002571D02*
X020037Y003022D01*
X020089Y003041D02*
X020089Y003041D01*
X020522Y003638D02*
X020907Y003638D01*
X020907Y003798D02*
X020550Y003798D01*
X020543Y003958D02*
X020907Y003958D01*
X020907Y004118D02*
X020515Y004118D01*
X020517Y004110D02*
X020517Y009881D01*
X020357Y009881D02*
X020357Y004437D01*
X020355Y004438D02*
X020907Y004438D01*
X020907Y004278D02*
X020448Y004278D01*
X020197Y004586D02*
X020197Y007917D01*
X020214Y007958D02*
X020907Y007958D01*
X020907Y007798D02*
X020091Y007798D01*
X020037Y007770D02*
X020037Y004695D01*
X019877Y004753D02*
X019877Y007730D01*
X019610Y007817D02*
X019610Y007817D01*
X019397Y008318D02*
X019397Y008833D01*
X019328Y008758D02*
X020907Y008758D01*
X020907Y008598D02*
X018518Y008598D01*
X018597Y008677D02*
X018597Y008318D01*
X018490Y008278D02*
X018198Y008278D01*
X018277Y008357D02*
X018277Y008065D01*
X018330Y008118D02*
X018186Y008118D01*
X018358Y008438D02*
X019675Y008438D01*
X019717Y008457D02*
X019717Y009180D01*
X019623Y009078D02*
X020907Y009078D01*
X020907Y008918D02*
X019475Y008918D01*
X019557Y009007D02*
X019557Y008371D01*
X019877Y008486D02*
X019877Y009185D01*
X020033Y009175D02*
X020033Y009175D01*
X020033Y009175D01*
X020037Y009178D02*
X020037Y008447D01*
X020058Y008438D02*
X020907Y008438D01*
X020907Y008278D02*
X020205Y008278D01*
X020197Y008300D02*
X020197Y009254D01*
X020181Y009238D02*
X020907Y009238D01*
X020907Y009398D02*
X020309Y009398D01*
X020345Y009558D02*
X020907Y009558D01*
X020907Y009718D02*
X020309Y009718D01*
X020197Y009863D02*
X020197Y009921D01*
X020181Y009878D02*
X020907Y009878D01*
X020143Y010038D02*
X018373Y010038D01*
X018373Y009878D02*
X019752Y009878D01*
X019717Y009848D02*
X019717Y010398D01*
X019870Y010358D02*
X018341Y010358D01*
X018437Y010398D02*
X018437Y009693D01*
X018492Y009718D02*
X018331Y009718D01*
X018530Y009737D02*
X018530Y009737D01*
X018530Y009737D01*
X018597Y009736D02*
X018597Y010398D01*
X018757Y010398D02*
X018757Y009710D01*
X018735Y009718D02*
X019605Y009718D01*
X019557Y009662D02*
X019557Y010398D01*
X019397Y010398D02*
X019397Y009482D01*
X019463Y009558D02*
X018943Y009558D01*
X018917Y009593D02*
X018917Y010398D01*
X019077Y010398D02*
X019077Y009135D01*
X019172Y009238D02*
X018976Y009238D01*
X018995Y009398D02*
X019319Y009398D01*
X019237Y009309D02*
X019237Y010398D01*
X019877Y010351D02*
X019877Y009930D01*
X020037Y009936D02*
X020037Y010174D01*
X020018Y010198D02*
X018373Y010198D01*
X018757Y008688D02*
X018757Y008318D01*
X018917Y008318D02*
X018917Y008688D01*
X019077Y008688D02*
X019077Y008318D01*
X019237Y008318D02*
X019237Y008688D01*
X018437Y008517D02*
X018437Y008225D01*
X017747Y008278D02*
X016443Y008278D01*
X016592Y009558D02*
X016672Y009558D01*
X016672Y009718D02*
X016592Y009718D01*
X016517Y009698D02*
X016517Y009618D01*
X016175Y010621D02*
X016175Y010621D01*
X016175Y010621D01*
X020245Y008118D02*
X020907Y008118D01*
X020907Y004758D02*
X019863Y004758D01*
X020181Y004598D02*
X020907Y004598D01*
D35*
X009217Y004408D03*
X013817Y019158D03*
D36*
X012417Y015608D02*
X012219Y015681D01*
X012063Y015255D01*
X012489Y015411D01*
X012417Y015608D01*
X008729Y020409D02*
X008494Y020358D01*
X008300Y020499D01*
X008617Y020936D01*
X008729Y020409D01*
X014739Y003358D02*
X014519Y003261D01*
X014739Y002768D01*
X014958Y003261D01*
X014739Y003358D01*
D37*
X018717Y014958D03*
M02*
