%
M48
M72
T01C0.0236
T02C0.0240
T03C0.0276
T04C0.0315
T05C0.0354
T06C0.0400
T07C0.0472
T08C0.1300
%
T01
X2567Y4708
X3517Y6008
X4717Y6258
X3517Y7358
X4217Y8158
X4717Y7758
X5217Y8908
X4217Y9208
X4167Y10358
X5217Y10508
X5217Y11058
X5817Y10258
X6517Y10258
X7117Y10108
X7517Y11908
X8317Y11958
X8217Y13058
X8517Y13708
X8517Y14308
X8367Y14908
X6967Y13908
X6417Y14158
X6567Y14858
X5817Y14708
X5817Y13758
X4917Y15408
X4217Y14108
X3117Y13208
X5567Y12258
X7567Y13108
X10117Y11908
X12067Y13058
X11217Y14358
X10217Y15558
X10517Y16808
X9467Y16808
X10817Y18258
X12267Y18258
X12367Y17008
X12967Y17008
X14517Y17208
X16367Y16808
X17117Y16708
X17167Y15508
X18517Y15958
X19667Y16508
X19667Y17708
X18517Y17458
X18067Y18758
X17117Y19708
X18717Y20858
X20617Y18958
X19717Y14958
X19717Y13908
X17467Y12908
X17217Y12158
X17167Y11608
X17117Y11008
X16367Y10958
X16017Y9908
X14917Y9008
X13467Y9558
X13017Y10258
X12567Y9558
X11617Y9558
X10167Y8558
X10317Y7508
X10867Y6958
X12167Y5858
X13067Y5858
X13867Y5858
X14717Y4158
X17317Y4608
X18517Y5458
X19717Y6008
X19717Y7208
X19867Y8108
X18717Y8508
X18617Y9358
X19417Y9858
X19967Y9558
X18517Y6958
X17317Y7958
X17267Y8758
X16267Y7858
X16117Y6958
X18767Y2808
X20617Y4758
X13917Y11558
X13317Y13208
X14167Y13808
X16717Y13208
X17117Y13708
X10817Y19758
X9467Y20008
X8117Y19608
X4717Y18258
X3517Y17708
X4717Y16758
X2617Y18958
X4517Y20858
X6667Y7758
X8167Y6608
X9467Y6608
X11067Y4758
X5267Y4858
X4517Y2858
T02
X6217Y8958
X8217Y8958
T03
X8067Y16958
X18717Y14958
T04
X13817Y19158
X9667Y10608
X9217Y4408
X3504Y8309
X3504Y9096
X3504Y9884
X3504Y10671
X3504Y11458
X2717Y11458
X2717Y10671
X2717Y9884
X2717Y9096
X2717Y8309
T05
X10967Y5908
X12017Y10608
X15217Y17858
T06
X15417Y15608
X14417Y15608
X13417Y15608
X12417Y15608
X11417Y15608
X11417Y8108
X12417Y8108
X13417Y8108
X14417Y8108
X15417Y8108
T07
X14739Y3358
X16117Y3358
X8494Y20358
X7117Y20358
T08
X3617Y3858
X3617Y19858
X19617Y19858
X19617Y3858
M30
