G75*
G70*
%OFA0B0*%
%FSLAX24Y24*%
%IPPOS*%
%LPD*%
%AMOC8*
5,1,8,0,0,1.08239X$1,22.5*
%
%ADD10R,0.0552X0.0198*%
%ADD11R,0.0198X0.0552*%
%ADD12R,0.0552X0.1064*%
%ADD13R,0.0434X0.0395*%
%ADD14R,0.0474X0.0513*%
%ADD15R,0.0867X0.0671*%
%ADD16R,0.0513X0.0474*%
%ADD17C,0.1380*%
%ADD18R,0.0880X0.0880*%
%ADD19C,0.0880*%
%ADD20R,0.0635X0.0635*%
%ADD21C,0.0635*%
%ADD22R,0.1261X0.0474*%
%ADD23C,0.0256*%
%ADD24C,0.0640*%
%ADD25R,0.0395X0.0395*%
%ADD26R,0.1064X0.0552*%
%ADD27R,0.0631X0.0710*%
%ADD28C,0.0820*%
%ADD29R,0.0297X0.0552*%
%ADD30R,0.0474X0.0237*%
%ADD31R,0.0907X0.0415*%
%ADD32R,0.0634X0.0634*%
%ADD33R,0.0556X0.0556*%
%ADD34R,0.0595X0.0595*%
%ADD35C,0.0595*%
%ADD36C,0.0556*%
D10*
X004872Y011882D03*
X004872Y012079D03*
X004872Y012276D03*
X004872Y012473D03*
X004872Y012669D03*
X004872Y012866D03*
X004872Y013063D03*
X004872Y013260D03*
X004872Y013457D03*
X004872Y013654D03*
X004872Y013851D03*
X004872Y014047D03*
X004872Y014244D03*
X004872Y014441D03*
X004872Y014638D03*
X004872Y014835D03*
X009361Y014835D03*
X009361Y014638D03*
X009361Y014441D03*
X009361Y014244D03*
X009361Y014047D03*
X009361Y013851D03*
X009361Y013654D03*
X009361Y013457D03*
X009361Y013260D03*
X009361Y013063D03*
X009361Y012866D03*
X009361Y012669D03*
X009361Y012473D03*
X009361Y012276D03*
X009361Y012079D03*
X009361Y011882D03*
D11*
X008593Y011114D03*
X008396Y011114D03*
X008199Y011114D03*
X008002Y011114D03*
X007806Y011114D03*
X007609Y011114D03*
X007412Y011114D03*
X007215Y011114D03*
X007018Y011114D03*
X006821Y011114D03*
X006624Y011114D03*
X006428Y011114D03*
X006231Y011114D03*
X006034Y011114D03*
X005837Y011114D03*
X005640Y011114D03*
X005640Y015603D03*
X005837Y015603D03*
X006034Y015603D03*
X006231Y015603D03*
X006428Y015603D03*
X006624Y015603D03*
X006821Y015603D03*
X007018Y015603D03*
X007215Y015603D03*
X007412Y015603D03*
X007609Y015603D03*
X007806Y015603D03*
X008002Y015603D03*
X008199Y015603D03*
X008396Y015603D03*
X008593Y015603D03*
D12*
X010167Y019258D03*
X011466Y019258D03*
X011767Y004458D03*
X013066Y004458D03*
D13*
X018223Y005484D03*
X018223Y006232D03*
X018223Y006984D03*
X018223Y007732D03*
X019050Y007358D03*
X019050Y005858D03*
X018223Y015984D03*
X018223Y016732D03*
X018223Y017484D03*
X018223Y018232D03*
X019050Y017858D03*
X019050Y016358D03*
X005010Y015984D03*
X005010Y016732D03*
X005010Y017484D03*
X005010Y018232D03*
X004183Y017858D03*
X004183Y016358D03*
X005010Y007732D03*
X005010Y006984D03*
X005010Y006232D03*
X005010Y005484D03*
X004183Y005858D03*
X004183Y007358D03*
D14*
X002717Y006693D03*
X002717Y006024D03*
X007217Y005974D03*
X007217Y006643D03*
X010617Y004743D03*
X010617Y004074D03*
X016667Y009074D03*
X016667Y009743D03*
X017567Y009743D03*
X017567Y009074D03*
X020517Y006693D03*
X020517Y006024D03*
X019117Y013274D03*
X019117Y013943D03*
X020517Y017024D03*
X020517Y017693D03*
X015867Y017774D03*
X015867Y018443D03*
X015867Y019024D03*
X015867Y019693D03*
X014117Y018443D03*
X014117Y017774D03*
X012967Y018924D03*
X012967Y019593D03*
X012267Y019593D03*
X012267Y018924D03*
X004067Y015293D03*
X004067Y014624D03*
X003817Y012943D03*
X003817Y012274D03*
X002717Y017024D03*
X002717Y017693D03*
D15*
X002517Y017858D03*
X002517Y016858D03*
X002517Y006858D03*
X002517Y005858D03*
X020717Y005858D03*
X020717Y006858D03*
X020717Y008358D03*
X020717Y009358D03*
X020717Y016858D03*
X020717Y017858D03*
D16*
X017451Y018158D03*
X016782Y018158D03*
X016782Y017258D03*
X017451Y017258D03*
X017451Y016108D03*
X016782Y016108D03*
X015351Y013808D03*
X014682Y013808D03*
X018282Y010358D03*
X018951Y010358D03*
X017451Y007258D03*
X016782Y007258D03*
X016782Y006358D03*
X017451Y006358D03*
X017451Y005458D03*
X016782Y005458D03*
X009201Y005358D03*
X008532Y005358D03*
X008582Y007458D03*
X009251Y007458D03*
X007901Y007458D03*
X007232Y007458D03*
X006451Y007158D03*
X005782Y007158D03*
X005782Y006258D03*
X006451Y006258D03*
X006451Y005358D03*
X005782Y005358D03*
X006032Y004258D03*
X006701Y004258D03*
X007782Y010308D03*
X008451Y010308D03*
X008651Y016358D03*
X007982Y016358D03*
X006451Y016858D03*
X005782Y016858D03*
X005782Y017658D03*
X006451Y017658D03*
X006451Y018458D03*
X005782Y018458D03*
X016782Y019058D03*
X017451Y019058D03*
D17*
X003617Y003858D03*
X003617Y019858D03*
X019617Y019858D03*
X019617Y003858D03*
D18*
X016117Y003358D03*
X007117Y020358D03*
D19*
X008494Y020358D03*
X014739Y003358D03*
D20*
X002717Y011458D03*
D21*
X002717Y010671D03*
X003504Y010671D03*
X003504Y011458D03*
X003504Y009884D03*
X003504Y009096D03*
X003504Y008309D03*
X002717Y008309D03*
X002717Y009096D03*
X002717Y009884D03*
D22*
X002648Y012558D03*
X002648Y013558D03*
X002648Y014558D03*
X002648Y015558D03*
D23*
X007401Y020579D02*
X007401Y021937D01*
X007401Y020579D02*
X006633Y020579D01*
X006633Y021937D01*
X007401Y021937D01*
X007401Y020834D02*
X006633Y020834D01*
X006633Y021089D02*
X007401Y021089D01*
X007401Y021344D02*
X006633Y021344D01*
X006633Y021599D02*
X007401Y021599D01*
X007401Y021854D02*
X006633Y021854D01*
X015833Y003137D02*
X015833Y001779D01*
X015833Y003137D02*
X016601Y003137D01*
X016601Y001779D01*
X015833Y001779D01*
X015833Y002034D02*
X016601Y002034D01*
X016601Y002289D02*
X015833Y002289D01*
X015833Y002544D02*
X016601Y002544D01*
X016601Y002799D02*
X015833Y002799D01*
X015833Y003054D02*
X016601Y003054D01*
D24*
X008217Y008958D03*
X006217Y008958D03*
D25*
X009817Y004704D03*
X009817Y004113D03*
X013067Y006363D03*
X013067Y006954D03*
X013867Y006954D03*
X013867Y006363D03*
X018321Y010908D03*
X018912Y010908D03*
D26*
X015367Y006158D03*
X015367Y004859D03*
D27*
X007068Y019258D03*
X005965Y019258D03*
D28*
X011417Y015608D03*
X012417Y015608D03*
X013417Y015608D03*
X014417Y015608D03*
X015417Y015608D03*
X015417Y008108D03*
X014417Y008108D03*
X013417Y008108D03*
X012417Y008108D03*
X011417Y008108D03*
D29*
X007991Y005320D03*
X007243Y005320D03*
X007243Y004297D03*
X007617Y004297D03*
X007991Y004297D03*
X014493Y018647D03*
X015241Y018647D03*
X015241Y019670D03*
X014867Y019670D03*
X014493Y019670D03*
D30*
X015973Y013788D03*
X015973Y013528D03*
X015970Y013268D03*
X015973Y013008D03*
X015973Y012748D03*
X015973Y012488D03*
X015973Y012228D03*
X015973Y011968D03*
X015973Y011708D03*
X015973Y011448D03*
X018273Y011448D03*
X018273Y011708D03*
X018273Y011968D03*
X018273Y012228D03*
X018273Y012488D03*
X018273Y012748D03*
X018273Y013008D03*
X018275Y013268D03*
X018273Y013528D03*
X018273Y013788D03*
D31*
X020717Y014145D03*
X020717Y013358D03*
X020717Y012571D03*
X020717Y011783D03*
X020717Y010996D03*
X020717Y010208D03*
X020717Y014933D03*
X020717Y015720D03*
D32*
X015217Y017858D03*
X012017Y010608D03*
X010967Y005908D03*
D33*
X008067Y016958D03*
D34*
X009667Y010608D03*
D35*
X009217Y004408D03*
X013817Y019158D03*
D36*
X018717Y014958D03*
M02*
