G75*
G70*
%OFA0B0*%
%FSLAX24Y24*%
%IPPOS*%
%LPD*%
%AMOC8*
5,1,8,0,0,1.08239X$1,22.5*
%
%ADD10C,0.0050*%
%ADD11C,0.0030*%
%ADD12C,0.0060*%
%ADD13C,0.0100*%
%ADD14C,0.0080*%
%ADD15R,0.0472X0.0079*%
%ADD16R,0.0079X0.0472*%
%ADD17C,0.0220*%
%ADD18R,0.0180X0.0300*%
%ADD19C,0.0020*%
%ADD20R,0.0300X0.0180*%
%ADD21C,0.0070*%
%ADD22C,0.0020*%
D10*
X012642Y012033D02*
X012845Y012033D01*
X012743Y012033D02*
X012743Y012644D01*
X012642Y012644D02*
X012845Y012644D01*
X013047Y012644D02*
X013250Y012440D01*
X013454Y012644D01*
X013454Y012033D01*
X013654Y012135D02*
X013756Y012033D01*
X013960Y012033D01*
X014061Y012135D01*
X014061Y012644D01*
X013654Y012644D02*
X013654Y012135D01*
X013047Y012033D02*
X013047Y012644D01*
X016227Y014024D02*
X016227Y011213D01*
X018019Y011213D01*
X018019Y014024D01*
X016227Y014024D01*
X014652Y020280D02*
X014652Y020890D01*
X014957Y020890D01*
X015059Y020789D01*
X015059Y020585D01*
X014957Y020483D01*
X014652Y020483D01*
X014451Y020585D02*
X014451Y020789D01*
X014349Y020890D01*
X014146Y020890D01*
X014044Y020789D01*
X014044Y020585D01*
X014146Y020483D01*
X014349Y020483D01*
X014451Y020585D01*
X013844Y020585D02*
X013742Y020483D01*
X013538Y020483D01*
X013437Y020585D01*
X013437Y020992D01*
X013538Y021094D01*
X013742Y021094D01*
X013844Y020992D01*
X013236Y020789D02*
X013236Y020585D01*
X013134Y020483D01*
X012931Y020483D01*
X012829Y020585D01*
X012829Y020789D01*
X012931Y020890D01*
X013134Y020890D01*
X013236Y020789D01*
X012628Y020890D02*
X012526Y020890D01*
X012322Y020687D01*
X012322Y020890D02*
X012322Y020483D01*
X012122Y020483D02*
X011816Y020483D01*
X011715Y020585D01*
X011715Y020789D01*
X011816Y020890D01*
X012122Y020890D01*
X012122Y021094D02*
X012122Y020483D01*
X011514Y020483D02*
X011209Y020483D01*
X011107Y020585D01*
X011209Y020687D01*
X011514Y020687D01*
X011514Y020789D02*
X011514Y020483D01*
X011514Y020789D02*
X011412Y020890D01*
X011209Y020890D01*
X010906Y020890D02*
X010906Y020483D01*
X010601Y020483D01*
X010499Y020585D01*
X010499Y020890D01*
X010299Y020992D02*
X010299Y020585D01*
X010197Y020483D01*
X009993Y020483D01*
X009892Y020585D01*
X009892Y020992D01*
X009993Y021094D01*
X010197Y021094D01*
X010299Y020992D01*
X010095Y020687D02*
X010299Y020483D01*
X015260Y020890D02*
X015463Y020890D01*
X015361Y020992D02*
X015361Y020585D01*
X015463Y020483D01*
X015665Y020585D02*
X015665Y020789D01*
X015767Y020890D01*
X015970Y020890D01*
X016072Y020789D01*
X016072Y020687D01*
X015665Y020687D01*
X015665Y020585D02*
X015767Y020483D01*
X015970Y020483D01*
X016273Y020483D02*
X016273Y020890D01*
X016273Y020687D02*
X016476Y020890D01*
X016578Y020890D01*
X016779Y020992D02*
X016881Y021094D01*
X017084Y021094D01*
X017186Y020992D01*
X016779Y020585D01*
X016881Y020483D01*
X017084Y020483D01*
X017186Y020585D01*
X017186Y020992D01*
X017387Y020992D02*
X017488Y021094D01*
X017692Y021094D01*
X017794Y020992D01*
X017794Y020890D01*
X017387Y020483D01*
X017794Y020483D01*
X016779Y020585D02*
X016779Y020992D01*
D11*
X002532Y005494D02*
X002532Y005123D01*
X002778Y005123D02*
X002778Y005494D01*
X002655Y005370D01*
X002532Y005494D01*
X002900Y005370D02*
X003023Y005494D01*
X003023Y005123D01*
X002900Y005123D02*
X003147Y005123D01*
X003268Y005309D02*
X003515Y005309D01*
X003392Y005432D02*
X003392Y005185D01*
X008982Y005197D02*
X009167Y005197D01*
X009228Y005259D01*
X009228Y005382D01*
X009167Y005444D01*
X008982Y005444D01*
X008982Y005073D01*
X009350Y005135D02*
X009412Y005073D01*
X009535Y005073D01*
X009597Y005135D01*
X009597Y005382D01*
X009535Y005444D01*
X009412Y005444D01*
X009350Y005382D01*
X009350Y005135D01*
X009718Y005073D02*
X009718Y005444D01*
X009965Y005444D02*
X009965Y005073D01*
X009842Y005197D01*
X009718Y005073D01*
X010086Y005073D02*
X010333Y005073D01*
X010455Y005073D02*
X010455Y005444D01*
X010640Y005444D01*
X010702Y005382D01*
X010702Y005259D01*
X010640Y005197D01*
X010455Y005197D01*
X010578Y005197D02*
X010702Y005073D01*
X010333Y005444D02*
X010086Y005444D01*
X010086Y005073D01*
X010086Y005259D02*
X010210Y005259D01*
X011458Y006773D02*
X011705Y006773D01*
X011827Y006773D02*
X012073Y006773D01*
X012195Y006773D02*
X012380Y006773D01*
X012442Y006835D01*
X012442Y007082D01*
X012380Y007144D01*
X012195Y007144D01*
X012195Y006773D01*
X011950Y006959D02*
X011827Y006959D01*
X011827Y007144D02*
X011827Y006773D01*
X011458Y006773D02*
X011458Y007144D01*
X011827Y007144D02*
X012073Y007144D01*
X012563Y007020D02*
X012687Y007144D01*
X012687Y006773D01*
X012810Y006773D02*
X012563Y006773D01*
X014158Y006773D02*
X014405Y006773D01*
X014527Y006773D02*
X014773Y006773D01*
X014895Y006773D02*
X015080Y006773D01*
X015142Y006835D01*
X015142Y007082D01*
X015080Y007144D01*
X014895Y007144D01*
X014895Y006773D01*
X014650Y006959D02*
X014527Y006959D01*
X014527Y007144D02*
X014527Y006773D01*
X014158Y006773D02*
X014158Y007144D01*
X014527Y007144D02*
X014773Y007144D01*
X015263Y007082D02*
X015325Y007144D01*
X015448Y007144D01*
X015510Y007082D01*
X015510Y007020D01*
X015263Y006773D01*
X015510Y006773D01*
X015503Y008723D02*
X015310Y008723D01*
X015261Y008772D01*
X015261Y008869D01*
X015310Y008917D01*
X015406Y008917D02*
X015406Y008820D01*
X015406Y008917D02*
X015503Y008917D01*
X015552Y008869D01*
X015552Y008772D01*
X015503Y008723D01*
X015552Y009018D02*
X015261Y009212D01*
X015261Y009018D02*
X015552Y009212D01*
X014602Y009212D02*
X014311Y009018D01*
X014311Y008917D02*
X014505Y008917D01*
X014602Y008820D01*
X014505Y008723D01*
X014311Y008723D01*
X014602Y009018D02*
X014311Y009212D01*
X014311Y009313D02*
X014360Y009313D01*
X014456Y009409D01*
X014602Y009409D01*
X014456Y009409D02*
X014360Y009506D01*
X014311Y009506D01*
X013552Y009115D02*
X013406Y009115D01*
X013310Y009212D01*
X013261Y009212D01*
X013406Y009115D02*
X013310Y009018D01*
X013261Y009018D01*
X013310Y008917D02*
X013261Y008869D01*
X013261Y008772D01*
X013310Y008723D01*
X013503Y008723D01*
X013552Y008772D01*
X013552Y008869D01*
X013503Y008917D01*
X013406Y008917D01*
X013406Y008820D01*
X012552Y008772D02*
X012552Y008869D01*
X012503Y008917D01*
X012406Y008917D01*
X012406Y008820D01*
X012310Y008723D02*
X012503Y008723D01*
X012552Y008772D01*
X012310Y008723D02*
X012261Y008772D01*
X012261Y008869D01*
X012310Y008917D01*
X012261Y009018D02*
X012261Y009212D01*
X012310Y009212D01*
X012503Y009018D01*
X012552Y009018D01*
X012552Y009212D01*
X011552Y009212D02*
X011552Y009018D01*
X011503Y009018D01*
X011310Y009212D01*
X011261Y009212D01*
X011261Y009018D01*
X011261Y008917D02*
X011455Y008917D01*
X011552Y008820D01*
X011455Y008723D01*
X011261Y008723D01*
X011461Y013923D02*
X011655Y013923D01*
X011752Y014020D01*
X011655Y014117D01*
X011461Y014117D01*
X011461Y014218D02*
X011461Y014363D01*
X011510Y014412D01*
X011703Y014412D01*
X011752Y014363D01*
X011752Y014218D01*
X011461Y014218D01*
X011461Y014513D02*
X011461Y014658D01*
X011510Y014706D01*
X011703Y014706D01*
X011752Y014658D01*
X011752Y014513D01*
X011461Y014513D01*
X011558Y014807D02*
X011461Y014904D01*
X011558Y015001D01*
X011752Y015001D01*
X011606Y015001D02*
X011606Y014807D01*
X011558Y014807D02*
X011752Y014807D01*
X012261Y014807D02*
X012261Y014952D01*
X012310Y015001D01*
X012503Y015001D01*
X012552Y014952D01*
X012552Y014807D01*
X012261Y014807D01*
X012261Y014706D02*
X012552Y014706D01*
X012261Y014513D01*
X012552Y014513D01*
X012503Y014412D02*
X012406Y014412D01*
X012406Y014315D01*
X012310Y014412D02*
X012261Y014363D01*
X012261Y014266D01*
X012310Y014218D01*
X012503Y014218D01*
X012552Y014266D01*
X012552Y014363D01*
X012503Y014412D01*
X012552Y014117D02*
X012358Y014117D01*
X012261Y014020D01*
X012358Y013923D01*
X012552Y013923D01*
X012406Y013923D02*
X012406Y014117D01*
X013261Y014620D02*
X013358Y014717D01*
X013552Y014717D01*
X013552Y014818D02*
X013261Y015012D01*
X013261Y014818D02*
X013552Y015012D01*
X013406Y014717D02*
X013406Y014523D01*
X013358Y014523D02*
X013261Y014620D01*
X013358Y014523D02*
X013552Y014523D01*
X014261Y014620D02*
X014358Y014717D01*
X014552Y014717D01*
X014406Y014717D02*
X014406Y014523D01*
X014358Y014523D02*
X014261Y014620D01*
X014358Y014523D02*
X014552Y014523D01*
X014310Y014818D02*
X014406Y014915D01*
X014552Y014915D01*
X014406Y014915D02*
X014310Y015012D01*
X014261Y015012D01*
X014261Y014818D02*
X014310Y014818D01*
X015261Y014818D02*
X015261Y015012D01*
X015310Y015012D01*
X015503Y014818D01*
X015552Y014818D01*
X015552Y015012D01*
X015552Y014717D02*
X015358Y014717D01*
X015261Y014620D01*
X015358Y014523D01*
X015552Y014523D01*
X015406Y014523D02*
X015406Y014717D01*
X019331Y011440D02*
X019516Y011255D01*
X019516Y011502D01*
X019331Y011440D02*
X019702Y011440D01*
X019640Y011134D02*
X019393Y011134D01*
X019331Y011072D01*
X019331Y010887D01*
X019702Y010887D01*
X019702Y011072D01*
X019640Y011134D01*
X019702Y010765D02*
X019702Y010519D01*
X019331Y010519D01*
X019331Y010765D01*
X019516Y010642D02*
X019516Y010519D01*
X019702Y010397D02*
X019702Y010150D01*
X019331Y010150D01*
X020132Y010423D02*
X020132Y010714D01*
X020277Y010714D01*
X020325Y010665D01*
X020325Y010472D01*
X020277Y010423D01*
X020132Y010423D01*
X020426Y010569D02*
X020571Y010714D01*
X020571Y010423D01*
X020620Y010569D02*
X020426Y010569D01*
X020475Y011223D02*
X020426Y011272D01*
X020475Y011223D02*
X020571Y011223D01*
X020620Y011272D01*
X020620Y011369D01*
X020571Y011417D01*
X020523Y011417D01*
X020426Y011369D01*
X020426Y011514D01*
X020620Y011514D01*
X020325Y011465D02*
X020325Y011272D01*
X020277Y011223D01*
X020132Y011223D01*
X020132Y011514D01*
X020277Y011514D01*
X020325Y011465D01*
X020327Y012023D02*
X020375Y012072D01*
X020375Y012265D01*
X020327Y012314D01*
X020182Y012314D01*
X020182Y012023D01*
X020327Y012023D01*
X020476Y012072D02*
X020476Y012169D01*
X020621Y012169D01*
X020670Y012120D01*
X020670Y012072D01*
X020621Y012023D01*
X020525Y012023D01*
X020476Y012072D01*
X020476Y012169D02*
X020573Y012265D01*
X020670Y012314D01*
X020621Y012773D02*
X020525Y012773D01*
X020476Y012822D01*
X020525Y012919D02*
X020621Y012919D01*
X020670Y012870D01*
X020670Y012822D01*
X020621Y012773D01*
X020525Y012919D02*
X020476Y012967D01*
X020476Y013015D01*
X020525Y013064D01*
X020621Y013064D01*
X020670Y013015D01*
X020771Y013064D02*
X020964Y013064D01*
X020868Y013064D02*
X020868Y012773D01*
X020375Y012773D02*
X020278Y012870D01*
X020327Y012870D02*
X020182Y012870D01*
X020182Y012773D02*
X020182Y013064D01*
X020327Y013064D01*
X020375Y013015D01*
X020375Y012919D01*
X020327Y012870D01*
X020375Y013573D02*
X020375Y013767D01*
X020278Y013864D01*
X020182Y013767D01*
X020182Y013573D01*
X020182Y013719D02*
X020375Y013719D01*
X020476Y013767D02*
X020573Y013864D01*
X020573Y013573D01*
X020476Y013573D02*
X020670Y013573D01*
X020670Y014373D02*
X020476Y014373D01*
X020670Y014567D01*
X020670Y014615D01*
X020621Y014664D01*
X020525Y014664D01*
X020476Y014615D01*
X020375Y014567D02*
X020375Y014373D01*
X020375Y014519D02*
X020182Y014519D01*
X020182Y014567D02*
X020278Y014664D01*
X020375Y014567D01*
X020182Y014567D02*
X020182Y014373D01*
X020182Y015173D02*
X020182Y015367D01*
X020278Y015464D01*
X020375Y015367D01*
X020375Y015173D01*
X020476Y015222D02*
X020525Y015173D01*
X020621Y015173D01*
X020670Y015222D01*
X020670Y015270D01*
X020621Y015319D01*
X020573Y015319D01*
X020621Y015319D02*
X020670Y015367D01*
X020670Y015415D01*
X020621Y015464D01*
X020525Y015464D01*
X020476Y015415D01*
X020375Y015319D02*
X020182Y015319D01*
X020230Y015973D02*
X020327Y015973D01*
X020375Y016022D01*
X020476Y016022D02*
X020525Y015973D01*
X020621Y015973D01*
X020670Y016022D01*
X020670Y016070D01*
X020621Y016119D01*
X020573Y016119D01*
X020621Y016119D02*
X020670Y016167D01*
X020670Y016215D01*
X020621Y016264D01*
X020525Y016264D01*
X020476Y016215D01*
X020375Y016215D02*
X020327Y016264D01*
X020230Y016264D01*
X020182Y016215D01*
X020182Y016022D01*
X020230Y015973D01*
X020280Y018223D02*
X020157Y018223D01*
X020095Y018285D01*
X019973Y018223D02*
X019973Y018594D01*
X019850Y018470D01*
X019727Y018594D01*
X019727Y018223D01*
X020095Y018532D02*
X020157Y018594D01*
X020280Y018594D01*
X020342Y018532D01*
X020342Y018470D01*
X020280Y018409D01*
X020342Y018347D01*
X020342Y018285D01*
X020280Y018223D01*
X020280Y018409D02*
X020218Y018409D01*
X020463Y018409D02*
X020710Y018409D01*
X020587Y018532D02*
X020587Y018285D01*
X020092Y009294D02*
X020215Y009170D01*
X020215Y008923D01*
X020215Y009109D02*
X019968Y009109D01*
X019968Y009170D02*
X020092Y009294D01*
X019968Y009170D02*
X019968Y008923D01*
X019847Y008985D02*
X019847Y009232D01*
X019785Y009294D01*
X019600Y009294D01*
X019600Y008923D01*
X019785Y008923D01*
X019847Y008985D01*
X019785Y008744D02*
X019662Y008744D01*
X019600Y008682D01*
X019600Y008435D01*
X019662Y008373D01*
X019785Y008373D01*
X019847Y008435D01*
X019968Y008373D02*
X019968Y008744D01*
X019847Y008682D02*
X019785Y008744D01*
X019968Y008373D02*
X020215Y008373D01*
X019478Y008435D02*
X019417Y008373D01*
X019293Y008373D01*
X019232Y008435D01*
X019293Y008559D02*
X019232Y008620D01*
X019232Y008682D01*
X019293Y008744D01*
X019417Y008744D01*
X019478Y008682D01*
X019417Y008559D02*
X019478Y008497D01*
X019478Y008435D01*
X019417Y008559D02*
X019293Y008559D01*
X019293Y008923D02*
X019232Y008985D01*
X019293Y008923D02*
X019417Y008923D01*
X019478Y008985D01*
X019478Y009047D01*
X019417Y009109D01*
X019293Y009109D01*
X019232Y009170D01*
X019232Y009232D01*
X019293Y009294D01*
X019417Y009294D01*
X019478Y009232D01*
X019827Y005494D02*
X019950Y005370D01*
X020073Y005494D01*
X020073Y005123D01*
X020195Y005123D02*
X020442Y005370D01*
X020442Y005432D01*
X020380Y005494D01*
X020257Y005494D01*
X020195Y005432D01*
X020195Y005123D02*
X020442Y005123D01*
X020563Y005309D02*
X020810Y005309D01*
X020687Y005432D02*
X020687Y005185D01*
X019827Y005123D02*
X019827Y005494D01*
X007702Y015973D02*
X007455Y015973D01*
X007702Y016220D01*
X007702Y016282D01*
X007640Y016344D01*
X007516Y016344D01*
X007455Y016282D01*
X007333Y016282D02*
X007333Y016220D01*
X007272Y016159D01*
X007333Y016097D01*
X007333Y016035D01*
X007272Y015973D01*
X007148Y015973D01*
X007086Y016035D01*
X006965Y015973D02*
X006965Y016344D01*
X006842Y016220D01*
X006718Y016344D01*
X006718Y015973D01*
X006597Y016344D02*
X006350Y016344D01*
X006473Y016344D02*
X006473Y015973D01*
X006228Y016035D02*
X006167Y015973D01*
X006043Y015973D01*
X005982Y016035D01*
X006043Y016159D02*
X006167Y016159D01*
X006228Y016097D01*
X006228Y016035D01*
X006043Y016159D02*
X005982Y016220D01*
X005982Y016282D01*
X006043Y016344D01*
X006167Y016344D01*
X006228Y016282D01*
X007086Y016282D02*
X007148Y016344D01*
X007272Y016344D01*
X007333Y016282D01*
X007272Y016159D02*
X007210Y016159D01*
X003510Y018459D02*
X003263Y018459D01*
X003142Y018459D02*
X002895Y018459D01*
X003080Y018644D01*
X003080Y018273D01*
X003387Y018335D02*
X003387Y018582D01*
X002773Y018644D02*
X002773Y018273D01*
X002527Y018273D02*
X002527Y018644D01*
X002650Y018520D01*
X002773Y018644D01*
X002847Y016244D02*
X002600Y015873D01*
X002355Y015873D02*
X002355Y016244D01*
X002232Y016244D02*
X002478Y016244D01*
X002600Y016244D02*
X002847Y015873D01*
X002847Y015244D02*
X002600Y014873D01*
X002478Y014873D02*
X002355Y014997D01*
X002417Y014997D02*
X002232Y014997D01*
X002232Y014873D02*
X002232Y015244D01*
X002417Y015244D01*
X002478Y015182D01*
X002478Y015059D01*
X002417Y014997D01*
X002600Y015244D02*
X002847Y014873D01*
X002847Y014244D02*
X002847Y013873D01*
X002600Y014244D01*
X002600Y013873D01*
X002478Y013935D02*
X002478Y014059D01*
X002355Y014059D01*
X002478Y014182D02*
X002417Y014244D01*
X002293Y014244D01*
X002232Y014182D01*
X002232Y013935D01*
X002293Y013873D01*
X002417Y013873D01*
X002478Y013935D01*
X002968Y013873D02*
X002968Y014244D01*
X003153Y014244D01*
X003215Y014182D01*
X003215Y013935D01*
X003153Y013873D01*
X002968Y013873D01*
X002847Y013244D02*
X002847Y012997D01*
X002723Y012873D01*
X002600Y012997D01*
X002600Y013244D01*
X002478Y013182D02*
X002478Y013120D01*
X002417Y013059D01*
X002478Y012997D01*
X002478Y012935D01*
X002417Y012873D01*
X002293Y012873D01*
X002232Y012935D01*
X002355Y013059D02*
X002417Y013059D01*
X002478Y013182D02*
X002417Y013244D01*
X002293Y013244D01*
X002232Y013182D01*
D12*
X005867Y009858D02*
X008567Y009858D01*
X008626Y009856D01*
X008684Y009850D01*
X008743Y009841D01*
X008800Y009827D01*
X008856Y009810D01*
X008911Y009789D01*
X008965Y009765D01*
X009017Y009737D01*
X009067Y009706D01*
X009115Y009672D01*
X009160Y009635D01*
X009203Y009594D01*
X009244Y009551D01*
X009281Y009506D01*
X009315Y009458D01*
X009346Y009408D01*
X009374Y009356D01*
X009398Y009302D01*
X009419Y009247D01*
X009436Y009191D01*
X009450Y009134D01*
X009459Y009075D01*
X009465Y009017D01*
X009467Y008958D01*
X009465Y008899D01*
X009459Y008841D01*
X009450Y008782D01*
X009436Y008725D01*
X009419Y008669D01*
X009398Y008614D01*
X009374Y008560D01*
X009346Y008508D01*
X009315Y008458D01*
X009281Y008410D01*
X009244Y008365D01*
X009203Y008322D01*
X009160Y008281D01*
X009115Y008244D01*
X009067Y008210D01*
X009017Y008179D01*
X008965Y008151D01*
X008911Y008127D01*
X008856Y008106D01*
X008800Y008089D01*
X008743Y008075D01*
X008684Y008066D01*
X008626Y008060D01*
X008567Y008058D01*
X005867Y008058D01*
X005808Y008060D01*
X005750Y008066D01*
X005691Y008075D01*
X005634Y008089D01*
X005578Y008106D01*
X005523Y008127D01*
X005469Y008151D01*
X005417Y008179D01*
X005367Y008210D01*
X005319Y008244D01*
X005274Y008281D01*
X005231Y008322D01*
X005190Y008365D01*
X005153Y008410D01*
X005119Y008458D01*
X005088Y008508D01*
X005060Y008560D01*
X005036Y008614D01*
X005015Y008669D01*
X004998Y008725D01*
X004984Y008782D01*
X004975Y008841D01*
X004969Y008899D01*
X004967Y008958D01*
X004969Y009017D01*
X004975Y009075D01*
X004984Y009134D01*
X004998Y009191D01*
X005015Y009247D01*
X005036Y009302D01*
X005060Y009356D01*
X005088Y009408D01*
X005119Y009458D01*
X005153Y009506D01*
X005190Y009551D01*
X005231Y009594D01*
X005274Y009635D01*
X005319Y009672D01*
X005367Y009706D01*
X005417Y009737D01*
X005469Y009765D01*
X005523Y009789D01*
X005578Y009810D01*
X005634Y009827D01*
X005691Y009841D01*
X005750Y009850D01*
X005808Y009856D01*
X005867Y009858D01*
X006047Y003529D02*
X006153Y003529D01*
X006153Y002888D01*
X006047Y002888D02*
X006260Y002888D01*
X006476Y002995D02*
X006476Y003209D01*
X006583Y003315D01*
X006796Y003315D01*
X006903Y003209D01*
X006903Y003102D01*
X006476Y003102D01*
X006476Y002995D02*
X006583Y002888D01*
X006796Y002888D01*
X007121Y002995D02*
X007227Y003102D01*
X007548Y003102D01*
X007548Y003209D02*
X007548Y002888D01*
X007227Y002888D01*
X007121Y002995D01*
X007227Y003315D02*
X007441Y003315D01*
X007548Y003209D01*
X007765Y003209D02*
X007979Y003209D01*
X008195Y003209D02*
X008195Y002995D01*
X008302Y002888D01*
X008622Y002888D01*
X008622Y002782D02*
X008622Y003315D01*
X008302Y003315D01*
X008195Y003209D01*
X007872Y003422D02*
X007979Y003529D01*
X007872Y003422D02*
X007872Y002888D01*
X008408Y002675D02*
X008515Y002675D01*
X008622Y002782D01*
X008839Y002888D02*
X008839Y003315D01*
X008839Y003102D02*
X009053Y003315D01*
X009160Y003315D01*
X009483Y003315D02*
X009697Y003315D01*
X009804Y003209D01*
X009804Y002888D01*
X009483Y002888D01*
X009377Y002995D01*
X009483Y003102D01*
X009804Y003102D01*
X010021Y003209D02*
X010128Y003315D01*
X010448Y003315D01*
X010341Y003102D02*
X010448Y002995D01*
X010341Y002888D01*
X010021Y002888D01*
X010128Y003102D02*
X010021Y003209D01*
X010128Y003102D02*
X010341Y003102D01*
X010666Y003209D02*
X010772Y003315D01*
X011093Y003315D01*
X010986Y003102D02*
X011093Y002995D01*
X010986Y002888D01*
X010666Y002888D01*
X010772Y003102D02*
X010666Y003209D01*
X010772Y003102D02*
X010986Y003102D01*
X011310Y002995D02*
X011417Y002995D01*
X011417Y002888D01*
X011310Y002888D01*
X011310Y002995D01*
X011632Y003315D02*
X011846Y003315D01*
X011739Y003422D02*
X011739Y002995D01*
X011846Y002888D01*
X012062Y002888D02*
X012062Y003529D01*
X012382Y003315D02*
X012062Y003102D01*
X012382Y002888D01*
D13*
X012380Y008108D02*
X011985Y008108D01*
X011591Y008108D02*
X011195Y008108D01*
X010802Y008108D02*
X010406Y008108D01*
X010012Y008108D02*
X009617Y008108D01*
X009617Y008504D01*
X009617Y008898D02*
X009617Y009293D01*
X009617Y009687D02*
X009617Y010083D01*
X009617Y010477D02*
X009617Y010872D01*
X009617Y011266D02*
X009617Y011662D01*
X009617Y012055D02*
X009617Y012451D01*
X009617Y012845D02*
X009617Y013240D01*
X009617Y013634D02*
X009617Y014030D01*
X009617Y014423D02*
X009617Y014819D01*
X009617Y015213D02*
X009617Y015608D01*
X010012Y015608D01*
X010406Y015608D02*
X010802Y015608D01*
X011195Y015608D02*
X011591Y015608D01*
X011985Y015608D02*
X012380Y015608D01*
X012774Y015608D02*
X013170Y015608D01*
X013563Y015608D02*
X013959Y015608D01*
X014353Y015608D02*
X014748Y015608D01*
X015142Y015608D02*
X015538Y015608D01*
X015931Y015608D02*
X016327Y015608D01*
X016721Y015608D02*
X017117Y015608D01*
X017117Y015213D01*
X017117Y014819D02*
X017117Y014423D01*
X017117Y014030D02*
X017117Y013634D01*
X017117Y013240D02*
X017117Y012845D01*
X017117Y012451D02*
X017117Y012055D01*
X017117Y011662D02*
X017117Y011266D01*
X017117Y010872D02*
X017117Y010477D01*
X017117Y010083D02*
X017117Y009687D01*
X017117Y009293D02*
X017117Y008898D01*
X017117Y008504D02*
X017117Y008108D01*
X016721Y008108D01*
X016327Y008108D02*
X015931Y008108D01*
X015538Y008108D02*
X015142Y008108D01*
X014748Y008108D02*
X014353Y008108D01*
X013959Y008108D02*
X013563Y008108D01*
X013170Y008108D02*
X012774Y008108D01*
X008580Y011784D02*
X008582Y011804D01*
X008587Y011824D01*
X008597Y011842D01*
X008609Y011859D01*
X008624Y011873D01*
X008642Y011883D01*
X008661Y011891D01*
X008681Y011895D01*
X008701Y011895D01*
X008721Y011891D01*
X008740Y011883D01*
X008758Y011873D01*
X008773Y011859D01*
X008785Y011842D01*
X008795Y011824D01*
X008800Y011804D01*
X008802Y011784D01*
X008800Y011764D01*
X008795Y011744D01*
X008785Y011726D01*
X008773Y011709D01*
X008758Y011695D01*
X008740Y011685D01*
X008721Y011677D01*
X008701Y011673D01*
X008681Y011673D01*
X008661Y011677D01*
X008642Y011685D01*
X008624Y011695D01*
X008609Y011709D01*
X008597Y011726D01*
X008587Y011744D01*
X008582Y011764D01*
X008580Y011784D01*
D14*
X008849Y011469D02*
X005384Y011469D01*
X005227Y011626D01*
X005227Y015091D01*
X005384Y015248D01*
X008849Y015248D01*
X009006Y015091D01*
X009006Y011626D01*
X008849Y011469D01*
X011167Y008608D02*
X010917Y008358D01*
X010917Y007858D01*
X011167Y007608D01*
X011667Y007608D01*
X011917Y007858D01*
X012167Y007608D01*
X012667Y007608D01*
X012917Y007858D01*
X013167Y007608D01*
X013667Y007608D01*
X013917Y007858D01*
X014167Y007608D01*
X014667Y007608D01*
X014917Y007858D01*
X015167Y007608D01*
X015667Y007608D01*
X015917Y007858D01*
X015917Y008358D01*
X015667Y008608D01*
X015167Y008608D01*
X014917Y008358D01*
X014667Y008608D01*
X014167Y008608D01*
X013917Y008358D01*
X013667Y008608D01*
X013167Y008608D01*
X012917Y008358D01*
X012667Y008608D01*
X012167Y008608D01*
X011917Y008358D01*
X011667Y008608D01*
X011167Y008608D01*
X012885Y006725D02*
X013067Y006725D01*
X013159Y006603D01*
X013248Y006725D02*
X013067Y006725D01*
X013057Y006719D02*
X012981Y006603D01*
X013685Y006725D02*
X013867Y006725D01*
X013959Y006603D01*
X014048Y006725D02*
X013867Y006725D01*
X013857Y006719D02*
X013781Y006603D01*
X014737Y006532D02*
X014737Y005863D01*
X014860Y005269D02*
X015883Y005269D01*
X015977Y005115D02*
X015977Y004642D01*
X015977Y005115D01*
X015977Y004642D02*
X015859Y004485D01*
X014894Y004485D01*
X014756Y004642D01*
X014756Y005115D01*
X014050Y004776D02*
X014050Y004461D01*
X016806Y004461D01*
X016806Y002020D01*
X014050Y002020D01*
X014050Y004461D01*
X014050Y004776D02*
X016806Y004776D01*
X016806Y004461D01*
X017413Y003716D02*
X017413Y003102D01*
X017107Y003409D02*
X017720Y003409D01*
X018577Y005307D02*
X018892Y005307D01*
X018892Y005543D01*
X018892Y006173D02*
X018892Y006410D01*
X018577Y006410D01*
X018577Y006807D02*
X018892Y006807D01*
X018892Y007043D01*
X018892Y007673D02*
X018892Y007910D01*
X018577Y007910D01*
X018550Y010727D02*
X018550Y010908D01*
X018672Y011000D01*
X018550Y011090D02*
X018550Y010908D01*
X018556Y010898D02*
X018672Y010822D01*
X015977Y006532D02*
X014737Y006532D01*
X015977Y006532D02*
X015977Y005863D01*
X013440Y004951D02*
X013440Y003986D01*
X013283Y003848D01*
X012810Y003848D01*
X012656Y003952D02*
X012656Y004975D01*
X012810Y005069D02*
X013283Y005069D01*
X012810Y005069D01*
X013283Y005069D02*
X013440Y004951D01*
X012062Y005069D02*
X011393Y005069D01*
X011393Y003829D01*
X012062Y003829D01*
X009998Y004475D02*
X009817Y004475D01*
X009909Y004353D01*
X009817Y004475D02*
X009635Y004475D01*
X009731Y004353D02*
X009807Y004469D01*
X004656Y005307D02*
X004341Y005307D01*
X004341Y005543D01*
X004341Y006173D02*
X004341Y006410D01*
X004656Y006410D01*
X004656Y006807D02*
X004341Y006807D01*
X004341Y007043D01*
X004341Y007673D02*
X004341Y007910D01*
X004656Y007910D01*
X003996Y007817D02*
X002224Y007817D01*
X002224Y011951D01*
X003996Y011951D01*
X003996Y007817D01*
X011167Y015108D02*
X010917Y015358D01*
X010917Y015858D01*
X011167Y016108D01*
X011667Y016108D01*
X011917Y015858D01*
X012167Y016108D01*
X012667Y016108D01*
X012917Y015858D01*
X013167Y016108D01*
X013667Y016108D01*
X013917Y015858D01*
X014167Y016108D01*
X014667Y016108D01*
X014917Y015858D01*
X015167Y016108D01*
X015667Y016108D01*
X015917Y015858D01*
X015917Y015358D01*
X015667Y015108D01*
X015167Y015108D01*
X014917Y015358D01*
X014667Y015108D01*
X014167Y015108D01*
X013917Y015358D01*
X013667Y015108D01*
X013167Y015108D01*
X012917Y015358D01*
X012667Y015108D01*
X012167Y015108D01*
X011917Y015358D01*
X011667Y015108D01*
X011167Y015108D01*
X011171Y018648D02*
X011840Y018648D01*
X011840Y019888D01*
X011171Y019888D01*
X010577Y019765D02*
X010577Y018742D01*
X010423Y018648D02*
X009950Y018648D01*
X010423Y018648D01*
X009950Y018648D02*
X009793Y018766D01*
X009793Y019731D01*
X009950Y019869D01*
X010423Y019869D01*
X009183Y019256D02*
X009183Y018941D01*
X006428Y018941D01*
X006428Y019256D01*
X009183Y019256D01*
X009183Y021697D01*
X006428Y021697D01*
X006428Y019256D01*
X006123Y018786D02*
X005532Y018786D01*
X005532Y019731D01*
X006123Y019731D01*
X005963Y020052D02*
X005963Y020666D01*
X005657Y020359D02*
X006270Y020359D01*
X006910Y019731D02*
X007343Y019731D01*
X007501Y019573D01*
X007501Y018943D01*
X007343Y018786D01*
X006910Y018786D01*
X004656Y018410D02*
X004341Y018410D01*
X004341Y018173D01*
X004341Y017543D02*
X004341Y017307D01*
X004656Y017307D01*
X004656Y016910D02*
X004341Y016910D01*
X004341Y016673D01*
X004341Y016043D02*
X004341Y015807D01*
X004656Y015807D01*
X018577Y015807D02*
X018892Y015807D01*
X018892Y016043D01*
X018892Y016673D02*
X018892Y016910D01*
X018577Y016910D01*
X018577Y017307D02*
X018892Y017307D01*
X018892Y017543D01*
X018892Y018173D02*
X018892Y018410D01*
X018577Y018410D01*
D15*
X009243Y014835D03*
X009243Y014638D03*
X009243Y014441D03*
X009243Y014244D03*
X009243Y014047D03*
X009243Y013851D03*
X009243Y013654D03*
X009243Y013457D03*
X009243Y013260D03*
X009243Y013063D03*
X009243Y012866D03*
X009243Y012669D03*
X009243Y012473D03*
X009243Y012276D03*
X009243Y012079D03*
X009243Y011882D03*
X004991Y011882D03*
X004991Y012079D03*
X004991Y012276D03*
X004991Y012473D03*
X004991Y012669D03*
X004991Y012866D03*
X004991Y013063D03*
X004991Y013260D03*
X004991Y013457D03*
X004991Y013654D03*
X004991Y013851D03*
X004991Y014047D03*
X004991Y014244D03*
X004991Y014441D03*
X004991Y014638D03*
X004991Y014835D03*
D16*
X005640Y015484D03*
X005837Y015484D03*
X006034Y015484D03*
X006231Y015484D03*
X006428Y015484D03*
X006624Y015484D03*
X006821Y015484D03*
X007018Y015484D03*
X007215Y015484D03*
X007412Y015484D03*
X007609Y015484D03*
X007806Y015484D03*
X008002Y015484D03*
X008199Y015484D03*
X008396Y015484D03*
X008593Y015484D03*
X008593Y011232D03*
X008396Y011232D03*
X008199Y011232D03*
X008002Y011232D03*
X007806Y011232D03*
X007609Y011232D03*
X007412Y011232D03*
X007215Y011232D03*
X007018Y011232D03*
X006821Y011232D03*
X006624Y011232D03*
X006428Y011232D03*
X006231Y011232D03*
X006034Y011232D03*
X005837Y011232D03*
X005640Y011232D03*
D17*
X003829Y012608D02*
X003805Y012608D01*
X004055Y014958D02*
X004079Y014958D01*
X002729Y017358D02*
X002705Y017358D01*
X008317Y016370D02*
X008317Y016346D01*
X008117Y010320D02*
X008117Y010296D01*
X007567Y007470D02*
X007567Y007446D01*
X007229Y006308D02*
X007205Y006308D01*
X008867Y005370D02*
X008867Y005346D01*
X008917Y007446D02*
X008917Y007470D01*
X006367Y004270D02*
X006367Y004246D01*
X002729Y006358D02*
X002705Y006358D01*
X014105Y018108D02*
X014129Y018108D01*
X015855Y018108D02*
X015879Y018108D01*
X015879Y019358D02*
X015855Y019358D01*
X020505Y017358D02*
X020529Y017358D01*
X019129Y013608D02*
X019105Y013608D01*
X017579Y009408D02*
X017555Y009408D01*
X020505Y006358D02*
X020529Y006358D01*
D18*
X017117Y006358D03*
X017117Y005458D03*
X017117Y007258D03*
X018617Y010358D03*
X015017Y013808D03*
X017117Y016108D03*
X017117Y017258D03*
X017117Y018158D03*
X017117Y019058D03*
X006117Y018458D03*
X006117Y017658D03*
X006117Y016858D03*
X006117Y007158D03*
X006117Y006258D03*
X006117Y005358D03*
D19*
X005867Y008258D02*
X008567Y008258D01*
X008618Y008260D01*
X008669Y008265D01*
X008719Y008275D01*
X008769Y008288D01*
X008817Y008304D01*
X008864Y008324D01*
X008910Y008348D01*
X008953Y008374D01*
X008995Y008404D01*
X009034Y008437D01*
X009071Y008472D01*
X009105Y008510D01*
X009136Y008551D01*
X009165Y008593D01*
X009190Y008638D01*
X009211Y008684D01*
X009230Y008732D01*
X009244Y008781D01*
X009255Y008831D01*
X009263Y008881D01*
X009267Y008932D01*
X009267Y008984D01*
X009263Y009035D01*
X009255Y009085D01*
X009244Y009135D01*
X009230Y009184D01*
X009211Y009232D01*
X009190Y009278D01*
X009165Y009323D01*
X009136Y009365D01*
X009105Y009406D01*
X009071Y009444D01*
X009034Y009479D01*
X008995Y009512D01*
X008953Y009542D01*
X008910Y009568D01*
X008864Y009592D01*
X008817Y009612D01*
X008769Y009628D01*
X008719Y009641D01*
X008669Y009651D01*
X008618Y009656D01*
X008567Y009658D01*
X005867Y009658D01*
X005816Y009656D01*
X005765Y009651D01*
X005715Y009641D01*
X005665Y009628D01*
X005617Y009612D01*
X005570Y009592D01*
X005524Y009568D01*
X005481Y009542D01*
X005439Y009512D01*
X005400Y009479D01*
X005363Y009444D01*
X005329Y009406D01*
X005298Y009365D01*
X005269Y009323D01*
X005244Y009278D01*
X005223Y009232D01*
X005204Y009184D01*
X005190Y009135D01*
X005179Y009085D01*
X005171Y009035D01*
X005167Y008984D01*
X005167Y008932D01*
X005171Y008881D01*
X005179Y008831D01*
X005190Y008781D01*
X005204Y008732D01*
X005223Y008684D01*
X005244Y008638D01*
X005269Y008593D01*
X005298Y008551D01*
X005329Y008510D01*
X005363Y008472D01*
X005400Y008437D01*
X005439Y008404D01*
X005481Y008374D01*
X005524Y008348D01*
X005570Y008324D01*
X005617Y008304D01*
X005665Y008288D01*
X005715Y008275D01*
X005765Y008265D01*
X005816Y008260D01*
X005867Y008258D01*
D20*
X010617Y004408D03*
X016667Y009408D03*
X012967Y019258D03*
X012267Y019258D03*
D21*
X014307Y019477D02*
X014307Y018839D01*
X014344Y018839D01*
X014661Y018839D02*
X015072Y018839D01*
X015389Y018839D02*
X015427Y018839D01*
X015427Y019477D01*
X015389Y019477D01*
X015072Y019477D02*
X015035Y019477D01*
X014698Y019477D02*
X014661Y019477D01*
X014344Y019477D02*
X014307Y019477D01*
X008177Y005127D02*
X008139Y005127D01*
X008177Y005127D02*
X008177Y004489D01*
X008139Y004489D01*
X007822Y004489D02*
X007785Y004489D01*
X007448Y004489D02*
X007411Y004489D01*
X007094Y004489D02*
X007057Y004489D01*
X007057Y005127D01*
X007094Y005127D01*
X007411Y005127D02*
X007822Y005127D01*
D22*
X017736Y011410D02*
X017738Y011424D01*
X017744Y011438D01*
X017752Y011450D01*
X017764Y011458D01*
X017778Y011464D01*
X017792Y011466D01*
X017806Y011464D01*
X017820Y011458D01*
X017832Y011450D01*
X017840Y011438D01*
X017846Y011424D01*
X017848Y011410D01*
X017846Y011396D01*
X017840Y011382D01*
X017832Y011370D01*
X017820Y011362D01*
X017806Y011356D01*
X017792Y011354D01*
X017778Y011356D01*
X017764Y011362D01*
X017752Y011370D01*
X017744Y011382D01*
X017738Y011396D01*
X017736Y011410D01*
M02*
