G75*
G70*
%OFA0B0*%
%FSLAX24Y24*%
%IPPOS*%
%LPD*%
%AMOC8*
5,1,8,0,0,1.08239X$1,22.5*
%
%ADD10R,0.0472X0.0118*%
%ADD11R,0.0118X0.0472*%
%ADD12R,0.0472X0.0984*%
%ADD13R,0.0354X0.0315*%
%ADD14R,0.0394X0.0433*%
%ADD15R,0.0787X0.0591*%
%ADD16R,0.0433X0.0394*%
%ADD17R,0.1181X0.0394*%
%ADD18C,0.0236*%
%ADD19R,0.0315X0.0315*%
%ADD20R,0.0984X0.0472*%
%ADD21R,0.0551X0.0630*%
%ADD22R,0.0217X0.0472*%
%ADD23R,0.0394X0.0157*%
%ADD24R,0.0827X0.0335*%
D10*
X004872Y011882D03*
X004872Y012079D03*
X004872Y012276D03*
X004872Y012473D03*
X004872Y012669D03*
X004872Y012866D03*
X004872Y013063D03*
X004872Y013260D03*
X004872Y013457D03*
X004872Y013654D03*
X004872Y013851D03*
X004872Y014047D03*
X004872Y014244D03*
X004872Y014441D03*
X004872Y014638D03*
X004872Y014835D03*
X009361Y014835D03*
X009361Y014638D03*
X009361Y014441D03*
X009361Y014244D03*
X009361Y014047D03*
X009361Y013851D03*
X009361Y013654D03*
X009361Y013457D03*
X009361Y013260D03*
X009361Y013063D03*
X009361Y012866D03*
X009361Y012669D03*
X009361Y012473D03*
X009361Y012276D03*
X009361Y012079D03*
X009361Y011882D03*
D11*
X008593Y011114D03*
X008396Y011114D03*
X008199Y011114D03*
X008002Y011114D03*
X007806Y011114D03*
X007609Y011114D03*
X007412Y011114D03*
X007215Y011114D03*
X007018Y011114D03*
X006821Y011114D03*
X006624Y011114D03*
X006428Y011114D03*
X006231Y011114D03*
X006034Y011114D03*
X005837Y011114D03*
X005640Y011114D03*
X005640Y015603D03*
X005837Y015603D03*
X006034Y015603D03*
X006231Y015603D03*
X006428Y015603D03*
X006624Y015603D03*
X006821Y015603D03*
X007018Y015603D03*
X007215Y015603D03*
X007412Y015603D03*
X007609Y015603D03*
X007806Y015603D03*
X008002Y015603D03*
X008199Y015603D03*
X008396Y015603D03*
X008593Y015603D03*
D12*
X010167Y019258D03*
X011466Y019258D03*
X011767Y004458D03*
X013066Y004458D03*
D13*
X005010Y005484D03*
X005010Y006232D03*
X005010Y006984D03*
X005010Y007732D03*
X004183Y007358D03*
X004183Y005858D03*
X005010Y015984D03*
X005010Y016732D03*
X005010Y017484D03*
X005010Y018232D03*
X004183Y017858D03*
X004183Y016358D03*
X018223Y015984D03*
X018223Y016732D03*
X018223Y017484D03*
X018223Y018232D03*
X019050Y017858D03*
X019050Y016358D03*
X018223Y007732D03*
X018223Y006984D03*
X018223Y006232D03*
X018223Y005484D03*
X019050Y005858D03*
X019050Y007358D03*
D14*
X020517Y006693D03*
X020517Y006024D03*
X017567Y009074D03*
X017567Y009743D03*
X016667Y009743D03*
X016667Y009074D03*
X019117Y013274D03*
X019117Y013943D03*
X020517Y017024D03*
X020517Y017693D03*
X015867Y017774D03*
X015867Y018443D03*
X015867Y019024D03*
X015867Y019693D03*
X014117Y018443D03*
X014117Y017774D03*
X012967Y018924D03*
X012967Y019593D03*
X012267Y019593D03*
X012267Y018924D03*
X004067Y015293D03*
X004067Y014624D03*
X003817Y012943D03*
X003817Y012274D03*
X002717Y017024D03*
X002717Y017693D03*
X002717Y006693D03*
X002717Y006024D03*
X007217Y005974D03*
X007217Y006643D03*
X010617Y004743D03*
X010617Y004074D03*
D15*
X002517Y005858D03*
X002517Y006858D03*
X002517Y016858D03*
X002517Y017858D03*
X020717Y017858D03*
X020717Y016858D03*
X020717Y009358D03*
X020717Y008358D03*
X020717Y006858D03*
X020717Y005858D03*
D16*
X017451Y005458D03*
X016782Y005458D03*
X016782Y006358D03*
X017451Y006358D03*
X017451Y007258D03*
X016782Y007258D03*
X018282Y010358D03*
X018951Y010358D03*
X015351Y013808D03*
X014682Y013808D03*
X016782Y016108D03*
X017451Y016108D03*
X017451Y017258D03*
X016782Y017258D03*
X016782Y018158D03*
X017451Y018158D03*
X017451Y019058D03*
X016782Y019058D03*
X008651Y016358D03*
X007982Y016358D03*
X006451Y016858D03*
X005782Y016858D03*
X005782Y017658D03*
X006451Y017658D03*
X006451Y018458D03*
X005782Y018458D03*
X007782Y010308D03*
X008451Y010308D03*
X008582Y007458D03*
X009251Y007458D03*
X007901Y007458D03*
X007232Y007458D03*
X006451Y007158D03*
X005782Y007158D03*
X005782Y006258D03*
X006451Y006258D03*
X006451Y005358D03*
X005782Y005358D03*
X006032Y004258D03*
X006701Y004258D03*
X008532Y005358D03*
X009201Y005358D03*
D17*
X002648Y012558D03*
X002648Y013558D03*
X002648Y014558D03*
X002648Y015558D03*
D18*
X007371Y020609D02*
X007371Y021907D01*
X007371Y020609D02*
X006663Y020609D01*
X006663Y021907D01*
X007371Y021907D01*
X007371Y020844D02*
X006663Y020844D01*
X006663Y021079D02*
X007371Y021079D01*
X007371Y021314D02*
X006663Y021314D01*
X006663Y021549D02*
X007371Y021549D01*
X007371Y021784D02*
X006663Y021784D01*
X015863Y003107D02*
X015863Y001809D01*
X015863Y003107D02*
X016571Y003107D01*
X016571Y001809D01*
X015863Y001809D01*
X015863Y002044D02*
X016571Y002044D01*
X016571Y002279D02*
X015863Y002279D01*
X015863Y002514D02*
X016571Y002514D01*
X016571Y002749D02*
X015863Y002749D01*
X015863Y002984D02*
X016571Y002984D01*
D19*
X013867Y006363D03*
X013867Y006954D03*
X013067Y006954D03*
X013067Y006363D03*
X009817Y004704D03*
X009817Y004113D03*
X018321Y010908D03*
X018912Y010908D03*
D20*
X015367Y006158D03*
X015367Y004859D03*
D21*
X007068Y019258D03*
X005965Y019258D03*
D22*
X014493Y019670D03*
X014867Y019670D03*
X015241Y019670D03*
X015241Y018647D03*
X014493Y018647D03*
X007991Y005320D03*
X007243Y005320D03*
X007243Y004297D03*
X007617Y004297D03*
X007991Y004297D03*
D23*
X015973Y011448D03*
X015973Y011708D03*
X015973Y011968D03*
X015973Y012228D03*
X015973Y012488D03*
X015973Y012748D03*
X015973Y013008D03*
X015970Y013268D03*
X015973Y013528D03*
X015973Y013788D03*
X018273Y013788D03*
X018273Y013528D03*
X018275Y013268D03*
X018273Y013008D03*
X018273Y012748D03*
X018273Y012488D03*
X018273Y012228D03*
X018273Y011968D03*
X018273Y011708D03*
X018273Y011448D03*
D24*
X020717Y011783D03*
X020717Y010996D03*
X020717Y010208D03*
X020717Y012571D03*
X020717Y013358D03*
X020717Y014145D03*
X020717Y014933D03*
X020717Y015720D03*
M02*
