G75*
G70*
%OFA0B0*%
%FSLAX24Y24*%
%IPPOS*%
%LPD*%
%AMOC8*
5,1,8,0,0,1.08239X$1,22.5*
%
%ADD10C,0.1380*%
%ADD11R,0.0880X0.0880*%
%ADD12C,0.0880*%
%ADD13R,0.0635X0.0635*%
%ADD14C,0.0635*%
%ADD15C,0.0256*%
%ADD16C,0.0640*%
%ADD17R,0.0513X0.0474*%
%ADD18R,0.0474X0.0513*%
%ADD19C,0.0820*%
%ADD20R,0.0907X0.0415*%
%ADD21R,0.0395X0.0552*%
%ADD22R,0.0330X0.0580*%
%ADD23R,0.0634X0.0634*%
%ADD24R,0.0556X0.0556*%
%ADD25R,0.0595X0.0595*%
%ADD26C,0.0595*%
%ADD27C,0.0556*%
D10*
X003617Y003858D03*
X003617Y019858D03*
X019617Y019858D03*
X019617Y003858D03*
D11*
X016117Y003358D03*
X007117Y020358D03*
D12*
X008494Y020358D03*
X014739Y003358D03*
D13*
X002717Y011458D03*
D14*
X002717Y010671D03*
X003504Y010671D03*
X003504Y011458D03*
X003504Y009884D03*
X003504Y009096D03*
X003504Y008309D03*
X002717Y008309D03*
X002717Y009096D03*
X002717Y009884D03*
D15*
X009001Y020579D02*
X009001Y021937D01*
X009001Y020579D02*
X008233Y020579D01*
X008233Y021937D01*
X009001Y021937D01*
X009001Y020834D02*
X008233Y020834D01*
X008233Y021089D02*
X009001Y021089D01*
X009001Y021344D02*
X008233Y021344D01*
X008233Y021599D02*
X009001Y021599D01*
X009001Y021854D02*
X008233Y021854D01*
X014233Y003137D02*
X014233Y001779D01*
X014233Y003137D02*
X015001Y003137D01*
X015001Y001779D01*
X014233Y001779D01*
X014233Y002034D02*
X015001Y002034D01*
X015001Y002289D02*
X014233Y002289D01*
X014233Y002544D02*
X015001Y002544D01*
X015001Y002799D02*
X014233Y002799D01*
X014233Y003054D02*
X015001Y003054D01*
D16*
X008217Y008958D03*
X006217Y008958D03*
D17*
X006382Y012008D03*
X007051Y012008D03*
X005351Y014708D03*
X004682Y014708D03*
X004201Y013258D03*
X003532Y013258D03*
X009932Y013708D03*
X010601Y013708D03*
X012532Y016358D03*
X013201Y016358D03*
G36*
X015117Y013343D02*
X015478Y012982D01*
X015143Y012647D01*
X014782Y013008D01*
X015117Y013343D01*
G37*
G36*
X015590Y012870D02*
X015951Y012509D01*
X015616Y012174D01*
X015255Y012535D01*
X015590Y012870D01*
G37*
X016632Y009658D03*
X017301Y009658D03*
D18*
X018017Y009374D03*
X018017Y010043D03*
X013867Y006993D03*
X013867Y006324D03*
X013067Y006324D03*
X013067Y006993D03*
X010117Y006393D03*
X010117Y005724D03*
X010117Y004993D03*
X010117Y004324D03*
X007967Y013624D03*
X007967Y014293D03*
X009317Y015274D03*
X009317Y015943D03*
D19*
X011417Y015608D03*
X012417Y015608D03*
X013417Y015608D03*
X014417Y015608D03*
X015417Y015608D03*
X015417Y008108D03*
X014417Y008108D03*
X013417Y008108D03*
X012417Y008108D03*
X011417Y008108D03*
D20*
X020717Y010208D03*
X020717Y010996D03*
X020717Y011783D03*
X020717Y012571D03*
X020717Y013358D03*
X020717Y014145D03*
X020717Y014933D03*
X020717Y015720D03*
D21*
G36*
X016022Y013242D02*
X016301Y012963D01*
X015912Y012574D01*
X015633Y012853D01*
X016022Y013242D01*
G37*
G36*
X015521Y013743D02*
X015800Y013464D01*
X015411Y013075D01*
X015132Y013354D01*
X015521Y013743D01*
G37*
D22*
G36*
X014354Y012012D02*
X014121Y012245D01*
X014530Y012654D01*
X014763Y012421D01*
X014354Y012012D01*
G37*
G36*
X014103Y012263D02*
X013870Y012496D01*
X014279Y012905D01*
X014512Y012672D01*
X014103Y012263D01*
G37*
D23*
X012017Y010608D03*
X010967Y005908D03*
X015217Y017858D03*
D24*
X008067Y016958D03*
D25*
X009667Y010608D03*
D26*
X009217Y004408D03*
X013817Y019158D03*
D27*
X018717Y014958D03*
M02*
