G75*
G70*
%OFA0B0*%
%FSLAX24Y24*%
%IPPOS*%
%LPD*%
%AMOC8*
5,1,8,0,0,1.08239X$1,22.5*
%
%ADD10C,0.0100*%
%ADD11R,0.0472X0.0118*%
%ADD12R,0.0118X0.0472*%
%ADD13R,0.0472X0.0984*%
%ADD14R,0.0354X0.0315*%
%ADD15R,0.0394X0.0433*%
%ADD16R,0.0787X0.0591*%
%ADD17R,0.0433X0.0394*%
%ADD18C,0.0000*%
%ADD19R,0.0800X0.0800*%
%ADD20C,0.0800*%
%ADD21R,0.0555X0.0555*%
%ADD22C,0.0555*%
%ADD23R,0.1181X0.0394*%
%ADD24C,0.0236*%
%ADD25C,0.0560*%
%ADD26R,0.0315X0.0315*%
%ADD27R,0.0984X0.0472*%
%ADD28R,0.0551X0.0630*%
%ADD29C,0.0740*%
%ADD30R,0.0217X0.0472*%
%ADD31R,0.0394X0.0157*%
%ADD32R,0.0827X0.0335*%
%ADD33C,0.0500*%
%ADD34C,0.0160*%
%ADD35C,0.0320*%
%ADD36C,0.0240*%
%ADD37C,0.0400*%
%ADD38C,0.0120*%
%ADD39R,0.0554X0.0554*%
%ADD40C,0.0436*%
%ADD41R,0.0476X0.0476*%
%ADD42R,0.0436X0.0436*%
%ADD43R,0.0515X0.0515*%
%ADD44C,0.0200*%
%ADD45C,0.0080*%
%ADD46C,0.0515*%
%ADD47C,0.0476*%
D10*
X003235Y002358D02*
X019999Y002358D01*
X020064Y002360D01*
X020129Y002366D01*
X020193Y002375D01*
X020257Y002388D01*
X020320Y002405D01*
X020381Y002425D01*
X020442Y002449D01*
X020501Y002477D01*
X020558Y002508D01*
X020613Y002542D01*
X020667Y002579D01*
X020718Y002620D01*
X020766Y002663D01*
X020812Y002709D01*
X020855Y002757D01*
X020896Y002808D01*
X020933Y002862D01*
X020967Y002917D01*
X020998Y002974D01*
X021026Y003033D01*
X021050Y003094D01*
X021070Y003155D01*
X021087Y003218D01*
X021100Y003282D01*
X021109Y003346D01*
X021115Y003411D01*
X021117Y003476D01*
X021117Y020240D01*
X021115Y020305D01*
X021109Y020370D01*
X021100Y020434D01*
X021087Y020498D01*
X021070Y020561D01*
X021050Y020622D01*
X021026Y020683D01*
X020998Y020742D01*
X020967Y020799D01*
X020933Y020854D01*
X020896Y020908D01*
X020855Y020959D01*
X020812Y021007D01*
X020766Y021053D01*
X020718Y021096D01*
X020667Y021137D01*
X020613Y021174D01*
X020558Y021208D01*
X020501Y021239D01*
X020442Y021267D01*
X020381Y021291D01*
X020320Y021311D01*
X020257Y021328D01*
X020193Y021341D01*
X020129Y021350D01*
X020064Y021356D01*
X019999Y021358D01*
X003235Y021358D01*
X003170Y021356D01*
X003105Y021350D01*
X003041Y021341D01*
X002977Y021328D01*
X002914Y021311D01*
X002853Y021291D01*
X002792Y021267D01*
X002733Y021239D01*
X002676Y021208D01*
X002621Y021174D01*
X002567Y021137D01*
X002516Y021096D01*
X002468Y021053D01*
X002422Y021007D01*
X002379Y020959D01*
X002338Y020908D01*
X002301Y020854D01*
X002267Y020799D01*
X002236Y020742D01*
X002208Y020683D01*
X002184Y020622D01*
X002164Y020561D01*
X002147Y020498D01*
X002134Y020434D01*
X002125Y020370D01*
X002119Y020305D01*
X002117Y020240D01*
X002117Y003476D01*
X002119Y003411D01*
X002125Y003346D01*
X002134Y003282D01*
X002147Y003218D01*
X002164Y003155D01*
X002184Y003094D01*
X002208Y003033D01*
X002236Y002974D01*
X002267Y002917D01*
X002301Y002862D01*
X002338Y002808D01*
X002379Y002757D01*
X002422Y002709D01*
X002468Y002663D01*
X002516Y002620D01*
X002567Y002579D01*
X002621Y002542D01*
X002676Y002508D01*
X002733Y002477D01*
X002792Y002449D01*
X002853Y002425D01*
X002914Y002405D01*
X002977Y002388D01*
X003041Y002375D01*
X003105Y002366D01*
X003170Y002360D01*
X003235Y002358D01*
X006451Y007158D02*
X006451Y007408D01*
X006201Y007658D01*
X005767Y007658D01*
X005317Y008108D01*
X004967Y008108D01*
X004617Y008458D01*
X004617Y011358D01*
X004917Y011658D01*
X005167Y011658D01*
X005367Y011858D01*
X005717Y011858D01*
X005917Y012058D01*
X005917Y012708D01*
X005367Y013258D01*
X004874Y013258D01*
X004872Y013063D02*
X004868Y013058D01*
X004517Y013058D01*
X004467Y013108D01*
X004467Y013308D01*
X003417Y014358D01*
X003417Y015058D01*
X003217Y015258D01*
X002917Y015408D01*
X002917Y015558D02*
X003217Y015258D01*
X003167Y015458D01*
X002917Y014558D02*
X002648Y014558D01*
X002917Y014558D02*
X003217Y014258D01*
X002917Y014408D01*
X003167Y014458D02*
X003217Y014258D01*
X004267Y013208D01*
X004267Y013008D01*
X004417Y012858D01*
X004865Y012858D01*
X004872Y012866D01*
X004872Y012276D02*
X005213Y012276D01*
X005494Y012410D01*
X005567Y012258D01*
X005480Y012114D01*
X005213Y012276D01*
X005549Y012276D01*
X005567Y012258D01*
X005417Y011608D02*
X005267Y011458D01*
X005017Y011458D01*
X004817Y011258D01*
X004817Y008558D01*
X005067Y008308D01*
X005417Y008308D01*
X005817Y007908D01*
X006346Y007908D01*
X006657Y007926D01*
X006667Y007758D01*
X006532Y007658D01*
X006346Y007908D01*
X006517Y007908D01*
X006667Y007758D01*
X007117Y007524D02*
X007232Y007458D01*
X008517Y007524D02*
X008582Y007458D01*
X009251Y007458D02*
X009417Y007458D01*
X009446Y006962D01*
X009610Y006697D01*
X009467Y006608D01*
X009314Y006679D01*
X009446Y006962D01*
X009467Y006608D01*
X010748Y005971D02*
X010617Y005508D01*
X011057Y005700D01*
X010967Y005908D01*
X010748Y005971D01*
X010967Y005908D02*
X010617Y005558D01*
X010617Y005508D01*
X010617Y004743D01*
X010632Y004758D01*
X010712Y004758D01*
X010987Y004906D01*
X011067Y004758D01*
X010987Y004610D01*
X010712Y004758D01*
X011067Y004758D01*
X010617Y004074D02*
X009856Y004074D01*
X009817Y004113D01*
X009404Y004320D02*
X009585Y004704D01*
X009171Y004611D01*
X009217Y004408D01*
X009404Y004320D01*
X009217Y004408D02*
X009512Y004704D01*
X009585Y004704D01*
X009817Y004704D01*
X007991Y004297D02*
X007991Y003384D01*
X008017Y003358D01*
X011771Y006954D02*
X013067Y006954D01*
X013067Y006363D02*
X013067Y006213D01*
X013214Y005938D01*
X013067Y005858D01*
X012919Y005938D01*
X013067Y006213D01*
X013067Y005858D01*
X013719Y005940D02*
X013867Y005858D01*
X014015Y005937D01*
X013870Y006213D01*
X013719Y005940D01*
X013867Y005858D02*
X013870Y006213D01*
X013871Y006308D01*
X013867Y006363D01*
X013867Y006954D02*
X013871Y006958D01*
X015367Y006958D01*
X016016Y007608D01*
X016105Y007907D01*
X016267Y007858D01*
X016315Y007697D01*
X016016Y007608D01*
X016267Y007858D01*
X016782Y008093D02*
X016782Y007258D01*
X016767Y007274D01*
X016782Y008093D02*
X012467Y012408D01*
X012467Y013458D01*
X013467Y014458D01*
X015067Y014458D01*
X015967Y015358D01*
X015967Y015958D01*
X015717Y016208D01*
X011167Y016208D01*
X010867Y015908D01*
X010867Y015158D01*
X010346Y014638D01*
X009361Y014638D01*
X009361Y013851D02*
X011659Y013851D01*
X013063Y015255D01*
X013417Y015608D01*
X013267Y014958D02*
X013767Y014958D01*
X014063Y015255D01*
X014417Y015608D01*
X015063Y015255D02*
X014517Y014708D01*
X013367Y014708D01*
X012115Y013457D01*
X009361Y013457D01*
X009361Y013654D02*
X011962Y013654D01*
X013267Y014958D01*
X014246Y013956D02*
X014167Y013808D01*
X014246Y013660D01*
X014521Y013808D01*
X014246Y013956D01*
X014167Y013808D02*
X014521Y013808D01*
X014682Y013808D01*
X015351Y013808D02*
X015617Y013808D01*
X015617Y013758D01*
X015617Y013658D01*
X015717Y013558D01*
X015943Y013558D01*
X015973Y013528D01*
X015973Y013788D02*
X015993Y013808D01*
X016267Y013808D01*
X016567Y014108D01*
X016567Y015958D01*
X016417Y016108D01*
X016367Y016158D01*
X015717Y016808D01*
X014217Y016808D01*
X013217Y017808D01*
X007367Y017808D01*
X006967Y017408D01*
X006967Y016658D01*
X006767Y016458D01*
X006417Y016458D01*
X006034Y016076D01*
X006034Y015603D01*
X006231Y015603D02*
X006231Y015973D01*
X006517Y016258D01*
X006917Y016258D01*
X007267Y016608D01*
X007267Y017358D01*
X007517Y017608D01*
X013117Y017608D01*
X014167Y016558D01*
X015667Y016558D01*
X016267Y015958D01*
X016267Y014608D01*
X015617Y013958D01*
X015617Y013808D01*
X016126Y013268D02*
X016276Y013268D01*
X016367Y013358D01*
X016367Y013608D01*
X016867Y014108D01*
X017667Y014108D01*
X018067Y014508D01*
X018067Y015258D01*
X018367Y015558D01*
X020167Y015558D01*
X020367Y015708D01*
X020317Y015558D02*
X020517Y015758D01*
X020678Y015758D01*
X020717Y015720D01*
X020467Y015558D02*
X020317Y015558D01*
X020267Y015558D01*
X020167Y015558D01*
X020017Y015358D02*
X020217Y015158D01*
X020517Y015058D01*
X020417Y014958D02*
X020691Y014958D01*
X020717Y014933D01*
X020417Y014958D02*
X020217Y015158D01*
X020367Y014858D01*
X020017Y015358D02*
X018517Y015358D01*
X018273Y015115D01*
X018273Y013788D01*
X017467Y012908D02*
X017305Y012957D01*
X017216Y012658D01*
X017515Y012747D01*
X017467Y012908D01*
X017216Y012658D01*
X017046Y012488D01*
X016996Y012488D01*
X017158Y012316D02*
X016866Y012208D01*
X017117Y012023D01*
X017217Y012158D01*
X017158Y012316D01*
X017167Y012208D02*
X017217Y012158D01*
X017167Y012208D02*
X016866Y012208D01*
X015993Y012208D01*
X015973Y011968D02*
X016807Y011968D01*
X016916Y011859D01*
X017215Y011769D01*
X017167Y011608D01*
X017005Y011560D01*
X016916Y011859D01*
X017167Y011608D01*
X017817Y012108D02*
X017817Y009993D01*
X017567Y009743D01*
X018232Y009743D01*
X018366Y009609D01*
X018665Y009519D01*
X018617Y009358D01*
X018455Y009310D01*
X018366Y009609D01*
X018617Y009358D01*
X018517Y008958D02*
X018817Y008958D01*
X019017Y009158D01*
X019017Y009558D01*
X018282Y010293D01*
X018282Y010358D01*
X018267Y010358D01*
X018321Y010908D02*
X018321Y011448D01*
X018273Y011448D01*
X018273Y012228D02*
X017936Y012228D01*
X017817Y012108D01*
X018273Y012228D02*
X020086Y012228D01*
X020217Y012358D01*
X020367Y012658D01*
X020417Y012558D02*
X020217Y012358D01*
X020517Y012458D01*
X020417Y012558D02*
X020704Y012558D01*
X020717Y012571D01*
X020367Y013258D02*
X020167Y013208D01*
X020367Y013458D01*
X020316Y013358D02*
X020717Y013358D01*
X020716Y013358D01*
X020316Y013358D02*
X020167Y013208D01*
X019446Y012488D01*
X018273Y012488D01*
X018273Y012748D02*
X019306Y012748D01*
X020417Y013858D01*
X020767Y014058D01*
X020717Y014145D02*
X020704Y014145D01*
X020417Y013858D01*
X020467Y014158D01*
X020417Y011908D02*
X020167Y011808D01*
X020167Y011758D02*
X020417Y011708D01*
X020367Y011058D02*
X020167Y010958D01*
X020417Y010858D01*
X020417Y010308D02*
X020167Y010358D01*
X020317Y010108D01*
X020367Y010108D02*
X020217Y010308D01*
X020046Y009706D02*
X019967Y009558D01*
X020046Y009410D01*
X020321Y009558D01*
X020046Y009706D01*
X020167Y009608D02*
X020467Y009608D01*
X020517Y009558D02*
X020321Y009558D01*
X019967Y009558D01*
X020217Y009508D02*
X020417Y009508D01*
X020467Y008258D02*
X020167Y008108D01*
X020221Y008108D01*
X019946Y007960D01*
X019867Y008108D01*
X019946Y008256D01*
X020221Y008108D01*
X020667Y008108D01*
X020517Y008208D02*
X020017Y008208D01*
X019867Y008108D02*
X020167Y008108D01*
X018517Y008958D02*
X017917Y008358D01*
X017017Y008358D01*
X016667Y008708D01*
X016667Y009074D01*
X016201Y009074D01*
X014046Y011229D01*
X013808Y011430D01*
X013917Y011558D01*
X014083Y011538D01*
X014046Y011229D01*
X013917Y011358D01*
X013917Y011558D01*
X014567Y009608D02*
X014567Y009358D01*
X014666Y009259D01*
X014965Y009169D01*
X014917Y009008D01*
X014755Y008960D01*
X014666Y009259D01*
X014917Y009008D01*
X015417Y009108D02*
X015417Y008608D01*
X015417Y008108D01*
X015417Y009108D02*
X011265Y013260D01*
X009361Y013260D01*
X009361Y013063D02*
X009356Y013058D01*
X008867Y013058D01*
X008317Y012508D01*
X006817Y012508D01*
X005909Y013416D01*
X005694Y013643D01*
X005817Y013758D01*
X005980Y013720D01*
X005909Y013416D01*
X005817Y013508D01*
X005817Y013758D01*
X005417Y013558D02*
X006667Y012308D01*
X007717Y012308D01*
X007917Y012108D01*
X007917Y011808D01*
X008199Y011526D01*
X008199Y011114D01*
X008396Y011114D02*
X008396Y010788D01*
X008317Y010708D01*
X007967Y010708D01*
X007782Y010524D01*
X007782Y010308D01*
X007609Y010801D02*
X007246Y010438D01*
X007283Y010128D01*
X007117Y010108D01*
X007008Y010237D01*
X007246Y010438D01*
X007117Y010308D01*
X007117Y010108D01*
X006831Y010423D02*
X006656Y010164D01*
X006517Y010258D01*
X006519Y010427D01*
X006831Y010423D01*
X007017Y010608D01*
X007017Y011113D01*
X007018Y011114D01*
X006821Y011114D02*
X006817Y011110D01*
X006817Y010758D01*
X006717Y010658D01*
X006217Y010658D01*
X006067Y010509D01*
X005978Y010210D01*
X005817Y010258D01*
X005768Y010419D01*
X006067Y010509D01*
X005817Y010258D01*
X005717Y010658D02*
X005538Y010658D01*
X005351Y010408D01*
X005217Y010508D01*
X005226Y010676D01*
X005538Y010658D01*
X005367Y010658D01*
X005217Y010508D01*
X005319Y010925D02*
X005217Y011058D01*
X005272Y011217D01*
X005566Y011114D01*
X005319Y010925D01*
X005217Y011058D02*
X005272Y011114D01*
X005566Y011114D01*
X005640Y011114D01*
X005837Y011114D02*
X005837Y010779D01*
X005717Y010658D01*
X006517Y010258D02*
X006667Y010258D01*
X006831Y010423D01*
X007412Y011114D02*
X007412Y011463D01*
X007267Y011608D01*
X005417Y011608D01*
X004872Y011882D02*
X004690Y011882D01*
X004667Y011858D01*
X004232Y011858D01*
X003817Y012274D01*
X004317Y012258D02*
X004317Y012658D01*
X004117Y012858D01*
X003901Y012858D01*
X003817Y012943D01*
X004317Y012258D02*
X004496Y012079D01*
X004872Y012079D01*
X005417Y013558D02*
X005417Y016158D01*
X005717Y016458D01*
X006117Y016458D01*
X006451Y016793D01*
X006717Y016058D02*
X007117Y016058D01*
X007517Y016458D01*
X007517Y017208D01*
X007717Y017408D01*
X012567Y017408D01*
X012716Y017259D01*
X013015Y017169D01*
X012967Y017008D01*
X012805Y016960D01*
X012716Y017259D01*
X012967Y017008D01*
X012267Y018258D02*
X012414Y018338D01*
X012267Y018613D01*
X012119Y018338D01*
X012267Y018258D01*
X012267Y018613D01*
X012267Y018924D01*
X013017Y019758D02*
X012967Y019808D01*
X014493Y019670D02*
X014493Y020284D01*
X014567Y020358D01*
X014596Y017356D02*
X014517Y017208D01*
X014596Y017060D01*
X014871Y017208D01*
X014596Y017356D01*
X014517Y017208D02*
X014871Y017208D01*
X016732Y017208D01*
X016782Y017258D01*
X016632Y017408D01*
X016682Y017358D02*
X016782Y017258D01*
X016782Y016108D02*
X016417Y016108D01*
X017118Y015669D02*
X017167Y015508D01*
X017328Y015460D01*
X017417Y015759D01*
X017118Y015669D01*
X017167Y015508D02*
X017417Y015759D01*
X017451Y015793D01*
X017451Y016108D01*
X015417Y015608D02*
X015063Y015255D01*
X016969Y013629D02*
X017117Y013354D01*
X017264Y013629D01*
X017117Y013708D01*
X016969Y013629D01*
X017117Y013708D02*
X017117Y013354D01*
X017117Y013058D01*
X016806Y012748D01*
X015973Y012748D01*
X015973Y011448D02*
X015973Y011352D01*
X016116Y011209D01*
X016415Y011119D01*
X016367Y010958D01*
X016205Y010910D01*
X016116Y011209D01*
X016367Y010958D01*
X016667Y009743D02*
X017567Y009743D01*
X018912Y010358D02*
X018912Y010908D01*
X018912Y010358D02*
X018951Y010358D01*
X017451Y006358D02*
X017451Y005458D01*
X015767Y004858D02*
X015766Y004859D01*
X015367Y004859D01*
X011771Y006954D02*
X010417Y008308D01*
X010118Y008397D01*
X010167Y008558D01*
X010328Y008607D01*
X010417Y008308D01*
X010167Y008558D01*
X009067Y009808D02*
X009067Y011608D01*
X008917Y011758D01*
X008917Y012508D01*
X009078Y012669D01*
X009361Y012669D01*
X009361Y012473D02*
X011702Y012473D01*
X014567Y009608D01*
X010117Y011908D02*
X010165Y012069D01*
X009866Y012159D01*
X009955Y011860D01*
X010117Y011908D01*
X009866Y012159D01*
X009749Y012276D01*
X009361Y012276D01*
X009361Y012866D02*
X008974Y012866D01*
X008717Y012608D01*
X008717Y011658D01*
X008867Y011508D01*
X008867Y009908D01*
X008417Y009458D01*
X006717Y009458D01*
X006429Y009171D01*
X006217Y008958D01*
X007609Y010801D02*
X007609Y011114D01*
X007806Y011114D02*
X007806Y011619D01*
X007767Y011658D01*
X007468Y011747D01*
X007517Y011908D01*
X007678Y011957D01*
X007767Y011658D01*
X007517Y011908D01*
X008055Y013010D02*
X008217Y013058D01*
X008265Y013219D01*
X007966Y013309D01*
X008055Y013010D01*
X008217Y013058D02*
X007966Y013309D01*
X007609Y013666D01*
X007609Y015603D01*
X007412Y015603D02*
X007412Y013427D01*
X007665Y013245D01*
X007567Y013108D01*
X007399Y013116D01*
X007412Y013427D01*
X007412Y013263D01*
X007567Y013108D01*
X007128Y013862D02*
X006967Y013908D01*
X006917Y014069D01*
X007215Y014161D01*
X007128Y013862D01*
X006967Y013908D02*
X007215Y014157D01*
X007215Y014161D01*
X007215Y015603D01*
X007018Y015603D02*
X007018Y014560D01*
X006817Y014358D01*
X006709Y014358D01*
X006566Y014081D01*
X006417Y014158D01*
X006399Y014326D01*
X006709Y014358D01*
X006617Y014358D01*
X006417Y014158D01*
X006431Y014758D02*
X006567Y014858D01*
X006557Y015026D01*
X006246Y015009D01*
X006431Y014758D01*
X006367Y014858D02*
X006567Y014858D01*
X006367Y014858D02*
X006246Y015009D01*
X006167Y015108D01*
X005967Y015108D01*
X005837Y015238D01*
X005837Y015603D01*
X006617Y015610D02*
X006617Y015958D01*
X006717Y016058D01*
X006617Y015610D02*
X006624Y015603D01*
X008002Y015603D02*
X008002Y015273D01*
X008116Y015159D01*
X008415Y015069D01*
X008367Y014908D01*
X008205Y014860D01*
X008116Y015159D01*
X008367Y014908D01*
X008396Y015603D02*
X008396Y015988D01*
X008701Y016293D01*
X008651Y016358D01*
X008717Y016408D01*
X008667Y016374D02*
X008651Y016358D01*
X008199Y016026D02*
X007967Y016258D01*
X007982Y016358D02*
X007967Y016424D01*
X008199Y016026D02*
X008199Y015603D01*
X007117Y019208D02*
X007068Y019257D01*
X007068Y019258D01*
X004067Y014624D02*
X004217Y014474D01*
X004217Y014463D01*
X004364Y014188D01*
X004217Y014108D01*
X004069Y014188D01*
X004217Y014463D01*
X004217Y014108D01*
X004167Y010358D02*
X004019Y010279D01*
X004167Y010004D01*
X004314Y010279D01*
X004167Y010358D01*
X004167Y010004D01*
X004167Y009759D01*
X003782Y009375D01*
X003504Y009096D01*
X008217Y008958D02*
X008429Y009171D01*
X009067Y009808D01*
X008593Y010308D02*
X008593Y011114D01*
X008593Y011482D01*
X008593Y010308D02*
X008451Y010308D01*
D11*
X009361Y011882D03*
X009361Y012079D03*
X009361Y012276D03*
X009361Y012473D03*
X009361Y012669D03*
X009361Y012866D03*
X009361Y013063D03*
X009361Y013260D03*
X009361Y013457D03*
X009361Y013654D03*
X009361Y013851D03*
X009361Y014047D03*
X009361Y014244D03*
X009361Y014441D03*
X009361Y014638D03*
X009361Y014835D03*
X004872Y014835D03*
X004872Y014638D03*
X004872Y014441D03*
X004872Y014244D03*
X004872Y014047D03*
X004872Y013851D03*
X004872Y013654D03*
X004872Y013457D03*
X004872Y013260D03*
X004872Y013063D03*
X004872Y012866D03*
X004872Y012669D03*
X004872Y012473D03*
X004872Y012276D03*
X004872Y012079D03*
X004872Y011882D03*
D12*
X005640Y011114D03*
X005837Y011114D03*
X006034Y011114D03*
X006231Y011114D03*
X006428Y011114D03*
X006624Y011114D03*
X006821Y011114D03*
X007018Y011114D03*
X007215Y011114D03*
X007412Y011114D03*
X007609Y011114D03*
X007806Y011114D03*
X008002Y011114D03*
X008199Y011114D03*
X008396Y011114D03*
X008593Y011114D03*
X008593Y015603D03*
X008396Y015603D03*
X008199Y015603D03*
X008002Y015603D03*
X007806Y015603D03*
X007609Y015603D03*
X007412Y015603D03*
X007215Y015603D03*
X007018Y015603D03*
X006821Y015603D03*
X006624Y015603D03*
X006428Y015603D03*
X006231Y015603D03*
X006034Y015603D03*
X005837Y015603D03*
X005640Y015603D03*
D13*
X010167Y019258D03*
X011466Y019258D03*
X011767Y004458D03*
X013066Y004458D03*
D14*
X018223Y005484D03*
X018223Y006232D03*
X018223Y006984D03*
X018223Y007732D03*
X019050Y007358D03*
X019050Y005858D03*
X018223Y015984D03*
X018223Y016732D03*
X018223Y017484D03*
X018223Y018232D03*
X019050Y017858D03*
X019050Y016358D03*
X005010Y015984D03*
X005010Y016732D03*
X005010Y017484D03*
X005010Y018232D03*
X004183Y017858D03*
X004183Y016358D03*
X005010Y007732D03*
X005010Y006984D03*
X005010Y006232D03*
X005010Y005484D03*
X004183Y005858D03*
X004183Y007358D03*
D15*
X002717Y006693D03*
X002717Y006024D03*
X007217Y005974D03*
X007217Y006643D03*
X010617Y004743D03*
X010617Y004074D03*
X016667Y009074D03*
X016667Y009743D03*
X017567Y009743D03*
X017567Y009074D03*
X020517Y006693D03*
X020517Y006024D03*
X019117Y013274D03*
X019117Y013943D03*
X020517Y017024D03*
X020517Y017693D03*
X015867Y017774D03*
X015867Y018443D03*
X015867Y019024D03*
X015867Y019693D03*
X014117Y018443D03*
X014117Y017774D03*
X012967Y018924D03*
X012967Y019593D03*
X012267Y019593D03*
X012267Y018924D03*
X004067Y015293D03*
X004067Y014624D03*
X003817Y012943D03*
X003817Y012274D03*
X002717Y017024D03*
X002717Y017693D03*
D16*
X002517Y017858D03*
X002517Y016858D03*
X002517Y006858D03*
X002517Y005858D03*
X020717Y005858D03*
X020717Y006858D03*
X020717Y008358D03*
X020717Y009358D03*
X020717Y016858D03*
X020717Y017858D03*
D17*
X017451Y018158D03*
X016782Y018158D03*
X016782Y017258D03*
X017451Y017258D03*
X017451Y016108D03*
X016782Y016108D03*
X015351Y013808D03*
X014682Y013808D03*
X018282Y010358D03*
X018951Y010358D03*
X017451Y007258D03*
X016782Y007258D03*
X016782Y006358D03*
X017451Y006358D03*
X017451Y005458D03*
X016782Y005458D03*
X009201Y005358D03*
X008532Y005358D03*
X008582Y007458D03*
X009251Y007458D03*
X007901Y007458D03*
X007232Y007458D03*
X006451Y007158D03*
X005782Y007158D03*
X005782Y006258D03*
X006451Y006258D03*
X006451Y005358D03*
X005782Y005358D03*
X006032Y004258D03*
X006701Y004258D03*
X007782Y010308D03*
X008451Y010308D03*
X008651Y016358D03*
X007982Y016358D03*
X006451Y016858D03*
X005782Y016858D03*
X005782Y017658D03*
X006451Y017658D03*
X006451Y018458D03*
X005782Y018458D03*
X016782Y019058D03*
X017451Y019058D03*
D18*
X018967Y019858D02*
X018969Y019908D01*
X018975Y019958D01*
X018985Y020008D01*
X018998Y020056D01*
X019015Y020104D01*
X019036Y020150D01*
X019060Y020194D01*
X019088Y020236D01*
X019119Y020276D01*
X019153Y020313D01*
X019190Y020348D01*
X019229Y020379D01*
X019270Y020408D01*
X019314Y020433D01*
X019360Y020455D01*
X019407Y020473D01*
X019455Y020487D01*
X019504Y020498D01*
X019554Y020505D01*
X019604Y020508D01*
X019655Y020507D01*
X019705Y020502D01*
X019755Y020493D01*
X019803Y020481D01*
X019851Y020464D01*
X019897Y020444D01*
X019942Y020421D01*
X019985Y020394D01*
X020025Y020364D01*
X020063Y020331D01*
X020098Y020295D01*
X020131Y020256D01*
X020160Y020215D01*
X020186Y020172D01*
X020209Y020127D01*
X020228Y020080D01*
X020243Y020032D01*
X020255Y019983D01*
X020263Y019933D01*
X020267Y019883D01*
X020267Y019833D01*
X020263Y019783D01*
X020255Y019733D01*
X020243Y019684D01*
X020228Y019636D01*
X020209Y019589D01*
X020186Y019544D01*
X020160Y019501D01*
X020131Y019460D01*
X020098Y019421D01*
X020063Y019385D01*
X020025Y019352D01*
X019985Y019322D01*
X019942Y019295D01*
X019897Y019272D01*
X019851Y019252D01*
X019803Y019235D01*
X019755Y019223D01*
X019705Y019214D01*
X019655Y019209D01*
X019604Y019208D01*
X019554Y019211D01*
X019504Y019218D01*
X019455Y019229D01*
X019407Y019243D01*
X019360Y019261D01*
X019314Y019283D01*
X019270Y019308D01*
X019229Y019337D01*
X019190Y019368D01*
X019153Y019403D01*
X019119Y019440D01*
X019088Y019480D01*
X019060Y019522D01*
X019036Y019566D01*
X019015Y019612D01*
X018998Y019660D01*
X018985Y019708D01*
X018975Y019758D01*
X018969Y019808D01*
X018967Y019858D01*
X020467Y006108D02*
X020704Y005918D01*
X020717Y005908D01*
X020517Y006024D02*
X020517Y006058D01*
X020467Y006108D01*
X020467Y005908D01*
X018967Y003858D02*
X018969Y003908D01*
X018975Y003958D01*
X018985Y004008D01*
X018998Y004056D01*
X019015Y004104D01*
X019036Y004150D01*
X019060Y004194D01*
X019088Y004236D01*
X019119Y004276D01*
X019153Y004313D01*
X019190Y004348D01*
X019229Y004379D01*
X019270Y004408D01*
X019314Y004433D01*
X019360Y004455D01*
X019407Y004473D01*
X019455Y004487D01*
X019504Y004498D01*
X019554Y004505D01*
X019604Y004508D01*
X019655Y004507D01*
X019705Y004502D01*
X019755Y004493D01*
X019803Y004481D01*
X019851Y004464D01*
X019897Y004444D01*
X019942Y004421D01*
X019985Y004394D01*
X020025Y004364D01*
X020063Y004331D01*
X020098Y004295D01*
X020131Y004256D01*
X020160Y004215D01*
X020186Y004172D01*
X020209Y004127D01*
X020228Y004080D01*
X020243Y004032D01*
X020255Y003983D01*
X020263Y003933D01*
X020267Y003883D01*
X020267Y003833D01*
X020263Y003783D01*
X020255Y003733D01*
X020243Y003684D01*
X020228Y003636D01*
X020209Y003589D01*
X020186Y003544D01*
X020160Y003501D01*
X020131Y003460D01*
X020098Y003421D01*
X020063Y003385D01*
X020025Y003352D01*
X019985Y003322D01*
X019942Y003295D01*
X019897Y003272D01*
X019851Y003252D01*
X019803Y003235D01*
X019755Y003223D01*
X019705Y003214D01*
X019655Y003209D01*
X019604Y003208D01*
X019554Y003211D01*
X019504Y003218D01*
X019455Y003229D01*
X019407Y003243D01*
X019360Y003261D01*
X019314Y003283D01*
X019270Y003308D01*
X019229Y003337D01*
X019190Y003368D01*
X019153Y003403D01*
X019119Y003440D01*
X019088Y003480D01*
X019060Y003522D01*
X019036Y003566D01*
X019015Y003612D01*
X018998Y003660D01*
X018985Y003708D01*
X018975Y003758D01*
X018969Y003808D01*
X018967Y003858D01*
X002967Y003858D02*
X002969Y003908D01*
X002975Y003958D01*
X002985Y004008D01*
X002998Y004056D01*
X003015Y004104D01*
X003036Y004150D01*
X003060Y004194D01*
X003088Y004236D01*
X003119Y004276D01*
X003153Y004313D01*
X003190Y004348D01*
X003229Y004379D01*
X003270Y004408D01*
X003314Y004433D01*
X003360Y004455D01*
X003407Y004473D01*
X003455Y004487D01*
X003504Y004498D01*
X003554Y004505D01*
X003604Y004508D01*
X003655Y004507D01*
X003705Y004502D01*
X003755Y004493D01*
X003803Y004481D01*
X003851Y004464D01*
X003897Y004444D01*
X003942Y004421D01*
X003985Y004394D01*
X004025Y004364D01*
X004063Y004331D01*
X004098Y004295D01*
X004131Y004256D01*
X004160Y004215D01*
X004186Y004172D01*
X004209Y004127D01*
X004228Y004080D01*
X004243Y004032D01*
X004255Y003983D01*
X004263Y003933D01*
X004267Y003883D01*
X004267Y003833D01*
X004263Y003783D01*
X004255Y003733D01*
X004243Y003684D01*
X004228Y003636D01*
X004209Y003589D01*
X004186Y003544D01*
X004160Y003501D01*
X004131Y003460D01*
X004098Y003421D01*
X004063Y003385D01*
X004025Y003352D01*
X003985Y003322D01*
X003942Y003295D01*
X003897Y003272D01*
X003851Y003252D01*
X003803Y003235D01*
X003755Y003223D01*
X003705Y003214D01*
X003655Y003209D01*
X003604Y003208D01*
X003554Y003211D01*
X003504Y003218D01*
X003455Y003229D01*
X003407Y003243D01*
X003360Y003261D01*
X003314Y003283D01*
X003270Y003308D01*
X003229Y003337D01*
X003190Y003368D01*
X003153Y003403D01*
X003119Y003440D01*
X003088Y003480D01*
X003060Y003522D01*
X003036Y003566D01*
X003015Y003612D01*
X002998Y003660D01*
X002985Y003708D01*
X002975Y003758D01*
X002969Y003808D01*
X002967Y003858D01*
X002967Y019858D02*
X002969Y019908D01*
X002975Y019958D01*
X002985Y020008D01*
X002998Y020056D01*
X003015Y020104D01*
X003036Y020150D01*
X003060Y020194D01*
X003088Y020236D01*
X003119Y020276D01*
X003153Y020313D01*
X003190Y020348D01*
X003229Y020379D01*
X003270Y020408D01*
X003314Y020433D01*
X003360Y020455D01*
X003407Y020473D01*
X003455Y020487D01*
X003504Y020498D01*
X003554Y020505D01*
X003604Y020508D01*
X003655Y020507D01*
X003705Y020502D01*
X003755Y020493D01*
X003803Y020481D01*
X003851Y020464D01*
X003897Y020444D01*
X003942Y020421D01*
X003985Y020394D01*
X004025Y020364D01*
X004063Y020331D01*
X004098Y020295D01*
X004131Y020256D01*
X004160Y020215D01*
X004186Y020172D01*
X004209Y020127D01*
X004228Y020080D01*
X004243Y020032D01*
X004255Y019983D01*
X004263Y019933D01*
X004267Y019883D01*
X004267Y019833D01*
X004263Y019783D01*
X004255Y019733D01*
X004243Y019684D01*
X004228Y019636D01*
X004209Y019589D01*
X004186Y019544D01*
X004160Y019501D01*
X004131Y019460D01*
X004098Y019421D01*
X004063Y019385D01*
X004025Y019352D01*
X003985Y019322D01*
X003942Y019295D01*
X003897Y019272D01*
X003851Y019252D01*
X003803Y019235D01*
X003755Y019223D01*
X003705Y019214D01*
X003655Y019209D01*
X003604Y019208D01*
X003554Y019211D01*
X003504Y019218D01*
X003455Y019229D01*
X003407Y019243D01*
X003360Y019261D01*
X003314Y019283D01*
X003270Y019308D01*
X003229Y019337D01*
X003190Y019368D01*
X003153Y019403D01*
X003119Y019440D01*
X003088Y019480D01*
X003060Y019522D01*
X003036Y019566D01*
X003015Y019612D01*
X002998Y019660D01*
X002985Y019708D01*
X002975Y019758D01*
X002969Y019808D01*
X002967Y019858D01*
D19*
X007117Y020358D03*
X016117Y003358D03*
D20*
X014739Y003358D03*
X008494Y020358D03*
D21*
X002717Y011458D03*
D22*
X002717Y010671D03*
X003504Y010671D03*
X003504Y011458D03*
X003504Y009884D03*
X003504Y009096D03*
X003504Y008309D03*
X002717Y008309D03*
X002717Y009096D03*
X002717Y009884D03*
D23*
X002648Y012558D03*
X002648Y013558D03*
X002648Y014558D03*
X002648Y015558D03*
D24*
X007371Y020609D02*
X007371Y021907D01*
X007371Y020609D02*
X006663Y020609D01*
X006663Y021907D01*
X007371Y021907D01*
X007371Y020844D02*
X006663Y020844D01*
X006663Y021079D02*
X007371Y021079D01*
X007371Y021314D02*
X006663Y021314D01*
X006663Y021549D02*
X007371Y021549D01*
X007371Y021784D02*
X006663Y021784D01*
X015863Y003107D02*
X015863Y001809D01*
X015863Y003107D02*
X016571Y003107D01*
X016571Y001809D01*
X015863Y001809D01*
X015863Y002044D02*
X016571Y002044D01*
X016571Y002279D02*
X015863Y002279D01*
X015863Y002514D02*
X016571Y002514D01*
X016571Y002749D02*
X015863Y002749D01*
X015863Y002984D02*
X016571Y002984D01*
D25*
X008217Y008958D03*
X006217Y008958D03*
D26*
X009817Y004704D03*
X009817Y004113D03*
X013067Y006363D03*
X013067Y006954D03*
X013867Y006954D03*
X013867Y006363D03*
X018321Y010908D03*
X018912Y010908D03*
D27*
X015367Y006158D03*
X015367Y004859D03*
D28*
X007068Y019258D03*
X005965Y019258D03*
D29*
X011417Y015608D03*
X012417Y015608D03*
X013417Y015608D03*
X014417Y015608D03*
X015417Y015608D03*
X015417Y008108D03*
X014417Y008108D03*
X013417Y008108D03*
X012417Y008108D03*
X011417Y008108D03*
D30*
X007991Y005320D03*
X007243Y005320D03*
X007243Y004297D03*
X007617Y004297D03*
X007991Y004297D03*
X014493Y018647D03*
X015241Y018647D03*
X015241Y019670D03*
X014867Y019670D03*
X014493Y019670D03*
D31*
X015973Y013788D03*
X015973Y013528D03*
X015970Y013268D03*
X015973Y013008D03*
X015973Y012748D03*
X015973Y012488D03*
X015973Y012228D03*
X015973Y011968D03*
X015973Y011708D03*
X015973Y011448D03*
X018273Y011448D03*
X018273Y011708D03*
X018273Y011968D03*
X018273Y012228D03*
X018273Y012488D03*
X018273Y012748D03*
X018273Y013008D03*
X018275Y013268D03*
X018273Y013528D03*
X018273Y013788D03*
D32*
X020717Y014145D03*
X020717Y013358D03*
X020717Y012571D03*
X020717Y011783D03*
X020717Y010996D03*
X020717Y010208D03*
X020717Y014933D03*
X020717Y015720D03*
D33*
X020717Y017858D02*
X020567Y017908D01*
X020117Y018358D01*
X020022Y018360D01*
X019927Y018367D01*
X019832Y018378D01*
X019738Y018394D01*
X019645Y018414D01*
X019554Y018439D01*
X019463Y018468D01*
X019374Y018501D01*
X019286Y018539D01*
X019201Y018580D01*
X019117Y018626D01*
X019036Y018675D01*
X018957Y018729D01*
X018881Y018786D01*
X018807Y018847D01*
X018737Y018911D01*
X018670Y018978D01*
X018606Y019048D01*
X018545Y019122D01*
X018488Y019198D01*
X018434Y019277D01*
X018385Y019358D01*
X018339Y019442D01*
X018298Y019527D01*
X018260Y019615D01*
X018227Y019704D01*
X018198Y019795D01*
X018173Y019886D01*
X018153Y019979D01*
X018137Y020073D01*
X018126Y020168D01*
X018119Y020263D01*
X018117Y020358D01*
X015217Y020358D01*
X014567Y020358D01*
X014417Y020358D01*
X014367Y020358D01*
X012967Y020358D01*
X010117Y020358D01*
X010117Y019058D01*
X010117Y018858D01*
X007117Y018858D01*
X007117Y019208D01*
X007117Y020358D01*
X005117Y020358D01*
X005115Y020263D01*
X005108Y020168D01*
X005097Y020073D01*
X005081Y019979D01*
X005061Y019886D01*
X005036Y019795D01*
X005007Y019704D01*
X004974Y019615D01*
X004936Y019527D01*
X004895Y019442D01*
X004849Y019358D01*
X004800Y019277D01*
X004746Y019198D01*
X004689Y019122D01*
X004628Y019048D01*
X004564Y018978D01*
X004497Y018911D01*
X004427Y018847D01*
X004353Y018786D01*
X004277Y018729D01*
X004198Y018675D01*
X004117Y018626D01*
X004033Y018580D01*
X003948Y018539D01*
X003860Y018501D01*
X003771Y018468D01*
X003680Y018439D01*
X003589Y018414D01*
X003496Y018394D01*
X003402Y018378D01*
X003307Y018367D01*
X003212Y018360D01*
X003117Y018358D01*
X002617Y017858D01*
X002517Y017858D01*
X002517Y005858D02*
X002617Y005858D01*
X003117Y005358D01*
X003212Y005356D01*
X003307Y005349D01*
X003402Y005338D01*
X003496Y005322D01*
X003589Y005302D01*
X003680Y005277D01*
X003771Y005248D01*
X003860Y005215D01*
X003948Y005177D01*
X004033Y005136D01*
X004117Y005090D01*
X004198Y005041D01*
X004277Y004987D01*
X004353Y004930D01*
X004427Y004869D01*
X004497Y004805D01*
X004564Y004738D01*
X004628Y004668D01*
X004689Y004594D01*
X004746Y004518D01*
X004800Y004439D01*
X004849Y004358D01*
X004895Y004274D01*
X004936Y004189D01*
X004974Y004101D01*
X005007Y004012D01*
X005036Y003921D01*
X005061Y003830D01*
X005081Y003737D01*
X005097Y003643D01*
X005108Y003548D01*
X005115Y003453D01*
X005117Y003358D01*
X007167Y003358D01*
X007917Y003358D01*
X008017Y003358D01*
X013117Y003358D01*
X013117Y004758D01*
X013117Y004858D01*
X015767Y004858D01*
X016117Y004858D01*
X016117Y003358D01*
X018117Y003358D01*
X018119Y003453D01*
X018126Y003548D01*
X018137Y003643D01*
X018153Y003737D01*
X018173Y003830D01*
X018198Y003921D01*
X018227Y004012D01*
X018260Y004101D01*
X018298Y004189D01*
X018339Y004274D01*
X018385Y004358D01*
X018434Y004439D01*
X018488Y004518D01*
X018545Y004594D01*
X018606Y004668D01*
X018670Y004738D01*
X018737Y004805D01*
X018807Y004869D01*
X018881Y004930D01*
X018957Y004987D01*
X019036Y005041D01*
X019117Y005090D01*
X019201Y005136D01*
X019286Y005177D01*
X019374Y005215D01*
X019463Y005248D01*
X019554Y005277D01*
X019645Y005302D01*
X019738Y005322D01*
X019832Y005338D01*
X019927Y005349D01*
X020022Y005356D01*
X020117Y005358D01*
X020467Y005708D01*
X020467Y005758D02*
X020517Y005858D01*
X020717Y005858D01*
D34*
X020717Y006693D02*
X020517Y006693D01*
X020717Y006693D02*
X020717Y006858D01*
X018517Y006958D02*
X018517Y006984D01*
X018223Y006984D01*
X018223Y006232D02*
X017577Y006232D01*
X017451Y006358D01*
X016782Y006358D02*
X016782Y007258D01*
X017451Y007258D02*
X017451Y007393D01*
X017817Y007758D01*
X018223Y005484D02*
X018517Y005484D01*
X018517Y005458D01*
X016117Y003358D02*
X016117Y002458D01*
X016217Y002458D01*
X013117Y004458D02*
X013117Y004758D01*
X013117Y004458D02*
X013066Y004458D01*
X010967Y005908D02*
X011044Y006090D01*
X010591Y006284D01*
X010785Y005831D01*
X010967Y005908D01*
X010591Y006284D01*
X009717Y007158D01*
X009717Y010139D01*
X009510Y010525D01*
X009667Y010608D01*
X009837Y010559D01*
X009717Y010139D01*
X009717Y010608D01*
X006451Y007158D02*
X006451Y006258D01*
X005782Y006258D02*
X005782Y007158D01*
X005782Y007258D01*
X005284Y007258D01*
X005010Y006984D01*
X005010Y006258D02*
X005010Y006232D01*
X004743Y006232D01*
X004717Y006258D01*
X005010Y005484D02*
X005656Y005484D01*
X005782Y005358D01*
X005782Y006258D01*
X006167Y004808D02*
X007617Y004808D01*
X007617Y004297D01*
X007617Y004808D02*
X008817Y004808D01*
X008882Y004743D01*
X009286Y004572D01*
X009217Y004408D01*
X009053Y004339D01*
X008882Y004743D01*
X009217Y004408D01*
X006167Y004808D02*
X006017Y004658D01*
X006017Y004258D01*
X005010Y007732D02*
X004743Y007732D01*
X004717Y007758D01*
X002717Y006693D02*
X002617Y006858D01*
X002517Y006858D01*
X002517Y006024D02*
X002517Y005858D01*
X002517Y006024D02*
X002717Y006024D01*
X002717Y011458D02*
X002717Y012490D01*
X002648Y012558D01*
X003117Y012558D01*
X003401Y012274D01*
X003817Y012274D01*
X002917Y015558D02*
X002648Y015558D01*
X004717Y016732D02*
X004717Y016758D01*
X004717Y016732D02*
X005010Y016732D01*
X005010Y017484D02*
X005608Y017484D01*
X005782Y017658D01*
X005782Y018458D01*
X005782Y017658D02*
X005782Y016858D01*
X006451Y016858D02*
X006451Y017658D01*
X005010Y018232D02*
X004717Y018232D01*
X004717Y018258D01*
X007017Y020358D02*
X007017Y021258D01*
X007017Y020358D02*
X007117Y020358D01*
X010117Y019258D02*
X010117Y019058D01*
X010117Y019258D02*
X010167Y019258D01*
X012267Y018924D02*
X012967Y018924D01*
X012967Y019593D02*
X012967Y019808D01*
X012967Y020358D01*
X013883Y019323D02*
X013817Y019158D01*
X013883Y018994D01*
X014289Y019158D01*
X013883Y019323D01*
X013817Y019158D02*
X014289Y019158D01*
X014867Y019158D01*
X014867Y019670D01*
X014867Y019158D02*
X015417Y019158D01*
X015551Y019024D01*
X015867Y019024D01*
X015667Y018558D02*
X015329Y018558D01*
X015241Y018647D01*
X015241Y018389D01*
X015403Y017923D01*
X015217Y017858D01*
X015037Y017940D01*
X015241Y018389D01*
X015241Y017882D01*
X015217Y017858D01*
X015782Y018443D02*
X015667Y018558D01*
X015782Y018443D02*
X015867Y018443D01*
X016782Y018158D02*
X016782Y017258D01*
X017451Y017258D02*
X017451Y018158D01*
X017525Y018232D01*
X017451Y018306D01*
X017451Y019058D01*
X017525Y018232D02*
X018223Y018232D01*
X018223Y017484D02*
X018517Y017484D01*
X018517Y017458D01*
X018197Y016758D02*
X017917Y016758D01*
X017451Y017224D01*
X017451Y017258D01*
X018197Y016758D02*
X018223Y016732D01*
X018223Y015984D02*
X018249Y015958D01*
X018517Y015958D01*
X018717Y014958D02*
X018571Y014898D01*
X018717Y014545D01*
X018862Y014898D01*
X018717Y014958D01*
X018717Y014545D01*
X018717Y013658D01*
X018586Y013528D01*
X018273Y013528D01*
X018275Y013268D02*
X018882Y013268D01*
X019117Y013274D01*
X008212Y016898D02*
X008067Y016545D01*
X007921Y016898D01*
X008067Y016958D01*
X008212Y016898D01*
X008067Y016958D02*
X008067Y016545D01*
X008067Y016443D01*
X007982Y016358D01*
D35*
X004183Y016358D02*
X004183Y017158D01*
X003467Y017158D01*
X003167Y016858D01*
X002517Y016858D01*
X002617Y016958D01*
X002717Y017024D01*
X002717Y017693D02*
X002617Y017758D01*
X002517Y017858D01*
X004183Y017858D02*
X004183Y016358D01*
X004183Y007358D02*
X004183Y006558D01*
X003567Y006558D01*
X003267Y006858D01*
X002517Y006858D01*
X004183Y007358D02*
X004183Y005858D01*
X019050Y005858D02*
X019050Y006608D01*
X019917Y006608D01*
X020117Y006808D01*
X020667Y006808D01*
X020717Y006858D01*
X020517Y006693D02*
X020482Y006693D01*
X019050Y006608D02*
X019050Y007358D01*
X019050Y016358D02*
X019050Y017108D01*
X019867Y017108D01*
X020117Y016858D01*
X020717Y016858D01*
X020617Y016958D01*
X020517Y017024D01*
X020517Y017693D02*
X020717Y017793D01*
X020717Y017858D01*
X019050Y017858D02*
X019050Y016358D01*
D36*
X015844Y019670D02*
X015867Y019693D01*
X015844Y019670D02*
X015241Y019670D01*
X015241Y020334D01*
X015217Y020358D01*
X014493Y020232D02*
X014367Y020358D01*
X014417Y020358D02*
X014443Y020332D01*
X014493Y018647D02*
X014289Y018443D01*
X014117Y018443D01*
X011606Y015446D02*
X011417Y015608D01*
X011181Y015525D01*
X011325Y015117D01*
X011606Y015446D01*
X012017Y010608D02*
X009717Y010608D01*
X008352Y008873D02*
X008217Y008958D01*
X008081Y008873D01*
X008217Y008658D01*
X008352Y008873D01*
X006352Y008873D02*
X006217Y008958D01*
X006081Y008873D01*
X006217Y008658D01*
X006352Y008873D01*
X007217Y005974D02*
X007243Y005948D01*
X007243Y005320D01*
X007243Y005850D01*
X007317Y005924D01*
X010951Y005924D01*
X009217Y004438D02*
X009217Y004408D01*
X008532Y005358D02*
X008029Y005358D01*
X007991Y005320D01*
X007243Y004297D02*
X007243Y003434D01*
X007167Y003358D01*
X007917Y003358D02*
X007991Y003432D01*
X007204Y004258D02*
X007243Y004297D01*
X007204Y004258D02*
X006701Y004258D01*
D37*
X020467Y005708D02*
X020467Y005758D01*
X020517Y005858D02*
X020576Y005918D01*
X020704Y005918D01*
D38*
X018672Y006986D02*
X018517Y006958D01*
X018401Y007066D01*
X018617Y007298D01*
X018672Y006986D01*
X018617Y007058D02*
X018617Y007298D01*
X018617Y007958D01*
X018417Y008158D01*
X017767Y008158D01*
X017659Y008051D01*
X017421Y007840D01*
X017317Y007958D01*
X017348Y008113D01*
X017659Y008051D01*
X017567Y007958D01*
X017317Y007958D01*
X017817Y007758D02*
X018197Y007758D01*
X018223Y007732D01*
X018617Y007058D02*
X018517Y006958D01*
X017451Y007258D02*
X017451Y006358D01*
X017416Y008708D02*
X017267Y008758D01*
X017216Y008908D01*
X017517Y009009D01*
X017416Y008708D01*
X017267Y008758D02*
X017517Y009009D01*
X017567Y009058D01*
X017567Y009074D01*
X017367Y010158D02*
X016268Y010158D01*
X016166Y009858D01*
X016017Y009908D01*
X015967Y010058D01*
X016268Y010158D01*
X016267Y010158D01*
X016017Y009908D01*
X016967Y010958D02*
X017117Y011008D01*
X017167Y011158D01*
X016866Y011259D01*
X016967Y010958D01*
X017117Y011008D02*
X016866Y011259D01*
X016417Y011708D01*
X015973Y011708D01*
X015993Y012208D02*
X015973Y012228D01*
X015973Y012488D02*
X016996Y012488D01*
X016516Y013008D02*
X016717Y013208D01*
X016578Y013285D01*
X016424Y013008D01*
X016738Y013052D01*
X016717Y013208D01*
X016516Y013008D02*
X016424Y013008D01*
X015973Y013008D01*
X015970Y013268D02*
X016126Y013268D01*
X017617Y012358D02*
X017617Y010408D01*
X017367Y010158D01*
X018273Y011448D02*
X019077Y011448D01*
X020167Y010358D01*
X020217Y010308D01*
X020317Y010208D01*
X020717Y010208D01*
X020517Y009558D02*
X020717Y009358D01*
X020717Y008358D02*
X020667Y008308D01*
X020667Y008108D01*
X020679Y010958D02*
X020167Y010958D01*
X019417Y011708D01*
X018273Y011708D01*
X018273Y011968D02*
X019757Y011968D01*
X019942Y011783D01*
X020717Y011783D01*
X020692Y011758D01*
X020717Y010996D02*
X020679Y010958D01*
X018273Y013008D02*
X017966Y013008D01*
X017867Y012908D01*
X017867Y012608D01*
X017617Y012358D01*
X011417Y015208D02*
X011325Y015117D01*
X010452Y014244D01*
X009361Y014244D01*
X008981Y014244D01*
X008917Y014308D01*
X008871Y014308D01*
X008587Y014167D01*
X008517Y014308D01*
X008587Y014450D01*
X008871Y014308D01*
X008517Y014308D01*
X008514Y013866D02*
X008517Y013708D01*
X008645Y013616D01*
X008831Y013873D01*
X008514Y013866D01*
X008517Y013708D02*
X008667Y013708D01*
X008831Y013873D01*
X009006Y014047D01*
X009361Y014047D01*
X009361Y011882D02*
X009361Y010968D01*
X009750Y010787D01*
X009667Y010608D01*
X009476Y010555D01*
X009361Y010968D01*
X009361Y010914D01*
X009667Y010608D01*
X008593Y011482D02*
X008446Y011629D01*
X008211Y011841D01*
X008317Y011958D01*
X008474Y011945D01*
X008446Y011629D01*
X008317Y011758D01*
X008317Y011958D01*
X005817Y014708D02*
X005904Y014840D01*
X005640Y015016D01*
X005659Y014699D01*
X005817Y014708D01*
X005640Y014885D01*
X005640Y015016D01*
X005640Y015603D01*
X005010Y015984D02*
X005010Y016087D01*
X005782Y016858D01*
X006451Y016858D02*
X006451Y016793D01*
X007967Y016424D02*
X007967Y016258D01*
X008667Y016308D02*
X008667Y016374D01*
X011417Y015608D02*
X011417Y015208D01*
X008217Y008958D02*
X008217Y008658D01*
X008217Y008058D01*
X008467Y007808D01*
X008467Y007574D01*
X008517Y007524D01*
X007117Y007524D02*
X007117Y007958D01*
X006817Y008258D01*
X006567Y008258D01*
X006217Y008608D01*
X006217Y008658D01*
X006217Y008958D01*
X004874Y013258D02*
X004872Y013260D01*
X004717Y016758D02*
X004832Y016866D01*
X004617Y017098D01*
X004561Y016786D01*
X004717Y016758D01*
X004617Y016858D01*
X004617Y017098D01*
X004617Y017918D01*
X004561Y018231D01*
X004717Y018258D01*
X004832Y018151D01*
X004617Y017918D01*
X004617Y018158D01*
X004717Y018258D01*
X010951Y005924D02*
X010967Y005908D01*
D39*
X010967Y005908D03*
X012017Y010608D03*
X015217Y017858D03*
D40*
X014517Y017208D03*
X012967Y017008D03*
X012367Y017008D03*
X012267Y018258D03*
X010817Y018258D03*
X010517Y016808D03*
X009467Y016808D03*
X010217Y015558D03*
X011217Y014358D03*
X012067Y013058D03*
X013317Y013208D03*
X014167Y013808D03*
X013917Y011558D03*
X013017Y010258D03*
X013467Y009558D03*
X012567Y009558D03*
X011617Y009558D03*
X010167Y008558D03*
X010317Y007508D03*
X010867Y006958D03*
X012167Y005858D03*
X013067Y005858D03*
X013867Y005858D03*
X014717Y004158D03*
X017317Y004608D03*
X018517Y005458D03*
X019717Y006008D03*
X019717Y007208D03*
X019867Y008108D03*
X018717Y008508D03*
X018617Y009358D03*
X019417Y009858D03*
X019967Y009558D03*
X018517Y006958D03*
X017317Y007958D03*
X017267Y008758D03*
X016267Y007858D03*
X016117Y006958D03*
X014917Y009008D03*
X016017Y009908D03*
X016367Y010958D03*
X017117Y011008D03*
X017167Y011608D03*
X017217Y012158D03*
X017467Y012908D03*
X016717Y013208D03*
X017117Y013708D03*
X017167Y015508D03*
X017117Y016708D03*
X016367Y016808D03*
X018067Y018758D03*
X017117Y019708D03*
X018717Y020858D03*
X020617Y018958D03*
X019667Y017708D03*
X018517Y017458D03*
X019667Y016508D03*
X018517Y015958D03*
X019717Y014958D03*
X019717Y013908D03*
X020617Y004758D03*
X018767Y002808D03*
X011067Y004758D03*
X009467Y006608D03*
X008167Y006608D03*
X006667Y007758D03*
X005217Y008908D03*
X004217Y009208D03*
X004217Y008158D03*
X004717Y007758D03*
X003517Y007358D03*
X004717Y006258D03*
X003517Y006008D03*
X002567Y004708D03*
X004517Y002858D03*
X005267Y004858D03*
X007117Y010108D03*
X006517Y010258D03*
X005817Y010258D03*
X005217Y010508D03*
X005217Y011058D03*
X005567Y012258D03*
X005817Y013758D03*
X006417Y014158D03*
X006967Y013908D03*
X007567Y013108D03*
X008217Y013058D03*
X008517Y013708D03*
X008517Y014308D03*
X008367Y014908D03*
X006567Y014858D03*
X004917Y015408D03*
X004217Y014108D03*
X003117Y013208D03*
X004167Y010358D03*
X007517Y011908D03*
X008317Y011958D03*
X010117Y011908D03*
X004717Y016758D03*
X003517Y017708D03*
X004717Y018258D03*
X002617Y018958D03*
X004517Y020858D03*
X008117Y019608D03*
X009467Y020008D03*
X010817Y019758D03*
D41*
X008067Y016958D03*
D42*
X005817Y014708D03*
D43*
X009667Y010608D03*
D44*
X008429Y009171D02*
X008395Y008933D01*
X008217Y008958D01*
X008191Y009137D01*
X008429Y009171D01*
X006429Y009171D02*
X006395Y008933D01*
X006217Y008958D01*
X006191Y009137D01*
X006429Y009171D01*
X003782Y009375D02*
X003673Y009041D01*
X003504Y009096D01*
X003449Y009265D01*
X003782Y009375D01*
X013063Y015255D02*
X013153Y015666D01*
X013417Y015608D01*
X013474Y015345D01*
X013063Y015255D01*
X014063Y015255D02*
X014153Y015666D01*
X014417Y015608D01*
X014474Y015345D01*
X014063Y015255D01*
X015063Y015255D02*
X015153Y015666D01*
X015417Y015608D01*
X015474Y015345D01*
X015063Y015255D01*
X015417Y008608D02*
X015644Y008254D01*
X015417Y008108D01*
X015189Y008254D01*
X015417Y008608D01*
D45*
X002592Y002834D02*
X002425Y003064D01*
X002338Y003334D01*
X002326Y003476D01*
X002326Y005403D01*
X002492Y005403D01*
X002769Y005126D01*
X002884Y005011D01*
X003035Y004948D01*
X003117Y004948D01*
X003295Y004938D01*
X003642Y004859D01*
X003814Y004776D01*
X003781Y004788D01*
X003780Y004788D01*
X003699Y004788D01*
X003616Y004788D01*
X003607Y004788D01*
X003534Y004788D01*
X003453Y004788D01*
X003453Y004788D01*
X003144Y004676D01*
X002893Y004465D01*
X002729Y004181D01*
X002672Y003858D01*
X002729Y003535D01*
X002893Y003251D01*
X003144Y003041D01*
X003144Y003041D01*
X003453Y002928D01*
X003616Y002928D01*
X003699Y002928D01*
X003780Y002928D01*
X003781Y002928D01*
X004089Y003041D01*
X004340Y003251D01*
X004340Y003251D01*
X004340Y003251D01*
X004504Y003535D01*
X004504Y003535D01*
X004561Y003858D01*
X004561Y003858D01*
X004521Y004083D01*
X004617Y003884D01*
X004697Y003536D01*
X004707Y003359D01*
X004707Y003277D01*
X004769Y003126D01*
X004884Y003011D01*
X005035Y002948D01*
X007085Y002948D01*
X007835Y002948D01*
X007935Y002948D01*
X013035Y002948D01*
X013198Y002948D01*
X013349Y003011D01*
X013464Y003126D01*
X013526Y003277D01*
X013526Y004448D01*
X015685Y004448D01*
X015707Y004448D01*
X015707Y003918D01*
X015650Y003918D01*
X015557Y003825D01*
X015557Y004448D01*
X015707Y004438D02*
X013526Y004438D01*
X013637Y004448D02*
X013637Y002568D01*
X013797Y002568D02*
X013797Y004448D01*
X013957Y004448D02*
X013957Y002568D01*
X014117Y002568D02*
X014117Y004448D01*
X014277Y004448D02*
X014277Y003641D01*
X014238Y003566D01*
X014212Y003485D01*
X014199Y003401D01*
X014199Y003398D01*
X014698Y003398D01*
X014698Y003318D01*
X013526Y003318D01*
X013526Y003478D02*
X014211Y003478D01*
X014277Y003398D02*
X014277Y003318D01*
X014199Y003316D02*
X014212Y003232D01*
X014238Y003151D01*
X014277Y003075D01*
X014327Y003007D01*
X014387Y002947D01*
X014456Y002897D01*
X014531Y002858D01*
X014612Y002832D01*
X014696Y002818D01*
X014699Y002818D01*
X014699Y003318D01*
X014779Y003318D01*
X015557Y003318D01*
X015557Y003158D02*
X015241Y003158D01*
X015239Y003151D02*
X015265Y003232D01*
X015279Y003316D01*
X015279Y003318D01*
X014779Y003318D01*
X014779Y003398D01*
X015279Y003398D01*
X015279Y003401D01*
X015265Y003485D01*
X015239Y003566D01*
X015200Y003641D01*
X015150Y003710D01*
X015090Y003770D01*
X015022Y003820D01*
X014946Y003859D01*
X014865Y003885D01*
X014781Y003898D01*
X014779Y003898D01*
X014779Y003399D01*
X014699Y003399D01*
X014699Y003898D01*
X014696Y003898D01*
X014612Y003885D01*
X014531Y003859D01*
X014456Y003820D01*
X014387Y003770D01*
X014327Y003710D01*
X014277Y003641D01*
X014275Y003638D02*
X013526Y003638D01*
X013526Y003798D02*
X014426Y003798D01*
X014437Y003806D02*
X014437Y004448D01*
X014597Y004448D02*
X014597Y003880D01*
X014699Y003798D02*
X014779Y003798D01*
X014917Y003868D02*
X014917Y004448D01*
X015077Y004448D02*
X015077Y003780D01*
X015052Y003798D02*
X015557Y003798D01*
X015557Y003825D02*
X015557Y002892D01*
X015557Y002568D01*
X015584Y002568D02*
X003235Y002568D01*
X003092Y002580D01*
X002822Y002667D01*
X002592Y002834D01*
X002590Y002838D02*
X014591Y002838D01*
X014597Y002837D02*
X014597Y002568D01*
X014757Y002568D02*
X014757Y003318D01*
X014779Y003318D02*
X014779Y002818D01*
X014781Y002818D01*
X014865Y002832D01*
X014946Y002858D01*
X015022Y002897D01*
X015090Y002947D01*
X015150Y003007D01*
X015200Y003075D01*
X015239Y003151D01*
X015237Y003146D02*
X015237Y002568D01*
X015397Y002568D02*
X015397Y004448D01*
X015237Y004448D02*
X015237Y003570D01*
X015202Y003638D02*
X015557Y003638D01*
X015557Y003478D02*
X015266Y003478D01*
X015237Y003398D02*
X015237Y003318D01*
X015077Y003318D02*
X015077Y003398D01*
X014917Y003398D02*
X014917Y003318D01*
X014757Y003399D02*
X014757Y004448D01*
X014779Y003638D02*
X014699Y003638D01*
X014699Y003478D02*
X014779Y003478D01*
X014698Y003318D02*
X014199Y003318D01*
X014199Y003316D01*
X014236Y003158D02*
X013477Y003158D01*
X013477Y003156D02*
X013477Y002568D01*
X013317Y002568D02*
X013317Y002997D01*
X013319Y002998D02*
X014335Y002998D01*
X014277Y003076D02*
X014277Y002568D01*
X014437Y002568D02*
X014437Y002910D01*
X014699Y002838D02*
X014779Y002838D01*
X014886Y002838D02*
X015584Y002838D01*
X015584Y002865D02*
X015584Y002568D01*
X015584Y002678D02*
X002807Y002678D01*
X002757Y002715D02*
X002757Y003488D01*
X002762Y003478D02*
X002326Y003478D01*
X002343Y003318D02*
X002854Y003318D01*
X002893Y003251D02*
X002893Y003251D01*
X002917Y003232D02*
X002917Y002637D01*
X003077Y002585D02*
X003077Y003098D01*
X003004Y003158D02*
X002395Y003158D01*
X002437Y003049D02*
X002437Y005403D01*
X002497Y005398D02*
X002326Y005398D01*
X002326Y005238D02*
X002657Y005238D01*
X002597Y005299D02*
X002597Y002831D01*
X002473Y002998D02*
X003260Y002998D01*
X003237Y003007D02*
X003237Y002568D01*
X003397Y002568D02*
X003397Y002949D01*
X003453Y002928D02*
X003453Y002928D01*
X003557Y002928D02*
X003557Y002568D01*
X003717Y002568D02*
X003717Y002928D01*
X003877Y002963D02*
X003877Y002568D01*
X004037Y002568D02*
X004037Y003022D01*
X004089Y003041D02*
X004089Y003041D01*
X003973Y002998D02*
X004914Y002998D01*
X004997Y002964D02*
X004997Y002568D01*
X005157Y002568D02*
X005157Y002948D01*
X005317Y002948D02*
X005317Y002568D01*
X005477Y002568D02*
X005477Y002948D01*
X005637Y002948D02*
X005637Y002568D01*
X005797Y002568D02*
X005797Y002948D01*
X005957Y002948D02*
X005957Y002568D01*
X006117Y002568D02*
X006117Y002948D01*
X006277Y002948D02*
X006277Y002568D01*
X006437Y002568D02*
X006437Y002948D01*
X006597Y002948D02*
X006597Y002568D01*
X006757Y002568D02*
X006757Y002948D01*
X006917Y002948D02*
X006917Y002568D01*
X007077Y002568D02*
X007077Y002948D01*
X007237Y002948D02*
X007237Y002568D01*
X007397Y002568D02*
X007397Y002948D01*
X007557Y002948D02*
X007557Y002568D01*
X007717Y002568D02*
X007717Y002948D01*
X007877Y002948D02*
X007877Y002568D01*
X008037Y002568D02*
X008037Y002948D01*
X008197Y002948D02*
X008197Y002568D01*
X008357Y002568D02*
X008357Y002948D01*
X008517Y002948D02*
X008517Y002568D01*
X008677Y002568D02*
X008677Y002948D01*
X008837Y002948D02*
X008837Y002568D01*
X008997Y002568D02*
X008997Y002948D01*
X009157Y002948D02*
X009157Y002568D01*
X009317Y002568D02*
X009317Y002948D01*
X009477Y002948D02*
X009477Y002568D01*
X009637Y002568D02*
X009637Y002948D01*
X009797Y002948D02*
X009797Y002568D01*
X009957Y002568D02*
X009957Y002948D01*
X010117Y002948D02*
X010117Y002568D01*
X010277Y002568D02*
X010277Y002948D01*
X010437Y002948D02*
X010437Y002568D01*
X010597Y002568D02*
X010597Y002948D01*
X010757Y002948D02*
X010757Y002568D01*
X010917Y002568D02*
X010917Y002948D01*
X011077Y002948D02*
X011077Y002568D01*
X011237Y002568D02*
X011237Y002948D01*
X011397Y002948D02*
X011397Y002568D01*
X011557Y002568D02*
X011557Y002948D01*
X011717Y002948D02*
X011717Y002568D01*
X011877Y002568D02*
X011877Y002948D01*
X012037Y002948D02*
X012037Y002568D01*
X012197Y002568D02*
X012197Y002948D01*
X012357Y002948D02*
X012357Y002568D01*
X012517Y002568D02*
X012517Y002948D01*
X012677Y002948D02*
X012677Y002568D01*
X012837Y002568D02*
X012837Y002948D01*
X012997Y002948D02*
X012997Y002568D01*
X013157Y002568D02*
X013157Y002948D01*
X012707Y003768D02*
X010951Y003768D01*
X010973Y003791D01*
X010973Y004357D01*
X010924Y004405D01*
X010964Y004384D01*
X010974Y004387D01*
X010991Y004380D01*
X011142Y004380D01*
X011281Y004438D01*
X011387Y004544D01*
X011391Y004553D01*
X011391Y004498D01*
X011727Y004498D01*
X011727Y004418D01*
X011807Y004418D01*
X011807Y003826D01*
X012022Y003826D01*
X012057Y003836D01*
X012089Y003854D01*
X012115Y003880D01*
X012134Y003912D01*
X012143Y003948D01*
X012143Y004418D01*
X011807Y004418D01*
X011807Y004498D01*
X012143Y004498D01*
X012143Y004969D01*
X012134Y005005D01*
X012115Y005036D01*
X012089Y005063D01*
X012057Y005081D01*
X012022Y005091D01*
X011807Y005091D01*
X011807Y004499D01*
X011727Y004499D01*
X011727Y005091D01*
X011512Y005091D01*
X011477Y005081D01*
X011445Y005063D01*
X011419Y005036D01*
X011400Y005005D01*
X011391Y004969D01*
X011391Y004964D01*
X011387Y004973D01*
X011281Y005079D01*
X011142Y005136D01*
X010991Y005136D01*
X010974Y005129D01*
X010964Y005132D01*
X010964Y005132D01*
X010964Y005132D01*
X010910Y005103D01*
X010904Y005100D01*
X010900Y005099D01*
X010880Y005120D01*
X010826Y005120D01*
X010826Y005371D01*
X011058Y005471D01*
X011310Y005471D01*
X011404Y005565D01*
X011404Y006252D01*
X011310Y006346D01*
X011056Y006346D01*
X010728Y006487D01*
X009956Y007258D01*
X009956Y008236D01*
X009969Y008231D01*
X009975Y008221D01*
X010040Y008202D01*
X010091Y008180D01*
X010111Y008180D01*
X010141Y008171D01*
X010306Y008122D01*
X010330Y008098D01*
X011561Y006867D01*
X011684Y006744D01*
X012749Y006744D01*
X012749Y006730D01*
X012821Y006658D01*
X012749Y006587D01*
X012749Y006139D01*
X012775Y006114D01*
X012760Y006087D01*
X012746Y006073D01*
X012725Y006021D01*
X012692Y005961D01*
X012696Y005951D01*
X012688Y005934D01*
X012688Y005783D01*
X012746Y005644D01*
X012852Y005538D01*
X012991Y005480D01*
X013142Y005480D01*
X013281Y005538D01*
X013387Y005644D01*
X013445Y005783D01*
X013445Y005934D01*
X013437Y005951D01*
X013441Y005961D01*
X013441Y005961D01*
X013409Y006020D01*
X013409Y006021D01*
X013387Y006073D01*
X013373Y006087D01*
X013358Y006114D01*
X013384Y006139D01*
X013384Y006587D01*
X013312Y006658D01*
X013384Y006730D01*
X013384Y007177D01*
X013290Y007271D01*
X012843Y007271D01*
X012749Y007177D01*
X012749Y007164D01*
X011858Y007164D01*
X011443Y007578D01*
X011522Y007578D01*
X011717Y007659D01*
X011866Y007808D01*
X011916Y007931D01*
X011967Y007808D01*
X012116Y007659D01*
X012311Y007578D01*
X012522Y007578D01*
X012717Y007659D01*
X012866Y007808D01*
X012916Y007931D01*
X012967Y007808D01*
X013116Y007659D01*
X013311Y007578D01*
X013522Y007578D01*
X013717Y007659D01*
X013866Y007808D01*
X013916Y007931D01*
X013967Y007808D01*
X014116Y007659D01*
X014311Y007578D01*
X014522Y007578D01*
X014717Y007659D01*
X014866Y007808D01*
X014917Y007931D01*
X014917Y007168D01*
X015077Y007168D02*
X015077Y007699D01*
X015116Y007659D02*
X015311Y007578D01*
X015522Y007578D01*
X015717Y007659D01*
X015853Y007795D01*
X015830Y007719D01*
X015806Y007695D01*
X015280Y007168D01*
X014184Y007168D01*
X014184Y007177D01*
X014090Y007271D01*
X013643Y007271D01*
X013549Y007177D01*
X013549Y006730D01*
X013621Y006658D01*
X013549Y006587D01*
X013549Y006139D01*
X013575Y006113D01*
X013561Y006088D01*
X013546Y006073D01*
X013525Y006023D01*
X013494Y005965D01*
X013497Y005954D01*
X013488Y005934D01*
X013488Y005783D01*
X013546Y005644D01*
X013652Y005538D01*
X013791Y005480D01*
X013942Y005480D01*
X014081Y005538D01*
X014187Y005644D01*
X014245Y005783D01*
X014245Y005934D01*
X014239Y005948D01*
X014242Y005957D01*
X014209Y006019D01*
X014187Y006073D01*
X014174Y006085D01*
X014159Y006114D01*
X014184Y006139D01*
X014184Y006587D01*
X014112Y006658D01*
X014184Y006730D01*
X014184Y006748D01*
X015454Y006748D01*
X015576Y006871D01*
X016103Y007398D01*
X016127Y007422D01*
X016292Y007471D01*
X016322Y007480D01*
X016342Y007480D01*
X016393Y007502D01*
X016405Y007505D01*
X016405Y006995D01*
X016499Y006902D01*
X016542Y006902D01*
X016542Y006715D01*
X016499Y006715D01*
X016405Y006622D01*
X016405Y006095D01*
X016499Y006002D01*
X017065Y006002D01*
X017117Y006053D01*
X017168Y006002D01*
X017241Y006002D01*
X017241Y005815D01*
X017168Y005815D01*
X017102Y005749D01*
X017084Y005767D01*
X017052Y005786D01*
X017017Y005795D01*
X016822Y005795D01*
X016822Y005499D01*
X016742Y005499D01*
X016742Y005795D01*
X016547Y005795D01*
X016511Y005786D01*
X016479Y005767D01*
X016453Y005741D01*
X016435Y005709D01*
X016425Y005674D01*
X016425Y005498D01*
X016742Y005498D01*
X016742Y005418D01*
X016822Y005418D01*
X016822Y005122D01*
X017017Y005122D01*
X017052Y005131D01*
X017084Y005150D01*
X017102Y005168D01*
X017168Y005102D01*
X017734Y005102D01*
X017828Y005195D01*
X017828Y005722D01*
X017734Y005815D01*
X017661Y005815D01*
X017661Y005992D01*
X017902Y005992D01*
X017979Y005915D01*
X018466Y005915D01*
X018560Y006009D01*
X018560Y006456D01*
X018466Y006550D01*
X017979Y006550D01*
X017902Y006472D01*
X017828Y006472D01*
X017828Y006622D01*
X017734Y006715D01*
X017671Y006715D01*
X017671Y006902D01*
X017734Y006902D01*
X017828Y006995D01*
X017828Y007430D01*
X017896Y007498D01*
X017979Y007415D01*
X018466Y007415D01*
X018560Y007509D01*
X018560Y007956D01*
X018466Y008050D01*
X017979Y008050D01*
X017909Y007980D01*
X017864Y007998D01*
X017769Y007998D01*
X017681Y007962D01*
X017334Y007615D01*
X017168Y007615D01*
X017116Y007563D01*
X017065Y007615D01*
X016992Y007615D01*
X016992Y008148D01*
X017104Y008148D01*
X017830Y008148D01*
X018004Y008148D01*
X018604Y008748D01*
X018730Y008748D01*
X018904Y008748D01*
X019104Y008948D01*
X019226Y009071D01*
X019226Y009471D01*
X019226Y009645D01*
X018870Y010002D01*
X019234Y010002D01*
X019328Y010095D01*
X019328Y010622D01*
X019234Y010715D01*
X019229Y010715D01*
X019229Y010985D01*
X019947Y010267D01*
X019997Y010217D01*
X020021Y010193D01*
X020143Y009989D01*
X020143Y009975D01*
X020165Y009953D01*
X020181Y009926D01*
X020196Y009922D01*
X020237Y009881D01*
X020907Y009881D01*
X020907Y009814D01*
X020558Y009814D01*
X020554Y009818D01*
X020281Y009818D01*
X020195Y009865D01*
X020181Y009879D01*
X020129Y009900D01*
X020128Y009901D01*
X020069Y009932D01*
X020069Y009932D01*
X020069Y009932D01*
X020059Y009929D01*
X020042Y009936D01*
X019891Y009936D01*
X019752Y009879D01*
X019646Y009773D01*
X019588Y009634D01*
X019588Y009483D01*
X019646Y009344D01*
X019752Y009238D01*
X019891Y009180D01*
X020042Y009180D01*
X020059Y009187D01*
X020069Y009184D01*
X020069Y009184D01*
X020129Y009216D01*
X020163Y009230D01*
X020163Y008997D01*
X020257Y008903D01*
X020907Y008903D01*
X020907Y008814D01*
X020257Y008814D01*
X020163Y008720D01*
X020163Y008418D01*
X020091Y008418D01*
X020081Y008429D01*
X020029Y008450D01*
X020028Y008451D01*
X019969Y008482D01*
X019959Y008479D01*
X019942Y008486D01*
X019791Y008486D01*
X019652Y008429D01*
X019546Y008323D01*
X019488Y008184D01*
X019488Y008033D01*
X019546Y007894D01*
X019652Y007788D01*
X019791Y007730D01*
X019942Y007730D01*
X019959Y007737D01*
X019969Y007734D01*
X019969Y007734D01*
X020029Y007767D01*
X020081Y007788D01*
X020095Y007802D01*
X020274Y007898D01*
X020565Y007898D01*
X020575Y007888D01*
X020758Y007888D01*
X020772Y007903D01*
X020907Y007903D01*
X020907Y007314D01*
X020257Y007314D01*
X020163Y007220D01*
X020163Y007128D01*
X020053Y007128D01*
X019935Y007080D01*
X019845Y006990D01*
X019784Y006928D01*
X019370Y006928D01*
X019370Y007117D01*
X019387Y007135D01*
X019387Y007582D01*
X019293Y007676D01*
X019119Y007676D01*
X019113Y007678D01*
X018986Y007678D01*
X018980Y007676D01*
X018806Y007676D01*
X018712Y007582D01*
X018712Y007135D01*
X018730Y007117D01*
X018730Y006672D01*
X018730Y006545D01*
X018730Y006099D01*
X018712Y006082D01*
X018712Y005635D01*
X018806Y005541D01*
X018980Y005541D01*
X018986Y005538D01*
X019089Y005538D01*
X018826Y005412D01*
X018402Y005073D01*
X018063Y004649D01*
X018063Y004649D01*
X017827Y004159D01*
X017738Y003768D01*
X016676Y003768D01*
X016676Y003825D01*
X016583Y003918D01*
X016526Y003918D01*
X016526Y004940D01*
X016464Y005091D01*
X016349Y005206D01*
X016198Y005268D01*
X016035Y005268D01*
X015685Y005268D01*
X013035Y005268D01*
X012884Y005206D01*
X012789Y005111D01*
X012764Y005111D01*
X012670Y005017D01*
X012670Y003900D01*
X012707Y003863D01*
X012707Y003768D01*
X012707Y003798D02*
X010973Y003798D01*
X011077Y003768D02*
X011077Y004380D01*
X010973Y004278D02*
X011391Y004278D01*
X011391Y004418D02*
X011391Y003948D01*
X011400Y003912D01*
X011419Y003880D01*
X011445Y003854D01*
X011477Y003836D01*
X011512Y003826D01*
X011727Y003826D01*
X011727Y004418D01*
X011391Y004418D01*
X011397Y004418D02*
X011397Y004498D01*
X011281Y004438D02*
X011727Y004438D01*
X011717Y004418D02*
X011717Y004498D01*
X011727Y004598D02*
X011807Y004598D01*
X011877Y004498D02*
X011877Y004418D01*
X011807Y004438D02*
X012670Y004438D01*
X012670Y004278D02*
X012143Y004278D01*
X012143Y004118D02*
X012670Y004118D01*
X012670Y003958D02*
X012143Y003958D01*
X012037Y003830D02*
X012037Y003768D01*
X012197Y003768D02*
X012197Y006744D01*
X012357Y006744D02*
X012357Y003768D01*
X012517Y003768D02*
X012517Y006744D01*
X012677Y006744D02*
X012677Y005023D01*
X012732Y005078D02*
X012062Y005078D01*
X012037Y005086D02*
X012037Y006744D01*
X011877Y006744D02*
X011877Y005091D01*
X011807Y005078D02*
X011727Y005078D01*
X011717Y005091D02*
X011717Y006744D01*
X011590Y006838D02*
X010376Y006838D01*
X010437Y006778D02*
X010437Y007991D01*
X010470Y007958D02*
X009956Y007958D01*
X009956Y007798D02*
X010630Y007798D01*
X010597Y007831D02*
X010597Y006618D01*
X010536Y006678D02*
X012801Y006678D01*
X012749Y006518D02*
X010696Y006518D01*
X010757Y006474D02*
X010757Y007671D01*
X010790Y007638D02*
X009956Y007638D01*
X009956Y007478D02*
X010950Y007478D01*
X010917Y007511D02*
X010917Y006406D01*
X011026Y006358D02*
X012749Y006358D01*
X012749Y006198D02*
X011404Y006198D01*
X011397Y006259D02*
X011397Y007031D01*
X011430Y006998D02*
X010216Y006998D01*
X010277Y006938D02*
X010277Y008131D01*
X010310Y008118D02*
X009956Y008118D01*
X009975Y008221D02*
X009975Y008221D01*
X009975Y008221D01*
X009957Y008236D02*
X009957Y007258D01*
X009956Y007318D02*
X011110Y007318D01*
X011077Y007351D02*
X011077Y006346D01*
X011237Y006346D02*
X011237Y007191D01*
X011270Y007158D02*
X010056Y007158D01*
X010117Y007098D02*
X010117Y008179D01*
X010141Y008171D02*
X010141Y008171D01*
X010603Y008419D02*
X010545Y008614D01*
X010545Y008634D01*
X010523Y008685D01*
X010504Y008750D01*
X010494Y008755D01*
X010487Y008773D01*
X010381Y008879D01*
X010242Y008936D01*
X010091Y008936D01*
X009956Y008881D01*
X009956Y010091D01*
X009956Y010103D01*
X009960Y010115D01*
X009960Y010117D01*
X009981Y010191D01*
X009990Y010191D01*
X010084Y010285D01*
X010084Y010328D01*
X011579Y010328D01*
X011579Y010265D01*
X011673Y010171D01*
X012360Y010171D01*
X012454Y010265D01*
X012454Y010952D01*
X012360Y011046D01*
X011673Y011046D01*
X011579Y010952D01*
X011579Y010888D01*
X010084Y010888D01*
X010084Y010932D01*
X009990Y011026D01*
X009759Y011026D01*
X009581Y011109D01*
X009581Y011663D01*
X009663Y011663D01*
X009757Y011757D01*
X009757Y011789D01*
X009760Y011782D01*
X009779Y011717D01*
X009779Y011717D01*
X009789Y011711D01*
X009796Y011694D01*
X009902Y011588D01*
X010041Y011530D01*
X010192Y011530D01*
X010331Y011588D01*
X010437Y011694D01*
X010495Y011833D01*
X010495Y011984D01*
X010437Y012123D01*
X010331Y012229D01*
X010314Y012236D01*
X010308Y012246D01*
X010252Y012263D01*
X011615Y012263D01*
X014357Y009521D01*
X014357Y009445D01*
X014357Y009271D01*
X014480Y009148D01*
X014529Y008983D01*
X014538Y008953D01*
X014538Y008933D01*
X014560Y008882D01*
X014579Y008817D01*
X014579Y008817D01*
X014589Y008811D01*
X014596Y008794D01*
X014702Y008688D01*
X014841Y008630D01*
X014992Y008630D01*
X015131Y008688D01*
X015207Y008764D01*
X015207Y008763D01*
X015200Y008753D01*
X015174Y008714D01*
X015172Y008710D01*
X015001Y008443D01*
X014967Y008409D01*
X014945Y008355D01*
X014942Y008351D01*
X014942Y008347D01*
X014917Y008286D01*
X014917Y008630D01*
X015077Y008665D02*
X015077Y008560D01*
X015101Y008598D02*
X014618Y008598D01*
X014597Y008607D02*
X014597Y008794D01*
X014579Y008817D02*
X014579Y008817D01*
X014632Y008758D02*
X010493Y008758D01*
X010437Y008823D02*
X010437Y010328D01*
X010597Y010328D02*
X010597Y008440D01*
X010597Y008438D02*
X010997Y008438D01*
X010967Y008409D02*
X010887Y008214D01*
X010887Y008135D01*
X010627Y008395D01*
X010603Y008419D01*
X010549Y008598D02*
X011215Y008598D01*
X011237Y008608D02*
X011237Y010328D01*
X011397Y010328D02*
X011397Y008638D01*
X011311Y008638D02*
X011116Y008558D01*
X010967Y008409D01*
X010917Y008286D02*
X010917Y010328D01*
X011077Y010328D02*
X011077Y008518D01*
X011311Y008638D02*
X011522Y008638D01*
X011717Y008558D01*
X011866Y008409D01*
X011916Y008286D01*
X011967Y008409D01*
X012116Y008558D01*
X012311Y008638D01*
X012522Y008638D01*
X012717Y008558D01*
X012866Y008409D01*
X012916Y008286D01*
X012967Y008409D01*
X013116Y008558D01*
X013311Y008638D01*
X013522Y008638D01*
X013717Y008558D01*
X013866Y008409D01*
X013916Y008286D01*
X013967Y008409D01*
X014116Y008558D01*
X014311Y008638D01*
X014522Y008638D01*
X014717Y008558D01*
X014866Y008409D01*
X014917Y008286D01*
X014997Y008438D02*
X014836Y008438D01*
X014757Y008518D02*
X014757Y008665D01*
X014545Y008918D02*
X010285Y008918D01*
X010277Y008922D02*
X010277Y010328D01*
X010117Y010328D02*
X010117Y008936D01*
X010048Y008918D02*
X009956Y008918D01*
X009957Y008881D02*
X009957Y010103D01*
X009956Y010038D02*
X013840Y010038D01*
X013797Y010081D02*
X013797Y008478D01*
X013836Y008438D02*
X013997Y008438D01*
X013957Y008383D02*
X013957Y009921D01*
X014000Y009878D02*
X009956Y009878D01*
X009956Y009718D02*
X014160Y009718D01*
X014117Y009761D02*
X014117Y008558D01*
X014215Y008598D02*
X013618Y008598D01*
X013637Y008591D02*
X013637Y010241D01*
X013680Y010198D02*
X012387Y010198D01*
X012357Y010171D02*
X012357Y008638D01*
X012215Y008598D02*
X011618Y008598D01*
X011557Y008624D02*
X011557Y010328D01*
X011646Y010198D02*
X009998Y010198D01*
X010117Y010888D02*
X010117Y011530D01*
X010277Y011565D02*
X010277Y010888D01*
X010437Y010888D02*
X010437Y011694D01*
X010381Y011638D02*
X012240Y011638D01*
X012197Y011681D02*
X012197Y011046D01*
X012357Y011046D02*
X012357Y011521D01*
X012400Y011478D02*
X009581Y011478D01*
X009581Y011318D02*
X012560Y011318D01*
X012517Y011361D02*
X012517Y008638D01*
X012618Y008598D02*
X013215Y008598D01*
X013157Y008574D02*
X013157Y010721D01*
X013200Y010678D02*
X012454Y010678D01*
X012454Y010518D02*
X013360Y010518D01*
X013317Y010561D02*
X013317Y008638D01*
X013477Y008638D02*
X013477Y010401D01*
X013520Y010358D02*
X012454Y010358D01*
X012197Y010171D02*
X012197Y008591D01*
X012037Y008478D02*
X012037Y010171D01*
X011877Y010171D02*
X011877Y008383D01*
X011836Y008438D02*
X011997Y008438D01*
X011717Y008558D02*
X011717Y010171D01*
X011557Y010888D02*
X011557Y012263D01*
X011397Y012263D02*
X011397Y010888D01*
X011237Y010888D02*
X011237Y012263D01*
X011077Y012263D02*
X011077Y010888D01*
X010917Y010888D02*
X010917Y012263D01*
X010757Y012263D02*
X010757Y010888D01*
X010597Y010888D02*
X010597Y012263D01*
X010437Y012263D02*
X010437Y012123D01*
X010439Y012118D02*
X011760Y012118D01*
X011717Y012161D02*
X011717Y011046D01*
X011626Y010998D02*
X010018Y010998D01*
X009957Y011026D02*
X009957Y011565D01*
X009852Y011638D02*
X009581Y011638D01*
X009637Y011663D02*
X009637Y011083D01*
X009581Y011158D02*
X012720Y011158D01*
X012677Y011201D02*
X012677Y008574D01*
X012836Y008438D02*
X012997Y008438D01*
X012997Y010881D01*
X013040Y010838D02*
X012454Y010838D01*
X012407Y010998D02*
X012880Y010998D01*
X012837Y011041D02*
X012837Y008438D01*
X012856Y007798D02*
X012977Y007798D01*
X012997Y007779D02*
X012997Y007271D01*
X013157Y007271D02*
X013157Y007642D01*
X013166Y007638D02*
X012667Y007638D01*
X012677Y007642D02*
X012677Y007164D01*
X012517Y007164D02*
X012517Y007578D01*
X012357Y007578D02*
X012357Y007164D01*
X012197Y007164D02*
X012197Y007626D01*
X012166Y007638D02*
X011667Y007638D01*
X011717Y007659D02*
X011717Y007305D01*
X011703Y007318D02*
X015430Y007318D01*
X015397Y007285D02*
X015397Y007578D01*
X015557Y007593D02*
X015557Y007445D01*
X015590Y007478D02*
X011543Y007478D01*
X011557Y007465D02*
X011557Y007593D01*
X011856Y007798D02*
X011977Y007798D01*
X012037Y007739D02*
X012037Y007164D01*
X011877Y007164D02*
X011877Y007834D01*
X010913Y008278D02*
X010743Y008278D01*
X010757Y008265D02*
X010757Y010328D01*
X009956Y009558D02*
X014320Y009558D01*
X014277Y009601D02*
X014277Y008624D01*
X014437Y008638D02*
X014437Y009191D01*
X014390Y009238D02*
X009956Y009238D01*
X009956Y009078D02*
X014501Y009078D01*
X014529Y008983D02*
X014529Y008983D01*
X014357Y009398D02*
X009956Y009398D01*
X009477Y009398D02*
X008953Y009398D01*
X008997Y009441D02*
X008997Y007790D01*
X008981Y007786D02*
X008949Y007767D01*
X008931Y007749D01*
X008865Y007815D01*
X008686Y007815D01*
X008686Y007900D01*
X008436Y008150D01*
X008436Y008482D01*
X008450Y008503D01*
X008477Y008542D01*
X008479Y008550D01*
X008562Y008682D01*
X008590Y008709D01*
X008609Y008755D01*
X008618Y008771D01*
X008618Y008771D01*
X008618Y008771D01*
X008621Y008785D01*
X008656Y008871D01*
X008656Y008927D01*
X008684Y009120D01*
X008687Y009132D01*
X009154Y009598D01*
X009276Y009721D01*
X009276Y010257D01*
X009343Y010191D01*
X009416Y010191D01*
X009477Y010078D01*
X009477Y007795D01*
X009291Y007795D01*
X009291Y007499D01*
X009211Y007499D01*
X009211Y007795D01*
X009016Y007795D01*
X008981Y007786D01*
X008881Y007798D02*
X009477Y007798D01*
X009477Y007958D02*
X008628Y007958D01*
X008677Y007909D02*
X008677Y009067D01*
X008678Y009078D02*
X009477Y009078D01*
X009477Y008918D02*
X008656Y008918D01*
X008611Y008758D02*
X009477Y008758D01*
X009477Y008598D02*
X008510Y008598D01*
X008517Y008609D02*
X008517Y008069D01*
X008468Y008118D02*
X009477Y008118D01*
X009477Y008278D02*
X008436Y008278D01*
X008436Y008438D02*
X009477Y008438D01*
X009317Y007795D02*
X009317Y010217D01*
X009335Y010198D02*
X009276Y010198D01*
X009276Y010038D02*
X009477Y010038D01*
X009477Y009878D02*
X009276Y009878D01*
X009274Y009718D02*
X009477Y009718D01*
X009477Y009558D02*
X009113Y009558D01*
X009157Y009601D02*
X009157Y007795D01*
X009211Y007638D02*
X009291Y007638D01*
X009291Y007498D02*
X009477Y007498D01*
X009477Y007418D01*
X009291Y007418D01*
X009291Y007122D01*
X009477Y007122D01*
X009477Y007111D01*
X009477Y006204D01*
X009637Y006204D02*
X009637Y006899D01*
X009697Y006838D02*
X007553Y006838D01*
X007553Y006878D02*
X007553Y006683D01*
X007257Y006683D01*
X007257Y006603D01*
X007553Y006603D01*
X007553Y006408D01*
X007544Y006372D01*
X007525Y006341D01*
X007507Y006323D01*
X007573Y006257D01*
X007573Y006204D01*
X010332Y006204D01*
X009513Y007022D01*
X009477Y007111D01*
X009537Y006998D02*
X007436Y006998D01*
X007432Y007000D02*
X007256Y007000D01*
X007256Y006683D01*
X007177Y006683D01*
X007177Y007000D01*
X007001Y007000D01*
X006966Y006990D01*
X006934Y006972D01*
X006908Y006946D01*
X006889Y006914D01*
X006880Y006878D01*
X006880Y006683D01*
X007176Y006683D01*
X007176Y006603D01*
X006880Y006603D01*
X006880Y006408D01*
X006889Y006372D01*
X006908Y006341D01*
X006926Y006323D01*
X006860Y006257D01*
X006860Y005691D01*
X006953Y005597D01*
X006963Y005597D01*
X006963Y005265D01*
X006974Y005236D01*
X006974Y005018D01*
X007068Y004924D01*
X007417Y004924D01*
X007511Y005018D01*
X007511Y005236D01*
X007522Y005265D01*
X007522Y005640D01*
X007526Y005644D01*
X007743Y005644D01*
X007722Y005623D01*
X007722Y005404D01*
X007711Y005376D01*
X007711Y005265D01*
X007722Y005236D01*
X007722Y005018D01*
X007816Y004924D01*
X008165Y004924D01*
X008246Y005005D01*
X008249Y005002D01*
X008815Y005002D01*
X008881Y005068D01*
X008899Y005050D01*
X008931Y005031D01*
X008966Y005022D01*
X009161Y005022D01*
X009161Y005318D01*
X009241Y005318D01*
X009241Y005022D01*
X009436Y005022D01*
X009472Y005031D01*
X009504Y005050D01*
X009530Y005076D01*
X009548Y005108D01*
X009558Y005143D01*
X009558Y005318D01*
X009241Y005318D01*
X009241Y005398D01*
X009558Y005398D01*
X009558Y005574D01*
X009548Y005609D01*
X009530Y005641D01*
X009527Y005644D01*
X010407Y005644D01*
X010407Y005548D01*
X010389Y005504D01*
X010394Y005494D01*
X010391Y005482D01*
X010407Y005454D01*
X010407Y005120D01*
X010353Y005120D01*
X010260Y005026D01*
X010260Y004460D01*
X010312Y004408D01*
X010260Y004357D01*
X010260Y004284D01*
X010134Y004284D01*
X010134Y004337D01*
X010045Y004426D01*
X010060Y004434D01*
X010086Y004460D01*
X010104Y004492D01*
X010114Y004528D01*
X010114Y004665D01*
X009856Y004665D01*
X009856Y004742D01*
X010114Y004742D01*
X010114Y004880D01*
X010104Y004915D01*
X010086Y004947D01*
X010060Y004973D01*
X010028Y004992D01*
X009992Y005001D01*
X009855Y005001D01*
X009855Y004743D01*
X009778Y004743D01*
X009778Y005001D01*
X009641Y005001D01*
X009605Y004992D01*
X009573Y004973D01*
X009547Y004947D01*
X009529Y004915D01*
X009519Y004880D01*
X009519Y004742D01*
X009778Y004742D01*
X009778Y004665D01*
X009519Y004665D01*
X009519Y004528D01*
X009529Y004492D01*
X009547Y004460D01*
X009573Y004434D01*
X009588Y004426D01*
X009499Y004337D01*
X009499Y003889D01*
X009593Y003796D01*
X010040Y003796D01*
X010108Y003864D01*
X010260Y003864D01*
X010260Y003791D01*
X010282Y003768D01*
X008201Y003768D01*
X008201Y003936D01*
X008259Y003994D01*
X008259Y004599D01*
X008165Y004693D01*
X007816Y004693D01*
X007784Y004660D01*
X007779Y004663D01*
X007743Y004673D01*
X007631Y004673D01*
X007631Y004311D01*
X007602Y004311D01*
X007602Y004673D01*
X007490Y004673D01*
X007454Y004663D01*
X007449Y004660D01*
X007417Y004693D01*
X007068Y004693D01*
X006987Y004612D01*
X006984Y004615D01*
X006418Y004615D01*
X006352Y004549D01*
X006334Y004567D01*
X006302Y004586D01*
X006267Y004595D01*
X006072Y004595D01*
X006072Y004299D01*
X005992Y004299D01*
X005992Y004595D01*
X005797Y004595D01*
X005761Y004586D01*
X005729Y004567D01*
X005703Y004541D01*
X005685Y004509D01*
X005675Y004474D01*
X005675Y004298D01*
X005992Y004298D01*
X005992Y004218D01*
X006072Y004218D01*
X006072Y003922D01*
X006267Y003922D01*
X006302Y003931D01*
X006334Y003950D01*
X006352Y003968D01*
X006418Y003902D01*
X006963Y003902D01*
X006963Y003768D01*
X005495Y003768D01*
X005406Y004159D01*
X005406Y004159D01*
X005170Y004649D01*
X004831Y005073D01*
X004407Y005412D01*
X004407Y005412D01*
X004144Y005538D01*
X004247Y005538D01*
X004253Y005541D01*
X004427Y005541D01*
X004521Y005635D01*
X004521Y006082D01*
X004503Y006099D01*
X004503Y006495D01*
X004503Y006622D01*
X004503Y007118D01*
X004521Y007135D01*
X004521Y007582D01*
X004427Y007676D01*
X004253Y007676D01*
X004247Y007678D01*
X004120Y007678D01*
X004114Y007676D01*
X003940Y007676D01*
X003846Y007582D01*
X003846Y007135D01*
X003863Y007118D01*
X003863Y006878D01*
X003699Y006878D01*
X003448Y007130D01*
X003330Y007178D01*
X003203Y007178D01*
X003070Y007178D01*
X003070Y007220D01*
X002976Y007314D01*
X002326Y007314D01*
X002326Y008158D01*
X002330Y008149D01*
X002359Y008090D01*
X002398Y008037D01*
X002445Y007990D01*
X002498Y007952D01*
X002556Y007922D01*
X002619Y007902D01*
X002678Y007892D01*
X002678Y008270D01*
X002755Y008270D01*
X002755Y007892D01*
X002814Y007902D01*
X002877Y007922D01*
X002935Y007952D01*
X002988Y007990D01*
X003035Y008037D01*
X003074Y008090D01*
X003100Y008141D01*
X003133Y008061D01*
X003256Y007938D01*
X003417Y007871D01*
X003591Y007871D01*
X003752Y007938D01*
X003875Y008061D01*
X003941Y008222D01*
X003941Y008396D01*
X003875Y008557D01*
X003752Y008680D01*
X003697Y008703D01*
X003752Y008725D01*
X003875Y008848D01*
X003898Y008904D01*
X003903Y008910D01*
X003915Y008944D01*
X003941Y009009D01*
X003941Y009026D01*
X004023Y009275D01*
X004038Y009304D01*
X004039Y009324D01*
X004045Y009340D01*
X004253Y009549D01*
X004254Y009549D02*
X004376Y009672D01*
X004376Y009917D01*
X004376Y009951D01*
X004407Y010007D01*
X004407Y008371D01*
X004530Y008248D01*
X004757Y008021D01*
X004765Y008013D01*
X004747Y008002D01*
X004721Y007976D01*
X004703Y007944D01*
X004693Y007908D01*
X004693Y007771D01*
X004971Y007771D01*
X004971Y007694D01*
X004693Y007694D01*
X004693Y007556D01*
X004703Y007521D01*
X004721Y007489D01*
X004747Y007463D01*
X004779Y007444D01*
X004815Y007435D01*
X004971Y007435D01*
X004971Y007693D01*
X005049Y007693D01*
X005049Y007435D01*
X005121Y007435D01*
X005081Y007394D01*
X004988Y007302D01*
X004767Y007302D01*
X004673Y007208D01*
X004673Y006761D01*
X004767Y006667D01*
X005254Y006667D01*
X005347Y006761D01*
X005347Y006982D01*
X005384Y007018D01*
X005405Y007018D01*
X005405Y006895D01*
X005499Y006802D01*
X005542Y006802D01*
X005542Y006615D01*
X005499Y006615D01*
X005405Y006522D01*
X005405Y005995D01*
X005499Y005902D01*
X005542Y005902D01*
X005542Y005724D01*
X005331Y005724D01*
X005254Y005802D01*
X004767Y005802D01*
X004673Y005708D01*
X004673Y005261D01*
X004767Y005167D01*
X005254Y005167D01*
X005331Y005244D01*
X005405Y005244D01*
X005405Y005095D01*
X005499Y005002D01*
X006065Y005002D01*
X006131Y005068D01*
X006149Y005050D01*
X006181Y005031D01*
X006216Y005022D01*
X006411Y005022D01*
X006411Y005318D01*
X006491Y005318D01*
X006491Y005022D01*
X006686Y005022D01*
X006722Y005031D01*
X006754Y005050D01*
X006780Y005076D01*
X006798Y005108D01*
X006808Y005143D01*
X006808Y005318D01*
X006491Y005318D01*
X006491Y005398D01*
X006808Y005398D01*
X006808Y005574D01*
X006798Y005609D01*
X006780Y005641D01*
X006754Y005667D01*
X006722Y005686D01*
X006686Y005695D01*
X006491Y005695D01*
X006491Y005399D01*
X006411Y005399D01*
X006411Y005695D01*
X006216Y005695D01*
X006181Y005686D01*
X006149Y005667D01*
X006131Y005649D01*
X006065Y005715D01*
X006022Y005715D01*
X006022Y005902D01*
X006065Y005902D01*
X006116Y005953D01*
X006117Y005953D02*
X006117Y005663D01*
X006022Y005718D02*
X006860Y005718D01*
X006917Y005634D02*
X006917Y004615D01*
X006757Y004615D02*
X006757Y005052D01*
X006781Y005078D02*
X006974Y005078D01*
X006973Y005238D02*
X006808Y005238D01*
X006757Y005318D02*
X006757Y005398D01*
X006808Y005398D02*
X006963Y005398D01*
X006963Y005558D02*
X006808Y005558D01*
X006757Y005664D02*
X006757Y005924D01*
X006734Y005902D02*
X006828Y005995D01*
X006828Y006522D01*
X006734Y006615D01*
X006691Y006615D01*
X006691Y006802D01*
X006734Y006802D01*
X006828Y006895D01*
X006828Y007416D01*
X006855Y007427D01*
X006855Y007195D01*
X006949Y007102D01*
X007515Y007102D01*
X007581Y007168D01*
X007599Y007150D01*
X007631Y007131D01*
X007666Y007122D01*
X007861Y007122D01*
X007861Y007418D01*
X007941Y007418D01*
X007941Y007122D01*
X008136Y007122D01*
X008172Y007131D01*
X008204Y007150D01*
X008227Y007173D01*
X008299Y007102D01*
X008865Y007102D01*
X008931Y007168D01*
X008949Y007150D01*
X008981Y007131D01*
X009016Y007122D01*
X009211Y007122D01*
X009211Y007418D01*
X009291Y007418D01*
X009291Y007498D01*
X009291Y007478D02*
X009477Y007478D01*
X009317Y007498D02*
X009317Y007418D01*
X009291Y007318D02*
X009211Y007318D01*
X009211Y007158D02*
X009291Y007158D01*
X009317Y007122D02*
X009317Y006204D01*
X009157Y006204D02*
X009157Y007122D01*
X008997Y007127D02*
X008997Y006204D01*
X008837Y006204D02*
X008837Y007102D01*
X008921Y007158D02*
X008940Y007158D01*
X008677Y007102D02*
X008677Y006204D01*
X008517Y006204D02*
X008517Y007102D01*
X008357Y007102D02*
X008357Y006204D01*
X008197Y006204D02*
X008197Y007145D01*
X008213Y007158D02*
X008242Y007158D01*
X008037Y007122D02*
X008037Y006204D01*
X007877Y006204D02*
X007877Y007418D01*
X007877Y007499D02*
X007877Y008673D01*
X007871Y008682D02*
X007954Y008550D01*
X007956Y008542D01*
X007984Y008502D01*
X007997Y008482D01*
X007997Y007967D01*
X008125Y007838D01*
X008187Y007777D01*
X008172Y007786D01*
X008136Y007795D01*
X007941Y007795D01*
X007941Y007499D01*
X007861Y007499D01*
X007861Y007795D01*
X007666Y007795D01*
X007631Y007786D01*
X007599Y007767D01*
X007581Y007749D01*
X007515Y007815D01*
X007336Y007815D01*
X007336Y007867D01*
X007336Y008050D01*
X007036Y008350D01*
X006908Y008478D01*
X006658Y008478D01*
X006520Y008616D01*
X006562Y008682D01*
X006590Y008709D01*
X006609Y008755D01*
X006618Y008771D01*
X006618Y008771D01*
X006618Y008771D01*
X006621Y008785D01*
X006656Y008871D01*
X006656Y008927D01*
X006684Y009120D01*
X006687Y009132D01*
X006804Y009248D01*
X007884Y009248D01*
X007844Y009208D01*
X007777Y009046D01*
X007777Y008871D01*
X007812Y008785D01*
X007815Y008771D01*
X007824Y008755D01*
X007844Y008709D01*
X007871Y008682D01*
X007822Y008758D02*
X006611Y008758D01*
X006597Y008726D02*
X006597Y008539D01*
X006538Y008598D02*
X007923Y008598D01*
X007997Y008438D02*
X006948Y008438D01*
X006917Y008469D02*
X006917Y009248D01*
X006793Y009238D02*
X007874Y009238D01*
X007877Y009241D02*
X007877Y009248D01*
X007717Y009248D02*
X007717Y007795D01*
X007557Y007773D02*
X007557Y009248D01*
X007397Y009248D02*
X007397Y007815D01*
X007531Y007798D02*
X008165Y007798D01*
X008037Y007795D02*
X008037Y007927D01*
X008005Y007958D02*
X007336Y007958D01*
X007268Y008118D02*
X007997Y008118D01*
X007997Y008278D02*
X007108Y008278D01*
X007077Y008309D02*
X007077Y009248D01*
X007237Y009248D02*
X007237Y008149D01*
X006757Y008478D02*
X006757Y009201D01*
X006678Y009078D02*
X007790Y009078D01*
X007777Y008918D02*
X006656Y008918D01*
X006390Y009429D02*
X006378Y009426D01*
X006185Y009398D01*
X006129Y009398D01*
X005967Y009331D01*
X005844Y009208D01*
X005777Y009046D01*
X005777Y008871D01*
X005812Y008785D01*
X005815Y008771D01*
X005824Y008755D01*
X005844Y008709D01*
X005871Y008682D01*
X005954Y008550D01*
X005956Y008542D01*
X005984Y008502D01*
X006009Y008462D01*
X006016Y008458D01*
X006020Y008451D01*
X006061Y008425D01*
X006100Y008398D01*
X006108Y008396D01*
X006114Y008392D01*
X006124Y008390D01*
X006125Y008388D01*
X006392Y008121D01*
X006355Y008119D01*
X006290Y008129D01*
X006276Y008118D01*
X006259Y008118D01*
X005904Y008118D01*
X005504Y008518D01*
X005330Y008518D01*
X005154Y008518D01*
X005026Y008645D01*
X005026Y010178D01*
X005141Y010130D01*
X005292Y010130D01*
X005431Y010188D01*
X005438Y010196D01*
X005438Y010183D01*
X005496Y010044D01*
X005602Y009938D01*
X005741Y009880D01*
X005892Y009880D01*
X006031Y009938D01*
X006137Y010044D01*
X006144Y010061D01*
X006154Y010067D01*
X006168Y010113D01*
X006196Y010044D01*
X006302Y009938D01*
X006441Y009880D01*
X006592Y009880D01*
X006731Y009938D01*
X006764Y009971D01*
X006796Y009894D01*
X006902Y009788D01*
X007041Y009730D01*
X007192Y009730D01*
X007331Y009788D01*
X007437Y009894D01*
X007480Y009999D01*
X007511Y009981D01*
X007547Y009972D01*
X007742Y009972D01*
X007742Y010268D01*
X007822Y010268D01*
X007822Y009972D01*
X008017Y009972D01*
X008052Y009981D01*
X008084Y010000D01*
X008102Y010018D01*
X008168Y009952D01*
X008613Y009952D01*
X008330Y009668D01*
X006630Y009668D01*
X006507Y009545D01*
X006390Y009429D01*
X006437Y009475D02*
X006437Y009882D01*
X006597Y009882D02*
X006597Y009635D01*
X006520Y009558D02*
X005026Y009558D01*
X005026Y009398D02*
X006186Y009398D01*
X006117Y009393D02*
X006117Y010024D01*
X006131Y010038D02*
X006202Y010038D01*
X006277Y009964D02*
X006277Y009411D01*
X005957Y009321D02*
X005957Y009907D01*
X005797Y009880D02*
X005797Y009094D01*
X005790Y009078D02*
X005026Y009078D01*
X005026Y008918D02*
X005777Y008918D01*
X005797Y008823D02*
X005797Y008225D01*
X005743Y008278D02*
X006235Y008278D01*
X006277Y008237D02*
X006277Y008119D01*
X006276Y008118D02*
X005903Y008118D01*
X005957Y008118D02*
X005957Y008541D01*
X005923Y008598D02*
X005073Y008598D01*
X005157Y008518D02*
X005157Y010130D01*
X005026Y010038D02*
X005502Y010038D01*
X005477Y010091D02*
X005477Y008518D01*
X005583Y008438D02*
X006040Y008438D01*
X006117Y008391D02*
X006117Y008118D01*
X005637Y008385D02*
X005637Y009924D01*
X005317Y010141D02*
X005317Y008518D01*
X005026Y008758D02*
X005822Y008758D01*
X005874Y009238D02*
X005026Y009238D01*
X005026Y009718D02*
X008380Y009718D01*
X008357Y009695D02*
X008357Y009952D01*
X008517Y009952D02*
X008517Y009855D01*
X008540Y009878D02*
X007421Y009878D01*
X007397Y009854D02*
X007397Y009668D01*
X007557Y009668D02*
X007557Y009972D01*
X007717Y009972D02*
X007717Y009668D01*
X007877Y009668D02*
X007877Y009972D01*
X007822Y010038D02*
X007742Y010038D01*
X007742Y010198D02*
X007822Y010198D01*
X007822Y010349D02*
X007742Y010349D01*
X007742Y010637D01*
X007819Y010714D01*
X007819Y010718D01*
X007877Y010718D01*
X008128Y010718D01*
X008325Y010718D01*
X008344Y010738D01*
X008383Y010738D01*
X008383Y010665D01*
X008168Y010665D01*
X008102Y010599D01*
X008084Y010617D01*
X008052Y010636D01*
X008017Y010645D01*
X007822Y010645D01*
X007822Y010349D01*
X007822Y010358D02*
X007742Y010358D01*
X007742Y010518D02*
X007822Y010518D01*
X007877Y010645D02*
X007877Y010718D01*
X007784Y010678D02*
X008383Y010678D01*
X008357Y010665D02*
X008357Y010738D01*
X008197Y010718D02*
X008197Y010665D01*
X008037Y010640D02*
X008037Y010718D01*
X008037Y009977D02*
X008037Y009668D01*
X008197Y009668D02*
X008197Y009952D01*
X008837Y009281D02*
X008837Y007815D01*
X007941Y007638D02*
X007861Y007638D01*
X007861Y007318D02*
X007941Y007318D01*
X007941Y007158D02*
X007861Y007158D01*
X007717Y007122D02*
X007717Y006204D01*
X007557Y006273D02*
X007557Y007143D01*
X007572Y007158D02*
X007590Y007158D01*
X007397Y007102D02*
X007397Y007000D01*
X007432Y007000D02*
X007467Y006990D01*
X007499Y006972D01*
X007525Y006946D01*
X007544Y006914D01*
X007553Y006878D01*
X007397Y006683D02*
X007397Y006603D01*
X007257Y006678D02*
X009857Y006678D01*
X009797Y006739D02*
X009797Y006204D01*
X009957Y006204D02*
X009957Y006579D01*
X010017Y006518D02*
X007553Y006518D01*
X007536Y006358D02*
X010177Y006358D01*
X010117Y006419D02*
X010117Y006204D01*
X010277Y006204D02*
X010277Y006259D01*
X010277Y005644D02*
X010277Y005043D01*
X010312Y005078D02*
X009531Y005078D01*
X009477Y005034D02*
X009477Y003768D01*
X009590Y003798D02*
X008201Y003798D01*
X008357Y003768D02*
X008357Y005002D01*
X008517Y005002D02*
X008517Y003768D01*
X008677Y003768D02*
X008677Y005002D01*
X008837Y005023D02*
X008837Y003768D01*
X008997Y003768D02*
X008997Y005022D01*
X009157Y005022D02*
X009157Y003768D01*
X009317Y003768D02*
X009317Y005022D01*
X009241Y005078D02*
X009161Y005078D01*
X009161Y005238D02*
X009241Y005238D01*
X009317Y005318D02*
X009317Y005398D01*
X009477Y005398D02*
X009477Y005318D01*
X009558Y005238D02*
X010407Y005238D01*
X010407Y005398D02*
X009558Y005398D01*
X009558Y005558D02*
X010407Y005558D01*
X010826Y005238D02*
X012963Y005238D01*
X012997Y005252D02*
X012997Y005480D01*
X013157Y005486D02*
X013157Y005268D01*
X013317Y005268D02*
X013317Y005574D01*
X013301Y005558D02*
X013632Y005558D01*
X013637Y005554D02*
X013637Y005268D01*
X013797Y005268D02*
X013797Y005480D01*
X013957Y005486D02*
X013957Y005268D01*
X014117Y005268D02*
X014117Y005574D01*
X014101Y005558D02*
X016425Y005558D01*
X016517Y005498D02*
X016517Y005418D01*
X016425Y005418D02*
X016425Y005243D01*
X016435Y005208D01*
X016453Y005176D01*
X016479Y005150D01*
X016511Y005131D01*
X016547Y005122D01*
X016742Y005122D01*
X016742Y005418D01*
X016425Y005418D01*
X016425Y005398D02*
X010890Y005398D01*
X010917Y005410D02*
X010917Y005107D01*
X011077Y005136D02*
X011077Y005471D01*
X011237Y005471D02*
X011237Y005097D01*
X011281Y005078D02*
X011472Y005078D01*
X011557Y005091D02*
X011557Y006871D01*
X011404Y006038D02*
X012732Y006038D01*
X012692Y005961D02*
X012692Y005961D01*
X012688Y005878D02*
X011404Y005878D01*
X011404Y005718D02*
X012715Y005718D01*
X012832Y005558D02*
X011397Y005558D01*
X011397Y004991D01*
X011727Y004918D02*
X011807Y004918D01*
X011807Y004758D02*
X011727Y004758D01*
X011557Y004498D02*
X011557Y004418D01*
X011727Y004278D02*
X011807Y004278D01*
X011807Y004118D02*
X011727Y004118D01*
X011727Y003958D02*
X011807Y003958D01*
X011877Y003826D02*
X011877Y003768D01*
X011717Y003768D02*
X011717Y003826D01*
X011557Y003826D02*
X011557Y003768D01*
X011397Y003768D02*
X011397Y003926D01*
X011391Y003958D02*
X010973Y003958D01*
X010973Y004118D02*
X011391Y004118D01*
X011237Y004420D02*
X011237Y003768D01*
X010277Y003768D02*
X010277Y003774D01*
X010260Y003798D02*
X010043Y003798D01*
X010117Y003768D02*
X010117Y003864D01*
X009957Y003796D02*
X009957Y003768D01*
X009797Y003768D02*
X009797Y003796D01*
X009637Y003796D02*
X009637Y003768D01*
X009499Y003958D02*
X008223Y003958D01*
X008259Y004118D02*
X009499Y004118D01*
X009499Y004278D02*
X008259Y004278D01*
X008259Y004438D02*
X009569Y004438D01*
X009519Y004598D02*
X008259Y004598D01*
X008197Y004661D02*
X008197Y004956D01*
X008037Y004924D02*
X008037Y004693D01*
X007877Y004693D02*
X007877Y004924D01*
X007722Y005078D02*
X007511Y005078D01*
X007512Y005238D02*
X007721Y005238D01*
X007717Y005250D02*
X007717Y004673D01*
X007631Y004598D02*
X007602Y004598D01*
X007557Y004673D02*
X007557Y005644D01*
X007522Y005558D02*
X007722Y005558D01*
X007717Y005644D02*
X007717Y005390D01*
X007720Y005398D02*
X007522Y005398D01*
X007397Y004924D02*
X007397Y004693D01*
X007237Y004693D02*
X007237Y004924D01*
X007077Y004924D02*
X007077Y004693D01*
X006597Y004615D02*
X006597Y005022D01*
X006491Y005078D02*
X006411Y005078D01*
X006277Y005022D02*
X006277Y004593D01*
X006402Y004598D02*
X005194Y004598D01*
X005170Y004649D02*
X005170Y004649D01*
X005157Y004666D02*
X005157Y005167D01*
X004997Y005167D02*
X004997Y004866D01*
X004955Y004918D02*
X009530Y004918D01*
X009637Y005000D02*
X009637Y005644D01*
X009797Y005644D02*
X009797Y004743D01*
X009778Y004758D02*
X009855Y004758D01*
X009957Y004742D02*
X009957Y004665D01*
X010114Y004598D02*
X010260Y004598D01*
X010277Y004443D02*
X010277Y004373D01*
X010281Y004438D02*
X010064Y004438D01*
X010117Y004354D02*
X010117Y005644D01*
X009957Y005644D02*
X009957Y005001D01*
X009855Y004918D02*
X009778Y004918D01*
X009637Y004742D02*
X009637Y004665D01*
X009519Y004758D02*
X005083Y004758D01*
X004837Y005067D02*
X004837Y005167D01*
X004825Y005078D02*
X005422Y005078D01*
X005477Y005024D02*
X005477Y003849D01*
X005488Y003798D02*
X006963Y003798D01*
X006917Y003768D02*
X006917Y003902D01*
X006757Y003902D02*
X006757Y003768D01*
X006597Y003768D02*
X006597Y003902D01*
X006437Y003902D02*
X006437Y003768D01*
X006277Y003768D02*
X006277Y003924D01*
X006343Y003958D02*
X006361Y003958D01*
X006117Y003922D02*
X006117Y003768D01*
X005957Y003768D02*
X005957Y003922D01*
X005992Y003922D02*
X005992Y004218D01*
X005675Y004218D01*
X005675Y004043D01*
X005685Y004008D01*
X005703Y003976D01*
X005729Y003950D01*
X005761Y003931D01*
X005797Y003922D01*
X005992Y003922D01*
X005992Y003958D02*
X006072Y003958D01*
X006072Y004118D02*
X005992Y004118D01*
X005957Y004218D02*
X005957Y004298D01*
X005992Y004278D02*
X005348Y004278D01*
X005317Y004344D02*
X005317Y005230D01*
X005325Y005238D02*
X005405Y005238D01*
X005637Y005002D02*
X005637Y003768D01*
X005797Y003768D02*
X005797Y003922D01*
X005720Y003958D02*
X005452Y003958D01*
X005415Y004118D02*
X005675Y004118D01*
X005797Y004218D02*
X005797Y004298D01*
X005675Y004438D02*
X005271Y004438D01*
X005797Y004595D02*
X005797Y005002D01*
X005957Y005002D02*
X005957Y004595D01*
X006117Y004595D02*
X006117Y005053D01*
X006411Y005238D02*
X006491Y005238D01*
X006437Y005318D02*
X006437Y004615D01*
X006072Y004438D02*
X005992Y004438D01*
X006437Y005399D02*
X006437Y005902D01*
X006597Y005902D02*
X006597Y005695D01*
X006491Y005558D02*
X006411Y005558D01*
X006277Y005695D02*
X006277Y005902D01*
X006168Y005902D02*
X006734Y005902D01*
X006860Y005878D02*
X006022Y005878D01*
X006116Y005953D02*
X006168Y005902D01*
X006597Y005398D02*
X006597Y005318D01*
X006828Y006038D02*
X006860Y006038D01*
X006860Y006198D02*
X006828Y006198D01*
X006917Y006313D02*
X006917Y006332D01*
X006897Y006358D02*
X006828Y006358D01*
X006828Y006518D02*
X006880Y006518D01*
X006917Y006603D02*
X006917Y006683D01*
X007077Y006683D02*
X007077Y006603D01*
X007176Y006678D02*
X006691Y006678D01*
X006757Y006593D02*
X006757Y006824D01*
X006771Y006838D02*
X006880Y006838D01*
X006917Y006954D02*
X006917Y007134D01*
X006892Y007158D02*
X006828Y007158D01*
X006828Y006998D02*
X006997Y006998D01*
X007077Y007000D02*
X007077Y007102D01*
X007177Y006998D02*
X007256Y006998D01*
X007237Y007102D02*
X007237Y006683D01*
X007256Y006838D02*
X007177Y006838D01*
X006855Y007318D02*
X006828Y007318D01*
X005613Y007515D02*
X005499Y007515D01*
X005482Y007498D01*
X005305Y007498D01*
X005318Y007521D01*
X005327Y007556D01*
X005327Y007694D01*
X005049Y007694D01*
X005049Y007771D01*
X005327Y007771D01*
X005327Y007801D01*
X005557Y007571D01*
X005613Y007515D01*
X005477Y007498D02*
X005477Y007651D01*
X005490Y007638D02*
X005327Y007638D01*
X005317Y007694D02*
X005317Y007771D01*
X005327Y007798D02*
X005330Y007798D01*
X005157Y007771D02*
X005157Y007694D01*
X005049Y007638D02*
X004971Y007638D01*
X004997Y007693D02*
X004997Y007310D01*
X005005Y007318D02*
X004521Y007318D01*
X004521Y007158D02*
X004673Y007158D01*
X004677Y007212D02*
X004677Y008101D01*
X004660Y008118D02*
X003899Y008118D01*
X003877Y008065D02*
X003877Y007612D01*
X003903Y007638D02*
X002326Y007638D01*
X002326Y007478D02*
X003846Y007478D01*
X003846Y007318D02*
X002326Y007318D01*
X002437Y007314D02*
X002437Y007998D01*
X002489Y007958D02*
X002326Y007958D01*
X002326Y007798D02*
X004693Y007798D01*
X004837Y007771D02*
X004837Y007694D01*
X004693Y007638D02*
X004464Y007638D01*
X004517Y007586D02*
X004517Y008261D01*
X004530Y008248D02*
X004530Y008248D01*
X004500Y008278D02*
X003941Y008278D01*
X003924Y008438D02*
X004407Y008438D01*
X004407Y008598D02*
X003833Y008598D01*
X003877Y008552D02*
X003877Y008853D01*
X003906Y008918D02*
X004407Y008918D01*
X004407Y008758D02*
X003785Y008758D01*
X003717Y008711D02*
X003717Y008694D01*
X003959Y009078D02*
X004407Y009078D01*
X004407Y009238D02*
X004011Y009238D01*
X004037Y009301D02*
X004037Y007676D01*
X004197Y007678D02*
X004197Y009492D01*
X004253Y009549D02*
X004254Y009549D01*
X004263Y009558D02*
X004407Y009558D01*
X004357Y009652D02*
X004357Y007676D01*
X004521Y007478D02*
X004732Y007478D01*
X004837Y007435D02*
X004837Y007302D01*
X004971Y007478D02*
X005049Y007478D01*
X005317Y007498D02*
X005317Y007519D01*
X005364Y006998D02*
X005405Y006998D01*
X005462Y006838D02*
X005347Y006838D01*
X005317Y006730D02*
X005317Y006446D01*
X005318Y006444D02*
X005299Y006476D01*
X005273Y006502D01*
X005241Y006520D01*
X005206Y006530D01*
X005049Y006530D01*
X005049Y006271D01*
X005327Y006271D01*
X005327Y006408D01*
X005318Y006444D01*
X005327Y006358D02*
X005405Y006358D01*
X005317Y006271D02*
X005317Y006194D01*
X005327Y006194D02*
X005049Y006194D01*
X005049Y006271D01*
X004971Y006271D01*
X004971Y006194D01*
X004693Y006194D01*
X004693Y006056D01*
X004703Y006021D01*
X004721Y005989D01*
X004747Y005963D01*
X004779Y005944D01*
X004815Y005935D01*
X004971Y005935D01*
X004971Y006193D01*
X005049Y006193D01*
X005049Y005935D01*
X005206Y005935D01*
X005241Y005944D01*
X005273Y005963D01*
X005299Y005989D01*
X005318Y006021D01*
X005327Y006056D01*
X005327Y006194D01*
X005405Y006198D02*
X005049Y006198D01*
X004997Y006193D02*
X004997Y005802D01*
X005157Y005802D02*
X005157Y005935D01*
X005049Y006038D02*
X004971Y006038D01*
X004971Y006198D02*
X004503Y006198D01*
X004517Y006086D02*
X004517Y007131D01*
X004503Y006998D02*
X004673Y006998D01*
X004673Y006838D02*
X004503Y006838D01*
X004503Y006678D02*
X004755Y006678D01*
X004837Y006667D02*
X004837Y006530D01*
X004815Y006530D02*
X004779Y006520D01*
X004747Y006502D01*
X004721Y006476D01*
X004703Y006444D01*
X004693Y006408D01*
X004693Y006271D01*
X004971Y006271D01*
X004971Y006530D01*
X004815Y006530D01*
X004776Y006518D02*
X004503Y006518D01*
X004503Y006358D02*
X004693Y006358D01*
X004837Y006271D02*
X004837Y006194D01*
X004997Y006271D02*
X004997Y006667D01*
X004971Y006518D02*
X005049Y006518D01*
X005157Y006530D02*
X005157Y006667D01*
X005265Y006678D02*
X005542Y006678D01*
X005477Y006593D02*
X005477Y006824D01*
X005405Y006518D02*
X005245Y006518D01*
X005049Y006358D02*
X004971Y006358D01*
X005157Y006271D02*
X005157Y006194D01*
X005323Y006038D02*
X005405Y006038D01*
X005317Y006019D02*
X005317Y005739D01*
X005477Y005724D02*
X005477Y005924D01*
X005542Y005878D02*
X004521Y005878D01*
X004521Y005718D02*
X004683Y005718D01*
X004677Y005712D02*
X004677Y006757D01*
X004698Y006038D02*
X004521Y006038D01*
X004837Y005935D02*
X004837Y005802D01*
X004673Y005558D02*
X004444Y005558D01*
X004357Y005541D02*
X004357Y005436D01*
X004424Y005398D02*
X004673Y005398D01*
X004677Y005257D02*
X004677Y005197D01*
X004695Y005238D02*
X004624Y005238D01*
X004517Y005324D02*
X004517Y005631D01*
X004197Y005538D02*
X004197Y005513D01*
X003846Y005664D02*
X003846Y006082D01*
X003863Y006099D01*
X003863Y006238D01*
X003630Y006238D01*
X003503Y006238D01*
X003385Y006287D01*
X003134Y006538D01*
X003073Y006538D01*
X003073Y006410D01*
X003021Y006358D01*
X003314Y006358D01*
X003237Y006436D02*
X003237Y005818D01*
X003286Y005768D02*
X003073Y005981D01*
X003073Y006307D01*
X003021Y006358D01*
X003073Y006198D02*
X003863Y006198D01*
X003717Y006238D02*
X003717Y005693D01*
X003607Y005718D02*
X003846Y005718D01*
X003846Y005664D02*
X003388Y005768D01*
X003286Y005768D01*
X003388Y005768D02*
X003388Y005768D01*
X003397Y005766D02*
X003397Y006282D01*
X003557Y006238D02*
X003557Y005730D01*
X003846Y005878D02*
X003176Y005878D01*
X003077Y005978D02*
X003077Y006538D01*
X003073Y006518D02*
X003154Y006518D01*
X003073Y006038D02*
X003846Y006038D01*
X003717Y006878D02*
X003717Y007923D01*
X003772Y007958D02*
X004711Y007958D01*
X003846Y007158D02*
X003378Y007158D01*
X003397Y007151D02*
X003397Y007880D01*
X003557Y007871D02*
X003557Y007021D01*
X003579Y006998D02*
X003863Y006998D01*
X003237Y007178D02*
X003237Y007958D01*
X003236Y007958D02*
X002944Y007958D01*
X002917Y007942D02*
X002917Y007314D01*
X002757Y007314D02*
X002757Y007892D01*
X002755Y007958D02*
X002678Y007958D01*
X002597Y007909D02*
X002597Y007314D01*
X003077Y007178D02*
X003077Y008096D01*
X003088Y008118D02*
X003109Y008118D01*
X002755Y008118D02*
X002678Y008118D01*
X002678Y008348D02*
X002678Y008725D01*
X002678Y009057D01*
X002755Y009057D01*
X002755Y008725D01*
X002755Y008348D01*
X002678Y008348D01*
X002678Y008438D02*
X002755Y008438D01*
X002755Y008598D02*
X002678Y008598D01*
X002678Y008758D02*
X002755Y008758D01*
X002755Y008918D02*
X002678Y008918D01*
X002678Y009135D02*
X002678Y009513D01*
X002678Y009845D01*
X002755Y009845D01*
X002755Y009513D01*
X002755Y009135D01*
X002678Y009135D01*
X002678Y009238D02*
X002755Y009238D01*
X002755Y009398D02*
X002678Y009398D01*
X002678Y009558D02*
X002755Y009558D01*
X002755Y009718D02*
X002678Y009718D01*
X002678Y009923D02*
X002678Y010300D01*
X002678Y010632D01*
X002755Y010632D01*
X002755Y010300D01*
X002755Y009923D01*
X002678Y009923D01*
X002678Y010038D02*
X002755Y010038D01*
X002755Y010198D02*
X002678Y010198D01*
X002678Y010358D02*
X002755Y010358D01*
X002755Y010518D02*
X002678Y010518D01*
X004103Y009398D02*
X004407Y009398D01*
X004407Y009718D02*
X004376Y009718D01*
X004376Y009878D02*
X004407Y009878D01*
X005026Y009878D02*
X006812Y009878D01*
X006757Y009964D02*
X006757Y009668D01*
X006917Y009668D02*
X006917Y009782D01*
X007077Y009730D02*
X007077Y009668D01*
X007237Y009668D02*
X007237Y009749D01*
X006764Y009971D02*
X006764Y009971D01*
X008793Y009238D02*
X009477Y009238D01*
X009797Y011026D02*
X009797Y011694D01*
X009779Y011717D02*
X009779Y011717D01*
X010277Y012255D02*
X010277Y012263D01*
X010495Y011958D02*
X011920Y011958D01*
X011877Y012001D02*
X011877Y011046D01*
X012037Y011046D02*
X012037Y011841D01*
X012080Y011798D02*
X010480Y011798D01*
X011743Y013078D02*
X012257Y013078D01*
X012257Y012918D02*
X011903Y012918D01*
X011877Y012945D02*
X011877Y013247D01*
X012028Y013247D02*
X011575Y013247D01*
X012257Y012565D01*
X012257Y013301D01*
X012202Y013247D01*
X012028Y013247D01*
X012037Y013247D02*
X012037Y012785D01*
X012063Y012758D02*
X012257Y012758D01*
X012197Y012625D02*
X012197Y013247D01*
X012257Y013238D02*
X011583Y013238D01*
X011717Y013247D02*
X011717Y013105D01*
X012223Y012598D02*
X012257Y012598D01*
X012676Y012598D02*
X015616Y012598D01*
X015616Y012603D02*
X015616Y012343D01*
X015616Y012113D01*
X015616Y011823D01*
X015616Y011563D01*
X015616Y011303D01*
X015710Y011210D01*
X015818Y011210D01*
X015906Y011122D01*
X015930Y011098D01*
X015979Y010933D01*
X015988Y010903D01*
X015988Y010883D01*
X016010Y010832D01*
X016029Y010767D01*
X016029Y010767D01*
X016039Y010761D01*
X016046Y010744D01*
X016152Y010638D01*
X016291Y010580D01*
X016442Y010580D01*
X016581Y010638D01*
X016687Y010744D01*
X016745Y010883D01*
X016745Y010918D01*
X016762Y010876D01*
X016787Y010802D01*
X016794Y010798D01*
X016796Y010794D01*
X016902Y010688D01*
X017041Y010630D01*
X017192Y010630D01*
X017331Y010688D01*
X017437Y010794D01*
X017495Y010933D01*
X017495Y011084D01*
X017437Y011223D01*
X017374Y011285D01*
X017381Y011288D01*
X017487Y011394D01*
X017545Y011533D01*
X017545Y011684D01*
X017487Y011823D01*
X017451Y011858D01*
X017537Y011944D01*
X017595Y012083D01*
X017595Y012234D01*
X017537Y012373D01*
X017431Y012479D01*
X017397Y012493D01*
X017492Y012521D01*
X017522Y012530D01*
X017542Y012530D01*
X017593Y012552D01*
X017658Y012571D01*
X017663Y012581D01*
X017681Y012588D01*
X017787Y012694D01*
X017845Y012833D01*
X017845Y012984D01*
X017787Y013123D01*
X017681Y013229D01*
X017542Y013286D01*
X017391Y013286D01*
X017326Y013260D01*
X017326Y013301D01*
X017423Y013480D01*
X017437Y013494D01*
X017459Y013546D01*
X017461Y013551D01*
X017491Y013605D01*
X017491Y013605D01*
X017491Y013606D01*
X017487Y013616D01*
X017495Y013633D01*
X017495Y013784D01*
X017447Y013898D01*
X017580Y013898D01*
X017754Y013898D01*
X018063Y014208D01*
X018063Y014027D01*
X018010Y014027D01*
X017916Y013933D01*
X017916Y013673D01*
X017916Y013383D01*
X017918Y013381D01*
X017918Y013123D01*
X017936Y013106D01*
X017936Y013105D01*
X017936Y013008D01*
X017936Y012913D01*
X017916Y012893D01*
X017916Y012633D01*
X017916Y012438D01*
X017849Y012438D01*
X017730Y012318D01*
X017607Y012195D01*
X017607Y010120D01*
X017303Y010120D01*
X017210Y010026D01*
X017210Y009953D01*
X017023Y009953D01*
X017023Y010026D01*
X016930Y010120D01*
X016403Y010120D01*
X016310Y010026D01*
X016310Y009460D01*
X016362Y009408D01*
X016310Y009357D01*
X016310Y009284D01*
X016288Y009284D01*
X014267Y011305D01*
X014286Y011462D01*
X014295Y011483D01*
X014295Y011535D01*
X014302Y011600D01*
X014295Y011609D01*
X014295Y011634D01*
X014237Y011773D01*
X014131Y011879D01*
X013992Y011936D01*
X013841Y011936D01*
X013702Y011879D01*
X013596Y011773D01*
X013538Y011634D01*
X013538Y011633D01*
X012676Y012495D01*
X012677Y012495D02*
X012677Y013371D01*
X012676Y013371D02*
X013554Y014248D01*
X015154Y014248D01*
X015276Y014371D01*
X016057Y015151D01*
X016057Y014695D01*
X015530Y014168D01*
X015526Y014165D01*
X015068Y014165D01*
X015016Y014113D01*
X014965Y014165D01*
X014399Y014165D01*
X014368Y014134D01*
X014329Y014150D01*
X014328Y014151D01*
X014269Y014182D01*
X014269Y014182D01*
X014269Y014182D01*
X014259Y014179D01*
X014242Y014186D01*
X014091Y014186D01*
X013952Y014129D01*
X013846Y014023D01*
X013788Y013884D01*
X013788Y013733D01*
X013846Y013594D01*
X013952Y013488D01*
X014091Y013430D01*
X014242Y013430D01*
X014259Y013437D01*
X014269Y013434D01*
X014269Y013434D01*
X014329Y013466D01*
X014368Y013483D01*
X014399Y013452D01*
X014965Y013452D01*
X015016Y013503D01*
X015068Y013452D01*
X015526Y013452D01*
X015614Y013364D01*
X015614Y013123D01*
X015616Y013121D01*
X015616Y012863D01*
X015616Y012603D01*
X015616Y012758D02*
X012676Y012758D01*
X012676Y012918D02*
X015616Y012918D01*
X015616Y013078D02*
X012676Y013078D01*
X012676Y013238D02*
X015614Y013238D01*
X015580Y013398D02*
X012704Y013398D01*
X012676Y013371D02*
X012676Y012495D01*
X012733Y012438D02*
X015616Y012438D01*
X015616Y012278D02*
X012893Y012278D01*
X012837Y012335D02*
X012837Y013531D01*
X012864Y013558D02*
X013882Y013558D01*
X013957Y013486D02*
X013957Y011936D01*
X013797Y011918D02*
X013797Y013714D01*
X013795Y013718D02*
X013024Y013718D01*
X012997Y013691D02*
X012997Y012175D01*
X013053Y012118D02*
X015616Y012118D01*
X015616Y011958D02*
X013213Y011958D01*
X013157Y012015D02*
X013157Y013851D01*
X013184Y013878D02*
X013788Y013878D01*
X013797Y013903D02*
X013797Y014248D01*
X013957Y014248D02*
X013957Y014131D01*
X013862Y014038D02*
X013344Y014038D01*
X013317Y014011D02*
X013317Y011855D01*
X013373Y011798D02*
X013622Y011798D01*
X013637Y011813D02*
X013637Y014248D01*
X013504Y014198D02*
X015560Y014198D01*
X015557Y014195D02*
X015557Y014651D01*
X015583Y014678D02*
X016040Y014678D01*
X016037Y014675D02*
X016037Y015131D01*
X016057Y014998D02*
X015903Y014998D01*
X015877Y014971D02*
X015877Y014515D01*
X015880Y014518D02*
X015423Y014518D01*
X015397Y014491D02*
X015397Y014165D01*
X015237Y014165D02*
X015237Y014331D01*
X015264Y014358D02*
X015720Y014358D01*
X015717Y014355D02*
X015717Y014811D01*
X015743Y014838D02*
X016057Y014838D01*
X016776Y014838D02*
X017857Y014838D01*
X017857Y014678D02*
X016776Y014678D01*
X016776Y014518D02*
X017780Y014518D01*
X017797Y014535D02*
X017797Y015814D01*
X017781Y015798D02*
X017908Y015798D01*
X017906Y015808D02*
X017915Y015773D01*
X017934Y015741D01*
X017960Y015715D01*
X017992Y015696D01*
X018027Y015687D01*
X018184Y015687D01*
X018184Y015945D01*
X018262Y015945D01*
X018262Y015750D01*
X018157Y015645D01*
X017857Y015345D01*
X017857Y015171D01*
X017857Y014595D01*
X017580Y014318D01*
X016780Y014318D01*
X016776Y014315D01*
X016776Y015752D01*
X016875Y015752D01*
X016846Y015723D01*
X016788Y015584D01*
X016788Y015433D01*
X016846Y015294D01*
X016952Y015188D01*
X017091Y015130D01*
X017242Y015130D01*
X017381Y015188D01*
X017487Y015294D01*
X017494Y015311D01*
X017504Y015317D01*
X017523Y015381D01*
X017545Y015433D01*
X017545Y015453D01*
X017551Y015474D01*
X017554Y015483D01*
X017603Y015648D01*
X017661Y015706D01*
X017661Y015752D01*
X017734Y015752D01*
X017828Y015845D01*
X017828Y016372D01*
X017734Y016465D01*
X017168Y016465D01*
X017117Y016413D01*
X017065Y016465D01*
X016499Y016465D01*
X016428Y016394D01*
X015823Y016998D01*
X016405Y016998D01*
X016405Y016995D01*
X016499Y016902D01*
X017065Y016902D01*
X017116Y016953D01*
X017168Y016902D01*
X017434Y016902D01*
X017713Y016622D01*
X017781Y016555D01*
X017869Y016518D01*
X017886Y016518D01*
X017886Y016509D01*
X017979Y016415D01*
X018466Y016415D01*
X018560Y016509D01*
X018560Y016956D01*
X018466Y017050D01*
X017979Y017050D01*
X017972Y017042D01*
X017828Y017187D01*
X017828Y017522D01*
X017734Y017615D01*
X017691Y017615D01*
X017691Y017802D01*
X017734Y017802D01*
X017828Y017895D01*
X017828Y017992D01*
X017902Y017992D01*
X017979Y017915D01*
X018466Y017915D01*
X018560Y018009D01*
X018560Y018456D01*
X018466Y018550D01*
X017979Y018550D01*
X017902Y018472D01*
X017777Y018472D01*
X017734Y018515D01*
X017691Y018515D01*
X017691Y018702D01*
X017734Y018702D01*
X017828Y018795D01*
X017828Y019322D01*
X017734Y019415D01*
X017168Y019415D01*
X017102Y019349D01*
X017084Y019367D01*
X017052Y019386D01*
X017017Y019395D01*
X016822Y019395D01*
X016822Y019099D01*
X016742Y019099D01*
X016742Y019395D01*
X016547Y019395D01*
X016511Y019386D01*
X016479Y019367D01*
X016453Y019341D01*
X016435Y019309D01*
X016425Y019274D01*
X016425Y019098D01*
X016742Y019098D01*
X016742Y019018D01*
X016822Y019018D01*
X016822Y018722D01*
X017017Y018722D01*
X017052Y018731D01*
X017084Y018750D01*
X017102Y018768D01*
X017168Y018702D01*
X017211Y018702D01*
X017211Y018515D01*
X017168Y018515D01*
X017117Y018463D01*
X017065Y018515D01*
X016499Y018515D01*
X016405Y018422D01*
X016405Y017895D01*
X016499Y017802D01*
X016542Y017802D01*
X016542Y017615D01*
X016499Y017615D01*
X016405Y017522D01*
X016405Y017418D01*
X016086Y017418D01*
X016117Y017427D01*
X016149Y017445D01*
X016175Y017471D01*
X016194Y017503D01*
X016203Y017539D01*
X016203Y017734D01*
X015907Y017734D01*
X015907Y017814D01*
X016203Y017814D01*
X016203Y018009D01*
X016194Y018044D01*
X016175Y018076D01*
X016157Y018094D01*
X016223Y018160D01*
X016223Y018726D01*
X016194Y018755D01*
X016203Y018789D01*
X016203Y018984D01*
X015907Y018984D01*
X015907Y019064D01*
X016203Y019064D01*
X016203Y019259D01*
X016194Y019294D01*
X016175Y019326D01*
X016157Y019344D01*
X016223Y019410D01*
X016223Y019948D01*
X017738Y019948D01*
X017827Y019557D01*
X018063Y019068D01*
X018402Y018644D01*
X018826Y018305D01*
X018826Y018305D01*
X019089Y018178D01*
X018986Y018178D01*
X018980Y018176D01*
X018806Y018176D01*
X018712Y018082D01*
X018712Y017635D01*
X018730Y017617D01*
X018730Y017172D01*
X018730Y017045D01*
X018730Y016599D01*
X018712Y016582D01*
X018712Y016135D01*
X018806Y016041D01*
X018980Y016041D01*
X018986Y016038D01*
X019113Y016038D01*
X019119Y016041D01*
X019293Y016041D01*
X019387Y016135D01*
X019387Y016582D01*
X019370Y016599D01*
X019370Y016788D01*
X019734Y016788D01*
X019845Y016677D01*
X019935Y016587D01*
X020053Y016538D01*
X020163Y016538D01*
X020163Y016497D01*
X020257Y016403D01*
X020907Y016403D01*
X020907Y016048D01*
X020237Y016048D01*
X020143Y015954D01*
X020143Y015803D01*
X020096Y015768D01*
X020080Y015768D01*
X018528Y015768D01*
X018530Y015773D01*
X018540Y015808D01*
X018540Y015946D01*
X018262Y015946D01*
X018262Y016023D01*
X018540Y016023D01*
X018540Y016160D01*
X018530Y016196D01*
X018512Y016228D01*
X018486Y016254D01*
X018454Y016272D01*
X018418Y016282D01*
X018262Y016282D01*
X018262Y016023D01*
X018184Y016023D01*
X018184Y015946D01*
X017906Y015946D01*
X017906Y015808D01*
X017957Y015718D02*
X017957Y015445D01*
X017990Y015478D02*
X017552Y015478D01*
X017504Y015318D02*
X017857Y015318D01*
X017857Y015158D02*
X017310Y015158D01*
X017317Y015161D02*
X017317Y014318D01*
X017477Y014318D02*
X017477Y015284D01*
X017157Y015130D02*
X017157Y014318D01*
X016997Y014318D02*
X016997Y015170D01*
X017023Y015158D02*
X016776Y015158D01*
X016776Y014998D02*
X017857Y014998D01*
X018117Y015605D02*
X018117Y015687D01*
X018150Y015638D02*
X017600Y015638D01*
X017637Y015681D02*
X017637Y014375D01*
X017620Y014358D02*
X016776Y014358D01*
X016837Y014318D02*
X016837Y015317D01*
X016836Y015318D02*
X016776Y015318D01*
X016776Y015478D02*
X016788Y015478D01*
X016776Y015638D02*
X016811Y015638D01*
X016837Y015700D02*
X016837Y015752D01*
X016837Y016465D02*
X016837Y016902D01*
X016997Y016902D02*
X016997Y016465D01*
X017091Y016438D02*
X017142Y016438D01*
X017157Y016453D02*
X017157Y016913D01*
X017151Y016918D02*
X017081Y016918D01*
X017317Y016902D02*
X017317Y016465D01*
X017477Y016465D02*
X017477Y016859D01*
X017577Y016758D02*
X016063Y016758D01*
X016037Y016785D02*
X016037Y016998D01*
X015903Y016918D02*
X016482Y016918D01*
X016517Y016902D02*
X016517Y016465D01*
X016472Y016438D02*
X016383Y016438D01*
X016357Y016465D02*
X016357Y016998D01*
X016197Y016998D02*
X016197Y016625D01*
X016223Y016598D02*
X017737Y016598D01*
X017797Y016548D02*
X017797Y016403D01*
X017761Y016438D02*
X017956Y016438D01*
X017957Y016438D02*
X017957Y016251D01*
X017960Y016254D02*
X017934Y016228D01*
X017915Y016196D01*
X017906Y016160D01*
X017906Y016023D01*
X018184Y016023D01*
X018184Y016282D01*
X018027Y016282D01*
X017992Y016272D01*
X017960Y016254D01*
X018014Y016278D02*
X017828Y016278D01*
X017828Y016118D02*
X017906Y016118D01*
X017957Y016023D02*
X017957Y015946D01*
X017828Y015958D02*
X018184Y015958D01*
X018117Y015946D02*
X018117Y016023D01*
X018184Y016118D02*
X018262Y016118D01*
X018277Y016023D02*
X018277Y015946D01*
X018262Y015958D02*
X020148Y015958D01*
X020197Y016007D02*
X020197Y016463D01*
X020221Y016438D02*
X019387Y016438D01*
X019387Y016278D02*
X020907Y016278D01*
X020837Y016403D02*
X020837Y016048D01*
X020907Y016118D02*
X019371Y016118D01*
X019237Y016041D02*
X019237Y015768D01*
X019397Y015768D02*
X019397Y016788D01*
X019370Y016758D02*
X019764Y016758D01*
X019717Y016788D02*
X019717Y015768D01*
X019877Y015768D02*
X019877Y016646D01*
X019924Y016598D02*
X019370Y016598D01*
X019557Y016788D02*
X019557Y015768D01*
X020037Y015768D02*
X020037Y016545D01*
X020357Y016403D02*
X020357Y016048D01*
X020517Y016048D02*
X020517Y016403D01*
X020677Y016403D02*
X020677Y016048D01*
X020137Y015798D02*
X018537Y015798D01*
X018597Y015768D02*
X018597Y018488D01*
X018558Y018518D02*
X018498Y018518D01*
X018437Y018550D02*
X018437Y018616D01*
X018402Y018644D02*
X018402Y018644D01*
X018402Y018644D01*
X018374Y018678D02*
X017691Y018678D01*
X017797Y018764D02*
X017797Y018472D01*
X017691Y018518D02*
X017948Y018518D01*
X017957Y018527D02*
X017957Y019289D01*
X017942Y019318D02*
X017828Y019318D01*
X017797Y019353D02*
X017797Y019693D01*
X017809Y019638D02*
X016223Y019638D01*
X016223Y019478D02*
X017865Y019478D01*
X017827Y019557D02*
X017827Y019557D01*
X017637Y019415D02*
X017637Y019948D01*
X017477Y019948D02*
X017477Y019415D01*
X017317Y019415D02*
X017317Y019948D01*
X017157Y019948D02*
X017157Y019403D01*
X016997Y019395D02*
X016997Y019948D01*
X016837Y019948D02*
X016837Y019395D01*
X016822Y019318D02*
X016742Y019318D01*
X016677Y019395D02*
X016677Y019948D01*
X016517Y019948D02*
X016517Y019387D01*
X016440Y019318D02*
X016180Y019318D01*
X016197Y019284D02*
X016197Y019383D01*
X016203Y019158D02*
X016425Y019158D01*
X016517Y019098D02*
X016517Y019018D01*
X016425Y019018D02*
X016425Y018843D01*
X016435Y018808D01*
X016453Y018776D01*
X016479Y018750D01*
X016511Y018731D01*
X016547Y018722D01*
X016742Y018722D01*
X016742Y019018D01*
X016425Y019018D01*
X016425Y018998D02*
X015907Y018998D01*
X015826Y018998D02*
X015459Y018998D01*
X015415Y019043D02*
X015066Y019043D01*
X014972Y018949D01*
X014972Y018379D01*
X014935Y018296D01*
X014873Y018296D01*
X014779Y018202D01*
X014779Y017515D01*
X014820Y017474D01*
X014745Y017515D01*
X014731Y017529D01*
X014679Y017550D01*
X014678Y017551D01*
X014619Y017582D01*
X014609Y017579D01*
X014592Y017586D01*
X014453Y017586D01*
X014453Y017734D01*
X014157Y017734D01*
X014157Y017814D01*
X014453Y017814D01*
X014453Y018009D01*
X014444Y018044D01*
X014425Y018076D01*
X014407Y018094D01*
X014473Y018160D01*
X014473Y018231D01*
X014492Y018250D01*
X014667Y018250D01*
X014761Y018344D01*
X014761Y018563D01*
X014772Y018591D01*
X014772Y018702D01*
X014761Y018731D01*
X014761Y018949D01*
X014667Y019043D01*
X014318Y019043D01*
X014224Y018949D01*
X014224Y018820D01*
X013853Y018820D01*
X013760Y018726D01*
X013760Y018160D01*
X013826Y018094D01*
X013808Y018076D01*
X013789Y018044D01*
X013780Y018009D01*
X013780Y017814D01*
X014076Y017814D01*
X014076Y017734D01*
X013780Y017734D01*
X013780Y017542D01*
X013304Y018018D01*
X013130Y018018D01*
X012561Y018018D01*
X012587Y018044D01*
X012645Y018183D01*
X012645Y018334D01*
X012637Y018351D01*
X012641Y018361D01*
X012641Y018361D01*
X012609Y018420D01*
X012609Y018421D01*
X012587Y018473D01*
X012573Y018487D01*
X012537Y018554D01*
X012617Y018634D01*
X012703Y018547D01*
X013230Y018547D01*
X013323Y018641D01*
X013323Y019207D01*
X013271Y019258D01*
X013323Y019310D01*
X013323Y019876D01*
X013251Y019948D01*
X014224Y019948D01*
X014224Y019368D01*
X014318Y019274D01*
X014667Y019274D01*
X014699Y019306D01*
X014704Y019304D01*
X014740Y019294D01*
X014852Y019294D01*
X014852Y019656D01*
X014881Y019656D01*
X014881Y019294D01*
X014993Y019294D01*
X015029Y019304D01*
X015034Y019306D01*
X015066Y019274D01*
X015415Y019274D01*
X015509Y019368D01*
X015509Y019390D01*
X015530Y019390D01*
X015576Y019344D01*
X015558Y019326D01*
X015539Y019294D01*
X015530Y019259D01*
X015530Y019064D01*
X015826Y019064D01*
X015826Y018984D01*
X015530Y018984D01*
X015530Y018798D01*
X015509Y018798D01*
X015509Y018949D01*
X015415Y019043D01*
X015397Y019043D02*
X015397Y019274D01*
X015459Y019318D02*
X015553Y019318D01*
X015557Y019324D02*
X015557Y019363D01*
X015530Y019158D02*
X013323Y019158D01*
X013317Y019213D02*
X013317Y019303D01*
X013323Y019318D02*
X014274Y019318D01*
X014277Y019315D02*
X014277Y019001D01*
X014274Y018998D02*
X013323Y018998D01*
X013323Y018838D02*
X014224Y018838D01*
X014117Y018820D02*
X014117Y019948D01*
X013957Y019948D02*
X013957Y018820D01*
X013797Y018763D02*
X013797Y019948D01*
X013637Y019948D02*
X013637Y017685D01*
X013603Y017718D02*
X013780Y017718D01*
X013797Y017734D02*
X013797Y017814D01*
X013780Y017878D02*
X013443Y017878D01*
X013477Y017845D02*
X013477Y019948D01*
X013317Y019948D02*
X013317Y019883D01*
X013323Y019798D02*
X014224Y019798D01*
X014224Y019638D02*
X013323Y019638D01*
X013323Y019478D02*
X014224Y019478D01*
X014437Y019274D02*
X014437Y019043D01*
X014597Y019043D02*
X014597Y019274D01*
X014757Y019294D02*
X014757Y018953D01*
X014711Y018998D02*
X015022Y018998D01*
X015077Y019043D02*
X015077Y019274D01*
X015237Y019274D02*
X015237Y019043D01*
X015557Y019064D02*
X015557Y018984D01*
X015530Y018838D02*
X015509Y018838D01*
X015717Y018984D02*
X015717Y019064D01*
X016037Y019064D02*
X016037Y018984D01*
X016197Y018984D02*
X016197Y019064D01*
X016203Y018838D02*
X016427Y018838D01*
X016517Y018730D02*
X016517Y018515D01*
X016677Y018515D02*
X016677Y018722D01*
X016742Y018838D02*
X016822Y018838D01*
X016837Y018722D02*
X016837Y018515D01*
X016997Y018515D02*
X016997Y018722D01*
X017157Y018713D02*
X017157Y018503D01*
X017211Y018518D02*
X016223Y018518D01*
X016223Y018358D02*
X016405Y018358D01*
X016405Y018198D02*
X016223Y018198D01*
X016197Y018133D02*
X016197Y018034D01*
X016195Y018038D02*
X016405Y018038D01*
X016422Y017878D02*
X016203Y017878D01*
X016197Y017814D02*
X016197Y017734D01*
X016203Y017718D02*
X016542Y017718D01*
X016517Y017802D02*
X016517Y017615D01*
X016542Y017615D02*
X016542Y017615D01*
X016442Y017558D02*
X016203Y017558D01*
X016197Y017513D02*
X016197Y017418D01*
X016357Y017418D02*
X016357Y019948D01*
X016223Y019798D02*
X017772Y019798D01*
X017828Y019158D02*
X018020Y019158D01*
X018063Y019068D02*
X018063Y019068D01*
X018117Y019001D02*
X018117Y018550D01*
X018277Y018550D02*
X018277Y018800D01*
X018246Y018838D02*
X017828Y018838D01*
X017828Y018998D02*
X018119Y018998D01*
X018560Y018358D02*
X018759Y018358D01*
X018757Y018361D02*
X018757Y018126D01*
X018712Y018038D02*
X018560Y018038D01*
X018560Y018198D02*
X019047Y018198D01*
X019077Y018184D02*
X019077Y018178D01*
X018917Y018176D02*
X018917Y018261D01*
X018712Y017878D02*
X017811Y017878D01*
X017797Y017864D02*
X017797Y017553D01*
X017791Y017558D02*
X017906Y017558D01*
X017906Y017523D02*
X017906Y017660D01*
X017915Y017696D01*
X017934Y017728D01*
X017960Y017754D01*
X017992Y017772D01*
X018027Y017782D01*
X018184Y017782D01*
X018184Y017523D01*
X018184Y017446D01*
X017906Y017446D01*
X017906Y017308D01*
X017915Y017273D01*
X017934Y017241D01*
X017960Y017215D01*
X017992Y017196D01*
X018027Y017187D01*
X018184Y017187D01*
X018184Y017445D01*
X018262Y017445D01*
X018262Y017187D01*
X018418Y017187D01*
X018454Y017196D01*
X018486Y017215D01*
X018512Y017241D01*
X018530Y017273D01*
X018540Y017308D01*
X018540Y017446D01*
X018262Y017446D01*
X018262Y017523D01*
X018540Y017523D01*
X018540Y017660D01*
X018530Y017696D01*
X018512Y017728D01*
X018486Y017754D01*
X018454Y017772D01*
X018418Y017782D01*
X018262Y017782D01*
X018262Y017523D01*
X018184Y017523D01*
X017906Y017523D01*
X017957Y017523D02*
X017957Y017446D01*
X017906Y017398D02*
X017828Y017398D01*
X017828Y017238D02*
X017936Y017238D01*
X017957Y017218D02*
X017957Y017058D01*
X017936Y017078D02*
X018730Y017078D01*
X018730Y016918D02*
X018560Y016918D01*
X018560Y016758D02*
X018730Y016758D01*
X018729Y016598D02*
X018560Y016598D01*
X018490Y016438D02*
X018712Y016438D01*
X018712Y016278D02*
X018431Y016278D01*
X018437Y016277D02*
X018437Y016415D01*
X018277Y016415D02*
X018277Y016282D01*
X018262Y016278D02*
X018184Y016278D01*
X018117Y016282D02*
X018117Y016415D01*
X017637Y016465D02*
X017637Y016699D01*
X018117Y017050D02*
X018117Y017187D01*
X018184Y017238D02*
X018262Y017238D01*
X018277Y017187D02*
X018277Y017050D01*
X018437Y017050D02*
X018437Y017192D01*
X018509Y017238D02*
X018730Y017238D01*
X018730Y017398D02*
X018540Y017398D01*
X018437Y017446D02*
X018437Y017523D01*
X018540Y017558D02*
X018730Y017558D01*
X018712Y017718D02*
X018517Y017718D01*
X018437Y017777D02*
X018437Y017915D01*
X018277Y017915D02*
X018277Y017782D01*
X018262Y017718D02*
X018184Y017718D01*
X018117Y017782D02*
X018117Y017915D01*
X017957Y017938D02*
X017957Y017751D01*
X017928Y017718D02*
X017691Y017718D01*
X018117Y017523D02*
X018117Y017446D01*
X018184Y017398D02*
X018262Y017398D01*
X018277Y017446D02*
X018277Y017523D01*
X018262Y017558D02*
X018184Y017558D01*
X017211Y018678D02*
X016223Y018678D01*
X016197Y018753D02*
X016197Y018763D01*
X016677Y019018D02*
X016677Y019098D01*
X016742Y019158D02*
X016822Y019158D01*
X016822Y018998D02*
X016742Y018998D01*
X016037Y017814D02*
X016037Y017734D01*
X015877Y016998D02*
X015877Y016945D01*
X016677Y016902D02*
X016677Y016465D01*
X018184Y015798D02*
X018262Y015798D01*
X018437Y015946D02*
X018437Y016023D01*
X018540Y016118D02*
X018729Y016118D01*
X018757Y016091D02*
X018757Y015768D01*
X018917Y015768D02*
X018917Y016041D01*
X019077Y016038D02*
X019077Y015768D01*
X019077Y015148D02*
X019077Y015129D01*
X019068Y015148D02*
X019114Y015038D01*
X019114Y014879D01*
X019086Y014812D01*
X019066Y014762D01*
X019066Y014762D01*
X018956Y014497D01*
X018956Y014300D01*
X019077Y014300D01*
X019077Y013983D01*
X019156Y013983D01*
X019156Y014300D01*
X019332Y014300D01*
X019367Y014290D01*
X019399Y014272D01*
X019425Y014246D01*
X019444Y014214D01*
X019453Y014178D01*
X019453Y013983D01*
X019157Y013983D01*
X019157Y013903D01*
X019453Y013903D01*
X019453Y013708D01*
X019444Y013672D01*
X019425Y013641D01*
X019407Y013623D01*
X019473Y013557D01*
X019473Y013212D01*
X020158Y013897D01*
X020143Y013912D01*
X020143Y014379D01*
X020237Y014473D01*
X020907Y014473D01*
X020907Y014606D01*
X020237Y014606D01*
X020143Y014699D01*
X020143Y014836D01*
X020068Y014987D01*
X020044Y015034D01*
X020007Y015071D01*
X020007Y015071D01*
X019930Y015148D01*
X019068Y015148D01*
X019114Y014998D02*
X020062Y014998D01*
X020037Y015041D02*
X020037Y013775D01*
X019980Y013718D02*
X019453Y013718D01*
X019453Y013878D02*
X020140Y013878D01*
X020143Y014038D02*
X019453Y014038D01*
X019397Y013983D02*
X019397Y013903D01*
X019237Y013903D02*
X019237Y013983D01*
X019156Y014038D02*
X019077Y014038D01*
X019077Y014198D02*
X019156Y014198D01*
X019077Y014300D02*
X019077Y014788D01*
X019097Y014838D02*
X020142Y014838D01*
X020164Y014678D02*
X019031Y014678D01*
X018965Y014518D02*
X020907Y014518D01*
X020837Y014473D02*
X020837Y014606D01*
X020677Y014606D02*
X020677Y014473D01*
X020517Y014473D02*
X020517Y014606D01*
X020357Y014606D02*
X020357Y014473D01*
X020197Y014432D02*
X020197Y014646D01*
X020143Y014358D02*
X018956Y014358D01*
X019237Y014300D02*
X019237Y015148D01*
X019397Y015148D02*
X019397Y014273D01*
X019448Y014198D02*
X020143Y014198D01*
X019877Y013615D02*
X019877Y015148D01*
X019717Y015148D02*
X019717Y013455D01*
X019660Y013398D02*
X019473Y013398D01*
X019557Y013295D02*
X019557Y015148D01*
X019471Y013558D02*
X019820Y013558D01*
X019500Y013238D02*
X019473Y013238D01*
X018792Y012958D02*
X018610Y012958D01*
X018610Y013008D01*
X018273Y013008D01*
X018273Y013008D01*
X018610Y013008D01*
X018610Y013028D01*
X018760Y013028D01*
X018760Y012991D01*
X018792Y012958D01*
X018757Y012958D02*
X018757Y013028D01*
X018597Y013008D02*
X018597Y013008D01*
X018437Y013008D02*
X018437Y013008D01*
X018277Y013008D02*
X018277Y013008D01*
X018272Y013008D02*
X017936Y013008D01*
X018272Y013008D01*
X018272Y013008D01*
X018117Y013008D02*
X018117Y013008D01*
X017957Y013008D02*
X017957Y013008D01*
X017936Y013078D02*
X017805Y013078D01*
X017797Y013100D02*
X017797Y013941D01*
X017916Y013878D02*
X017455Y013878D01*
X017477Y013898D02*
X017477Y013827D01*
X017495Y013718D02*
X017916Y013718D01*
X017916Y013558D02*
X017465Y013558D01*
X017477Y013579D02*
X017477Y013286D01*
X017379Y013398D02*
X017916Y013398D01*
X017918Y013238D02*
X017658Y013238D01*
X017637Y013247D02*
X017637Y013898D01*
X017893Y014038D02*
X018063Y014038D01*
X017957Y013974D02*
X017957Y014101D01*
X018053Y014198D02*
X018063Y014198D01*
X017936Y012918D02*
X017845Y012918D01*
X017814Y012758D02*
X017916Y012758D01*
X017797Y012717D02*
X017797Y012385D01*
X017916Y012438D02*
X017471Y012438D01*
X017477Y012433D02*
X017477Y012517D01*
X017492Y012521D02*
X017492Y012521D01*
X017637Y012565D02*
X017637Y012225D01*
X017690Y012278D02*
X017576Y012278D01*
X017595Y012118D02*
X017607Y012118D01*
X017607Y011958D02*
X017543Y011958D01*
X017477Y011884D02*
X017477Y011833D01*
X017497Y011798D02*
X017607Y011798D01*
X017607Y011638D02*
X017545Y011638D01*
X017522Y011478D02*
X017607Y011478D01*
X017607Y011318D02*
X017411Y011318D01*
X017477Y011384D02*
X017477Y011127D01*
X017464Y011158D02*
X017607Y011158D01*
X017607Y010998D02*
X017495Y010998D01*
X017477Y010890D02*
X017477Y010120D01*
X017607Y010198D02*
X015373Y010198D01*
X015397Y010175D02*
X015397Y013452D01*
X015237Y013452D02*
X015237Y010335D01*
X015213Y010358D02*
X017607Y010358D01*
X017607Y010518D02*
X015053Y010518D01*
X015077Y010495D02*
X015077Y013452D01*
X014917Y013452D02*
X014917Y010655D01*
X014893Y010678D02*
X016112Y010678D01*
X016197Y010620D02*
X016197Y009375D01*
X016173Y009398D02*
X016352Y009398D01*
X016357Y009403D02*
X016357Y009413D01*
X016310Y009558D02*
X016013Y009558D01*
X016037Y009535D02*
X016037Y010763D01*
X016029Y010767D02*
X016029Y010767D01*
X016007Y010838D02*
X014733Y010838D01*
X014757Y010815D02*
X014757Y013452D01*
X014597Y013452D02*
X014597Y010975D01*
X014573Y010998D02*
X015960Y010998D01*
X015979Y010933D02*
X015979Y010933D01*
X015877Y011151D02*
X015877Y009695D01*
X015853Y009718D02*
X016310Y009718D01*
X016310Y009878D02*
X015693Y009878D01*
X015717Y009855D02*
X015717Y011210D01*
X015616Y011318D02*
X014269Y011318D01*
X014277Y011295D02*
X014277Y011385D01*
X014293Y011478D02*
X015616Y011478D01*
X015616Y011638D02*
X014293Y011638D01*
X014302Y011600D02*
X014302Y011600D01*
X014302Y011600D01*
X014277Y011677D02*
X014277Y013438D01*
X014269Y013434D02*
X014269Y013434D01*
X014117Y013430D02*
X014117Y011885D01*
X014211Y011798D02*
X015616Y011798D01*
X015870Y011158D02*
X014413Y011158D01*
X014437Y011135D02*
X014437Y013452D01*
X014437Y014165D02*
X014437Y014248D01*
X014597Y014248D02*
X014597Y014165D01*
X014757Y014165D02*
X014757Y014248D01*
X014917Y014248D02*
X014917Y014165D01*
X015077Y014165D02*
X015077Y014248D01*
X014277Y014248D02*
X014277Y014179D01*
X014117Y014186D02*
X014117Y014248D01*
X013477Y014171D02*
X013477Y011695D01*
X013533Y011638D02*
X013540Y011638D01*
X015533Y010038D02*
X016322Y010038D01*
X016357Y010073D02*
X016357Y010580D01*
X016517Y010611D02*
X016517Y010120D01*
X016677Y010120D02*
X016677Y010734D01*
X016621Y010678D02*
X016925Y010678D01*
X016997Y010649D02*
X016997Y010053D01*
X017011Y010038D02*
X017222Y010038D01*
X017157Y009953D02*
X017157Y010630D01*
X017308Y010678D02*
X017607Y010678D01*
X017607Y010838D02*
X017455Y010838D01*
X017317Y010682D02*
X017317Y010120D01*
X016837Y010120D02*
X016837Y010754D01*
X016787Y010802D02*
X016787Y010802D01*
X016787Y010802D01*
X016775Y010838D02*
X016726Y010838D01*
X017023Y009533D02*
X017210Y009533D01*
X017210Y009460D01*
X017276Y009394D01*
X017258Y009376D01*
X017239Y009344D01*
X017230Y009309D01*
X017230Y009114D01*
X017526Y009114D01*
X017526Y009034D01*
X017230Y009034D01*
X017230Y008839D01*
X017239Y008803D01*
X017258Y008771D01*
X017284Y008745D01*
X017316Y008727D01*
X017351Y008717D01*
X017527Y008717D01*
X017527Y009034D01*
X017606Y009034D01*
X017606Y008717D01*
X017782Y008717D01*
X017817Y008727D01*
X017849Y008745D01*
X017875Y008771D01*
X017894Y008803D01*
X017903Y008839D01*
X017903Y009034D01*
X017607Y009034D01*
X017607Y009114D01*
X017903Y009114D01*
X017903Y009309D01*
X017894Y009344D01*
X017875Y009376D01*
X017857Y009394D01*
X017923Y009460D01*
X017923Y009533D01*
X018145Y009533D01*
X018156Y009522D01*
X018180Y009498D01*
X018229Y009333D01*
X018238Y009303D01*
X018238Y009283D01*
X018260Y009232D01*
X018279Y009167D01*
X018279Y009167D01*
X018289Y009161D01*
X018296Y009144D01*
X018351Y009090D01*
X018307Y009045D01*
X017830Y008568D01*
X017104Y008568D01*
X016952Y008720D01*
X017023Y008791D01*
X017023Y009357D01*
X016971Y009408D01*
X017023Y009460D01*
X017023Y009533D01*
X016997Y009433D02*
X016997Y009383D01*
X016981Y009398D02*
X017271Y009398D01*
X017230Y009238D02*
X017023Y009238D01*
X017023Y009078D02*
X017526Y009078D01*
X017477Y009114D02*
X017477Y009034D01*
X017527Y008918D02*
X017606Y008918D01*
X017637Y009034D02*
X017637Y009114D01*
X017607Y009078D02*
X018340Y009078D01*
X018277Y009015D02*
X018277Y009176D01*
X018279Y009167D02*
X018279Y009167D01*
X018257Y009238D02*
X017903Y009238D01*
X017797Y009114D02*
X017797Y009034D01*
X017903Y008918D02*
X018180Y008918D01*
X018117Y008855D02*
X018117Y009533D01*
X017957Y009533D02*
X017957Y008695D01*
X018020Y008758D02*
X017863Y008758D01*
X017797Y008721D02*
X017797Y008568D01*
X017860Y008598D02*
X017073Y008598D01*
X017157Y008568D02*
X017157Y009533D01*
X017317Y009114D02*
X017317Y009034D01*
X017230Y008918D02*
X017023Y008918D01*
X016997Y008764D02*
X016997Y008675D01*
X016991Y008758D02*
X017270Y008758D01*
X017317Y008727D02*
X017317Y008568D01*
X017477Y008568D02*
X017477Y008717D01*
X017527Y008758D02*
X017606Y008758D01*
X017637Y008717D02*
X017637Y008568D01*
X017637Y008148D02*
X017637Y007918D01*
X017677Y007958D02*
X016992Y007958D01*
X016992Y007798D02*
X017517Y007798D01*
X017477Y007758D02*
X017477Y008148D01*
X017317Y008148D02*
X017317Y007615D01*
X017357Y007638D02*
X016992Y007638D01*
X016997Y007615D02*
X016997Y008148D01*
X016992Y008118D02*
X019488Y008118D01*
X019519Y007958D02*
X018558Y007958D01*
X018437Y008050D02*
X018437Y008581D01*
X018454Y008598D02*
X020163Y008598D01*
X020197Y008754D02*
X020197Y008963D01*
X020241Y008918D02*
X019074Y008918D01*
X019077Y008921D02*
X019077Y007678D01*
X019237Y007676D02*
X019237Y010004D01*
X019271Y010038D02*
X020114Y010038D01*
X020037Y009936D02*
X020037Y010167D01*
X020015Y010198D02*
X019328Y010198D01*
X019328Y010358D02*
X019855Y010358D01*
X019877Y010337D02*
X019877Y009930D01*
X019752Y009878D02*
X018993Y009878D01*
X018917Y009955D02*
X018917Y010002D01*
X019077Y010002D02*
X019077Y009795D01*
X019153Y009718D02*
X019624Y009718D01*
X019717Y009843D02*
X019717Y010497D01*
X019695Y010518D02*
X019328Y010518D01*
X019271Y010678D02*
X019535Y010678D01*
X019557Y010657D02*
X019557Y008333D01*
X019528Y008278D02*
X018134Y008278D01*
X018117Y008261D02*
X018117Y008050D01*
X018277Y008050D02*
X018277Y008421D01*
X018294Y008438D02*
X019675Y008438D01*
X019717Y008456D02*
X019717Y009274D01*
X019752Y009238D02*
X019226Y009238D01*
X019226Y009078D02*
X020163Y009078D01*
X020069Y009184D02*
X020069Y009184D01*
X020037Y009180D02*
X020037Y008447D01*
X020058Y008438D02*
X020163Y008438D01*
X019969Y008482D02*
X019969Y008482D01*
X019877Y008486D02*
X019877Y009186D01*
X019624Y009398D02*
X019226Y009398D01*
X019226Y009558D02*
X019588Y009558D01*
X020181Y009878D02*
X020907Y009878D01*
X020837Y009881D02*
X020837Y009814D01*
X020677Y009814D02*
X020677Y009881D01*
X020517Y009881D02*
X020517Y009818D01*
X020357Y009818D02*
X020357Y009881D01*
X020197Y009864D02*
X020197Y009921D01*
X020357Y008903D02*
X020357Y008814D01*
X020517Y008814D02*
X020517Y008903D01*
X020677Y008903D02*
X020677Y008814D01*
X020837Y008814D02*
X020837Y008903D01*
X020201Y008758D02*
X018914Y008758D01*
X018917Y008761D02*
X018917Y007676D01*
X018769Y007638D02*
X018560Y007638D01*
X018560Y007798D02*
X019642Y007798D01*
X019717Y007761D02*
X019717Y006928D01*
X019854Y006998D02*
X019370Y006998D01*
X019397Y006928D02*
X019397Y010817D01*
X019375Y010838D02*
X019229Y010838D01*
X019237Y010713D02*
X019237Y010977D01*
X018210Y009398D02*
X017862Y009398D01*
X018229Y009333D02*
X018229Y009333D01*
X018597Y008741D02*
X018597Y005229D01*
X018609Y005238D02*
X018509Y005238D01*
X018512Y005241D02*
X018530Y005273D01*
X018540Y005308D01*
X018540Y005446D01*
X018262Y005446D01*
X018262Y005523D01*
X018540Y005523D01*
X018540Y005660D01*
X018530Y005696D01*
X018512Y005728D01*
X018486Y005754D01*
X018454Y005772D01*
X018418Y005782D01*
X018262Y005782D01*
X018262Y005523D01*
X018184Y005523D01*
X018184Y005446D01*
X017906Y005446D01*
X017906Y005308D01*
X017915Y005273D01*
X017934Y005241D01*
X017960Y005215D01*
X017992Y005196D01*
X018027Y005187D01*
X018184Y005187D01*
X018184Y005445D01*
X018262Y005445D01*
X018262Y005187D01*
X018418Y005187D01*
X018454Y005196D01*
X018486Y005215D01*
X018512Y005241D01*
X018437Y005192D02*
X018437Y005101D01*
X018408Y005078D02*
X016469Y005078D01*
X016517Y005130D02*
X016517Y004964D01*
X016526Y004918D02*
X018278Y004918D01*
X018277Y004916D02*
X018277Y005187D01*
X018262Y005238D02*
X018184Y005238D01*
X018117Y005187D02*
X018117Y004716D01*
X018151Y004758D02*
X016526Y004758D01*
X016526Y004598D02*
X018039Y004598D01*
X017962Y004438D02*
X016526Y004438D01*
X016526Y004278D02*
X017885Y004278D01*
X017827Y004159D02*
X017827Y004159D01*
X017818Y004118D02*
X016526Y004118D01*
X016526Y003958D02*
X017782Y003958D01*
X017797Y004024D02*
X017797Y005164D01*
X017828Y005238D02*
X017936Y005238D01*
X017957Y005218D02*
X017957Y004428D01*
X017745Y003798D02*
X016676Y003798D01*
X016677Y003768D02*
X016677Y005122D01*
X016742Y005238D02*
X016822Y005238D01*
X016837Y005122D02*
X016837Y003768D01*
X016997Y003768D02*
X016997Y005122D01*
X017157Y005113D02*
X017157Y003768D01*
X017317Y003768D02*
X017317Y005102D01*
X017477Y005102D02*
X017477Y003768D01*
X017637Y003768D02*
X017637Y005102D01*
X017828Y005398D02*
X017906Y005398D01*
X017957Y005446D02*
X017957Y005523D01*
X017906Y005523D02*
X018184Y005523D01*
X018184Y005782D01*
X018027Y005782D01*
X017992Y005772D01*
X017960Y005754D01*
X017934Y005728D01*
X017915Y005696D01*
X017906Y005660D01*
X017906Y005523D01*
X017906Y005558D02*
X017828Y005558D01*
X017828Y005718D02*
X017928Y005718D01*
X017957Y005751D02*
X017957Y005938D01*
X018117Y005915D02*
X018117Y005782D01*
X018184Y005718D02*
X018262Y005718D01*
X018277Y005782D02*
X018277Y005915D01*
X018437Y005915D02*
X018437Y005777D01*
X018517Y005718D02*
X018712Y005718D01*
X018757Y005591D02*
X018757Y005356D01*
X018809Y005398D02*
X018540Y005398D01*
X018437Y005446D02*
X018437Y005523D01*
X018540Y005558D02*
X018789Y005558D01*
X018917Y005541D02*
X018917Y005455D01*
X018826Y005412D02*
X018826Y005412D01*
X019077Y005532D02*
X019077Y005538D01*
X019387Y005664D02*
X019387Y006082D01*
X019370Y006099D01*
X019370Y006288D01*
X019853Y006288D01*
X019980Y006288D01*
X020098Y006337D01*
X020165Y006405D01*
X020212Y006358D01*
X020160Y006307D01*
X020160Y006068D01*
X020143Y006029D01*
X020080Y005901D01*
X019947Y005768D01*
X019845Y005768D01*
X019387Y005664D01*
X019397Y005666D02*
X019397Y006288D01*
X019370Y006198D02*
X020160Y006198D01*
X020197Y006343D02*
X020197Y006373D01*
X020211Y006358D02*
X020119Y006358D01*
X020037Y006312D02*
X020037Y005858D01*
X020057Y005878D02*
X019387Y005878D01*
X019387Y005718D02*
X019626Y005718D01*
X019557Y005703D02*
X019557Y006288D01*
X019717Y006288D02*
X019717Y005739D01*
X019877Y005768D02*
X019877Y006288D01*
X020147Y006038D02*
X019387Y006038D01*
X018712Y006038D02*
X018560Y006038D01*
X018560Y006198D02*
X018730Y006198D01*
X018730Y006358D02*
X018560Y006358D01*
X018498Y006518D02*
X018730Y006518D01*
X018730Y006678D02*
X017771Y006678D01*
X017797Y006653D02*
X017797Y006964D01*
X017828Y006998D02*
X018184Y006998D01*
X018184Y007023D02*
X018184Y006946D01*
X017906Y006946D01*
X017906Y006808D01*
X017915Y006773D01*
X017934Y006741D01*
X017960Y006715D01*
X017992Y006696D01*
X018027Y006687D01*
X018184Y006687D01*
X018184Y006945D01*
X018262Y006945D01*
X018262Y006687D01*
X018418Y006687D01*
X018454Y006696D01*
X018486Y006715D01*
X018512Y006741D01*
X018530Y006773D01*
X018540Y006808D01*
X018540Y006946D01*
X018262Y006946D01*
X018262Y007023D01*
X018540Y007023D01*
X018540Y007160D01*
X018530Y007196D01*
X018512Y007228D01*
X018486Y007254D01*
X018454Y007272D01*
X018418Y007282D01*
X018262Y007282D01*
X018262Y007023D01*
X018184Y007023D01*
X017906Y007023D01*
X017906Y007160D01*
X017915Y007196D01*
X017934Y007228D01*
X017960Y007254D01*
X017992Y007272D01*
X018027Y007282D01*
X018184Y007282D01*
X018184Y007023D01*
X018117Y007023D02*
X018117Y006946D01*
X018184Y006838D02*
X018262Y006838D01*
X018277Y006946D02*
X018277Y007023D01*
X018262Y006998D02*
X018730Y006998D01*
X018730Y006838D02*
X018540Y006838D01*
X018437Y006946D02*
X018437Y007023D01*
X018540Y007158D02*
X018712Y007158D01*
X018712Y007318D02*
X017828Y007318D01*
X017957Y007251D02*
X017957Y007438D01*
X017916Y007478D02*
X017876Y007478D01*
X018117Y007415D02*
X018117Y007282D01*
X018184Y007158D02*
X018262Y007158D01*
X018277Y007282D02*
X018277Y007415D01*
X018437Y007415D02*
X018437Y007277D01*
X018530Y007478D02*
X018712Y007478D01*
X018757Y007626D02*
X018757Y008748D01*
X017957Y008148D02*
X017957Y008027D01*
X017797Y007998D02*
X017797Y008148D01*
X017157Y008148D02*
X017157Y007603D01*
X017828Y007158D02*
X017906Y007158D01*
X017957Y007023D02*
X017957Y006946D01*
X017906Y006838D02*
X017671Y006838D01*
X017957Y006718D02*
X017957Y006527D01*
X017948Y006518D02*
X017828Y006518D01*
X018117Y006550D02*
X018117Y006687D01*
X018277Y006687D02*
X018277Y006550D01*
X018437Y006550D02*
X018437Y006692D01*
X017797Y005992D02*
X017797Y005753D01*
X017661Y005878D02*
X018712Y005878D01*
X018262Y005558D02*
X018184Y005558D01*
X018117Y005523D02*
X018117Y005446D01*
X018184Y005398D02*
X018262Y005398D01*
X018277Y005446D02*
X018277Y005523D01*
X018402Y005073D02*
X018402Y005073D01*
X018712Y004083D02*
X018672Y003858D01*
X018729Y003535D01*
X018893Y003251D01*
X019144Y003041D01*
X019144Y003041D01*
X019453Y002928D01*
X019534Y002928D01*
X019617Y002928D01*
X019699Y002928D01*
X019780Y002928D01*
X020089Y003041D01*
X020340Y003251D01*
X020340Y003251D01*
X020340Y003251D01*
X020504Y003535D01*
X020504Y003535D01*
X020561Y003858D01*
X020561Y003858D01*
X020504Y004181D01*
X020504Y004181D01*
X020340Y004465D01*
X020340Y004465D01*
X020089Y004676D01*
X020089Y004676D01*
X019781Y004788D01*
X019780Y004788D01*
X019699Y004788D01*
X019617Y004788D01*
X019582Y004788D01*
X019534Y004788D01*
X019453Y004788D01*
X019453Y004788D01*
X019419Y004776D01*
X019591Y004859D01*
X019939Y004938D01*
X020116Y004948D01*
X020198Y004948D01*
X020349Y005011D01*
X020741Y005403D01*
X020907Y005403D01*
X020907Y003476D01*
X020895Y003334D01*
X020808Y003064D01*
X020641Y002834D01*
X020411Y002667D01*
X020141Y002580D01*
X019999Y002568D01*
X019962Y002568D01*
X019911Y002568D01*
X016849Y002568D01*
X016849Y002948D01*
X018035Y002948D01*
X018198Y002948D01*
X018349Y003011D01*
X018464Y003126D01*
X018526Y003277D01*
X018526Y003358D01*
X018536Y003536D01*
X018616Y003884D01*
X018712Y004083D01*
X018690Y003958D02*
X018652Y003958D01*
X018672Y003858D02*
X018672Y003858D01*
X018683Y003798D02*
X018596Y003798D01*
X018597Y003800D02*
X018597Y002568D01*
X018757Y002568D02*
X018757Y003488D01*
X018762Y003478D02*
X018533Y003478D01*
X018526Y003318D02*
X018854Y003318D01*
X018893Y003251D02*
X018893Y003251D01*
X018917Y003232D02*
X018917Y002568D01*
X019077Y002568D02*
X019077Y003098D01*
X019004Y003158D02*
X018477Y003158D01*
X018437Y003099D02*
X018437Y002568D01*
X018277Y002568D02*
X018277Y002981D01*
X018319Y002998D02*
X019260Y002998D01*
X019237Y003007D02*
X019237Y002568D01*
X019397Y002568D02*
X019397Y002949D01*
X019453Y002928D02*
X019453Y002928D01*
X019557Y002928D02*
X019557Y002568D01*
X019717Y002568D02*
X019717Y002928D01*
X019877Y002963D02*
X019877Y002568D01*
X020037Y002571D02*
X020037Y003022D01*
X019973Y002998D02*
X020760Y002998D01*
X020677Y002884D02*
X020677Y005339D01*
X020736Y005398D02*
X020907Y005398D01*
X020837Y005403D02*
X020837Y003153D01*
X020838Y003158D02*
X020229Y003158D01*
X020197Y003131D02*
X020197Y002598D01*
X020357Y002650D02*
X020357Y003280D01*
X020379Y003318D02*
X020890Y003318D01*
X020907Y003478D02*
X020471Y003478D01*
X020517Y003607D02*
X020517Y002744D01*
X020426Y002678D02*
X016849Y002678D01*
X016849Y002838D02*
X020644Y002838D01*
X020522Y003638D02*
X020907Y003638D01*
X020907Y003798D02*
X020550Y003798D01*
X020543Y003958D02*
X020907Y003958D01*
X020907Y004118D02*
X020515Y004118D01*
X020517Y004110D02*
X020517Y005179D01*
X020576Y005238D02*
X020907Y005238D01*
X020907Y005078D02*
X020416Y005078D01*
X020357Y005019D02*
X020357Y004437D01*
X020355Y004438D02*
X020907Y004438D01*
X020907Y004278D02*
X020448Y004278D01*
X020197Y004586D02*
X020197Y004948D01*
X020037Y004944D02*
X020037Y004695D01*
X019877Y004753D02*
X019877Y004924D01*
X019851Y004918D02*
X020907Y004918D01*
X020907Y004758D02*
X019863Y004758D01*
X019717Y004788D02*
X019717Y004888D01*
X019557Y004842D02*
X019557Y004788D01*
X020181Y004598D02*
X020907Y004598D01*
X018711Y003638D02*
X018560Y003638D01*
X018729Y003535D02*
X018729Y003535D01*
X018117Y002948D02*
X018117Y002568D01*
X017957Y002568D02*
X017957Y002948D01*
X017797Y002948D02*
X017797Y002568D01*
X017637Y002568D02*
X017637Y002948D01*
X017477Y002948D02*
X017477Y002568D01*
X017317Y002568D02*
X017317Y002948D01*
X017157Y002948D02*
X017157Y002568D01*
X016997Y002568D02*
X016997Y002948D01*
X015707Y003958D02*
X013526Y003958D01*
X013526Y004118D02*
X015707Y004118D01*
X015707Y004278D02*
X013526Y004278D01*
X012837Y005158D02*
X012837Y005554D01*
X013418Y005718D02*
X013515Y005718D01*
X013488Y005878D02*
X013445Y005878D01*
X013494Y005965D02*
X013494Y005965D01*
X013532Y006038D02*
X013401Y006038D01*
X013384Y006198D02*
X013549Y006198D01*
X013549Y006358D02*
X013384Y006358D01*
X013384Y006518D02*
X013549Y006518D01*
X013601Y006678D02*
X013332Y006678D01*
X013317Y006662D02*
X013317Y006654D01*
X013384Y006838D02*
X013549Y006838D01*
X013549Y006998D02*
X013384Y006998D01*
X013384Y007158D02*
X013549Y007158D01*
X013637Y007265D02*
X013637Y007626D01*
X013667Y007638D02*
X014166Y007638D01*
X014117Y007659D02*
X014117Y007245D01*
X013957Y007271D02*
X013957Y007834D01*
X013977Y007798D02*
X013856Y007798D01*
X013797Y007739D02*
X013797Y007271D01*
X013477Y007578D02*
X013477Y005268D01*
X014277Y005268D02*
X014277Y006748D01*
X014437Y006748D02*
X014437Y005268D01*
X014597Y005268D02*
X014597Y006748D01*
X014757Y006748D02*
X014757Y006470D01*
X014762Y006480D02*
X014744Y006448D01*
X014734Y006413D01*
X014734Y006198D01*
X015326Y006198D01*
X015326Y006118D01*
X014734Y006118D01*
X014734Y005903D01*
X014744Y005868D01*
X014762Y005836D01*
X014788Y005810D01*
X014820Y005791D01*
X014856Y005782D01*
X015327Y005782D01*
X015327Y006118D01*
X015406Y006118D01*
X015406Y005782D01*
X015877Y005782D01*
X015913Y005791D01*
X015945Y005810D01*
X015971Y005836D01*
X015989Y005868D01*
X015999Y005903D01*
X015999Y006118D01*
X015407Y006118D01*
X015407Y006198D01*
X015999Y006198D01*
X015999Y006413D01*
X015989Y006448D01*
X015971Y006480D01*
X015945Y006506D01*
X015913Y006525D01*
X015877Y006534D01*
X015406Y006534D01*
X015406Y006198D01*
X015327Y006198D01*
X015327Y006534D01*
X014856Y006534D01*
X014820Y006525D01*
X014788Y006506D01*
X014762Y006480D01*
X014810Y006518D02*
X014184Y006518D01*
X014117Y006654D02*
X014117Y006662D01*
X014132Y006678D02*
X016462Y006678D01*
X016517Y006715D02*
X016517Y006902D01*
X016542Y006838D02*
X015544Y006838D01*
X015557Y006851D02*
X015557Y006534D01*
X015406Y006518D02*
X015327Y006518D01*
X015237Y006534D02*
X015237Y006748D01*
X015397Y006748D02*
X015397Y006198D01*
X015406Y006198D02*
X015327Y006198D01*
X015237Y006198D02*
X015237Y006118D01*
X015327Y006038D02*
X015406Y006038D01*
X015397Y006118D02*
X015397Y005268D01*
X015557Y005268D02*
X015557Y005782D01*
X015717Y005782D02*
X015717Y005268D01*
X015877Y005268D02*
X015877Y005782D01*
X015992Y005878D02*
X017241Y005878D01*
X017157Y005803D02*
X017157Y006013D01*
X017131Y006038D02*
X017102Y006038D01*
X016997Y006002D02*
X016997Y005795D01*
X016837Y005795D02*
X016837Y006002D01*
X016677Y006002D02*
X016677Y005795D01*
X016742Y005718D02*
X016822Y005718D01*
X016822Y005558D02*
X016742Y005558D01*
X016677Y005498D02*
X016677Y005418D01*
X016742Y005398D02*
X016822Y005398D01*
X016427Y005238D02*
X016270Y005238D01*
X016197Y005268D02*
X016197Y007443D01*
X016292Y007471D02*
X016292Y007471D01*
X016316Y007478D02*
X016405Y007478D01*
X016357Y007486D02*
X016357Y005198D01*
X016037Y005268D02*
X016037Y007331D01*
X016023Y007318D02*
X016405Y007318D01*
X016405Y007158D02*
X015863Y007158D01*
X015877Y007171D02*
X015877Y006534D01*
X015924Y006518D02*
X016405Y006518D01*
X016405Y006358D02*
X015999Y006358D01*
X015999Y006198D02*
X016405Y006198D01*
X016462Y006038D02*
X015999Y006038D01*
X015877Y006118D02*
X015877Y006198D01*
X015717Y006198D02*
X015717Y006118D01*
X015557Y006118D02*
X015557Y006198D01*
X015406Y006358D02*
X015327Y006358D01*
X015077Y006198D02*
X015077Y006118D01*
X014917Y006118D02*
X014917Y006198D01*
X014757Y006198D02*
X014757Y006118D01*
X014734Y006038D02*
X014201Y006038D01*
X014242Y005957D02*
X014242Y005957D01*
X014245Y005878D02*
X014741Y005878D01*
X014757Y005846D02*
X014757Y005268D01*
X014917Y005268D02*
X014917Y005782D01*
X015077Y005782D02*
X015077Y005268D01*
X015237Y005268D02*
X015237Y005782D01*
X015327Y005878D02*
X015406Y005878D01*
X015717Y006534D02*
X015717Y007011D01*
X015703Y006998D02*
X016405Y006998D01*
X015750Y007638D02*
X015667Y007638D01*
X015717Y007659D02*
X015717Y007605D01*
X015237Y007609D02*
X015237Y007168D01*
X015077Y006748D02*
X015077Y006534D01*
X014917Y006534D02*
X014917Y006748D01*
X014734Y006358D02*
X014184Y006358D01*
X014184Y006198D02*
X014734Y006198D01*
X014218Y005718D02*
X016440Y005718D01*
X016517Y005787D02*
X016517Y006002D01*
X015576Y006871D02*
X015576Y006871D01*
X014757Y007168D02*
X014757Y007699D01*
X014667Y007638D02*
X015166Y007638D01*
X015116Y007659D02*
X014967Y007808D01*
X014917Y007931D01*
X014977Y007798D02*
X014856Y007798D01*
X014597Y007609D02*
X014597Y007168D01*
X014437Y007168D02*
X014437Y007578D01*
X014277Y007593D02*
X014277Y007168D01*
X013317Y007245D02*
X013317Y007578D01*
X012837Y007779D02*
X012837Y007265D01*
X012670Y004918D02*
X012143Y004918D01*
X012143Y004758D02*
X012670Y004758D01*
X012670Y004598D02*
X012143Y004598D01*
X012037Y004498D02*
X012037Y004418D01*
X012677Y003893D02*
X012677Y003768D01*
X014437Y003398D02*
X014437Y003318D01*
X014597Y003318D02*
X014597Y003398D01*
X014699Y003158D02*
X014779Y003158D01*
X014779Y002998D02*
X014699Y002998D01*
X014917Y002848D02*
X014917Y002568D01*
X015077Y002568D02*
X015077Y002936D01*
X015142Y002998D02*
X015557Y002998D01*
X015557Y002892D02*
X015584Y002865D01*
X019387Y007158D02*
X020163Y007158D01*
X020197Y007254D02*
X020197Y007857D01*
X020091Y007798D02*
X020907Y007798D01*
X020837Y007903D02*
X020837Y007314D01*
X020907Y007318D02*
X019387Y007318D01*
X019387Y007478D02*
X020907Y007478D01*
X020907Y007638D02*
X019330Y007638D01*
X019557Y007884D02*
X019557Y006928D01*
X019877Y007021D02*
X019877Y007730D01*
X020037Y007770D02*
X020037Y007122D01*
X020357Y007314D02*
X020357Y007898D01*
X020517Y007898D02*
X020517Y007314D01*
X020677Y007314D02*
X020677Y007888D01*
X017916Y012598D02*
X017691Y012598D01*
X015557Y013421D02*
X015557Y010015D01*
X015204Y008758D02*
X015201Y008758D01*
X010260Y004918D02*
X010103Y004918D01*
X010114Y004758D02*
X010260Y004758D01*
X007781Y003931D02*
X007781Y003768D01*
X007522Y003768D01*
X007522Y003920D01*
X007602Y003920D01*
X007602Y004282D01*
X007631Y004282D01*
X007631Y003920D01*
X007743Y003920D01*
X007779Y003930D01*
X007781Y003931D01*
X007717Y003920D02*
X007717Y003768D01*
X007781Y003798D02*
X007522Y003798D01*
X007557Y003768D02*
X007557Y003920D01*
X007602Y003958D02*
X007631Y003958D01*
X007631Y004118D02*
X007602Y004118D01*
X007602Y004278D02*
X007631Y004278D01*
X007631Y004438D02*
X007602Y004438D01*
X004831Y005073D02*
X004831Y005073D01*
X004831Y005073D01*
X003717Y004823D02*
X003717Y004788D01*
X003557Y004788D02*
X003557Y004879D01*
X003397Y004915D02*
X003397Y004768D01*
X003370Y004758D02*
X002326Y004758D01*
X002326Y004598D02*
X003052Y004598D01*
X003077Y004619D02*
X003077Y004948D01*
X003237Y004942D02*
X003237Y004710D01*
X003144Y004676D02*
X003144Y004676D01*
X002917Y004485D02*
X002917Y004997D01*
X002817Y005078D02*
X002326Y005078D01*
X002326Y004918D02*
X003382Y004918D01*
X002893Y004465D02*
X002893Y004465D01*
X002893Y004465D01*
X002878Y004438D02*
X002326Y004438D01*
X002326Y004278D02*
X002785Y004278D01*
X002757Y004229D02*
X002757Y005139D01*
X002769Y005126D02*
X002769Y005126D01*
X002729Y004181D02*
X002729Y004181D01*
X002718Y004118D02*
X002326Y004118D01*
X002326Y003958D02*
X002690Y003958D01*
X002672Y003858D02*
X002672Y003858D01*
X002683Y003798D02*
X002326Y003798D01*
X002326Y003638D02*
X002711Y003638D01*
X002729Y003535D02*
X002729Y003535D01*
X004197Y003131D02*
X004197Y002568D01*
X004357Y002568D02*
X004357Y003280D01*
X004379Y003318D02*
X004707Y003318D01*
X004700Y003478D02*
X004471Y003478D01*
X004517Y003607D02*
X004517Y002568D01*
X004677Y002568D02*
X004677Y003624D01*
X004673Y003638D02*
X004522Y003638D01*
X004550Y003798D02*
X004637Y003798D01*
X004581Y003958D02*
X004543Y003958D01*
X004756Y003158D02*
X004229Y003158D01*
X004837Y003059D02*
X004837Y002568D01*
X002345Y008118D02*
X002326Y008118D01*
X004319Y012068D02*
X004173Y012214D01*
X004173Y012557D01*
X004107Y012623D01*
X004125Y012641D01*
X004144Y012672D01*
X004153Y012708D01*
X004153Y012825D01*
X004207Y012771D01*
X004330Y012648D01*
X004476Y012648D01*
X004476Y012598D01*
X004476Y012401D01*
X004476Y012150D01*
X004496Y012130D01*
X004496Y012079D01*
X004548Y012079D01*
X004548Y012079D01*
X004548Y012079D01*
X004496Y012079D01*
X004496Y012068D01*
X004319Y012068D01*
X004357Y012068D02*
X004357Y012648D01*
X004476Y012598D02*
X004131Y012598D01*
X004153Y012758D02*
X004220Y012758D01*
X004207Y012771D02*
X004207Y012771D01*
X004197Y012781D02*
X004197Y012191D01*
X004173Y012278D02*
X004476Y012278D01*
X004476Y012438D02*
X004173Y012438D01*
X004269Y012118D02*
X004496Y012118D01*
X004517Y012079D02*
X004517Y012079D01*
X003776Y012903D02*
X003480Y012903D01*
X003480Y012708D01*
X003489Y012672D01*
X003508Y012641D01*
X003526Y012623D01*
X003460Y012557D01*
X003460Y012555D01*
X003399Y012616D01*
X003399Y012822D01*
X003305Y012915D01*
X002326Y012915D01*
X002326Y013222D01*
X002608Y013222D01*
X002608Y013518D01*
X002688Y013518D01*
X002688Y013222D01*
X003257Y013222D01*
X003293Y013231D01*
X003325Y013250D01*
X003351Y013276D01*
X003369Y013308D01*
X003379Y013343D01*
X003379Y013518D01*
X002688Y013518D01*
X002688Y013598D01*
X003379Y013598D01*
X003379Y013774D01*
X003369Y013809D01*
X003878Y013300D01*
X003856Y013300D01*
X003856Y012983D01*
X003777Y012983D01*
X003777Y013300D01*
X003601Y013300D01*
X003566Y013290D01*
X003534Y013272D01*
X003508Y013246D01*
X003489Y013214D01*
X003480Y013178D01*
X003480Y012983D01*
X003776Y012983D01*
X003776Y012903D01*
X003776Y012918D02*
X002326Y012918D01*
X002437Y012915D02*
X002437Y013222D01*
X002597Y013222D02*
X002597Y012915D01*
X002757Y012915D02*
X002757Y013222D01*
X002688Y013238D02*
X002608Y013238D01*
X002608Y013398D02*
X002688Y013398D01*
X002757Y013518D02*
X002757Y013598D01*
X002688Y013599D02*
X002608Y013599D01*
X002608Y013895D01*
X002326Y013895D01*
X002326Y014202D01*
X002861Y014202D01*
X003092Y014086D01*
X003292Y013886D01*
X003257Y013895D01*
X002688Y013895D01*
X002688Y013599D01*
X002688Y013558D02*
X003620Y013558D01*
X003557Y013621D02*
X003557Y013285D01*
X003504Y013238D02*
X003305Y013238D01*
X003237Y013222D02*
X003237Y012915D01*
X003077Y012915D02*
X003077Y013222D01*
X002917Y013222D02*
X002917Y012915D01*
X003397Y012824D02*
X003397Y013781D01*
X003379Y013718D02*
X003460Y013718D01*
X003237Y013598D02*
X003237Y013518D01*
X003077Y013518D02*
X003077Y013598D01*
X002917Y013598D02*
X002917Y013518D01*
X002688Y013718D02*
X002608Y013718D01*
X002608Y013878D02*
X002688Y013878D01*
X002757Y013895D02*
X002757Y014202D01*
X002867Y014198D02*
X002326Y014198D01*
X002437Y014202D02*
X002437Y013895D01*
X002597Y013895D02*
X002597Y014202D01*
X002326Y014038D02*
X003140Y014038D01*
X003077Y014094D02*
X003077Y013895D01*
X003237Y013895D02*
X003237Y013941D01*
X002917Y013895D02*
X002917Y014174D01*
X003626Y014445D02*
X003626Y015145D01*
X003504Y015268D01*
X003426Y015345D01*
X003406Y015366D01*
X003399Y015396D01*
X003399Y015822D01*
X003305Y015915D01*
X002326Y015915D01*
X002326Y016403D01*
X002976Y016403D01*
X003070Y016497D01*
X003070Y016538D01*
X003230Y016538D01*
X003348Y016587D01*
X003438Y016677D01*
X003599Y016838D01*
X003863Y016838D01*
X003863Y016599D01*
X003846Y016582D01*
X003846Y016135D01*
X003940Y016041D01*
X004114Y016041D01*
X004120Y016038D01*
X004247Y016038D01*
X004253Y016041D01*
X004427Y016041D01*
X004521Y016135D01*
X004521Y016582D01*
X004503Y016599D01*
X004503Y017095D01*
X004503Y017222D01*
X004503Y017617D01*
X004521Y017635D01*
X004521Y018082D01*
X004427Y018176D01*
X004253Y018176D01*
X004247Y018178D01*
X004144Y018178D01*
X004407Y018305D01*
X004831Y018644D01*
X004831Y018644D01*
X005170Y019068D01*
X005170Y019068D01*
X005406Y019557D01*
X005406Y019557D01*
X005495Y019948D01*
X006557Y019948D01*
X006557Y019892D01*
X006650Y019798D01*
X005461Y019798D01*
X005477Y019868D02*
X005477Y018793D01*
X005499Y018815D02*
X005405Y018722D01*
X005405Y018195D01*
X005499Y018102D01*
X005542Y018102D01*
X005542Y018015D01*
X005499Y018015D01*
X005405Y017922D01*
X005405Y017724D01*
X005331Y017724D01*
X005254Y017802D01*
X004767Y017802D01*
X004673Y017708D01*
X004673Y017261D01*
X004767Y017167D01*
X005254Y017167D01*
X005331Y017244D01*
X005542Y017244D01*
X005542Y017215D01*
X005499Y017215D01*
X005405Y017122D01*
X005405Y016793D01*
X005306Y016694D01*
X005049Y016694D01*
X005049Y016771D01*
X005327Y016771D01*
X005327Y016908D01*
X005318Y016944D01*
X005299Y016976D01*
X005273Y017002D01*
X005241Y017020D01*
X005206Y017030D01*
X005049Y017030D01*
X005049Y016771D01*
X004971Y016771D01*
X004971Y016694D01*
X004693Y016694D01*
X004693Y016556D01*
X004703Y016521D01*
X004721Y016489D01*
X004747Y016463D01*
X004779Y016444D01*
X004815Y016435D01*
X004971Y016435D01*
X004971Y016693D01*
X005049Y016693D01*
X005049Y016437D01*
X004914Y016302D01*
X004767Y016302D01*
X004673Y016208D01*
X004673Y015761D01*
X004767Y015667D01*
X005207Y015667D01*
X005207Y015022D01*
X005175Y015054D01*
X004570Y015054D01*
X004476Y014960D01*
X004476Y014763D01*
X004476Y014566D01*
X004476Y014423D01*
X004426Y014516D01*
X004426Y014561D01*
X004423Y014564D01*
X004423Y014907D01*
X004357Y014973D01*
X004375Y014991D01*
X004394Y015022D01*
X004403Y015058D01*
X004403Y015253D01*
X004107Y015253D01*
X004107Y015333D01*
X004403Y015333D01*
X004403Y015528D01*
X004394Y015564D01*
X004375Y015596D01*
X004349Y015622D01*
X004317Y015640D01*
X004282Y015650D01*
X004106Y015650D01*
X004106Y015333D01*
X004027Y015333D01*
X004027Y015650D01*
X003851Y015650D01*
X003816Y015640D01*
X003784Y015622D01*
X003758Y015596D01*
X003739Y015564D01*
X003730Y015528D01*
X003730Y015333D01*
X004026Y015333D01*
X004026Y015253D01*
X003730Y015253D01*
X003730Y015058D01*
X003739Y015022D01*
X003758Y014991D01*
X003776Y014973D01*
X003710Y014907D01*
X003710Y014362D01*
X003626Y014445D01*
X003626Y014518D02*
X003710Y014518D01*
X003710Y014678D02*
X003626Y014678D01*
X003626Y014838D02*
X003710Y014838D01*
X003717Y014913D02*
X003717Y016838D01*
X003557Y016796D02*
X003557Y015215D01*
X003613Y015158D02*
X003730Y015158D01*
X003753Y014998D02*
X003626Y014998D01*
X003877Y015253D02*
X003877Y015333D01*
X004026Y015318D02*
X003453Y015318D01*
X003399Y015478D02*
X003730Y015478D01*
X003813Y015638D02*
X003399Y015638D01*
X003399Y015798D02*
X004673Y015798D01*
X004677Y015757D02*
X004677Y015054D01*
X004837Y015054D02*
X004837Y015667D01*
X004997Y015667D02*
X004997Y015054D01*
X005157Y015054D02*
X005157Y015667D01*
X005207Y015638D02*
X004320Y015638D01*
X004357Y015614D02*
X004357Y016041D01*
X004197Y016038D02*
X004197Y015650D01*
X004106Y015638D02*
X004027Y015638D01*
X003877Y015650D02*
X003877Y016104D01*
X003863Y016118D02*
X002326Y016118D01*
X002326Y015958D02*
X004673Y015958D01*
X004673Y016118D02*
X004504Y016118D01*
X004517Y016131D02*
X004517Y015000D01*
X004515Y014998D02*
X004380Y014998D01*
X004403Y015158D02*
X005207Y015158D01*
X005207Y015318D02*
X004107Y015318D01*
X004037Y015333D02*
X004037Y016041D01*
X003846Y016278D02*
X002326Y016278D01*
X002437Y016403D02*
X002437Y015915D01*
X002597Y015915D02*
X002597Y016403D01*
X002757Y016403D02*
X002757Y015915D01*
X002917Y015915D02*
X002917Y016403D01*
X003012Y016438D02*
X003846Y016438D01*
X003863Y016598D02*
X003359Y016598D01*
X003397Y016636D02*
X003397Y015824D01*
X003237Y015915D02*
X003237Y016541D01*
X003077Y016538D02*
X003077Y015915D01*
X003519Y016758D02*
X003863Y016758D01*
X004503Y016758D02*
X004971Y016758D01*
X004971Y016771D02*
X004693Y016771D01*
X004693Y016908D01*
X004703Y016944D01*
X004721Y016976D01*
X004747Y017002D01*
X004779Y017020D01*
X004815Y017030D01*
X004971Y017030D01*
X004971Y016771D01*
X004997Y016771D02*
X004997Y017167D01*
X005157Y017167D02*
X005157Y017030D01*
X005049Y016918D02*
X004971Y016918D01*
X004837Y017030D02*
X004837Y017167D01*
X004695Y017238D02*
X004503Y017238D01*
X004503Y017078D02*
X005405Y017078D01*
X005477Y017193D02*
X005477Y017244D01*
X005542Y017238D02*
X005325Y017238D01*
X005317Y017230D02*
X005317Y016946D01*
X005325Y016918D02*
X005405Y016918D01*
X005371Y016758D02*
X005049Y016758D01*
X004997Y016693D02*
X004997Y016384D01*
X004971Y016438D02*
X005049Y016438D01*
X005049Y016598D02*
X004971Y016598D01*
X004837Y016694D02*
X004837Y016771D01*
X004696Y016918D02*
X004503Y016918D01*
X004677Y017257D02*
X004677Y016212D01*
X004743Y016278D02*
X004521Y016278D01*
X004521Y016438D02*
X004802Y016438D01*
X004837Y016435D02*
X004837Y016302D01*
X004693Y016598D02*
X004504Y016598D01*
X004517Y016586D02*
X004517Y017631D01*
X004503Y017558D02*
X004673Y017558D01*
X004677Y017712D02*
X004677Y018520D01*
X004675Y018518D02*
X004776Y018518D01*
X004779Y018520D02*
X004747Y018502D01*
X004721Y018476D01*
X004703Y018444D01*
X004693Y018408D01*
X004693Y018271D01*
X004971Y018271D01*
X004971Y018194D01*
X004693Y018194D01*
X004693Y018056D01*
X004703Y018021D01*
X004721Y017989D01*
X004747Y017963D01*
X004779Y017944D01*
X004815Y017935D01*
X004971Y017935D01*
X004971Y018193D01*
X005049Y018193D01*
X005049Y017935D01*
X005206Y017935D01*
X005241Y017944D01*
X005273Y017963D01*
X005299Y017989D01*
X005318Y018021D01*
X005327Y018056D01*
X005327Y018194D01*
X005049Y018194D01*
X005049Y018271D01*
X005327Y018271D01*
X005327Y018408D01*
X005318Y018444D01*
X005299Y018476D01*
X005273Y018502D01*
X005241Y018520D01*
X005206Y018530D01*
X005049Y018530D01*
X005049Y018271D01*
X004971Y018271D01*
X004971Y018530D01*
X004815Y018530D01*
X004779Y018520D01*
X004837Y018530D02*
X004837Y018650D01*
X004859Y018678D02*
X005405Y018678D01*
X005405Y018518D02*
X005245Y018518D01*
X005157Y018530D02*
X005157Y019051D01*
X005114Y018998D02*
X005550Y018998D01*
X005550Y018925D02*
X005559Y018889D01*
X005578Y018857D01*
X005604Y018831D01*
X005632Y018815D01*
X005499Y018815D01*
X005597Y018838D02*
X004987Y018838D01*
X004997Y018851D02*
X004997Y018271D01*
X004971Y018198D02*
X004186Y018198D01*
X004197Y018204D02*
X004197Y018178D01*
X004357Y018176D02*
X004357Y018281D01*
X004407Y018305D02*
X004407Y018305D01*
X004474Y018358D02*
X004693Y018358D01*
X004837Y018271D02*
X004837Y018194D01*
X004997Y018193D02*
X004997Y017802D01*
X005157Y017802D02*
X005157Y017935D01*
X005049Y018038D02*
X004971Y018038D01*
X004837Y017935D02*
X004837Y017802D01*
X004683Y017718D02*
X004521Y017718D01*
X004521Y017878D02*
X005405Y017878D01*
X005477Y017993D02*
X005477Y018124D01*
X005405Y018198D02*
X005049Y018198D01*
X005157Y018194D02*
X005157Y018271D01*
X005049Y018358D02*
X004971Y018358D01*
X004971Y018518D02*
X005049Y018518D01*
X005317Y018446D02*
X005317Y019372D01*
X005291Y019318D02*
X005550Y019318D01*
X005550Y019298D02*
X005925Y019298D01*
X005925Y019218D01*
X005550Y019218D01*
X005550Y018925D01*
X005550Y019158D02*
X005213Y019158D01*
X005550Y019298D02*
X005550Y019592D01*
X005559Y019627D01*
X005578Y019659D01*
X005604Y019685D01*
X005636Y019704D01*
X005671Y019713D01*
X005925Y019713D01*
X005925Y019299D01*
X006005Y019299D01*
X006005Y019713D01*
X006259Y019713D01*
X006295Y019704D01*
X006327Y019685D01*
X006353Y019659D01*
X006371Y019627D01*
X006381Y019592D01*
X006381Y019298D01*
X006005Y019298D01*
X006005Y019218D01*
X006381Y019218D01*
X006381Y018925D01*
X006371Y018889D01*
X006353Y018857D01*
X006327Y018831D01*
X006295Y018813D01*
X006259Y018803D01*
X006076Y018803D01*
X006131Y018749D01*
X006149Y018767D01*
X006181Y018786D01*
X006216Y018795D01*
X006411Y018795D01*
X006411Y018499D01*
X006491Y018499D01*
X006491Y018795D01*
X006686Y018795D01*
X006707Y018790D01*
X006707Y018803D01*
X006632Y018877D01*
X006632Y019640D01*
X006707Y019714D01*
X006707Y019798D01*
X006650Y019798D01*
X006597Y019852D02*
X006597Y018795D01*
X006671Y018838D02*
X006334Y018838D01*
X006277Y018808D02*
X006277Y018795D01*
X006117Y018803D02*
X006117Y018763D01*
X006411Y018678D02*
X006491Y018678D01*
X006491Y018518D02*
X006411Y018518D01*
X006437Y018499D02*
X006437Y019948D01*
X006277Y019948D02*
X006277Y019709D01*
X006365Y019638D02*
X006632Y019638D01*
X006632Y019478D02*
X006381Y019478D01*
X006381Y019318D02*
X006632Y019318D01*
X006632Y019158D02*
X006381Y019158D01*
X006277Y019218D02*
X006277Y019298D01*
X006117Y019298D02*
X006117Y019218D01*
X006005Y019318D02*
X005925Y019318D01*
X005957Y019299D02*
X005957Y019948D01*
X006117Y019948D02*
X006117Y019713D01*
X006005Y019638D02*
X005925Y019638D01*
X005797Y019713D02*
X005797Y019948D01*
X005637Y019948D02*
X005637Y019704D01*
X005566Y019638D02*
X005424Y019638D01*
X005368Y019478D02*
X005550Y019478D01*
X005637Y019298D02*
X005637Y019218D01*
X005797Y019218D02*
X005797Y019298D01*
X005925Y019478D02*
X006005Y019478D01*
X006381Y018998D02*
X006632Y018998D01*
X006808Y018587D02*
X006884Y018511D01*
X007035Y018448D01*
X010035Y018448D01*
X010198Y018448D01*
X010349Y018511D01*
X010444Y018606D01*
X010469Y018606D01*
X010563Y018700D01*
X010563Y019817D01*
X010526Y019853D01*
X010526Y019948D01*
X012047Y019948D01*
X012016Y019940D01*
X011984Y019922D01*
X011958Y019896D01*
X011939Y019864D01*
X011930Y019828D01*
X011930Y019633D01*
X012226Y019633D01*
X012226Y019553D01*
X011930Y019553D01*
X011930Y019358D01*
X011939Y019322D01*
X011958Y019291D01*
X011976Y019273D01*
X011910Y019207D01*
X011910Y018641D01*
X011996Y018554D01*
X011960Y018487D01*
X011946Y018473D01*
X011925Y018421D01*
X011892Y018361D01*
X011896Y018351D01*
X011888Y018334D01*
X011888Y018183D01*
X011946Y018044D01*
X011972Y018018D01*
X007280Y018018D01*
X007157Y017895D01*
X006828Y017566D01*
X006828Y017922D01*
X006734Y018015D01*
X006168Y018015D01*
X006116Y017963D01*
X006065Y018015D01*
X006022Y018015D01*
X006022Y018102D01*
X006065Y018102D01*
X006131Y018168D01*
X006149Y018150D01*
X006181Y018131D01*
X006216Y018122D01*
X006411Y018122D01*
X006411Y018418D01*
X006491Y018418D01*
X006491Y018122D01*
X006686Y018122D01*
X006722Y018131D01*
X006754Y018150D01*
X006780Y018176D01*
X006798Y018208D01*
X006808Y018243D01*
X006808Y018418D01*
X006491Y018418D01*
X006491Y018498D01*
X006808Y018498D01*
X006808Y018587D01*
X006808Y018518D02*
X006877Y018518D01*
X006917Y018497D02*
X006917Y017655D01*
X006980Y017718D02*
X006828Y017718D01*
X006828Y017878D02*
X007140Y017878D01*
X007077Y017815D02*
X007077Y018448D01*
X007237Y018448D02*
X007237Y017975D01*
X007397Y018018D02*
X007397Y018448D01*
X007557Y018448D02*
X007557Y018018D01*
X007717Y018018D02*
X007717Y018448D01*
X007877Y018448D02*
X007877Y018018D01*
X008037Y018018D02*
X008037Y018448D01*
X008197Y018448D02*
X008197Y018018D01*
X008357Y018018D02*
X008357Y018448D01*
X008517Y018448D02*
X008517Y018018D01*
X008677Y018018D02*
X008677Y018448D01*
X008837Y018448D02*
X008837Y018018D01*
X008997Y018018D02*
X008997Y018448D01*
X009157Y018448D02*
X009157Y018018D01*
X009317Y018018D02*
X009317Y018448D01*
X009477Y018448D02*
X009477Y018018D01*
X009637Y018018D02*
X009637Y018448D01*
X009797Y018448D02*
X009797Y018018D01*
X009957Y018018D02*
X009957Y018448D01*
X010117Y018448D02*
X010117Y018018D01*
X010277Y018018D02*
X010277Y018481D01*
X010356Y018518D02*
X011977Y018518D01*
X011910Y018678D02*
X011812Y018678D01*
X011814Y018680D02*
X011833Y018712D01*
X011842Y018748D01*
X011842Y019218D01*
X011506Y019218D01*
X011506Y018626D01*
X011721Y018626D01*
X011756Y018636D01*
X011788Y018654D01*
X011814Y018680D01*
X011717Y018626D02*
X011717Y018018D01*
X011877Y018018D02*
X011877Y019948D01*
X011788Y019863D02*
X011756Y019881D01*
X011721Y019891D01*
X011506Y019891D01*
X011506Y019299D01*
X011426Y019299D01*
X011426Y019891D01*
X011211Y019891D01*
X011176Y019881D01*
X011144Y019863D01*
X011118Y019836D01*
X011099Y019805D01*
X011090Y019769D01*
X011090Y019298D01*
X011426Y019298D01*
X011426Y019218D01*
X011506Y019218D01*
X011506Y019298D01*
X011842Y019298D01*
X011842Y019769D01*
X011833Y019805D01*
X011814Y019836D01*
X011788Y019863D01*
X011717Y019891D02*
X011717Y019948D01*
X011557Y019948D02*
X011557Y019891D01*
X011506Y019798D02*
X011426Y019798D01*
X011397Y019891D02*
X011397Y019948D01*
X011237Y019948D02*
X011237Y019891D01*
X011098Y019798D02*
X010563Y019798D01*
X010597Y019948D02*
X010597Y018018D01*
X010757Y018018D02*
X010757Y019948D01*
X010917Y019948D02*
X010917Y018018D01*
X011077Y018018D02*
X011077Y019948D01*
X011090Y019638D02*
X010563Y019638D01*
X010563Y019478D02*
X011090Y019478D01*
X011090Y019318D02*
X010563Y019318D01*
X010563Y019158D02*
X011090Y019158D01*
X011090Y019218D02*
X011090Y018748D01*
X011099Y018712D01*
X011118Y018680D01*
X011144Y018654D01*
X011176Y018636D01*
X011211Y018626D01*
X011426Y018626D01*
X011426Y019218D01*
X011090Y019218D01*
X011237Y019218D02*
X011237Y019298D01*
X011397Y019298D02*
X011397Y019218D01*
X011426Y019158D02*
X011506Y019158D01*
X011557Y019218D02*
X011557Y019298D01*
X011506Y019318D02*
X011426Y019318D01*
X011426Y019478D02*
X011506Y019478D01*
X011506Y019638D02*
X011426Y019638D01*
X011842Y019638D02*
X011930Y019638D01*
X012037Y019633D02*
X012037Y019553D01*
X011930Y019478D02*
X011842Y019478D01*
X011842Y019318D02*
X011942Y019318D01*
X011910Y019158D02*
X011842Y019158D01*
X011717Y019218D02*
X011717Y019298D01*
X011842Y018998D02*
X011910Y018998D01*
X011910Y018838D02*
X011842Y018838D01*
X011506Y018838D02*
X011426Y018838D01*
X011426Y018678D02*
X011506Y018678D01*
X011557Y018626D02*
X011557Y018018D01*
X011397Y018018D02*
X011397Y018626D01*
X011237Y018626D02*
X011237Y018018D01*
X011120Y018678D02*
X010542Y018678D01*
X010437Y018599D02*
X010437Y018018D01*
X010437Y017198D02*
X010437Y015025D01*
X010410Y014998D02*
X009719Y014998D01*
X009757Y014960D02*
X009663Y015054D01*
X009058Y015054D01*
X008964Y014960D01*
X008964Y014709D01*
X008964Y014528D01*
X008923Y014528D01*
X008740Y014619D01*
X008731Y014629D01*
X008674Y014652D01*
X008655Y014662D01*
X008687Y014694D01*
X008745Y014833D01*
X008745Y014984D01*
X008687Y015123D01*
X008603Y015206D01*
X008718Y015206D01*
X008812Y015300D01*
X008812Y015905D01*
X008718Y015999D01*
X008468Y015999D01*
X008448Y015979D01*
X008409Y015979D01*
X008409Y016023D01*
X008416Y016022D01*
X008611Y016022D01*
X008611Y016318D01*
X008691Y016318D01*
X008691Y016022D01*
X008886Y016022D01*
X008922Y016031D01*
X008954Y016050D01*
X008980Y016076D01*
X008998Y016108D01*
X009008Y016143D01*
X009008Y016318D01*
X008691Y016318D01*
X008691Y016398D01*
X009008Y016398D01*
X009008Y016574D01*
X008998Y016609D01*
X008980Y016641D01*
X008954Y016667D01*
X008922Y016686D01*
X008886Y016695D01*
X008691Y016695D01*
X008691Y016399D01*
X008611Y016399D01*
X008611Y016695D01*
X008464Y016695D01*
X008464Y017198D01*
X012480Y017198D01*
X012506Y017172D01*
X012530Y017148D01*
X012579Y016983D01*
X012588Y016953D01*
X012588Y016933D01*
X012610Y016882D01*
X012629Y016817D01*
X012629Y016817D01*
X012639Y016811D01*
X012646Y016794D01*
X012752Y016688D01*
X012891Y016630D01*
X013042Y016630D01*
X013181Y016688D01*
X013287Y016794D01*
X013345Y016933D01*
X013345Y017083D01*
X013957Y016471D01*
X013957Y016418D01*
X013990Y016438D02*
X009008Y016438D01*
X008997Y016398D02*
X008997Y016318D01*
X009008Y016278D02*
X010940Y016278D01*
X010957Y016295D02*
X010657Y015995D01*
X010657Y015821D01*
X010657Y015245D01*
X010259Y014848D01*
X009757Y014848D01*
X009757Y014960D01*
X009797Y014848D02*
X009797Y017198D01*
X009957Y017198D02*
X009957Y014848D01*
X010117Y014848D02*
X010117Y017198D01*
X010277Y017198D02*
X010277Y014865D01*
X010570Y015158D02*
X008651Y015158D01*
X008677Y015133D02*
X008677Y015206D01*
X008812Y015318D02*
X010657Y015318D01*
X010597Y015185D02*
X010597Y017198D01*
X010757Y017198D02*
X010757Y016095D01*
X010780Y016118D02*
X009001Y016118D01*
X008997Y016105D02*
X008997Y014992D01*
X009003Y014998D02*
X008739Y014998D01*
X008745Y014838D02*
X008964Y014838D01*
X008964Y014678D02*
X008671Y014678D01*
X008677Y014684D02*
X008677Y014651D01*
X008837Y014571D02*
X008837Y016022D01*
X008759Y015958D02*
X010657Y015958D01*
X010657Y015798D02*
X008812Y015798D01*
X008812Y015638D02*
X010657Y015638D01*
X010657Y015478D02*
X008812Y015478D01*
X008677Y015999D02*
X008677Y016318D01*
X008691Y016278D02*
X008611Y016278D01*
X008677Y016399D02*
X008677Y017198D01*
X008837Y017198D02*
X008837Y016695D01*
X008691Y016598D02*
X008611Y016598D01*
X008517Y016695D02*
X008517Y017198D01*
X008464Y017078D02*
X012551Y017078D01*
X012517Y017161D02*
X012517Y016418D01*
X012677Y016418D02*
X012677Y016764D01*
X012682Y016758D02*
X008464Y016758D01*
X008464Y016918D02*
X012595Y016918D01*
X012579Y016983D02*
X012579Y016983D01*
X012629Y016817D02*
X012629Y016817D01*
X012837Y016653D02*
X012837Y016418D01*
X012997Y016418D02*
X012997Y016630D01*
X013157Y016678D02*
X013157Y016418D01*
X013317Y016418D02*
X013317Y016865D01*
X013338Y016918D02*
X013510Y016918D01*
X013477Y016951D02*
X013477Y016418D01*
X013637Y016418D02*
X013637Y016791D01*
X013670Y016758D02*
X013251Y016758D01*
X013345Y017078D02*
X013350Y017078D01*
X013797Y016631D02*
X013797Y016418D01*
X013957Y016471D02*
X014010Y016418D01*
X011080Y016418D01*
X010957Y016295D01*
X010917Y016255D02*
X010917Y017198D01*
X011077Y017198D02*
X011077Y016415D01*
X011237Y016418D02*
X011237Y017198D01*
X011397Y017198D02*
X011397Y016418D01*
X011557Y016418D02*
X011557Y017198D01*
X011717Y017198D02*
X011717Y016418D01*
X011877Y016418D02*
X011877Y017198D01*
X012037Y017198D02*
X012037Y016418D01*
X012197Y016418D02*
X012197Y017198D01*
X012357Y017198D02*
X012357Y016418D01*
X011916Y015431D02*
X011967Y015308D01*
X012116Y015159D01*
X012311Y015078D01*
X012522Y015078D01*
X012637Y015126D01*
X011572Y014061D01*
X010580Y014061D01*
X011354Y014835D01*
X011366Y014834D01*
X011383Y014841D01*
X011402Y014842D01*
X011436Y014859D01*
X011471Y014871D01*
X011485Y014884D01*
X011501Y014892D01*
X011526Y014921D01*
X011554Y014946D01*
X011562Y014963D01*
X011806Y015248D01*
X011866Y015308D01*
X011916Y015431D01*
X011877Y015334D02*
X011877Y014365D01*
X011870Y014358D02*
X010878Y014358D01*
X010917Y014397D02*
X010917Y014061D01*
X011077Y014061D02*
X011077Y014557D01*
X011038Y014518D02*
X012030Y014518D01*
X012037Y014525D02*
X012037Y015239D01*
X011963Y015318D02*
X011870Y015318D01*
X011729Y015158D02*
X012118Y015158D01*
X012197Y015126D02*
X012197Y014685D01*
X012190Y014678D02*
X011198Y014678D01*
X011237Y014717D02*
X011237Y014061D01*
X011397Y014061D02*
X011397Y014842D01*
X011377Y014838D02*
X012350Y014838D01*
X012357Y014845D02*
X012357Y015078D01*
X012517Y015078D02*
X012517Y015005D01*
X012510Y014998D02*
X011592Y014998D01*
X011557Y014952D02*
X011557Y014061D01*
X011710Y014198D02*
X010718Y014198D01*
X010757Y014237D02*
X010757Y014061D01*
X010597Y014061D02*
X010597Y014077D01*
X009637Y015054D02*
X009637Y017198D01*
X009477Y017198D02*
X009477Y015054D01*
X009317Y015054D02*
X009317Y017198D01*
X009157Y017198D02*
X009157Y015054D01*
X008517Y015999D02*
X008517Y016022D01*
X008611Y016118D02*
X008691Y016118D01*
X008837Y016318D02*
X008837Y016398D01*
X008691Y016438D02*
X008611Y016438D01*
X009001Y016598D02*
X013830Y016598D01*
X014138Y017183D02*
X013905Y017417D01*
X014077Y017417D01*
X014077Y017734D01*
X014156Y017734D01*
X014156Y017417D01*
X014194Y017417D01*
X014138Y017284D01*
X014138Y017183D01*
X014117Y017205D02*
X014117Y017734D01*
X014156Y017718D02*
X014077Y017718D01*
X013957Y017734D02*
X013957Y017814D01*
X013788Y018038D02*
X012581Y018038D01*
X012677Y018018D02*
X012677Y018574D01*
X012556Y018518D02*
X013760Y018518D01*
X013760Y018358D02*
X012640Y018358D01*
X012645Y018198D02*
X013760Y018198D01*
X013797Y018123D02*
X013797Y018057D01*
X013317Y018005D02*
X013317Y018634D01*
X013323Y018678D02*
X013760Y018678D01*
X013157Y018547D02*
X013157Y018018D01*
X012997Y018018D02*
X012997Y018547D01*
X012837Y018547D02*
X012837Y018018D01*
X011952Y018038D02*
X006022Y018038D01*
X006117Y017963D02*
X006117Y018153D01*
X006277Y018122D02*
X006277Y018015D01*
X006437Y018015D02*
X006437Y018418D01*
X006411Y018358D02*
X006491Y018358D01*
X006597Y018418D02*
X006597Y018498D01*
X006757Y018498D02*
X006757Y018418D01*
X006808Y018358D02*
X011893Y018358D01*
X011892Y018361D02*
X011892Y018361D01*
X011888Y018198D02*
X006793Y018198D01*
X006757Y018152D02*
X006757Y017993D01*
X006597Y018015D02*
X006597Y018122D01*
X006491Y018198D02*
X006411Y018198D01*
X005542Y018038D02*
X005323Y018038D01*
X005317Y018019D02*
X005317Y017739D01*
X005317Y018194D02*
X005317Y018271D01*
X005327Y018358D02*
X005405Y018358D01*
X004698Y018038D02*
X004521Y018038D01*
X004517Y018086D02*
X004517Y018392D01*
X003846Y018053D02*
X003846Y017635D01*
X003863Y017617D01*
X003863Y017478D01*
X003530Y017478D01*
X003403Y017478D01*
X003285Y017430D01*
X003073Y017218D01*
X003073Y017307D01*
X003021Y017358D01*
X003073Y017410D01*
X003073Y017735D01*
X003286Y017948D01*
X003388Y017948D01*
X003846Y018053D01*
X003846Y018038D02*
X003782Y018038D01*
X003717Y018023D02*
X003717Y017478D01*
X003557Y017478D02*
X003557Y017987D01*
X003397Y017950D02*
X003397Y017476D01*
X003254Y017398D02*
X003062Y017398D01*
X003073Y017238D02*
X003094Y017238D01*
X003077Y017221D02*
X003077Y017739D01*
X003073Y017718D02*
X003846Y017718D01*
X003846Y017878D02*
X003216Y017878D01*
X003237Y017899D02*
X003237Y017381D01*
X003073Y017558D02*
X003863Y017558D01*
X004503Y017398D02*
X004673Y017398D01*
X005157Y016771D02*
X005157Y016694D01*
X005317Y016704D02*
X005317Y016771D01*
X005207Y015478D02*
X004403Y015478D01*
X004357Y015333D02*
X004357Y015253D01*
X004197Y015253D02*
X004197Y015333D01*
X004106Y015478D02*
X004027Y015478D01*
X004423Y014838D02*
X004476Y014838D01*
X004476Y014678D02*
X004423Y014678D01*
X004426Y014518D02*
X004476Y014518D01*
X003717Y013461D02*
X003717Y013300D01*
X003777Y013238D02*
X003856Y013238D01*
X003877Y013300D02*
X003877Y013301D01*
X003780Y013398D02*
X003379Y013398D01*
X003480Y013078D02*
X002326Y013078D01*
X003399Y012758D02*
X003480Y012758D01*
X003502Y012598D02*
X003416Y012598D01*
X003557Y012903D02*
X003557Y012983D01*
X003717Y012983D02*
X003717Y012903D01*
X003777Y013078D02*
X003856Y013078D01*
X005860Y015134D02*
X005860Y015226D01*
X005889Y015226D01*
X005909Y015206D01*
X006159Y015206D01*
X006356Y015206D01*
X006553Y015206D01*
X006750Y015206D01*
X006808Y015206D01*
X006808Y014647D01*
X006740Y014579D01*
X006728Y014585D01*
X006676Y014568D01*
X006530Y014568D01*
X006510Y014548D01*
X006397Y014536D01*
X006341Y014536D01*
X006322Y014529D01*
X006307Y014527D01*
X006290Y014525D01*
X006278Y014510D01*
X006202Y014479D01*
X006195Y014471D01*
X006195Y014993D01*
X006101Y015086D01*
X005931Y015086D01*
X005860Y015134D01*
X005860Y015158D02*
X006808Y015158D01*
X006757Y015206D02*
X006757Y014595D01*
X006808Y014678D02*
X006195Y014678D01*
X006195Y014518D02*
X006285Y014518D01*
X006277Y014510D02*
X006277Y015206D01*
X006437Y015206D02*
X006437Y014541D01*
X006597Y014568D02*
X006597Y015206D01*
X006808Y014998D02*
X006189Y014998D01*
X006117Y015071D02*
X006117Y015206D01*
X005957Y015206D02*
X005957Y015086D01*
X006195Y014838D02*
X006808Y014838D01*
X008997Y016612D02*
X008997Y017198D01*
X010563Y018838D02*
X011090Y018838D01*
X011090Y018998D02*
X010563Y018998D01*
X011426Y018998D02*
X011506Y018998D01*
X011834Y019798D02*
X011930Y019798D01*
X012037Y019946D02*
X012037Y019948D01*
X012197Y019633D02*
X012197Y019553D01*
X012307Y019553D02*
X012307Y019633D01*
X012603Y019633D01*
X012603Y019828D01*
X012594Y019864D01*
X012575Y019896D01*
X012549Y019922D01*
X012517Y019940D01*
X012486Y019948D01*
X012682Y019948D01*
X012610Y019876D01*
X012610Y019310D01*
X012662Y019258D01*
X012617Y019213D01*
X012557Y019273D01*
X012575Y019291D01*
X012594Y019322D01*
X012603Y019358D01*
X012603Y019553D01*
X012307Y019553D01*
X012357Y019553D02*
X012357Y019633D01*
X012517Y019633D02*
X012517Y019553D01*
X012603Y019478D02*
X012610Y019478D01*
X012610Y019318D02*
X012591Y019318D01*
X012603Y019638D02*
X012610Y019638D01*
X012603Y019798D02*
X012610Y019798D01*
X012677Y019943D02*
X012677Y019948D01*
X012517Y019940D02*
X012517Y019948D01*
X012517Y020768D02*
X012517Y021148D01*
X012677Y021148D02*
X012677Y020768D01*
X012837Y020768D02*
X012837Y021148D01*
X012997Y021148D02*
X012997Y020768D01*
X012885Y020768D02*
X010035Y020768D01*
X009884Y020706D01*
X009769Y020591D01*
X009707Y020440D01*
X009707Y020277D01*
X009707Y019268D01*
X007526Y019268D01*
X007526Y019290D01*
X007526Y019798D01*
X007583Y019798D01*
X009707Y019798D01*
X009707Y019638D02*
X007526Y019638D01*
X007526Y019478D02*
X009707Y019478D01*
X009707Y019318D02*
X007526Y019318D01*
X007557Y019268D02*
X007557Y019798D01*
X007583Y019798D02*
X007676Y019892D01*
X007676Y020825D01*
X007649Y020852D01*
X007649Y021148D01*
X019999Y021148D01*
X020141Y021137D01*
X020411Y021049D01*
X020641Y020882D01*
X020808Y020653D01*
X020895Y020382D01*
X020907Y020240D01*
X020907Y020179D01*
X020907Y020153D01*
X020907Y018314D01*
X020741Y018314D01*
X020349Y018706D01*
X020198Y018768D01*
X020116Y018768D01*
X019938Y018778D01*
X019591Y018858D01*
X019419Y018941D01*
X019453Y018928D01*
X019534Y018928D01*
X019617Y018928D01*
X019780Y018928D01*
X019781Y018928D01*
X020089Y019041D01*
X020340Y019251D01*
X020340Y019251D01*
X020340Y019251D01*
X020504Y019535D01*
X020504Y019535D01*
X020561Y019858D01*
X020561Y019858D01*
X020504Y020181D01*
X020504Y020181D01*
X020340Y020465D01*
X020340Y020465D01*
X020089Y020676D01*
X020089Y020676D01*
X019781Y020788D01*
X019780Y020788D01*
X019617Y020788D01*
X019534Y020788D01*
X019453Y020788D01*
X019144Y020676D01*
X018893Y020465D01*
X018729Y020181D01*
X018672Y019858D01*
X018712Y019634D01*
X018616Y019833D01*
X018536Y020180D01*
X018526Y020358D01*
X018526Y020440D01*
X018464Y020591D01*
X018349Y020706D01*
X018198Y020768D01*
X015135Y020768D01*
X014485Y020768D01*
X014335Y020768D01*
X014285Y020768D01*
X012885Y020768D01*
X013157Y020768D02*
X013157Y021148D01*
X013317Y021148D02*
X013317Y020768D01*
X013477Y020768D02*
X013477Y021148D01*
X013637Y021148D02*
X013637Y020768D01*
X013797Y020768D02*
X013797Y021148D01*
X013957Y021148D02*
X013957Y020768D01*
X014117Y020768D02*
X014117Y021148D01*
X014277Y021148D02*
X014277Y020768D01*
X014437Y020768D02*
X014437Y021148D01*
X014597Y021148D02*
X014597Y020768D01*
X014757Y020768D02*
X014757Y021148D01*
X014917Y021148D02*
X014917Y020768D01*
X015077Y020768D02*
X015077Y021148D01*
X015237Y021148D02*
X015237Y020768D01*
X015397Y020768D02*
X015397Y021148D01*
X015557Y021148D02*
X015557Y020768D01*
X015717Y020768D02*
X015717Y021148D01*
X015877Y021148D02*
X015877Y020768D01*
X016037Y020768D02*
X016037Y021148D01*
X016197Y021148D02*
X016197Y020768D01*
X016357Y020768D02*
X016357Y021148D01*
X016517Y021148D02*
X016517Y020768D01*
X016677Y020768D02*
X016677Y021148D01*
X016837Y021148D02*
X016837Y020768D01*
X016997Y020768D02*
X016997Y021148D01*
X017157Y021148D02*
X017157Y020768D01*
X017317Y020768D02*
X017317Y021148D01*
X017477Y021148D02*
X017477Y020768D01*
X017637Y020768D02*
X017637Y021148D01*
X017797Y021148D02*
X017797Y020768D01*
X017957Y020768D02*
X017957Y021148D01*
X018117Y021148D02*
X018117Y020768D01*
X018222Y020758D02*
X019370Y020758D01*
X019397Y020768D02*
X019397Y021148D01*
X019557Y021148D02*
X019557Y020788D01*
X019717Y020788D02*
X019717Y021148D01*
X019877Y021148D02*
X019877Y020753D01*
X019863Y020758D02*
X020731Y020758D01*
X020677Y020833D02*
X020677Y018378D01*
X020696Y018358D02*
X020907Y018358D01*
X020837Y018314D02*
X020837Y020563D01*
X020825Y020598D02*
X020181Y020598D01*
X020197Y020586D02*
X020197Y021119D01*
X020321Y021078D02*
X007649Y021078D01*
X007717Y021148D02*
X007717Y019268D01*
X007877Y019268D02*
X007877Y021148D01*
X008037Y021148D02*
X008037Y020647D01*
X008033Y020641D02*
X007994Y020566D01*
X007968Y020485D01*
X007954Y020401D01*
X007954Y020398D01*
X008454Y020398D01*
X008454Y020318D01*
X008534Y020318D01*
X008534Y019818D01*
X008537Y019818D01*
X008621Y019832D01*
X008702Y019858D01*
X008777Y019897D01*
X008846Y019947D01*
X008906Y020007D01*
X008956Y020075D01*
X008995Y020151D01*
X009021Y020232D01*
X009034Y020316D01*
X009034Y020318D01*
X008535Y020318D01*
X008535Y020398D01*
X009034Y020398D01*
X009034Y020401D01*
X009021Y020485D01*
X008995Y020566D01*
X008956Y020641D01*
X008906Y020710D01*
X008846Y020770D01*
X008777Y020820D01*
X008702Y020859D01*
X008621Y020885D01*
X008537Y020898D01*
X008534Y020898D01*
X008534Y020399D01*
X008454Y020399D01*
X008454Y020898D01*
X008452Y020898D01*
X008368Y020885D01*
X008287Y020859D01*
X008211Y020820D01*
X008143Y020770D01*
X008083Y020710D01*
X008033Y020641D01*
X008011Y020598D02*
X007676Y020598D01*
X007676Y020438D02*
X007960Y020438D01*
X008037Y020398D02*
X008037Y020318D01*
X007954Y020316D02*
X007968Y020232D01*
X007994Y020151D01*
X008033Y020075D01*
X008083Y020007D01*
X008143Y019947D01*
X008211Y019897D01*
X008287Y019858D01*
X008368Y019832D01*
X008452Y019818D01*
X008454Y019818D01*
X008454Y020318D01*
X007954Y020318D01*
X007954Y020316D01*
X007960Y020278D02*
X007676Y020278D01*
X007676Y020118D02*
X008011Y020118D01*
X008037Y020070D02*
X008037Y019268D01*
X008197Y019268D02*
X008197Y019907D01*
X008131Y019958D02*
X007676Y019958D01*
X008197Y020318D02*
X008197Y020398D01*
X008357Y020398D02*
X008357Y020318D01*
X008454Y020278D02*
X008534Y020278D01*
X008517Y020318D02*
X008517Y019268D01*
X008677Y019268D02*
X008677Y019850D01*
X008534Y019958D02*
X008454Y019958D01*
X008357Y019835D02*
X008357Y019268D01*
X008837Y019268D02*
X008837Y019939D01*
X008858Y019958D02*
X009707Y019958D01*
X009707Y020118D02*
X008978Y020118D01*
X008997Y020156D02*
X008997Y019268D01*
X009157Y019268D02*
X009157Y021148D01*
X009317Y021148D02*
X009317Y019268D01*
X009477Y019268D02*
X009477Y021148D01*
X009637Y021148D02*
X009637Y019268D01*
X009707Y020278D02*
X009029Y020278D01*
X008997Y020318D02*
X008997Y020398D01*
X009029Y020438D02*
X009707Y020438D01*
X009777Y020598D02*
X008978Y020598D01*
X008997Y020561D02*
X008997Y021148D01*
X008837Y021148D02*
X008837Y020777D01*
X008858Y020758D02*
X010011Y020758D01*
X009957Y020736D02*
X009957Y021148D01*
X010117Y021148D02*
X010117Y020768D01*
X010277Y020768D02*
X010277Y021148D01*
X010437Y021148D02*
X010437Y020768D01*
X010597Y020768D02*
X010597Y021148D01*
X010757Y021148D02*
X010757Y020768D01*
X010917Y020768D02*
X010917Y021148D01*
X011077Y021148D02*
X011077Y020768D01*
X011237Y020768D02*
X011237Y021148D01*
X011397Y021148D02*
X011397Y020768D01*
X011557Y020768D02*
X011557Y021148D01*
X011717Y021148D02*
X011717Y020768D01*
X011877Y020768D02*
X011877Y021148D01*
X012037Y021148D02*
X012037Y020768D01*
X012197Y020768D02*
X012197Y021148D01*
X012357Y021148D02*
X012357Y020768D01*
X014852Y019638D02*
X014881Y019638D01*
X014881Y019478D02*
X014852Y019478D01*
X014852Y019318D02*
X014881Y019318D01*
X014917Y019294D02*
X014917Y018296D01*
X014963Y018358D02*
X014761Y018358D01*
X014757Y018340D02*
X014757Y017509D01*
X014779Y017558D02*
X014664Y017558D01*
X014619Y017582D02*
X014619Y017582D01*
X014597Y017584D02*
X014597Y018250D01*
X014473Y018198D02*
X014779Y018198D01*
X014779Y018038D02*
X014445Y018038D01*
X014437Y018057D02*
X014437Y018123D01*
X014453Y017878D02*
X014779Y017878D01*
X014779Y017718D02*
X014453Y017718D01*
X014437Y017734D02*
X014437Y017814D01*
X014277Y017814D02*
X014277Y017734D01*
X014156Y017558D02*
X014077Y017558D01*
X013957Y017417D02*
X013957Y017365D01*
X013923Y017398D02*
X014186Y017398D01*
X014138Y017238D02*
X014083Y017238D01*
X013780Y017558D02*
X013763Y017558D01*
X014761Y018518D02*
X014972Y018518D01*
X014972Y018678D02*
X014772Y018678D01*
X014761Y018838D02*
X014972Y018838D01*
X018277Y020736D02*
X018277Y021148D01*
X018437Y021148D02*
X018437Y020618D01*
X018456Y020598D02*
X019052Y020598D01*
X019077Y020619D02*
X019077Y021148D01*
X019237Y021148D02*
X019237Y020710D01*
X019144Y020676D02*
X019144Y020676D01*
X018917Y020485D02*
X018917Y021148D01*
X018757Y021148D02*
X018757Y020229D01*
X018729Y020181D02*
X018729Y020181D01*
X018718Y020118D02*
X018551Y020118D01*
X018531Y020278D02*
X018785Y020278D01*
X018878Y020438D02*
X018526Y020438D01*
X018893Y020465D02*
X018893Y020465D01*
X018893Y020465D01*
X018690Y019958D02*
X018587Y019958D01*
X018597Y019917D02*
X018597Y021148D01*
X018672Y019858D02*
X018672Y019858D01*
X018683Y019798D02*
X018633Y019798D01*
X018710Y019638D02*
X018711Y019638D01*
X019453Y018928D02*
X019453Y018928D01*
X019557Y018928D02*
X019557Y018874D01*
X019675Y018838D02*
X020907Y018838D01*
X020907Y018678D02*
X020376Y018678D01*
X020357Y018698D02*
X020357Y019280D01*
X020379Y019318D02*
X020907Y019318D01*
X020907Y019158D02*
X020229Y019158D01*
X020197Y019131D02*
X020197Y018768D01*
X020037Y018773D02*
X020037Y019022D01*
X020089Y019041D02*
X020089Y019041D01*
X019973Y018998D02*
X020907Y018998D01*
X020907Y018518D02*
X020536Y018518D01*
X020517Y018538D02*
X020517Y019607D01*
X020522Y019638D02*
X020907Y019638D01*
X020907Y019478D02*
X020471Y019478D01*
X020550Y019798D02*
X020907Y019798D01*
X020907Y019958D02*
X020543Y019958D01*
X020517Y020110D02*
X020517Y020973D01*
X020591Y020918D02*
X007649Y020918D01*
X007676Y020758D02*
X008131Y020758D01*
X008197Y020809D02*
X008197Y021148D01*
X008357Y021148D02*
X008357Y020881D01*
X008454Y020758D02*
X008534Y020758D01*
X008534Y020598D02*
X008454Y020598D01*
X008454Y020438D02*
X008534Y020438D01*
X008517Y020399D02*
X008517Y021148D01*
X008677Y021148D02*
X008677Y020867D01*
X008677Y020398D02*
X008677Y020318D01*
X008837Y020318D02*
X008837Y020398D01*
X008534Y020118D02*
X008454Y020118D01*
X009797Y020618D02*
X009797Y021148D01*
X006384Y021148D02*
X006384Y020768D01*
X005035Y020768D01*
X004884Y020706D01*
X004769Y020591D01*
X004707Y020440D01*
X004707Y020358D01*
X004697Y020180D01*
X004617Y019833D01*
X004521Y019634D01*
X004561Y019858D01*
X004561Y019858D01*
X004504Y020181D01*
X004504Y020181D01*
X004340Y020465D01*
X004340Y020465D01*
X004089Y020676D01*
X004089Y020676D01*
X003781Y020788D01*
X003780Y020788D01*
X003699Y020788D01*
X003616Y020788D01*
X003610Y020788D01*
X003534Y020788D01*
X003453Y020788D01*
X003453Y020788D01*
X003144Y020676D01*
X002893Y020465D01*
X002729Y020181D01*
X002672Y019858D01*
X002729Y019535D01*
X002893Y019251D01*
X003144Y019041D01*
X003144Y019041D01*
X003453Y018928D01*
X003617Y018928D01*
X003780Y018928D01*
X003781Y018928D01*
X003815Y018941D01*
X003642Y018858D01*
X003295Y018778D01*
X003116Y018768D01*
X003035Y018768D01*
X002884Y018706D01*
X002769Y018591D01*
X002769Y018591D01*
X002492Y018314D01*
X002326Y018314D01*
X002326Y020240D01*
X002338Y020382D01*
X002425Y020653D01*
X002592Y020882D01*
X002822Y021049D01*
X003093Y021137D01*
X003235Y021148D01*
X003305Y021148D01*
X003322Y021148D01*
X006384Y021148D01*
X006384Y021078D02*
X002911Y021078D01*
X002917Y021080D02*
X002917Y020485D01*
X002893Y020465D02*
X002893Y020465D01*
X002893Y020465D01*
X002878Y020438D02*
X002356Y020438D01*
X002329Y020278D02*
X002785Y020278D01*
X002757Y020229D02*
X002757Y021002D01*
X002642Y020918D02*
X006384Y020918D01*
X006277Y020768D02*
X006277Y021148D01*
X006117Y021148D02*
X006117Y020768D01*
X005957Y020768D02*
X005957Y021148D01*
X005797Y021148D02*
X005797Y020768D01*
X005637Y020768D02*
X005637Y021148D01*
X005477Y021148D02*
X005477Y020768D01*
X005317Y020768D02*
X005317Y021148D01*
X005157Y021148D02*
X005157Y020768D01*
X005011Y020758D02*
X003863Y020758D01*
X003877Y020753D02*
X003877Y021148D01*
X004037Y021148D02*
X004037Y020695D01*
X004181Y020598D02*
X004777Y020598D01*
X004837Y020658D02*
X004837Y021148D01*
X004997Y021148D02*
X004997Y020752D01*
X004707Y020438D02*
X004355Y020438D01*
X004357Y020437D02*
X004357Y021148D01*
X004517Y021148D02*
X004517Y020110D01*
X004515Y020118D02*
X004682Y020118D01*
X004677Y020093D02*
X004677Y021148D01*
X004197Y021148D02*
X004197Y020586D01*
X004448Y020278D02*
X004702Y020278D01*
X004646Y019958D02*
X004543Y019958D01*
X004550Y019798D02*
X004601Y019798D01*
X004524Y019638D02*
X004522Y019638D01*
X003717Y018928D02*
X003717Y018894D01*
X003557Y018928D02*
X003557Y018838D01*
X003558Y018838D02*
X002326Y018838D01*
X002326Y018678D02*
X002857Y018678D01*
X002917Y018719D02*
X002917Y019232D01*
X002893Y019251D02*
X002893Y019251D01*
X002854Y019318D02*
X002326Y019318D01*
X002326Y019158D02*
X003004Y019158D01*
X003077Y019098D02*
X003077Y018768D01*
X003237Y018775D02*
X003237Y019007D01*
X003260Y018998D02*
X002326Y018998D01*
X002326Y018518D02*
X002697Y018518D01*
X002757Y018578D02*
X002757Y019488D01*
X002762Y019478D02*
X002326Y019478D01*
X002326Y019638D02*
X002711Y019638D01*
X002729Y019535D02*
X002729Y019535D01*
X002683Y019798D02*
X002326Y019798D01*
X002326Y019958D02*
X002690Y019958D01*
X002672Y019858D02*
X002672Y019858D01*
X002718Y020118D02*
X002326Y020118D01*
X002729Y020181D02*
X002729Y020181D01*
X002408Y020598D02*
X003052Y020598D01*
X003077Y020619D02*
X003077Y021132D01*
X003237Y021148D02*
X003237Y020710D01*
X003144Y020676D02*
X003144Y020676D01*
X003370Y020758D02*
X002502Y020758D01*
X002437Y020668D02*
X002437Y018314D01*
X002537Y018358D02*
X002326Y018358D01*
X002597Y018418D02*
X002597Y020885D01*
X003397Y020768D02*
X003397Y021148D01*
X003557Y021148D02*
X003557Y020788D01*
X003717Y020788D02*
X003717Y021148D01*
X003397Y018949D02*
X003397Y018802D01*
X003453Y018928D02*
X003453Y018928D01*
X011717Y015144D02*
X011717Y014205D01*
X019370Y017428D02*
X019370Y017617D01*
X019387Y017635D01*
X019387Y018053D01*
X019845Y017948D01*
X019947Y017948D01*
X020160Y017735D01*
X020160Y017410D01*
X020212Y017358D01*
X020160Y017307D01*
X020160Y017268D01*
X020048Y017380D01*
X019930Y017428D01*
X019803Y017428D01*
X019370Y017428D01*
X019397Y017428D02*
X019397Y018051D01*
X019387Y018038D02*
X019451Y018038D01*
X019557Y018014D02*
X019557Y017428D01*
X019717Y017428D02*
X019717Y017978D01*
X019845Y017948D02*
X019845Y017948D01*
X019877Y017948D02*
X019877Y017428D01*
X020003Y017398D02*
X020171Y017398D01*
X020197Y017373D02*
X020197Y017343D01*
X020037Y017384D02*
X020037Y017859D01*
X020017Y017878D02*
X019387Y017878D01*
X019387Y017718D02*
X020160Y017718D01*
X020160Y017558D02*
X019370Y017558D01*
X019717Y018829D02*
X019717Y018928D01*
X019877Y018963D02*
X019877Y018792D01*
X020515Y020118D02*
X020907Y020118D01*
X020904Y020278D02*
X020448Y020278D01*
X020357Y020437D02*
X020357Y021067D01*
X020037Y021145D02*
X020037Y020695D01*
X020355Y020438D02*
X020877Y020438D01*
D46*
X013817Y019158D03*
X009217Y004408D03*
D47*
X018717Y014958D03*
M02*
